<?xml version="1.0" standalone="no"?>
<!DOCTYPE svg PUBLIC "-//W3C//DTD SVG 20010904//EN"
 "http://www.w3.org/TR/2001/REC-SVG-20010904/DTD/svg10.dtd">
<svg version="1.0" xmlns="http://www.w3.org/2000/svg"
 width="2250.000000pt" height="1375.000000pt" viewBox="0 0 2250.000000 1375.000000"
 preserveAspectRatio="xMidYMid meet">
<metadata>
Created by potrace 1.15, written by Peter Selinger 2001-2017
</metadata>
<g transform="translate(0.000000,1375.000000) scale(0.100000,-0.100000)"
fill="#000000" stroke="none">
<path d="M10587 12230 c-346 -31 -547 -87 -719 -200 -77 -51 -149 -128 -175
-188 -7 -18 -16 -76 -20 -128 l-6 -96 -56 6 c-102 12 -162 29 -172 48 -10 19
-69 26 -69 8 0 -6 -15 -10 -32 -8 -38 3 -50 -12 -22 -27 12 -6 18 -18 16 -32
-5 -33 -23 -28 -52 13 -35 52 -52 59 -180 79 -63 9 -120 23 -125 30 -16 19
-53 27 -72 15 -15 -8 -13 -9 11 -4 26 6 27 5 17 -15 -12 -22 -26 -27 -36 -11
-3 5 -13 6 -21 3 -14 -5 -15 -3 -5 15 6 11 16 22 23 25 7 2 0 8 -15 12 -21 6
-31 3 -41 -11 -12 -16 -19 -17 -77 -6 -171 31 -254 25 -299 -23 -13 -14 -34
-55 -47 -92 -16 -46 -22 -56 -18 -31 9 56 -19 39 -44 -25 -37 -101 -414 -1276
-502 -1567 -43 -143 -42 -152 34 -200 34 -22 86 -50 115 -62 l53 -23 -6 -70
c-11 -130 34 -169 234 -207 105 -19 134 -31 143 -59 5 -15 108 -22 125 -8 13
11 60 8 157 -13 47 -10 48 -11 30 -28 -18 -16 -26 -16 -174 1 -85 11 -230 22
-322 25 l-167 7 -64 -31 c-78 -39 -154 -112 -218 -210 -49 -74 -89 -166 -89
-204 0 -17 -5 -19 -27 -15 -16 3 -107 19 -203 36 -96 17 -335 62 -530 101
-195 39 -363 69 -373 66 -9 -2 -15 -1 -13 3 5 7 -104 29 -349 72 -409 72 -813
105 -1003 83 -42 -6 -50 -9 -41 -20 9 -11 6 -14 -15 -14 -14 0 -26 6 -26 13 0
9 -2 9 -8 -1 -5 -7 -16 -10 -24 -7 -9 4 -19 1 -23 -4 -3 -6 -11 -9 -16 -6 -5
4 -9 2 -9 -3 0 -5 -13 -12 -29 -15 -35 -7 -97 -59 -107 -90 -4 -11 -13 -27
-20 -34 -45 -46 -92 -327 -80 -480 16 -200 117 -408 251 -519 83 -68 102 -92
129 -160 43 -106 52 -193 38 -362 -7 -81 -16 -165 -21 -187 -5 -22 -14 -78
-20 -125 -68 -511 -67 -498 -101 -905 -10 -126 -24 -360 -30 -520 -18 -483
-17 -475 -65 -441 -38 26 -128 48 -198 50 l-72 1 -22 -55 c-28 -71 -73 -324
-73 -420 -1 -41 -6 -111 -11 -155 -6 -44 -8 -109 -4 -144 7 -63 7 -64 92 -152
87 -91 193 -169 343 -254 47 -26 86 -49 88 -50 2 -2 -6 -48 -17 -103 -45 -216
-55 -319 -55 -557 0 -167 4 -260 16 -341 20 -130 71 -338 97 -397 11 -23 31
-73 46 -110 16 -38 33 -74 40 -81 7 -6 21 -32 32 -56 11 -25 51 -81 89 -124
84 -96 188 -168 291 -199 40 -12 73 -24 73 -27 0 -3 -30 -11 -67 -18 -79 -15
-118 -32 -118 -51 0 -17 14 -24 87 -45 61 -18 361 -46 490 -46 42 0 112 -5
155 -11 43 -6 107 -12 143 -14 495 -21 811 -36 925 -45 77 -5 218 -10 313 -10
94 0 172 -4 172 -8 0 -5 84 -12 188 -16 103 -3 216 -11 252 -16 36 -5 131 -10
213 -10 81 0 147 -4 147 -9 0 -5 72 -12 160 -16 88 -4 160 -10 160 -14 0 -7
375 -28 678 -38 67 -2 122 -8 122 -12 0 -11 190 -22 447 -26 117 -2 225 -6
240 -9 15 -3 64 -8 108 -11 44 -3 168 -12 275 -20 462 -34 1360 -42 1825 -14
331 19 651 58 755 91 66 21 66 21 35 28 -29 7 -29 8 10 10 l40 2 -35 10 c-19
5 -47 9 -62 8 -16 0 -28 4 -28 9 0 4 -15 7 -32 5 l-33 -3 30 16 c17 9 44 26
60 38 17 13 49 32 71 44 39 19 106 76 224 192 25 25 57 66 69 92 13 26 35 56
49 68 33 25 82 98 82 121 0 27 42 108 56 108 7 0 20 7 28 16 9 8 16 11 16 6 0
-10 87 -18 258 -25 52 -2 71 1 68 9 -3 8 9 7 36 -4 36 -14 41 -14 49 0 7 13
44 15 252 16 133 1 283 6 332 12 50 5 154 10 233 10 82 0 174 6 215 14 295 58
214 54 1027 46 548 -5 1015 41 1015 100 0 8 -8 14 -17 14 -26 -2 -22 8 9 31
142 102 209 216 273 458 117 446 165 870 141 1226 -7 102 -15 206 -18 230 l-5
44 28 -7 c16 -4 73 -10 126 -13 l97 -5 6 25 c7 25 38 42 287 150 l56 25 7 55
c9 67 2 82 -28 63 -12 -7 -35 -17 -52 -21 -16 -3 -32 -10 -35 -13 -6 -9 -100
-55 -118 -58 -7 -1 -23 -9 -35 -17 -26 -17 -97 -31 -97 -20 0 8 24 20 97 48
41 16 67 41 52 51 -8 5 -8 8 0 14 16 9 3 38 -20 45 -11 4 -28 1 -37 -6 -9 -7
-3 2 13 20 29 31 30 36 31 129 1 53 5 143 9 200 7 88 6 105 -9 120 -9 10 -19
40 -23 67 -3 27 -15 58 -25 69 -10 11 -18 16 -18 11 0 -5 -7 0 -15 11 -9 12
-18 15 -22 9 -5 -6 -20 -16 -35 -24 -50 -26 -84 -110 -76 -184 7 -61 -8 -81
-16 -23 -4 25 -11 46 -16 46 -5 0 -15 19 -22 43 -6 23 -15 44 -19 47 -3 3 -15
30 -27 61 -22 60 -43 87 -105 132 -20 16 -35 33 -31 38 3 6 -2 9 -12 8 -11 -2
-23 -1 -29 3 -5 3 -35 11 -65 16 -68 13 -131 2 -194 -33 -25 -14 -46 -21 -46
-14 0 6 9 13 20 16 11 3 20 12 20 20 0 7 6 13 13 12 25 -3 37 1 37 15 0 8 -6
16 -12 19 -7 2 -10 7 -7 11 3 4 18 2 33 -4 15 -5 32 -8 37 -4 15 9 10 36 -8
50 -15 11 -20 9 -30 -9 -7 -12 -12 -16 -13 -9 0 7 -5 10 -10 7 -6 -4 -17 -2
-25 5 -9 7 -15 8 -20 0 -8 -13 -25 -13 -25 0 0 6 7 10 15 10 8 0 15 5 15 10 0
6 6 10 14 10 20 0 25 22 8 39 -12 12 -15 12 -23 0 -8 -12 -11 -11 -20 4 -5 9
-20 17 -32 17 -21 -1 -22 -1 -3 -15 18 -14 12 -15 -61 -15 -44 0 -94 -3 -110
-6 -21 -4 -35 -1 -48 12 -18 18 -18 18 -13 -7 4 -23 2 -25 -19 -21 -14 3 -22
10 -19 17 10 28 -9 23 -20 -5 -7 -16 -20 -30 -27 -30 -8 0 -18 -7 -21 -16 -3
-8 -10 -12 -16 -9 -5 3 -10 1 -10 -4 0 -24 -19 -9 -22 17 l-4 27 -14 -28 c-7
-15 -19 -26 -25 -23 -6 2 -12 -2 -12 -10 0 -35 -73 -184 -90 -184 -7 0 -13 -9
-13 -20 0 -11 -4 -20 -8 -20 -16 0 -60 -78 -52 -91 6 -8 0 -17 -17 -26 -14 -7
-27 -13 -29 -13 -2 0 -4 20 -4 44 0 46 -13 68 -24 40 -3 -9 -6 -39 -6 -67 -1
-51 -2 -53 -45 -79 l-44 -27 9 25 c7 19 6 24 -5 24 -10 0 -15 -11 -15 -34 0
-19 -5 -36 -11 -38 -14 -5 -23 -69 -10 -65 4 1 17 -9 28 -22 13 -16 26 -22 36
-18 20 8 22 38 5 85 -11 30 -11 35 7 48 25 18 45 18 45 -2 0 -8 4 -13 9 -10 5
3 12 -1 15 -10 5 -12 2 -15 -9 -10 -9 3 -14 2 -11 -2 3 -5 -1 -19 -7 -33 -7
-13 -24 -52 -37 -86 -14 -35 -31 -64 -41 -66 -22 -6 -53 -53 -44 -68 6 -8 9
-8 14 0 4 6 17 13 28 15 16 4 20 0 16 -15 -3 -11 -8 -18 -10 -15 -11 11 -35
-26 -30 -45 4 -15 2 -19 -9 -15 -8 3 -14 1 -14 -4 0 -6 4 -10 9 -10 5 0 11 -6
14 -14 4 -10 0 -12 -14 -9 -10 3 -19 12 -19 19 0 8 -4 14 -10 14 -10 0 -16
-80 -11 -151 1 -22 -4 -41 -13 -48 -10 -9 -12 -20 -6 -42 5 -16 5 -29 1 -29
-4 0 -8 -33 -8 -74 -1 -52 -6 -82 -18 -100 -10 -14 -13 -26 -8 -26 5 0 9 -9
10 -20 1 -11 -2 -20 -7 -20 -9 0 -50 -71 -50 -85 0 -3 7 -5 16 -5 12 0 14 -5
9 -17 -4 -10 -10 -28 -12 -41 -3 -12 -11 -22 -19 -22 -19 0 -43 51 -35 75 4
11 4 38 1 59 -4 31 -7 36 -16 25 -16 -22 -34 -92 -35 -140 l-1 -44 -13 40 c-7
22 -13 33 -14 24 -1 -9 -10 -26 -21 -39 -26 -30 -25 -34 8 -46 l27 -10 -25
-13 c-13 -8 -45 -19 -71 -26 -40 -11 -47 -11 -42 1 3 8 13 14 23 14 23 0 28
15 22 67 -5 49 -18 55 -33 16 -6 -15 -15 -30 -20 -34 -5 -3 -13 -25 -17 -49
-7 -39 -12 -46 -45 -59 -31 -12 -42 -12 -62 -1 -13 7 -22 17 -19 22 9 14 -6 9
-23 -7 -18 -19 -39 -14 -37 9 1 9 -3 16 -8 16 -7 0 -8 -15 -4 -39 6 -38 5 -40
-27 -46 -17 -4 -35 -12 -38 -18 -12 -18 -39 1 -39 27 0 27 -29 42 -67 34 -21
-4 -62 -81 -62 -120 -1 -33 3 -34 31 -8 26 24 83 32 163 24 92 -9 150 -5 213
15 68 22 91 18 66 -10 -12 -14 -14 -23 -7 -30 8 -8 13 -8 17 0 9 13 27 15 24
2 -2 -5 0 -9 5 -10 4 0 14 -6 21 -13 18 -17 2 -38 -24 -31 -12 3 -22 -1 -26
-11 -8 -20 -31 -21 -50 -1 -9 8 -24 15 -35 15 -14 0 -19 7 -19 25 0 20 -5 25
-26 25 -17 0 -28 -6 -31 -20 -7 -25 -8 -25 -32 -1 -12 12 -27 17 -41 14 -11
-3 -40 0 -64 7 -48 13 -86 2 -86 -26 0 -11 -6 -13 -19 -9 -14 4 -21 0 -24 -12
-3 -13 -5 -11 -6 6 -1 23 -2 24 -14 7 -11 -15 -17 -17 -35 -7 -20 11 -24 8
-43 -24 -27 -45 -60 -45 -69 0 -4 17 -12 40 -18 52 -8 14 -9 24 -2 28 5 3 10
1 10 -4 0 -6 5 -11 11 -11 8 0 8 4 0 14 -7 9 -11 44 -10 89 1 41 -1 80 -5 86
-4 7 -1 23 8 36 20 31 20 41 1 25 -12 -10 -15 -9 -15 7 0 10 7 29 16 41 8 12
13 22 9 22 -3 0 2 14 10 30 9 17 13 39 10 50 -5 16 -10 17 -37 8 -28 -10 -30
-13 -24 -49 6 -37 -1 -49 -18 -31 -4 4 -12 8 -17 8 -5 1 -13 2 -19 3 -5 0 -10
8 -10 16 0 8 5 15 10 15 6 0 10 10 10 21 0 19 41 69 57 69 3 0 12 -8 19 -17
13 -17 15 -17 34 6 11 13 20 37 20 55 0 29 -4 32 -56 49 -30 9 -60 15 -65 12
-5 -4 -9 -1 -9 4 0 6 -1 14 -2 17 -2 3 17 7 41 9 35 3 48 -1 62 -18 16 -19 20
-20 29 -7 5 8 10 27 10 43 0 15 5 27 10 27 7 0 7 6 0 20 -11 21 2 60 20 60 6
0 10 7 10 16 0 8 4 13 9 9 9 -5 24 25 20 41 -4 20 14 115 20 105 4 -7 13 -3
24 9 22 26 21 37 -3 45 -11 3 -19 9 -18 13 1 4 -2 15 -7 25 -4 9 -2 30 4 46 7
15 12 52 13 82 1 51 14 97 25 86 2 -3 20 1 39 9 19 8 37 14 41 13 4 0 9 5 11
11 3 8 -7 9 -32 5 -63 -12 -71 -11 -68 9 2 11 -1 15 -7 11 -15 -9 -14 2 5 30
18 28 11 107 -12 126 -8 6 -14 18 -14 26 0 8 -4 12 -9 8 -17 -10 -20 11 -6 38
13 25 12 27 -10 33 -13 3 -27 15 -30 26 -6 15 -9 17 -21 7 -12 -10 -18 -9 -31
4 -13 13 -14 22 -5 49 l11 33 -5 -35 c-5 -28 -4 -33 7 -23 17 17 20 42 8 65
-8 16 -6 17 22 14 17 -1 35 -9 40 -17 7 -11 9 -8 9 9 0 12 -6 22 -12 22 -7 0
-5 5 6 11 14 9 20 8 26 -1 5 -9 10 -6 15 10 5 17 3 27 -10 36 -11 8 -15 20
-11 33 3 12 8 30 11 40 5 15 0 20 -17 23 -14 2 -22 9 -19 18 2 8 5 31 6 51 5
72 31 81 34 12 1 -26 3 -49 6 -51 2 -3 15 2 29 11 19 13 25 28 31 76 8 73 -1
144 -18 134 -7 -4 -20 -6 -29 -5 -14 3 -18 -4 -18 -27 0 -55 -17 -33 -30 42
-8 39 -18 75 -23 78 -4 3 -9 40 -10 83 -1 42 -5 76 -8 76 -4 0 -3 17 2 37 4
21 6 39 4 42 -3 2 0 10 5 16 8 10 16 10 35 1 14 -6 25 -14 25 -18 0 -5 4 -8 9
-8 11 0 8 97 -4 107 -4 5 -5 -5 -2 -21 7 -44 0 -58 -24 -43 -15 9 -23 9 -39
-1 -17 -10 -20 -10 -20 3 0 8 5 15 10 15 6 0 10 7 10 15 0 8 9 24 20 35 11 11
20 15 20 9 0 -5 5 -7 10 -4 8 5 7 11 0 20 -7 8 -8 20 -4 26 4 8 3 9 -4 5 -13
-8 -15 4 -6 28 9 24 33 19 40 -9 3 -14 12 -25 20 -25 8 0 14 -8 15 -17 1 -10
6 -3 11 15 9 27 8 36 -8 54 -14 15 -15 22 -7 25 10 4 10 10 2 25 -9 16 -8 19
3 16 7 -3 14 -17 16 -32 4 -32 25 -30 30 2 2 12 7 20 12 17 10 -6 23 42 15 56
-4 5 -10 7 -15 4 -5 -3 -12 -1 -15 5 -4 6 -1 9 6 8 6 -2 14 3 16 10 3 6 -2 12
-10 12 -9 0 -17 5 -19 11 -3 8 -10 6 -20 -5 -9 -9 -21 -16 -26 -16 -5 0 -14
-10 -20 -22 l-11 -23 0 23 c-1 16 -7 22 -25 22 -26 0 -39 20 -30 45 9 22 26
18 19 -4 -8 -27 15 -38 32 -16 7 11 13 13 13 7 0 -7 5 -12 11 -12 6 0 9 9 6
20 -3 13 1 21 14 25 15 5 17 12 12 38 -7 39 -13 47 -13 19 0 -13 -6 -22 -15
-22 -9 0 -15 -10 -16 -22 -1 -21 -2 -21 -6 -3 -3 11 -9 25 -15 32 -6 8 -4 21
7 40 11 17 12 21 2 11 -8 -10 -16 -18 -18 -18 -2 0 -2 22 -1 50 2 27 8 47 13
44 5 -3 7 -8 5 -12 -2 -4 2 -15 9 -25 16 -22 22 -14 26 37 4 43 -16 63 -24 24
-3 -18 -5 -16 -6 9 -1 27 2 31 19 28 15 -3 24 5 35 31 8 20 24 38 35 41 11 3
20 9 20 14 0 5 11 9 25 9 14 0 26 6 26 13 1 6 5 -4 8 -23 4 -19 3 -40 -2 -47
-11 -16 -5 -96 8 -100 15 -5 34 94 21 107 -6 6 -4 16 7 28 9 10 17 24 17 30 0
6 5 34 11 62 12 55 29 67 29 20 0 -16 5 -30 10 -30 14 0 12 -27 -2 -33 -10 -4
-10 -7 0 -14 7 -5 15 -39 19 -76 3 -37 9 -67 13 -67 11 0 21 59 14 86 -8 33 3
74 21 74 12 0 14 -9 9 -42 -4 -37 -4 -40 7 -23 7 11 18 24 26 28 7 4 13 21 13
37 0 16 4 31 9 34 5 3 8 -2 7 -12 -1 -11 5 -16 17 -14 12 2 17 -4 17 -20 0
-13 7 -43 15 -68 l14 -45 -2 40 c-1 22 -6 43 -11 47 -6 4 -4 13 3 22 10 12 11
20 2 29 -10 13 -10 25 4 80 8 29 20 35 28 15 3 -7 6 0 6 17 1 21 4 26 12 18
16 -16 39 -5 39 17 0 22 -21 29 -76 26 -44 -3 -64 -11 -64 -27 0 -6 5 -7 10
-4 6 3 11 3 11 -2 7 -52 6 -62 -8 -67 -21 -8 -30 1 -15 16 7 7 12 19 11 28 0
10 -2 11 -6 3 -9 -24 -25 -13 -19 12 5 20 3 25 -14 25 -11 0 -20 4 -20 9 0 12
37 24 49 16 5 -3 12 -1 15 4 3 5 34 12 69 15 54 6 68 12 84 34 12 15 62 81
112 147 51 66 102 133 114 149 12 16 62 81 111 145 80 104 301 397 441 586 29
39 125 174 213 300 89 127 172 244 186 261 14 18 26 34 26 37 0 4 10 17 23 31
43 48 77 94 77 104 0 5 11 17 25 26 14 9 25 22 25 30 0 7 12 24 27 39 16 14
38 39 50 55 13 17 35 33 50 37 32 8 53 23 53 37 0 6 -7 5 -15 -2 -8 -7 -22
-10 -30 -6 -23 8 -53 84 -53 131 0 22 3 33 6 25 2 -8 12 -24 22 -35 10 -11 21
-29 24 -41 9 -31 48 -44 128 -44 60 0 69 2 64 16 -3 9 -6 26 -6 39 0 24 -24
38 -90 51 -32 6 -49 19 -50 36 0 4 6 5 14 2 8 -3 19 3 24 13 12 24 -4 83 -23
83 -11 0 -14 7 -9 25 5 19 2 25 -11 25 -9 0 -14 4 -11 9 4 5 0 11 -6 14 -10 3
-10 8 1 21 11 13 11 20 3 28 -9 9 -12 7 -12 -10 0 -14 -5 -20 -14 -16 -8 3
-12 13 -9 25 3 10 0 19 -6 19 -6 0 -11 7 -11 15 0 8 4 15 10 15 5 0 7 7 4 15
-5 11 1 15 19 15 14 0 27 -6 30 -12 3 -10 7 -10 20 1 14 11 17 11 17 0 0 -10
3 -10 8 -3 4 6 16 8 26 4 14 -4 16 -9 8 -14 -17 -10 -15 -24 6 -29 13 -4 12
-5 -5 -6 -13 -1 -23 6 -26 17 -3 9 -4 -3 -2 -28 1 -25 -2 -51 -8 -58 -5 -7 -7
-16 -3 -20 4 -4 14 2 22 12 14 20 14 20 14 0 0 -19 50 -49 78 -45 8 1 12 -13
12 -44 0 -26 5 -45 11 -45 6 0 29 18 51 40 l40 40 -7 -48 c-4 -26 -11 -55 -16
-64 -5 -9 -15 -45 -23 -80 -43 -187 -56 -226 -77 -231 -11 -3 -19 -14 -19 -26
0 -14 -6 -21 -19 -21 -16 0 -31 -18 -31 -36 0 -3 12 -10 28 -16 l27 -11 -37
-11 c-20 -6 -40 -14 -44 -18 -4 -5 -16 -8 -26 -8 -13 0 -18 -7 -18 -25 0 -18
5 -25 19 -25 11 0 22 -4 25 -9 3 -4 19 -11 34 -14 19 -4 32 -14 36 -29 6 -25
-22 -124 -59 -203 -48 -103 -59 -280 -25 -381 11 -31 20 -68 20 -81 0 -13 -18
-77 -40 -141 -50 -147 -65 -246 -50 -337 25 -158 103 -247 245 -282 56 -14 76
-14 132 -4 109 20 186 70 226 145 23 44 28 123 17 290 -5 78 -5 79 -38 93 -61
26 -76 3 -123 -195 -26 -107 -45 -129 -103 -119 -88 14 -131 81 -131 202 1 95
23 158 118 324 60 105 61 107 61 187 1 51 -4 86 -12 96 -7 8 -16 47 -21 85 -5
38 -17 85 -26 104 -42 80 -71 259 -42 259 42 1 44 44 1 54 -30 8 -22 26 12 26
34 0 94 26 94 42 0 7 -12 23 -27 36 -21 17 -37 23 -62 20 l-33 -4 5 50 c4 28
15 84 27 124 51 182 61 222 75 302 30 170 13 299 -48 366 -31 33 -62 44 -69
25 -1 -5 -9 -3 -16 5 -11 12 -8 14 16 14 31 0 42 18 42 71 0 23 -5 27 -37 33
-60 9 -139 7 -273 -9 -69 -8 -131 -15 -137 -15 -8 0 -13 -12 -13 -29 0 -28 -2
-29 -62 -35 -35 -3 -101 -8 -148 -11 -47 -3 -101 -7 -120 -10 -78 -12 -293
-22 -645 -30 -449 -11 -499 -11 -517 -7 -15 4 -18 16 -18 79 0 41 -4 83 -10
93 -11 21 -60 35 -90 25 -21 -7 -22 -32 -1 -28 17 4 13 -14 -4 -21 -12 -4 -15
-18 -14 -52 2 -35 -1 -48 -14 -56 -10 -5 -15 -14 -11 -19 9 -15 -16 -79 -31
-79 -8 0 -14 -16 -17 -40 -2 -22 0 -40 3 -40 4 0 2 -11 -4 -25 -14 -30 -18
-30 -48 -5 -16 13 -20 22 -13 27 6 5 13 38 16 75 4 53 2 70 -11 83 -15 15 -15
16 2 9 14 -5 17 -1 17 24 0 16 6 32 13 35 7 3 14 22 15 43 2 20 6 42 9 48 4 6
-1 5 -10 -3 -15 -12 -18 -10 -28 18 -10 27 -16 31 -47 32 -74 1 -150 7 -180
14 -28 6 -31 10 -37 60 -7 56 -52 125 -81 125 -8 0 -28 7 -43 15 -22 11 -300
65 -335 65 -3 0 -6 10 -6 23 0 21 -4 23 -32 20 -69 -8 -82 -13 -68 -26 10 -9
14 -9 17 1 7 19 33 14 33 -7 0 -10 -5 -32 -11 -50 -9 -25 -16 -31 -40 -31 -26
0 -29 4 -29 30 0 31 -7 35 -58 30 -13 -1 -28 3 -35 8 -7 6 -41 13 -77 16 -65
7 -78 11 -67 22 3 3 41 -1 84 -10 112 -22 170 -29 158 -17 -11 11 -241 51
-293 51 -18 0 -55 -11 -82 -25 -59 -30 -60 -30 -60 -5 0 16 7 20 31 20 24 0
30 4 27 18 -2 10 -14 18 -30 20 -15 2 -28 11 -31 21 -6 23 -87 35 -87 13 0
-15 -95 -11 -220 8 -36 6 -84 13 -107 16 -24 4 -43 10 -43 14 0 4 -18 15 -40
25 -37 17 -45 26 -41 48 1 5 -7 6 -17 2 -24 -7 -72 10 -72 26 0 6 -12 22 -26
35 -14 13 -22 29 -19 34 4 6 14 1 25 -12 l19 -23 1 28 c0 17 -6 30 -17 34 -24
8 -53 39 -46 47 4 3 -1 6 -10 6 -9 0 -18 12 -22 29 -8 35 -27 53 -52 49 -12
-2 -19 4 -21 20 -2 12 -8 20 -13 17 -5 -4 -20 5 -34 19 -28 28 -40 33 -30 14
4 -7 -1 -4 -9 6 -9 11 -16 24 -16 29 0 4 -9 5 -20 2 -11 -4 -20 -2 -20 4 0 13
-38 54 -72 76 -16 9 -28 22 -28 29 0 19 -107 132 -157 165 -45 30 -52 42 -11
20 15 -8 19 -8 14 0 -19 29 10 28 72 -4 36 -19 70 -35 74 -35 6 0 -4 42 -18
75 -12 28 -41 69 -54 75 -8 4 -25 12 -38 19 -19 10 -27 10 -39 0 -11 -9 -16
-10 -22 -1 -4 7 -12 8 -21 2 -13 -8 -12 -10 3 -10 9 0 17 -4 17 -10 0 -5 -7
-10 -16 -10 -11 0 -14 -6 -9 -21 6 -18 4 -19 -12 -11 -11 6 -25 7 -32 3 -10
-6 -9 -10 4 -15 9 -3 14 -10 10 -16 -8 -13 -95 30 -95 47 0 8 -7 16 -15 19 -8
4 -12 10 -9 15 3 5 10 6 16 3 7 -4 9 6 6 29 -3 29 0 38 19 48 31 16 30 32 -1
18 -29 -14 -51 -55 -33 -63 7 -2 2 -8 -10 -11 -13 -4 -23 -11 -23 -16 0 -12
-53 -12 -66 0 -16 16 -235 98 -334 126 -109 31 -150 47 -145 56 3 3 -7 5 -21
3 -34 -3 -76 16 -70 32 3 7 -7 14 -24 16 -21 3 -27 1 -22 -10 4 -13 -4 -14
-49 -10 -61 7 -110 26 -108 42 4 33 -3 38 -17 13 -12 -23 -20 -28 -37 -23 -38
11 -367 76 -487 96 -200 34 -255 45 -267 53 -6 4 -18 5 -25 2 -8 -3 -79 1
-159 10 -168 19 -751 28 -902 15z m1371 -297 c12 -3 22 -9 22 -14 0 -4 8 -8
18 -8 9 -1 26 -2 37 -3 11 0 34 3 50 7 17 4 27 4 23 0 -4 -5 -3 -14 2 -20 8
-10 18 -10 48 0 34 12 38 12 44 -6 8 -20 33 -26 43 -9 4 7 13 7 25 0 14 -8 25
-7 40 2 16 10 22 10 32 -3 16 -20 100 -43 128 -36 11 3 23 1 26 -4 3 -5 25 -9
50 -9 25 0 43 -4 39 -9 -7 -13 52 -41 86 -41 15 0 31 -5 35 -11 5 -8 8 -8 13
0 9 13 71 3 71 -11 0 -7 5 -6 13 0 17 15 57 4 50 -13 -3 -9 13 -22 44 -36 26
-12 42 -24 35 -26 -6 -3 -10 -9 -6 -14 3 -5 -6 -9 -20 -9 -14 0 -25 3 -23 8 4
14 -41 62 -59 62 -15 0 -11 -6 15 -30 25 -24 30 -34 22 -44 -13 -16 -55 -10
-72 10 -6 7 -11 29 -12 48 0 19 -5 32 -10 29 -5 -3 -6 -15 -3 -26 6 -23 -9
-47 -30 -47 -8 0 -17 12 -20 27 -6 22 -9 24 -18 11 -18 -24 -37 -11 -25 18 15
41 10 49 -12 20 -15 -19 -27 -25 -43 -22 -12 3 -9 0 7 -6 32 -14 37 -33 5 -23
-65 19 -236 56 -293 61 -27 3 -71 16 -97 29 -27 13 -48 19 -48 14 0 -12 -37
-12 -45 0 -3 5 5 12 17 14 20 4 19 4 -4 6 -16 0 -28 -4 -28 -10 0 -7 -14 -8
-42 -4 -45 7 -76 25 -44 25 35 0 9 25 -29 28 -26 2 -51 14 -73 33 -27 24 -40
29 -62 24 -20 -4 -29 -2 -34 11 -9 25 10 33 53 22 20 -5 46 -12 59 -15z
m-3242 -274 c85 -15 90 -17 102 -43 10 -23 15 -24 69 -21 32 3 74 7 93 10 20
4 101 -5 185 -19 153 -27 175 -36 175 -77 0 -10 8 -22 18 -28 13 -8 23 -3 47
22 17 18 40 32 53 32 27 0 31 17 6 30 -12 6 -18 18 -16 32 3 20 7 18 45 -22
31 -32 53 -45 82 -50 87 -14 86 -13 79 -43 -13 -51 -93 -255 -242 -617 -493
-1198 -568 -1375 -592 -1390 -9 -5 -55 1 -147 20 -21 5 -20 7 27 147 57 166
456 1402 494 1529 32 104 32 110 4 136 -39 34 -106 67 -486 239 -18 8 -37 12
-44 8 -7 -5 -8 -3 -3 6 6 10 4 12 -9 7 -10 -4 -15 -3 -11 3 3 6 -3 10 -14 10
-11 0 -23 5 -26 10 -3 6 -13 10 -21 10 -9 0 -12 -5 -8 -12 4 -7 3 -8 -5 -4 -6
4 -9 12 -6 17 4 5 3 9 -2 9 -4 0 -15 4 -23 10 -12 7 -12 12 4 29 22 24 76 27
172 10z m4103 -283 c26 -9 31 -14 19 -19 -9 -3 -19 -1 -21 6 -2 7 -8 8 -13 4
-14 -14 19 -28 52 -22 18 3 44 0 59 -7 23 -10 29 -10 39 4 12 16 76 14 76 -4
0 -5 3 -7 8 -5 13 8 45 -9 48 -26 1 -9 -4 -21 -12 -28 -8 -6 -14 -16 -14 -21
0 -6 6 -6 14 1 7 6 21 9 30 5 9 -3 16 -1 16 5 0 6 5 11 11 11 5 0 7 -4 4 -10
-8 -13 8 -13 21 0 16 16 46 1 39 -18 -3 -9 -3 -13 1 -9 4 4 17 -1 28 -11 12
-10 64 -29 116 -42 103 -25 140 -39 140 -52 0 -4 9 -8 21 -8 13 0 18 -4 13
-12 -5 -7 -3 -8 5 -3 14 8 61 -31 61 -51 0 -7 5 -14 12 -16 20 -7 22 -175 3
-335 -11 -96 -15 -175 -11 -225 6 -76 -5 -107 -19 -51 -3 14 -13 36 -21 47
-13 19 -14 20 -14 1 0 -16 -6 -13 -35 15 -23 23 -32 37 -25 44 18 18 12 39
-10 33 -14 -4 -20 0 -21 11 -1 15 -2 15 -6 0 -7 -27 -31 -21 -52 12 -10 16
-21 27 -24 24 -4 -4 -12 -2 -19 3 -7 5 -29 16 -48 23 -42 16 -251 118 -265
130 -6 5 -37 18 -70 30 -33 13 -64 26 -70 31 -5 5 -17 9 -27 9 -10 0 -26 4
-36 10 -26 14 -83 37 -124 50 -20 6 -38 17 -41 24 -3 8 -17 11 -34 9 -15 -2
-68 8 -118 22 -49 15 -135 33 -190 40 -55 8 -127 19 -160 25 -33 5 -71 10 -85
10 -60 -1 -70 1 -70 11 0 6 -6 7 -16 1 -9 -5 -25 -7 -35 -5 -11 3 -19 1 -19
-5 0 -5 -9 -12 -20 -15 -18 -5 -33 -30 -60 -104 -7 -18 -23 -36 -38 -42 -37
-14 -241 -8 -271 8 -13 7 -36 10 -53 7 -16 -3 -73 -1 -126 4 -53 6 -186 15
-294 20 -199 10 -232 15 -222 31 3 5 2 14 -2 21 -5 8 -10 7 -18 -3 -27 -34
-61 -38 -356 -43 -162 -3 -310 -7 -329 -8 -31 -3 -35 0 -46 32 -11 32 -9 39
13 75 14 22 31 45 37 50 7 6 15 21 19 35 5 18 5 21 -3 10 -5 -8 -13 -11 -17
-7 -4 4 4 20 18 35 14 15 31 37 37 50 10 18 16 21 26 12 10 -8 22 0 53 35 45
51 55 56 46 21 -8 -33 6 -39 107 -42 61 -1 95 -7 111 -18 32 -23 41 -20 23 7
-20 31 -14 35 43 26 26 -4 53 -8 60 -8 6 -1 12 -12 12 -26 0 -27 1 -28 23 -19
9 3 13 14 10 27 -3 16 -2 18 5 9 7 -11 10 -10 16 3 5 14 9 15 22 5 11 -10 18
-10 26 -2 7 7 19 7 35 1 33 -12 53 4 53 42 0 35 16 46 38 26 9 -8 32 -18 49
-22 l32 -6 -24 -23 c-18 -17 -21 -26 -13 -34 8 -8 17 -8 32 0 11 6 47 11 78
11 32 0 58 4 58 8 0 4 15 3 32 -2 18 -5 48 -9 65 -9 18 0 33 -4 33 -9 0 -15
32 -22 46 -10 7 6 18 8 24 4 13 -8 13 -52 0 -60 -13 -8 -13 -25 1 -25 6 0 17
-7 25 -15 23 -23 42 -18 46 13 2 19 8 26 20 24 9 -1 19 2 23 8 3 5 -3 10 -14
10 -12 0 -21 3 -21 8 0 4 -3 17 -6 29 -4 15 0 24 15 33 17 9 25 7 43 -10 21
-19 23 -19 41 -3 18 17 20 17 38 -6 15 -19 22 -21 33 -12 19 16 86 4 86 -15 0
-21 35 -35 62 -25 22 9 21 10 -9 10 -39 1 -47 12 -32 45 9 19 15 23 25 15 7
-5 18 -9 26 -8 29 6 56 -12 54 -36 0 -14 -7 -27 -13 -30 -7 -2 -13 -12 -13
-21 0 -16 1 -16 18 -1 10 9 24 32 32 52 11 28 19 35 40 35 15 0 30 -3 34 -7
16 -16 71 -11 89 8 20 22 46 27 29 6 -6 -7 -7 -18 -2 -27 7 -11 12 -11 34 4
14 9 26 21 26 27 0 6 9 9 20 6 11 -3 22 -1 25 4 3 5 14 3 25 -3 15 -10 23 -9
38 6 15 13 31 16 63 12 24 -2 44 -5 44 -6 0 -1 20 -3 44 -5 35 -3 44 0 48 15
5 19 35 21 77 4 13 -5 17 -4 13 3 -4 6 -1 16 7 22 10 8 36 6 104 -7 62 -12 93
-15 95 -8 2 7 17 5 41 -6 41 -20 60 -23 51 -8 -3 6 5 10 19 10 18 0 24 4 20
14 -3 8 -1 17 5 21 17 10 13 35 -4 29 -8 -4 -15 -1 -15 5 0 6 6 11 13 11 8 0
7 4 -3 10 -8 5 -10 10 -5 11 6 1 -6 5 -25 9 l-35 7 35 1 c19 0 50 -5 69 -12z
m-2701 -199 c10 -8 9 -14 -5 -29 -17 -19 -17 -20 0 -33 12 -8 14 -15 8 -20
-14 -8 -33 4 -26 16 10 16 -22 10 -36 -7 -11 -14 -11 -18 4 -29 20 -15 22 -25
4 -25 -25 0 -67 -55 -67 -86 0 -27 -5 -32 -47 -47 -27 -9 -70 -19 -97 -23 -47
-6 -48 -6 -41 17 9 28 23 39 41 32 7 -2 21 0 31 7 16 10 15 10 -4 5 -27 -8
-27 -7 -7 34 16 32 17 32 37 14 11 -10 17 -13 14 -7 -4 7 8 14 33 18 31 5 40
11 40 26 0 28 -24 35 -70 21 -21 -6 -45 -9 -53 -5 -22 8 -27 61 -7 79 19 17
86 20 95 5 3 -6 -4 -10 -17 -10 -28 0 -62 -19 -38 -21 53 -4 97 5 117 23 16
15 29 19 47 14 21 -5 26 -3 26 12 0 10 -6 24 -12 31 -11 11 -10 12 2 6 8 -5
21 -13 28 -18z m2123 -247 c173 -23 386 -76 504 -126 17 -7 56 -22 87 -33 138
-49 386 -195 469 -274 25 -24 50 -46 55 -48 19 -7 86 -88 80 -97 -3 -5 -6 -28
-7 -53 -1 -24 -26 -208 -56 -409 -30 -201 -58 -392 -63 -425 -46 -308 -101
-581 -131 -641 -23 -48 -81 -104 -107 -104 -10 0 -78 15 -152 34 -74 18 -208
50 -298 71 -96 23 -157 42 -150 47 7 4 23 8 34 8 39 0 164 71 218 123 102 101
160 267 136 396 -37 204 -185 331 -385 331 -125 0 -241 -54 -333 -155 -89 -97
-127 -204 -120 -338 5 -103 43 -190 113 -259 27 -27 43 -48 38 -48 -6 0 -86
16 -179 35 -411 87 -846 175 -858 175 -20 0 5 13 66 34 196 69 318 255 306
466 -8 144 -87 262 -218 324 -59 28 -74 31 -165 31 -95 0 -104 -2 -178 -37
-135 -65 -223 -173 -262 -323 -36 -139 1 -270 105 -377 31 -32 53 -58 50 -58
-3 0 -93 16 -200 35 -471 83 -657 113 -1145 185 -198 29 -374 50 -417 50 -20
0 -39 4 -42 9 -6 9 59 207 118 358 19 48 73 189 120 313 48 124 96 245 108
270 11 25 26 61 33 81 37 103 75 148 166 198 70 38 166 63 364 95 197 32 379
41 790 40 344 0 448 -4 645 -23 370 -35 409 -36 450 -13 19 10 48 39 64 63 32
47 44 57 91 76 43 17 84 16 256 -7z m2178 -126 c93 -13 120 -21 134 -38 10
-11 16 -15 12 -8 -4 7 1 12 13 12 14 0 27 -14 41 -45 23 -50 40 -55 79 -25 17
14 29 17 36 10 5 -5 18 -10 28 -10 10 0 18 -3 18 -7 0 -15 64 -45 68 -33 3 7
10 4 18 -8 7 -11 34 -26 58 -33 47 -14 54 -23 63 -74 6 -39 7 -39 44 -44 5 0
7 -6 3 -13 -4 -6 -9 -28 -10 -47 -2 -20 -7 -59 -12 -88 -4 -29 -5 -50 0 -47 4
3 8 -4 8 -15 0 -12 4 -21 9 -21 11 0 5 -180 -9 -288 -6 -40 -10 -92 -10 -115
0 -24 -7 -53 -16 -66 -12 -16 -13 -25 -6 -30 8 -5 7 -55 -3 -181 -19 -232 -27
-314 -31 -319 -2 -2 -3 63 -2 145 1 90 5 152 11 156 7 4 7 11 -1 21 -8 9 -11
34 -7 68 2 30 9 176 15 324 6 149 15 311 21 361 12 107 2 143 -52 188 -48 41
-141 77 -424 165 -156 49 -187 59 -233 71 -34 9 -41 14 -33 24 6 7 8 16 4 19
-10 11 43 8 166 -9z m747 -132 c7 -11 27 -22 44 -26 16 -3 43 -9 59 -12 23 -5
30 -2 36 15 5 16 12 19 33 16 15 -3 73 -12 129 -20 113 -16 160 -34 172 -68
10 -26 -1 -126 -30 -262 -11 -55 -24 -122 -29 -150 -4 -27 -18 -97 -29 -155
-12 -58 -30 -152 -42 -210 -29 -152 -28 -150 -39 -150 -6 0 -11 8 -11 18 -1
15 -2 15 -6 -1 -5 -18 -6 -18 -19 2 -9 12 -16 53 -19 102 -2 46 -10 104 -16
130 -11 40 -17 49 -40 54 -18 4 -33 17 -40 34 -10 23 -19 28 -43 27 -29 -1
-31 1 -44 64 -8 36 -18 67 -23 68 -5 2 -9 10 -9 17 0 7 -11 23 -24 36 -20 19
-22 27 -15 54 9 32 -11 155 -29 178 -18 23 -20 81 -3 94 9 6 13 14 9 18 -12
12 -48 -15 -54 -40 -3 -14 -10 -25 -15 -25 -8 0 -14 46 -10 78 1 6 -3 12 -9
12 -5 0 -10 9 -10 19 0 11 -4 22 -9 26 -5 3 -12 18 -16 33 -4 21 -18 33 -55
50 -28 13 -50 24 -50 26 0 1 55 -6 121 -15 96 -14 124 -22 135 -37z m-1285 26
c-15 -41 -23 -136 -12 -156 6 -11 6 -45 1 -93 -24 -197 -43 -350 -50 -404 -5
-33 -22 -170 -39 -305 -58 -460 -72 -565 -97 -755 -31 -227 -36 -377 -14 -420
8 -16 33 -39 54 -52 36 -20 270 -83 309 -83 9 0 38 -5 65 -11 42 -9 49 -13 45
-30 -4 -14 -14 -19 -38 -19 -35 0 -45 -13 -45 -56 0 -13 -4 -24 -9 -24 -13 0
-23 17 -14 23 10 5 -12 -1 -31 -9 -14 -5 -17 18 -4 31 7 8 -14 55 -26 55 -4 0
-5 -7 -2 -16 4 -11 0 -14 -16 -12 -11 2 -23 -3 -25 -9 -3 -8 4 -13 16 -13 22
0 30 -33 12 -44 -16 -10 -60 12 -91 46 -22 25 -29 29 -30 16 0 -20 -35 -24
-60 -8 -13 8 -12 11 5 24 11 9 15 16 8 16 -7 0 -10 6 -7 14 6 15 -29 40 -40
29 -11 -11 -7 -41 6 -45 10 -4 10 -10 1 -30 -10 -23 -9 -28 13 -47 27 -24 44
-27 45 -8 0 10 2 10 6 0 2 -7 16 -13 29 -13 17 0 24 -6 24 -20 0 -15 7 -20 25
-20 14 0 25 -3 25 -7 0 -13 -17 -35 -26 -35 -20 -1 -34 -11 -34 -25 0 -8 5
-11 11 -8 5 4 22 4 35 1 21 -6 24 -9 14 -21 -10 -12 -10 -15 0 -15 8 0 21 -7
31 -16 16 -15 17 -14 12 5 -3 12 -1 21 6 21 14 0 51 -37 51 -51 0 -6 9 -9 20
-6 13 3 24 -1 30 -14 6 -10 22 -30 35 -45 14 -15 23 -29 20 -32 -3 -3 6 -24
20 -47 13 -23 21 -45 18 -49 -3 -3 1 -6 10 -6 9 0 23 -12 31 -27 13 -25 15
-26 21 -10 4 10 0 37 -9 60 -9 24 -16 48 -16 55 0 7 -9 21 -20 32 -11 11 -20
26 -20 33 0 13 48 -44 68 -81 6 -14 12 -32 12 -41 0 -9 4 -21 9 -27 9 -8 20
-65 26 -127 1 -15 5 -30 9 -34 10 -11 7 -61 -5 -69 -8 -4 -9 1 -5 17 6 22 6
23 -7 7 -19 -24 -33 -23 -40 4 -5 17 -9 19 -21 9 -12 -10 -21 -9 -45 3 -29 15
-31 15 -41 -5 -14 -24 -4 -40 11 -19 9 12 11 13 16 1 5 -11 7 -11 14 0 7 11 9
11 9 -2 0 -9 9 -19 20 -22 11 -3 20 -10 20 -17 0 -7 -9 -9 -22 -5 -32 8 -87
22 -128 32 -25 6 -36 15 -38 31 -2 12 -10 22 -18 22 -9 0 -14 -7 -12 -17 3
-19 0 -19 -67 -6 l-30 6 35 12 35 13 -27 11 c-16 6 -29 18 -29 28 -1 17 -2 17
-6 0 -3 -10 -10 -16 -17 -14 -9 4 -11 -2 -8 -19 5 -29 -11 -31 -63 -10 -41 17
-47 35 -9 28 24 -4 26 -3 20 24 -3 16 -11 57 -17 92 -6 34 -15 62 -18 62 -7 0
-15 72 -14 132 1 25 -4 39 -15 43 -12 4 -13 8 -4 14 9 6 10 15 1 42 -15 42
-28 61 -40 53 -5 -3 -12 3 -16 13 -4 10 -13 24 -20 31 -6 7 -10 19 -7 27 4 8
1 15 -5 15 -6 0 -11 4 -11 10 0 16 -43 61 -67 71 -44 17 -53 111 -27 269 8 52
19 131 24 175 8 74 45 347 70 508 5 37 10 80 10 95 0 22 2 24 11 12 8 -12 9
-10 4 8 -7 26 5 134 35 307 18 106 37 248 80 615 12 96 28 198 36 227 8 28 14
60 14 71 0 11 7 28 16 36 21 22 25 20 15 -6z m2029 -198 c44 -1 49 -10 39 -74
-8 -46 -7 -68 5 -96 10 -26 12 -48 7 -73 -7 -30 -6 -36 10 -40 11 -3 19 -10
19 -16 0 -7 -9 -9 -24 -5 -18 4 -27 1 -35 -14 -14 -26 -14 -65 -1 -78 5 -5 7
-27 3 -48 -4 -26 -9 -33 -15 -24 -6 10 -14 7 -33 -15 -14 -15 -25 -37 -25 -48
0 -10 -4 -19 -10 -19 -5 0 -10 -7 -10 -14 0 -8 -12 -21 -27 -28 -21 -10 -29
-22 -31 -46 -2 -17 -7 -32 -12 -32 -5 0 -7 -7 -4 -15 4 -8 0 -25 -8 -38 -18
-26 -32 -76 -29 -98 2 -19 -19 -29 -73 -35 l-39 -4 7 43 c3 23 12 78 20 122 8
44 17 96 20 115 3 19 10 58 16 85 5 28 13 64 16 80 3 17 19 97 35 179 16 82
29 150 29 152 0 1 12 2 28 1 23 -2 28 2 30 26 2 15 8 27 13 27 5 0 9 10 9 21
0 17 4 20 23 15 12 -3 33 -6 47 -6z m1860 -244 c0 -38 -31 -89 -97 -160 -40
-44 -73 -85 -73 -93 0 -18 -70 -94 -81 -87 -5 3 -45 2 -89 -2 -70 -6 -79 -9
-82 -28 -2 -17 -11 -22 -44 -24 -37 -3 -42 0 -48 21 -10 40 -87 114 -131 126
-45 11 -247 0 -305 -18 -19 -6 -47 -11 -61 -11 -15 0 -49 -7 -75 -15 -27 -8
-76 -22 -109 -30 -33 -9 -87 -24 -120 -32 -33 -9 -64 -23 -68 -30 -7 -11 -17
-6 -48 22 -21 19 -45 35 -52 35 -8 0 -24 11 -36 24 -22 23 -22 26 -11 132 7
60 13 110 14 110 0 1 141 5 311 8 360 7 570 14 640 21 28 3 97 7 155 11 58 3
155 12 215 19 155 17 195 18 195 1z m-996 -391 c-8 -19 -14 -66 -14 -108 l0
-73 36 -18 c20 -9 34 -19 31 -22 -3 -3 -17 2 -31 11 -14 9 -31 15 -38 12 -7
-2 -23 5 -36 16 -13 12 -33 22 -46 22 -12 1 -39 14 -60 30 -20 15 -39 25 -43
22 -3 -4 -23 7 -44 24 -21 17 -43 28 -49 24 -5 -3 -21 5 -35 19 -28 28 -23 36
6 10 14 -13 24 -14 51 -6 117 36 159 48 208 58 84 17 81 18 64 -21z m-3148
-165 c12 -48 8 -126 -7 -136 -5 -3 -9 -16 -9 -30 0 -14 -4 -23 -9 -19 -6 3 -6
-7 0 -27 9 -34 1 -138 -11 -138 -4 0 -12 15 -18 33 l-10 32 -2 -35 -2 -35 -13
45 -13 45 -3 -45 c-2 -25 -2 -60 -1 -78 1 -19 -5 -47 -14 -64 -21 -40 -5 -58
30 -34 25 16 26 16 28 -4 0 -11 1 -26 2 -32 1 -7 -5 -12 -11 -10 -15 2 -18
-55 -3 -60 17 -5 0 -79 -18 -76 -8 2 -17 -4 -19 -12 -4 -12 -3 -12 5 -2 7 10
11 7 15 -15 7 -35 2 -40 -20 -22 -15 13 -16 12 -9 -6 4 -11 10 -32 13 -46 4
-24 3 -25 -30 -21 -26 3 -36 0 -41 -13 -7 -18 18 -44 42 -45 17 0 15 -49 -2
-56 -26 -10 -26 -31 0 -26 26 5 33 -12 9 -22 -8 -3 -15 -12 -15 -19 0 -8 -9
-24 -20 -37 -24 -28 -25 -36 -4 -44 14 -6 14 -9 -6 -26 -13 -11 -18 -20 -12
-20 7 0 12 -9 12 -21 0 -11 -4 -17 -10 -14 -5 3 -10 -4 -10 -16 0 -17 -4 -20
-22 -15 -13 3 -31 6 -41 6 -10 0 -22 10 -27 23 -8 18 -9 17 -4 -10 3 -19 1
-33 -4 -33 -11 0 -22 24 -22 47 0 9 -8 22 -17 29 -13 9 -14 13 -5 14 20 0 50
40 58 75 3 17 13 44 22 60 26 53 29 59 40 110 29 131 42 211 77 480 9 66 22
158 30 205 7 47 16 114 20 150 3 36 9 75 12 88 l5 23 27 -28 c14 -16 31 -48
37 -73z m2756 67 c21 -8 48 -23 60 -34 13 -11 34 -24 48 -28 14 -4 36 -16 49
-26 13 -11 34 -19 46 -19 12 0 30 -9 40 -20 10 -11 30 -20 45 -20 15 0 33 -6
39 -14 7 -8 24 -17 39 -20 44 -11 132 -48 132 -56 0 -9 -55 -32 -140 -60 -30
-10 -100 -35 -155 -55 -55 -20 -126 -44 -158 -55 l-58 -18 -50 44 c-27 24 -54
44 -59 44 -4 0 -23 14 -40 32 l-32 32 6 95 c10 148 8 144 74 168 71 26 69 25
114 10z m-5525 -129 c8 -6 9 -16 4 -27 -5 -9 -6 -22 -4 -28 3 -7 -1 -13 -8
-13 -8 0 -7 -4 4 -12 16 -13 17 -27 2 -61 -4 -10 -1 -27 9 -42 20 -30 13 -50
-25 -65 -28 -12 -40 -30 -18 -30 5 0 7 -4 4 -10 -11 -17 -35 -12 -28 7 5 12 2
15 -10 10 -22 -8 -30 8 -12 23 8 7 15 17 15 22 0 6 -8 4 -17 -3 -15 -12 -16
-12 -10 4 3 9 2 17 -3 17 -5 0 -7 7 -4 15 4 8 1 15 -6 15 -10 0 -10 3 -1 14
10 12 8 13 -9 9 -15 -4 -19 -2 -14 10 3 9 14 19 25 22 11 4 16 11 13 17 -4 6
0 14 7 19 11 7 10 9 -4 9 -10 0 -22 12 -27 26 -13 34 -13 34 13 35 16 1 18 2
5 6 -10 2 -18 8 -18 13 0 19 93 17 117 -2z m6152 -171 c-142 -111 -219 -181
-207 -190 9 -6 8 -7 -5 -3 -18 6 -117 -57 -145 -93 -12 -14 -15 -14 -40 1 -15
10 -40 24 -57 32 -42 20 -89 62 -81 74 3 5 24 12 47 16 23 4 65 17 93 30 28
13 67 27 86 31 19 4 55 18 80 30 25 12 68 28 96 34 27 7 63 21 80 31 33 23 81
29 53 7z m-4798 -13 c20 -18 15 -44 -9 -44 -13 0 -12 -3 3 -20 16 -18 16 -20
2 -20 -12 0 -15 -8 -12 -31 3 -24 -1 -32 -18 -39 l-22 -9 22 0 c16 -1 21 -6
19 -24 -1 -13 -6 -28 -10 -35 -4 -7 -3 -12 1 -12 17 0 13 -49 -5 -59 -14 -9
-10 -10 17 -8 45 3 49 -15 12 -49 -17 -15 -31 -32 -31 -38 1 -6 8 -2 18 10 23
28 72 59 72 46 0 -6 9 -14 20 -17 28 -9 24 -24 -20 -75 -38 -43 -67 -50 -42
-10 18 30 -5 24 -24 -5 -19 -30 -39 -34 -24 -5 8 14 8 20 0 20 -6 0 -8 6 -4
13 6 8 3 8 -9 -1 -14 -12 -19 -12 -32 1 -21 21 -19 33 8 53 16 12 17 15 4 10
-23 -7 -67 3 -67 16 0 5 10 8 23 6 14 -2 22 2 22 12 0 10 -8 14 -24 12 -18 -3
-22 0 -18 12 4 9 1 16 -5 16 -7 0 -6 6 2 16 11 12 11 15 0 12 -8 -2 -15 6 -16
18 0 12 -4 26 -7 31 -7 10 23 29 58 36 15 3 12 6 -14 12 -31 7 -32 9 -16 21
10 7 22 11 26 8 5 -3 9 0 9 5 0 6 -10 11 -22 12 -13 1 -3 6 22 12 29 7 38 12
25 14 -55 10 -65 14 -59 24 3 6 17 8 30 5 14 -4 24 -2 24 4 0 5 8 10 18 10 15
1 15 2 -3 17 -19 15 -19 15 9 9 26 -6 28 -5 17 8 -19 22 6 22 30 0z m-1291
-68 c0 -14 -4 -28 -10 -31 -5 -3 -10 -11 -10 -17 0 -6 11 1 24 17 26 30 46 27
46 -8 0 -14 3 -18 8 -10 6 10 30 11 52 3 3 -1 8 -2 13 -1 4 0 7 -4 7 -11 0 -9
3 -9 12 0 19 19 38 14 39 -10 l2 -23 4 22 c3 16 10 22 23 20 26 -4 26 -5 35
-61 6 -43 5 -48 -10 -43 -9 4 -18 1 -21 -8 -3 -7 -12 -11 -20 -8 -8 3 -14 1
-14 -5 0 -5 -9 -12 -21 -15 -19 -5 -20 -3 -14 35 5 29 4 39 -4 34 -6 -4 -11
-17 -12 -29 0 -21 -1 -21 -10 -2 -7 16 -8 13 -4 -12 5 -39 -8 -43 -31 -8 -16
24 -17 24 -31 8 -13 -16 -14 -15 -9 14 l5 31 -25 -24 c-22 -23 -52 -25 -39 -4
7 12 -26 29 -45 23 -10 -3 -11 -2 -4 4 16 11 39 57 25 49 -6 -4 -11 0 -11 9 0
14 -2 14 -25 -1 -29 -19 -31 -14 -8 29 30 58 83 79 83 33z m5485 -176 c16 -16
34 -30 40 -30 7 0 29 -13 49 -29 21 -16 42 -32 49 -35 9 -3 8 -8 -3 -15 -20
-13 -144 -112 -150 -120 -3 -4 -18 -15 -35 -25 -61 -39 -104 -80 -92 -89 7 -5
4 -6 -8 -3 -12 3 -30 -3 -45 -15 -19 -16 -20 -19 -6 -15 16 5 17 4 6 -8 -6 -9
-21 -14 -33 -13 -13 1 -25 -7 -33 -22 l-12 -24 -4 24 c-1 13 5 105 14 204 9
99 17 183 17 188 1 4 13 7 29 7 15 0 52 11 82 24 76 33 101 32 135 -4z
m-10822 -3 c18 -8 46 -20 62 -27 17 -7 39 -12 50 -11 16 2 17 0 7 -12 -10 -11
-5 -17 26 -30 20 -9 46 -17 57 -19 12 -2 21 -12 23 -26 2 -14 9 -22 16 -19 7
3 18 -4 24 -14 17 -26 31 -24 25 4 -4 18 -3 19 6 7 6 -9 11 -10 11 -3 0 6 -27
34 -60 63 -33 29 -60 56 -60 61 0 15 20 10 51 -12 23 -16 33 -18 44 -9 15 12
35 6 35 -12 0 -6 -8 -7 -17 -3 -14 5 -15 3 -6 -5 7 -8 23 -9 44 -5 27 6 30 9
18 19 -9 6 -21 21 -28 34 -10 18 -9 22 3 22 25 0 76 -34 76 -52 0 -19 18 -34
28 -23 3 3 0 10 -8 15 -8 5 -11 13 -6 17 5 4 11 2 13 -4 3 -7 11 -13 18 -13 8
0 28 -13 45 -30 22 -22 40 -30 66 -30 41 0 93 -20 113 -43 12 -15 10 -17 -26
-17 -25 0 -47 7 -61 20 -20 19 -42 27 -42 15 0 -3 5 -14 12 -24 7 -11 8 -26 3
-37 -8 -18 -9 -17 -12 4 -6 32 -20 27 -28 -9 -4 -17 -9 -28 -12 -25 -12 12
-32 -29 -21 -41 7 -9 6 -20 -6 -38 -9 -13 -16 -36 -16 -50 0 -14 -5 -25 -11
-25 -6 0 -9 14 -7 33 2 26 -1 33 -18 35 -22 3 -33 25 -35 72 -1 17 -3 19 -6 8
-7 -29 -18 -21 -33 24 -17 48 -35 59 -43 26 -6 -22 9 -41 25 -32 4 3 8 -2 8
-11 0 -9 -4 -13 -10 -10 -15 9 -12 -8 6 -33 8 -12 12 -27 9 -32 -9 -15 -12
-120 -3 -120 13 0 9 -54 -5 -75 -7 -11 -14 -31 -15 -45 0 -13 -8 -30 -17 -36
-8 -6 -15 -16 -15 -23 0 -6 -9 -11 -19 -11 -11 0 -22 -4 -25 -9 -3 -4 10 -6
29 -4 40 4 48 -12 10 -21 -13 -3 -32 -20 -40 -36 -9 -17 -20 -30 -25 -30 -6 0
-10 -7 -10 -15 0 -8 -8 -15 -18 -15 -15 0 -18 -7 -17 -30 1 -17 -3 -34 -8 -37
-6 -3 -7 -1 -4 4 4 6 0 16 -8 23 -13 11 -13 15 -2 29 18 20 37 77 37 107 0 13
4 24 9 24 5 0 7 9 4 20 -3 11 -1 20 3 20 13 0 6 198 -9 280 -19 95 -118 211
-232 269 -36 18 -65 37 -65 40 0 13 62 11 93 -2z m861 -147 c28 0 41 -8 83
-52 14 -15 30 -25 35 -22 5 3 18 -2 29 -12 18 -16 19 -16 19 4 0 11 -5 24 -10
27 -22 14 4 27 41 21 35 -6 39 -4 39 15 0 21 1 21 20 -4 12 -15 27 -24 35 -20
9 3 15 -1 15 -11 0 -11 9 -16 28 -17 74 -3 77 -4 80 -28 2 -13 -2 -27 -9 -32
-10 -6 -10 -13 -1 -34 9 -20 9 -24 1 -19 -9 5 -10 0 -6 -15 4 -16 1 -21 -11
-19 -10 2 -18 -6 -22 -22 -6 -25 -6 -25 -12 -2 -3 12 -14 22 -24 22 -9 0 -26
7 -36 17 -10 9 -18 12 -18 7 0 -6 -17 -11 -37 -11 -42 -1 -93 29 -93 55 -1 9
-7 28 -14 41 l-13 24 -6 -34 c-3 -23 0 -38 10 -46 8 -6 12 -17 7 -24 -5 -9
-10 -7 -20 5 -7 10 -17 15 -23 11 -6 -3 -11 -1 -11 4 0 6 5 11 10 11 6 0 10 4
10 10 0 5 -6 7 -14 4 -9 -3 -19 5 -28 23 -9 18 -21 28 -35 28 -12 0 -31 8 -43
17 -11 10 -20 13 -20 8 0 -16 -20 -12 -27 5 -3 9 2 22 13 30 17 12 16 13 -11
9 -17 -2 -24 -1 -17 2 7 3 18 18 23 33 10 24 12 25 23 9 7 -10 25 -18 40 -18z
m6127 -13 c4 -15 3 -25 -1 -22 -5 3 -10 -14 -12 -37 -2 -35 -6 -42 -20 -40
-11 2 -18 -3 -18 -13 0 -8 -4 -15 -10 -15 -5 0 -10 15 -10 33 0 17 -5 39 -11
47 -8 12 -9 11 -5 -5 6 -22 -6 -47 -20 -45 -5 0 -10 -9 -12 -20 -6 -37 -37
-20 -40 23 -3 37 -22 53 -22 19 0 -24 -35 -56 -50 -47 -8 5 -9 20 -5 42 8 43
-11 36 -20 -8 -5 -24 -11 -29 -28 -27 -12 2 -21 9 -20 15 2 7 -4 10 -12 7 -25
-10 -17 15 20 64 32 41 75 66 75 43 0 -5 17 -7 38 -5 20 3 61 6 90 8 29 2 56
6 59 10 12 12 27 0 34 -27z m4169 -28 c0 -5 -3 -9 -8 -9 -4 0 -28 -19 -53 -42
-26 -24 -100 -91 -167 -150 l-120 -106 -33 16 c-18 9 -34 22 -35 27 -2 6 80
71 182 146 147 109 189 135 209 131 14 -2 25 -8 25 -13z m-8465 -40 c71 -7
124 -17 130 -24 10 -13 99 -32 280 -61 55 -8 102 -18 105 -22 3 -4 41 -8 85
-10 44 -2 126 -13 183 -24 96 -20 128 -19 106 1 -5 5 -54 16 -109 24 -203 31
-431 69 -465 77 -19 5 -62 15 -95 22 l-60 13 42 3 c69 5 655 -75 738 -100 l40
-13 -30 -7 c-25 -6 -23 -7 12 -5 24 2 44 -2 47 -9 4 -10 51 -19 171 -30 28 -3
66 -9 85 -15 19 -5 49 -8 65 -8 l30 1 -33 8 c-18 4 -36 11 -40 15 -9 9 94 -4
125 -16 13 -5 30 -6 38 -3 8 4 15 2 15 -3 0 -6 12 -10 28 -10 46 1 247 -34
292 -50 8 -3 33 -7 55 -9 53 -5 137 -25 131 -31 -2 -3 -62 2 -133 11 -70 9
-150 18 -178 20 -27 3 -72 9 -100 15 -48 9 -131 22 -370 56 -60 9 -123 18
-139 22 -40 7 -25 -14 17 -22 17 -4 43 -14 57 -21 14 -8 86 -21 160 -29 230
-25 315 -37 324 -46 5 -4 22 -5 37 -2 17 3 35 0 44 -7 9 -7 18 -10 21 -7 3 3
19 1 35 -3 16 -5 73 -14 127 -20 53 -6 115 -13 137 -16 31 -4 37 -3 25 6 -12
9 -10 11 10 7 14 -3 46 -9 73 -12 26 -4 47 -12 47 -17 0 -6 7 -7 15 -4 9 3 35
-1 58 -9 23 -8 51 -15 62 -15 26 -1 128 -53 133 -68 5 -16 -43 -15 -60 1 -22
20 -56 37 -74 37 -14 0 -13 -3 5 -19 l21 -18 -39 -7 c-22 -3 -51 -2 -64 3 -14
6 -28 7 -31 4 -3 -3 -17 2 -30 11 -14 9 -31 16 -38 16 -10 0 -10 -2 1 -9 23
-15 -2 -20 -49 -9 -51 11 -229 28 -307 28 -29 1 -55 5 -58 11 -4 5 -15 7 -26
4 -10 -4 -29 1 -41 9 -12 9 -29 16 -38 15 -8 0 -1 -7 15 -14 27 -13 28 -14 7
-15 -12 0 -39 7 -59 15 -19 8 -52 15 -73 15 -20 0 -62 5 -91 10 -40 8 -60 7
-77 -2 -19 -10 -28 -9 -52 6 -17 9 -30 14 -30 10 0 -3 -6 -1 -14 5 -12 10
-102 16 -179 12 -15 0 -35 -10 -44 -21 -19 -21 -60 -18 -78 7 -8 10 -10 6 -10
-18 0 -20 -6 -34 -15 -37 -13 -5 -13 -3 -1 12 18 21 12 26 -32 28 -20 1 -34 5
-31 10 3 4 -6 8 -20 8 -21 0 -24 4 -21 28 2 15 4 28 4 29 1 1 10 -1 22 -5 16
-6 29 -2 50 17 33 29 25 39 -33 46 -18 2 -55 9 -81 15 -36 9 -52 9 -60 1 -16
-16 -58 -13 -78 5 -17 15 -19 15 -34 0 -9 -9 -20 -16 -25 -16 -13 0 -41 31
-35 40 7 12 -57 22 -69 10 -15 -15 -66 -12 -72 5 -3 8 -26 17 -52 21 -26 4
-54 10 -63 15 -10 5 -37 3 -69 -7 -46 -14 -53 -14 -63 0 -12 14 -129 44 -212
53 -22 2 -53 5 -70 7 -16 2 -43 9 -58 15 -16 6 -35 11 -43 11 -16 0 -52 30
-37 30 4 0 1 4 -7 10 -13 8 -13 10 0 14 46 16 79 15 285 -5z m8803 -236 c-84
-114 -176 -238 -203 -275 -28 -37 -54 -67 -60 -67 -5 0 -28 15 -49 33 l-39 34
24 30 c13 16 92 103 174 194 83 90 167 183 187 206 23 26 47 42 60 42 13 0 30
4 38 10 8 5 16 7 18 5 2 -2 -65 -97 -150 -212z m-12190 159 c-22 -4 -24 -22
-3 -22 14 0 20 -13 16 -34 -1 -5 4 -13 11 -17 17 -11 4 -21 -27 -21 -25 0 -25
-1 9 -22 31 -19 33 -23 21 -40 -17 -22 -10 -40 12 -32 11 4 13 2 9 -9 -3 -8 0
-15 7 -16 7 -1 2 -4 -11 -7 -26 -8 -29 -28 -4 -25 10 1 11 0 5 -3 -18 -8 -16
-27 2 -20 10 4 15 -1 15 -14 0 -11 -7 -20 -15 -20 -8 0 -15 -5 -15 -11 0 -6 9
-9 20 -6 23 6 35 -7 23 -25 -4 -7 -7 -20 -5 -28 3 -25 -14 -42 -42 -42 -14 0
-26 -4 -26 -9 0 -14 -20 -10 -37 6 -8 9 -13 22 -10 29 3 8 3 17 0 20 -13 13
-11 168 3 201 13 31 13 35 -1 35 -10 0 -15 7 -13 18 1 9 -1 23 -5 30 -6 8 -2
12 11 12 14 0 20 7 20 25 0 13 -4 23 -8 20 -10 -6 -8 29 3 36 5 4 19 4 31 1
18 -5 18 -7 4 -10z m1139 -162 c-4 -29 -2 -37 8 -34 7 3 15 -3 18 -13 3 -15 6
-14 15 7 10 22 11 19 11 -28 1 -31 5 -51 11 -47 21 13 33 -71 21 -150 -9 -64
-16 -82 -41 -107 -17 -16 -30 -36 -30 -44 0 -7 -9 -19 -20 -26 -11 -7 -20 -18
-20 -25 0 -7 -3 -13 -7 -13 -15 0 -34 -53 -23 -64 20 -20 10 -28 -15 -12 -30
20 -36 20 -29 1 4 -8 12 -15 19 -15 13 0 25 -21 25 -42 0 -6 -6 -6 -15 2 -12
10 -15 10 -15 -4 0 -9 9 -21 19 -28 24 -15 10 -39 -23 -37 -19 1 -18 2 4 9
l25 8 -28 1 c-20 1 -30 -5 -37 -21 -6 -17 -9 -18 -9 -6 -1 9 -9 23 -19 30 -21
15 -36 48 -23 48 5 0 11 -6 14 -12 3 -7 8 10 12 38 9 64 21 86 35 64 6 -9 10
-10 10 -3 0 6 -4 15 -10 18 -5 3 -10 15 -10 26 0 10 5 19 10 19 6 0 10 5 10
11 0 5 -4 7 -10 4 -5 -3 -10 -1 -10 4 0 6 7 11 15 11 12 0 14 4 7 17 -11 18
-3 52 22 98 18 34 21 65 6 65 -5 0 -10 7 -10 15 0 8 7 15 15 15 8 0 15 2 15 4
0 2 3 11 6 20 4 11 1 16 -11 16 -9 0 -15 6 -12 13 2 6 10 12 18 12 8 0 13 9
11 20 -2 11 -2 27 -2 35 1 8 1 34 1 56 -1 29 4 44 15 48 12 5 14 14 9 38 -7
30 -7 31 10 14 13 -12 16 -27 12 -56z m-749 -11 c-2 -7 18 -20 43 -30 25 -10
63 -29 84 -43 21 -14 44 -26 51 -26 7 0 20 -3 30 -7 11 -4 15 -3 10 5 -9 15
151 7 170 -9 17 -14 18 -41 2 -57 -8 -8 -19 -7 -42 6 -17 9 -32 20 -34 25 -2
4 -10 7 -17 7 -8 0 -12 -11 -11 -30 2 -27 -1 -30 -28 -30 -29 0 -55 10 -59 22
-5 13 28 38 42 33 10 -4 12 -3 6 3 -14 14 -115 26 -115 14 0 -5 10 -14 23 -20
l22 -11 -22 0 c-32 -1 -39 -21 -8 -21 19 0 25 -5 23 -17 -2 -13 5 -19 22 -21
48 -5 71 -13 65 -21 -3 -5 -21 -5 -42 0 -60 14 -129 11 -143 -6 -7 -8 -20 -15
-29 -16 -9 0 0 -6 19 -13 l34 -13 -33 -6 c-63 -13 -110 -8 -131 13 -11 11 -27
20 -35 20 -19 0 50 -72 80 -84 11 -5 56 -12 100 -16 43 -4 81 -12 83 -19 2 -6
10 -11 18 -11 31 0 12 -30 -25 -40 -82 -22 -129 -24 -157 -6 -14 10 -28 15
-31 12 -3 -2 -23 12 -45 32 -37 34 -85 112 -93 151 -2 9 -8 36 -14 61 -6 25
-10 59 -9 75 0 23 2 25 5 7 5 -23 43 -52 43 -32 0 6 5 8 12 4 7 -5 9 -1 6 13
-3 11 3 31 13 44 14 19 25 23 58 20 24 -1 41 2 41 8 0 6 -8 11 -18 11 -10 0
-26 6 -35 13 -15 10 -11 12 28 15 31 2 44 -1 43 -9z m11001 -77 l24 -19 -39
-35 c-83 -75 -169 -146 -172 -143 -2 2 0 35 4 75 l7 72 60 43 c63 47 65 47
116 7z m-8319 -171 c74 -16 221 -46 325 -65 105 -20 210 -41 235 -46 25 -5
218 -39 430 -75 435 -74 443 -76 438 -80 -4 -4 -294 36 -428 59 -663 115
-1141 212 -1164 237 -8 8 -6 10 9 5 11 -3 81 -19 155 -35z m5004 -68 c79 -82
156 -204 156 -250 0 -8 5 -11 13 -7 6 4 9 4 5 0 -3 -4 2 -31 11 -59 22 -65 35
-200 18 -194 -6 2 -17 44 -24 93 -22 155 -87 287 -192 389 -28 27 -51 53 -51
57 0 19 30 5 64 -29z m339 -81 c11 -9 32 -18 48 -18 54 -3 60 -4 54 -14 -3 -5
-12 -7 -20 -3 -22 8 -18 0 15 -36 29 -30 48 -41 35 -21 -4 6 1 7 12 3 31 -11
43 -24 53 -64 6 -23 15 -36 23 -34 16 6 63 -61 72 -104 10 -46 -11 -32 -36 25
-18 40 -39 66 -39 47 0 -4 11 -30 24 -58 14 -27 27 -66 30 -85 9 -48 22 -68
37 -53 8 8 8 20 -2 47 -12 33 -11 38 10 60 13 14 20 29 17 34 -3 6 0 12 6 15
12 4 -27 47 -80 89 -26 21 -40 67 -23 77 7 5 11 12 10 17 -4 22 3 23 28 7 26
-17 27 -17 20 0 -5 13 -3 17 5 15 7 -3 15 -13 16 -22 2 -10 13 -27 24 -38 16
-16 19 -28 14 -56 -3 -20 -2 -41 2 -46 8 -11 26 -83 38 -148 3 -21 10 -38 15
-38 5 0 9 -12 9 -27 0 -22 -2 -25 -10 -13 -7 11 -10 7 -11 -20 -1 -19 -1 -41
0 -47 2 -14 -21 -18 -32 -6 -4 4 -35 7 -68 8 -54 2 -60 0 -56 -17 4 -13 0 -18
-13 -18 -27 0 -42 30 -24 48 18 18 18 42 -1 42 -8 0 -15 -7 -15 -15 0 -8 -3
-15 -7 -15 -14 0 -38 19 -39 30 -1 5 -2 14 -3 19 0 6 -20 14 -43 18 -34 7 -44
13 -46 31 -2 12 -10 22 -18 22 -8 0 -14 8 -14 17 0 32 -12 3 -15 -36 -3 -30 0
-41 11 -41 15 0 19 -16 6 -24 -8 -5 -36 8 -31 15 5 8 -13 83 -28 122 -15 37
-17 38 -30 21 -12 -16 -13 -15 -13 17 -1 21 -10 45 -24 63 -14 16 -22 35 -19
42 3 8 -7 28 -21 45 -15 17 -34 45 -42 62 -15 27 -15 29 0 24 8 -3 18 -2 21 3
6 9 65 -46 65 -61 0 -5 5 -9 11 -9 8 0 8 5 -1 15 -10 12 -10 15 3 15 13 0 13
4 -1 35 -9 19 -20 35 -24 35 -13 0 -9 17 8 34 14 14 19 14 52 1 20 -9 45 -23
55 -33z m2259 21 c24 -5 34 -15 49 -50 21 -49 17 -49 95 9 49 37 53 38 130 37
68 -1 162 -14 127 -18 -7 0 -66 -53 -132 -117 l-121 -116 39 -73 c22 -40 53
-107 70 -148 16 -41 39 -95 50 -119 12 -28 18 -54 14 -69 -6 -21 -5 -23 10
-10 15 12 17 11 17 -3 0 -9 -6 -16 -14 -16 -8 0 -21 -2 -29 -6 -8 -3 -21 6
-31 21 -19 29 -15 45 8 26 12 -10 14 -6 13 24 -1 19 -4 35 -8 35 -4 0 -9 12
-11 28 -2 16 -8 26 -16 24 -15 -3 -42 21 -42 37 0 6 5 11 10 11 14 0 13 16 -2
32 -7 7 -13 19 -14 26 -2 28 -5 32 -16 30 -7 -2 -12 2 -13 7 0 6 -9 22 -19 37
-15 23 -27 57 -39 115 -6 28 -17 24 -17 -6 0 -18 3 -30 8 -28 4 3 7 -10 8 -29
0 -22 -4 -34 -13 -34 -20 0 -15 -18 8 -31 17 -9 19 -13 8 -20 -9 -6 -10 -9 -2
-9 27 0 43 -32 43 -84 0 -50 -1 -52 -35 -65 -19 -7 -33 -17 -30 -22 4 -5 14
-5 26 2 11 6 27 8 34 5 8 -3 21 2 30 10 8 8 19 13 24 9 14 -8 7 -55 -10 -65
-7 -5 -10 -12 -7 -16 8 -8 -16 -34 -31 -34 -6 0 -11 -7 -11 -16 0 -20 -20 -14
-34 10 -8 14 -8 20 2 23 6 3 12 9 12 15 0 6 -6 8 -14 5 -18 -7 -71 59 -81 101
-3 18 -11 32 -16 32 -10 0 -24 47 -21 70 1 10 -1 11 -4 2 -9 -19 -24 -4 -24
24 0 13 -5 24 -11 24 -5 0 -8 4 -4 9 3 5 -1 28 -8 50 -11 31 -12 48 -3 76 6
19 14 35 18 35 13 0 9 -48 -4 -53 -7 -3 -3 -4 9 -4 17 1 22 7 21 27 -1 14 -5
30 -9 35 -8 12 -5 52 4 61 4 4 7 -3 7 -15 0 -12 4 -20 9 -17 10 7 2 56 -9 56
-22 0 -40 -14 -40 -31 0 -10 -5 -19 -11 -19 -7 0 -9 12 -5 33 7 39 -8 71 -24
47 -8 -12 -10 -11 -10 7 0 17 4 21 16 16 14 -5 16 -1 12 18 -3 13 -9 33 -13
43 -7 17 -5 18 20 12 15 -4 41 -10 57 -13z m1145 -8 c23 -14 43 -29 43 -32 0
-9 -168 -231 -394 -520 -71 -92 -123 -150 -130 -146 -22 13 -145 113 -151 123
-3 5 114 136 262 291 147 154 272 287 276 295 12 21 45 17 94 -11z m-2514
-104 c15 -11 17 -11 17 2 0 23 28 29 35 7 9 -28 95 -86 104 -71 9 14 141 -41
141 -59 0 -5 7 -10 15 -10 8 0 15 -3 15 -7 0 -5 14 -23 31 -40 16 -18 27 -33
23 -33 -3 0 -1 -7 6 -15 7 -8 10 -24 7 -35 -5 -18 13 -68 43 -122 6 -10 10
-25 10 -35 0 -15 -2 -14 -14 3 -8 10 -18 15 -22 11 -5 -4 -3 -12 4 -16 16 -10
29 -81 14 -81 -6 0 -15 -19 -20 -42 l-9 -43 -11 35 c-9 31 -10 32 -12 10 -1
-14 -3 -32 -4 -40 -2 -8 -3 -22 -4 -30 -2 -17 -42 -25 -42 -8 0 6 -15 8 -35 6
-20 -2 -35 0 -35 7 0 5 -5 2 -11 -7 -5 -10 -17 -18 -24 -18 -8 0 -15 -7 -15
-16 0 -8 -4 -13 -9 -10 -5 3 -8 17 -8 31 0 14 -7 33 -15 43 -8 9 -24 57 -36
107 -12 49 -26 91 -32 93 -5 2 -10 18 -10 35 0 17 -9 49 -19 71 -11 23 -26 58
-35 79 -8 20 -21 37 -27 37 -10 0 -10 -3 -1 -12 7 -7 12 -19 12 -27 0 -11 -5
-8 -16 7 -9 13 -14 32 -11 42 3 10 -4 33 -15 50 l-19 32 35 -6 c41 -8 50 8 11
18 -14 4 -25 11 -25 16 0 6 -14 29 -31 52 -27 38 -28 43 -12 49 13 4 21 -1 29
-20 6 -14 18 -32 27 -40z m423 38 c35 -6 65 -18 74 -29 8 -10 31 -23 50 -28
19 -5 34 -13 33 -19 -3 -16 56 -2 70 16 17 23 117 17 118 -7 1 -26 9 -65 14
-71 3 -2 5 13 6 35 l1 39 10 -35 c5 -19 18 -52 29 -74 16 -32 17 -37 4 -32 -9
3 -13 2 -10 -3 3 -5 20 -14 38 -20 34 -12 95 -95 118 -159 14 -39 38 -47 124
-38 60 6 65 5 80 -18 9 -13 19 -57 22 -98 l6 -73 -22 19 c-11 11 -21 25 -21
33 0 7 -7 13 -15 13 -8 0 -15 5 -15 11 0 6 -7 8 -16 5 -8 -3 -13 -2 -10 3 3 5
-22 8 -57 7 -56 -1 -62 1 -63 19 -1 44 -15 64 -47 70 -37 7 -113 0 -150 -14
-33 -13 -45 -62 -23 -96 9 -14 13 -25 9 -26 -5 0 -16 -2 -26 -4 -10 -2 -21 3
-24 11 -9 23 -23 16 -23 -12 0 -36 -17 -64 -35 -58 -10 4 -15 0 -15 -15 0 -11
-9 -26 -20 -33 -11 -7 -20 -22 -20 -32 0 -20 0 -20 -14 -1 -17 24 -12 35 16
35 19 0 19 2 5 23 -10 16 -12 28 -5 40 7 13 4 22 -12 35 -13 11 -22 29 -22 50
-1 17 -4 32 -7 32 -8 0 -36 63 -59 129 -18 56 -42 79 -42 42 0 -11 -5 -23 -11
-27 -8 -5 -6 -10 5 -16 9 -5 16 -21 16 -36 l0 -27 -20 25 c-37 46 -47 74 -36
93 8 13 8 20 0 25 -6 4 -16 22 -22 40 -6 18 -20 46 -32 61 -26 37 -25 51 1 51
18 0 19 2 5 15 -8 8 -21 15 -29 15 -8 0 -20 6 -26 14 -10 11 -8 16 8 21 13 4
18 13 16 25 -2 11 0 20 6 20 5 0 9 -5 9 -11 0 -5 5 -7 11 -3 6 3 7 9 3 13 -18
12 -36 41 -27 41 5 0 36 -5 69 -11z m-3607 -64 c61 -13 225 -69 240 -81 2 -2
2 -7 -1 -10 -4 -3 -20 2 -38 11 -17 9 -37 14 -43 12 -19 -6 142 -80 181 -83
19 -1 44 -12 56 -23 12 -12 30 -21 38 -21 9 0 26 -14 38 -31 12 -16 25 -28 28
-25 8 9 42 -25 42 -41 0 -7 3 -13 8 -13 11 0 34 -58 28 -69 -4 -5 0 -11 6 -14
7 -2 10 -8 6 -12 -4 -4 -16 3 -26 15 -23 28 -36 13 -18 -21 10 -19 14 -105 7
-151 -3 -20 -21 -5 -19 15 3 34 -11 114 -34 189 -21 71 -77 148 -106 148 -16
-1 -15 -2 1 -14 9 -7 17 -21 17 -30 0 -9 7 -19 16 -23 8 -3 13 -12 10 -19 -3
-8 1 -14 8 -14 18 0 40 -55 39 -97 -1 -18 3 -33 8 -33 5 0 9 -8 9 -17 0 -15
-2 -16 -10 -3 -8 13 -10 12 -10 -2 0 -10 4 -18 9 -18 5 0 8 -11 7 -24 0 -13
-4 -22 -8 -19 -5 2 -9 -4 -10 -14 -5 -60 -4 -74 5 -80 5 -3 5 -8 -2 -12 -6 -4
-12 -36 -13 -72 -1 -45 -9 -79 -26 -114 -13 -27 -21 -39 -18 -25 3 14 9 51 13
84 l6 58 -31 -7 c-25 -5 -33 -2 -41 14 -6 11 -11 22 -11 25 0 11 22 6 36 -9
29 -29 42 -18 49 43 10 90 10 102 1 182 -9 79 -48 175 -54 133 -2 -13 -8 -23
-14 -23 -5 0 -7 7 -4 15 3 8 8 21 11 28 6 16 -72 97 -94 97 -5 0 -11 7 -15 15
-3 8 -12 15 -20 15 -8 0 -16 3 -18 8 -5 11 -91 52 -110 52 -9 0 -18 3 -20 8
-1 4 -46 22 -98 41 -87 31 -105 34 -218 35 -105 1 -126 -2 -142 -16 -11 -11
-21 -14 -25 -8 -3 6 -14 10 -23 10 -11 0 -13 -3 -6 -8 13 -8 15 -42 2 -42 -4
0 -8 5 -8 10 0 13 -41 30 -54 23 -4 -3 -2 -9 5 -14 11 -7 9 -9 -7 -9 -11 0
-29 -7 -40 -15 -16 -13 -17 -16 -4 -25 12 -8 9 -9 -12 -6 -20 3 -33 -3 -59
-32 -18 -19 -34 -45 -35 -56 -3 -29 -3 -28 -14 -21 -16 10 28 81 83 131 56 53
138 93 211 104 91 13 258 11 335 -5z m-4166 -125 c-5 -25 -3 -29 11 -24 9 3
16 15 16 25 0 10 4 19 9 19 5 0 4 -15 -2 -35 -6 -19 -16 -35 -23 -35 -18 0 -6
-71 15 -86 8 -7 45 -17 81 -24 36 -6 74 -13 85 -16 229 -49 337 -54 392 -19
l25 17 -22 -41 c-13 -22 -30 -43 -38 -46 -15 -6 -65 2 -192 30 -153 34 -358
78 -391 85 -58 11 -60 15 -32 73 25 51 60 107 68 107 3 0 2 -14 -2 -30z m-293
-140 c75 -18 269 -61 545 -120 50 -10 110 -24 135 -29 129 -30 235 -49 243
-44 4 2 13 0 20 -5 7 -5 55 -20 107 -32 52 -12 105 -26 118 -31 13 -5 36 -9
52 -9 17 0 30 -4 30 -9 0 -10 -48 -9 -65 0 -6 3 -37 11 -70 17 -33 6 -73 14
-90 17 -16 3 -52 8 -80 11 -27 3 -53 10 -57 17 -4 6 -26 12 -50 14 -58 2 -101
10 -178 33 -121 35 -260 63 -420 85 -122 17 -225 41 -254 60 -12 7 -45 18 -75
25 -36 9 -49 15 -40 21 8 5 21 7 29 4 8 -2 53 -14 100 -25z m5295 -5 c17 -2
33 -4 37 -4 4 -1 17 -11 29 -23 12 -13 19 -18 15 -11 -13 24 55 5 78 -21 12
-14 27 -26 33 -26 6 0 21 -12 34 -27 14 -18 23 -23 26 -15 3 6 11 12 19 12 11
0 12 -5 5 -18 -13 -24 8 -104 26 -98 7 3 13 1 13 -5 0 -13 17 -30 53 -53 26
-18 27 -18 20 -1 -4 13 -3 16 5 11 7 -4 15 -1 18 8 3 8 12 12 19 10 17 -7 29
13 17 29 -13 17 -22 47 -14 46 26 -4 44 3 39 15 -6 14 15 11 67 -10 14 -5 17
-3 14 7 -2 7 -24 17 -49 22 -24 5 -51 16 -59 24 -13 14 -13 15 3 10 11 -4 16
-3 12 3 -3 6 0 19 8 30 12 17 16 18 33 6 11 -9 30 -12 46 -9 18 4 30 1 33 -8
4 -9 26 -15 67 -16 34 -1 64 -6 67 -10 3 -5 27 -9 53 -11 26 -2 63 -9 82 -17
20 -8 54 -15 76 -15 28 0 43 -5 47 -16 4 -11 13 -14 30 -9 26 6 102 -24 123
-51 7 -7 18 -14 24 -14 6 0 17 -9 24 -20 13 -21 42 -28 42 -10 0 6 6 10 13 10
6 -1 2 -9 -10 -19 -22 -18 -22 -19 -3 -36 28 -25 27 -50 0 -33 -11 7 -20 18
-20 25 0 15 -57 56 -69 49 -5 -3 -14 1 -21 9 -14 17 -45 21 -34 4 8 -13 -59
20 -67 34 -4 5 -16 7 -28 4 -13 -3 -21 0 -21 7 0 7 -13 13 -30 13 -29 0 -43
-21 -19 -29 6 -2 10 -12 8 -23 -4 -18 -4 -18 -23 0 -20 21 -126 67 -126 56 0
-4 11 -18 24 -30 20 -19 24 -31 21 -68 -3 -34 0 -45 13 -50 9 -3 33 -12 52
-20 33 -14 34 -15 16 -29 -11 -7 -18 -15 -15 -17 2 -1 17 -9 32 -17 16 -8 24
-16 18 -18 -6 -2 -11 -10 -11 -19 0 -10 -6 -13 -22 -8 -13 4 -31 9 -40 11 -12
4 -18 0 -18 -10 0 -9 6 -16 13 -16 21 -1 49 -28 42 -41 -6 -8 -12 -4 -21 12
-7 13 -13 18 -14 10 0 -8 7 -23 17 -33 17 -19 43 -24 43 -8 0 6 7 10 16 10 13
0 13 -3 -1 -28 -16 -27 -56 -52 -82 -52 -18 0 -16 -29 2 -36 8 -4 15 -10 15
-15 0 -5 -7 -9 -15 -9 -8 0 -15 -6 -15 -12 -1 -7 -9 1 -18 19 -18 35 -34 42
-38 18 -1 -8 2 -15 7 -15 5 0 9 -12 9 -27 l-1 -28 -14 33 c-9 21 -21 32 -35
32 -15 0 -20 7 -21 28 0 15 -3 21 -6 15 -2 -7 -13 -13 -24 -13 -10 0 -19 -7
-19 -15 0 -8 -3 -15 -7 -16 -44 -4 -70 -2 -66 4 3 5 -4 4 -16 -2 -13 -7 -21
-22 -22 -39 0 -15 -3 -22 -5 -15 -3 7 -12 9 -20 6 -19 -7 -18 2 3 34 l18 26
-27 -17 c-14 -9 -28 -26 -31 -36 -7 -28 -43 -26 -52 3 -13 42 -13 47 2 62 17
17 8 37 -15 34 -22 -3 -72 11 -72 20 0 12 26 81 33 87 4 4 7 14 7 23 0 10 -3
12 -8 5 -12 -19 -47 -25 -67 -10 -21 15 -14 49 8 40 8 -3 17 2 21 11 4 12 1
15 -12 11 -10 -4 -27 1 -38 9 -10 8 -14 15 -6 15 18 0 15 40 -4 47 -9 3 -14
13 -11 24 8 30 -14 34 -35 8 -19 -23 -20 -23 -15 -3 3 16 -2 25 -18 32 -13 6
-22 19 -22 28 1 10 -6 20 -15 22 -11 2 -18 -3 -18 -12 0 -9 -5 -16 -11 -16 -6
0 -8 9 -3 23 4 12 8 29 8 38 0 10 6 15 13 12 9 -3 13 4 13 21 0 14 5 26 11 26
8 0 8 4 -1 15 -6 8 -9 19 -5 26 5 8 1 9 -14 4 -17 -5 -20 -3 -15 12 5 17 5 17
-6 1 -13 -21 -40 -24 -40 -5 0 8 -6 14 -12 15 -7 0 -23 4 -35 7 -15 5 -23 3
-23 -5 0 -7 -8 -9 -22 -4 -20 6 -31 13 -63 42 -17 15 -45 16 -45 1 0 -8 -5 -7
-15 1 -17 14 -17 14 -33 -15 -10 -19 -11 -18 -17 8 -11 43 0 60 35 52 20 -4
30 -3 30 5 0 8 9 10 28 5 15 -4 41 -8 57 -10z m-3252 -254 c-15 -41 4 -97 37
-110 14 -6 54 -17 90 -26 36 -8 76 -20 88 -26 13 -5 58 -14 100 -20 43 -6 82
-14 87 -19 17 -13 128 -23 121 -11 -5 7 5 11 26 11 19 0 39 5 46 12 9 9 12 7
12 -10 0 -12 -5 -22 -11 -22 -5 0 -7 -4 -4 -10 3 -5 22 -10 41 -10 32 0 34 2
34 35 0 43 13 45 33 4 19 -40 9 -85 -19 -82 -61 5 -185 31 -198 42 -6 4 -35
11 -65 14 -29 4 -59 11 -67 18 -7 6 -18 8 -23 4 -6 -3 -23 0 -38 8 -15 7 -55
19 -88 27 -33 7 -91 20 -130 30 -38 10 -87 21 -108 25 -34 5 -37 8 -31 33 12
53 17 67 38 99 26 39 46 28 29 -16z m-2823 12 c-8 -2 -21 -7 -29 -9 -21 -7 7
-34 35 -34 16 0 24 -6 25 -17 1 -16 2 -16 6 -1 3 10 19 19 44 23 33 6 39 10
34 26 -4 10 -2 19 4 19 5 0 13 -9 16 -21 4 -12 12 -18 21 -15 8 3 14 1 14 -4
0 -6 -7 -10 -16 -10 -13 0 -13 -4 3 -32 10 -18 23 -37 28 -41 6 -6 6 -10 -2
-14 -19 -7 -17 -44 2 -37 10 4 15 0 15 -12 1 -18 2 -18 16 1 8 11 13 31 10 45
-3 14 -3 20 0 13 9 -20 75 -38 84 -23 6 9 9 9 15 0 4 -6 17 -15 29 -20 l21 -9
-22 0 c-40 -2 -71 -21 -66 -42 4 -14 0 -19 -15 -19 -17 0 -37 -24 -34 -41 0
-3 -6 -6 -14 -6 -7 0 -14 6 -14 14 0 16 -24 17 -51 2 -22 -11 -16 -31 6 -22 9
3 21 0 29 -6 7 -6 15 -9 18 -6 2 3 11 -7 19 -23 26 -51 79 -89 79 -57 0 8 -7
15 -16 15 -8 0 -12 5 -9 11 12 18 -5 79 -21 79 -8 0 -13 4 -10 9 3 5 15 7 26
4 16 -4 20 0 20 18 0 20 4 16 22 -19 15 -29 25 -39 32 -32 7 7 6 17 -3 32 -11
17 -10 23 3 36 15 15 16 14 16 -5 0 -30 29 -38 52 -14 10 11 18 25 18 31 0 5
7 10 15 10 9 0 16 -10 16 -27 2 -26 2 -26 6 -4 4 20 9 22 34 17 22 -4 29 -2
29 10 0 12 -7 14 -29 9 -17 -3 -32 -2 -36 4 -3 6 -1 11 4 11 6 0 11 7 11 15 0
8 5 15 10 15 6 0 10 -4 10 -10 0 -5 9 -10 20 -10 11 0 20 5 20 11 0 5 5 7 11
4 6 -4 8 -13 5 -20 -2 -7 2 -16 10 -19 8 -3 14 -19 14 -41 0 -34 -13 -47 -24
-22 -2 6 -3 -5 -1 -25 2 -21 0 -38 -5 -38 -9 0 -14 25 -13 73 0 9 -4 17 -9 17
-4 0 -8 -7 -8 -15 0 -8 -8 -14 -17 -13 -41 3 -63 -3 -63 -17 0 -8 5 -15 10
-15 6 0 10 5 10 10 0 18 18 10 23 -10 3 -12 14 -20 26 -20 14 0 19 -5 15 -15
-4 -8 -1 -15 5 -15 6 0 11 -5 11 -11 0 -5 -5 -7 -11 -4 -7 5 -8 -4 -4 -28 9
-44 -9 -56 -36 -25 -19 22 -20 22 -14 2 3 -14 1 -21 -9 -21 -9 0 -13 4 -10 8
5 9 -15 23 -23 16 -3 -3 -1 -12 3 -19 11 -17 13 -77 4 -83 -4 -3 -10 12 -14
33 -15 91 -22 116 -34 120 -14 4 -15 -3 -3 -46 6 -19 6 -32 1 -32 -5 0 -7 -8
-4 -17 5 -15 4 -16 -5 -3 -6 8 -11 23 -11 33 0 26 -20 21 -20 -5 -1 -21 -2
-22 -14 -6 -12 16 -14 16 -35 -6 -12 -13 -19 -30 -16 -38 4 -9 2 -19 -4 -23
-7 -4 -11 3 -11 17 0 13 -6 30 -12 36 -10 10 -10 15 2 22 20 13 8 13 -25 0
-15 -6 -24 -6 -20 -1 3 5 -8 9 -24 9 -23 -1 -33 -8 -42 -30 -13 -32 -27 -36
-36 -10 -13 34 -32 46 -56 34 -12 -6 -35 -13 -52 -14 -26 -3 -30 0 -31 22 -2
41 -6 47 -13 16 l-6 -29 -25 26 c-20 21 -24 36 -25 86 0 34 2 61 5 61 3 0 6
-9 7 -21 2 -25 21 -49 47 -59 11 -4 25 -22 32 -41 11 -32 12 -29 9 36 -3 81
16 125 43 103 13 -11 15 -10 9 5 -4 11 -3 16 3 12 5 -3 22 6 37 21 l27 27 -22
15 c-12 8 -22 21 -22 28 0 8 -7 14 -15 14 -8 0 -15 -6 -15 -12 1 -18 25 -48
39 -48 6 0 11 -5 11 -11 0 -6 -6 -9 -14 -6 -7 3 -25 -1 -40 -8 -14 -8 -26 -10
-26 -4 0 5 -4 9 -9 9 -5 0 -8 -8 -7 -17 1 -13 -5 -17 -24 -15 -20 2 -22 0 -10
-8 13 -9 13 -11 0 -20 -13 -8 -12 -10 3 -10 18 0 21 -8 11 -33 -4 -12 -10 -12
-30 -3 -25 11 -32 32 -13 38 6 2 2 15 -11 31 -12 15 -18 31 -15 37 3 5 1 11
-4 12 -33 4 -36 2 -33 -29 2 -21 -1 -33 -8 -33 -8 0 -10 9 -6 24 4 16 1 26 -9
30 -19 7 -20 26 -1 26 13 0 15 9 18 78 0 23 4 29 9 20 5 -7 9 -20 9 -28 0 -9
9 -22 20 -30 11 -8 20 -21 20 -30 0 -8 11 -20 23 -26 23 -10 23 -9 17 20 -3
18 -12 31 -20 31 -8 0 -17 11 -18 25 -2 14 -13 35 -25 47 -21 24 -18 39 7 30
8 -3 17 -19 21 -36 4 -17 11 -31 16 -31 12 0 12 17 -1 25 -5 3 -10 22 -10 41
0 32 2 34 33 33 17 0 25 -3 17 -6z m10264 -65 c22 -17 43 -33 45 -35 2 -1 -2
-10 -9 -18 -11 -13 -15 -13 -21 -3 -7 10 -9 10 -9 1 0 -9 -16 -13 -45 -13 -26
0 -45 -5 -45 -11 0 -7 18 -9 53 -5 194 20 188 20 181 2 -4 -11 -1 -16 10 -16
9 0 16 -7 16 -15 0 -8 -6 -12 -14 -9 -10 4 -13 -5 -10 -40 1 -25 -2 -46 -7
-46 -10 0 -24 48 -16 56 3 3 -7 17 -20 31 -19 18 -28 21 -33 13 -4 -7 -13 -9
-20 -5 -9 5 -11 4 -6 -3 4 -7 1 -12 -8 -12 -10 0 -13 6 -9 16 5 14 2 16 -23
10 -16 -4 -32 -13 -36 -19 -6 -9 -10 -8 -17 2 -6 10 -17 11 -37 6 -16 -5 -39
-7 -51 -6 -13 1 -23 -3 -23 -9 0 -7 -6 -8 -17 -2 -10 5 -24 7 -30 5 -7 -3 -22
2 -33 10 -14 9 -37 13 -63 11 -23 -2 -35 -1 -27 2 8 4 18 12 22 18 5 8 8 7 8
-1 0 -20 20 -15 20 5 1 16 1 16 14 0 7 -10 24 -18 37 -18 21 1 22 2 7 11 -35
20 -17 29 57 29 76 0 92 9 63 38 -9 9 -7 16 7 32 25 27 40 25 89 -12z m-2377
-21 c76 -22 191 -95 175 -112 -4 -5 -2 -5 5 -2 20 12 41 -20 46 -70 6 -63 6
-159 0 -118 -7 44 -37 60 -46 25 -6 -23 -27 -27 -27 -5 0 8 -6 15 -14 15 -8 0
-17 9 -21 19 -4 12 -12 18 -21 14 -8 -3 -22 5 -32 18 -12 14 -21 18 -25 11 -4
-6 0 -17 9 -26 8 -9 12 -20 9 -26 -3 -5 -1 -10 5 -10 7 0 9 -8 4 -22 -9 -31
-9 -31 -36 -17 -31 16 -38 30 -27 51 6 12 4 37 -7 77 -15 53 -30 80 -76 131
-19 22 -11 73 10 67 9 -3 41 -12 69 -20z m-6694 -44 c-3 -14 -1 -23 6 -23 6 0
11 5 11 10 0 6 5 10 11 10 6 0 8 -7 5 -16 -7 -17 9 -54 24 -54 5 0 10 10 12
23 2 16 10 22 27 22 15 0 27 8 32 23 5 12 16 22 26 22 13 0 14 -3 5 -12 -23
-23 -12 -29 19 -11 30 18 31 18 49 -5 11 -13 21 -18 25 -12 3 5 15 10 26 10
21 0 26 16 7 23 -10 4 -10 6 -1 6 7 1 18 -7 24 -18 7 -11 19 -16 31 -13 19 4
25 -12 8 -23 -5 -3 -6 -13 -3 -22 5 -13 2 -15 -12 -10 -15 6 -16 5 -5 -8 18
-22 27 -19 34 11 4 15 14 33 22 41 12 13 14 12 12 -8 -3 -26 21 -36 86 -38 27
-1 43 -8 57 -25 21 -26 56 -39 65 -24 4 6 0 14 -7 19 -11 8 -10 13 7 27 12 10
28 30 36 46 13 25 16 26 28 11 8 -10 13 -39 13 -73 -1 -40 1 -51 7 -37 5 11 9
30 9 43 1 12 6 22 12 22 6 0 8 -11 4 -28 -3 -16 -2 -39 4 -53 l9 -24 7 28 c9
34 22 35 37 2 9 -19 16 -23 35 -19 28 7 73 -13 73 -33 0 -17 20 -17 20 0 1 20
50 51 62 39 6 -6 17 -8 24 -5 23 9 16 -14 -11 -35 -24 -19 -24 -32 1 -32 7 0
14 7 16 16 2 10 15 18 31 20 21 2 27 -2 27 -17 0 -12 5 -17 10 -14 6 4 8 14 5
24 -5 16 3 18 58 12 4 -1 7 -9 7 -18 0 -11 -3 -14 -8 -7 -4 6 -16 8 -27 4 -17
-6 -17 -7 7 -13 15 -4 34 -4 43 -1 9 4 25 -2 37 -12 19 -17 21 -17 15 -1 -4 9
-2 17 4 17 6 0 13 -9 16 -20 4 -13 10 -17 17 -12 6 4 30 7 54 5 23 -1 52 -3
65 -3 12 0 35 0 51 0 42 1 65 -24 48 -50 -7 -11 -8 -20 -3 -20 6 0 13 5 16 10
9 15 56 12 105 -5 24 -8 45 -13 48 -10 3 3 12 -1 20 -8 13 -10 14 -8 9 15 -6
22 -4 26 7 22 8 -3 16 -15 18 -27 2 -14 11 -23 25 -25 12 -2 27 -10 35 -19 12
-15 10 -16 -19 -10 -21 4 -33 2 -36 -7 -4 -10 4 -11 36 -5 29 5 47 3 57 -5 22
-19 49 -26 55 -16 3 4 1 10 -5 12 -6 2 -6 9 0 17 7 12 11 12 24 2 8 -7 13 -18
10 -26 -8 -21 88 -96 104 -80 6 6 -18 35 -26 33 -14 -4 -52 23 -47 33 9 13 36
11 33 -2 -2 -6 3 -14 11 -17 8 -3 11 0 7 7 -4 6 -1 11 8 11 9 0 16 -6 16 -14
0 -23 41 -46 85 -47 30 -2 33 -3 13 -6 -27 -4 -40 -23 -17 -23 8 0 8 -5 -1
-15 -7 -8 -9 -15 -6 -15 4 0 -2 -9 -12 -20 -11 -12 -26 -18 -34 -15 -22 9 -31
-10 -12 -25 11 -10 18 -10 26 -2 7 7 22 12 34 12 14 0 25 8 29 20 6 20 6 20
28 0 27 -26 36 -25 47 5 11 28 28 33 36 10 4 -9 19 -15 35 -15 20 0 29 -5 29
-17 0 -9 3 -14 6 -10 4 3 20 -1 37 -9 22 -12 31 -13 37 -4 5 9 9 9 14 1 4 -6
2 -11 -3 -11 -6 0 -11 -5 -11 -11 0 -7 10 -9 25 -5 21 5 27 2 35 -18 7 -18 14
-23 29 -19 13 3 21 1 21 -6 0 -7 8 -11 18 -10 9 1 29 -4 45 -11 26 -13 26 -14
10 -29 -10 -9 -37 -17 -61 -18 -54 -1 -61 -8 -36 -32 15 -13 33 -18 64 -16 50
3 80 -3 80 -17 0 -5 -10 -8 -22 -7 -13 1 -32 1 -42 1 -19 -2 -19 -3 2 -22 12
-11 34 -25 49 -31 16 -6 23 -13 16 -16 -7 -2 -22 1 -34 7 -15 9 -24 9 -32 1
-8 -8 -8 -11 0 -11 5 0 26 -11 46 -24 20 -14 51 -26 69 -28 23 -2 36 -10 43
-25 5 -13 18 -23 27 -23 17 0 22 -10 19 -37 -1 -7 2 -13 7 -13 5 0 25 -24 45
-53 20 -28 50 -60 67 -70 39 -24 34 -39 -16 -52 -22 -5 -53 -21 -69 -34 -29
-22 -34 -23 -125 -16 -106 9 -220 10 -455 6 -157 -2 -257 5 -425 34 -47 8
-116 19 -155 26 -38 6 -130 27 -204 45 -74 19 -142 34 -151 34 -9 0 -32 7 -50
16 -18 9 -50 18 -72 20 -21 2 -48 9 -61 16 -12 7 -39 13 -60 14 -21 1 -57 10
-80 19 -48 19 -159 40 -356 65 -46 6 -99 17 -116 24 -20 9 -51 12 -79 9 -33
-4 -51 -1 -64 9 -31 28 -112 37 -358 41 -93 1 -191 -21 -222 -50 -19 -19 -24
-16 -12 6 16 32 12 33 -17 6 -15 -14 -34 -25 -41 -25 -15 0 -74 -40 -85 -58
-7 -10 -12 -10 -23 -1 -12 10 -10 20 15 65 19 35 27 62 23 77 -5 20 -4 20 11
8 15 -12 17 -11 17 7 0 11 6 27 14 35 17 17 46 109 47 151 0 17 5 40 10 51 9
19 9 19 5 -1 -2 -13 4 -28 14 -37 21 -18 30 -12 30 17 0 12 5 38 11 60 10 35
13 38 40 32 21 -4 29 -2 29 8 0 8 6 17 13 19 6 3 2 6 -10 6 -12 1 -23 -4 -25
-11 -5 -13 -28 -2 -28 12 0 5 12 17 28 25 15 9 18 13 7 10 -49 -17 -55 -17
-55 -1 0 9 -4 16 -10 16 -13 0 -13 -17 0 -25 6 -4 8 -11 4 -16 -3 -5 -10 -7
-15 -3 -6 3 -13 -3 -16 -15 -4 -15 -13 -21 -32 -21 -24 0 -26 -3 -27 -48 -1
-33 1 -41 6 -27 6 12 7 1 3 -30 -3 -27 -9 -54 -14 -59 -14 -15 -24 3 -13 22 6
9 8 26 4 37 -5 11 -6 38 -3 60 5 37 3 40 -21 41 -14 1 -24 -2 -21 -6 3 -5 1
-11 -4 -14 -5 -4 -13 -1 -17 5 -4 8 -9 7 -15 -2 -6 -10 -9 -8 -9 9 0 13 4 20
10 17 6 -3 10 1 10 9 0 9 6 16 13 16 7 0 23 9 35 20 27 25 36 26 23 1 -8 -14
-7 -20 3 -24 8 -3 16 3 19 15 6 22 -12 70 -23 63 -4 -3 -13 2 -20 10 -10 12
-16 13 -26 4 -11 -9 -14 -7 -14 10 0 12 -4 20 -8 17 -5 -3 -9 0 -9 7 -3 54
-13 130 -17 135 -4 3 -6 -1 -6 -10 0 -8 -9 -23 -20 -33 -20 -18 -20 -17 -20 8
0 15 -2 27 -4 27 -2 0 -11 3 -20 6 -9 3 -16 1 -16 -6 0 -6 5 -8 10 -5 15 9 12
-4 -5 -21 -8 -9 -15 -11 -15 -5 0 6 -11 11 -25 11 -27 0 -32 13 -13 34 11 11
15 11 25 -3 11 -14 12 -14 13 3 0 15 6 17 34 14 34 -4 38 7 15 37 -4 6 -10 27
-14 48 -4 20 -11 37 -16 37 -15 0 -10 37 5 43 8 3 21 -4 29 -16 12 -19 17 -20
31 -8 9 7 16 21 16 30 0 14 2 14 10 1 8 -12 10 -9 10 13 0 15 5 27 10 27 6 0
10 -11 10 -25 0 -34 20 -32 21 3 1 20 4 15 11 -18 6 -25 11 -46 13 -48 7 -8
41 35 37 46 -2 7 -1 20 2 28 5 13 9 14 20 5 12 -10 15 -7 19 16 3 23 4 21 6
-10 1 -29 6 -40 20 -44 21 -5 35 -42 25 -67 -4 -10 -1 -16 7 -16 8 0 14 10 15
23 0 12 3 38 8 57 6 32 6 33 -8 16 -8 -10 -20 -15 -26 -11 -7 4 -8 11 -2 18 5
7 8 27 6 45 -3 27 -1 32 17 32 18 0 20 -5 16 -26 -2 -14 1 -37 8 -51 13 -24
13 -24 20 -4 5 17 9 19 26 8 24 -15 25 -28 2 -21 -16 5 -16 4 -2 -5 29 -19 65
0 60 32 0 4 5 7 13 7 7 0 25 9 38 20 27 21 38 18 38 -12 0 -36 25 -12 28 27 3
28 6 35 12 25 5 -8 7 -25 3 -37z m3141 -12 c56 -12 92 -25 98 -35 11 -19 34
-21 41 -3 3 6 6 0 6 -15 1 -36 -55 -83 -76 -62 -14 13 -57 23 -103 21 -33 0
-122 25 -137 40 -19 17 -16 30 7 36 12 3 20 14 20 27 0 19 4 22 28 16 15 -3
67 -15 116 -25z m-1609 -37 c61 -13 155 -33 210 -45 55 -11 116 -24 135 -29
258 -62 396 -86 402 -68 3 7 14 5 33 -6 27 -15 28 -16 5 -11 -22 5 -23 4 -7
-5 10 -7 25 -9 32 -6 8 3 17 1 20 -4 10 -16 38 -12 31 5 -3 8 -1 15 4 15 6 0
11 10 11 23 1 18 2 18 6 4 3 -11 11 -16 19 -13 8 3 14 -1 14 -9 0 -14 18 -20
49 -16 7 2 10 -2 6 -8 -8 -14 -65 -14 -65 -1 0 6 -7 10 -16 10 -13 0 -14 -3
-5 -14 6 -7 42 -16 83 -20 40 -4 77 -11 82 -16 6 -6 28 -9 51 -9 22 1 32 3 23
6 -10 2 -18 9 -18 15 0 5 7 7 16 4 9 -3 27 -9 40 -12 13 -3 24 -12 24 -20 0
-8 7 -14 15 -14 8 0 15 6 15 14 0 8 11 17 25 20 14 4 25 11 25 17 0 15 -33 25
-38 11 -7 -21 -22 -2 -22 29 0 16 -4 29 -10 29 -5 0 -10 -4 -10 -9 0 -16 -65
-40 -91 -34 -13 3 -21 3 -17 -2 4 -4 1 -14 -7 -22 -12 -12 -17 -12 -29 -1 -11
11 -9 16 16 31 19 11 38 15 51 11 19 -6 20 -5 8 10 -12 14 -10 16 12 16 31 0
45 16 20 23 -10 3 -2 4 19 2 33 -3 36 -1 33 21 -1 14 2 27 6 30 5 3 9 -4 9
-15 0 -11 5 -23 10 -26 7 -4 7 -13 0 -26 -12 -22 -5 -40 13 -33 7 2 17 -6 22
-18 15 -34 45 -36 45 -4 0 24 3 26 27 20 23 -6 25 -4 20 15 -3 13 0 21 7 21
22 0 25 -12 10 -35 -10 -16 -22 -21 -37 -18 -15 3 -18 2 -9 -5 10 -7 10 -11
-3 -22 -11 -9 -14 -22 -9 -45 5 -31 4 -33 -20 -31 -27 1 -34 10 -16 21 15 9
12 47 -2 43 -7 -3 -13 -15 -13 -29 0 -22 -4 -24 -50 -25 -27 0 -54 3 -60 6 -5
4 -41 10 -80 14 -38 4 -75 12 -82 17 -7 6 -16 8 -21 5 -8 -5 -328 57 -362 70
-8 3 -53 12 -100 20 -125 20 -126 20 -138 28 -5 3 -13 0 -15 -6 -4 -10 -8 -10
-14 -2 -7 10 -75 30 -170 50 -13 2 -23 0 -23 -7 0 -6 -7 -3 -16 5 -8 9 -25 16
-37 16 -12 1 -33 7 -47 15 -14 8 -39 14 -57 15 -48 0 -128 19 -149 35 -17 13
-16 14 16 9 19 -4 85 -17 145 -30z m5725 -4 c30 -12 65 -26 78 -31 12 -5 22
-13 22 -19 0 -5 7 -10 16 -10 13 0 14 3 5 14 -9 11 -9 16 0 21 6 4 14 2 18 -4
10 -16 44 -9 66 13 16 16 19 16 27 2 5 -9 16 -16 24 -16 22 0 100 -42 189
-103 80 -55 104 -63 85 -27 -10 18 -9 18 27 3 21 -8 40 -19 43 -23 9 -13 95
-54 108 -51 8 1 22 -5 32 -14 21 -19 71 -27 91 -14 12 7 12 9 -1 9 -9 1 -6 5
7 10 16 6 21 14 16 26 -5 13 -2 15 18 9 13 -4 31 -13 39 -21 9 -7 26 -11 40
-8 20 5 22 3 10 -5 -13 -9 -13 -11 0 -11 17 0 139 -60 159 -78 8 -8 24 -18 37
-22 34 -13 131 -137 156 -199 20 -48 22 -73 21 -181 -1 -127 -26 -258 -53
-284 -10 -8 -11 -5 -6 17 4 16 2 27 -4 27 -5 0 -10 -9 -10 -19 0 -28 -43 -105
-50 -89 -7 18 -32 16 -47 -2 -7 -8 -13 -11 -13 -6 0 6 -7 1 -15 -10 -8 -10
-15 -15 -15 -11 0 13 33 70 47 82 7 6 10 20 7 33 l-6 22 -24 -27 -24 -28 0 28
c0 15 -5 27 -11 27 -7 0 -10 -16 -8 -44 3 -35 0 -46 -18 -60 -24 -17 -32 -9
-12 11 8 8 8 15 -2 26 -11 12 -18 8 -42 -25 -16 -22 -26 -43 -22 -46 3 -4 10
0 15 8 8 12 10 11 9 -5 0 -22 -17 -66 -19 -50 0 6 -7 1 -15 -9 -26 -34 -20 78
6 120 20 34 15 46 -10 22 -10 -11 -10 -8 -2 15 19 49 12 51 -27 8 -45 -49 -59
-45 -29 7 13 23 16 32 7 26 -8 -7 -32 -17 -53 -22 -32 -9 -38 -8 -47 8 -8 15
-6 21 7 29 10 6 12 11 6 11 -15 0 -18 30 -3 30 6 0 10 6 10 14 0 21 21 31 31
15 7 -11 9 -10 9 4 0 25 -30 34 -45 13 -17 -23 -48 -10 -39 16 3 11 15 29 25
39 28 28 42 68 40 112 -2 26 2 39 13 43 13 5 15 24 13 111 l-3 106 18 -42 c19
-46 38 -54 38 -16 0 28 19 35 19 8 2 -83 10 -155 21 -167 6 -9 9 -20 6 -25 -4
-5 -2 -12 4 -16 10 -6 13 14 14 100 1 49 14 87 27 80 5 -4 9 -15 9 -26 0 -10
5 -19 11 -19 6 0 9 -16 7 -37 -2 -24 -8 -37 -15 -36 -14 3 -16 -7 -7 -31 9
-24 24 -19 24 8 0 13 6 26 14 29 10 4 16 -8 21 -46 6 -53 29 -97 42 -82 5 4 3
10 -3 12 -7 2 -10 13 -7 24 5 18 8 17 27 -13 11 -18 27 -34 34 -35 14 -3 17
24 2 29 -6 2 -6 14 -1 33 5 17 10 23 10 15 1 -13 2 -13 11 0 16 25 11 93 -12
140 l-21 45 -10 -40 c-5 -22 -9 -59 -10 -83 0 -25 -4 -37 -9 -30 -11 18 -10
86 2 93 15 10 12 35 -5 35 -17 0 -20 16 -5 25 11 7 4 25 -10 25 -5 0 -7 -6 -5
-12 3 -8 -4 -13 -19 -13 -13 0 -24 2 -24 5 1 21 -4 30 -20 30 -9 0 -23 10 -30
21 -11 17 -20 20 -47 16 -34 -6 -76 14 -125 58 -14 12 -33 25 -44 29 -15 5
-17 3 -13 -16 6 -23 6 -23 -12 2 -16 20 -22 22 -34 12 -12 -10 -18 -10 -30 3
-22 21 -47 19 -47 -5 0 -14 -7 -20 -21 -20 -11 0 -17 -4 -14 -10 4 -6 2 -17
-4 -24 -9 -10 -8 -15 4 -19 10 -5 13 -15 9 -37 -4 -17 -2 -36 6 -44 7 -9 9
-24 4 -38 -4 -13 -6 -38 -5 -57 1 -18 -4 -39 -10 -47 -10 -12 -9 -13 5 -8 16
6 17 16 20 144 1 39 14 52 37 40 22 -13 26 -50 4 -50 -8 0 -15 -5 -15 -11 0
-5 4 -8 9 -5 16 10 43 -31 36 -55 -5 -14 -3 -19 3 -15 6 4 16 34 23 67 13 67
25 81 46 53 34 -44 -22 -384 -63 -384 -7 0 -16 -5 -20 -11 -5 -8 1 -10 18 -7
24 5 25 3 16 -24 -9 -25 -15 -28 -56 -30 -26 -1 -59 -1 -74 0 -15 1 -30 -3
-33 -8 -9 -15 -51 -12 -65 5 -7 8 -16 13 -20 10 -15 -10 -15 49 0 97 8 27 22
50 31 53 8 3 21 21 28 40 14 39 22 43 42 19 11 -13 10 -17 -4 -26 -17 -9 -22
-68 -6 -68 8 0 27 46 33 80 3 14 5 25 6 25 1 0 3 11 6 25 3 23 3 24 -10 7 -10
-13 -15 -15 -18 -5 -4 10 -8 11 -20 1 -28 -24 -39 14 -12 42 9 9 14 18 11 21
-9 9 -28 -6 -37 -30 -8 -20 -9 -20 -9 -1 -1 11 7 31 16 45 16 22 16 23 0 17
-14 -5 -16 -2 -11 21 4 15 4 24 0 21 -7 -7 -16 -55 -20 -106 -1 -17 -9 -40
-19 -51 -9 -10 -17 -24 -17 -31 0 -7 -4 -9 -10 -6 -11 7 -14 -8 -3 -19 4 -3
13 4 20 16 22 40 15 -5 -13 -89 -38 -112 -81 -143 -71 -50 3 28 4 46 1 40 -3
-7 -12 -13 -19 -13 -7 0 -16 -8 -19 -17 -6 -14 -9 -15 -15 -4 -7 10 -10 9 -14
-3 -4 -9 -2 -16 3 -16 6 0 10 -7 10 -15 0 -8 4 -15 10 -15 19 0 -6 -42 -37
-61 l-30 -19 14 45 c15 42 12 82 -4 72 -5 -3 -6 16 -4 41 2 26 0 44 -4 40 -5
-4 -13 -1 -19 7 -10 12 -14 12 -30 0 -17 -13 -17 -15 -3 -15 19 0 37 -29 37
-62 0 -13 -11 -45 -25 -73 -14 -27 -22 -39 -18 -25 5 21 3 23 -8 13 -12 -10
-14 -5 -11 29 4 37 3 39 -16 29 -26 -14 -72 -69 -72 -86 0 -8 -9 -22 -19 -32
-11 -10 -21 -31 -24 -48 -3 -21 -4 -17 -6 18 0 26 3 47 8 47 5 0 11 9 14 21 4
16 2 19 -11 14 -11 -4 -9 3 8 22 14 15 28 29 33 31 4 2 7 8 7 14 0 6 -11 3
-25 -6 -24 -16 -25 -16 -25 6 0 19 -2 20 -10 8 -5 -8 -10 -27 -10 -42 0 -19
-16 -45 -49 -82 -48 -53 -48 -54 -56 -140 -4 -48 -5 -89 -2 -92 2 -2 7 28 11
68 6 68 34 138 44 110 3 -10 7 -10 19 -1 8 8 6 -2 -7 -24 -25 -42 -24 -83 3
-79 9 2 17 -3 17 -10 1 -8 6 -5 15 6 13 18 20 15 16 -6 0 -5 10 -8 24 -8 26 0
34 14 13 24 -7 3 -3 3 8 1 16 -4 23 0 27 16 4 15 11 20 25 17 11 -3 19 0 19 7
0 7 -7 11 -16 8 -13 -4 -13 -3 -2 5 7 5 22 7 33 4 15 -4 17 -7 6 -13 -18 -12
16 -37 62 -44 54 -10 62 -14 57 -29 -9 -23 40 -49 79 -43 19 3 34 1 34 -4 0
-5 11 -7 25 -3 19 5 27 2 32 -12 10 -29 26 -35 45 -17 14 13 20 13 33 3 11 -9
19 -9 28 -2 7 6 53 20 102 32 50 12 94 26 100 31 18 18 32 8 45 -31 7 -22 17
-40 22 -40 4 0 8 -11 8 -24 0 -30 9 -36 35 -25 11 4 17 8 13 8 -12 1 25 41 38
41 6 0 17 11 24 25 9 17 17 22 24 15 6 -6 4 -15 -7 -27 -8 -10 -15 -22 -15
-28 0 -5 -8 -14 -18 -19 -18 -8 -61 -112 -51 -122 3 -3 11 14 18 37 8 23 23
47 34 53 10 6 28 21 38 34 20 24 26 26 46 13 11 -7 9 -24 -12 -97 -33 -116
-72 -332 -92 -514 -25 -224 -81 -539 -126 -709 -60 -223 -73 -266 -105 -353
-24 -64 -27 -68 -57 -67 -18 0 -47 -3 -65 -7 -29 -6 -34 -4 -39 17 l-6 23 -8
-22 c-5 -13 -18 -23 -31 -23 -13 -1 -34 -3 -48 -5 -14 -2 -55 -5 -92 -8 -38
-3 -71 -7 -76 -10 -14 -9 -202 -16 -202 -7 0 15 -45 21 -81 10 -42 -12 -217
-22 -364 -20 -46 1 -51 3 -64 33 -8 17 -28 48 -46 67 -42 48 -75 96 -75 110 0
6 -12 29 -26 51 l-26 39 16 83 c47 241 54 281 66 408 6 63 13 129 15 145 2 17
11 143 20 280 20 316 43 479 75 537 6 10 10 25 10 33 0 23 69 155 80 155 6 0
10 6 10 14 0 8 16 24 36 35 20 12 38 30 41 41 3 11 9 18 13 15 4 -3 4 14 -1
36 -8 33 -6 45 6 59 8 9 15 28 15 41 0 46 51 92 62 57 3 -7 12 3 21 21 16 32
16 33 -3 28 -22 -6 -23 -1 -14 55 4 21 10 35 15 32 9 -5 12 4 30 111 6 39 16
78 21 88 5 10 11 43 13 74 4 62 3 60 30 65 15 2 21 -3 23 -22 2 -14 6 -32 9
-40 3 -8 5 -19 4 -24 -1 -5 4 -13 11 -18 10 -6 7 -10 -9 -14 -23 -6 -28 -15
-17 -27 4 -3 19 3 34 15 23 16 31 18 49 8 12 -6 19 -15 16 -20 -7 -11 43 6 61
21 8 7 13 6 16 -3 3 -8 7 -6 11 6 4 10 3 15 -3 11 -19 -12 -10 11 16 39 15 15
40 32 55 38 16 5 29 14 29 20 0 5 5 6 10 3 6 -4 8 -10 5 -15 -8 -14 14 -22 41
-16 13 4 24 13 24 21 0 23 20 28 35 9 13 -18 14 -17 24 8 6 15 8 35 5 43 -4
10 0 15 10 15 9 0 16 -7 16 -15 0 -17 16 -20 25 -6 3 5 -8 24 -25 42 -16 19
-30 37 -30 41 0 12 14 10 28 -4 6 -6 14 -9 17 -7 3 3 -7 12 -23 20 -15 8 -33
21 -40 29 -12 13 -13 13 -8 -2 3 -10 2 -18 -2 -18 -10 0 -58 55 -66 77 -7 17
-8 17 -17 0 -6 -9 -8 -21 -4 -26 3 -5 0 -13 -6 -17 -7 -4 -22 4 -35 19 -30 35
-33 34 -24 -7 6 -29 5 -35 -11 -39 -12 -3 -19 0 -19 8 0 7 -14 18 -31 24 -21
7 -29 16 -26 25 3 8 -1 20 -9 26 -8 7 -14 19 -14 26 0 8 -8 14 -18 14 -9 0
-23 9 -30 21 -24 37 -23 13 1 -32 22 -42 26 -86 6 -74 -5 4 -9 1 -9 -4 0 -6
-7 -11 -15 -11 -16 0 -21 -25 -7 -34 12 -7 9 -106 -3 -106 -6 0 -10 26 -10 58
0 31 -4 63 -8 70 -12 18 -29 4 -22 -18 3 -10 -1 -25 -10 -33 -8 -9 -15 -32
-15 -52 0 -22 -4 -34 -10 -30 -6 3 -8 16 -6 28 18 103 18 99 -21 174 -21 40
-56 91 -78 115 -22 24 -47 51 -55 61 -13 18 -12 18 16 14 16 -2 54 -15 84 -27z
m-629 -24 c22 -37 24 -51 6 -67 -10 -10 -9 -17 10 -37 15 -16 23 -39 25 -70 2
-38 7 -47 21 -46 10 1 17 -5 17 -17 0 -10 -4 -19 -10 -19 -5 0 -10 5 -10 10 0
6 -5 10 -11 10 -7 0 -9 -9 -5 -24 6 -25 -16 -81 -27 -69 -6 6 -12 -29 -8 -50
1 -5 -3 -6 -9 -2 -5 3 -10 12 -10 20 0 8 -7 11 -20 8 -11 -3 -27 1 -36 8 -10
8 -18 9 -22 2 -9 -13 -62 -26 -62 -14 0 5 7 11 15 15 8 3 15 10 15 15 0 6 -8
7 -17 4 -13 -5 -15 -2 -10 11 4 9 3 15 -2 11 -5 -3 -12 -1 -15 4 -3 5 8 14 25
20 17 6 28 15 24 21 -8 13 -35 13 -35 -1 0 -5 -5 -7 -10 -4 -6 4 -7 12 -3 18
4 7 9 23 11 37 2 13 9 28 15 32 9 6 9 10 0 16 -9 6 -3 19 23 46 27 29 34 44
30 61 -5 20 -1 24 24 30 34 7 41 25 10 25 -30 0 -24 25 6 26 19 2 31 -6 45
-30z m-1671 -80 c0 -12 7 -13 32 -5 18 5 34 9 35 9 2 0 3 -8 4 -17 0 -14 2
-13 9 5 5 12 15 22 22 22 10 0 10 -2 -1 -9 -17 -11 3 -25 24 -18 7 3 16 0 18
-7 3 -9 15 -12 31 -9 16 3 26 1 26 -6 0 -7 -8 -11 -17 -9 -10 1 -24 -1 -31 -6
-7 -4 -19 -3 -26 3 -9 8 -18 7 -32 -4 -18 -15 -18 -15 7 -10 23 6 25 3 26 -29
1 -32 -2 -36 -23 -36 -13 0 -24 5 -24 10 0 15 -21 12 -42 -6 -16 -16 -18 -15
-24 2 -4 11 -16 27 -28 36 -12 10 -15 18 -8 18 15 0 16 37 1 42 -12 4 -1 38
12 38 5 0 9 -6 9 -14z m755 -1040 c6 -7 22 -16 36 -19 16 -4 29 -16 33 -29 l7
-23 11 22 c10 21 34 30 98 37 14 1 31 5 37 9 7 5 13 -1 15 -15 2 -19 10 -23
43 -25 22 0 45 3 51 8 16 13 26 -2 13 -18 -9 -10 -7 -13 7 -13 15 0 16 -2 5
-9 -12 -8 -12 -12 -2 -25 7 -9 10 -23 7 -32 -4 -11 -2 -15 8 -11 8 3 22 -1 33
-8 26 -20 33 -18 33 10 0 14 5 25 11 25 6 0 10 -10 9 -22 -6 -72 -1 -86 35
-99 19 -7 35 -17 35 -21 0 -4 6 -7 13 -6 8 2 11 -8 10 -30 -1 -31 1 -33 24
-27 20 5 24 2 21 -11 -2 -10 -8 -19 -15 -21 -16 -6 -101 76 -120 115 -9 18
-19 29 -22 24 -9 -13 -41 -23 -41 -12 0 6 -7 10 -16 10 -8 0 -12 -4 -9 -10 12
-20 -14 -9 -32 13 -10 13 -26 26 -37 30 -15 6 -17 4 -12 -17 5 -21 3 -23 -14
-19 -12 3 -29 -2 -39 -11 -15 -13 -20 -14 -24 -4 -2 7 -8 10 -12 6 -11 -11 27
-67 42 -61 27 10 12 -13 -17 -25 -23 -11 -37 -11 -65 -2 -19 6 -35 16 -35 21
0 12 -80 49 -127 60 -28 6 -33 4 -33 -11 0 -24 -34 -52 -64 -54 -27 -1 -37
-16 -11 -16 19 0 20 -16 1 -23 -8 -3 -20 1 -26 9 -20 23 -27 16 -26 -26 1 -35
4 -40 23 -40 19 0 23 -5 23 -30 0 -16 -5 -30 -10 -30 -6 0 -15 -10 -21 -23 -6
-13 -26 -27 -47 -34 -45 -14 -50 -11 -22 17 l22 22 -24 -8 c-12 -4 -45 -7 -71
-7 -43 1 -48 -2 -44 -18 6 -24 -5 -31 -38 -23 -20 5 -25 12 -25 38 0 31 -35
76 -60 76 -16 0 -12 -20 5 -26 20 -8 19 -36 -1 -32 -9 2 -23 20 -32 42 -12 32
-13 39 -1 46 11 7 9 10 -6 16 -29 11 -36 26 -18 39 12 9 13 16 5 31 -10 17
-11 17 -12 2 0 -11 -5 -15 -15 -12 -10 4 -16 0 -17 -12 0 -11 -2 -25 -2 -32
-1 -7 -8 -17 -16 -23 -13 -8 -13 -11 3 -23 10 -8 15 -20 11 -30 -3 -9 -2 -16
4 -16 14 0 6 -91 -9 -100 -6 -5 -9 -15 -6 -24 3 -8 1 -18 -4 -22 -6 -3 -8 -15
-6 -26 5 -17 2 -18 -26 -12 l-32 6 27 -21 c29 -23 50 -26 79 -11 27 15 26 -17
-2 -41 -11 -10 -18 -22 -15 -28 9 -14 -4 -41 -20 -41 -7 0 -16 -11 -20 -24 -3
-15 -14 -26 -27 -28 -12 -2 -26 -13 -32 -25 -6 -13 -19 -23 -30 -23 -25 0 -45
-18 -45 -41 0 -9 -7 -19 -15 -23 -9 -3 -12 -12 -8 -22 4 -12 3 -15 -6 -10 -16
10 -81 -34 -81 -54 0 -9 -9 -23 -20 -33 -17 -14 -18 -21 -10 -37 6 -11 14 -18
19 -16 4 3 5 -8 3 -25 -2 -16 0 -29 5 -29 5 0 9 -8 10 -17 1 -10 5 -29 8 -43
5 -19 -1 -33 -25 -60 -18 -19 -35 -34 -39 -33 -10 2 -23 -160 -15 -180 14 -36
-79 -330 -126 -399 -31 -45 -132 -138 -149 -138 -11 0 -9 4 5 15 17 13 17 14
2 15 -9 0 -20 -4 -23 -10 -8 -12 -35 -13 -35 -1 0 5 11 12 25 15 16 4 22 11
18 21 -5 13 -7 13 -18 -2 -8 -10 -16 -15 -20 -12 -3 4 -9 79 -14 168 -6 135
-11 164 -26 181 -10 11 -25 18 -32 16 -7 -3 -23 -1 -35 4 -13 5 -17 9 -10 9
27 2 10 21 -19 21 -18 0 -28 4 -24 10 4 6 11 8 16 5 5 -4 9 4 9 17 0 18 -2 20
-10 8 -5 -8 -12 -11 -16 -7 -4 4 -13 2 -19 -3 -9 -7 -16 -5 -26 6 -11 14 -11
18 4 29 19 14 13 25 -15 25 -29 0 -20 27 17 48 18 10 16 11 -15 12 -24 0 -31
3 -21 9 11 7 10 10 -4 18 -15 9 -13 13 19 40 36 29 36 30 17 47 -11 10 -27 15
-38 12 -10 -3 -25 -1 -33 4 -11 7 -7 10 18 10 17 0 32 5 32 11 0 8 11 9 31 5
28 -5 31 -4 26 15 -3 12 1 32 9 45 9 13 13 27 10 32 -3 6 5 17 19 26 14 9 25
12 25 6 0 -5 5 -10 10 -10 6 0 10 9 10 20 0 11 7 20 15 20 8 0 15 5 15 10 0 6
-4 10 -9 10 -9 0 -7 82 3 98 3 5 26 9 52 10 36 0 47 -4 51 -17 6 -23 45 -17
61 10 15 23 8 40 -13 32 -10 -3 -15 1 -15 12 0 12 5 15 23 10 15 -5 12 0 -12
16 -19 13 -37 31 -39 39 -3 8 -1 12 3 8 15 -14 35 13 25 32 -7 13 -4 25 13 46
12 16 25 31 29 32 5 2 8 11 8 20 0 13 2 14 9 3 6 -9 10 -4 13 18 2 17 1 31 -3
31 -4 0 -10 7 -13 16 -3 8 -2 12 4 9 6 -3 19 1 31 9 12 8 28 12 35 9 8 -3 14
-1 14 5 0 5 -6 12 -13 15 -17 6 -15 51 1 53 7 1 31 3 55 4 l42 3 -45 7 c-24 4
-53 5 -63 2 -17 -4 -18 -1 -12 29 10 45 14 51 31 45 9 -3 14 2 14 14 0 25 6
25 37 0 14 -11 32 -20 39 -20 17 0 37 37 30 55 -2 7 3 20 13 29 21 19 38 21
23 3 -7 -8 -8 -24 -3 -43 l8 -29 8 30 c9 35 24 57 35 50 11 -7 40 5 40 16 0 5
-12 9 -27 9 -40 0 -56 14 -48 39 4 15 2 21 -8 21 -10 0 -13 13 -11 52 2 29 8
54 14 56 5 2 10 19 10 38 0 46 14 43 30 -6 17 -52 30 -51 31 3 1 38 2 39 8 12
l7 -30 7 28 c9 32 37 37 37 6 0 -12 5 -19 12 -17 7 3 20 -5 29 -16 16 -20 17
-19 38 22 12 23 29 42 37 42 14 0 14 3 4 15 -11 13 -8 15 14 15 30 0 64 30 58
49 -3 8 1 12 9 9 10 -3 15 -27 17 -77 3 -68 4 -72 20 -58 9 8 30 17 45 21 15
4 25 10 23 15 -8 12 41 20 52 9 14 -14 62 20 62 43 0 10 5 21 10 24 6 3 10 -3
10 -14 0 -12 7 -21 15 -21 8 0 15 7 15 15 0 9 9 25 20 37 14 15 17 25 9 34
-12 15 16 34 50 34 11 0 22 4 25 9 7 11 119 -8 131 -23z m-5717 -15 c23 -5 45
-5 48 0 6 11 80 5 96 -8 7 -5 33 -11 58 -12 25 -2 51 -8 59 -14 10 -9 16 -7
26 6 24 33 36 20 30 -35 -4 -29 -9 -56 -11 -60 -3 -4 -1 -8 4 -8 5 0 12 -9 15
-20 3 -11 2 -18 -3 -15 -7 4 -22 -96 -21 -143 1 -13 -18 -67 -40 -120 -73
-174 -120 -255 -136 -238 -3 3 -12 1 -19 -5 -7 -6 -41 -14 -75 -19 -48 -7 -70
-6 -97 6 -42 17 -69 18 -75 2 -4 -9 -8 -10 -14 -2 -17 21 -73 36 -115 31 -54
-8 -128 20 -145 54 -17 33 -16 136 3 271 14 102 41 191 54 178 3 -3 22 11 43
30 45 41 101 70 134 70 13 0 23 5 23 10 0 6 10 10 23 10 12 0 30 9 40 20 18
22 31 23 95 11z m709 -111 c27 0 73 -20 73 -32 0 -4 7 -8 16 -8 9 0 18 -9 21
-20 6 -23 23 -27 23 -5 0 8 7 15 15 15 8 0 15 -6 15 -12 0 -9 4 -8 10 2 8 12
13 13 30 3 11 -7 28 -13 38 -13 10 0 27 -7 38 -15 10 -8 29 -15 41 -15 12 0
25 -4 28 -10 3 -5 17 -10 30 -10 13 0 27 5 30 10 8 13 52 13 60 1 3 -6 13 -10
23 -9 25 0 128 -30 164 -48 l31 -16 -6 -79 c-5 -71 -3 -80 14 -90 14 -7 19
-21 19 -49 0 -55 -20 -143 -34 -155 -15 -12 -30 -62 -27 -87 1 -10 -3 -18 -9
-18 -6 0 -8 -4 -5 -10 16 -26 -125 -252 -199 -320 -24 -22 -35 -25 -93 -22
-77 3 -274 65 -431 136 -56 25 -110 46 -120 46 -36 0 -119 67 -143 116 -22 46
-22 51 -10 158 26 241 91 466 147 516 23 19 40 27 51 23 16 -6 16 -5 4 10 -11
14 -11 17 0 21 31 11 66 10 99 -1 19 -7 45 -12 57 -13z m5658 -42 c0 -13 5
-24 10 -25 6 -1 9 9 8 23 -1 15 4 24 13 24 8 0 14 -9 14 -20 0 -18 16 -26 43
-21 5 1 11 -7 14 -17 5 -22 50 -47 55 -31 2 6 11 7 21 4 11 -5 17 -18 17 -41
0 -19 2 -34 5 -34 16 0 56 56 52 72 -6 22 -3 22 17 2 15 -14 16 -14 16 0 0 9
4 16 9 16 19 0 22 -21 11 -56 -9 -25 -9 -39 -2 -46 8 -8 13 -3 17 15 4 16 16
28 32 32 33 8 43 -3 19 -21 -17 -12 -18 -14 -3 -14 9 0 17 -7 17 -15 0 -21 11
-19 35 8 42 46 95 62 95 27 0 -11 -7 -20 -14 -20 -12 0 -16 -27 -20 -137 -12
-343 -15 -386 -24 -392 -6 -3 -12 -17 -15 -31 -2 -14 -2 -19 0 -12 3 6 8 12
12 12 11 0 -3 -90 -22 -132 -11 -27 -12 -38 -4 -41 9 -3 7 -13 -5 -36 -9 -17
-13 -31 -8 -31 6 0 10 -4 10 -10 0 -14 -43 -6 -48 8 -2 7 1 12 7 12 6 0 11 7
11 15 0 8 -4 15 -9 15 -13 0 -41 -47 -41 -69 0 -11 -5 -23 -12 -27 -8 -5 -9 5
-4 37 6 36 5 42 -6 31 -9 -9 -13 -44 -13 -112 0 -89 -2 -99 -19 -104 -14 -4
-17 -8 -9 -18 6 -7 8 -21 4 -31 -6 -17 -7 -17 -27 0 -18 16 -20 22 -10 50 6
17 14 35 19 39 13 14 7 32 -13 37 -20 5 -23 16 -24 97 -1 22 -5 34 -13 33 -9
-2 -13 11 -12 40 0 23 3 35 6 27 2 -8 7 -21 9 -29 4 -13 7 -13 19 0 16 17 24
131 9 136 -11 4 -34 -39 -34 -63 0 -9 -6 -14 -12 -11 -17 5 -16 58 1 79 8 11
10 24 6 35 -5 10 -7 27 -6 37 5 33 -21 106 -36 106 -10 0 -14 -7 -10 -19 3
-12 -1 -22 -10 -25 -8 -3 -12 -2 -9 2 2 4 -2 18 -10 32 -13 24 -13 24 -14 -20
0 -43 -1 -44 -15 -23 -13 18 -13 26 -3 42 10 17 9 23 -7 41 -16 18 -16 20 -2
14 20 -7 20 -9 6 58 -12 56 -113 225 -153 254 -21 16 -21 16 0 12 18 -5 20 -1
16 20 -3 17 -1 23 7 18 6 -4 11 -14 11 -22 0 -8 7 -14 15 -14 9 0 27 -12 40
-26 14 -15 25 -23 25 -17 0 5 -10 20 -22 33 -29 31 -48 67 -48 91 0 10 -4 21
-10 24 -5 3 -10 16 -10 27 0 11 -8 27 -17 34 -17 12 -16 15 7 38 31 31 46 32
45 4z m-3287 -14 c10 -3 10 -9 -1 -31 -7 -16 -19 -47 -27 -71 -16 -49 -40 -77
-40 -44 0 37 -30 34 -71 -8 -22 -22 -44 -40 -49 -40 -5 0 -11 -9 -15 -19 -3
-10 -21 -29 -40 -42 -19 -13 -35 -28 -35 -34 0 -5 -4 -4 -9 4 -11 17 -31 5
-31 -19 0 -19 -17 -36 -27 -27 -12 13 20 76 58 113 22 21 43 39 47 39 4 0 6 3
5 8 -4 9 34 47 46 47 5 0 12 8 15 18 4 10 20 32 37 48 25 24 32 26 40 14 9
-12 10 -11 5 4 -4 11 0 26 10 37 16 18 34 18 82 3z m827 -274 c3 -5 13 -10 21
-10 8 0 30 -16 50 -35 36 -36 51 -45 38 -22 -6 10 -4 10 7 0 7 -7 21 -13 30
-13 10 0 19 -5 21 -11 2 -6 18 -14 36 -17 38 -8 43 -28 7 -25 -17 1 -22 -3
-18 -13 6 -16 -22 -20 -32 -4 -8 13 -48 13 -61 0 -5 -5 -29 -11 -52 -13 -37
-3 -40 -2 -28 12 12 14 12 18 0 29 -7 7 -24 17 -36 22 -22 8 -21 9 7 10 23 0
27 3 15 10 -8 6 -26 8 -40 7 -14 -2 -19 -2 -12 0 20 7 14 21 -10 25 -22 3 -28
22 -8 24 6 1 18 2 28 4 12 1 13 3 3 7 -11 5 -11 7 0 14 18 11 26 11 34 -1z
m-1202 -82 c-8 -24 -20 -50 -28 -58 -20 -23 -55 -89 -55 -104 0 -7 -11 -26
-25 -42 -14 -16 -27 -36 -30 -45 -3 -9 -15 -19 -25 -22 -12 -3 -20 -14 -20
-26 0 -12 -9 -31 -20 -43 -17 -19 -20 -19 -20 -5 0 16 -2 16 -30 2 -16 -9 -30
-20 -30 -25 0 -6 -7 -10 -15 -10 -8 0 -15 -5 -15 -10 0 -11 -11 -26 -47 -66
-13 -14 -23 -28 -23 -32 0 -4 -12 -15 -27 -24 -16 -9 -53 -41 -84 -72 -31 -31
-59 -56 -63 -56 -17 0 -1 25 47 74 28 30 62 68 74 83 13 15 39 46 58 68 20 22
44 52 53 68 9 15 19 27 23 27 4 0 31 33 60 73 85 116 234 287 250 287 4 0 0
-19 -8 -42z m922 -242 c13 -3 31 -13 39 -22 9 -8 16 -12 16 -7 0 14 -14 29
-35 38 -18 8 -17 9 9 13 16 2 33 -1 39 -7 6 -6 23 -11 38 -11 14 0 45 -6 67
-14 31 -11 42 -12 45 -3 3 8 14 5 34 -10 17 -12 57 -30 89 -40 50 -15 55 -18
30 -21 -30 -4 -82 14 -104 35 -7 7 -18 13 -25 13 -6 0 -2 -7 9 -16 18 -14 15
-15 -36 -10 -30 2 -47 2 -37 -1 12 -3 16 -10 13 -20 -4 -10 2 -22 14 -30 31
-22 24 -35 -10 -18 -16 8 -38 15 -50 15 -11 0 -20 6 -20 13 0 14 -96 61 -117
58 -7 -1 -13 5 -13 14 0 9 -7 18 -15 21 -8 4 -14 16 -14 28 1 15 3 16 6 4 2
-9 15 -19 28 -22z m6972 -537 c39 -19 113 -94 113 -114 0 -5 -14 10 -31 33
-31 43 -67 67 -122 83 -21 6 -41 3 -77 -13 -27 -12 -47 -25 -44 -30 3 -4 -1
-8 -8 -8 -17 0 -85 -90 -94 -124 -3 -14 -10 -23 -15 -21 -5 3 -11 -7 -15 -22
-3 -15 -14 -47 -24 -69 -31 -67 -83 -245 -100 -339 -19 -104 -22 -137 -11
-130 6 3 11 -1 11 -9 0 -9 -6 -16 -14 -16 -8 0 -17 -12 -19 -27 -3 -20 -4 -17
-6 13 0 23 8 91 18 150 60 340 176 587 306 645 52 24 79 24 132 -2z m-671
-316 c-3 -16 -15 -118 -27 -228 -11 -110 -25 -204 -29 -209 -5 -5 -16 -6 -25
-2 -14 5 -15 18 -10 91 6 85 6 85 -20 95 -14 6 -43 10 -63 11 -20 0 -31 3 -24
6 17 7 15 23 -3 23 -8 0 -15 -4 -15 -10 0 -5 -20 -10 -45 -10 l-46 0 4 37 c2
20 11 41 19 47 8 6 18 20 22 31 7 19 8 19 26 -4 17 -24 19 -24 44 -7 15 9 24
21 21 26 -3 6 1 7 9 4 21 -8 20 5 -1 23 -16 13 -15 14 11 8 20 -4 32 -1 41 12
13 17 14 17 20 0 6 -14 10 -15 21 -6 8 6 14 19 14 28 0 24 28 61 46 61 12 0
14 -7 10 -27z m-5618 -20 c9 -10 26 -18 37 -18 15 0 22 -10 29 -43 7 -33 6
-46 -4 -52 -7 -4 -9 -13 -5 -20 5 -7 8 -28 7 -45 -1 -26 3 -34 21 -39 20 -6
20 -7 5 -16 -10 -6 -15 -17 -11 -26 3 -9 7 -28 8 -43 3 -47 5 -51 19 -51 12 0
22 -39 33 -130 2 -14 6 -42 9 -63 8 -47 -5 -238 -16 -257 -5 -8 -12 -11 -16
-8 -6 7 -8 16 -13 66 0 7 -6 10 -12 7 -5 -4 -19 4 -30 16 -17 20 -23 22 -40
10 -12 -7 -24 -10 -27 -7 -3 3 -3 7 -1 9 2 2 21 15 41 30 20 15 42 27 49 27 9
0 10 3 3 10 -8 8 -20 5 -42 -7 -18 -10 -32 -21 -32 -25 0 -11 -44 4 -57 19 -6
8 -15 13 -20 10 -4 -2 -17 -1 -28 4 l-20 8 20 1 c11 1 38 3 59 5 22 1 42 7 44
13 2 7 10 12 18 12 8 0 14 5 14 10 0 6 -7 10 -15 10 -8 0 -15 -4 -15 -10 0 -5
-11 -10 -25 -10 -30 0 -33 16 -5 25 11 3 20 11 20 16 0 5 8 9 17 9 12 0 14 3
6 11 -11 11 -49 -4 -64 -25 -4 -5 -11 -6 -15 -3 -11 6 -35 -18 -27 -27 4 -3
-8 -6 -25 -6 -16 0 -38 -3 -48 -7 -13 -5 -15 -3 -8 8 19 31 14 41 -18 35 -16
-3 -41 -3 -56 1 -24 6 -24 7 -6 20 16 12 17 15 4 24 -12 8 -10 9 8 4 13 -4 28
-2 35 3 16 13 119 27 115 15 -2 -4 2 -10 7 -11 6 -2 16 -8 23 -14 9 -8 19 -6
35 9 12 11 28 19 35 17 7 -1 8 0 2 3 -6 3 -6 11 1 25 9 16 7 24 -5 36 -13 13
-21 14 -55 2 -22 -7 -47 -10 -57 -6 -14 5 -15 4 -4 -9 7 -8 21 -15 31 -15 10
0 21 -5 25 -11 5 -9 -1 -10 -22 -4 -16 4 -42 9 -59 10 -16 2 -38 6 -47 10 -11
4 -18 3 -18 -3 0 -6 -18 -13 -40 -17 -22 -4 -38 -11 -34 -16 3 -5 -6 -9 -20
-9 -20 0 -24 4 -19 17 6 15 5 16 -9 3 -14 -13 -14 -17 4 -32 20 -17 19 -17 -4
-14 -35 4 -58 17 -58 31 0 7 -6 16 -12 18 -7 3 -2 6 11 6 13 1 30 9 37 19 12
15 15 15 24 2 9 -12 11 -12 8 5 -4 27 -54 33 -76 8 -9 -10 -29 -24 -44 -32
-15 -8 -25 -18 -22 -22 6 -10 -14 -22 -26 -14 -17 10 0 32 40 51 50 24 51 34
3 27 -27 -3 -49 -17 -76 -44 -30 -31 -42 -37 -55 -29 -16 9 -16 9 1 10 9 0 17
5 17 10 0 6 -18 10 -40 10 -40 0 -54 -15 -25 -26 19 -8 20 -24 1 -24 -8 0 -17
7 -20 16 -5 13 -9 14 -20 5 -11 -9 -15 -8 -20 5 -4 10 -2 22 4 28 5 5 10 18
10 27 0 11 11 18 37 22 20 4 40 4 45 1 14 -9 9 -22 -9 -27 -14 -4 -12 -5 5 -6
12 0 22 5 22 12 0 6 7 3 16 -8 15 -20 16 -19 43 14 23 27 32 32 51 26 23 -7
23 -7 7 9 -9 10 -17 22 -17 27 0 5 -7 9 -15 9 -9 0 -14 -8 -12 -21 1 -14 -6
-24 -20 -30 -16 -6 -22 -5 -20 4 1 7 -6 11 -15 11 -10 -1 -18 2 -18 7 0 5 4 9
9 9 6 0 22 11 37 25 19 17 30 22 34 14 6 -8 9 -8 14 0 4 6 15 11 25 11 10 0
21 9 24 19 5 22 79 38 117 26 15 -5 20 -3 16 3 -4 6 3 16 14 22 17 9 27 8 46
-5 24 -15 24 -15 24 16 l0 32 -47 -8 c-84 -13 -147 -12 -176 2 -32 16 -31 38
2 37 11 0 21 3 21 8 0 4 3 7 8 7 22 -4 34 3 28 16 -3 9 1 18 10 22 11 4 14 14
10 33 -5 26 -2 28 32 35 20 3 46 9 56 12 18 5 18 6 -4 18 -22 12 -22 13 -4 22
19 9 75 11 104 2 8 -2 14 2 13 9 -2 6 6 12 16 12 11 0 22 -6 24 -12 4 -10 8
-10 14 -2 7 10 28 19 56 23 4 0 15 -7 25 -16z m5242 -378 c0 -8 6 -15 13 -15
8 0 7 -4 -3 -10 -12 -7 -8 -10 15 -10 43 0 14 -25 -85 -70 -25 -12 -53 -25
-62 -30 -42 -23 -66 7 -47 57 8 22 12 23 25 12 9 -7 20 -22 24 -34 8 -18 9
-17 9 8 1 15 6 27 11 27 6 0 10 5 10 10 0 6 -18 10 -40 10 -22 0 -40 4 -40 9
0 8 12 14 85 39 47 16 85 14 85 -3z m-5844 -255 c3 0 14 5 25 11 20 10 79 -7
79 -23 0 -5 17 -8 38 -8 33 -1 35 -2 17 -12 -11 -7 -35 -11 -52 -10 -24 2 -33
-2 -33 -13 0 -8 -5 -15 -12 -15 -6 0 -1 -8 10 -19 l22 -18 -23 -11 c-18 -8
-18 -11 -4 -11 28 -1 19 -19 -13 -26 -16 -4 -30 -8 -30 -11 0 -9 37 -41 55
-48 16 -6 17 -9 5 -16 -21 -14 -30 -12 -30 5 0 8 -9 15 -21 15 -16 0 -19 -4
-14 -19 5 -16 0 -21 -27 -26 -72 -12 -168 -13 -169 -2 0 9 -2 9 -5 0 -6 -15
-50 26 -46 43 1 7 -5 14 -13 18 -13 5 -12 10 7 32 13 14 37 33 53 42 l30 16
-25 8 c-22 7 -21 7 8 4 32 -3 43 7 20 18 -7 3 7 4 31 1 36 -5 42 -3 38 10 -12
30 3 46 37 40 26 -5 29 -4 15 7 -9 7 -19 27 -23 43 l-7 30 26 -27 c14 -16 28
-28 31 -28z m6697 22 c-8 -5 -9 -13 -3 -22 7 -11 3 -18 -13 -27 l-22 -12 23
-1 c21 0 22 -3 17 -42 -9 -62 -9 -60 0 -97 7 -33 6 -34 -19 -27 -18 4 -26 2
-26 -7 0 -20 -62 -8 -79 15 -9 14 -16 17 -24 9 -16 -16 -17 -59 -1 -72 18 -15
18 -39 -1 -39 -8 0 -15 -5 -15 -11 0 -6 -6 -9 -14 -6 -8 3 -26 -3 -40 -14
l-26 -20 0 30 c0 21 5 31 15 31 29 0 50 89 25 105 -21 13 20 52 60 59 36 6 40
9 40 36 0 29 37 80 59 80 6 0 11 11 11 24 0 26 19 39 35 24 6 -6 6 -11 -2 -16z
m-2411 -47 c4 -17 1 -25 -8 -25 -21 0 -34 -34 -34 -89 0 -40 4 -52 20 -61 14
-8 20 -21 20 -45 0 -19 5 -35 10 -35 6 0 10 -7 10 -15 0 -10 10 -15 28 -15 30
0 52 34 52 81 0 36 17 46 25 17 18 -62 30 -78 56 -78 24 0 28 5 35 48 l9 47
61 3 62 3 6 -68 c13 -122 46 -317 62 -358 9 -21 16 -53 16 -70 0 -39 24 -122
43 -151 8 -13 20 -46 26 -73 6 -28 21 -65 35 -83 13 -18 29 -44 35 -58 6 -14
15 -32 20 -40 5 -8 16 -28 25 -45 l16 -30 -21 23 c-25 25 -33 28 -25 8 6 -14
-2 -14 -211 4 -60 5 -121 8 -135 7 -14 -1 -119 1 -235 6 -841 30 -866 31 -875
17 -4 -7 -6 9 -3 36 3 27 12 60 21 74 12 19 17 53 17 142 1 65 5 121 8 125 11
10 8 141 -3 148 -5 3 -10 17 -10 30 0 18 6 26 23 29 12 2 65 13 117 25 227 52
403 188 540 419 l43 72 57 0 c54 0 58 -2 62 -25z m-4512 -450 c0 -19 9 -58 20
-87 11 -28 18 -53 16 -55 -2 -2 -146 3 -319 12 -174 8 -333 15 -354 15 -69 1
-15 16 257 74 146 31 279 60 295 65 17 5 42 10 58 10 24 1 27 -2 27 -34z
m-2960 -455 c0 -26 7 -27 275 -40 127 -6 251 -13 277 -16 27 -3 80 1 131 12
91 19 155 17 967 -31 135 -8 328 -19 430 -25 102 -5 349 -19 550 -30 201 -11
373 -20 383 -20 11 0 17 -8 17 -25 0 -22 4 -25 34 -25 18 0 60 -3 93 -6 56 -6
61 -9 71 -38 7 -18 12 -44 12 -58 0 -36 33 -109 59 -132 11 -11 21 -24 21 -31
0 -17 24 -65 33 -65 4 0 7 -14 7 -30 0 -38 23 -84 51 -104 24 -17 81 -98 74
-105 -3 -2 -12 4 -21 15 -13 15 -15 16 -10 2 4 -13 -1 -16 -22 -16 -15 0 -64
0 -109 -1 l-83 -1 0 -27 0 -28 -397 -2 c-276 -1 -399 -5 -401 -12 -5 -14 -82
-15 -82 -1 0 14 -157 13 -162 -1 -5 -15 -1376 -14 -1723 0 -137 6 -431 10
-653 8 -273 -1 -398 1 -386 8 136 79 233 167 309 281 76 114 158 301 221 507
18 57 34 75 34 37z m6229 -439 c14 -14 16 -21 8 -25 -9 -3 -8 -7 3 -15 12 -9
12 -11 -3 -17 -24 -9 -21 -27 3 -21 14 3 20 0 20 -11 0 -20 -29 -52 -48 -52
-9 0 -12 -6 -8 -16 3 -8 2 -13 -2 -10 -5 3 -16 -4 -25 -15 -23 -26 -37 -16
-37 27 0 19 -4 34 -8 34 -17 0 -21 -13 -11 -34 9 -18 7 -17 -9 3 -18 22 -20
67 -3 56 4 -2 14 11 21 30 13 34 50 62 68 51 6 -4 8 2 5 14 -7 25 2 25 26 1z
m-194 -285 c0 -22 -7 -33 -30 -45 -16 -9 -37 -16 -45 -16 -8 0 -16 -9 -18 -20
-6 -31 -18 -38 -41 -24 -17 11 -23 11 -33 0 -10 -11 -10 -14 0 -18 23 -9 12
-33 -18 -39 -32 -7 -41 -24 -12 -24 10 -1 6 -6 -13 -14 -22 -10 -33 -11 -40
-2 -5 6 -23 17 -39 24 -27 12 -31 11 -48 -10 -14 -19 -15 -24 -2 -26 33 -8 -1
-22 -51 -22 -30 0 -57 -4 -60 -10 -4 -6 10 -10 34 -10 30 0 41 -4 41 -15 0
-28 -147 -15 -158 14 -3 9 -17 24 -30 35 -31 25 -20 32 58 40 103 10 150 22
171 45 11 11 28 21 39 21 10 0 22 5 25 10 4 6 11 8 16 5 5 -4 9 0 9 9 0 8 14
20 30 28 17 7 30 16 30 20 0 19 31 5 44 -19 13 -25 15 -26 22 -9 4 11 2 21 -7
27 -24 15 48 74 91 74 32 0 35 -3 35 -29z"/>
<path d="M6793 7473 c-29 -13 -33 -21 -33 -54 0 -29 -8 -46 -34 -75 -24 -26
-38 -55 -47 -96 -18 -79 -24 -88 -44 -63 -16 20 -16 20 -7 0 5 -11 7 -25 5
-32 -2 -6 1 -14 6 -18 6 -3 11 -1 11 4 0 6 10 11 23 11 34 1 57 24 57 58 0 17
4 33 9 36 4 3 12 20 16 38 6 29 8 30 15 13 4 -11 5 -24 3 -28 -3 -5 -6 -25 -7
-46 -1 -39 5 -43 52 -27 22 7 31 26 12 26 -5 0 -10 5 -10 10 0 6 7 10 15 10 8
0 15 9 15 20 0 11 5 20 10 20 6 0 10 -4 10 -10 0 -21 46 -8 68 20 22 28 25 71
4 78 -5 1 -26 -13 -46 -32 -19 -20 -40 -36 -46 -36 -6 0 -22 -7 -35 -16 -24
-15 -25 -15 -25 3 0 25 53 132 72 145 9 6 8 8 -7 6 -14 -2 -21 4 -25 24 -5 27
-5 27 -37 11z"/>
<path d="M11714 5088 c-5 -13 -7 -26 -6 -30 1 -5 -11 -8 -26 -8 -25 0 -29 -4
-30 -31 -1 -33 -15 -60 -54 -99 -14 -14 -31 -40 -39 -58 -8 -18 -19 -30 -26
-28 -21 8 -35 -20 -18 -34 13 -10 19 -10 33 3 9 9 37 17 62 19 41 3 45 5 46
31 1 15 9 34 19 41 10 7 15 17 12 23 -4 5 4 21 16 33 14 16 20 34 18 52 -1 16
2 28 9 28 6 0 10 6 8 14 -2 8 6 22 17 30 17 14 18 17 5 26 -24 16 -38 12 -46
-12z"/>
<path d="M16406 7554 c-3 -9 -6 -24 -6 -35 0 -10 -5 -19 -11 -19 -5 0 -7 5 -3
11 5 8 1 8 -14 0 -11 -6 -23 -22 -26 -37 -5 -18 -11 -24 -23 -20 -13 5 -14 1
-9 -25 3 -17 6 -38 6 -46 0 -8 4 -11 10 -8 5 3 12 -7 15 -22 4 -15 10 -37 15
-48 8 -19 9 -19 9 1 1 14 9 24 24 28 14 4 18 9 11 13 -28 20 -24 91 5 74 9 -6
10 -11 2 -15 -18 -12 -13 -23 19 -36 16 -7 27 -16 24 -21 -3 -5 0 -9 5 -9 15
0 14 -27 -1 -33 -10 -4 -10 -8 0 -23 6 -11 16 -29 22 -41 11 -26 30 -31 30 -8
0 8 4 15 9 15 10 0 19 -53 25 -155 2 -38 8 -70 13 -70 4 0 8 7 9 15 2 31 5 33
24 15 16 -14 18 -20 8 -27 -10 -6 -9 -11 5 -19 21 -12 22 -26 2 -45 -28 -28
-16 -38 42 -34 8 1 32 -84 33 -115 0 -11 7 -33 15 -49 8 -15 15 -35 15 -42 0
-24 20 -15 33 14 11 25 12 21 15 -45 3 -81 21 -100 23 -25 2 46 2 46 9 12 7
-34 7 -33 9 14 0 27 6 66 13 88 10 34 15 38 34 34 17 -5 24 -1 29 14 4 13 14
19 28 17 17 -1 22 3 22 19 0 12 7 30 16 40 28 33 29 49 3 49 -13 0 -24 -2 -24
-5 0 -3 -9 -6 -20 -7 -11 -1 -20 3 -20 9 0 7 -17 9 -46 5 -38 -4 -44 -2 -39
10 5 13 -3 15 -47 9 -29 -4 -54 -11 -56 -17 -2 -5 -10 -9 -18 -9 -10 0 -14 13
-14 44 0 25 -5 48 -10 51 -6 4 -8 10 -5 15 9 15 -36 304 -54 345 -24 53 -85
126 -125 147 -39 22 -52 22 -60 2z"/>
<path d="M16060 7325 c0 -8 5 -15 10 -15 7 0 7 -6 1 -18 -7 -13 -7 -22 1 -30
8 -8 7 -13 -5 -18 -9 -3 -17 -17 -17 -30 0 -13 -6 -24 -12 -24 -9 0 -13 -20
-14 -62 -1 -89 -6 -128 -16 -134 -5 -3 -6 -15 -3 -26 4 -11 1 -26 -8 -36 -14
-15 -13 -20 8 -44 13 -15 26 -24 29 -21 3 4 6 1 6 -5 0 -7 5 -12 10 -12 6 0
10 16 10 35 0 24 -5 35 -15 35 -8 0 -15 5 -15 10 0 6 6 10 13 10 9 0 9 2 0 8
-7 5 -11 26 -9 55 3 61 16 73 17 16 1 -39 2 -41 8 -14 l7 30 8 -38 c5 -28 11
-37 22 -33 17 7 19 -10 2 -18 -7 -3 -3 -3 10 0 12 3 22 1 22 -5 0 -19 17 -12
28 12 9 19 11 19 11 4 1 -11 7 -17 14 -14 12 4 13 77 2 137 -2 14 -2 19 1 13
3 -7 14 -13 25 -13 10 0 19 -3 20 -7 0 -5 2 -19 5 -33 4 -24 3 -24 -11 -6 -18
23 -19 17 -4 -21 l11 -28 14 28 c11 19 12 32 5 46 -8 14 -7 22 4 31 12 10 13
16 3 27 -10 13 -13 11 -22 -9 l-9 -23 -5 23 c-2 13 1 29 8 37 8 9 8 25 -1 60
-8 32 -14 42 -20 33 -6 -9 -9 -4 -9 15 0 15 -4 27 -10 27 -5 0 -10 -9 -10 -20
0 -10 -5 -31 -12 -45 -11 -26 -28 -34 -28 -14 0 8 -4 8 -14 -1 -20 -16 -8 -41
18 -38 17 2 20 -2 19 -19 -3 -24 12 -32 20 -10 2 6 7 9 11 6 4 -4 0 -14 -9
-22 -9 -9 -22 -30 -29 -48 l-13 -32 -8 39 c-5 22 -7 46 -6 55 1 9 -7 19 -17
21 -15 4 -18 12 -15 31 3 13 0 33 -5 44 -6 10 -7 25 -3 32 5 7 4 28 -2 47 -11
35 -27 46 -27 19z"/>
<path d="M17905 7202 c-3 -3 -17 -7 -32 -8 -15 -2 -29 -8 -31 -14 -5 -15 -23
-12 -44 7 -16 14 -18 14 -18 1 0 -23 -27 -41 -47 -32 -35 15 -63 10 -79 -13
-12 -19 -18 -21 -34 -13 -15 8 -19 6 -22 -12 -3 -21 -4 -21 -21 -3 -16 15 -20
16 -28 4 -5 -8 -9 -16 -9 -19 0 -3 -18 -13 -40 -23 -41 -18 -50 -36 -26 -56 9
-8 12 -25 10 -49 -15 -128 -16 -150 -4 -171 11 -22 12 -22 25 -4 8 10 15 14
15 9 0 -5 8 -2 18 7 9 8 28 17 42 19 19 2 26 10 28 31 4 31 28 36 47 10 11
-15 15 -15 46 -1 19 9 40 18 48 20 8 2 23 11 33 21 17 16 19 16 36 0 17 -17
17 -20 -1 -56 -18 -39 -15 -68 4 -34 39 69 93 85 117 35 7 -16 17 -28 21 -28
5 0 11 -13 14 -30 4 -16 16 -38 27 -47 11 -10 20 -21 20 -26 0 -5 11 -18 24
-28 14 -11 26 -34 30 -59 3 -23 12 -40 19 -40 7 0 21 -6 31 -13 17 -12 17 -15
2 -29 -20 -21 -21 -32 -1 -25 21 9 29 -10 26 -65 -1 -28 2 -48 9 -48 5 0 10
10 10 23 0 27 16 54 26 44 4 -4 9 -36 10 -72 1 -49 7 -71 23 -92 l22 -28 -5
165 c-6 183 -23 302 -62 430 -28 93 -86 225 -111 253 -21 23 -43 22 -43 -3 0
-11 6 -20 13 -20 9 0 8 -3 -2 -9 -9 -6 -11 -18 -8 -33 9 -36 -4 -51 -31 -32
-28 19 -28 34 -1 34 18 0 20 4 14 23 -4 12 -6 33 -6 47 1 20 -6 29 -32 39 -36
15 -65 20 -72 13z"/>
<path d="M16334 6643 c-17 -3 -20 -9 -16 -25 3 -14 1 -19 -6 -14 -14 8 -31
-23 -24 -44 2 -8 11 -23 20 -32 12 -14 13 -23 3 -47 -7 -16 -11 -44 -9 -62 4
-30 5 -27 13 21 4 30 10 49 12 43 10 -29 93 4 93 36 0 11 6 22 13 24 10 4 10
6 0 6 -7 1 -13 10 -13 21 0 11 -6 20 -14 20 -8 0 -19 14 -25 30 -5 17 -14 29
-18 29 -4 -1 -18 -4 -29 -6z"/>
<path d="M16202 5928 c-34 -12 -61 -26 -61 -32 1 -6 -9 -36 -23 -66 -18 -39
-27 -80 -32 -145 -3 -49 -11 -94 -16 -99 -6 -6 -10 -22 -10 -37 0 -15 -7 -35
-16 -44 -15 -15 -15 -17 0 -34 9 -10 16 -22 16 -28 0 -6 4 -13 9 -15 14 -5 17
-161 3 -166 -8 -2 -7 -8 3 -19 16 -16 20 -53 6 -53 -5 0 -7 10 -4 21 5 19 3
20 -18 14 -26 -9 -69 -34 -69 -42 0 -2 13 -2 30 2 40 9 75 -2 60 -20 -6 -7 -8
-19 -4 -28 3 -8 0 -25 -6 -37 -8 -16 -8 -25 0 -35 20 -24 40 -347 25 -407 -5
-19 -3 -28 5 -28 9 0 10 -3 1 -13 -8 -10 -7 -17 2 -26 6 -7 12 -24 12 -39 0
-15 5 -28 10 -29 6 -2 10 34 10 92 0 52 3 95 7 95 3 0 4 9 1 20 -3 11 0 26 6
34 6 7 8 21 5 30 -4 10 1 25 11 36 14 15 30 95 35 173 0 4 4 7 8 7 10 0 32
-169 32 -248 0 -40 4 -61 10 -57 11 7 14 -28 3 -39 -10 -9 -11 -46 -2 -46 18
0 31 44 25 84 -3 22 -2 64 3 91 l9 50 2 -40 c4 -86 17 -80 24 10 13 162 12
195 -4 205 -8 5 -10 10 -4 10 18 0 27 75 25 186 -2 82 0 103 14 114 10 9 12
15 5 20 -8 5 -8 39 0 121 12 128 11 288 -2 305 -5 6 -10 32 -12 57 -3 35 -11
53 -37 80 l-34 35 -63 -20z"/>
</g>
</svg>
