<?xml version="1.0" standalone="no"?>
<!DOCTYPE svg PUBLIC "-//W3C//DTD SVG 20010904//EN"
 "http://www.w3.org/TR/2001/REC-SVG-20010904/DTD/svg10.dtd">
<svg version="1.0" xmlns="http://www.w3.org/2000/svg"
 width="440.000000pt" height="305.000000pt" viewBox="0 0 440.000000 305.000000"
 preserveAspectRatio="xMidYMid meet">
<metadata>
Created by potrace 1.15, written by Peter Selinger 2001-2017
</metadata>
<g transform="translate(0.000000,305.000000) scale(0.100000,-0.100000)"
fill="#000000" stroke="none">
<path d="M1376 2440 c-22 -4 -45 -16 -53 -26 -35 -48 -161 -432 -180 -548 -5
-34 7 -50 22 -26 3 6 13 10 21 10 8 0 12 -4 9 -10 -10 -16 22 -11 39 6 9 8 16
11 16 5 0 -6 7 -11 15 -11 8 0 15 5 15 10 0 6 -5 10 -12 10 -6 0 -9 2 -7 5 3
2 61 12 129 21 115 15 234 19 865 24 42 1 47 2 31 12 -14 8 -122 9 -375 5
-313 -5 -458 -14 -686 -42 -28 -4 -45 -3 -38 2 6 4 24 59 39 121 15 62 32 119
38 128 38 51 258 45 523 -15 101 -23 158 -27 168 -11 3 6 -3 10 -15 10 -12 0
-94 16 -183 36 -226 50 -347 54 -475 18 -22 -6 -22 -6 9 82 17 49 38 101 45
117 l15 27 138 0 c220 0 574 -32 825 -76 165 -28 420 -99 454 -127 13 -10 142
-193 142 -201 0 -3 -25 6 -56 20 -31 13 -99 37 -152 52 -94 26 -104 27 -369
27 l-272 0 -33 33 c-38 36 -48 39 -48 16 0 -22 55 -74 78 -74 14 0 22 -9 27
-30 14 -64 126 -100 175 -55 21 19 22 37 6 76 -16 37 265 30 428 -12 122 -31
200 -70 233 -117 18 -26 37 -42 56 -44 15 -3 27 -1 27 4 0 6 -170 263 -216
326 -1 2 -67 23 -146 47 -190 57 -355 90 -630 125 -125 16 -232 31 -237 34 -5
3 -71 8 -147 12 -77 3 -144 6 -149 6 -6 1 -24 -2 -40 -6 -22 -5 -26 -4 -15 4
13 9 13 10 0 9 -8 -1 -33 -5 -54 -9z"/>
<path d="M1125 2363 c-60 -13 -121 -25 -135 -25 -16 -1 -26 -7 -26 -17 0 -9
-32 -61 -71 -116 -38 -55 -90 -133 -114 -174 -24 -40 -53 -77 -64 -82 -11 -4
-14 -8 -7 -8 21 -1 13 -21 -12 -31 -32 -12 -47 -35 -16 -25 19 6 21 5 11 -14
-6 -11 -17 -18 -24 -16 -6 3 -18 -4 -25 -15 l-13 -21 228 7 c190 5 230 9 241
22 6 9 12 19 12 24 0 14 -30 9 -36 -6 -5 -14 -64 -20 -64 -7 1 15 20 35 36 37
10 2 23 9 29 17 5 7 17 12 25 9 8 -3 12 -2 8 2 -3 4 0 23 8 42 14 34 14 34
-11 30 -24 -4 -31 7 -26 38 1 4 -10 5 -24 2 -24 -6 -25 -5 -15 14 6 11 22 21
35 22 14 0 30 1 37 2 6 1 13 -5 16 -13 3 -10 -2 -13 -20 -9 -17 3 -24 0 -24
-12 0 -27 53 -24 60 3 3 11 1 26 -5 33 -7 8 -3 13 12 17 13 3 18 10 14 17 -5
9 -10 9 -18 1 -16 -16 -47 -14 -47 3 0 8 8 13 18 11 9 -1 11 0 4 2 -8 3 -11
11 -8 20 4 10 -2 8 -20 -6 -15 -12 -36 -21 -47 -21 -16 0 -18 5 -13 28 4 15 8
34 9 42 3 21 74 45 91 31 7 -6 16 -8 19 -5 11 11 -3 24 -26 25 -16 1 -14 3 8
8 17 3 30 12 30 18 0 7 11 20 25 30 l25 17 -17 -26 c-23 -34 -22 -37 2 -31 11
3 20 12 20 20 0 8 6 26 14 41 24 47 29 72 14 71 -7 0 -62 -12 -123 -26z m-147
-234 c-23 -13 -23 -30 -1 -22 12 5 14 3 8 -8 -8 -12 -6 -12 8 -1 24 20 37 7
26 -26 -19 -56 -22 -62 -36 -62 -8 0 -12 -4 -8 -9 7 -13 -14 -26 -43 -26 -27
-1 -24 17 5 25 15 4 18 10 14 24 -6 17 -9 16 -31 -7 -13 -14 -29 -23 -35 -21
-6 3 -20 -5 -32 -16 -12 -11 -24 -20 -27 -20 -11 0 81 144 94 148 11 4 10 -1
-3 -24 -16 -26 -15 -25 12 6 17 19 31 38 31 42 0 4 8 8 18 8 16 -1 16 -1 0
-11z"/>
<path d="M1703 2095 c-49 -35 -16 -105 61 -126 62 -17 116 22 102 74 -13 53
-117 86 -163 52z"/>
<path d="M422 1843 c-19 -37 -35 -125 -24 -132 7 -4 8 -12 2 -21 -9 -13 -10
-13 -10 0 0 11 -4 10 -12 -4 -9 -15 -7 -22 6 -32 14 -10 15 -14 4 -21 -11 -7
-40 -70 -62 -137 -5 -16 -15 -18 -71 -14 -75 5 -73 7 -55 -98 15 -85 27 -108
71 -143 34 -28 39 -37 39 -74 0 -23 5 -71 11 -107 5 -36 12 -81 16 -102 l5
-36 -58 -5 c-72 -5 -177 -28 -185 -41 -4 -4 -12 -5 -18 -2 -6 4 -14 -1 -18
-11 -4 -10 -11 -21 -17 -25 -6 -4 3 -12 21 -19 18 -6 33 -15 33 -19 0 -5 11
-15 24 -22 51 -28 384 -194 411 -205 17 -7 80 -33 140 -58 197 -83 424 -158
510 -169 22 -2 96 -15 165 -28 121 -22 143 -23 630 -22 827 2 1388 36 1940
120 173 26 196 31 187 40 -18 18 -190 54 -261 54 -89 0 -95 6 -16 17 29 5 54
13 54 18 1 6 -28 17 -63 25 l-64 15 56 18 c66 21 149 91 186 157 l24 43 -24
-6 c-272 -74 -740 -88 -1124 -33 -55 8 -160 20 -234 27 -73 7 -129 15 -122 17
6 2 9 8 5 13 -7 12 -44 12 -44 -1 0 -5 -10 -10 -22 -9 l-23 0 22 9 c13 5 23
16 23 25 0 18 -5 19 -32 4 -27 -14 -108 -3 -108 16 0 9 -17 16 -47 20 -27 3
-75 10 -108 15 -33 5 -115 12 -182 16 -68 3 -120 10 -117 15 7 12 396 11 569
-1 77 -6 235 -23 350 -38 191 -25 238 -27 525 -27 333 1 451 11 610 55 41 11
102 27 134 36 57 16 86 33 86 52 0 5 -109 12 -245 15 -134 4 -255 11 -269 17
-14 5 -103 14 -198 20 -181 12 -264 22 -513 64 -245 41 -522 69 -852 86 -99 5
-214 15 -255 21 -40 6 -125 14 -188 18 -99 6 -111 9 -88 19 18 8 103 10 280 6
371 -7 745 -36 1133 -89 158 -22 461 -37 595 -30 211 12 407 56 393 91 -3 8 1
14 11 14 9 0 16 -4 16 -10 0 -5 19 -10 43 -9 32 0 37 2 22 9 -12 4 -27 15 -34
24 -10 12 -16 14 -21 5 -16 -25 -48 14 -118 145 -40 75 -71 140 -68 144 3 5
-2 18 -10 28 -9 10 -12 13 -8 5 5 -9 3 -12 -5 -7 -6 4 -9 12 -5 17 3 5 -4 25
-16 44 -21 34 -24 35 -86 36 -35 1 -68 3 -74 4 -5 1 -76 4 -157 5 -82 2 -138
5 -125 7 14 3 22 11 20 21 -2 12 4 17 19 17 12 0 25 3 28 7 22 22 -811 31
-880 9 -16 -5 -22 -10 -12 -10 32 -2 17 -21 -17 -21 -21 0 -36 -6 -40 -15 -3
-8 -11 -15 -17 -15 -7 0 -18 -8 -25 -17 -11 -14 -10 -9 1 19 20 49 19 51 -10
46 -13 -3 -22 -2 -20 2 3 4 -10 10 -28 13 -31 4 -51 -8 -41 -25 3 -4 15 -8 27
-8 20 0 22 -6 23 -53 1 -28 -1 -44 -3 -34 -7 29 -19 19 -38 -30 -10 -27 -35
-85 -56 -130 l-38 -83 -234 0 c-182 0 -237 3 -245 13 -7 8 -13 72 -14 158 l-3
144 -35 -3 c-19 -2 -31 0 -27 4 4 5 -9 13 -30 19 l-38 11 -8 -51 c-4 -27 -9
-66 -11 -85 -4 -56 -5 -58 -23 -63 -17 -4 -17 -5 0 -6 9 0 17 -6 17 -12 0 -5
-5 -7 -10 -4 -7 4 -9 -2 -5 -17 5 -19 2 -24 -14 -25 -12 -1 -21 3 -21 8 0 6 4
8 9 4 5 -3 12 -1 16 5 3 5 -1 10 -9 10 -9 0 -16 5 -16 10 0 6 4 10 9 10 5 0 8
11 6 25 -2 19 2 25 16 25 17 0 18 5 13 43 -9 56 -12 57 -20 8 -5 -31 -11 -41
-21 -37 -8 4 -19 6 -23 6 -5 0 -15 10 -21 23 -9 17 -9 19 1 11 28 -27 56 4 61
71 1 18 -17 15 -39 -5 -12 -12 -22 -16 -22 -10 0 14 37 50 53 51 19 1 -33 19
-67 23 -38 4 -56 -9 -56 -40 0 -24 -23 -33 -35 -14 -4 6 -10 8 -14 5 -5 -2 -6
11 -4 30 l3 35 -72 1 c-40 0 -80 2 -88 3 -8 2 -73 6 -143 10 -120 6 -128 6
-125 -11 2 -12 16 -20 38 -24 l35 -6 -32 -2 c-30 -1 -33 -4 -34 -33 l-1 -33
-10 33 c-7 20 -17 32 -29 32 -27 0 -85 -75 -119 -154 l-30 -71 6 50 c16 109 4
175 -30 175 -20 0 -56 -44 -77 -96 -11 -27 -17 -37 -14 -21 5 24 2 27 -19 27
-19 0 -24 4 -19 16 5 13 2 15 -18 9 -13 -4 -28 -13 -32 -19 -4 -6 -6 6 -4 27
5 36 17 65 17 39 0 -7 7 -12 16 -12 8 0 12 -5 8 -11 -4 -8 3 -9 25 -4 26 5 31
4 31 -12 0 -11 9 -3 23 22 13 22 20 41 16 43 -4 2 -5 12 -2 22 5 21 -1 21 -80
5 -16 -3 -18 1 -13 30 7 36 -6 54 -28 36 -7 -6 -15 -8 -19 -5 -3 3 -14 1 -24
-6 -16 -10 -16 -10 5 -5 14 4 22 2 22 -5 0 -7 7 -10 14 -7 10 4 13 1 9 -9 -6
-16 -33 -19 -33 -4 0 5 -11 9 -25 8 -30 -3 -34 -18 -5 -18 22 0 27 -19 9 -37
-12 -12 -49 -6 -49 8 0 5 10 9 23 9 l22 1 -21 12 c-16 9 -19 17 -13 32 12 31
11 35 -11 35 -10 0 -23 -8 -28 -17z m308 -148 c16 -19 7 -116 -16 -177 -18
-46 -18 -57 -8 -160 8 -81 -6 -89 -35 -22 -24 52 -38 50 -47 -7 -4 -23 -10
-36 -14 -29 -4 7 -3 28 2 49 5 20 10 81 12 136 1 69 8 113 20 140 36 83 59
102 86 70z m170 -4 c0 -12 -11 -25 -27 -33 -33 -16 -66 -81 -86 -170 -15 -69
-10 -89 11 -43 6 14 19 25 27 25 22 0 34 -39 37 -117 3 -57 0 -68 -14 -71 -14
-3 -18 3 -18 30 0 47 -10 78 -26 78 -18 0 -27 -18 -34 -65 -7 -55 -24 -50 -28
9 -4 64 13 172 38 239 33 89 120 174 120 118z m355 -849 c4 -4 4 3 1 16 -4 12
-3 22 2 22 5 0 14 -10 20 -22 8 -18 11 -19 11 -5 1 21 0 21 39 1 18 -8 32 -21
32 -27 0 -8 3 -8 8 -2 14 19 31 14 51 -14 11 -16 32 -36 45 -45 24 -15 25 -15
19 1 -5 14 -3 15 6 7 19 -18 -11 -68 -51 -87 -45 -21 -84 -11 -128 33 -38 38
-81 132 -79 173 1 15 3 12 9 -11 4 -18 11 -36 15 -40z"/>
</g>
</svg>
