<?xml version="1.0" standalone="no"?>
<!DOCTYPE svg PUBLIC "-//W3C//DTD SVG 20010904//EN"
 "http://www.w3.org/TR/2001/REC-SVG-20010904/DTD/svg10.dtd">
<svg version="1.0" xmlns="http://www.w3.org/2000/svg"
 width="491.000000pt" height="246.000000pt" viewBox="0 0 491.000000 246.000000"
 preserveAspectRatio="xMidYMid meet">
<metadata>
Created by potrace 1.15, written by Peter Selinger 2001-2017
</metadata>
<g transform="translate(0.000000,246.000000) scale(0.100000,-0.100000)"
fill="#000000" stroke="none">
<path d="M2480 2289 c-69 -10 -177 -25 -240 -34 -63 -9 -131 -18 -150 -20 -83
-10 -110 -15 -205 -34 -216 -45 -241 -54 -261 -93 -20 -38 -27 -31 -13 11 7
20 8 36 2 42 -11 11 -38 -128 -30 -157 2 -10 5 0 6 24 0 23 6 42 12 42 7 0 9
-15 6 -42 -12 -97 -30 -485 -24 -510 4 -16 14 -28 23 -28 11 0 14 -5 10 -16
-5 -13 -4 -14 7 -6 8 7 17 9 20 5 4 -3 7 -1 7 6 0 8 6 11 16 7 14 -5 15 -4 5
8 -7 8 -20 12 -29 9 -10 -4 -13 -2 -9 3 4 4 40 7 79 5 48 -2 68 1 63 8 -4 7 8
17 27 26 18 8 29 15 23 15 -24 3 -47 9 -51 13 -5 5 114 43 164 53 17 4 32 10
32 15 0 4 -15 3 -32 -2 -41 -12 -223 -50 -263 -55 -38 -5 -58 7 -49 30 4 11
13 15 28 11 21 -6 21 -6 2 9 -11 9 -23 16 -26 16 -6 0 7 111 13 116 3 3 238
71 269 78 14 3 33 9 41 12 11 4 21 -6 32 -29 36 -77 167 -83 193 -8 8 22 7 36
-4 56 -8 16 -12 31 -8 34 3 3 43 6 87 5 l82 0 -61 9 c-57 9 -76 6 -260 -41
-110 -28 -238 -61 -286 -75 -48 -13 -92 -21 -98 -17 -6 4 -8 33 -5 76 2 38 6
104 7 146 2 42 5 76 8 75 3 0 43 11 90 26 196 61 461 115 815 167 137 20 172
28 125 27 -36 0 -121 -9 -190 -18z"/>
<path d="M1193 2108 c-16 -20 -149 -314 -187 -413 -19 -49 -35 -82 -35 -72 -1
19 -26 23 -37 6 -4 -8 -12 -2 -21 14 -12 24 -16 25 -41 15 -15 -7 -28 -13 -30
-14 -3 -2 19 -97 24 -103 2 -2 39 -7 81 -11 43 -4 160 -20 261 -34 189 -28
239 -30 234 -8 -3 17 15 15 26 -4 11 -21 81 -27 99 -8 13 12 12 15 0 20 -8 3
-23 4 -33 2 -17 -3 -19 4 -20 52 -1 30 2 78 6 105 5 31 4 52 -2 56 -7 4 -6 9
1 13 21 13 13 54 -11 59 l-23 4 23 2 c15 1 22 7 22 20 0 11 3 26 6 35 5 13 -4
16 -52 18 l-59 1 60 6 c43 5 53 8 35 12 -24 6 -24 6 -2 8 15 1 22 7 22 22 0
18 -2 20 -16 8 -13 -10 -17 -10 -26 2 -7 11 -11 11 -15 2 -5 -14 -43 -18 -43
-5 0 4 9 20 20 37 16 24 25 29 50 27 16 -2 30 1 30 6 0 6 3 17 6 26 5 13 -2
16 -41 16 -39 0 -46 3 -41 16 3 9 6 20 6 26 0 6 6 6 15 -2 8 -6 19 -9 24 -6 5
4 13 1 17 -5 9 -15 34 17 34 43 0 17 -13 18 -179 18 -131 0 -181 -3 -188 -12z"/>
<path d="M2437 1937 c-93 -9 -97 -11 -91 -31 26 -87 119 -121 185 -67 18 15
23 28 22 59 -2 40 -1 41 35 45 33 3 32 4 -8 4 -25 0 -89 -4 -143 -10z"/>
<path d="M2945 1814 c-317 -39 -838 -130 -940 -164 -30 -10 -30 -10 5 -5 74
12 601 105 625 111 15 4 25 2 25 -5 0 -6 7 -11 15 -11 8 0 15 6 15 13 0 12 99
29 240 42 73 7 215 27 219 31 8 8 -93 2 -204 -12z"/>
<path d="M2650 1702 c0 -4 -22 -17 -49 -30 -31 -14 -51 -30 -54 -44 -4 -12 -5
-23 -4 -25 2 -2 204 -33 216 -33 3 0 7 16 8 35 l2 35 -62 1 c-34 1 -75 5 -92
9 l-30 7 30 7 c17 4 38 11 47 17 10 5 35 9 55 10 34 1 35 2 13 9 -33 11 -80
12 -80 2z"/>
<path d="M412 1506 c-14 -115 -15 -126 -3 -126 6 0 12 15 14 33 l4 32 1 -36
c2 -31 6 -37 29 -42 16 -3 31 0 35 6 6 9 8 9 8 0 0 -25 19 -13 23 15 4 25 4
25 6 -5 1 -38 18 -44 25 -10 10 46 15 210 6 201 -5 -5 -10 -22 -13 -39 -4 -27
-4 -26 -6 8 -2 59 -19 43 -27 -25 -5 -35 -10 -54 -12 -43 -2 11 -9 26 -14 32
-7 9 -6 15 6 19 21 8 22 64 1 64 -8 0 -15 -8 -16 -17 0 -15 -3 -14 -16 5 -29
41 -39 27 -51 -72z"/>
<path d="M2820 1581 c0 -29 29 -41 106 -41 51 0 70 -4 79 -17 15 -20 145 -30
223 -15 49 9 52 8 47 -9 -5 -16 -1 -19 23 -19 37 0 46 10 24 26 -15 11 -14 13
13 19 65 14 136 38 152 52 20 16 33 17 -122 -12 -106 -21 -318 -22 -348 -2
-12 7 -53 17 -92 20 -38 3 -78 9 -87 12 -14 5 -18 2 -18 -14z"/>
<path d="M2050 1535 c-6 -8 -9 -19 -5 -24 4 -7 -8 -9 -35 -5 -56 8 -51 -11 7
-26 26 -6 53 -16 59 -21 7 -5 35 -16 63 -23 49 -12 51 -12 51 7 0 15 3 17 14
8 11 -9 17 -8 29 4 20 19 27 19 27 0 0 -9 9 -15 24 -15 13 0 40 -7 60 -15 20
-9 41 -13 46 -10 5 3 24 -4 43 -15 26 -15 41 -18 58 -12 13 5 33 8 45 7 15 -1
24 7 32 27 10 26 8 30 -20 44 -52 27 -129 27 -181 0 -26 -12 -44 -19 -40 -13
3 5 -3 6 -16 2 -11 -3 -21 -3 -21 2 0 5 -13 13 -28 19 -24 9 -31 8 -41 -5 -10
-13 -11 -13 -8 -1 2 8 1 24 -4 35 -7 19 -8 19 -8 -1 -1 -12 -7 -22 -13 -21
-41 1 -58 -5 -58 -19 0 -11 -5 -14 -16 -10 -9 3 -20 6 -25 6 -6 0 -7 5 -4 10
4 6 11 8 16 5 5 -4 9 -1 9 4 0 6 -8 11 -18 11 -19 0 -42 18 -42 32 0 4 5 8 10
8 6 0 10 -8 10 -17 0 -15 2 -15 9 -4 5 8 16 11 26 7 10 -3 15 -2 13 5 -2 6 -8
11 -13 11 -6 0 -17 4 -26 9 -11 6 -21 4 -29 -6z"/>
<path d="M3862 1524 c-73 -12 -170 -25 -215 -28 -122 -8 -285 -25 -347 -36
-86 -16 -277 -70 -297 -86 -16 -12 -14 -13 22 -14 22 0 75 7 118 15 43 8 88
15 99 15 19 0 18 -2 -6 -21 -15 -12 -51 -24 -87 -29 -34 -5 -62 -10 -64 -12
-1 -2 -14 -21 -28 -43 -33 -50 -53 -75 -60 -75 -3 0 -9 25 -12 55 -4 30 -11
57 -14 60 -13 7 -154 35 -159 31 -4 -5 65 -26 85 -26 6 0 22 -4 36 -9 l23 -9
-13 -92 c-16 -108 -44 -196 -72 -222 -23 -21 -116 -44 -211 -53 -36 -3 -96
-10 -133 -16 -37 -6 -74 -9 -81 -6 -7 3 -15 25 -18 50 -3 24 -13 60 -23 78
-10 19 -21 56 -26 83 -6 34 -17 58 -39 79 -16 16 -27 34 -23 41 3 6 0 6 -8 -1
-21 -20 -73 -15 -111 10 -36 25 -130 43 -151 30 -17 -11 -87 -12 -87 -1 0 5
-20 6 -45 3 -40 -4 -45 -3 -46 15 -1 11 -2 26 -3 33 -1 6 -20 14 -45 18 -37 4
-47 2 -68 -19 -25 -25 -44 -25 -51 -1 -3 11 -2 11 7 -1 8 -11 11 -12 11 -2 0
7 4 11 8 8 10 -6 39 11 31 18 -2 3 -53 8 -113 12 -70 5 -103 10 -94 16 9 6 3
8 -15 3 -17 -3 -26 -2 -23 4 8 13 -16 20 -95 27 l-69 7 6 -44 c8 -64 -15 -123
-49 -127 -29 -4 -36 -17 -13 -25 7 -3 23 -24 35 -46 22 -44 44 -124 31 -116
-4 3 -11 20 -14 40 -8 43 -51 95 -78 95 -17 0 -19 4 -13 28 9 37 33 62 60 62
30 0 39 36 22 87 -15 48 -43 54 -86 17 -45 -37 -82 -116 -89 -186 -8 -98 -17
-73 -17 50 0 99 -3 122 -20 150 -16 27 -25 32 -56 32 -34 0 -39 -4 -58 -43
-12 -24 -21 -51 -21 -61 0 -9 -4 -15 -9 -12 -5 3 -9 36 -10 73 -1 73 -9 88
-39 79 -15 -5 -21 -19 -26 -57 l-7 -51 -39 6 c-32 5 -40 3 -45 -13 -3 -11 -12
-24 -20 -31 -11 -9 -18 -2 -39 37 -30 60 -40 69 -88 76 -36 5 -39 3 -70 -41
-25 -36 -33 -60 -37 -112 -5 -58 -8 -65 -26 -62 -13 2 -16 0 -8 -6 7 -4 14
-35 15 -67 2 -33 7 -63 13 -67 23 -16 -9 -20 -62 -7 -32 7 -61 13 -66 11 -4
-1 -7 5 -7 14 0 12 6 15 26 10 56 -14 86 -15 39 -1 -27 8 -51 19 -53 25 -2 5
-8 8 -13 4 -5 -3 -10 12 -11 33 -1 21 -2 47 -2 58 -2 28 -76 41 -76 13 0 -10
5 -18 11 -18 5 0 8 -4 5 -8 -7 -11 29 -127 47 -155 20 -30 168 -106 174 -89 7
19 23 3 23 -24 0 -15 -6 -24 -15 -24 -9 0 -15 -10 -15 -26 0 -14 4 -23 10 -19
6 4 10 -7 10 -24 0 -17 -4 -31 -10 -31 -5 0 -10 -7 -10 -16 0 -8 5 -12 10 -9
14 9 12 -39 -2 -53 -9 -9 -8 -12 7 -13 11 0 14 -3 8 -6 -15 -5 -18 -33 -4 -33
12 0 21 -39 10 -46 -5 -3 -9 -13 -9 -22 0 -15 2 -15 11 -2 7 11 8 1 4 -36 -7
-52 16 -134 37 -134 6 0 8 -6 5 -14 -3 -8 1 -17 9 -20 23 -9 170 -24 299 -31
66 -3 156 -13 200 -20 44 -8 136 -19 205 -25 69 -6 142 -15 163 -19 24 -6 37
-5 37 2 0 5 9 2 20 -8 11 -10 20 -13 20 -7 0 6 21 -11 47 -39 26 -27 69 -66
96 -87 49 -35 50 -36 24 -43 -89 -24 -53 -35 164 -54 186 -16 953 -23 1104
-11 39 3 130 8 204 11 74 3 168 10 209 15 41 6 78 8 82 5 5 -3 11 -1 14 4 3 4
65 14 138 20 73 7 219 21 323 32 105 10 216 22 247 25 32 3 56 9 53 14 -3 4
15 13 40 19 49 12 61 31 20 31 -36 0 -31 13 16 45 147 97 270 293 257 412 l-3
31 -120 -74 c-245 -153 -365 -193 -715 -239 -139 -18 -143 -18 -134 -2 6 9 5
9 -7 0 -9 -8 -59 -15 -117 -18 -86 -4 -102 -3 -102 10 0 18 -13 18 -62 1 -27
-10 -51 -11 -85 -4 -27 5 -63 11 -82 14 -19 2 -40 12 -47 22 -7 9 -16 14 -20
10 -4 -4 -12 -4 -18 1 -6 4 -35 16 -63 25 -74 24 -76 37 -6 31 l58 -5 -45 15
c-25 9 -76 20 -115 26 -81 13 -247 7 -253 -10 -6 -19 -71 -24 -169 -11 -87 11
-97 10 -105 -5 -7 -12 -17 -15 -41 -10 -48 10 -52 21 -7 17 56 -6 50 14 -6 23
-41 6 -45 9 -40 28 3 12 6 25 6 30 0 4 5 7 10 7 6 0 10 -11 10 -25 0 -20 5
-25 25 -25 14 0 25 5 25 10 0 6 -9 10 -20 10 -11 0 -20 5 -20 10 0 18 59 11
69 -8 14 -26 118 -42 196 -32 130 18 278 11 413 -17 117 -26 144 -28 342 -27
271 0 503 33 694 98 61 21 111 52 94 59 -7 3 -2 6 12 7 l25 2 -25 8 c-14 4
-52 8 -86 9 -33 1 -64 5 -70 9 -21 20 -161 33 -383 38 -286 6 -463 19 -556 40
-38 9 -90 20 -115 25 -25 6 -160 9 -300 7 -140 -2 -281 1 -312 5 -56 8 -58 8
-59 -15 -1 -22 -1 -21 -11 5 -7 21 -16 27 -39 27 -18 0 -29 5 -29 14 0 19 31
28 75 22 19 -4 51 -8 70 -12 23 -3 33 -9 29 -16 -4 -7 -3 -8 4 -4 6 4 20 3 29
-3 10 -5 45 -12 78 -15 l60 -6 -53 18 c-30 9 -54 22 -55 27 -3 15 105 33 243
41 114 5 134 4 225 -20 202 -51 291 -61 560 -61 255 0 346 8 515 46 192 43
373 139 482 254 55 59 47 94 -47 195 -28 30 -73 84 -100 120 -27 36 -50 67
-51 69 -2 2 -52 -8 -111 -22 -99 -24 -263 -56 -372 -73 -31 -4 -42 -3 -37 5 4
6 3 11 -2 11 -5 0 -9 10 -8 22 1 25 12 28 171 51 49 7 85 16 80 19 -6 3 -70
-5 -143 -18z m-2743 -155 c15 -44 13 -149 -3 -178 -12 -21 -10 -30 12 -73 21
-41 26 -67 30 -153 4 -94 3 -105 -13 -111 -71 -28 -163 154 -125 246 10 25 10
36 -4 70 -32 80 -13 213 34 237 31 15 55 2 69 -38z m199 -7 c3 -16 -2 -22 -16
-22 -42 0 -83 -89 -81 -179 0 -45 0 -45 16 -23 55 78 115 -44 117 -237 1 -83
0 -86 -22 -89 -33 -5 -67 21 -98 74 -45 76 -54 118 -55 236 0 104 2 115 30
172 41 83 101 120 109 68z m2807 -291 c-13 -11 -123 -46 -210 -66 -205 -47
-580 -80 -611 -54 -15 12 -13 14 12 21 16 4 92 12 169 18 195 14 381 38 510
65 127 26 143 29 130 16z m80 -67 c-44 -36 -160 -89 -237 -108 -160 -39 -541
-60 -678 -37 -43 7 -41 8 40 15 317 28 629 80 783 130 39 13 83 24 97 25 l25
0 -30 -25z m-2699 -407 c1 -1 4 -20 7 -43 l7 -41 -162 -7 c-89 -4 -165 -3
-169 1 -13 15 10 52 36 59 113 28 271 46 281 31z m1725 -189 c60 -8 135 -9
248 -2 l163 9 57 -57 58 -58 -71 0 c-136 0 -521 21 -556 30 -19 5 -65 11 -102
14 -75 6 -196 34 -215 49 -9 6 -13 6 -13 -2 0 -15 -43 -14 -58 1 -20 20 -14
27 26 31 60 8 370 -3 463 -15z"/>
<path d="M1234 1075 c-21 -54 24 -214 64 -230 21 -8 34 14 26 45 -3 14 -10 52
-15 85 -6 33 -16 71 -22 85 -14 30 -45 38 -53 15z"/>
</g>
</svg>
