<?xml version="1.0" standalone="no"?>
<!DOCTYPE svg PUBLIC "-//W3C//DTD SVG 20010904//EN"
 "http://www.w3.org/TR/2001/REC-SVG-20010904/DTD/svg10.dtd">
<svg version="1.0" xmlns="http://www.w3.org/2000/svg"
 width="1700.000000pt" height="1100.000000pt" viewBox="0 0 1700.000000 1100.000000"
 preserveAspectRatio="xMidYMid meet">
<metadata>
Created by potrace 1.15, written by Peter Selinger 2001-2017
</metadata>
<g transform="translate(0.000000,1100.000000) scale(0.100000,-0.100000)"
fill="#000000" stroke="none">
<path d="M6790 8060 c-327 -51 -660 -150 -918 -271 -73 -34 -131 -64 -129 -66
2 -2 28 7 58 21 184 81 638 199 944 245 123 19 361 41 457 42 51 1 83 4 70 6
-13 3 -19 9 -16 15 4 6 2 8 -3 5 -6 -4 -27 0 -47 8 -49 21 -268 18 -416 -5z"/>
<path d="M7465 7854 c-16 -2 -57 -10 -90 -16 -33 -7 -63 -11 -67 -10 -5 1 -8
-2 -8 -7 0 -6 -9 -8 -19 -6 -13 2 -21 -3 -24 -17 -3 -11 -10 -17 -15 -14 -11
7 -72 -13 -69 -22 1 -4 -2 -8 -6 -9 -16 -4 -45 -48 -40 -60 4 -10 9 -11 19 -2
18 15 18 7 -1 -38 -39 -93 -37 -417 5 -814 29 -273 38 -308 92 -328 43 -16
144 -24 195 -15 45 8 42 9 -50 14 -146 8 -148 11 -181 340 -8 80 -18 193 -22
252 l-7 106 52 26 c90 46 263 114 351 137 74 21 109 23 275 24 254 0 337 -19
705 -158 129 -49 138 -54 202 -118 75 -75 110 -91 243 -109 137 -18 134 -17
81 -51 -49 -31 -85 -90 -86 -140 0 -81 84 -201 189 -268 51 -33 61 -37 61 -21
0 6 -7 10 -16 10 -20 0 -84 51 -84 68 0 7 -4 11 -9 7 -10 -5 -51 40 -51 56 0
5 9 9 20 9 11 0 20 5 20 10 0 22 60 10 88 -17 31 -31 102 -69 147 -79 17 -4
44 -23 62 -42 31 -34 35 -36 120 -42 48 -4 95 -3 105 2 9 4 26 28 38 54 48 99
-6 217 -148 325 -36 27 -63 49 -61 49 2 0 54 -7 114 -15 240 -32 510 -65 705
-85 543 -55 569 -58 610 -80 18 -10 216 -246 278 -332 19 -27 32 -52 29 -55
-4 -3 -82 -1 -174 5 -92 6 -206 7 -253 3 l-85 -7 55 -6 c30 -4 132 -12 225
-18 94 -7 219 -18 280 -25 107 -13 153 -13 81 0 -20 4 -33 11 -30 16 3 5 -3
10 -13 11 -10 0 1 4 24 7 l42 6 -156 195 c-128 160 -380 459 -460 545 -41 44
-92 114 -137 187 -26 43 -65 93 -87 112 -94 80 -391 157 -969 251 -317 52
-1061 142 -1485 180 -163 14 -556 27 -610 19z m705 -123 c58 -6 155 -16 215
-21 199 -19 568 -60 675 -75 58 -7 159 -21 225 -30 447 -60 900 -150 1119
-222 66 -21 88 -35 143 -87 57 -54 433 -497 428 -504 -1 -1 -20 4 -42 12 -45
16 -114 25 -488 62 -329 32 -649 73 -1025 129 -162 24 -344 52 -405 60 -142
21 -184 40 -230 103 -19 28 -47 57 -60 66 -41 27 -400 155 -507 181 -210 51
-401 56 -593 16 -113 -23 -306 -84 -390 -122 -36 -16 -66 -29 -69 -29 -10 0 3
259 15 300 8 28 30 61 56 87 46 46 98 66 218 82 86 12 571 6 715 -8z"/>
<path d="M6295 7754 c-16 -2 -70 -9 -120 -15 -118 -14 -354 -58 -377 -70 -10
-5 -25 -26 -34 -47 -28 -66 -294 -875 -294 -893 0 -25 15 -32 175 -73 187 -48
507 -101 755 -126 263 -26 311 -26 335 0 10 11 20 18 23 15 7 -7 32 15 32 29
0 6 -8 2 -16 -9 -16 -19 -16 -19 -9 5 4 14 12 32 17 40 8 13 9 12 4 -2 -2 -9
2 -22 10 -28 11 -10 19 -9 39 4 13 9 34 15 47 13 15 -1 23 4 26 16 5 26 -6 67
-19 67 -11 0 -8 -29 6 -62 4 -11 3 -18 -3 -18 -14 0 -25 54 -17 80 4 12 11 18
18 14 8 -5 8 -2 0 7 -7 7 -13 23 -13 36 0 13 -5 23 -11 23 -5 0 -7 5 -3 11 4
7 16 -3 31 -27 18 -28 23 -32 18 -14 -10 36 -38 77 -43 62 -2 -6 -11 -12 -19
-12 -10 0 -13 6 -8 18 22 57 36 436 24 657 -10 187 -34 236 -138 276 -48 19
-80 22 -231 25 -96 1 -188 0 -205 -2z"/>
<path d="M5480 7569 c-215 -88 -378 -169 -376 -187 0 -8 -5 -17 -13 -20 -8 -3
-11 0 -7 7 4 6 4 11 1 11 -24 0 -201 -116 -240 -158 -40 -42 -80 -123 -64
-132 9 -6 6 -12 -10 -21 -11 -8 -21 -17 -21 -22 0 -9 268 -140 455 -223 87
-38 123 -50 132 -42 7 5 29 62 49 127 36 115 139 402 215 598 40 103 45 124
32 122 -5 0 -73 -27 -153 -60z"/>
<path d="M2516 6960 c-4 -124 -6 -286 -4 -360 3 -130 4 -135 25 -138 18 -3 23
3 28 35 25 145 61 244 111 310 14 18 22 33 18 33 -3 0 -38 -23 -76 -51 -38
-28 -71 -49 -73 -47 -1 2 -5 91 -8 198 -2 107 -1 184 3 170 7 -22 8 -20 9 15
0 27 -2 35 -8 26 -7 -11 -10 -9 -13 10 -2 13 -7 -77 -12 -201z"/>
<path d="M7860 7074 c-98 -15 -150 -46 -181 -107 -58 -113 48 -289 225 -373
72 -34 96 -37 96 -11 0 9 -3 8 -8 -1 -11 -16 -133 45 -140 70 -2 10 -11 18
-18 18 -8 0 -14 5 -14 10 0 6 -10 10 -21 10 -17 0 -19 3 -10 14 10 12 8 15
-10 18 -28 4 -36 25 -12 31 14 4 13 5 -4 6 -31 1 -29 13 8 34 38 21 59 22 59
2 0 -8 7 -15 16 -15 8 0 12 -4 9 -10 -3 -5 -1 -10 4 -10 6 0 31 -16 57 -35 25
-19 52 -35 59 -35 7 0 15 -4 17 -10 2 -5 17 -11 33 -12 42 -4 109 -41 114 -63
3 -17 1 -18 -13 -6 -14 12 -16 11 -16 -8 0 -20 5 -21 104 -21 l105 0 27 36
c105 137 -51 371 -296 443 -69 21 -148 31 -190 25z"/>
<path d="M4487 6903 c-17 -17 -5 -33 26 -34 17 0 27 -3 20 -5 -22 -10 -1 -34
29 -34 26 0 29 -2 18 -15 -9 -11 -9 -15 -1 -15 7 0 9 -4 6 -10 -4 -6 7 -10 24
-10 19 0 30 -5 29 -12 -2 -8 9 -12 32 -11 33 2 32 1 -13 -13 -52 -17 -61 -29
-10 -15 30 9 53 2 56 -15 1 -5 16 -8 32 -7 25 2 22 -1 -14 -12 -62 -20 -64
-28 -6 -19 47 7 49 6 35 -11 -14 -16 -12 -17 29 -10 31 5 42 4 37 -4 -4 -6
-17 -11 -29 -11 -12 0 -31 -7 -41 -15 -17 -13 -17 -15 -3 -15 9 0 28 5 42 12
30 13 43 5 25 -17 -10 -12 -10 -15 4 -15 10 0 26 5 37 11 11 6 25 8 32 6 7 -3
-10 -15 -38 -27 -28 -13 -44 -25 -37 -27 8 -3 24 0 37 7 34 18 52 9 29 -15
-19 -18 -18 -18 11 -12 17 3 39 9 50 13 20 7 20 7 1 -15 -11 -12 -25 -20 -32
-17 -7 3 -18 -2 -24 -10 -7 -8 -23 -14 -35 -14 -12 0 -28 -6 -34 -14 -14 -17
-49 -27 -56 -16 -7 11 34 40 56 40 9 0 22 7 29 15 17 21 -8 20 -38 -1 -13 -9
-29 -13 -37 -10 -8 3 -15 1 -15 -4 0 -4 -15 -14 -34 -20 -19 -6 -40 -18 -46
-26 -7 -7 -23 -14 -35 -14 -13 0 -30 -11 -39 -25 -9 -14 -24 -25 -32 -25 -9 0
-25 -11 -36 -25 -11 -14 -26 -25 -34 -25 -8 0 -20 -11 -26 -25 -6 -14 -19 -25
-28 -25 -10 0 -23 -13 -30 -29 -6 -16 -21 -31 -32 -34 -11 -3 -22 -15 -25 -26
-3 -12 -12 -21 -19 -21 -8 0 -22 -16 -31 -35 -9 -19 -22 -35 -29 -35 -6 0 -17
-13 -24 -29 -12 -31 -48 -55 -36 -25 3 8 6 22 6 29 0 8 9 17 20 20 11 3 23 17
26 31 3 13 13 24 20 24 8 0 22 16 31 35 9 20 24 35 34 35 10 0 19 11 23 25 4
14 17 30 30 35 14 5 27 18 31 29 3 11 15 23 26 26 11 4 27 17 35 31 9 13 24
24 34 24 10 0 20 7 23 15 4 8 21 21 39 29 18 9 41 20 51 26 44 26 54 31 77 41
71 32 74 34 56 37 -9 2 -28 -3 -41 -12 -13 -9 -33 -16 -43 -16 -11 0 -25 -7
-32 -15 -7 -8 -23 -15 -36 -15 -13 0 -24 -5 -24 -11 0 -5 -15 -16 -33 -24 -19
-8 -39 -21 -47 -29 -7 -9 -19 -16 -26 -16 -7 0 -21 -11 -30 -25 -9 -14 -24
-25 -34 -25 -10 0 -23 -13 -30 -30 -7 -17 -20 -30 -30 -30 -10 0 -23 -13 -30
-30 -7 -17 -20 -30 -30 -30 -11 0 -20 -10 -24 -24 -3 -14 -15 -27 -25 -31 -10
-3 -24 -19 -31 -35 -7 -17 -18 -30 -26 -30 -7 0 -18 -16 -25 -35 -7 -19 -19
-35 -27 -35 -20 0 -5 41 24 63 13 10 24 25 24 32 0 8 8 19 19 24 10 6 24 24
31 41 7 16 19 30 26 30 7 0 20 14 29 30 9 17 22 30 30 30 8 0 21 14 30 30 9
17 22 30 30 30 8 0 22 11 31 25 9 14 24 25 33 25 10 0 24 11 31 25 7 14 21 25
30 25 9 0 25 9 35 20 10 11 26 20 35 20 10 0 23 7 30 15 7 8 21 15 32 15 11 0
31 9 45 20 23 18 24 20 6 20 -10 0 -28 -7 -39 -15 -10 -8 -29 -15 -40 -15 -12
0 -27 -7 -34 -15 -7 -8 -20 -15 -30 -15 -9 0 -25 -9 -35 -20 -10 -11 -26 -20
-35 -20 -10 0 -25 -11 -34 -25 -9 -14 -25 -25 -35 -25 -9 0 -24 -11 -31 -25
-7 -14 -21 -25 -30 -25 -8 0 -24 -13 -33 -30 -10 -16 -25 -30 -33 -30 -8 0
-20 -13 -25 -29 -6 -16 -19 -31 -30 -34 -11 -3 -23 -15 -26 -26 -6 -23 -33
-37 -33 -16 0 15 26 45 40 45 4 0 13 14 19 30 5 17 17 30 26 30 9 0 21 13 26
30 7 18 18 30 28 30 10 0 24 11 31 25 7 14 19 25 26 25 7 0 27 14 44 30 17 17
36 30 43 30 7 0 21 9 30 21 10 11 24 18 32 16 7 -3 21 3 31 14 9 10 24 19 33
19 9 0 25 7 35 15 11 8 29 15 40 15 12 0 30 7 40 15 19 14 19 15 -6 15 -15 0
-30 -4 -33 -10 -3 -5 -17 -10 -29 -10 -13 0 -29 -7 -36 -15 -7 -8 -23 -15 -35
-15 -12 0 -28 -7 -35 -15 -7 -8 -21 -15 -31 -15 -11 0 -28 -9 -39 -20 -11 -11
-27 -20 -36 -20 -9 0 -25 -11 -36 -25 -17 -22 -48 -35 -48 -19 0 17 23 44 39
44 10 0 26 9 36 20 10 11 26 20 35 20 9 0 25 9 35 20 10 11 28 20 40 20 13 0
28 7 35 15 7 8 22 15 34 15 12 0 31 7 42 15 19 14 19 14 -3 15 -12 0 -25 -4
-28 -10 -3 -5 -19 -10 -34 -10 -16 0 -34 -7 -41 -15 -7 -8 -22 -15 -35 -15
-12 0 -30 -9 -40 -20 -10 -11 -28 -20 -41 -20 -13 0 -28 -9 -34 -20 -6 -11
-19 -20 -30 -20 -11 0 -27 -11 -36 -25 -9 -14 -22 -25 -30 -25 -7 0 -21 -11
-29 -24 -9 -13 -25 -26 -35 -29 -11 -3 -24 -17 -30 -31 -5 -14 -17 -26 -25
-26 -9 0 -23 -16 -31 -35 -8 -19 -21 -35 -29 -35 -18 0 -18 2 -3 35 6 14 18
25 25 25 8 0 20 14 26 30 7 18 19 30 29 30 10 0 24 14 33 30 9 17 22 30 30 30
8 0 22 11 31 25 9 14 27 28 40 31 14 4 29 15 35 25 5 11 18 19 28 19 10 0 26
9 36 20 18 19 17 20 -2 20 -11 0 -26 -7 -33 -15 -7 -8 -21 -15 -31 -15 -10 0
-24 -9 -31 -20 -7 -11 -22 -20 -33 -20 -12 0 -28 -12 -38 -30 -10 -16 -21 -29
-25 -29 -20 3 -31 -3 -37 -22 -4 -11 -18 -24 -31 -29 -13 -5 -28 -20 -33 -33
-8 -20 -41 -46 -41 -32 0 17 26 56 41 60 10 3 21 15 24 26 4 11 18 24 31 29
13 5 29 21 36 35 6 14 19 25 28 25 9 0 25 9 35 20 10 11 26 20 35 20 9 0 25 9
35 20 10 11 25 20 34 20 9 0 27 9 41 20 24 19 24 20 4 20 -12 0 -27 -7 -34
-15 -7 -8 -23 -15 -35 -15 -12 0 -28 -7 -35 -15 -7 -8 -20 -15 -29 -15 -10 0
-28 -11 -41 -25 -13 -14 -32 -25 -42 -25 -10 0 -24 -11 -30 -25 -6 -14 -19
-25 -29 -25 -10 0 -25 -13 -34 -30 -9 -16 -22 -30 -31 -30 -13 0 -13 4 1 30 9
17 22 30 30 30 8 0 22 11 31 25 9 14 22 25 30 25 7 0 21 11 30 26 9 14 23 23
29 20 7 -2 23 6 36 20 12 13 32 24 44 24 12 0 30 9 40 20 18 19 17 20 -2 20
-11 0 -26 -7 -33 -15 -7 -8 -23 -15 -36 -15 -13 0 -29 -9 -36 -20 -7 -11 -23
-20 -35 -20 -12 0 -29 -10 -37 -22 -15 -20 -46 -34 -46 -20 1 15 28 42 42 42
8 0 25 11 38 25 23 24 23 25 3 25 -11 0 -26 -6 -32 -14 -13 -16 -51 -28 -51
-17 0 13 36 41 52 41 9 0 26 9 39 20 24 19 24 19 3 20 -12 0 -27 -7 -34 -15
-7 -8 -22 -15 -33 -15 -19 0 -20 1 -2 20 10 11 25 20 34 20 22 1 71 39 50 40
-8 0 -24 -7 -35 -15 -10 -8 -28 -15 -38 -15 -18 0 -18 1 -3 18 23 25 10 35
-20 15 -18 -12 -21 -18 -11 -24 9 -6 8 -12 -6 -28 -18 -20 -46 -29 -46 -14 0
3 7 14 16 24 15 17 15 18 -5 16 -14 -1 -47 -33 -92 -89 -140 -173 -223 -229
-293 -196 -80 39 -88 195 -15 300 15 21 17 28 6 19 -23 -18 -22 2 1 22 22 20
36 22 26 5 -4 -8 -3 -10 2 -5 5 5 9 12 9 15 0 4 4 13 9 21 7 11 3 10 -14 -2
-14 -10 -34 -14 -49 -11 -18 4 -22 3 -13 -4 11 -8 9 -14 -9 -31 -26 -24 -39
-11 -17 16 11 15 11 16 -5 10 -11 -4 -31 -10 -45 -13 -15 -4 -33 -11 -39 -17
-9 -7 -13 -5 -13 8 0 9 9 19 20 22 30 8 24 23 -10 23 -20 0 -28 -4 -24 -13 2
-7 -5 -22 -17 -33 -22 -19 -22 -19 -17 4 8 30 4 28 -23 -10 -13 -17 -18 -28
-11 -24 7 4 12 1 12 -9 0 -9 -9 -19 -19 -22 -31 -8 -43 -81 -16 -103 15 -12
19 -11 81 35 10 7 20 4 35 -12 l22 -22 -32 -50 c-50 -77 -95 -113 -139 -109
-54 4 -75 49 -69 143 3 39 3 64 0 58 -2 -7 -9 -13 -14 -13 -6 0 -5 9 1 21 7
11 14 18 18 15 3 -4 13 13 22 36 9 25 12 46 7 49 -11 8 9 49 24 49 6 0 6 -8
-1 -22 -10 -21 -10 -21 9 2 10 13 17 28 15 32 -3 4 4 16 16 28 11 11 15 20 9
20 -6 0 -9 7 -5 15 12 31 -56 -30 -75 -68 -29 -56 -41 -89 -29 -82 6 3 10 -1
10 -9 0 -18 -20 -32 -20 -14 0 7 -13 -16 -28 -52 -75 -173 -167 -263 -204
-197 -12 22 -28 165 -18 170 3 1 14 29 24 62 10 33 34 82 53 109 19 26 29 45
22 40 -9 -5 -10 -2 -6 9 5 14 1 13 -23 -4 -27 -21 -54 -68 -55 -97 0 -7 -5
-16 -11 -20 -17 -11 -44 -90 -37 -108 4 -10 2 -15 -3 -11 -9 5 -28 -48 -49
-138 -7 -27 -10 -23 -38 59 l-30 90 -18 -56 c-10 -31 -21 -77 -25 -103 -6 -42
-26 -67 -41 -51 -8 7 32 202 55 271 10 30 15 52 10 49 -4 -3 -8 2 -8 11 0 11
5 15 15 11 10 -3 17 3 22 22 3 15 13 32 21 38 13 9 12 11 -2 11 -9 0 -16 -4
-16 -9 0 -5 -5 -6 -11 -2 -8 4 -9 -1 -4 -16 6 -18 4 -22 -7 -17 -17 6 -63 -77
-52 -95 4 -6 3 -8 -2 -5 -11 6 -69 -155 -79 -218 -10 -64 -15 -75 -36 -75 -23
0 -23 -7 7 140 9 41 20 85 25 98 5 13 7 28 4 33 -4 5 -2 9 2 9 10 0 38 70 35
84 -2 4 5 15 15 23 16 13 16 13 -4 3 -13 -6 -30 -24 -39 -41 -8 -17 -11 -28
-5 -25 6 4 11 2 11 -3 0 -6 -6 -11 -13 -11 -13 0 -32 -41 -77 -175 -34 -103
-53 -138 -86 -164 -43 -34 -52 -28 -43 27 16 99 7 119 -19 39 -8 -26 -17 -138
-23 -292 -16 -403 4 -508 147 -790 l87 -170 -24 -140 c-21 -122 -24 -172 -24
-395 0 -280 12 -384 66 -601 73 -290 189 -510 351 -664 43 -42 69 -71 56 -64
-30 17 -48 20 -48 8 0 -5 -9 -9 -21 -9 -24 0 -79 -30 -79 -43 0 -34 286 -94
655 -138 124 -14 414 -46 585 -64 274 -29 887 -112 1120 -152 47 -8 110 -18
140 -23 285 -44 1111 -199 1285 -241 97 -23 227 -64 265 -84 14 -7 53 -22 88
-34 34 -12 70 -26 80 -31 27 -16 168 -47 282 -64 123 -18 360 -40 660 -61 118
-9 253 -20 300 -25 193 -20 616 -54 935 -75 127 -8 340 -22 475 -32 278 -18
1418 -27 1670 -12 80 4 233 13 340 19 608 32 1032 63 1240 90 41 5 131 17 200
25 531 67 913 131 1067 180 125 40 147 64 96 105 -38 30 -23 36 110 43 99 6
119 10 175 39 64 32 120 84 105 99 -11 11 -155 29 -303 38 l-125 7 50 22 c96
43 211 105 280 150 310 206 549 513 653 842 57 179 66 247 66 460 0 197 -11
290 -50 427 -9 29 -12 58 -8 64 5 8 3 9 -6 4 -10 -6 -12 -3 -8 13 4 12 3 20
-2 17 -4 -2 -26 35 -49 82 -65 134 -159 260 -284 382 -115 112 -195 184 -185
166 110 -194 197 -362 192 -368 -3 -2 4 -38 15 -78 53 -197 70 -570 37 -819
-44 -327 -117 -667 -148 -686 -6 -4 -8 -3 -4 4 7 12 5 13 -83 92 -34 30 -98
90 -142 133 -45 42 -86 77 -91 77 -5 0 -22 8 -36 19 -15 10 -70 33 -122 51
-96 34 -160 80 -160 115 0 8 -4 15 -9 15 -5 0 -12 13 -16 30 -4 16 -26 51 -50
78 -24 27 -47 61 -51 76 -8 32 -28 43 -49 26 -11 -9 -15 -9 -15 -1 0 7 -5 9
-10 6 -6 -4 -7 -12 -4 -18 4 -7 4 -9 -1 -5 -4 4 -35 -17 -68 -48 -131 -121
-264 -195 -419 -231 -60 -14 -121 -17 -338 -17 -241 1 -278 3 -414 27 -156 28
-213 43 -336 85 -41 15 -77 27 -80 27 -10 0 -145 59 -150 65 -3 3 -21 12 -40
20 -44 18 -164 82 -261 139 -110 64 -260 157 -294 181 -76 53 -181 120 -189
120 -5 0 -14 6 -20 13 -6 8 -71 56 -144 107 -73 50 -131 94 -128 97 6 6 62
-25 396 -217 146 -84 333 -188 415 -231 l150 -78 346 -10 c190 -6 552 -11 804
-11 395 0 456 -2 446 -14 -7 -8 -32 -21 -55 -29 -35 -12 -194 -111 -216 -134
-10 -11 83 8 144 28 84 28 185 80 248 128 146 111 167 129 160 136 -4 5 -1 5
6 1 17 -10 108 82 155 156 31 49 76 155 107 253 7 22 19 49 26 60 13 18 14 18
14 -10 l0 -30 23 29 c27 34 47 28 47 -14 0 -15 6 -30 14 -33 8 -3 24 -27 36
-54 35 -77 120 -286 120 -295 0 -4 16 -42 36 -84 33 -68 84 -134 105 -134 18
0 39 13 39 25 0 7 5 15 12 17 23 8 37 117 27 208 -12 104 -23 146 -60 233 -56
133 -141 227 -257 284 -93 46 -179 54 -297 28 -112 -25 -168 -82 -98 -100 19
-4 22 -9 14 -19 -13 -15 -123 -41 -143 -34 -7 3 -51 -1 -98 -9 -130 -22 -600
-21 -700 1 -41 10 -85 17 -97 17 -12 0 -25 4 -28 9 -4 6 -11 8 -16 4 -5 -3
-33 6 -62 19 -28 13 -65 29 -82 35 -16 6 -83 31 -148 57 -65 25 -122 43 -127
40 -6 -4 -10 -2 -10 2 0 27 -287 82 -535 103 -71 6 -168 16 -215 22 -85 10
-282 12 -545 5 -103 -3 -149 0 -173 10 -19 8 -59 19 -90 24 -31 6 -65 17 -76
25 -11 8 -30 14 -42 14 -12 0 -38 7 -58 15 -20 9 -41 13 -45 10 -5 -2 -37 5
-72 17 -35 11 -77 22 -94 24 -16 1 -30 3 -30 4 0 1 -20 4 -43 5 -24 2 -47 7
-50 11 -4 4 27 4 68 0 41 -4 125 -11 185 -17 121 -10 566 -57 604 -63 31 -5
71 34 71 70 0 41 -37 92 -100 138 -43 32 -87 51 -184 81 -77 24 -131 45 -135
55 -4 11 -22 15 -63 16 -69 2 -77 -11 -12 -20 25 -3 60 -12 77 -20 18 -8 82
-29 142 -47 131 -39 201 -82 188 -116 -4 -9 0 -11 11 -7 10 4 16 1 16 -9 0 -8
6 -17 13 -20 15 -6 22 -92 8 -101 -12 -8 -204 19 -223 30 -7 5 -17 9 -23 10
-26 3 -55 17 -55 26 0 6 -7 7 -15 4 -8 -3 -22 -9 -30 -12 -12 -5 -15 3 -15 42
0 52 21 87 48 77 12 -5 14 -2 9 11 -4 10 -7 25 -7 34 0 11 -7 5 -19 -14 l-19
-32 -114 -4 c-62 -2 -119 -2 -125 0 -7 2 -13 17 -13 33 0 26 4 29 30 29 17 0
30 5 30 13 0 9 3 8 9 -2 7 -11 9 -11 14 0 5 12 7 12 15 0 8 -11 10 -11 14 0 4
12 7 12 21 0 15 -11 17 -11 17 2 0 15 -25 22 -114 29 -27 3 -31 9 -50 66 -12
35 -24 60 -28 57 -3 -3 1 -20 9 -36 8 -17 17 -56 20 -87 4 -47 2 -61 -14 -81
-18 -21 -34 -26 -129 -37 -89 -10 -111 -10 -123 1 -16 16 -6 75 14 75 8 0 21
7 29 16 9 8 16 11 16 5 0 -6 20 -11 45 -11 38 0 45 3 45 20 0 17 -7 20 -51 20
-69 0 -115 23 -131 66 -6 19 -16 34 -21 34 -4 0 -6 4 -3 9 3 5 -3 11 -14 14
-23 6 -24 3 -9 -26 16 -30 9 -22 -44 48 -44 58 -53 81 -22 55 8 -7 15 -9 15
-4 0 4 11 -3 26 -17 22 -21 24 -21 18 -4 -7 20 -7 20 14 1 12 -11 22 -26 22
-34 0 -13 3 -13 18 1 10 10 32 17 48 18 37 1 -35 23 -276 85 -201 51 -399 89
-516 99 -70 6 -83 5 -98 -11 -38 -37 1 -129 111 -264 l45 -55 -49 52 c-28 29
-53 49 -57 45 -4 -4 -6 0 -4 8 2 8 -3 14 -10 15 -7 0 -22 11 -33 25 -12 14
-18 19 -14 13 8 -17 -6 -16 -41 2 -16 8 -36 15 -44 15 -8 0 -30 9 -48 20 -18
11 -39 20 -47 20 -8 0 -15 4 -15 9 0 5 -15 14 -34 21 -19 6 -45 20 -57 30 -13
11 -28 23 -34 28 -39 31 -106 72 -119 72 -9 0 -16 3 -16 8 0 4 -24 18 -53 32
-28 14 -55 29 -58 34 -4 5 -18 7 -33 4 -14 -3 -23 -1 -20 3 5 8 -13 13 -43 12
-7 -1 -13 2 -13 6 0 4 -23 7 -50 7 -33 -1 -54 4 -59 13 -5 7 -13 11 -18 8 -5
-3 -46 0 -91 7 -45 7 -79 10 -76 5 2 -4 -5 -7 -16 -6 -12 1 -18 7 -16 14 4 8
-2 12 -16 9 -12 -1 -24 -9 -26 -16 -3 -8 0 -10 8 -5 8 5 11 4 7 -2 -4 -6 -2
-25 4 -42 6 -18 9 -35 5 -38 -3 -3 -43 34 -88 82 -46 49 -109 110 -141 137
-32 26 -53 48 -47 48 6 0 67 -55 137 -122 87 -86 123 -115 118 -98 -4 14 -38
88 -75 165 -69 140 -152 265 -176 265 -8 0 -2 -12 13 -27 34 -37 72 -94 116
-174 40 -71 50 -103 17 -54 -15 22 -26 29 -45 27 -15 -2 -25 2 -25 9 0 7 -3 9
-7 5 -4 -3 20 -35 53 -69 53 -56 54 -57 9 -16 -80 73 -125 109 -136 109 -5 0
-17 -15 -26 -34 l-16 -35 -41 28 c-52 36 -149 84 -201 101 -57 18 -58 19 -39
48 17 27 17 27 -3 9 -11 -9 -22 -15 -25 -11 -3 3 -15 -8 -27 -25 l-21 -30 22
-6 c58 -16 160 -63 232 -107 81 -50 104 -55 70 -16 l-19 22 28 -18 c16 -10 30
-16 31 -14 1 2 6 13 12 26 8 21 14 17 104 -75 52 -54 82 -86 65 -72 -16 14
-39 29 -50 33 -34 13 -67 17 -61 8 3 -5 -1 -9 -9 -9 -8 0 -13 5 -12 10 3 13
-52 28 -79 21 -12 -3 -28 1 -38 11 -9 9 -16 12 -16 6 0 -6 -7 -8 -15 -5 -8 4
-13 9 -11 13 2 3 -10 6 -27 7 -52 1 -91 7 -102 15 -13 9 -167 4 -280 -9 -164
-18 -299 -82 -415 -196 -33 -32 -60 -54 -60 -48 0 7 -9 12 -19 12 -13 0 -35
-22 -61 -59 -52 -74 -181 -183 -197 -167 -3 3 6 11 21 17 20 9 23 15 14 22 -9
6 -8 7 4 4 9 -3 22 2 30 11 11 15 11 15 -3 5 -9 -7 -19 -10 -22 -6 -12 11 -7
23 9 23 10 0 14 6 10 15 -3 9 3 19 14 25 23 12 26 30 6 30 -7 0 -30 14 -51 30
-21 17 -44 29 -51 26 -7 -3 -33 2 -58 9 -25 8 -46 10 -46 6 0 -32 -406 -31
-447 1 -6 5 -51 9 -100 9 -48 0 -119 4 -157 8 -54 6 -69 4 -73 -7 -3 -8 0 -18
8 -23 11 -7 10 -9 -5 -9 -15 0 -16 -3 -6 -15 7 -8 8 -15 2 -15 -5 0 -17 10
-26 23 -9 12 21 -54 67 -148 99 -203 158 -332 185 -400 20 -50 110 -244 151
-323 12 -23 19 -42 16 -42 -6 0 -136 259 -185 370 -151 341 -373 747 -488 891
-50 63 -119 129 -135 129 -3 0 -13 -44 -22 -97 -10 -54 -21 -109 -25 -123 -15
-46 -11 41 5 127 18 92 17 83 6 83 -13 0 -28 -50 -42 -140 l-13 -80 -116 3
-116 4 -119 119 c-101 101 -171 162 -379 333 -15 12 -17 12 -11 2 6 -11 4 -13
-8 -8 -16 6 -43 -24 -32 -35 3 -3 -1 -5 -7 -6 -7 0 -24 -4 -37 -8 -17 -5 -22
-4 -17 4 4 7 16 12 26 12 10 0 21 4 24 9 9 13 -16 20 -35 10 -13 -6 -18 -3
-22 12 -5 18 -9 19 -27 9 -12 -6 -26 -9 -33 -7 -7 3 2 10 18 17 26 11 27 14
10 18 -11 2 -24 10 -28 18 -4 8 -19 12 -35 10 -15 -2 -21 -1 -14 1 6 2 12 8
12 11 0 14 -46 36 -70 34 -20 -1 -21 0 -7 6 17 7 17 9 -2 26 -11 10 -27 16
-36 12 -11 -4 -15 -2 -12 6 5 16 -22 37 -46 38 -10 0 -15 5 -12 10 6 10 -4 13
-40 11 -11 0 -14 2 -7 5 17 8 -15 33 -41 34 -10 0 -16 4 -13 9 3 5 -1 12 -10
15 -19 7 -19 7 -27 -1z m258 -444 c8 -12 -23 -38 -47 -39 -10 0 -22 -9 -28
-20 -6 -11 -19 -20 -30 -20 -11 0 -27 -11 -36 -25 -9 -14 -24 -25 -33 -25 -10
0 -24 -11 -31 -25 -7 -14 -21 -25 -31 -25 -10 0 -23 -13 -31 -30 -7 -17 -21
-30 -30 -30 -10 0 -20 -10 -24 -25 -3 -13 -15 -27 -25 -30 -10 -4 -22 -17 -25
-30 -3 -13 -14 -25 -25 -28 -11 -3 -24 -19 -30 -36 -6 -17 -17 -31 -25 -31
-17 0 -17 1 -4 34 5 14 16 26 25 26 8 0 17 11 21 24 3 14 16 32 29 40 13 9 26
25 30 36 3 11 13 20 20 20 8 0 21 14 30 30 9 17 22 30 31 30 8 0 19 11 24 24
4 13 20 26 34 30 13 3 28 15 31 26 3 11 17 23 30 26 13 3 31 14 41 25 9 10 25
19 34 19 9 0 25 9 35 20 20 23 31 25 40 9z m410 -159 c-5 -14 -2 -20 9 -20 18
0 21 -15 6 -25 -15 -9 -12 -25 4 -25 8 0 16 7 20 15 8 22 26 18 26 -5 0 -11 7
-20 15 -20 18 0 18 -5 5 -31 -11 -20 3 -28 15 -9 10 15 35 12 35 -5 0 -8 4
-15 10 -15 11 0 2 -60 -12 -75 -6 -6 -7 -3 -3 8 5 11 2 17 -8 17 -19 0 -35
-42 -18 -48 13 -4 -3 -40 -26 -57 -7 -5 -15 -24 -17 -42 -5 -36 -36 -106 -44
-98 -3 2 3 20 13 39 15 28 16 37 6 50 -7 8 -10 19 -7 24 7 12 -14 134 -26 149
-5 7 -7 22 -3 34 6 19 4 21 -14 16 -20 -5 -20 -4 -5 24 13 26 13 29 0 29 -9 0
-20 -9 -26 -20 -13 -25 -43 -15 -35 11 4 13 1 19 -9 19 -9 0 -16 -4 -16 -10 0
-5 -9 -10 -21 -10 -25 0 -20 23 7 29 10 2 25 12 32 22 7 11 21 19 31 19 11 0
21 7 25 15 9 24 39 19 31 -5z m-152 -135 c102 -31 147 -92 147 -200 0 -78 -18
-150 -89 -370 -93 -286 -118 -377 -142 -517 -6 -38 -15 -68 -20 -68 -5 0 -9 3
-9 8 1 29 24 159 41 231 36 153 50 203 110 386 83 255 92 345 42 414 -71 98
-348 120 -509 41 -69 -34 -142 -101 -189 -175 -80 -124 -145 -363 -145 -533
-1 -68 -3 -83 -12 -68 -16 28 -4 201 22 321 39 182 90 291 186 395 80 86 158
128 279 150 66 12 228 4 288 -15z m885 -60 c2 -2 -5 -20 -16 -42 -11 -21 -48
-110 -83 -198 -35 -88 -74 -171 -87 -184 -22 -22 -28 -23 -154 -20 l-131 4
-34 -109 c-19 -59 -32 -111 -29 -114 3 -3 44 -8 90 -12 54 -4 94 -13 111 -24
64 -42 85 -175 65 -423 -15 -198 -30 -286 -21 -128 3 66 6 188 6 270 -1 228
-20 257 -178 261 -51 1 -100 3 -109 3 -18 1 -23 -19 58 240 l29 93 145 -3 145
-4 27 55 c15 30 27 60 27 67 1 7 21 58 45 115 l44 103 -240 8 c-239 9 -240 9
-263 -13 -43 -41 -160 -345 -269 -700 -59 -193 -68 -256 -42 -283 10 -10 66
-18 186 -27 l172 -14 -6 -58 c-4 -32 -14 -75 -22 -95 -8 -21 -12 -27 -10 -13
3 14 8 48 12 76 l6 51 -128 11 c-71 7 -144 12 -162 12 -53 0 -82 37 -82 103 0
130 186 708 293 911 53 99 50 98 347 90 140 -3 256 -8 258 -9z m56 -46 c-9
-10 -14 -22 -10 -26 4 -5 12 0 17 10 13 23 29 22 29 -3 0 -11 7 -20 15 -20 13
0 14 -4 5 -21 -14 -26 -6 -36 15 -19 12 10 15 10 15 -4 0 -9 -4 -16 -9 -16 -5
0 -11 -9 -14 -20 -6 -23 8 -27 17 -5 8 22 26 18 26 -5 0 -11 5 -20 10 -20 6 0
10 -11 10 -25 0 -16 6 -25 15 -25 8 0 15 -4 15 -10 0 -5 -4 -10 -10 -10 -5 0
-10 -10 -10 -22 1 -22 1 -22 15 -4 8 11 16 18 17 15 20 -31 28 -52 28 -68 0
-11 5 -23 11 -27 6 -3 9 -17 6 -30 -3 -20 -1 -23 13 -19 13 4 22 -6 39 -46 11
-28 21 -60 21 -71 0 -10 6 -21 13 -24 9 -3 12 -16 9 -37 -4 -28 -3 -30 10 -19
13 10 17 10 21 -2 3 -8 2 -16 -2 -18 -12 -4 -24 -48 -13 -48 5 0 13 10 19 22
8 19 11 16 27 -28 9 -27 21 -57 27 -66 5 -10 9 -29 9 -42 0 -13 6 -26 13 -29
9 -3 12 -16 9 -39 -4 -29 -3 -31 10 -20 13 10 17 10 21 -2 4 -9 2 -18 -3 -21
-13 -8 -13 -55 0 -55 6 0 10 12 10 28 1 25 3 24 25 -18 13 -25 24 -52 25 -61
0 -9 6 -22 14 -29 8 -6 12 -19 9 -27 -4 -9 1 -21 12 -29 12 -9 16 -22 13 -44
-4 -27 -2 -31 14 -27 16 5 18 0 15 -31 -3 -23 -9 -37 -18 -37 -8 -1 -13 -7
-11 -14 1 -7 -2 -10 -9 -5 -9 5 -10 1 -7 -14 4 -12 2 -20 -3 -16 -14 8 -11 26
10 48 14 16 17 27 10 44 -10 25 -29 30 -29 6 0 -8 -4 -13 -8 -10 -5 3 -9 -1
-9 -9 0 -8 4 -12 9 -9 4 3 8 -2 8 -10 0 -9 -9 -16 -20 -16 -14 0 -18 -5 -14
-17 5 -15 4 -16 -5 -3 -6 8 -11 11 -11 5 0 -5 -5 -2 -11 8 -5 9 -15 17 -20 17
-6 0 -7 -5 -3 -12 4 -7 3 -8 -4 -4 -8 5 -9 13 -3 25 11 20 4 61 -10 61 -9 0
-13 -21 -10 -54 1 -16 -1 -17 -14 -6 -8 7 -15 23 -15 36 0 15 -6 24 -15 24 -8
0 -15 -5 -15 -10 0 -6 -11 -3 -25 6 -17 11 -25 25 -25 45 0 31 -17 39 -26 14
-5 -12 -10 -12 -32 6 -20 15 -26 28 -24 50 4 34 -15 39 -27 7 -9 -23 -9 -23
-20 6 -9 21 -15 26 -23 18 -18 -18 -60 16 -56 46 2 14 -3 27 -9 29 -7 3 -13
-1 -13 -7 0 -7 -9 -23 -20 -37 -11 -14 -20 -39 -20 -54 0 -19 -5 -29 -14 -29
-8 0 -16 -11 -18 -25 -2 -14 -7 -26 -13 -26 -19 0 -16 37 5 61 24 27 26 60 5
60 -8 0 -15 -9 -15 -19 0 -11 -7 -26 -15 -35 -8 -8 -15 -21 -15 -29 0 -8 -9
-24 -20 -37 -11 -13 -20 -34 -20 -47 0 -12 -4 -23 -9 -23 -5 0 -12 -12 -15
-26 -8 -31 -34 -60 -44 -49 -4 4 -1 10 6 12 6 3 12 15 12 28 0 13 7 30 15 39
8 8 15 24 15 36 0 11 7 23 15 26 8 4 15 17 15 29 0 13 7 30 15 39 8 8 15 24
15 36 0 11 6 23 14 26 8 3 18 18 21 34 3 16 13 31 21 34 10 4 14 16 12 31 -4
35 -22 36 -26 2 -2 -16 -10 -31 -18 -34 -8 -3 -14 -13 -14 -23 0 -10 -7 -25
-15 -33 -7 -8 -17 -27 -21 -42 -4 -14 -13 -29 -20 -32 -8 -3 -14 -16 -14 -29
0 -14 -7 -27 -15 -30 -9 -4 -15 -19 -15 -35 0 -19 -5 -29 -15 -29 -10 0 -15
-10 -15 -26 0 -15 -7 -32 -15 -38 -8 -6 -16 -21 -18 -33 -5 -36 -17 -39 -17
-4 0 19 6 34 15 37 8 4 15 18 15 34 0 16 7 30 15 34 8 3 15 17 15 31 0 14 7
28 15 31 8 4 15 18 15 34 0 16 7 30 15 34 8 3 15 15 15 26 0 11 7 23 15 26 8
4 15 17 15 29 0 13 7 30 15 38 7 8 17 26 21 41 5 20 2 26 -10 26 -10 0 -16 -9
-16 -24 0 -13 -6 -29 -14 -35 -8 -7 -18 -26 -21 -42 -4 -16 -13 -29 -21 -29
-8 0 -14 -10 -14 -25 0 -14 -7 -28 -15 -31 -8 -4 -15 -17 -15 -30 0 -14 -7
-27 -15 -30 -8 -4 -15 -16 -15 -29 0 -12 -7 -28 -15 -35 -8 -7 -15 -23 -15
-36 0 -13 -7 -27 -15 -31 -8 -5 -16 -21 -17 -36 -3 -36 -15 -35 -16 2 0 17 5
32 14 35 8 3 14 19 14 36 0 20 5 30 15 30 10 0 15 10 15 29 0 16 6 31 15 35 9
3 15 18 15 35 0 16 6 31 15 35 8 3 15 15 15 26 0 11 7 23 15 26 8 4 15 17 15
30 0 14 6 27 14 30 8 3 17 21 20 40 4 20 13 34 21 34 9 0 15 10 15 25 0 14 7
28 15 31 8 4 15 14 15 24 0 9 9 29 20 43 22 27 26 47 10 47 -5 0 -10 -7 -10
-15 0 -8 -9 -24 -19 -34 -10 -10 -22 -28 -25 -39 -4 -11 -13 -23 -21 -26 -8
-3 -15 -17 -15 -31 0 -14 -7 -28 -15 -31 -8 -4 -15 -15 -15 -25 0 -11 -9 -27
-20 -36 -11 -10 -20 -25 -20 -35 0 -9 -4 -19 -9 -22 -11 -7 -51 -88 -51 -103
0 -6 -7 -16 -15 -23 -8 -7 -15 -21 -15 -31 0 -9 -6 -24 -13 -31 -8 -7 -17 -26
-21 -41 -3 -15 -11 -27 -16 -27 -15 0 -12 37 5 53 8 8 16 27 19 43 3 15 11 31
17 35 7 4 14 18 16 30 2 13 8 26 12 29 5 3 13 18 16 33 4 15 11 27 16 27 5 0
9 9 9 20 0 11 9 29 20 40 11 11 20 28 20 38 0 10 9 25 20 35 11 9 20 25 20 36
0 10 7 21 15 25 8 3 15 14 15 24 0 10 9 29 20 42 21 25 26 50 10 50 -5 0 -12
-11 -16 -25 -3 -14 -15 -30 -25 -36 -11 -5 -19 -19 -19 -30 0 -11 -7 -22 -15
-25 -8 -4 -15 -14 -15 -24 0 -10 -7 -25 -15 -33 -7 -8 -17 -27 -21 -42 -4 -14
-13 -29 -20 -32 -8 -3 -14 -13 -14 -23 0 -10 -7 -25 -15 -33 -7 -8 -17 -26
-21 -41 -3 -14 -10 -26 -14 -26 -5 0 -11 -13 -15 -29 -3 -16 -12 -32 -19 -34
-11 -4 -12 3 -5 30 4 20 12 39 17 42 5 3 12 18 16 34 3 15 11 27 16 27 6 0 10
9 10 20 0 11 9 28 20 37 11 10 20 25 20 34 0 9 7 22 15 29 8 7 15 21 15 31 0
10 5 21 11 25 6 3 17 22 25 40 8 19 18 34 23 34 5 0 11 11 13 25 7 34 -14 32
-30 -2 -6 -16 -21 -41 -32 -58 -10 -16 -26 -45 -34 -62 -8 -18 -20 -33 -25
-33 -6 0 -11 -11 -11 -25 0 -14 -6 -28 -14 -31 -8 -3 -18 -19 -21 -35 -4 -16
-12 -32 -20 -36 -7 -5 -15 -17 -18 -28 -4 -15 -5 -14 -6 8 0 15 4 27 9 27 6 0
10 11 10 24 0 14 5 28 10 31 6 4 17 22 25 41 8 19 19 34 24 34 6 0 11 11 11
25 0 14 6 28 14 31 8 3 18 18 21 34 3 16 13 31 21 34 8 3 14 15 14 26 0 11 7
23 15 26 8 4 15 14 15 25 0 10 8 26 19 36 21 20 37 63 23 63 -8 0 -16 -14 -57
-97 -8 -18 -20 -33 -25 -33 -6 0 -10 -6 -10 -13 0 -8 -9 -22 -20 -32 -11 -10
-20 -24 -20 -32 0 -7 -9 -21 -20 -30 -11 -10 -20 -27 -20 -39 0 -12 -6 -24
-14 -27 -8 -3 -17 -19 -21 -36 -4 -17 -11 -31 -16 -31 -17 0 -9 56 11 73 11 9
20 25 20 36 0 10 7 21 15 25 8 3 15 14 15 26 0 11 9 25 20 32 11 7 20 23 20
36 0 12 7 25 15 28 8 4 15 14 15 24 0 9 9 25 19 34 24 22 34 56 16 56 -11 0
-11 7 -4 32 5 17 13 34 17 37 15 9 25 51 13 51 -6 0 -11 -8 -12 -17 0 -10 -3
-13 -5 -6 -3 6 -1 28 5 48 6 23 6 33 -1 29 -6 -4 -9 7 -8 27 1 19 1 36 0 39
-10 29 -7 51 8 62 21 15 36 48 22 48 -5 0 -12 -9 -15 -20 -3 -11 -11 -20 -16
-20 -13 0 -11 9 11 55 10 22 16 43 14 47 -8 12 27 71 60 101 33 31 50 20 20
-14z m4121 -190 c58 -10 115 -21 125 -24 22 -7 111 -106 159 -178 39 -57 96
-179 106 -224 6 -31 5 -33 -23 -33 -73 0 -124 13 -132 34 -7 17 -9 18 -9 4 -1
-24 -21 -23 -21 1 0 11 -3 26 -6 35 -4 11 0 16 12 17 18 1 18 1 1 6 -11 3 -27
24 -38 46 -14 32 -19 37 -19 19 0 -13 -4 -20 -10 -17 -6 3 -10 -4 -10 -16 0
-36 -17 -10 -28 44 -8 39 -7 47 5 47 8 0 11 5 8 11 -8 11 -55 33 -68 31 -4 -1
-10 5 -14 15 -6 15 -7 15 -14 -3 -6 -17 -8 -16 -20 10 l-14 29 -6 -24 c-5 -23
-7 -22 -22 15 -22 50 -21 56 6 57 19 1 18 2 -6 9 -16 5 -35 14 -43 21 -11 9
-14 9 -14 -1 0 -10 -3 -10 -15 0 -10 9 -15 9 -15 1 0 -18 -19 -13 -45 13 -20
20 -24 21 -27 8 -3 -13 -11 -9 -40 20 -20 20 -34 39 -30 43 11 11 158 3 267
-16z m248 -47 c52 -14 75 -26 98 -53 l31 -34 -22 33 c-28 42 -13 42 23 0 24
-28 26 -29 12 -5 -25 39 -2 33 30 -9 27 -35 28 -53 3 -38 -7 4 -21 9 -30 9
-17 2 -17 0 -3 -19 28 -39 55 -96 46 -96 -5 0 -11 10 -15 23 -3 13 -22 41 -41
62 -29 31 -32 33 -17 10 32 -49 53 -95 44 -95 -4 0 -14 15 -20 34 -15 39 -48
61 -36 23 7 -22 6 -22 -15 -3 -27 24 -27 17 0 -28 32 -54 16 -43 -23 17 -20
29 -61 83 -92 120 -32 37 -54 67 -49 67 4 0 38 -9 76 -18z m-5551 -42 c32 -40
20 -123 -47 -312 -15 -44 -20 -48 -50 -48 -58 0 -138 20 -151 38 -35 46 -7
202 51 278 55 72 156 94 197 44z m-1377 -160 c17 -19 17 -22 -20 -97 -21 -43
-44 -102 -51 -133 -7 -30 -18 -69 -25 -85 -7 -17 -12 -37 -11 -45 1 -10 0 -11
-4 -2 -3 6 -10 10 -14 7 -5 -3 -12 0 -16 6 -4 8 -3 9 4 5 8 -5 10 -1 5 9 -5
13 -7 14 -14 3 -15 -24 -10 -48 11 -48 14 0 21 -10 27 -37 4 -21 6 -41 5 -45
-1 -5 7 -8 17 -8 15 0 24 15 40 65 12 35 21 75 21 88 0 14 6 30 14 36 8 7 17
24 21 39 3 15 20 49 36 75 16 26 27 52 24 58 -4 5 0 9 9 9 8 0 25 13 39 29
l25 30 26 -28 c30 -32 31 -37 10 -45 -8 -3 -12 -2 -9 4 9 15 -9 12 -31 -6 -10
-8 -12 -12 -4 -8 11 5 12 4 4 -5 -9 -10 -8 -20 3 -42 13 -27 13 -31 -16 -66
-17 -21 -53 -83 -82 -138 -28 -55 -48 -87 -45 -71 6 24 5 28 -7 18 -11 -9 -13
-6 -10 21 3 32 3 32 -12 -7 -18 -48 -9 -64 46 -72 29 -5 39 -11 39 -25 0 -26
16 -24 79 11 68 37 72 37 36 0 -25 -26 -27 -32 -15 -40 8 -5 24 -10 35 -10 77
-2 210 -21 229 -33 17 -11 27 -35 40 -94 10 -43 19 -83 21 -90 9 -29 -11 -19
-33 18 -15 25 -29 38 -38 35 -13 -5 -38 26 -28 36 2 3 -2 11 -11 18 -8 7 -15
24 -16 39 0 24 -2 23 -13 -9 -7 -19 -20 -36 -29 -38 -8 -2 -19 -16 -22 -32 -3
-16 -13 -34 -22 -42 -9 -7 -26 -30 -39 -50 -26 -41 -45 -46 -101 -26 -31 11
-33 15 -27 43 l6 30 -31 -37 c-17 -20 -40 -40 -51 -43 -11 -4 -20 -12 -20 -20
0 -7 -9 -15 -19 -18 -18 -4 -30 10 -45 56 -4 13 -17 17 -60 17 -45 0 -54 -3
-59 -20 -8 -32 -31 -23 -55 23 -17 32 -23 61 -25 124 -1 46 -5 83 -9 83 -17 0
-38 -63 -38 -114 0 -45 4 -58 20 -68 11 -7 20 -24 20 -37 0 -22 -1 -23 -22 -9
-13 8 -29 26 -35 39 l-13 24 0 -22 c0 -19 -5 -23 -33 -23 -38 0 -71 28 -62 52
3 8 -1 21 -10 28 -20 16 -19 10 5 -97 24 -102 70 -199 94 -197 9 1 16 -2 16
-7 0 -5 11 -16 25 -25 20 -13 28 -14 39 -4 12 9 23 8 50 -5 51 -24 47 -45 -8
-45 -54 0 -67 -14 -26 -29 17 -5 30 -12 30 -15 0 -3 -12 -1 -27 5 -20 7 -28 7
-34 -3 -7 -10 -12 -10 -26 -1 -10 6 -17 16 -16 22 2 6 -8 11 -22 11 -19 0 -23
-4 -18 -17 4 -11 3 -14 -6 -9 -7 4 -10 13 -8 19 2 6 -12 32 -31 57 -62 79
-142 286 -142 363 0 11 16 42 35 69 20 27 38 62 42 79 3 16 11 29 17 29 9 0
12 29 12 100 -1 92 1 101 23 122 l23 23 -11 -22 c-8 -15 -8 -23 -1 -23 14 0
13 -27 -2 -32 -10 -4 -10 -13 -1 -44 10 -33 10 -36 -1 -21 -7 9 -17 17 -22 17
-4 0 -3 -5 2 -10 6 -6 9 -33 6 -60 -2 -28 0 -50 5 -50 16 0 53 31 53 46 0 8 6
14 13 14 9 0 12 -10 9 -30 -4 -27 -1 -30 22 -30 25 0 26 3 26 50 0 33 4 50 13
50 6 0 22 3 35 6 16 5 22 2 22 -10 0 -10 4 -15 9 -11 5 3 11 -4 13 -15 7 -45
23 -17 31 52 9 78 10 89 21 128 3 14 8 43 10 65 2 22 6 47 9 55 3 8 11 33 17
55 25 81 40 105 70 105 15 0 35 -9 45 -20z m-197 -49 c11 -7 9 -34 -14 -147
-16 -83 -32 -142 -41 -147 -7 -5 -12 -11 -9 -15 2 -4 -5 -16 -15 -26 -19 -19
-19 -17 -19 112 0 144 15 207 54 222 27 11 29 11 44 1z m5348 -141 c-35 -11
-88 -59 -79 -73 3 -6 1 -7 -5 -3 -30 18 -191 -226 -198 -301 -1 -16 -6 -44 -9
-64 -7 -35 -6 -37 29 -49 35 -11 36 -13 36 -61 l0 -49 80 0 c71 0 80 2 80 18
0 11 9 45 20 78 l21 59 -22 40 -21 40 24 -28 24 -29 13 24 c11 21 10 30 -9 64
-20 36 -21 37 -2 16 11 -12 23 -28 25 -35 3 -8 11 -3 23 13 44 60 138 149 196
183 l63 37 12 -27 c18 -41 16 -48 -19 -65 -45 -21 -138 -96 -145 -116 -4 -9
-21 -35 -39 -57 -39 -48 -94 -161 -94 -193 0 -29 2 -29 138 -37 l113 -6 -6 28
c-4 20 -3 23 3 9 8 -19 9 -18 25 4 9 13 14 27 11 31 -2 4 6 16 19 26 19 15 23
26 20 53 -3 26 -2 31 6 20 8 -12 11 -12 17 4 6 16 9 15 20 -10 l12 -29 2 30
c2 25 5 20 20 -29 l19 -58 -32 -27 c-17 -14 -42 -36 -55 -48 -13 -12 -29 -20
-37 -17 -8 3 -12 -3 -12 -20 0 -21 5 -26 37 -31 21 -4 60 -20 87 -36 36 -22
42 -24 22 -7 -14 13 -35 28 -45 35 -16 10 -12 11 21 6 22 -3 41 -7 42 -8 4 -2
50 -245 58 -302 l7 -53 -36 0 c-42 0 -43 3 -16 37 26 34 26 52 -1 22 -11 -13
-18 -18 -14 -11 10 19 -4 14 -36 -13 -28 -23 -86 -45 -120 -45 -19 0 -29 -20
-29 -54 0 -32 -8 -36 -38 -20 -32 17 -61 18 -98 4 -19 -8 -37 -7 -61 1 -19 6
-100 12 -181 14 -144 2 -209 15 -227 45 -3 5 -15 10 -26 10 -22 0 -23 8 -24
190 l0 125 -25 -3 c-62 -8 -108 -79 -96 -146 7 -38 51 -98 70 -95 24 4 46 -14
46 -37 0 -13 -3 -24 -7 -24 -30 0 -89 26 -117 51 -23 19 -37 26 -41 18 -4 -6
-2 -16 4 -22 23 -23 8 -27 -102 -27 -127 0 -167 11 -167 48 0 21 -12 35 -71
86 -12 10 -19 29 -19 51 0 28 -4 35 -19 35 -51 0 -87 125 -40 137 21 6 21 6
-2 19 -15 8 -18 13 -9 14 12 0 15 18 16 95 0 52 -1 93 -4 91 -2 -3 -15 -40
-27 -83 l-24 -78 0 48 c-1 39 6 60 35 107 20 32 43 61 52 65 13 5 13 2 -2 -14
-16 -17 -18 -36 -17 -128 2 -127 11 -144 59 -119 17 9 32 26 34 38 3 18 6 15
12 -14 l8 -38 85 0 c77 0 84 2 79 18 -8 23 39 50 48 29 4 -7 4 3 1 22 -3 18
-5 42 -5 53 0 10 -4 17 -8 14 -8 -5 3 133 12 141 3 3 2 -27 -1 -66 l-6 -71 45
6 46 6 7 -63 c4 -35 12 -70 17 -76 6 -8 35 -13 72 -13 l61 0 13 40 c18 60 15
87 -13 107 -40 28 -72 55 -55 47 8 -4 27 -15 41 -26 l27 -18 7 57 c10 83 41
178 85 260 22 40 36 72 32 72 -4 -1 -18 -1 -31 0 -19 1 -21 4 -11 15 9 11 17
12 34 5 20 -10 29 -4 80 50 60 62 72 68 161 69 43 0 46 -1 21 -8z m-4816 -123
c22 -43 37 -84 34 -92 -3 -7 -26 -15 -52 -17 -26 -3 -54 -8 -62 -11 -13 -6
-15 0 -12 35 4 40 3 42 -11 23 -10 -13 -12 -22 -5 -26 6 -4 7 -12 2 -20 -5 -8
-9 -18 -9 -24 -1 -5 -6 -9 -12 -8 -7 2 -39 -13 -73 -32 -34 -19 -64 -35 -67
-35 -3 0 11 29 31 65 21 39 36 79 36 100 0 25 5 35 20 40 11 3 27 13 35 21 13
14 15 14 15 -1 0 -12 5 -15 18 -10 9 4 24 9 33 12 13 4 15 14 12 51 -4 45 -4
46 12 27 10 -11 34 -55 55 -98z m4314 15 c-9 -16 -25 -39 -35 -53 l-19 -24 15
38 c8 20 13 37 10 37 -9 0 -35 -72 -29 -81 3 -5 1 -9 -4 -9 -12 0 -52 -114
-52 -149 -1 -22 -3 -19 -15 14 -8 22 -15 50 -15 63 0 12 -4 22 -9 22 -19 0 21
90 47 109 34 24 104 61 115 61 4 0 1 -13 -9 -28z m3301 -572 c93 -81 175 -150
270 -229 11 -9 40 -32 65 -51 25 -19 58 -47 74 -62 16 -16 33 -28 39 -28 5 0
17 -8 26 -17 9 -10 41 -38 71 -63 30 -25 63 -52 73 -60 10 -8 52 -46 93 -85
97 -92 107 -100 116 -98 4 2 5 -4 2 -12 -4 -8 -1 -15 6 -15 18 0 97 -85 148
-158 50 -72 44 -82 -40 -62 -119 28 -361 135 -408 179 -9 9 -51 41 -94 71 -43
30 -97 75 -119 99 -23 24 -48 50 -55 57 -30 31 -79 102 -100 144 -12 25 -34
62 -49 82 -57 77 -113 158 -113 165 0 4 -9 16 -20 28 -11 12 -21 33 -22 47 -1
15 -5 25 -8 23 -4 -2 -15 12 -24 33 -10 20 -31 53 -47 73 -27 34 -30 57 -5 42
6 -4 61 -50 121 -103z m-117 -92 c17 -38 33 -58 45 -58 9 0 17 -7 17 -16 0
-13 -3 -14 -14 -5 -12 10 -14 8 -9 -11 2 -13 7 -30 10 -38 18 -47 -18 -160
-57 -183 -15 -9 -30 -14 -34 -10 -3 3 -7 -5 -7 -18 -3 -61 -18 79 -19 186 -1
76 -5 109 -9 89 -12 -47 -20 -57 -37 -43 -8 6 -14 19 -14 28 0 30 29 129 52
178 l22 47 13 -44 c7 -25 25 -71 41 -102z m-7449 95 c36 -11 50 -21 49 -32 -2
-10 5 -17 18 -19 12 -2 29 -18 40 -37 24 -45 12 -55 -15 -13 -28 45 -27 31 3
-23 17 -30 25 -63 27 -104 3 -79 -1 -144 -8 -125 -3 8 -10 26 -15 39 -7 19
-11 21 -23 11 -23 -19 -30 -4 -12 23 14 22 14 27 -8 66 -13 23 -24 44 -25 46
0 3 -2 4 -4 3 -3 -2 -15 6 -28 18 -13 12 -31 24 -40 27 -11 4 -18 17 -18 31 0
13 -7 27 -16 30 -23 9 -96 6 -119 -4 -14 -7 -8 -8 20 -3 35 5 39 4 27 -9 -7
-9 -24 -19 -38 -22 -15 -4 -22 -11 -18 -18 5 -7 -2 -9 -19 -6 -15 3 -24 1 -21
-3 3 -5 2 -9 -3 -10 -4 0 -18 -2 -30 -3 -12 -1 -20 1 -17 6 6 10 -10 11 -20 1
-9 -10 -56 -11 -56 -2 0 3 9 18 21 33 24 31 69 56 99 56 12 0 35 7 53 16 17 9
43 18 57 19 14 2 36 7 50 13 33 14 30 14 89 -5z m3637 -120 c4 -21 8 -51 9
-67 1 -16 11 -48 23 -70 11 -23 30 -65 43 -93 12 -29 26 -53 31 -53 5 0 12 -8
15 -17 12 -31 83 -121 111 -140 110 -73 164 -94 266 -100 76 -5 91 -4 101 10
15 21 44 23 115 9 30 -5 91 -15 135 -22 44 -6 95 -13 114 -16 50 -8 28 -18
-94 -43 -60 -13 -128 -26 -149 -31 -22 -4 -45 -15 -52 -24 -13 -18 -49 -22
-59 -6 -4 6 -38 8 -91 4 -80 -7 -84 -6 -77 12 3 10 11 22 16 25 5 3 -24 9 -63
13 -39 4 -91 16 -116 26 -24 11 -44 16 -44 13 0 -4 14 -22 32 -40 18 -18 26
-33 19 -33 -23 0 -131 62 -175 102 -24 21 -48 38 -52 38 -4 0 1 -6 11 -14 18
-13 18 -14 -3 -41 -12 -15 -22 -24 -22 -19 0 5 -9 -10 -21 -33 l-21 -42 38
-33 c95 -84 174 -132 181 -112 13 35 109 114 139 114 26 0 27 0 9 -20 -10 -11
-14 -20 -8 -20 6 0 -13 -23 -41 -51 -57 -58 -57 -60 37 -73 90 -14 252 45 279
101 9 20 28 32 68 46 30 10 104 37 164 58 59 22 110 38 113 35 10 -10 -20 -45
-122 -146 -62 -60 -109 -100 -112 -93 -3 9 -10 9 -28 -3 -12 -8 -27 -14 -31
-12 -5 1 -40 -18 -79 -43 -92 -61 -110 -69 -170 -85 -103 -28 -213 -13 -331
46 -102 50 -178 112 -213 173 -52 91 -62 129 -50 195 6 31 15 61 20 66 13 14
49 -22 70 -70 10 -22 27 -49 39 -59 20 -18 20 -18 14 27 -6 42 -4 49 28 83
l35 38 -46 61 c-25 34 -62 93 -82 131 -31 60 -35 77 -31 122 2 29 7 51 11 49
4 -3 6 8 3 23 -3 21 6 45 32 85 20 31 40 56 45 56 5 0 12 -17 17 -37z m6493
-49 c28 -35 27 -84 -3 -142 -47 -93 -100 -117 -273 -125 -160 -8 -606 20 -723
45 -52 11 -113 22 -135 25 -22 3 -43 10 -47 16 -12 19 4 37 33 37 15 0 32 6
36 14 10 17 190 40 443 56 239 16 467 49 590 85 60 18 56 19 79 -11z m-10920
-198 c17 -17 31 -25 31 -18 0 6 5 12 11 12 6 0 9 -6 6 -14 -6 -14 31 -36 60
-36 13 0 13 -3 -3 -27 -9 -16 -24 -33 -32 -39 -13 -9 -12 -12 4 -19 17 -6 15
-9 -11 -16 -21 -6 -36 -4 -53 7 -31 20 -35 14 -18 -22 20 -42 28 -84 17 -84
-16 0 -29 32 -37 88 -3 28 -12 56 -19 62 -11 9 -11 3 -4 -27 12 -52 12 -80 -1
-67 -5 5 -13 37 -16 71 -4 40 -14 70 -28 88 l-21 26 0 -58 c0 -43 6 -67 23
-95 24 -38 21 -54 -4 -21 -19 27 -26 11 -18 -46 6 -48 24 -72 24 -33 0 9 5 24
10 32 8 12 15 9 43 -18 19 -19 41 -32 48 -30 8 1 31 -8 52 -21 27 -17 46 -22
68 -17 24 4 29 2 29 -14 0 -46 -95 -77 -153 -50 -12 6 -4 -5 18 -26 22 -20 30
-31 18 -25 -12 6 -45 34 -74 61 -29 28 -56 50 -61 50 -12 0 20 -59 53 -98 17
-19 29 -44 29 -60 0 -61 58 -222 80 -222 6 0 8 -5 4 -12 -4 -6 -3 -8 3 -5 6 4
16 0 23 -8 7 -8 20 -15 30 -15 11 0 23 -15 34 -44 16 -40 50 -83 64 -79 3 1 9
10 13 20 4 12 -4 31 -25 58 l-31 40 38 -32 c21 -18 41 -33 46 -33 21 0 19 16
-5 41 l-27 28 27 -3 c14 -1 29 -6 34 -11 4 -4 1 -5 -5 -1 -7 4 -13 2 -13 -4 0
-6 7 -13 16 -17 17 -6 61 33 84 77 11 20 14 22 24 8 6 -8 16 -16 21 -17 6 -1
10 -11 9 -23 -1 -20 0 -20 13 -3 7 11 13 15 13 11 0 -17 -26 -54 -77 -113 -54
-63 -55 -63 -83 -48 -16 8 -31 11 -34 6 -8 -13 49 -31 96 -31 28 0 44 6 60 25
12 14 30 25 40 25 10 0 18 5 18 11 0 5 5 7 10 4 6 -3 10 -1 10 4 0 6 -8 11
-17 11 -13 0 -9 6 12 18 31 19 57 77 71 155 6 35 7 36 21 20 8 -10 11 -12 7
-4 -6 12 10 30 28 31 4 0 6 -21 4 -47 -11 -126 -50 -213 -109 -239 -22 -10
-35 -20 -29 -22 33 -11 202 124 186 149 -3 5 2 19 10 31 8 13 17 50 20 82 6
59 15 87 17 50 0 -10 2 -32 3 -47 1 -16 -2 -31 -6 -33 -4 -3 -8 -13 -7 -22 0
-14 2 -13 9 3 5 11 19 31 30 45 17 20 16 14 -6 -27 -16 -28 -32 -49 -36 -47
-4 3 -5 -1 -3 -9 3 -7 -21 -42 -55 -80 -247 -269 -557 -106 -735 388 -59 162
-121 503 -96 528 6 6 11 18 11 26 0 8 10 35 21 59 l22 44 48 -93 c26 -51 62
-106 78 -123z m659 141 c60 1 65 0 47 -13 -18 -14 -18 -14 3 -14 12 0 36 -13
54 -30 17 -16 27 -30 23 -30 -4 0 -2 -7 5 -15 7 -8 21 -15 31 -15 11 0 19 -5
19 -11 0 -6 -6 -9 -14 -6 -10 4 -7 -9 10 -43 13 -26 24 -53 24 -60 0 -7 7 -10
15 -6 8 3 15 1 15 -3 0 -5 3 -16 6 -25 4 -10 1 -16 -9 -16 -12 0 -13 -7 -5
-41 8 -28 7 -60 -1 -107 -13 -81 -31 -146 -37 -139 -3 3 -7 33 -10 68 -7 89
-12 109 -29 109 -18 0 -19 23 -3 49 20 32 -3 66 -54 79 -23 7 -50 17 -58 23
-12 9 -11 10 5 4 47 -16 85 -18 85 -4 -1 19 -36 85 -44 82 -16 -7 -28 -1 -23
11 5 13 -29 55 -39 49 -2 -2 -19 -3 -36 -2 -30 1 -31 2 -8 8 32 9 21 15 -63
35 -78 20 -97 15 -43 -10 31 -15 48 -34 30 -34 -22 0 -244 105 -241 114 2 7
40 12 98 14 52 1 108 3 124 5 17 1 36 -4 43 -13 9 -11 31 -14 80 -13z m-345
-62 c7 -5 25 -28 42 -50 16 -22 60 -72 98 -111 61 -65 66 -74 58 -97 -9 -22
-8 -25 6 -20 10 4 14 2 10 -5 -4 -6 7 -25 24 -44 41 -45 81 -113 78 -135 -3
-26 11 -75 29 -95 8 -10 12 -25 8 -34 -10 -26 -28 -3 -46 59 -14 47 -19 52
-48 55 -28 3 -36 11 -60 60 -16 31 -41 76 -55 99 -15 24 -27 49 -27 58 0 8 -9
15 -19 15 -27 0 -78 45 -85 76 -5 17 -11 23 -17 17 -12 -12 -79 -4 -79 9 0 7
16 8 41 5 l41 -5 -6 36 c-4 20 -8 71 -10 112 -2 41 -2 59 1 40 2 -19 9 -39 16
-45z m255 -100 c-3 -13 69 -85 84 -85 12 0 58 -50 58 -62 0 -7 -15 1 -32 18
l-33 29 31 -35 c48 -53 91 -130 98 -175 16 -105 19 -175 7 -175 -6 0 -11 4
-11 9 0 5 -13 12 -29 16 -26 5 -29 11 -34 57 -4 30 -13 56 -24 65 -10 8 -12
12 -5 8 7 -4 12 1 12 12 -1 39 -40 102 -100 159 -139 131 -280 276 -280 290 0
9 43 -8 130 -52 82 -41 130 -70 128 -79z m5482 -305 c0 -3 -44 -7 -97 -9 -54
-1 -102 -6 -107 -11 -4 -4 -22 -3 -38 2 -19 7 -32 7 -37 1 -7 -10 -152 -12
-145 -2 2 4 -6 10 -19 15 -14 4 27 10 113 15 74 5 173 12 220 16 70 7 87 6 98
-6 6 -8 12 -18 12 -21z m-640 -104 c0 -8 -16 -36 -35 -64 -29 -43 -32 -52 -20
-62 12 -10 15 -10 15 0 0 8 3 11 6 7 10 -9 -43 -94 -63 -102 -10 -4 -33 -7
-50 -6 -25 2 -33 -2 -33 -14 0 -13 4 -14 21 -5 11 7 23 10 25 7 4 -4 -22 -16
-70 -31 -13 -5 -17 -12 -12 -30 6 -26 -11 -86 -25 -86 -4 0 -6 -7 -2 -16 4
-10 0 -22 -10 -29 -19 -14 -36 -72 -17 -60 8 5 11 2 8 -11 -2 -11 -9 -18 -16
-17 -6 2 -9 -4 -6 -12 14 -36 -114 -114 -224 -135 -87 -17 -224 -7 -340 27
-46 13 -58 22 -102 80 -28 36 -50 73 -50 82 0 11 4 10 16 -7 14 -20 42 -33 30
-14 -2 4 6 8 19 8 13 0 21 -4 19 -8 -3 -5 -10 -6 -15 -3 -5 4 -9 1 -9 -4 0 -6
3 -11 8 -12 4 -1 21 -3 37 -5 17 -2 39 -5 50 -8 11 -2 25 -5 30 -5 6 -1 3 -6
-5 -11 -20 -13 -8 -13 27 1 15 6 43 12 62 15 19 2 37 7 40 11 3 3 -4 3 -16 0
-13 -3 -23 -2 -23 2 0 4 -26 15 -57 25 -65 20 -225 94 -234 109 -4 5 -9 5 -11
1 -11 -19 5 -79 39 -139 24 -45 84 -125 92 -125 4 0 22 -20 40 -44 17 -25 53
-69 79 -98 26 -29 52 -61 57 -70 6 -9 25 -36 44 -60 l33 -43 -36 38 c-50 51
-69 47 -21 -5 l40 -43 -49 45 c-239 221 -389 488 -450 802 -15 77 -16 90 -3
102 13 13 16 8 26 -45 7 -33 16 -57 20 -55 4 3 13 -11 20 -30 7 -18 16 -34 21
-34 5 0 14 -17 21 -37 39 -123 50 -143 88 -163 l38 -19 -24 66 c-35 96 -23 97
17 1 37 -86 38 -87 140 -131 112 -49 293 -47 390 4 75 39 180 160 180 208 0
22 26 56 111 149 61 67 113 122 115 122 2 0 4 -6 4 -14z m287 -97 c54 -59 114
-126 133 -150 26 -33 36 -39 38 -26 2 9 8 17 13 17 6 0 8 -9 4 -20 -5 -14 10
-41 55 -100 57 -74 110 -157 110 -171 0 -3 -21 -1 -46 5 -42 10 -50 17 -91 80
-24 37 -46 66 -49 64 -2 -3 13 -32 35 -64 22 -32 37 -62 35 -66 -3 -5 2 -16
11 -25 9 -9 12 -18 7 -22 -5 -3 -11 -15 -13 -25 -3 -12 -14 11 -28 55 -13 40
-32 89 -43 106 -11 18 -17 37 -14 42 4 5 -1 22 -9 38 -8 15 -17 40 -20 56 -3
15 -12 27 -20 27 -8 0 -15 6 -15 13 0 25 -20 34 -61 27 -22 -4 -42 -3 -45 1
-3 5 2 9 10 9 20 0 29 17 15 26 -8 5 -10 2 -5 -7 4 -8 -1 -3 -12 11 -11 13
-18 28 -16 32 2 4 -2 10 -9 15 -8 4 -26 32 -42 61 -15 28 -31 52 -36 52 -4 0
-6 11 -5 25 0 14 4 24 8 22 3 -1 50 -50 105 -108z m-5487 7 c31 -18 54 -21
184 -23 86 -1 154 -7 160 -13 24 -24 -305 -2 -366 24 -13 6 -18 4 -18 -8 0
-15 -2 -15 -25 0 -34 22 -40 14 -18 -25 20 -34 25 -36 54 -20 33 17 51 -5 33
-39 -7 -15 -17 -27 -21 -28 -5 0 -24 -4 -43 -9 -19 -5 -44 -8 -55 -7 -13 2 -6
-6 20 -23 50 -31 28 -33 -25 -2 -35 19 -40 26 -40 60 0 24 5 40 15 43 12 5 11
12 -5 45 -11 21 -20 42 -20 46 1 4 12 -13 26 -39 13 -27 31 -48 39 -48 13 0
13 5 -1 38 -23 55 -28 70 -16 54 7 -11 10 -11 15 2 5 13 11 13 39 4 18 -7 49
-21 68 -32z m5383 -245 c9 -29 19 -62 21 -74 3 -19 13 -23 92 -34 49 -7 96
-15 104 -18 12 -3 -397 2 -603 9 -28 1 -37 5 -34 16 2 11 12 14 37 10 19 -2
62 -5 95 -5 l60 0 5 40 c3 22 13 52 23 65 l17 24 0 -29 0 -29 40 39 c22 21 42
36 45 33 3 -3 9 -28 14 -57 7 -46 6 -52 -15 -66 -28 -18 -40 -19 -26 -2 12 16
21 77 10 77 -4 0 -8 -4 -8 -9 0 -17 -52 -71 -62 -65 -5 4 -5 -4 2 -16 10 -19
18 -21 48 -16 21 3 59 6 85 6 l48 0 -20 28 c-20 28 -36 106 -25 123 12 20 29
1 47 -50z m-873 -393 c0 25 2 26 53 11 32 -9 37 -14 37 -39 0 -35 -5 -36 -47
-10 -45 27 -41 12 7 -35 31 -31 49 -40 80 -42 l40 -3 -5 43 -5 42 11 -37 c10
-34 14 -38 45 -38 56 0 122 22 127 42 3 10 1 18 -4 18 -5 0 -9 5 -9 10 0 13
27 13 35 0 4 -6 1 -18 -6 -26 -10 -12 -9 -13 5 -8 21 8 107 -17 103 -31 -2 -5
-21 -20 -43 -32 -44 -25 -39 -31 6 -8 27 14 32 13 65 -6 20 -12 33 -25 28 -30
-21 -21 -117 -59 -193 -77 -135 -33 -149 -32 -226 13 l-68 40 54 6 c30 3 45 6
33 7 -27 2 -28 10 -7 40 8 12 12 22 7 21 -26 -6 -65 21 -118 82 -33 38 -62 75
-63 82 -2 7 10 -4 27 -23 28 -32 31 -33 31 -12z m1594 -120 c7 -44 -26 -167
-50 -185 -10 -8 -32 -21 -48 -30 -27 -14 -28 -14 -21 3 22 56 21 58 -31 29
-27 -15 -60 -31 -74 -36 -28 -10 -31 -12 74 55 l61 39 -35 13 -35 12 40 -1
c32 -2 40 2 42 18 8 49 27 95 34 83 5 -8 10 -3 14 15 9 34 21 27 29 -15z m216
14 c0 -11 -88 -100 -152 -154 -98 -84 -315 -205 -344 -194 -9 4 -12 2 -8 -5 4
-8 -1 -9 -16 -4 -16 5 -20 4 -15 -5 5 -9 2 -10 -14 -5 -12 4 -21 2 -21 -4 0
-6 -7 -7 -17 -4 -10 4 -14 2 -10 -4 4 -6 -4 -8 -21 -6 -21 4 -24 2 -12 -6 11
-8 7 -9 -19 -4 -22 4 -32 3 -28 -4 4 -6 -4 -8 -21 -5 -27 5 -27 6 8 14 78 19
199 61 195 68 -4 6 136 73 160 76 6 0 15 2 22 2 20 3 165 116 238 185 74 71
75 72 75 59z m-550 -42 c0 -27 -43 -128 -79 -184 -22 -35 -37 -66 -34 -70 3
-3 -2 -16 -13 -28 -10 -12 -14 -18 -7 -15 6 4 13 4 16 0 2 -5 2 -1 0 7 -3 12
-2 13 8 3 42 -42 -152 -79 -326 -63 -68 7 -67 7 36 8 99 2 107 4 129 27 l23
25 -88 0 c-113 0 -107 8 7 11 74 1 90 5 105 22 15 17 15 19 2 15 -9 -4 -28 4
-45 19 -29 25 -29 25 -2 9 34 -20 42 -20 35 -2 -4 10 -1 13 9 9 7 -3 14 -10
14 -15 0 -33 98 105 135 190 15 35 23 42 47 42 15 0 28 -5 28 -10z m-376 -20
c-4 -8 -7 -23 -8 -32 0 -9 -3 -16 -6 -15 -4 1 -33 -27 -66 -63 -32 -36 -44
-53 -26 -38 18 15 45 41 59 59 l27 31 8 -23 c5 -12 7 -28 4 -35 -8 -21 25 -5
63 30 l34 31 -27 -37 c-34 -45 -110 -111 -205 -177 -66 -45 -74 -48 -109 -40
-20 5 -52 9 -70 9 -21 0 -80 24 -160 66 -154 79 -183 102 -51 39 93 -43 98
-45 130 -31 l34 14 -25 10 c-69 27 -142 63 -138 68 3 2 30 -6 59 -19 121 -53
107 -53 200 -5 52 26 107 65 144 100 32 32 63 58 68 58 4 0 6 3 4 8 -3 4 10 7
29 7 27 0 33 -3 28 -15z"/>
<path d="M4619 5738 c-42 -28 -90 -121 -97 -186 -6 -63 14 -81 99 -88 l64 -6
24 83 c45 157 47 176 26 199 -24 27 -73 26 -116 -2z"/>
<path d="M8817 4598 c-9 -104 -9 -173 -1 -181 10 -10 34 4 34 20 0 8 23 38 51
68 44 47 50 58 44 83 -9 42 -71 92 -114 92 -4 0 -11 -37 -14 -82z"/>
<path d="M3829 6747 c-92 -62 -108 -184 -22 -162 30 7 88 64 116 113 17 31 17
31 0 25 -15 -6 -16 -4 -5 9 14 18 10 22 -29 31 -19 5 -36 0 -60 -16z"/>
<path d="M11235 5645 c22 -9 121 -36 220 -60 223 -56 302 -62 955 -75 478 -10
782 -22 985 -40 61 -6 135 -9 165 -9 71 2 -196 24 -455 38 -110 6 -402 16
-650 21 -738 17 -794 22 -1076 95 -172 44 -193 49 -144 30z"/>
<path d="M14649 5577 c-133 -85 -249 -174 -249 -190 1 -10 131 -173 162 -202
32 -30 -24 51 -79 114 -62 71 -64 74 -46 92 29 28 272 199 283 199 6 0 10 4
10 9 0 5 13 14 30 21 26 11 33 30 11 30 -5 0 -60 -33 -122 -73z"/>
</g>
</svg>
