<?xml version="1.0" standalone="no"?>
<!DOCTYPE svg PUBLIC "-//W3C//DTD SVG 20010904//EN"
 "http://www.w3.org/TR/2001/REC-SVG-20010904/DTD/svg10.dtd">
<svg version="1.0" xmlns="http://www.w3.org/2000/svg"
 width="1700.000000pt" height="1100.000000pt" viewBox="0 0 1700.000000 1100.000000"
 preserveAspectRatio="xMidYMid meet">
<metadata>
Created by potrace 1.15, written by Peter Selinger 2001-2017
</metadata>
<g transform="translate(0.000000,1100.000000) scale(0.100000,-0.100000)"
fill="#000000" stroke="none">
<path d="M7280 8213 c-124 -10 -471 -90 -627 -144 -104 -36 -276 -110 -270
-116 2 -2 17 1 33 8 78 30 357 98 484 119 69 11 392 90 432 105 15 6 15 37 -1
33 -3 -1 -26 -3 -51 -5z"/>
<path d="M7687 8184 c-1 -1 -27 -5 -57 -8 -199 -19 -226 -22 -240 -31 -6 -4
-30 -8 -53 -10 -23 -2 -44 -4 -47 -5 -3 -1 -8 -2 -12 -1 -5 0 -8 -3 -8 -8 0
-5 -24 -14 -52 -21 -87 -20 -188 -56 -228 -81 -8 -5 -23 -12 -32 -15 -17 -6
-22 -17 -19 -37 1 -4 -8 -2 -18 5 -15 9 -23 9 -34 -1 -11 -8 -17 -9 -22 -1 -8
13 -35 -5 -35 -24 0 -6 -4 -17 -9 -25 -8 -12 -13 -12 -34 2 -23 15 -26 15 -46
-9 -11 -13 -27 -24 -33 -24 -9 0 -8 3 2 10 8 5 11 12 7 17 -4 4 -17 1 -29 -6
-17 -11 -22 -11 -29 1 -5 8 -9 9 -9 2 0 -7 -9 -14 -20 -17 -11 -3 -20 0 -20 6
0 6 -6 3 -14 -8 -8 -12 -20 -16 -35 -12 -12 3 -21 0 -21 -6 0 -8 -4 -7 -12 1
-16 16 -38 15 -38 -1 0 -10 -15 -13 -50 -13 -27 1 -50 -2 -50 -6 0 -5 -15 -8
-32 -8 -42 0 -233 -43 -281 -64 -20 -8 -37 -19 -37 -25 0 -5 -9 -7 -19 -4 -21
5 -223 -88 -204 -94 6 -2 46 14 89 36 43 23 82 41 87 41 14 0 -2 -49 -29 -89
-13 -19 -24 -31 -24 -26 -1 6 -8 -2 -16 -18 -8 -15 -12 -33 -8 -40 4 -6 4 -9
-1 -5 -10 10 -38 -29 -31 -41 4 -5 3 -17 0 -26 -5 -13 -9 -14 -15 -4 -9 15
-42 -58 -34 -78 2 -8 0 -11 -5 -8 -12 8 -61 -89 -65 -130 -1 -18 -8 -41 -14
-51 -11 -17 -11 -17 -6 4 13 48 -7 18 -50 -75 -25 -53 -44 -104 -43 -113 1 -8
-1 -16 -5 -17 -18 -7 -27 -2 -27 15 -1 24 -42 51 -73 48 -27 -3 -36 11 -18 29
6 6 1 20 -14 37 -18 21 -25 24 -29 13 -7 -19 -36 -19 -36 0 0 7 6 18 14 22 11
6 7 14 -15 36 -26 26 -29 26 -29 8 0 -11 -4 -23 -10 -26 -5 -3 -10 -1 -10 5 0
6 -4 9 -8 6 -13 -8 -36 40 -27 55 5 8 4 10 -3 5 -16 -9 -15 7 0 22 26 26 -6
10 -46 -23 -41 -33 -66 -44 -66 -27 1 4 22 24 48 44 26 21 72 60 102 88 30 27
56 50 58 50 3 0 32 24 66 53 89 78 145 117 162 110 8 -3 21 0 29 7 8 6 20 8
27 4 7 -4 10 -4 6 1 -5 5 6 17 23 27 17 11 29 22 25 25 -7 8 34 39 97 74 29
16 48 29 42 29 -22 0 -642 61 -820 79 -154 17 -215 28 -320 60 -258 78 -524
128 -730 137 -152 8 -200 -2 -248 -49 -107 -107 -181 -396 -236 -915 -23 -212
-26 -292 -12 -292 5 0 15 17 21 38 88 284 228 408 553 489 55 13 101 22 103
20 2 -2 -33 -14 -79 -26 -215 -60 -374 -173 -472 -336 -27 -45 -32 -62 -24
-76 7 -14 6 -17 -5 -13 -8 3 -17 1 -21 -5 -3 -6 -1 -11 4 -11 6 0 11 -7 11
-15 0 -8 -6 -12 -14 -9 -10 4 -19 -10 -31 -45 -18 -54 -15 -95 3 -51 6 14 11
20 11 13 1 -6 -11 -34 -25 -62 -26 -53 -47 -151 -33 -151 5 0 9 -8 10 -17 0
-10 5 -4 10 12 5 17 6 37 4 46 -3 8 2 24 11 35 15 18 15 18 11 -8 -2 -15 0
-25 4 -22 5 3 9 21 9 41 0 32 36 110 46 100 7 -7 -17 -111 -29 -125 -7 -8 -7
-16 -1 -20 15 -11 10 -61 -9 -82 -9 -11 -17 -26 -17 -33 -1 -6 -7 -23 -15 -37
-14 -25 -14 -25 -15 -2 0 48 -18 19 -23 -40 -4 -35 -9 -76 -12 -93 -3 -16 7 2
23 40 16 39 38 88 50 110 l21 40 1 -38 c0 -22 -19 -86 -46 -155 -38 -94 -47
-128 -46 -175 1 -73 9 -100 29 -93 9 4 13 1 10 -6 -2 -7 -10 -12 -16 -10 -16
3 -7 -71 25 -188 31 -115 45 -172 79 -314 14 -59 38 -138 53 -175 22 -53 26
-74 20 -106 -12 -68 -7 -93 7 -30 l12 60 2 -45 c0 -25 10 -59 21 -78 20 -33
27 -92 11 -92 -5 0 -14 14 -21 30 -13 32 -25 38 -33 18 -3 -7 -6 -2 -7 12 -2
19 -4 15 -11 -15 -4 -22 -8 -51 -8 -65 0 -22 1 -23 8 -5 8 20 8 20 15 -1 3
-12 15 -29 26 -39 14 -12 20 -31 20 -59 0 -31 -3 -37 -12 -28 -7 7 -16 12 -20
12 -14 0 -9 -47 7 -60 9 -7 15 -29 15 -52 0 -36 -2 -39 -16 -27 -8 7 -22 25
-30 40 -16 32 -19 104 -4 94 13 -8 13 45 0 65 -8 13 -9 13 -14 0 -10 -31 -14
-200 -5 -205 5 -4 9 -37 9 -75 0 -68 11 -93 32 -72 8 8 8 15 -1 26 -7 8 -11
31 -9 50 2 28 6 34 17 26 21 -13 21 -165 -1 -186 -26 -27 -42 9 -49 110 -5 77
-6 68 -6 -59 0 -82 2 -138 4 -122 5 32 5 32 43 12 25 -13 30 -22 30 -50 0 -39
-13 -44 -48 -19 -13 9 -25 14 -27 13 -2 -2 0 -49 4 -104 5 -55 9 -86 10 -69 1
23 6 31 18 30 14 -1 17 7 14 42 -2 31 1 42 12 42 15 0 27 -58 27 -133 l0 -39
-35 6 c-35 7 -35 6 -35 -28 0 -72 43 -327 80 -472 52 -205 95 -304 163 -377
l26 -27 -24 4 c-25 5 -42 -9 -41 -33 2 -36 140 -73 511 -136 204 -35 323 -58
570 -110 66 -14 145 -31 175 -36 30 -6 120 -27 200 -46 80 -19 161 -39 180
-43 79 -18 326 -82 345 -90 11 -5 56 -18 100 -29 122 -30 319 -86 423 -120
130 -43 202 -82 202 -109 0 -5 18 -30 41 -55 60 -69 122 -92 324 -121 108 -16
374 -42 520 -51 50 -3 124 -7 165 -10 41 -3 192 -12 335 -20 143 -9 274 -18
290 -20 17 -2 71 -6 120 -10 50 -3 140 -10 200 -15 61 -5 155 -12 210 -15 55
-3 210 -13 345 -22 415 -28 1657 -24 2220 7 96 6 256 15 355 20 425 24 1308
111 1720 171 357 51 585 115 585 164 0 15 -43 49 -78 59 -30 10 -21 22 22 29
92 15 296 120 265 137 -17 9 -166 28 -299 38 l-95 7 65 31 c242 114 489 326
632 538 177 265 262 552 262 886 0 208 -31 411 -88 565 -15 40 -15 40 -10 -40
l4 -80 -19 100 c-19 105 -53 201 -106 300 -18 33 -58 109 -89 168 -32 60 -60
106 -63 104 -2 -3 16 -45 40 -93 58 -117 89 -204 85 -240 -3 -27 -7 -30 -53
-36 -27 -3 -122 -5 -210 -2 -197 4 -171 5 -287 -2 -89 -5 -98 -4 -104 13 -4
10 -15 27 -25 38 -24 27 -65 84 -84 117 l-15 28 52 34 c29 18 121 77 203 130
83 53 156 94 163 91 6 -2 12 0 12 6 0 15 70 41 97 36 19 -4 21 -2 11 10 -17
21 -72 12 -138 -21 -28 -14 -57 -23 -62 -19 -6 3 -8 1 -5 -4 6 -10 -43 -37
-59 -33 -4 1 -11 -4 -15 -12 -6 -9 -9 -7 -9 10 0 12 5 22 10 22 6 0 10 -5 10
-11 0 -5 5 -7 10 -4 6 4 8 10 5 15 -3 5 3 13 12 19 16 9 16 10 -4 11 -12 0
-23 6 -26 13 -2 6 -8 9 -12 5 -4 -4 -2 -14 5 -23 10 -12 10 -15 -4 -15 -9 0
-16 7 -16 17 0 9 -3 14 -6 10 -4 -3 -13 0 -21 8 -17 17 -39 19 -48 5 -3 -5
-12 -10 -18 -10 -7 0 -6 4 3 11 11 8 12 12 3 15 -9 4 -7 12 7 26 20 22 18 38
-5 38 -8 0 -12 -6 -9 -14 3 -8 1 -17 -4 -20 -5 -3 -8 5 -7 18 4 29 44 78 58
69 6 -3 7 -1 3 5 -4 7 -4 12 1 12 4 0 9 11 9 24 2 35 -95 148 -196 229 -75 60
-244 157 -300 172 -14 3 21 -18 78 -47 56 -29 129 -72 161 -96 76 -56 231
-215 231 -237 0 -9 -25 -42 -56 -73 -32 -32 -51 -49 -44 -39 8 11 10 21 4 25
-13 10 -16 32 -4 32 6 0 10 5 10 10 0 6 -11 10 -25 10 -14 0 -25 5 -25 11 0 8
-4 8 -14 0 -10 -9 -16 -8 -26 4 -10 12 -10 15 1 16 8 0 5 4 -6 9 -14 6 -15 9
-5 9 9 1 22 -5 29 -11 11 -11 13 -10 8 4 -4 12 -2 15 9 11 10 -4 14 2 13 18 0
13 -3 18 -6 12 -7 -20 -76 -15 -128 7 -43 18 -46 22 -34 38 13 15 12 16 -3 4
-14 -11 -15 -17 -5 -33 7 -11 20 -22 30 -25 9 -3 15 -10 11 -15 -4 -6 -11 -6
-19 1 -10 8 -15 8 -20 -1 -6 -8 -10 -7 -17 2 -8 11 -9 11 -5 -1 2 -8 10 -14
16 -13 6 2 11 -1 11 -6 0 -5 -11 -8 -24 -7 -13 0 -24 3 -24 6 2 35 -14 40 -31
8 -11 -22 -11 -21 -8 8 2 17 -3 36 -12 44 -12 12 -13 10 -8 -12 6 -24 5 -26
-30 -26 -21 0 -39 -5 -41 -11 -6 -17 -32 -13 -32 4 0 22 -14 18 -25 -7 -6 -12
-17 -23 -25 -25 -11 -3 -10 0 3 10 15 12 15 16 3 20 -8 3 -17 1 -20 -6 -2 -7
-5 -4 -5 6 -1 10 -6 15 -12 12 -6 -4 -8 -13 -5 -20 8 -21 -5 -26 -22 -8 -14
14 -17 14 -28 -1 -11 -16 -49 -12 -39 4 2 4 -7 5 -21 2 -13 -2 -29 -13 -34
-23 -6 -10 -19 -21 -30 -24 -26 -8 -26 -21 0 -28 16 -4 19 -11 15 -29 -4 -17
1 -32 19 -51 27 -29 34 -43 16 -32 -5 3 -10 2 -10 -4 0 -5 12 -16 27 -23 15
-7 33 -24 40 -38 7 -14 13 -21 13 -16 0 4 15 -3 33 -16 17 -13 40 -27 50 -31
19 -7 23 -32 7 -42 -5 -3 -10 1 -10 9 0 9 -5 16 -11 16 -5 0 -7 -4 -4 -10 11
-17 -7 -11 -21 8 -11 14 -15 15 -23 3 -7 -11 -10 -9 -16 9 -4 12 -10 18 -14
13 -15 -22 -39 -21 -51 3 -18 32 -32 31 -24 -3 7 -25 6 -26 -33 -21 -41 6
-118 50 -127 73 -4 10 7 13 45 11 27 -1 49 2 49 7 0 4 -4 6 -8 3 -4 -2 -14 -1
-22 4 -7 4 -24 4 -37 -1 -13 -5 -23 -5 -23 0 0 5 -9 7 -20 4 -11 -3 -20 0 -20
6 0 6 5 11 10 11 6 0 10 6 10 13 -1 6 -9 2 -20 -11 -17 -20 -20 -21 -28 -6 -6
10 -16 15 -26 11 -11 -4 -16 -1 -17 11 0 10 -3 12 -6 5 -3 -10 -11 -9 -33 2
-16 8 -39 15 -51 15 -22 0 -22 0 -3 -16 18 -15 18 -15 -8 -11 -15 2 -25 0 -22
-4 3 -5 -5 -9 -18 -9 -19 0 -24 5 -24 25 0 14 4 25 8 25 4 0 8 -7 8 -16 0 -23
25 4 33 36 5 22 5 23 -7 7 -14 -18 -45 -18 -68 -1 -25 20 -38 25 -38 15 0 -6
6 -11 14 -11 14 0 30 -29 21 -38 -3 -3 -5 0 -5 7 0 7 -4 9 -10 6 -5 -3 -10 -1
-10 5 0 6 -8 4 -17 -6 -17 -17 -18 -16 -24 12 l-7 29 -1 -27 c0 -15 -5 -29
-10 -33 -6 -3 -9 7 -8 22 2 21 -2 27 -15 25 -10 -1 -27 7 -38 18 -12 12 -28
19 -37 16 -11 -4 -13 -2 -9 9 7 19 -43 21 -63 3 -8 -7 -11 -8 -8 -2 8 13 -60
36 -69 23 -3 -5 -15 0 -27 12 -19 17 -23 18 -33 4 -13 -17 -34 -20 -34 -4 0 5
5 7 10 4 6 -3 10 -2 10 4 0 11 -83 7 -102 -5 -9 -5 -9 -3 1 9 12 15 11 17 -3
17 -9 0 -16 -4 -16 -10 0 -17 -22 -11 -40 10 -16 18 -20 19 -33 6 -13 -14 -15
-13 -20 4 -5 21 -31 27 -42 10 -3 -5 -16 -10 -28 -9 -20 1 -20 2 3 9 23 7 23
8 -9 9 -26 1 -32 -2 -27 -15 3 -8 2 -12 -4 -9 -6 3 -10 12 -10 20 0 8 -6 18
-14 22 -7 4 -16 15 -19 23 -4 12 -6 11 -6 -2 -1 -19 -21 -25 -21 -7 0 6 -7 8
-15 5 -9 -3 -25 0 -37 7 -17 10 -22 9 -25 -1 -4 -10 -9 -9 -24 4 -13 12 -29
15 -54 11 -20 -3 -35 -2 -35 4 0 6 5 7 12 3 6 -4 8 -3 4 4 -7 12 -56 6 -71 -9
-5 -5 -14 -9 -20 -9 -5 0 -1 7 9 15 17 13 17 15 3 15 -10 0 -14 5 -11 15 4 8
1 15 -5 15 -6 0 -11 -4 -11 -10 0 -5 -5 -10 -11 -10 -7 0 -9 9 -6 23 l6 22
-19 -23 -19 -23 -7 25 c-8 34 -22 25 -18 -11 3 -20 0 -17 -10 12 -8 22 -15 35
-15 29 -1 -7 -10 -14 -22 -17 -16 -4 -18 -3 -9 8 8 9 7 14 -5 19 -9 3 -15 0
-15 -9 0 -16 -12 -18 -47 -9 -13 4 -20 11 -17 16 4 6 -2 5 -14 -1 -25 -14 -35
-14 -27 -2 8 14 -35 35 -47 23 -11 -11 -48 -4 -48 8 0 4 -11 8 -25 8 -13 0
-22 -4 -19 -9 3 -5 -4 -9 -16 -9 -12 0 -19 4 -16 8 3 5 -17 8 -44 8 -36 -1
-50 3 -50 12 0 8 -6 12 -14 9 -8 -3 -17 -1 -20 6 -3 9 -5 8 -5 -1 -1 -7 6 -15
14 -18 24 -10 17 -26 -7 -18 -13 4 -25 9 -28 13 -3 3 -16 7 -30 7 -14 1 -35 5
-48 9 -19 6 -21 5 -15 -11 7 -19 6 -19 -12 0 -18 18 -19 18 -26 0 -7 -18 -10
-15 -13 16 0 8 -10 16 -21 17 -11 2 -14 0 -7 -3 23 -11 12 -22 -15 -15 -20 6
-31 3 -40 -8 -11 -14 -12 -14 -13 2 0 16 -20 26 -20 9 0 -4 -15 -9 -32 -10
-31 -3 -32 -2 -13 12 24 18 20 19 -23 7 -25 -8 -32 -7 -32 5 0 21 -14 17 -38
-11 -23 -26 -46 -26 -35 0 7 20 -7 19 -22 -2 -8 -10 -17 -13 -25 -8 -11 7 -10
10 5 15 12 4 15 9 8 13 -6 4 -18 1 -26 -7 -8 -9 -18 -11 -23 -6 -13 13 -86 21
-79 9 4 -5 -3 -9 -15 -9 -12 0 -19 4 -16 9 8 12 -27 9 -36 -3 -4 -6 -12 -6
-20 1 -13 11 -101 9 -168 -2 -26 -5 -31 -4 -20 4 8 6 10 11 4 11 -5 0 -15 -5
-21 -11 -8 -8 -16 -8 -30 1 -17 11 -17 11 2 5 15 -4 17 -3 9 5 -8 8 -18 8 -38
-1 -23 -11 -29 -10 -37 2 -5 8 -9 9 -9 3 0 -6 11 -23 25 -38 14 -15 25 -31 25
-37 0 -5 10 -9 21 -9 12 0 28 -8 35 -17 7 -10 17 -18 22 -18 6 0 29 -17 52
-39 33 -30 44 -36 51 -25 6 10 9 6 9 -13 0 -20 4 -26 15 -22 10 4 15 0 15 -15
0 -12 5 -21 12 -21 9 0 9 -3 0 -12 -10 -10 -15 -10 -22 2 -7 12 -12 12 -22 2
-13 -13 -32 -17 -24 -4 2 4 1 14 -5 22 -7 13 -9 12 -9 -2 0 -10 -4 -18 -10
-18 -5 0 -10 7 -10 15 0 21 -18 19 -23 -2 -4 -16 -5 -16 -6 1 -1 15 -4 16 -16
6 -12 -10 -15 -10 -15 3 0 11 -5 14 -16 10 -9 -3 -20 0 -24 7 -7 11 -12 11
-26 -1 -16 -12 -17 -12 -12 2 5 13 2 16 -12 12 -11 -3 -27 2 -35 11 -9 9 -26
16 -39 16 -12 0 -27 5 -32 10 -6 6 -23 13 -39 16 -15 3 -38 10 -49 17 -12 7
-25 12 -31 13 -5 0 -17 4 -25 7 -50 19 -89 27 -106 21 -10 -4 -16 -4 -12 1 14
15 -33 44 -82 50 -37 6 -80 28 -73 38 4 7 0 6 -9 -1 -14 -11 -20 -10 -35 5
-10 10 -28 17 -40 15 -13 -2 -23 2 -23 8 0 7 -8 10 -20 7 -17 -4 -44 13 -37
24 1 2 -4 -2 -10 -10 -7 -8 -13 -11 -13 -5 0 5 -9 15 -20 21 -15 10 -22 10
-34 -2 -9 -10 -17 -11 -21 -5 -3 5 -1 10 6 10 8 0 8 4 1 13 -8 9 0 12 36 10
l47 -2 -42 9 c-22 5 -59 18 -82 29 -56 29 -62 26 -21 -10 19 -17 28 -27 20
-23 -8 5 -24 8 -35 9 -11 0 -31 8 -44 17 -17 12 -29 14 -42 7 -12 -6 -20 -5
-25 3 -5 7 -3 8 6 3 9 -5 11 -4 6 4 -4 7 -13 10 -19 8 -6 -2 -75 45 -153 104
-77 59 -178 128 -223 154 -44 26 -81 48 -81 49 0 6 237 -63 360 -103 307 -102
540 -167 540 -152 0 13 -78 52 -84 42 -9 -14 -322 73 -586 164 -41 14 -133 41
-203 61 -71 19 -136 38 -145 41 -15 4 -15 3 -2 -7 12 -9 10 -11 -10 -6 -65 15
-72 15 -35 1 22 -9 45 -13 52 -11 7 3 13 1 13 -4 0 -6 8 -10 18 -10 55 0 432
-255 416 -281 -3 -6 -11 -5 -20 2 -7 6 -11 16 -7 22 4 6 0 8 -10 4 -10 -4 -16
-2 -14 6 1 7 -8 11 -23 9 -17 -1 -21 1 -11 7 19 12 2 18 -51 17 -25 -1 -45 1
-42 5 6 10 -30 38 -53 42 -12 1 -27 8 -35 14 -7 6 -21 9 -30 8 -10 -2 -18 1
-18 7 0 6 -7 8 -15 4 -9 -3 -15 0 -15 9 0 9 -6 12 -15 9 -8 -4 -15 -2 -15 2 0
5 -10 10 -23 11 -50 5 -63 9 -76 21 -7 7 -19 11 -27 8 -7 -3 -14 0 -16 5 -3
10 -54 25 -118 36 -19 3 -42 9 -50 13 -17 9 -109 24 -127 21 -6 -1 -14 3 -18
8 -3 6 -12 8 -20 4 -9 -3 -21 0 -29 6 -9 8 -22 8 -39 2 -18 -7 -27 -7 -31 2
-3 9 -7 8 -14 -2 -8 -10 -10 -11 -14 0 -2 7 -23 14 -45 15 -23 1 -58 5 -78 8
-20 3 -34 3 -32 -1 3 -5 -32 -8 -78 -8 -67 0 -87 -4 -104 -19 -12 -11 -21 -16
-21 -12 0 4 -10 2 -21 -5 -15 -8 -19 -8 -15 0 4 6 0 14 -10 18 -10 4 -20 0
-26 -11 -6 -11 -14 -14 -21 -8 -11 8 -26 8 -44 2 -10 -4 -32 -7 -62 -9 -16 -1
-21 -6 -18 -15 5 -11 -1 -14 -21 -13 -19 1 -27 -3 -26 -14 1 -16 -22 -19 -44
-5 -7 4 -12 2 -12 -7 0 -9 -11 -15 -27 -16 -61 -2 -71 -5 -65 -20 4 -11 0 -13
-16 -9 -12 4 -22 2 -22 -3 0 -5 -8 -9 -17 -10 -11 0 -13 -3 -5 -6 6 -2 12 -9
12 -14 0 -6 -4 -7 -10 -4 -20 12 -81 -7 -90 -29 -5 -13 -9 -15 -10 -6 0 12 -2
12 -9 2 -4 -7 -14 -12 -22 -10 -9 2 -13 -4 -11 -19 2 -14 -4 -26 -17 -33 -17
-9 -20 -8 -15 5 4 8 10 15 16 15 5 0 6 5 3 10 -4 6 1 22 10 37 9 14 13 23 7
19 -5 -3 -15 0 -21 8 -9 11 -8 17 4 29 17 17 20 31 5 22 -5 -3 -10 -1 -10 4 0
6 5 11 11 11 7 0 9 10 5 27 -5 17 -3 29 6 35 9 7 8 8 -5 4 -10 -3 -20 0 -23 9
-3 7 -12 11 -19 9 -8 -3 -22 -1 -31 4 -13 7 -22 6 -32 -4 -8 -8 -19 -11 -26
-7 -14 11 -31 9 -81 -5 -48 -14 -65 -15 -45 -2 10 7 11 10 2 10 -7 0 -15 -6
-18 -14 -4 -11 -12 -13 -30 -6 -14 6 -24 6 -24 0 0 -5 -14 -8 -31 -8 -17 1
-35 -5 -41 -13 -6 -9 -11 -10 -14 -3 -2 6 -18 8 -35 6 -22 -3 -27 -7 -18 -13
11 -7 9 -9 -6 -10 -43 -3 -64 -6 -80 -12 -9 -4 -14 -3 -10 3 3 6 1 10 -4 10
-6 0 -11 -4 -11 -9 0 -4 -12 -6 -26 -3 -19 3 -25 1 -20 -7 9 -14 0 -14 -27 1
-12 6 -35 13 -52 14 -49 5 -54 7 -49 16 3 5 -10 7 -30 5 -20 -2 -37 1 -40 7
-2 6 -5 -1 -5 -16 -1 -16 -6 -28 -12 -28 -5 0 -8 3 -6 8 2 4 -6 17 -19 30 -16
15 -24 18 -24 9 0 -20 -29 -17 -36 5 -10 33 -44 4 -46 -40 -1 -37 -1 -37 -5
-4 -3 19 -10 32 -19 32 -12 0 -18 12 -15 32 2 14 -42 20 -51 7 -7 -10 -8 -6
-5 14 5 31 -8 37 -16 7 -5 -21 -33 -37 -45 -26 -3 4 0 12 8 17 13 9 12 10 -2
6 -10 -4 -18 1 -21 14 -3 10 0 19 6 19 6 0 7 3 3 7 -4 5 -14 0 -21 -10 -11
-16 -11 -21 6 -38 23 -23 27 -58 5 -39 -8 6 -12 19 -9 27 5 12 2 15 -10 10 -9
-3 -17 -2 -17 3 0 6 -5 10 -11 10 -6 0 -9 -6 -6 -14 4 -10 0 -12 -14 -9 -14 4
-17 9 -9 18 8 9 6 14 -6 19 -9 3 -20 4 -25 1 -5 -4 -6 2 -2 12 6 16 5 17 -12
3 -15 -13 -17 -13 -14 -1 7 21 24 24 40 9 18 -17 69 -22 69 -8 0 6 -4 8 -10 5
-5 -3 -21 1 -34 10 -32 21 -59 25 -69 11 -6 -7 -7 -6 -4 4 2 8 10 14 16 12 6
-1 11 2 11 8 0 14 -11 12 -31 -6 -19 -17 -44 -10 -33 8 4 6 2 8 -3 5 -14 -9
-25 35 -16 59 4 12 3 15 -5 10 -16 -10 -15 7 1 23 9 10 7 10 -11 0 -12 -8 -20
-19 -18 -25 3 -7 -3 -10 -15 -7 -22 6 -25 19 -6 26 6 3 2 6 -11 6 -25 1 -55
24 -45 35 4 3 1 6 -5 6 -10 0 -42 -27 -42 -35 0 -3 7 -2 15 1 9 4 15 0 15 -9
0 -9 6 -17 13 -20 6 -2 2 -2 -10 -1 -14 3 -23 -2 -27 -13 -3 -11 -4 -8 -3 7 2
18 -3 25 -17 25 -11 0 -20 6 -22 13 -1 7 0 8 3 2 7 -15 17 -12 32 11 11 19 11
21 -3 16 -10 -4 -16 -1 -16 9 0 11 4 12 19 4 25 -13 24 -13 49 9 27 23 28 41
2 41 -14 0 -18 5 -13 18 6 16 5 16 -14 -1 -21 -18 -41 -9 -28 13 3 5 0 7 -8 4
-8 -3 -18 0 -22 6 -6 9 -9 9 -15 0 -6 -9 -11 -7 -19 9 -14 25 -33 28 -24 4 6
-16 5 -16 -10 -5 -9 8 -19 23 -22 33 -4 11 -12 19 -18 18 -34 -4 -57 2 -57 16
0 8 -9 15 -21 15 -12 0 -18 4 -13 11 9 15 -17 30 -32 18 -8 -7 -14 -6 -19 1
-3 6 -11 7 -17 4 -6 -4 -8 2 -3 17 4 15 3 19 -3 11 -5 -7 -17 -10 -28 -6 -14
4 -16 4 -5 -4 11 -8 8 -10 -12 -9 -18 2 -23 5 -16 14 8 8 -2 13 -35 18 -24 4
-49 4 -55 1 -6 -4 -13 5 -17 19 -6 24 -10 26 -53 22 -25 -3 -40 -3 -33 0 18 7
15 22 -5 22 -55 2 -77 7 -81 19 -2 6 -13 12 -25 12 -18 0 -19 -2 -7 -11 13 -9
13 -10 0 -6 -8 2 -15 11 -14 18 1 8 -7 15 -17 15 -11 0 -19 -7 -19 -15 0 -8
-10 -3 -26 15 -19 21 -23 23 -15 7 7 -14 8 -24 1 -28 -10 -6 -14 1 -11 19 1 5
-5 6 -14 3 -8 -4 -15 -2 -15 4 0 6 -5 7 -12 3 -6 -4 -17 1 -25 12 -14 18 -15
18 -24 1 -8 -14 -14 -16 -25 -6 -10 8 -14 8 -14 0 0 -6 -9 -11 -20 -11 -11 0
-20 6 -20 13 0 8 -2 9 -8 1 -8 -12 -92 -16 -92 -4 0 4 -7 7 -15 7 -8 0 -15 -9
-15 -19 0 -10 -5 -18 -11 -18 -5 0 -7 5 -4 10 4 6 -10 10 -34 10 -22 0 -43 5
-46 11 -5 7 -12 5 -23 -5 -10 -8 -21 -15 -25 -14 -5 0 -12 -4 -15 -8 -4 -4 -2
-4 5 0 6 3 15 1 18 -5 5 -7 0 -10 -11 -7 -11 2 -18 11 -16 20 1 9 -5 18 -13
22 -9 3 -13 2 -10 -4 3 -6 -2 -10 -12 -10 -21 0 -43 -18 -43 -34 0 -6 5 -5 12
2 7 7 19 12 28 12 12 -1 12 -3 -3 -11 -32 -19 -67 -21 -67 -4 0 8 -4 15 -10
15 -5 0 -7 -7 -4 -15 7 -18 -7 -20 -24 -3 -9 9 -12 8 -12 -4 0 -9 5 -20 11
-23 17 -11 -21 -32 -47 -27 -13 2 -24 10 -24 18 0 8 -6 11 -17 7 -11 -4 -14
-3 -9 5 4 7 2 12 -4 12 -6 0 -9 4 -6 9 4 5 -4 7 -16 3 -21 -5 -22 -4 -9 12 13
15 12 16 -13 6 -18 -6 -25 -6 -21 0 3 6 1 10 -5 10 -6 0 -9 4 -6 8 3 5 -2 9
-10 9 -8 0 -13 -6 -10 -12 2 -6 -5 -17 -15 -23 -16 -11 -19 -9 -19 8 0 24 -27
37 -43 21 -6 -6 -20 -12 -32 -12 -15 -1 -16 -2 -4 -6 9 -2 19 -15 22 -29 5
-28 0 -30 -24 -8 -13 12 -19 12 -25 3 -5 -8 -3 -10 6 -4 9 5 11 4 6 -4 -4 -6
-2 -19 5 -27 9 -12 10 -17 0 -27 -10 -9 -11 -8 -5 7 5 13 4 17 -4 12 -7 -4
-12 -4 -12 1 0 4 -3 32 -6 61 -5 39 -2 63 11 92 16 36 23 40 99 63 96 30 247
73 331 95 86 23 390 22 555 -2 289 -41 401 -52 396 -40 -3 7 3 14 13 17 24 6
131 -117 131 -149 0 -26 15 -40 26 -23 4 8 3 9 -4 5 -7 -4 -12 -2 -12 3 0 16
16 13 31 -6 8 -9 9 -14 4 -11 -6 4 -17 -3 -24 -15 -11 -18 -11 -20 0 -9 19 18
28 15 24 -8 -3 -15 3 -24 21 -31 14 -5 28 -18 31 -29 3 -11 8 -18 12 -16 3 2
20 -3 36 -10 17 -7 24 -13 16 -14 -11 0 -11 -3 -1 -15 11 -13 14 -13 27 2 13
17 14 16 9 -5 -3 -18 -1 -22 10 -18 8 3 13 2 10 -3 -7 -10 27 -41 75 -68 62
-35 192 -76 279 -88 14 -2 38 -6 54 -11 25 -6 28 -5 23 10 -5 12 -3 15 6 9 13
-8 17 -9 62 -12 27 -2 28 -3 10 -12 -16 -7 -13 -8 13 -4 18 2 31 1 27 -4 -3
-5 3 -7 12 -5 27 7 210 -31 190 -39 -16 -6 -16 -8 1 -24 9 -10 38 -28 62 -41
25 -12 59 -31 77 -41 18 -10 86 -26 157 -36 113 -16 145 -17 303 -7 98 7 223
12 278 12 55 0 166 10 245 22 106 15 195 21 335 22 143 1 175 3 130 9 -33 5
-145 5 -250 1 -255 -11 -507 -11 -577 -1 -33 5 -66 17 -80 29 l-23 20 35 -6
c91 -14 152 -14 230 -2 l85 14 -146 1 c-171 1 -175 3 -185 97 -8 77 13 500 31
633 18 126 18 124 3 115 -7 -4 -8 -3 -4 5 4 6 11 9 16 6 12 -7 33 22 24 36 -4
7 -3 9 3 6 11 -7 48 39 48 60 0 7 3 12 6 10 3 -1 25 15 49 36 61 53 247 141
350 166 302 75 600 65 925 -28 131 -38 180 -66 238 -135 31 -36 58 -56 84 -64
21 -6 153 -25 293 -42 520 -62 872 -141 1225 -277 209 -81 295 -133 478 -292
93 -81 108 -100 246 -307 80 -121 162 -246 181 -277 39 -63 39 -63 128 -72
l64 -6 -60 88 c-33 48 -116 174 -185 278 -69 105 -189 278 -267 385 -78 107
-158 224 -178 260 -59 106 -143 182 -264 239 -171 81 -426 170 -693 242 -44
11 -105 28 -135 36 -299 80 -930 207 -1259 253 -236 33 -594 34 -786 1 -248
-42 -323 -74 -423 -180 -32 -34 -39 -38 -25 -16 20 34 70 85 82 85 4 0 16 9
26 20 10 11 24 20 30 20 7 0 18 7 25 15 7 8 16 12 21 9 5 -3 11 1 14 8 3 7 22
14 42 16 20 1 40 7 44 13 4 7 12 8 19 4 9 -6 11 -4 5 5 -6 10 -2 11 20 6 15
-4 31 -3 34 2 3 5 40 13 80 16 41 4 79 10 85 13 5 4 32 8 60 9 28 2 61 5 74 8
13 3 22 0 22 -7 0 -9 2 -9 8 0 6 9 36 13 93 13 46 0 91 0 99 1 26 1 114 -9
143 -16 18 -5 27 -3 27 5 0 6 5 8 11 4 18 -11 102 -10 106 1 1 6 -7 11 -19 11
-149 9 -199 13 -210 20 -11 7 -454 14 -461 8z m724 -203 c-7 -5 -10 -14 -6
-20 4 -7 1 -18 -5 -26 -7 -9 -8 -15 -2 -15 5 0 15 7 22 15 16 20 39 19 47 -1
4 -10 8 -12 13 -4 3 6 14 8 23 4 9 -3 15 -9 13 -13 -3 -4 6 -8 20 -9 24 -2 33
12 14 23 -5 3 -10 0 -10 -7 0 -10 -3 -9 -9 2 -6 8 -7 18 -5 22 3 5 -7 6 -22 4
l-27 -5 22 20 c22 21 41 18 41 -7 0 -8 9 -14 19 -14 25 0 38 20 14 21 -16 1
-16 2 -1 6 9 2 27 -1 38 -7 21 -11 21 -12 3 -26 -17 -13 -17 -14 0 -8 10 4 17
3 15 -2 -2 -5 1 -10 7 -11 5 -2 10 3 11 10 0 6 2 17 2 22 2 13 82 7 82 -6 0
-4 -8 -5 -17 -2 -17 6 -17 6 0 -11 17 -18 19 -18 31 -1 9 12 18 15 27 9 8 -5
21 -7 31 -6 9 2 19 -2 23 -8 3 -5 18 -8 33 -5 15 3 21 2 15 -1 -7 -3 -13 -12
-13 -20 0 -11 -5 -12 -17 -6 -10 5 -24 7 -30 5 -7 -3 -13 0 -13 6 0 6 5 11 12
11 6 0 8 3 5 7 -4 3 -16 -2 -27 -12 -19 -17 -25 -14 -20 10 1 6 -3 6 -10 -1
-15 -15 -21 -54 -8 -54 5 0 8 6 5 14 -4 10 2 13 19 12 14 0 22 -6 20 -13 -3
-6 1 -14 9 -17 9 -3 12 0 8 10 -3 9 1 14 12 14 9 0 14 -4 11 -9 -4 -5 1 -8 10
-7 8 1 19 8 24 15 4 8 12 11 18 7 5 -3 9 1 8 9 0 7 2 14 7 14 30 3 47 0 47 -9
0 -5 -6 -7 -14 -4 -8 3 -16 1 -20 -4 -6 -10 30 -9 40 1 12 11 24 8 22 -5 -2
-7 3 -12 10 -10 6 1 12 -5 12 -14 0 -13 3 -14 13 -5 8 6 18 7 23 3 4 -4 2 1
-5 11 -12 15 -11 17 4 17 21 0 16 -29 -7 -44 -13 -8 -25 -6 -47 7 -35 20 -69
14 -46 -9 18 -19 31 -18 15 1 -13 16 -10 18 14 9 13 -5 13 -10 4 -27 -10 -20
-10 -21 6 -8 9 8 19 11 23 7 3 -3 17 1 29 9 13 8 25 11 29 6 3 -5 0 -11 -7
-13 -9 -3 -9 -6 1 -12 8 -5 14 -1 18 14 3 13 11 19 19 16 20 -8 17 4 -3 20
-15 11 -15 13 -3 14 23 0 43 -16 36 -29 -4 -6 -5 -11 -2 -11 2 0 12 -3 22 -7
11 -4 15 -3 10 5 -12 21 13 23 34 2 11 -11 25 -20 31 -20 5 0 7 -5 4 -10 -4
-7 -12 -7 -25 0 -24 13 -40 13 -40 -1 0 -5 4 -7 10 -4 5 3 18 1 29 -5 14 -7
22 -7 26 0 4 6 22 8 43 5 21 -4 32 -3 25 2 -8 5 -9 14 -3 23 8 12 10 12 15 -2
4 -9 13 -14 21 -11 8 3 14 -1 14 -11 0 -19 -3 -18 37 -7 17 5 34 7 37 4 3 -3
21 -7 41 -9 45 -4 55 -11 49 -32 -4 -13 -3 -13 7 2 12 19 12 19 26 0 11 -15
15 -16 22 -5 6 9 15 11 27 6 19 -9 30 -11 72 -14 15 0 21 -5 16 -13 -4 -7 -3
-8 5 -4 6 4 26 3 44 -2 17 -6 45 -13 60 -16 15 -4 25 -11 22 -17 -4 -6 5 -8
24 -4 19 3 31 1 31 -5 0 -6 5 -8 11 -5 5 4 19 -1 30 -11 10 -9 19 -12 19 -6 0
5 9 8 21 5 16 -5 18 -8 7 -15 -9 -6 -4 -8 17 -7 60 4 69 1 54 -18 -13 -16 -12
-17 3 -5 14 11 24 11 53 2 31 -10 34 -14 23 -28 -12 -13 -10 -14 9 -4 30 16
46 15 39 -3 -4 -13 -2 -14 14 -5 16 8 20 8 20 -4 0 -8 4 -18 10 -21 6 -3 7 1
4 9 -7 19 -6 19 35 5 17 -6 31 -15 31 -21 0 -5 4 -7 8 -4 12 7 82 -13 82 -23
0 -5 17 -12 37 -16 21 -4 85 -29 142 -56 94 -44 114 -59 195 -142 74 -74 244
-299 300 -396 5 -9 -33 25 -85 74 -113 109 -161 143 -282 200 -276 130 -743
270 -1047 315 -247 37 -434 62 -555 74 -77 8 -151 17 -165 20 -28 6 -62 42
-99 105 -14 22 -27 38 -30 36 -2 -3 -14 1 -25 8 -46 29 -269 93 -393 113 -24
3 -40 11 -37 15 3 5 9 7 14 4 11 -7 50 30 50 46 0 8 6 7 16 -2 15 -12 16 -11
9 10 -7 23 6 41 30 41 6 0 4 -4 -4 -9z m-1728 -200 c121 -33 145 -76 127 -228
-17 -146 -78 -553 -90 -592 -15 -52 -82 -214 -94 -228 -16 -18 -484 66 -619
112 -136 45 -257 102 -257 120 0 8 26 72 59 142 32 71 93 205 136 298 101 221
175 368 189 377 23 16 27 7 5 -11 l-24 -20 45 15 c68 21 284 44 375 39 44 -3
111 -13 148 -24z m178 -241 c-23 -218 -91 -582 -112 -604 -23 -25 -19 4 31
224 41 178 70 373 71 482 1 85 2 90 12 53 7 -29 7 -72 -2 -155z m-1870 -1415
c82 -58 129 -195 129 -372 0 -89 -26 -322 -55 -488 -40 -232 -108 -408 -174
-452 -159 -107 -372 168 -422 544 -14 109 -6 316 16 398 44 167 151 316 268
375 55 28 70 31 129 28 55 -3 75 -9 109 -33z m2063 -33 c6 -10 -89 -144 -96
-136 -3 3 -33 -48 -66 -114 -73 -144 -133 -324 -171 -514 -26 -133 -32 -149
-81 -228 -127 -202 -214 -451 -255 -725 -8 -55 -15 -115 -15 -132 0 -18 -5
-33 -11 -33 -20 0 -221 90 -349 157 -265 137 -474 304 -616 493 -146 193 -186
359 -125 520 28 73 118 187 204 257 228 188 492 304 858 379 251 51 709 99
723 76z m2206 -239 c155 -34 170 -41 212 -104 84 -127 138 -276 138 -381 0
-56 7 -54 -130 -34 -167 26 -224 64 -325 219 -110 170 -161 304 -124 328 18
12 85 4 229 -28z m296 -79 c46 -14 86 -34 97 -47 12 -16 16 -17 11 -4 -10 27
14 20 31 -10 13 -23 15 -24 10 -5 l-6 22 43 -16 c24 -9 51 -26 60 -38 19 -23
24 -56 8 -56 -5 0 -7 -7 -4 -15 4 -8 2 -15 -4 -15 -5 0 -12 9 -15 20 -3 11 -9
20 -15 20 -8 0 0 -34 26 -110 3 -8 13 -44 23 -80 10 -36 18 -59 18 -52 1 7 6
10 11 7 6 -3 10 -26 10 -51 l0 -44 -57 0 c-72 0 -103 8 -103 26 0 8 -4 14 -10
14 -5 0 -10 -7 -10 -15 0 -16 -18 -20 -36 -7 -6 4 -15 38 -19 76 -12 117 -61
243 -136 353 -44 64 -44 64 67 27z m514 -120 c87 -20 216 -84 263 -129 97 -97
-5 -168 -243 -169 -94 -1 -122 3 -153 18 -113 56 -131 237 -28 280 46 19 81
19 161 0z m-2432 -136 c29 -29 5 -108 -34 -108 -22 0 -17 -11 22 -51 l36 -37
-46 -7 c-42 -7 -50 -5 -75 19 -35 34 -41 33 -41 -7 0 -30 -4 -35 -37 -45 -22
-7 -41 -8 -46 -3 -5 5 -6 54 -2 110 l7 101 52 14 c94 27 147 31 164 14z m2867
-68 c65 -22 101 -40 127 -65 53 -52 56 -78 15 -121 l-34 -36 -122 16 c-68 8
-136 22 -152 30 -16 8 -31 10 -35 5 -3 -5 -17 -9 -31 -9 -24 0 -25 2 -20 37 6
37 22 61 33 51 3 -3 -2 -21 -11 -40 l-16 -33 20 25 c11 14 21 32 21 42 0 13
39 36 71 42 19 3 36 36 32 59 -3 15 -1 27 3 27 5 0 50 -14 99 -30z m-3158
-214 c-29 -14 -41 -16 -46 -7 -13 20 -81 -17 -81 -44 0 -14 -14 -32 -37 -49
l-38 -26 -3 77 c-1 43 1 103 5 133 l8 55 70 37 69 36 46 -96 47 -97 -40 -19z
m3442 24 c4 0 11 3 15 8 12 12 30 9 43 -8 9 -11 12 -12 13 -2 0 7 4 11 9 8 5
-4 21 -2 35 3 20 8 24 7 19 -5 -3 -8 -2 -14 3 -13 19 3 32 -2 51 -19 16 -14
38 -17 101 -17 44 0 78 -4 75 -8 -2 -4 25 -5 61 -2 43 4 66 2 66 -4 0 -6 12
-11 26 -11 14 0 23 4 19 10 -3 6 1 10 9 10 14 0 20 -16 17 -45 0 -5 6 -1 14
11 11 15 23 20 40 16 14 -2 23 -8 20 -12 -3 -5 8 -3 24 3 17 6 27 15 24 21 -9
15 60 -2 77 -19 10 -10 10 -15 2 -15 -7 0 -12 4 -12 9 0 5 -9 11 -20 14 -17 4
-18 2 -10 -13 17 -31 29 -32 55 -4 19 20 25 23 25 11 0 -21 45 -33 73 -19 12
6 33 13 47 17 21 5 22 4 8 -5 -10 -6 -18 -15 -18 -20 0 -9 45 -4 64 7 6 4 5
-1 -3 -10 -7 -9 -12 -18 -10 -18 17 -6 79 -3 79 3 0 4 14 5 30 2 19 -4 30 -2
30 5 0 6 5 11 11 11 5 0 7 -4 4 -10 -7 -11 -4 -12 38 -14 32 -2 32 -2 11 18
-8 9 -11 16 -5 16 5 0 13 -4 16 -10 3 -5 15 -10 26 -10 10 0 19 -4 19 -10 0
-5 -7 -7 -15 -4 -8 4 -15 2 -15 -4 0 -6 -3 -19 -7 -29 -4 -10 6 -5 25 15 36
36 48 41 32 12 -9 -16 -8 -18 5 -14 8 4 15 1 15 -5 0 -6 4 -11 9 -11 6 0 8 9
6 20 -2 12 0 18 6 15 5 -4 6 -11 3 -17 -4 -6 1 -8 15 -3 16 5 26 1 36 -12 7
-10 17 -14 21 -10 5 4 3 11 -3 15 -9 5 -6 12 8 21 12 7 18 8 15 2 -4 -5 -2
-12 3 -16 6 -3 8 -12 4 -20 -3 -8 0 -15 6 -15 6 0 11 12 11 26 0 15 4 23 10
19 6 -4 8 -15 5 -26 -4 -11 -2 -19 4 -19 6 0 11 7 11 16 0 8 5 12 10 9 14 -9
12 28 -2 45 -11 12 -10 12 4 2 9 -7 19 -24 22 -37 4 -17 11 -23 23 -18 10 4
14 2 9 -5 -3 -6 -2 -13 4 -17 6 -4 10 7 11 27 0 18 3 26 6 18 11 -29 27 -29
41 1 14 28 32 39 32 19 0 -5 -4 -10 -8 -10 -20 0 -7 -37 21 -59 l30 -25 19 24
c16 20 22 21 44 11 14 -6 23 -15 20 -20 -4 -5 3 -7 14 -4 11 3 20 9 20 14 0 5
-7 6 -15 3 -8 -4 -15 -1 -15 5 0 6 8 11 18 12 14 0 14 2 -3 8 -17 7 -17 8 7
13 23 4 27 2 25 -16 -2 -17 4 -21 33 -23 26 -2 30 0 16 6 -14 5 -16 10 -7 15
7 5 10 14 7 22 -3 8 -2 14 3 14 12 0 22 -56 14 -77 -4 -12 3 -9 22 10 15 15
34 27 42 27 11 0 8 -6 -8 -21 -21 -18 -21 -20 -4 -13 29 10 68 11 86 3 13 -7
15 -3 12 15 -3 16 0 23 11 23 9 0 16 -9 16 -19 0 -10 5 -18 10 -18 6 0 10 5
10 11 0 7 7 8 18 4 9 -4 22 -8 29 -8 7 0 11 -5 10 -10 -1 -5 4 -12 11 -14 9
-4 11 2 6 21 -7 30 -2 33 21 10 15 -15 17 -15 34 0 22 20 32 21 25 2 -3 -7 2
-16 10 -19 18 -7 36 20 29 43 -3 9 0 8 9 -4 10 -12 20 -16 28 -11 9 6 11 4 6
-4 -5 -7 -14 -10 -22 -7 -22 8 -17 0 11 -18 29 -19 53 -12 34 10 -6 8 -9 18
-5 21 4 4 10 3 14 -2 9 -12 44 -16 36 -4 -3 5 -1 9 4 9 16 0 22 -13 12 -25 -8
-9 -6 -14 5 -19 9 -3 13 -2 10 4 -3 6 5 10 19 10 14 0 26 3 26 8 0 4 12 8 27
9 26 1 27 0 8 -13 -22 -17 -12 -19 16 -3 15 7 24 7 34 -1 10 -8 16 -7 24 7 10
17 10 17 11 -2 0 -14 3 -16 12 -7 8 8 15 9 25 1 10 -9 13 -7 13 7 0 11 4 15 8
9 10 -14 42 -18 42 -5 0 15 21 12 42 -7 18 -16 18 -16 12 0 -9 24 17 22 49 -3
21 -17 26 -18 31 -5 5 13 9 12 27 -6 11 -11 24 -18 27 -14 4 3 0 10 -8 15 -23
14 -4 23 21 9 17 -9 24 -9 27 0 2 6 8 11 13 11 6 0 7 -4 4 -10 -4 -6 6 -10 22
-10 22 0 25 2 13 10 -9 6 -10 10 -3 10 7 0 16 -7 21 -16 6 -10 14 -14 22 -9 9
6 9 9 -1 16 -9 5 -5 7 12 5 13 -1 31 -6 38 -10 7 -5 16 -5 20 0 10 15 43 16
52 2 7 -10 9 -10 9 0 0 20 17 14 55 -20 35 -30 41 -31 131 -34 104 -3 116 -7
108 -32 -5 -14 -4 -14 4 -2 6 8 9 17 6 21 -2 4 27 7 65 7 52 -1 68 -4 64 -14
-2 -7 -11 -15 -19 -18 -8 -3 -14 -13 -14 -22 0 -10 6 -14 14 -11 7 3 18 1 24
-5 6 -6 15 -7 22 -3 8 5 6 11 -6 19 -16 12 -15 13 5 19 11 3 19 1 15 -4 -3 -5
4 -9 15 -9 13 0 21 7 21 18 0 14 2 14 9 3 10 -16 -3 -33 -33 -44 -17 -7 -17
-9 -2 -32 9 -14 14 -25 12 -25 -2 0 -12 -3 -22 -7 -12 -4 -15 -2 -12 8 3 8 -4
22 -15 32 -24 20 -24 20 -33 5 -4 -7 -4 -10 1 -6 9 9 35 -9 35 -24 0 -5 -6 -8
-12 -6 -7 2 -13 -2 -13 -7 0 -6 3 -9 7 -8 5 2 8 -1 8 -6 0 -13 -28 -22 -35
-11 -4 6 -11 10 -18 10 -6 0 -2 -7 9 -16 16 -13 16 -15 2 -10 -18 5 -24 -5
-11 -17 3 -4 15 0 25 10 10 9 21 13 25 9 4 -4 1 -11 -6 -15 -10 -6 -10 -10 -1
-16 6 -4 9 -13 6 -21 -6 -16 10 -19 19 -4 3 6 11 10 16 10 6 0 8 -4 4 -9 -3
-5 -1 -12 5 -16 5 -3 10 3 10 14 0 14 -6 21 -19 21 -11 0 -23 5 -27 12 -5 8
-2 9 10 5 13 -5 20 1 27 22 8 22 15 28 32 25 12 -2 16 -2 10 2 -7 3 -13 10
-13 16 0 6 6 6 15 -2 19 -16 10 -30 -18 -31 -12 0 -16 -3 -9 -6 6 -2 12 -11
12 -19 0 -9 5 -12 10 -9 6 3 10 -1 10 -9 0 -9 -6 -16 -14 -16 -15 0 -16 -16
-2 -38 4 -7 5 -16 2 -19 -3 -4 -6 -1 -6 5 0 7 -4 12 -10 12 -5 0 -6 -7 -3 -17
4 -11 3 -14 -5 -9 -7 4 -12 14 -12 22 0 18 -14 18 -30 -1 -12 -15 -15 -14 -61
28 -10 9 -19 13 -19 8 0 -5 -20 -8 -44 -7 -28 1 -41 5 -37 11 4 6 2 20 -4 33
-11 21 -13 21 -19 5 -4 -10 -10 -13 -14 -7 -16 22 -64 45 -82 39 -12 -4 -20
-2 -20 5 0 6 5 8 12 4 7 -4 8 -3 4 4 -4 7 -15 12 -25 12 -10 0 -24 7 -32 16
-12 14 -14 14 -25 0 -10 -15 -12 -14 -17 5 -4 14 -11 20 -21 16 -9 -4 -21 0
-28 7 -8 7 -21 12 -31 10 -9 -1 -17 1 -17 5 0 7 -51 21 -127 35 -22 5 -143 9
-175 7 -11 -1 -15 -7 -12 -15 3 -8 0 -17 -7 -22 -7 -4 -10 -3 -6 4 4 5 5 17 1
25 -4 12 -13 13 -45 4 -28 -7 -44 -6 -51 1 -7 7 -17 3 -34 -15 -12 -13 -25
-30 -28 -36 -3 -8 -8 -7 -16 3 -10 13 -11 13 -6 -2 3 -12 0 -18 -10 -18 -11 0
-13 6 -8 22 6 21 5 22 -11 8 -17 -14 -18 -13 -13 7 4 15 0 23 -13 26 -11 3
-19 1 -19 -4 0 -5 5 -9 10 -9 6 0 10 -9 10 -20 0 -11 4 -20 10 -20 5 0 14 -10
21 -21 6 -13 7 -19 1 -15 -6 3 -17 -1 -26 -10 -9 -8 -20 -12 -26 -9 -5 3 -10
1 -10 -5 0 -6 -10 -9 -22 -7 -13 2 -17 2 -10 0 18 -6 15 -16 -9 -31 -12 -8
-18 -9 -15 -3 4 5 2 12 -3 16 -5 3 -13 -1 -18 -8 -9 -14 -42 -31 -56 -28 -5 1
-6 -9 -2 -21 3 -13 3 -18 -2 -13 -4 6 -15 10 -23 10 -8 -1 -22 4 -30 11 -20
15 -52 14 -46 -2 7 -19 -21 -25 -38 -9 -11 11 -16 12 -19 2 -4 -9 -7 -9 -15 1
-7 10 -11 10 -22 -3 -11 -13 -10 -15 4 -9 24 9 19 -2 -10 -21 -15 -9 -24 -13
-20 -7 3 5 -3 12 -14 15 -10 3 -21 0 -23 -7 -3 -8 -8 -7 -20 2 -13 11 -16 10
-19 -4 -3 -16 -4 -16 -22 1 -14 14 -22 16 -35 8 -12 -7 -22 -6 -38 5 -16 10
-23 11 -23 3 0 -7 -4 -9 -10 -6 -5 3 -10 1 -10 -4 0 -6 -5 -11 -11 -11 -6 0
-9 7 -6 14 4 10 1 13 -9 10 -48 -15 -47 -13 -33 -31 13 -15 12 -15 -8 -3 -12
8 -19 18 -17 22 3 4 -4 8 -16 8 -14 0 -19 -4 -14 -12 4 -8 3 -9 -2 -5 -5 5 -9
16 -9 24 0 9 -6 18 -14 21 -10 3 -12 0 -7 -13 5 -14 2 -16 -14 -12 -12 3 -24
-1 -30 -11 -9 -16 -9 -16 -10 1 0 13 -8 17 -33 17 -18 0 -39 -6 -46 -12 -11
-10 -12 -10 -7 -1 5 9 2 11 -8 7 -9 -3 -13 -11 -9 -18 4 -6 -1 -5 -10 3 -9 7
-17 10 -17 7 0 -4 -7 0 -16 9 -15 15 -18 15 -34 0 -17 -15 -19 -15 -25 6 -4
12 -10 18 -14 13 -3 -5 -18 -10 -33 -12 -19 -2 -28 2 -33 18 -3 11 -11 18 -16
14 -5 -3 -7 -10 -3 -16 4 -6 -3 -8 -17 -6 -13 2 -23 9 -21 16 2 10 -2 10 -18
0 -11 -7 -20 -16 -20 -21 0 -4 -10 1 -22 13 -12 11 -27 20 -32 20 -6 0 -5 -4
3 -9 9 -6 10 -10 2 -16 -7 -4 -18 -2 -25 4 -7 6 -34 9 -60 6 -33 -3 -45 -1
-40 6 3 6 -5 3 -20 -6 -26 -17 -35 -10 -16 13 7 9 7 9 -2 2 -16 -14 -24 -13
-42 5 -13 13 -16 13 -31 -1 -12 -12 -13 -19 -4 -30 18 -22 -6 -16 -26 6 -15
16 -15 22 -5 35 7 8 8 15 2 15 -9 0 -26 -28 -24 -41 0 -3 -12 -3 -29 -1 -16 2
-27 7 -25 11 3 4 -4 12 -15 19 -16 11 -19 9 -19 -9 0 -13 4 -18 12 -13 7 4 8
3 4 -4 -7 -11 -36 -6 -36 7 0 4 -7 16 -16 27 -8 10 -12 13 -8 5 5 -11 3 -13
-10 -8 -9 4 -14 3 -11 -2 8 -14 -12 -23 -36 -16 -13 4 -18 12 -15 22 5 11 1
13 -17 7 -12 -4 -26 -12 -30 -18 -5 -6 -7 -2 -4 12 3 12 1 22 -4 22 -5 0 -9
-4 -9 -10 0 -5 -7 -10 -16 -10 -10 0 -14 6 -11 14 4 10 1 13 -9 9 -7 -3 -14
-1 -14 5 0 13 27 23 45 16 11 -5 13 -2 9 10 -5 12 -2 15 10 10 9 -3 16 -1 16
4 0 20 -15 21 -40 2 -17 -13 -30 -16 -46 -10 -16 6 -24 5 -28 -5 -3 -9 0 -12
10 -8 7 3 14 0 14 -6 0 -11 -13 -15 -37 -12 -8 1 -10 -5 -6 -16 6 -16 5 -16
-11 -4 -15 13 -16 17 -4 25 18 14 19 43 1 43 -7 0 -13 -6 -13 -14 0 -7 -5 -13
-11 -13 -5 0 -8 4 -5 9 4 5 -7 12 -24 16 -16 4 -30 11 -30 16 0 11 3 11 34 -1
17 -6 27 -6 32 2 4 7 3 8 -4 4 -7 -4 -12 -3 -12 3 0 6 -7 8 -16 4 -14 -5 -15
-3 -5 15 8 15 8 22 1 22 -5 0 -10 -7 -10 -15 0 -9 -9 -15 -25 -15 -14 0 -25
-5 -25 -11 0 -5 5 -7 10 -4 15 10 12 -11 -4 -25 -8 -6 -12 -18 -9 -26 6 -16
-12 -19 -22 -4 -3 6 -18 8 -33 4 -26 -5 -26 -5 -8 10 11 9 14 16 7 16 -7 0 -9
5 -5 12 5 7 12 5 22 -8 13 -16 14 -17 9 -1 -5 12 -1 17 11 17 14 0 14 2 3 9
-8 5 -27 5 -45 0 -27 -7 -29 -7 -13 5 9 7 17 18 17 25 0 6 7 11 16 11 18 0 10
16 -16 30 -13 7 -19 6 -23 -5 -4 -8 -1 -13 6 -11 7 1 9 1 4 -1 -4 -3 -4 -10 0
-16 4 -6 0 -8 -10 -4 -12 4 -14 2 -10 -10 4 -11 2 -14 -5 -9 -8 4 -12 0 -12
-11 0 -15 -2 -16 -10 -3 -5 8 -10 12 -10 8 0 -3 -3 -14 -6 -22 -5 -12 -2 -15
10 -10 9 3 16 1 16 -5 0 -6 8 -8 18 -4 10 4 14 2 9 -3 -10 -10 -67 -13 -61 -2
2 4 0 9 -5 13 -13 8 9 57 23 52 14 -5 37 40 29 58 -3 10 1 15 13 16 12 0 14 3
6 6 -17 7 -42 -15 -36 -32 4 -9 0 -12 -14 -8 -11 2 -23 0 -26 -6 -4 -6 -13
-11 -19 -11 -7 1 -1 10 12 21 13 11 21 22 17 26 -3 4 -12 -2 -20 -12 -8 -12
-15 -14 -20 -7 -8 14 30 36 50 28 8 -3 14 -1 14 4 0 6 -9 10 -21 10 -13 0 -18
4 -13 13 4 6 -2 4 -13 -6 -16 -14 -22 -15 -25 -5 -4 10 -8 10 -23 -2 -17 -13
-18 -13 -10 0 6 10 1 9 -12 -3 -21 -18 -22 -18 -32 1 -6 11 -8 22 -5 25 3 3 0
8 -7 13 -8 4 -10 3 -5 -4 11 -18 -5 -14 -27 6 -11 9 -17 11 -13 5 5 -9 -1 -12
-23 -9 -38 4 -62 23 -54 42 4 10 0 12 -13 7 -11 -4 -15 -3 -11 4 5 7 -1 9 -15
5 -16 -4 -19 -2 -13 8 5 9 4 11 -4 6 -9 -6 -9 -11 0 -22 6 -8 8 -18 4 -22 -4
-4 -10 -1 -12 6 -8 23 -35 43 -50 38 -9 -4 -11 -2 -7 6 7 11 3 10 -79 -7 -10
-2 -15 0 -12 5 6 10 -25 6 -110 -13 -27 -6 -54 -10 -59 -9 -4 2 -13 -1 -20 -6
-6 -5 -36 -18 -66 -28 -30 -10 -58 -23 -62 -29 -4 -5 -8 -7 -8 -2 0 4 -11 0
-24 -9 -14 -8 -29 -16 -33 -16 -4 0 -7 -4 -6 -9 2 -4 -5 -5 -14 -2 -11 4 -14
3 -9 -5 7 -12 -5 -16 -31 -13 -7 1 -13 -5 -13 -13 0 -8 -5 -18 -12 -22 -7 -5
-8 -3 -3 6 5 9 2 10 -13 6 -15 -5 -24 -1 -32 14 -10 19 -12 19 -35 4 -21 -14
-27 -14 -45 -1 -12 9 -17 18 -11 21 5 4 15 -2 21 -11 9 -15 10 -15 4 6 -4 16
-3 21 5 17 8 -5 8 0 2 17 -6 14 -6 29 0 38 14 22 11 25 -20 23 -15 -1 -35 2
-42 7 -8 5 -10 9 -6 9 4 0 3 9 -3 19 -7 13 -7 22 0 26 5 3 10 -1 10 -9 0 -18
2 -19 24 -10 9 3 16 10 16 16 0 5 -5 6 -12 2 -7 -4 -8 -3 -4 5 4 6 12 8 18 5
6 -4 14 0 19 7 13 21 11 33 -3 21 -7 -5 -28 -13 -45 -17 -18 -3 -37 -14 -43
-23 -5 -9 -9 -12 -10 -7 0 19 15 33 43 40 15 4 27 11 27 16 0 5 7 6 15 3 11
-5 14 -1 9 12 -5 18 -5 18 10 0 8 -10 20 -15 27 -10 9 5 10 2 6 -9 -5 -14 -1
-15 26 -10 18 4 38 12 45 20 7 7 19 13 25 12 9 0 8 -2 0 -6 -21 -8 -15 -18 12
-18 26 0 33 10 13 18 -7 3 1 5 19 4 21 0 30 -4 26 -11 -5 -8 -2 -8 8 0 9 8 35
9 79 4 36 -5 108 -11 160 -15 94 -7 95 -7 140 24 46 31 88 42 74 19 -6 -10 -5
-10 8 -1 8 7 18 10 21 6 4 -3 8 0 8 8 1 9 3 7 6 -3 2 -10 8 -18 12 -18z
m-3745 -7 c6 -22 0 -33 -38 -72 -43 -43 -57 -71 -38 -71 4 0 26 18 47 40 43
44 50 47 58 26 4 -9 -15 -35 -45 -65 -29 -29 -47 -55 -43 -61 5 -8 24 5 55 35
47 46 48 47 60 25 10 -19 6 -27 -37 -73 -27 -29 -62 -69 -80 -91 l-31 -38 -22
48 c-12 27 -33 77 -45 110 l-24 62 78 76 c43 42 83 76 89 76 5 0 13 -12 16
-27z m-174 -367 l19 -68 -29 -57 c-23 -46 -29 -53 -35 -36 -13 41 -22 48 -85
71 -35 14 -66 26 -68 29 -3 2 8 25 22 50 l27 46 33 -21 c19 -11 35 -20 38 -20
3 0 -2 26 -10 58 l-15 57 29 41 29 42 13 -62 c8 -33 22 -92 32 -130z m7758 66
c2 -35 -2 -59 -12 -74 -18 -25 -21 -17 -6 13 7 13 7 19 0 19 -5 0 -10 -6 -10
-12 0 -9 -4 -8 -10 2 -9 13 -11 13 -20 0 -9 -13 -10 -13 -11 0 0 13 -2 12 -7
-1 -6 -14 -9 -14 -27 4 -17 17 -17 19 -3 14 10 -3 20 -1 24 5 4 7 9 6 14 -2 5
-9 9 -9 14 -1 7 11 -4 15 -36 12 -21 -3 -23 10 -6 27 9 9 9 12 1 12 -7 0 -14
-9 -18 -19 -5 -15 -13 -18 -45 -15 -22 2 -40 -1 -40 -6 0 -5 -7 -7 -15 -4 -26
10 -16 24 18 25 32 1 91 16 72 18 -5 1 -3 6 5 12 11 8 6 9 -20 5 -19 -4 -36
-11 -38 -16 -2 -6 -16 -10 -30 -9 -24 0 -25 1 -7 9 16 6 8 10 -35 16 -50 8
-42 10 80 15 74 3 142 5 150 4 11 0 16 -14 18 -53z m-7380 -119 c-188 -197
-288 -457 -288 -753 0 -495 288 -920 693 -1022 113 -28 278 -22 386 16 150 52
282 147 377 272 31 41 59 74 61 74 11 0 -85 -124 -135 -175 -182 -184 -435
-262 -675 -209 -91 20 -233 88 -318 152 -193 147 -336 397 -385 675 -18 106
-18 309 1 417 27 151 80 290 161 416 33 51 169 204 182 204 3 0 -24 -30 -60
-67z m2868 -38 c4 -8 10 -13 14 -10 11 7 33 -22 25 -35 -4 -6 -2 -9 4 -8 5 2
63 -51 128 -117 129 -131 232 -225 291 -265 49 -33 133 -96 152 -113 8 -8 33
-24 56 -35 22 -11 46 -28 53 -36 7 -9 17 -13 22 -10 5 3 12 -1 15 -9 3 -9 13
-13 26 -9 17 4 20 2 15 -12 -4 -9 -3 -15 2 -11 5 3 16 -2 25 -11 9 -8 20 -12
26 -9 6 3 13 -1 16 -9 3 -9 11 -16 17 -16 15 0 117 -51 117 -59 0 -8 101 -47
113 -43 4 1 7 -2 7 -7 0 -5 21 -18 48 -30 26 -12 54 -26 62 -30 14 -9 43 -21
63 -26 4 -2 9 -4 12 -5 3 -1 8 -3 13 -4 10 -3 63 -26 92 -41 14 -7 35 -11 48
-10 13 1 21 -3 19 -9 -3 -7 11 -11 37 -11 30 0 40 -4 38 -14 -2 -8 3 -11 13
-8 8 4 15 3 15 -1 0 -4 12 -7 28 -7 15 1 32 -3 39 -8 15 -11 166 -47 175 -41
3 2 9 0 13 -6 4 -6 10 -8 15 -5 5 3 20 0 32 -6 20 -11 60 -17 131 -20 9 0 17
-4 17 -8 0 -5 12 -6 26 -3 16 3 25 1 21 -5 -3 -5 8 -8 26 -5 67 7 200 -2 204
-15 2 -4 26 -7 53 -6 28 1 50 -1 50 -6 0 -5 9 -11 21 -14 19 -5 20 -4 5 12
-15 16 -13 17 34 17 28 0 50 -4 50 -9 0 -5 10 -6 23 -2 12 3 37 8 55 10 27 3
31 1 22 -10 -9 -10 -7 -13 6 -11 10 2 20 8 22 14 2 7 8 12 13 12 6 0 7 -5 3
-11 -4 -8 0 -7 15 1 12 6 31 8 42 5 11 -4 34 -1 50 5 25 11 32 10 51 -6 21
-18 21 -18 15 0 -6 15 -3 17 17 12 14 -3 28 -2 31 4 3 5 15 10 26 10 11 0 17
-4 14 -10 -11 -18 14 -10 27 8 16 22 58 35 58 19 0 -8 3 -8 8 -2 8 12 29 18
55 17 9 0 17 3 17 8 0 5 7 7 15 3 9 -3 15 -2 13 3 -2 5 1 10 6 11 5 1 13 7 17
15 6 8 9 9 9 1 0 -6 9 -9 20 -6 11 3 18 9 15 13 -3 4 2 10 10 14 8 3 15 1 15
-4 0 -19 18 -10 25 13 4 14 8 17 12 9 4 -10 8 -10 19 -1 8 6 12 14 10 18 -3 4
4 8 15 8 10 1 26 8 34 16 8 8 30 18 50 21 30 6 34 10 26 25 -9 16 -7 17 17 13
25 -5 26 -4 12 13 -14 17 -13 17 9 10 20 -6 22 -4 16 14 -5 16 -2 21 10 21 21
0 48 27 40 40 -3 5 5 15 19 21 14 7 28 20 31 31 4 10 11 18 18 18 6 0 2 7 -9
16 -15 12 -16 15 -2 10 17 -5 46 20 35 31 -4 3 -1 13 5 21 7 7 13 23 15 35 2
11 7 25 12 31 7 10 18 43 27 86 2 8 8 33 13 55 10 37 10 35 5 -20 -6 -71 -39
-208 -60 -250 -36 -71 -144 -229 -144 -211 0 4 -12 -7 -27 -26 -16 -18 -32
-35 -36 -37 -5 -1 -20 -14 -34 -27 -14 -13 -32 -24 -39 -24 -8 0 -14 -4 -14
-8 0 -5 -16 -16 -35 -25 -19 -9 -35 -21 -35 -27 0 -6 -6 -10 -12 -9 -27 3 -51
-1 -44 -8 4 -4 -14 -14 -41 -23 -38 -12 -47 -19 -45 -35 2 -17 1 -18 -8 -4 -8
14 -16 15 -47 7 -21 -5 -46 -10 -55 -11 -10 -1 -18 -4 -18 -8 0 -6 -39 -11
-93 -12 -23 0 -25 -2 -15 -15 11 -13 10 -14 -9 -4 -12 7 -29 9 -37 6 -10 -4
-16 -1 -16 7 0 11 -2 11 -9 -1 -6 -8 -7 -18 -5 -22 10 -15 -12 -8 -33 12 -18
17 -22 17 -27 4 -4 -10 -13 -14 -22 -10 -8 3 -12 2 -9 -4 3 -6 1 -10 -4 -10
-6 0 -11 5 -11 10 0 6 -9 10 -20 10 -11 0 -20 -4 -20 -10 0 -5 -7 -10 -16 -10
-9 0 -12 5 -8 13 6 9 4 9 -7 1 -29 -23 -48 -24 -44 -3 3 13 0 17 -8 12 -7 -4
-20 -6 -29 -5 -9 2 -23 -6 -30 -17 -7 -12 -17 -21 -22 -21 -4 0 -2 7 5 17 13
15 10 16 -33 11 -26 -3 -46 -2 -43 1 5 9 -50 5 -65 -4 -7 -4 -16 -2 -20 5 -5
8 -38 14 -91 15 -46 2 -103 7 -126 13 -32 7 -43 7 -43 -2 0 -6 -4 -6 -9 3 -5
7 -22 13 -37 13 -48 -1 -105 17 -97 31 4 7 0 7 -10 -2 -12 -10 -21 -10 -30 -3
-7 6 -22 11 -32 12 -56 1 -105 7 -111 13 -4 4 -16 7 -27 7 -16 0 -17 2 -6 16
11 13 9 14 -13 9 -17 -4 -31 -1 -42 10 -9 9 -16 13 -16 8 0 -4 -18 -8 -39 -8
-22 0 -37 3 -35 6 3 6 -78 50 -100 53 -7 1 -24 9 -38 18 -22 15 -25 15 -36 0
-10 -15 -11 -15 -5 2 5 15 2 17 -15 11 -12 -3 -22 -2 -22 3 0 5 -7 9 -16 8 -9
0 -19 6 -21 14 -4 13 -3 13 6 0 8 -12 13 -12 23 -2 9 9 9 12 -2 13 -8 0 -23 2
-32 4 -10 2 -18 -2 -18 -8 0 -6 -7 -1 -16 12 -9 13 -19 19 -23 13 -3 -5 -15
-6 -26 -1 -12 5 -14 8 -5 8 20 1 -61 43 -82 43 -9 0 -18 9 -21 20 -3 11 -10
17 -16 13 -6 -3 -8 -12 -5 -18 4 -7 4 -9 0 -5 -4 3 -8 10 -9 15 -1 9 -42 43
-52 43 -3 0 -3 -6 1 -12 4 -7 -5 -2 -20 12 -15 14 -36 24 -46 22 -10 -2 -22 2
-26 9 -5 8 -3 9 6 4 9 -5 11 -4 6 3 -4 7 -13 12 -20 12 -7 0 -25 9 -40 21 -14
11 -26 16 -26 10 0 -6 -5 -11 -11 -11 -6 0 -8 7 -5 16 3 8 2 12 -3 9 -6 -3
-15 3 -21 12 -11 17 -11 17 -6 0 5 -15 3 -16 -15 -7 -11 6 -17 15 -14 20 3 5
-5 10 -17 12 -12 2 -23 9 -26 17 -3 9 0 11 8 6 9 -5 11 -4 6 4 -4 6 -11 9 -16
6 -4 -3 -13 2 -20 11 -7 8 -19 13 -27 10 -8 -3 -16 1 -19 8 -5 12 -37 27 -48
23 -9 -4 -45 36 -40 44 3 5 -4 9 -14 9 -11 0 -22 7 -26 15 -3 8 -11 15 -17 15
-8 0 -7 -5 2 -17 12 -14 9 -13 -16 2 -16 11 -32 21 -35 23 -2 1 2 8 10 13 11
8 9 9 -9 4 -16 -5 -22 -3 -19 5 6 18 -36 58 -64 62 -15 2 -22 9 -20 20 1 9 -7
22 -18 28 -17 9 -20 8 -20 -7 0 -16 -1 -15 -14 2 -7 11 -14 24 -14 29 0 5 -7
13 -16 18 -9 5 -16 16 -16 24 0 8 -4 12 -10 9 -5 -3 -10 -1 -10 4 0 6 -8 11
-17 11 -15 0 -16 2 -3 10 15 9 13 11 -12 14 -7 0 -13 6 -13 13 0 12 -13 28
-23 28 -14 0 -52 32 -45 38 3 4 -5 17 -18 29 -14 13 -32 34 -42 47 -9 14 -19
22 -23 19 -16 -16 215 -307 314 -396 131 -118 152 -138 153 -152 0 -10 2 -11
6 -3 3 10 9 8 21 -4 9 -9 17 -20 17 -24 0 -12 11 -19 35 -24 21 -4 79 -60 80
-77 0 -3 9 -4 20 -1 16 4 19 2 14 -11 -5 -12 -2 -15 10 -10 18 7 21 -7 5 -23
-8 -8 -7 -13 2 -18 7 -5 10 -4 6 2 -4 6 -1 13 6 16 8 3 19 -7 26 -24 10 -24
16 -27 27 -18 9 8 14 8 14 1 0 -6 -4 -14 -10 -17 -5 -3 -10 -12 -10 -18 0 -7
4 -6 10 3 9 13 14 7 11 -12 0 -5 5 -8 13 -8 7 0 27 -13 44 -30 18 -16 37 -30
42 -30 6 0 8 -4 5 -10 -3 -5 3 -17 14 -26 11 -10 17 -24 14 -33 -5 -12 -3 -13
6 -5 17 16 51 6 50 -15 0 -10 -2 -11 -6 -3 -2 6 -9 12 -14 12 -14 0 1 -28 19
-34 9 -3 24 -9 32 -12 13 -5 13 -4 0 6 -13 10 -13 11 0 7 8 -2 14 -11 12 -20
-2 -11 2 -15 12 -11 8 3 17 1 21 -5 3 -6 -1 -11 -11 -11 -10 0 -14 -3 -10 -7
4 -5 12 -8 16 -8 5 0 16 -9 24 -20 13 -18 14 -18 9 10 -3 17 -10 36 -16 43 -5
7 -7 15 -4 19 4 3 9 -1 13 -10 3 -9 11 -15 17 -13 7 1 8 1 3 -2 -4 -2 -2 -8 5
-13 11 -7 12 -11 1 -17 -7 -5 -10 -16 -6 -26 4 -11 9 -13 13 -7 9 14 48 3 56
-16 4 -13 3 -14 -9 -4 -11 9 -16 9 -22 0 -4 -8 -3 -9 4 -5 7 4 12 1 12 -8 0
-9 3 -15 8 -14 7 1 22 -4 69 -22 21 -9 33 -4 33 13 0 5 -7 7 -14 4 -10 -4 -13
-1 -9 9 5 13 10 11 29 -10 25 -26 32 -42 14 -31 -5 3 -10 1 -10 -5 0 -6 -13
-5 -36 5 -47 19 -48 19 -25 -4 31 -31 57 -31 89 -1 21 20 22 20 22 2 0 -34
-92 -64 -108 -36 -9 15 -12 15 -39 -1 -22 -13 -29 -24 -26 -39 3 -20 3 -20 -6
-1 -6 14 -4 25 6 37 15 17 10 38 -9 38 -7 0 -7 -4 1 -13 8 -11 5 -16 -17 -26
-22 -9 -24 -9 -11 1 10 9 14 20 9 33 -7 19 -7 19 -14 -2 -4 -13 -12 -23 -17
-23 -6 0 -8 8 -5 18 5 13 -1 22 -19 30 -34 16 -35 15 -30 -8 2 -11 0 -20 -6
-20 -5 0 -9 5 -9 10 0 6 -5 10 -11 10 -6 0 -8 -9 -4 -22 l6 -23 -14 23 c-7 12
-16 19 -20 16 -4 -4 -16 2 -27 14 -12 12 -26 22 -33 22 -7 0 -6 4 3 10 13 8
12 11 -5 24 -11 9 -30 16 -42 17 -13 1 -27 3 -33 4 -5 1 -15 3 -20 4 -6 0 -15
13 -21 29 l-11 27 -11 -22 c-10 -24 -42 -33 -34 -10 2 6 10 11 16 10 6 -2 11
2 11 7 0 12 -41 30 -52 23 -5 -2 -8 3 -8 11 0 9 -5 16 -11 16 -5 0 -7 4 -4 10
3 6 -1 7 -9 4 -20 -8 -20 -9 0 -29 9 -9 14 -18 11 -21 -3 -3 -15 9 -28 27 -13
18 -17 29 -9 24 9 -5 11 -4 6 3 -4 7 -14 12 -22 12 -8 0 -14 5 -14 10 0 6 -4
10 -9 10 -5 0 -7 -10 -3 -22 5 -23 5 -23 -16 -4 -16 14 -19 23 -12 37 16 28
12 34 -10 14 -11 -10 -23 -15 -27 -11 -4 4 -2 11 6 15 10 6 9 10 -4 15 -9 3
-13 10 -10 16 3 6 -1 7 -9 4 -9 -3 -16 -1 -16 5 0 6 -4 11 -10 11 -5 0 -7 -6
-4 -13 3 -8 -2 -14 -11 -14 -8 0 -15 4 -15 9 0 4 -10 8 -22 8 -21 0 -21 0 -2
-14 10 -8 16 -18 12 -21 -11 -12 -39 22 -32 39 3 9 1 16 -5 16 -6 0 -11 6 -11
14 0 16 -43 27 -62 15 -8 -6 -9 -9 -2 -9 7 0 11 -11 10 -25 -1 -27 -12 -31
-36 -15 -13 9 -13 11 0 21 11 8 12 12 3 16 -7 2 -13 16 -13 29 0 14 -4 22 -10
19 -5 -3 -10 -1 -10 5 0 6 -4 9 -8 6 -5 -3 -8 10 -7 29 2 19 -1 32 -6 29 -5
-3 -9 -15 -9 -26 0 -12 -3 -19 -6 -15 -3 3 -17 2 -30 -4 -21 -7 -26 -5 -34 17
-6 16 -14 22 -22 18 -9 -6 -9 -9 1 -12 11 -4 11 -6 1 -12 -7 -5 -19 -6 -26 -3
-10 4 -11 9 -1 25 10 17 9 22 -2 26 -8 3 -10 7 -3 11 7 4 8 12 2 21 -8 13 -10
13 -10 -1 0 -22 -19 -29 -70 -23 -36 4 -41 3 -38 -13 4 -29 -11 -46 -28 -32
-11 9 -14 8 -14 -5 0 -9 7 -16 15 -16 8 0 15 -6 15 -12 0 -9 3 -8 10 2 5 8 12
12 15 9 3 -4 0 -11 -7 -17 -9 -7 -23 -6 -48 4 -19 8 -30 18 -25 22 14 10 18
42 6 42 -5 0 -17 -10 -26 -22 -10 -13 -15 -16 -13 -8 5 16 -14 40 -31 40 -6 0
-15 9 -21 19 -13 25 -13 34 0 26 6 -3 10 0 10 8 0 9 -8 13 -22 10 -16 -3 -27
3 -36 18 -13 20 -12 21 5 15 14 -6 15 -5 6 5 -10 10 -9 17 5 33 16 18 16 19 0
13 -10 -4 -18 -2 -18 3 0 6 6 10 13 11 9 0 9 2 0 6 -10 3 -9 8 2 19 16 16 36
10 34 -9 -3 -23 1 -37 11 -37 5 0 7 7 4 15 -9 23 6 18 32 -10 13 -14 26 -21
29 -15 3 5 -19 27 -50 50 -30 22 -55 46 -55 53 0 8 3 8 9 -2 5 -8 11 -9 15 -3
3 6 -4 14 -16 18 -22 7 -22 7 -3 15 19 7 18 8 -4 8 -16 1 -21 5 -18 15 3 8 1
16 -4 18 -7 2 -7 13 0 31 10 26 10 27 -17 21 -19 -4 -15 0 16 16 24 13 41 25
38 27 -2 3 -14 0 -25 -7 -20 -10 -21 -9 -15 14 4 18 2 26 -7 26 -9 1 -5 8 9
19 15 13 18 21 10 24 -10 4 -9 8 2 16 13 9 13 11 -2 11 -11 0 -15 5 -12 15 4
8 10 12 15 9 9 -5 13 9 9 35 -1 10 5 12 22 8 21 -5 21 -5 6 7 -14 10 -15 15
-5 26 9 10 9 11 0 6 -9 -5 -13 2 -13 23 0 22 4 29 14 25 10 -4 12 3 9 31 -3
29 1 40 19 55 13 11 17 19 11 20 -7 0 -13 -5 -13 -11 0 -5 -4 -8 -10 -4 -19
12 20 75 47 75 7 0 16 -7 19 -15z m-3426 -57 c0 -11 -4 -28 -10 -38 -8 -15 0
-27 44 -71 l54 -54 -17 -48 -16 -47 -52 45 c-28 25 -54 45 -56 45 -3 0 -8 -14
-12 -31 l-7 -31 -25 24 c-23 23 -24 28 -13 69 7 24 25 77 42 117 29 70 31 72
49 56 11 -9 19 -26 19 -36z m4325 -120 c22 1 67 -2 100 -7 51 -9 208 -25 440
-45 28 -3 104 -7 170 -11 66 -3 143 -8 170 -10 137 -14 669 -35 876 -35 187 0
371 14 522 40 62 10 114 17 116 14 11 -11 -1 -82 -23 -129 -80 -174 -266 -234
-731 -235 -723 0 -1453 98 -1940 262 -152 51 -156 55 -104 107 30 29 51 41 73
42 17 0 40 4 51 9 11 6 69 7 130 3 61 -4 128 -6 150 -5z m2839 -49 c-4 -8 0
-9 15 -4 20 6 20 5 9 -20 -10 -23 -10 -29 5 -40 22 -16 22 -25 0 -25 -15 0
-15 -1 2 -14 11 -8 16 -20 12 -29 -9 -24 12 -32 29 -11 11 13 14 14 11 4 -2
-8 3 -21 12 -28 15 -12 15 -13 0 -9 -12 4 -18 -3 -23 -24 -4 -20 -10 -28 -17
-23 -8 5 -9 3 -4 -6 6 -10 10 -10 19 2 14 19 36 12 36 -13 0 -12 -5 -16 -14
-13 -8 3 -17 1 -21 -5 -3 -7 0 -8 9 -5 11 4 16 0 16 -15 0 -12 2 -21 4 -21 2
0 12 -3 22 -7 14 -5 16 -3 11 12 -6 15 -5 16 8 5 18 -15 20 -34 3 -24 -10 6
-10 4 0 -7 17 -18 15 -27 -8 -32 -18 -4 -18 -5 2 -5 41 0 48 -2 48 -13 0 -5
-4 -7 -10 -4 -5 3 -10 0 -10 -7 0 -9 -3 -9 -10 2 -8 12 -10 9 -10 -12 0 -16
-5 -28 -11 -28 -5 0 -7 5 -3 12 4 6 3 8 -4 4 -6 -3 -15 2 -21 11 -6 10 -11 13
-11 7 0 -6 11 -21 25 -34 14 -13 25 -18 25 -12 0 7 5 12 10 12 6 0 10 -9 10
-20 0 -16 5 -19 25 -16 17 3 25 0 25 -10 0 -8 -7 -14 -15 -14 -9 0 -15 -7 -13
-17 2 -11 -6 -19 -22 -23 -22 -5 -23 -7 -6 -13 10 -4 25 -2 32 4 11 9 14 7 15
-7 0 -11 2 -29 5 -42 3 -17 0 -21 -8 -16 -7 4 -5 -2 5 -13 9 -11 14 -23 10
-28 -5 -4 -3 -5 4 -1 6 3 14 2 18 -4 3 -5 2 -10 -3 -10 -14 0 -22 -39 -10 -46
6 -4 -4 -16 -21 -26 -25 -16 -29 -23 -20 -34 11 -13 6 -18 -14 -15 -5 1 -6 -7
-2 -18 5 -16 2 -18 -16 -14 -15 4 -20 3 -15 -5 4 -7 4 -17 0 -23 -4 -8 -9 -7
-15 2 -6 10 -9 11 -9 2 0 -18 -29 -16 -36 2 -4 10 -19 14 -49 13 -29 -2 -41
-6 -36 -13 9 -11 11 -44 2 -43 -22 2 -41 -4 -41 -12 0 -5 8 -10 18 -10 14 0
15 -2 2 -10 -9 -6 -17 -5 -23 3 -7 9 -10 9 -14 -1 -2 -6 -9 -10 -14 -6 -5 3
-9 0 -9 -7 0 -7 -3 -9 -7 -6 -3 4 2 16 12 27 15 17 16 20 3 20 -9 0 -19 -12
-22 -26 -4 -15 -10 -24 -13 -20 -3 3 -13 -3 -21 -15 -8 -11 -20 -18 -28 -15
-8 3 -14 2 -14 -3 0 -5 -16 -16 -35 -25 -19 -9 -35 -20 -35 -24 0 -4 -14 -8
-30 -9 -17 -1 -30 2 -30 7 0 16 33 80 42 80 4 0 8 7 8 15 0 16 35 56 43 48 3
-2 4 4 4 14 -1 11 4 18 14 17 11 -1 14 6 11 27 -2 16 0 29 5 29 5 0 20 23 32
50 14 32 27 48 34 43 7 -4 7 0 -1 9 -11 14 -10 20 4 37 9 11 19 37 21 58 2 21
8 50 13 65 5 15 14 74 20 130 6 57 16 141 22 188 6 47 10 95 9 108 0 12 4 22
10 22 7 0 9 11 6 29 -3 16 -3 31 0 35 10 10 15 7 7 -5z m-7220 -146 c45 -26
82 -47 84 -48 1 -1 -3 -25 -9 -54 -11 -52 -11 -52 -35 -37 -33 23 -41 20 -46
-14 -4 -26 0 -33 29 -50 31 -18 33 -23 33 -75 l0 -56 -32 17 c-86 44 -159 97
-154 111 3 8 6 33 6 54 l0 40 31 -21 c35 -25 34 -25 42 16 5 26 2 33 -24 48
-16 9 -29 25 -29 35 0 28 12 81 18 81 3 0 42 -21 86 -47z m-681 -357 c15 -16
28 -22 36 -16 11 6 10 9 -5 14 -10 3 -1 3 21 0 22 -3 47 -10 55 -15 11 -7 5
-8 -20 -5 l-35 5 37 -11 c34 -10 38 -16 48 -60 14 -66 13 -108 -2 -108 -57 0
-148 58 -148 95 0 7 -5 17 -11 21 -11 6 -9 -3 9 -56 4 -11 2 -12 -7 -4 -19 18
-26 120 -10 141 9 11 10 14 2 9 -7 -4 -13 -2 -13 3 0 18 20 12 43 -13z m588
14 c5 0 9 -28 9 -62 0 -35 6 -74 13 -87 16 -32 52 -45 72 -25 22 23 19 34 -15
45 -28 10 -30 14 -30 64 l0 53 42 -13 c51 -15 58 -33 61 -153 2 -78 0 -85 -23
-104 -18 -15 -32 -18 -60 -13 -83 15 -108 63 -109 214 -1 81 1 92 15 87 9 -3
20 -6 25 -6z m6789 -75 c17 -9 30 -22 30 -31 0 -32 -33 -75 -88 -115 -31 -23
-65 -50 -74 -60 -24 -24 -151 -63 -268 -83 -311 -51 -807 -16 -1180 84 -162
44 -455 153 -484 181 -13 12 -14 12 85 -5 309 -53 686 -86 1059 -93 456 -8
648 14 720 81 19 19 44 38 55 44 29 16 111 14 145 -3z m-7513 -264 c109 -33
272 -82 363 -111 91 -28 184 -56 208 -62 66 -16 53 -35 -25 -37 -96 -2 -409
-19 -598 -32 -88 -6 -176 -12 -196 -13 -21 -1 -44 -8 -52 -14 -10 -9 -6 10 13
60 15 40 38 117 51 171 13 53 27 97 31 97 4 0 97 -27 205 -59z m892 -21 c10
-5 21 -22 24 -37 3 -15 9 -36 13 -47 7 -17 2 -18 -94 -14 -56 2 -103 6 -106 8
-2 3 -7 26 -11 53 l-7 47 82 0 c45 0 89 -4 99 -10z m-2496 -87 c-5 -68 -32
-153 -48 -153 -3 0 -4 28 -1 61 2 38 0 56 -5 48 -12 -19 -37 -107 -41 -143 -2
-17 -13 -35 -27 -45 l-24 -15 5 74 c5 68 4 72 -8 45 -7 -16 -18 -54 -25 -83
-9 -38 -16 -51 -27 -47 -7 3 -17 5 -22 5 -18 0 -18 47 0 83 11 21 20 51 20 68
0 20 4 29 13 26 6 -2 12 -14 11 -27 -1 -22 -1 -22 15 -2 14 17 49 35 74 37 4
0 13 9 20 21 7 12 24 40 40 62 15 23 27 46 27 52 0 5 2 10 5 10 3 0 2 -35 -2
-77z m2580 -149 c20 -53 35 -100 32 -104 -2 -4 -30 -10 -62 -14 -32 -4 -74 -9
-94 -12 -36 -6 -37 -6 -53 42 -9 26 -16 49 -16 50 0 1 14 5 30 8 17 3 43 9 60
12 l29 5 -19 49 c-21 52 -18 58 31 59 23 1 29 -7 62 -95z m1946 -334 c9 -5 13
-12 9 -15 -4 -4 -24 3 -44 16 l-37 23 7 -35 c20 -93 20 -97 -12 -139 l-30 -41
-10 63 c-6 35 -14 101 -18 146 l-7 84 63 -47 c35 -25 71 -50 79 -55z m-199
-28 c0 -10 12 -63 26 -117 l26 -100 -82 -77 c-46 -43 -86 -78 -90 -78 -5 0
-13 13 -18 29 -9 26 -6 32 44 79 50 47 66 72 46 72 -4 0 -28 -20 -52 -45 -50
-51 -60 -55 -60 -22 0 14 19 41 50 72 66 65 65 82 -1 20 -40 -37 -53 -45 -60
-34 -5 8 -9 20 -9 28 0 14 158 188 173 190 4 1 7 -7 7 -17z m-224 -288 c-13
-60 -27 -125 -30 -144 -5 -32 -13 -39 -71 -68 -36 -18 -72 -32 -80 -32 -17 0
-69 155 -63 190 4 28 75 61 87 41 11 -18 78 16 85 44 4 17 86 88 93 81 2 -1
-8 -52 -21 -112z m-271 -61 c-4 -10 -17 -66 -29 -125 l-21 -107 -55 -12 c-30
-7 -82 -12 -115 -13 l-60 -1 0 45 c0 39 4 47 32 66 l33 22 -31 42 c-17 23 -29
43 -27 45 2 1 28 5 58 9 l55 6 21 -36 21 -37 14 43 c12 38 19 45 54 56 55 17
58 16 50 -3z"/>
<path d="M4645 5889 c-54 -26 -97 -152 -99 -289 -1 -104 10 -126 67 -137 l42
-9 -3 -48 c-2 -26 -7 -59 -13 -72 -8 -22 -13 -24 -46 -18 -21 3 -42 7 -48 8
-6 0 -11 -32 -13 -76 -3 -91 2 -96 94 -100 53 -3 59 -1 70 22 7 14 24 108 38
210 15 102 34 217 43 255 8 39 18 100 20 137 5 65 4 69 -25 98 -24 23 -39 30
-69 29 -21 0 -47 -5 -58 -10z"/>
<path d="M4867 5839 c-37 -60 -106 -371 -87 -393 6 -8 35 -17 65 -21 l54 -6
-6 -32 c-3 -18 -11 -50 -18 -72 -10 -37 -14 -40 -46 -39 -18 0 -45 2 -59 5
-24 4 -25 2 -30 -58 -8 -103 -6 -106 84 -122 92 -16 96 -14 119 69 41 147 58
363 30 391 -6 6 -29 13 -52 16 -32 4 -40 9 -37 22 3 9 10 35 16 58 11 46 8 45
96 27 12 -2 26 2 32 9 10 13 52 122 52 136 0 5 -26 12 -57 15 -32 4 -77 9
-100 12 -36 5 -43 3 -56 -17z"/>
<path d="M9937 5595 c-33 -33 -10 -85 38 -85 34 0 55 -10 55 -26 0 -16 -31
-25 -80 -21 -25 1 -35 -2 -35 -13 0 -12 16 -16 68 -18 79 -3 92 4 108 58 17
55 6 86 -33 99 -70 22 -104 23 -121 6z"/>
<path d="M10130 5535 c0 -42 2 -45 28 -45 41 0 73 -11 69 -24 -2 -6 -29 -13
-60 -16 -83 -7 -75 -24 11 -28 83 -3 105 7 100 47 -2 21 -11 27 -46 36 -52 12
-52 31 1 28 53 -3 43 20 -14 29 -24 4 -54 10 -66 13 -21 5 -23 2 -23 -40z"/>
<path d="M5607 7413 c-94 -138 -121 -182 -115 -187 2 -2 22 -6 45 -10 37 -5
44 -3 54 16 6 13 24 37 39 53 15 17 50 64 78 106 42 61 52 83 52 117 0 40 -2
42 -29 42 -27 0 -39 -13 -124 -137z"/>
<path d="M7763 7140 c-131 -26 -206 -121 -182 -229 22 -97 106 -189 226 -247
32 -16 60 -32 63 -36 3 -4 66 -6 140 -4 115 2 141 6 177 24 109 57 130 178 51
297 -59 88 -205 175 -328 194 -73 12 -88 12 -147 1z m-47 -265 c-19 -15 -19
-15 3 -15 12 0 28 -6 36 -12 7 -7 28 -24 46 -38 18 -14 38 -30 45 -37 6 -7 15
-9 18 -5 4 3 10 1 14 -5 4 -6 19 -14 32 -16 14 -2 38 -9 53 -15 16 -7 32 -12
37 -12 8 0 20 -24 20 -41 0 -4 -7 -6 -16 -2 -14 5 -16 1 -12 -18 7 -38 -28
-36 -41 2 -5 16 -14 29 -20 29 -17 0 -24 -21 -12 -33 9 -9 11 -8 6 6 -4 10 -2
17 4 17 6 0 11 -4 11 -9 0 -5 3 -17 7 -27 5 -14 2 -16 -18 -10 -13 4 -31 8
-39 10 -8 2 -14 12 -13 22 1 11 0 13 -3 7 -6 -14 -40 -18 -46 -5 -1 4 -25 18
-51 31 -32 16 -46 29 -42 39 3 8 -3 16 -15 19 -11 3 -17 9 -14 14 3 5 -5 9
-18 9 -18 0 -20 2 -8 10 13 8 13 10 -1 10 -9 0 -22 7 -29 15 -10 13 -9 15 8
15 12 0 24 5 27 10 4 6 -6 10 -22 10 l-28 0 30 19 c17 11 39 20 50 20 20 0 20
0 1 -14z"/>
<path d="M9063 7004 c-59 -22 -120 -90 -128 -146 -8 -51 16 -125 60 -182 34
-45 116 -106 141 -106 12 1 8 6 -13 15 -18 8 -33 18 -33 23 0 5 -10 12 -21 15
-14 4 -20 11 -16 21 4 9 -1 17 -11 20 -9 3 -23 15 -29 26 -12 17 -10 20 12 26
14 3 25 10 25 15 0 15 47 10 60 -6 7 -8 16 -15 21 -15 4 0 20 -11 35 -25 15
-14 32 -25 38 -25 7 0 17 -5 24 -12 11 -11 31 -18 60 -20 10 -1 52 -48 68 -76
1 -1 43 -7 94 -13 l92 -10 30 28 c43 41 58 75 58 134 0 121 -98 230 -270 302
-62 26 -238 33 -297 11z"/>
<path d="M9005 6490 c-54 -11 -95 -28 -95 -38 0 -5 20 -15 45 -22 25 -7 48
-17 52 -23 4 -6 0 -8 -11 -4 -10 4 -30 9 -44 12 l-27 5 25 -10 c35 -16 278
-86 320 -93 l35 -6 -40 20 c-22 10 -77 31 -122 46 -46 15 -83 31 -83 35 0 4
30 8 66 8 41 0 63 4 59 10 -3 6 -16 10 -28 10 -20 1 -19 3 8 17 17 10 67 20
115 24 63 6 45 7 -67 4 -90 -2 -153 0 -153 6 0 10 1 10 -55 -1z"/>
<path d="M9300 6343 c0 -4 98 -53 105 -53 4 0 3 5 0 10 -4 7 63 10 192 11
l198 0 -47 19 c-42 17 -70 19 -248 17 -110 -1 -200 -3 -200 -4z"/>
<path d="M12069 6225 c36 -8 69 -22 76 -32 11 -15 39 -19 184 -28 157 -9 210
-5 146 11 -14 3 -25 10 -25 14 0 13 116 20 349 22 376 2 152 17 -349 23 -404
4 -439 3 -381 -10z"/>
</g>
</svg>
