<?xml version="1.0" standalone="no"?>
<!DOCTYPE svg PUBLIC "-//W3C//DTD SVG 20010904//EN"
 "http://www.w3.org/TR/2001/REC-SVG-20010904/DTD/svg10.dtd">
<svg version="1.0" xmlns="http://www.w3.org/2000/svg"
 width="600.000000pt" height="331.000000pt" viewBox="0 0 600.000000 331.000000"
 preserveAspectRatio="xMidYMid meet">
<metadata>
Created by potrace 1.15, written by Peter Selinger 2001-2017
</metadata>
<g transform="translate(0.000000,331.000000) scale(0.100000,-0.100000)"
fill="#000000" stroke="none">
<path d="M3620 3270 c0 -5 -6 -10 -14 -10 -8 0 -17 -7 -20 -16 -3 -9 -12 -14
-20 -11 -12 5 -115 -49 -139 -72 -10 -10 110 -19 343 -26 102 -3 223 -7 270
-10 47 -3 157 -7 245 -10 88 -3 190 -8 226 -11 47 -3 77 0 104 12 22 9 40 12
44 6 13 -20 370 -53 441 -41 29 5 30 7 10 9 -26 2 -41 5 -50 9 -3 1 -23 4 -45
6 -22 2 -98 11 -170 19 -272 32 -616 53 -720 45 -55 -5 -173 -12 -261 -16
l-161 -8 15 31 c13 28 13 35 -3 68 -16 32 -21 36 -56 36 -22 0 -39 -4 -39 -10z"/>
<path d="M2676 3121 c-38 -3 -71 -10 -73 -16 -2 -6 70 -10 204 -9 115 0 296
-3 403 -7 190 -7 477 -33 488 -44 3 -3 -23 -5 -57 -5 -42 0 -74 -6 -101 -20
-45 -23 -90 -24 -290 -6 -74 7 -216 13 -315 15 -167 2 -374 16 -384 27 -3 2 5
18 18 34 19 27 20 30 4 30 -38 0 -127 -64 -211 -153 -416 -434 -367 -396 -503
-397 -36 -1 -79 -5 -95 -10 -18 -5 48 -8 181 -8 181 0 219 -3 275 -20 120 -37
123 -41 30 -38 -62 1 -88 -2 -95 -11 -6 -8 -29 -15 -52 -16 -53 -3 -40 20 15
26 44 5 -342 -2 -440 -8 -52 -4 -68 -1 -68 9 0 9 -19 15 -57 20 -32 3 -82 9
-112 12 -36 5 -85 1 -148 -12 -143 -28 -107 -39 115 -36 106 1 182 -2 177 -7
-14 -12 -107 -42 -113 -36 -3 3 0 5 6 5 7 0 12 5 12 11 0 7 -44 9 -132 7 -196
-4 -314 0 -302 11 12 12 168 55 264 72 81 14 169 16 268 4 46 -5 67 -4 75 5
10 10 2 11 -35 6 -29 -3 -48 -2 -48 4 0 16 -264 12 -381 -6 -164 -24 -516
-106 -610 -142 -40 -16 -145 -107 -194 -170 -131 -166 -218 -454 -224 -738 -2
-64 7 -144 29 -272 24 -136 29 -186 21 -201 -28 -51 -63 -167 -63 -207 0 -24
-3 -42 -8 -39 -4 2 -24 -6 -43 -19 -19 -13 -38 -22 -41 -19 -7 8 -28 -77 -22
-93 3 -7 -2 -20 -10 -29 -14 -13 -14 -15 3 -15 19 0 66 -52 70 -78 1 -9 10
-23 20 -30 10 -7 17 -18 15 -23 -1 -6 2 -8 7 -5 11 7 80 -30 97 -51 7 -8 38
-16 70 -19 87 -7 134 -15 134 -23 0 -4 27 -13 60 -20 33 -8 60 -17 60 -22 0
-5 11 -9 25 -9 14 0 25 -4 25 -9 0 -5 27 -12 60 -16 33 -4 58 -11 55 -15 -3
-5 3 -9 12 -9 10 0 58 -7 106 -16 49 -8 92 -13 96 -11 4 3 48 -1 97 -8 49 -8
95 -11 101 -9 7 3 21 -4 31 -15 15 -18 33 -22 132 -27 101 -5 190 -11 255 -18
11 -1 23 -6 27 -11 6 -9 59 -15 188 -19 36 -1 68 -6 72 -12 5 -6 8 -5 8 3 0 8
5 10 13 5 13 -8 22 -9 99 -17 26 -2 55 -7 65 -10 10 -3 54 -8 98 -11 44 -4 91
-8 105 -10 53 -6 247 -26 295 -29 28 -2 91 -7 140 -11 168 -12 190 -14 303
-15 88 -2 112 -5 112 -16 0 -8 10 -14 25 -14 14 0 25 6 25 13 0 10 23 14 88
15 102 3 191 10 281 22 36 5 68 7 73 4 4 -3 25 0 45 5 21 5 88 12 148 15 74 4
128 13 163 26 29 11 66 20 82 20 17 0 30 4 30 9 0 5 9 11 21 14 12 3 18 10 14
16 -3 7 3 11 15 11 12 0 29 4 38 9 9 5 33 11 52 14 69 11 108 28 143 62 20 19
42 35 50 35 26 0 140 86 132 100 -2 3 16 17 41 30 24 14 44 28 44 33 0 4 5 5
10 2 6 -3 10 -2 10 4 0 6 6 8 13 5 8 -3 31 11 53 31 76 68 102 94 105 103 5
12 88 82 98 82 5 0 21 11 37 25 16 14 39 28 52 31 12 4 22 10 22 15 0 4 21 20
48 35 71 41 150 93 157 104 3 6 15 10 26 10 10 0 19 4 19 10 0 11 59 50 134
89 82 44 96 52 96 59 0 4 8 8 18 9 10 1 33 15 51 32 18 17 39 31 46 31 7 0 15
7 19 15 3 8 14 15 25 15 11 0 33 11 49 25 17 14 32 25 35 25 22 0 130 76 142
100 10 19 24 30 38 31 17 1 18 2 5 6 -10 2 -18 8 -18 13 0 5 8 11 18 13 16 4
16 5 0 6 -22 1 -24 21 -3 21 8 0 15 5 15 10 0 6 -9 10 -20 10 -11 0 -19 3 -19
8 7 45 -27 82 -74 80 -26 -1 -37 -6 -38 -17 0 -9 -3 -11 -5 -5 -3 6 2 37 11
70 9 32 25 145 36 249 10 105 26 234 34 288 19 129 9 277 -19 277 -12 0 -46
99 -46 135 0 9 -4 13 -10 10 -5 -3 -10 2 -10 12 0 11 -4 23 -9 28 -4 6 -11 22
-15 37 -5 22 -3 26 9 21 20 -7 60 -88 69 -138 4 -21 10 -35 13 -32 3 3 0 30
-7 59 -13 52 -40 98 -99 168 l-29 35 1 -28 c1 -15 7 -29 13 -31 6 -2 11 -28
11 -58 1 -47 0 -49 -7 -19 -12 49 -39 81 -108 126 -34 22 -61 46 -62 53 0 20
-25 25 -78 13 -26 -5 -100 -11 -163 -11 -85 -2 -124 -6 -155 -20 -23 -10 -56
-21 -72 -25 -24 -5 -32 -13 -38 -38 -3 -17 -18 -48 -32 -69 -25 -39 -25 -62 1
-36 8 8 37 23 63 33 27 10 64 27 82 37 18 10 43 18 55 18 28 -1 -34 -35 -148
-81 -44 -18 -85 -40 -92 -48 -17 -22 -16 -2 3 50 19 53 13 103 -21 168 -19 39
-38 56 -94 91 -39 23 -94 52 -123 64 -29 11 -69 33 -88 47 -19 15 -45 32 -58
38 -67 35 -394 65 -450 42 -28 -12 -52 -46 -52 -76 0 -15 -66 -13 -265 11 -66
8 -140 14 -165 14 -78 0 -80 16 -4 33 51 12 108 15 214 12 133 -3 142 -2 102
10 -23 8 -59 16 -79 20 -21 3 -52 14 -70 25 -25 14 -59 20 -145 24 -62 3 -126
8 -143 11 -48 8 -773 14 -849 6z m-248 -386 c42 -9 88 -18 100 -21 l24 -5 -26
-34 c-14 -18 -26 -39 -26 -46 0 -9 -17 -10 -62 -5 -35 3 -106 11 -158 16 -52
5 -97 9 -98 10 -2 0 15 23 38 50 39 46 45 50 86 50 25 0 80 -7 122 -15z m566
-80 c6 -24 53 -45 104 -45 25 0 28 -9 9 -34 -12 -17 -28 -18 -169 -15 -86 2
-159 7 -163 11 -4 4 3 21 16 37 21 26 29 30 59 26 26 -4 45 1 75 19 50 32 61
32 69 1z m1286 -31 c12 -12 52 -155 45 -162 -2 -2 -52 3 -112 12 -130 18 -352
41 -601 60 -101 8 -185 16 -187 18 -3 2 0 21 6 41 l10 36 72 4 c170 9 756 2
767 -9z m1140 -37 c0 -39 72 -128 108 -133 18 -3 97 49 111 74 7 11 11 12 11
4 0 -17 -68 -82 -86 -82 -18 0 -18 2 7 -49 25 -53 36 -111 20 -111 -6 0 -11
15 -11 33 0 18 -6 41 -13 50 -10 15 -12 10 -10 -30 l3 -48 -18 47 c-21 58 -24
60 -53 50 -18 -7 -27 -5 -37 7 -7 9 -10 10 -7 3 17 -34 16 -71 -3 -81 -22 -12
-43 5 -62 49 -10 24 -10 24 -5 -5 2 -16 8 -57 11 -90 6 -59 6 -61 -20 -73 -15
-7 -33 -12 -40 -12 -6 0 -35 -11 -63 -25 l-51 -26 -119 31 c-93 25 -316 88
-485 137 -10 3 -18 10 -18 15 0 6 8 7 18 3 33 -13 247 -54 337 -65 50 -6 101
-14 115 -19 55 -20 240 -42 283 -34 23 5 27 10 27 38 0 18 -7 52 -15 75 -20
56 -19 105 2 140 14 25 15 35 5 67 -11 36 -10 39 13 61 33 28 45 28 45 -1z
m-4855 -377 c36 -27 97 -68 136 -91 l70 -42 28 27 c15 14 30 26 34 26 3 0 9
-17 12 -37 4 -21 13 -62 21 -92 9 -29 13 -56 10 -59 -3 -3 -37 16 -75 41 -70
46 -81 48 -81 15 0 -20 16 -24 23 -5 4 9 8 8 16 -3 16 -22 8 -34 -25 -41 l-29
-6 30 -13 c18 -7 25 -14 17 -17 -10 -4 -10 -8 -2 -18 6 -8 19 -11 28 -8 14 6
15 5 2 -9 -18 -19 -26 -16 -135 62 -73 53 -175 149 -175 166 0 4 16 4 35 1 36
-6 50 7 16 16 -21 5 -47 67 -29 67 7 0 22 -10 35 -22 39 -36 39 -10 0 30 -33
33 -47 62 -32 62 3 0 35 -22 70 -50z m4154 -97 c35 -71 35 -79 -1 -94 -18 -7
-49 -28 -68 -45 -34 -32 -50 -35 -50 -10 0 8 -7 27 -15 42 -8 16 -15 36 -15
45 0 21 46 64 55 50 10 -17 25 -13 25 7 0 15 22 34 47 41 2 1 11 -16 22 -36z
m-1759 -217 c0 -3 -4 -16 -10 -30 -5 -15 -6 -28 0 -31 11 -7 359 16 693 45
264 23 295 24 281 10 -9 -9 -104 -25 -274 -45 -87 -10 -104 -15 -93 -26 7 -7
42 -5 107 6 122 21 161 17 91 -9 -120 -45 -179 -84 -100 -66 36 8 49 -3 18
-15 -88 -34 -681 -108 -875 -109 -92 -1 -108 4 -88 29 17 21 44 20 36 -1 -5
-13 -2 -15 16 -10 13 3 32 6 43 6 18 1 18 2 -2 10 -13 5 -23 17 -23 27 0 13 3
14 12 5 8 -8 40 -11 87 -10 75 1 75 1 21 7 -65 7 -79 30 -33 55 l28 15 -25 1
c-22 0 -153 -13 -237 -24 -94 -13 16 54 216 130 82 32 111 39 111 30z m-1530
-21 c181 -15 254 -23 400 -45 36 -6 177 -24 315 -41 137 -16 251 -32 254 -35
4 -3 -23 -8 -40 -6 -4 1 -46 6 -95 13 -49 6 -101 13 -116 14 -14 2 -48 6 -75
10 -27 3 -67 8 -89 11 -21 2 -73 8 -114 13 -41 5 -115 12 -165 16 -49 4 -103
9 -120 11 -16 3 -57 7 -90 9 -107 7 -230 26 -240 37 -7 7 9 8 50 4 33 -3 89
-8 125 -11z m2984 -927 c-13 -61 -12 -86 5 -83 9 2 19 4 23 4 3 1 12 18 19 39
21 64 21 18 -1 -70 -17 -70 -72 -208 -82 -208 -2 0 -2 34 -1 75 0 41 -2 73 -7
70 -4 -3 -17 -24 -28 -47 -11 -24 -28 -52 -36 -63 -9 -11 -3 7 13 40 16 33 44
108 62 168 32 104 48 140 33 75z"/>
<path d="M5503 3099 c-50 -24 -128 -102 -128 -127 0 -19 9 -19 -210 3 -202 21
-341 34 -415 40 -142 11 -194 16 -202 21 -4 3 -8 1 -8 -4 0 -14 114 -43 196
-49 75 -6 82 -10 64 -42 -7 -14 -4 -24 15 -41 14 -13 27 -22 29 -19 2 2 9 24
17 49 l14 45 45 -3 c53 -3 333 -29 408 -38 43 -4 52 -9 52 -25 0 -21 13 -23
73 -10 23 6 54 12 68 15 21 5 30 16 43 55 9 27 16 73 16 100 0 60 -10 63 -77
30z"/>
<path d="M4525 3080 c11 -7 25 -18 31 -26 9 -11 17 -10 50 1 47 17 81 19 89 5
3 -5 1 -10 -6 -10 -7 0 -9 -3 -6 -6 4 -4 13 -2 21 5 9 8 34 10 72 6 33 -3 90
-8 127 -10 38 -2 72 -7 75 -10 4 -4 -11 -6 -33 -5 -80 5 -78 -2 5 -16 47 -7
117 -13 155 -14 39 0 107 -5 152 -10 77 -10 84 -9 103 10 l20 20 -27 0 c-16 0
-46 6 -68 14 -38 13 -107 19 -385 32 -69 3 -153 9 -187 14 -67 9 -100 4 -121
-17 -15 -14 -36 -8 -27 8 4 5 0 9 -9 9 -8 0 -23 3 -33 6 -15 5 -15 3 2 -6z"/>
</g>
</svg>
