<?xml version="1.0" standalone="no"?>
<!DOCTYPE svg PUBLIC "-//W3C//DTD SVG 20010904//EN"
 "http://www.w3.org/TR/2001/REC-SVG-20010904/DTD/svg10.dtd">
<svg version="1.0" xmlns="http://www.w3.org/2000/svg"
 width="640.000000pt" height="640.000000pt" viewBox="0 0 640.000000 640.000000"
 preserveAspectRatio="xMidYMid meet">
<metadata>
Created by potrace 1.15, written by Peter Selinger 2001-2017
</metadata>
<g transform="translate(0.000000,640.000000) scale(0.100000,-0.100000)"
fill="#000000" stroke="none">
<path d="M2930 4783 c-39 -27 -70 -66 -77 -96 -3 -15 -10 -30 -14 -33 -5 -3
-6 -17 -3 -31 7 -25 6 -26 -27 -19 -63 12 -223 25 -362 29 -149 4 -162 0 -139
-46 7 -13 10 -64 9 -119 -2 -113 -8 -107 101 -115 85 -7 107 -23 30 -23 -29 0
-130 -3 -224 -7 -169 -6 -171 -6 -177 16 -11 43 -117 20 -117 -26 0 -13 -9
-14 -52 -9 -106 12 -304 17 -348 9 -42 -8 -35 -10 105 -32 153 -25 232 -53
228 -82 -1 -8 -7 -32 -13 -54 -7 -22 -18 -85 -26 -140 -14 -106 -24 -151 -44
-200 -7 -16 -13 -39 -14 -50 -2 -27 -37 -25 -194 8 -84 17 -130 23 -145 17
-17 -7 -18 -9 -5 -9 10 -1 36 -8 59 -18 34 -13 38 -18 24 -25 -9 -5 -23 -7
-32 -4 -20 8 -66 -21 -57 -36 5 -8 -3 -9 -24 -5 -18 4 -32 3 -32 -1 0 -4 -24
-6 -52 -5 l-53 2 54 -11 c36 -7 49 -13 40 -18 -7 -5 -17 -6 -23 -3 -14 9 -84
23 -146 29 -30 3 -76 9 -101 14 -54 11 -119 3 -119 -15 0 -8 35 -14 117 -18
80 -4 121 -11 131 -20 11 -12 12 -35 2 -148 -11 -117 -10 -145 4 -222 9 -48
14 -91 12 -96 -3 -5 -26 -12 -52 -16 -34 -5 -50 -3 -62 8 -20 18 -75 23 -116
12 l-28 -8 6 -116 c3 -64 9 -236 12 -383 l7 -268 31 -20 31 -21 -32 6 c-32 6
-33 6 -33 -29 0 -31 -3 -36 -24 -36 -14 0 -28 5 -31 10 -3 6 -11 10 -17 10 -7
0 -7 -5 1 -14 9 -11 4 -15 -28 -24 -22 -5 -41 -7 -43 -3 -5 9 -106 49 -182 71
-80 23 -114 42 -126 74 -6 17 -22 27 -54 35 -45 11 -46 13 -46 49 0 36 -2 39
-47 55 -63 23 -65 22 -61 -15 3 -30 1 -33 -22 -30 l-26 3 4 -108 3 -108 67
-65 c105 -101 149 -139 179 -152 15 -7 31 -16 34 -21 9 -12 281 -109 307 -109
12 0 28 -8 35 -17 29 -41 171 -85 231 -72 22 5 90 11 150 13 l110 3 7 -27 c8
-29 31 -58 47 -58 5 0 22 -6 38 -14 59 -30 227 -68 272 -62 63 8 156 62 206
117 47 53 114 174 140 256 14 40 25 57 54 74 21 12 31 24 25 26 -7 3 -13 10
-13 17 0 8 -9 25 -20 39 -22 28 -26 42 -9 31 6 -3 25 1 42 9 61 30 165 77 171
77 4 0 26 9 49 19 93 42 167 71 182 71 8 0 21 11 27 25 6 14 16 25 22 25 15 0
37 -15 39 -26 1 -5 12 -8 24 -6 30 4 45 -47 19 -62 -51 -31 -52 -34 -4 -29 44
5 48 4 57 -20 10 -26 20 -31 156 -66 93 -25 240 -3 303 45 18 14 43 41 55 60
25 39 25 39 135 58 45 8 97 24 115 35 68 44 113 61 162 61 124 0 311 30 660
105 88 19 241 51 340 70 99 20 205 43 235 52 30 9 111 19 180 23 126 6 155 14
198 54 21 18 39 22 145 26 121 5 123 5 169 40 26 19 55 49 64 67 14 25 21 29
34 20 13 -7 31 -6 68 6 28 10 57 17 65 17 7 0 20 15 29 33 9 19 29 39 46 46
28 12 30 15 36 94 10 128 14 174 26 292 11 108 18 168 39 353 6 51 15 101 20
110 4 9 11 44 15 77 3 33 13 80 20 105 8 25 19 74 25 110 10 63 14 83 47 259
11 58 13 86 5 94 -12 12 -164 36 -228 37 -23 0 -45 -4 -48 -10 -4 -6 -87 -10
-217 -10 -181 0 -209 2 -204 15 5 14 -3 45 -26 108 l-11 27 -245 -2 -245 -3
-34 -49 c-19 -27 -33 -61 -33 -77 0 -27 -2 -29 -45 -30 -25 -1 -51 -2 -57 -3
-7 -1 -12 7 -10 16 3 18 -23 114 -36 134 -5 8 -91 13 -270 16 l-263 5 -25 -30
c-43 -51 -68 -108 -56 -128 8 -13 8 -18 -2 -22 -11 -4 -924 -12 -951 -8 -5 1
-2 6 7 11 15 9 15 13 3 38 -8 15 -22 43 -30 64 -24 53 -79 88 -141 88 -30 0
-59 -7 -74 -17z m3065 -380 c-2 -16 -9 -75 -16 -133 -12 -115 -13 -120 -36
-120 -15 0 -15 48 0 195 2 24 -36 33 -59 14 -13 -10 -12 -15 7 -35 18 -19 21
-32 17 -78 -6 -69 -29 -106 -67 -106 -35 0 -39 5 -33 35 3 16 11 25 23 25 11
0 25 11 31 26 11 23 10 29 -11 45 -21 17 -22 24 -16 67 14 97 8 92 91 92 l74
0 -5 -27z m-3198 -160 c-23 -82 -13 -363 12 -363 9 0 17 -8 17 -17 0 -10 4
-128 9 -263 5 -135 7 -283 6 -330 -1 -47 2 -106 7 -132 10 -49 4 -58 -37 -58
-13 0 -18 9 -20 33 -1 17 -5 69 -9 115 -4 46 -6 85 -4 87 9 9 0 320 -10 326
-7 5 -7 8 0 13 13 8 4 178 -10 187 -6 3 -9 10 -8 15 1 5 -9 12 -22 16 -24 6
-8 12 26 8 14 -1 17 3 12 16 -4 10 -10 78 -13 151 -3 73 -10 133 -15 133 -13
0 -9 59 7 90 17 34 46 53 59 40 5 -5 2 -33 -7 -67z m2564 38 c0 -11 3 -10 9 6
7 18 16 21 52 19 24 -1 42 -6 42 -11 -1 -6 -16 -57 -34 -114 -30 -97 -33 -103
-56 -98 -13 2 -24 0 -24 -4 0 -5 -9 -9 -20 -9 -11 0 -20 5 -20 12 0 6 -11 1
-24 -12 -28 -25 -56 -21 -56 9 0 17 -4 16 -30 -10 -30 -31 -50 -31 -50 -2 0
13 -7 10 -29 -11 -33 -32 -68 -32 -63 -1 3 17 0 16 -14 -5 -33 -47 -69 -54
-84 -17 -9 22 -9 22 -9 1 -1 -22 -36 -40 -47 -23 -3 5 -12 2 -20 -6 -19 -18
-34 -19 -34 -2 0 6 11 53 24 102 14 50 30 109 36 133 8 31 16 42 30 42 14 0
20 -7 21 -22 l0 -23 9 23 c11 26 40 30 41 5 0 -16 1 -16 8 1 6 16 18 20 58 20
28 1 55 4 59 9 13 13 43 7 53 -10 9 -17 11 -17 29 1 24 21 58 17 54 -6 -2 -12
7 -7 28 13 25 26 33 29 45 19 8 -7 15 -20 16 -29z m-527 -7 c30 -11 12 -84
-21 -84 -13 0 -15 -9 -9 -60 9 -76 -6 -132 -48 -177 -41 -46 -61 -38 -52 21
l6 41 -24 -51 c-13 -29 -32 -57 -43 -63 -29 -17 -2 -14 187 24 96 19 180 35
187 35 14 0 12 -7 -16 -110 -62 -222 -73 -249 -103 -250 -5 0 -8 24 -9 53 l0
52 -17 -54 c-16 -51 -43 -83 -58 -68 -4 3 8 55 25 114 18 60 39 130 46 157 14
49 27 66 53 66 11 0 13 -12 9 -46 -2 -25 -1 -41 4 -37 7 7 30 95 26 99 -1 1
-119 -22 -262 -50 -179 -36 -271 -59 -295 -74 -41 -26 -60 -28 -60 -7 0 26
-16 16 -28 -19 -26 -70 -84 -89 -90 -28 -5 45 -15 40 -36 -17 -20 -57 -64
-102 -100 -105 -14 0 -26 -6 -26 -13 0 -11 -30 -33 -45 -33 -3 0 -3 23 1 50 4
33 3 50 -4 50 -11 0 -24 -39 -38 -109 -6 -30 -45 -63 -59 -49 -3 2 9 47 25 99
35 112 35 109 10 109 -21 0 -26 -14 -56 -163 -15 -70 -23 -91 -42 -103 -13 -9
-26 -13 -30 -10 -3 3 7 60 23 126 15 66 25 123 22 126 -2 3 -31 -2 -63 -11
-33 -9 -70 -16 -84 -16 -35 1 -60 -16 -41 -28 9 -6 -13 -19 -73 -42 -67 -27
-85 -38 -81 -50 7 -22 -24 -34 -32 -13 -4 10 -13 14 -29 10 -17 -5 -28 1 -43
22 l-22 27 16 -39 c8 -22 13 -41 11 -44 -12 -11 -35 9 -41 36 -5 23 -10 29
-26 25 -10 -3 -19 0 -19 6 0 6 -8 11 -17 11 -15 1 -13 5 10 25 15 13 27 29 27
35 0 12 22 9 31 -4 4 -5 19 -6 33 -2 21 5 26 11 21 26 -5 15 -2 17 15 13 11
-3 20 -10 20 -15 0 -6 19 -7 50 -3 48 7 50 6 51 -17 l1 -23 7 24 c5 20 14 24
56 28 28 2 82 13 121 23 38 11 80 20 91 20 25 0 22 -7 63 170 40 173 60 261
66 283 6 21 84 25 84 5 -1 -51 -15 -90 -35 -98 -27 -10 -46 -87 -26 -100 17
-10 -16 -140 -41 -162 -11 -10 -23 -33 -28 -51 -7 -31 -6 -33 16 -29 19 3 27
18 49 91 15 47 35 113 46 146 10 33 29 96 42 140 21 72 26 80 48 80 29 0 30
13 -16 -239 -30 -165 -35 -212 -22 -195 2 2 27 102 56 221 32 129 58 219 66
222 7 2 26 1 42 -3 22 -6 29 -14 33 -42 l5 -34 13 41 c12 43 41 61 61 41 8 -8
11 -8 11 1 0 7 12 12 26 12 19 0 24 -4 20 -17 -13 -47 -89 -351 -92 -373 -9
-53 12 12 60 195 46 171 53 190 74 193 29 4 30 11 -22 -181 -15 -54 -24 -107
-21 -117 3 -11 2 -35 -4 -55 -7 -28 -7 -35 5 -35 10 0 14 13 14 45 0 58 25
182 52 252 45 120 115 153 119 55 1 -23 3 -21 13 13 9 28 19 41 34 43 16 2 22
-2 23 -15 0 -14 2 -15 6 -3 6 16 23 30 36 30 4 0 7 -12 7 -26 l0 -26 26 31
c29 34 26 33 48 25z m-1398 -164 c0 -33 -3 -60 -8 -60 -4 0 -8 -9 -8 -20 0
-11 5 -20 10 -20 6 0 10 -7 10 -15 0 -8 -8 -15 -17 -15 -10 0 -35 -3 -55 -6
-34 -6 -38 -4 -38 14 0 18 -7 21 -47 24 -40 3 -48 6 -48 23 0 11 -8 23 -18 27
-13 6 -16 14 -12 28 5 14 2 20 -9 20 -9 0 -16 7 -16 15 0 11 13 15 53 16 64 1
99 7 111 19 6 6 28 10 51 10 l40 0 1 -60z m1780 -147 c-4 -16 -15 -39 -25 -53
-9 -14 -30 -65 -45 -115 -35 -119 -43 -135 -61 -135 -21 0 -19 13 14 125 16
53 27 105 24 115 -4 17 -8 15 -34 -11 -30 -31 -37 -49 -18 -49 20 0 2 -73 -23
-92 -18 -14 -20 -20 -9 -27 15 -10 7 -64 -12 -79 -22 -17 -67 -23 -67 -10 0 7
19 76 41 153 23 77 42 148 43 157 0 20 65 36 76 18 5 -8 9 -7 13 3 5 15 28 22
71 26 15 1 17 -4 12 -26z m-355 -100 c3 -42 -4 -71 -26 -118 -13 -27 -27 -77
-31 -110 -3 -33 -12 -63 -18 -67 -23 -16 -36 -7 -37 25 l-1 32 -10 -37 c-9
-35 -40 -59 -55 -44 -4 3 14 74 38 157 41 141 46 152 74 165 42 18 65 17 66
-3z m-143 -75 c7 -85 -60 -250 -114 -279 -19 -10 -26 -9 -40 2 -22 18 -14 113
17 193 45 116 130 168 137 84z m-144 -45 c-4 -16 -21 -79 -39 -142 -26 -95
-36 -116 -55 -123 -22 -8 -22 -7 -16 34 4 24 10 54 13 68 5 21 4 23 -9 13 -8
-7 -20 -38 -27 -68 -10 -43 -18 -59 -37 -67 -13 -6 -26 -9 -29 -6 -5 5 55 249
64 259 3 4 16 10 29 14 19 5 22 3 22 -20 0 -34 16 -24 25 15 6 29 27 49 53 50
9 0 10 -8 6 -27z m-2430 -45 c3 -13 6 -33 6 -44 0 -12 7 -24 15 -28 8 -3 20
-17 25 -32 8 -21 15 -25 34 -20 12 3 31 0 40 -7 16 -11 19 -38 23 -210 6 -212
5 -219 -45 -232 -15 -4 -39 -21 -54 -38 -25 -28 -29 -30 -40 -16 -7 9 -26 18
-43 22 -16 3 -38 9 -47 12 -23 9 -24 -20 -2 -33 21 -11 10 -32 -16 -32 -24 0
-40 29 -40 74 0 51 39 83 67 55 7 -7 10 0 8 23 -1 18 -2 70 -3 116 l-2 83 -77
-3 -78 -3 -3 83 -3 82 27 0 c22 0 24 2 15 14 -7 8 -11 27 -8 43 4 26 5 26 11
6 6 -16 19 -23 53 -28 25 -4 52 -9 59 -12 8 -3 14 -1 14 5 0 5 -22 12 -50 16
-48 6 -62 17 -39 32 6 3 9 17 6 30 -4 22 2 26 57 43 78 25 83 25 90 -1z m-835
-88 c12 -6 17 -17 14 -32 -2 -13 3 -32 11 -43 14 -17 17 -18 26 -5 6 8 9 28 7
43 -3 21 0 26 10 22 8 -3 21 -5 29 -5 11 0 14 -18 14 -85 0 -47 -3 -85 -7 -85
-4 0 -42 8 -85 17 -90 19 -93 23 -83 118 8 69 20 79 64 55z m441 -102 c0 -35
-3 -80 -7 -102 l-6 -38 -56 5 c-84 8 -185 27 -191 37 -3 4 -4 40 -2 79 3 63 6
71 23 71 32 0 59 -19 52 -36 -4 -10 1 -17 15 -21 14 -3 19 -10 14 -21 -6 -16
-4 -16 18 -1 14 9 26 28 28 43 3 21 9 26 30 27 15 0 36 4 47 9 33 14 35 12 35
-52z m815 31 c0 -16 -7 -25 -20 -28 -42 -7 -50 -65 -10 -75 18 -5 27 -17 35
-45 21 -79 -18 -161 -76 -161 -19 0 -24 5 -24 25 0 20 5 25 24 25 27 0 36 16
36 66 0 22 -5 36 -15 39 -8 3 -21 7 -27 9 -10 2 -12 24 -8 82 5 78 5 79 35 85
42 9 50 6 50 -22z m3129 -370 c18 -33 19 -42 7 -93 -22 -98 -79 -141 -130 -98
-67 54 -6 240 76 230 20 -2 33 -13 47 -39z m-341 -51 c35 -47 20 -147 -31
-205 -13 -16 -30 -23 -55 -23 -39 0 -60 20 -72 72 -10 39 13 124 42 159 33 39
86 38 116 -3z m-2729 -299 c15 1 35 -4 42 -10 16 -13 19 -43 4 -34 -6 3 -22
-3 -36 -14 -15 -12 -39 -21 -54 -21 -15 0 -78 -19 -141 -41 -63 -23 -136 -47
-162 -54 -27 -8 -60 -21 -74 -30 -25 -17 -27 -17 -44 6 l-18 24 6 -23 c4 -18
1 -24 -16 -29 -38 -10 -18 -58 29 -68 16 -4 30 -12 30 -18 0 -6 6 -2 14 8 8
11 12 24 10 30 -3 6 17 16 43 23 26 7 61 19 78 27 16 7 39 15 50 18 11 3 58
19 105 37 47 17 123 44 170 60 47 16 93 32 103 35 12 5 17 2 17 -12 0 -12 -13
-25 -35 -36 -26 -12 -35 -23 -35 -41 0 -36 -20 -75 -42 -81 -10 -4 -18 -10
-18 -14 0 -4 -7 -16 -15 -27 -14 -18 -15 -17 -9 11 l7 30 -19 -23 c-11 -13
-60 -37 -114 -57 -214 -77 -283 -106 -296 -123 -12 -16 -13 -15 -14 7 0 24 -1
24 -14 6 -14 -19 -15 -19 -35 -1 -12 11 -25 42 -31 75 -6 31 -18 83 -26 117
-7 33 -14 68 -14 77 0 20 30 23 50 5 8 -7 7 -4 -3 8 -22 26 -22 37 1 30 9 -3
49 5 87 19 39 13 84 25 100 25 17 0 55 7 85 16 30 8 73 20 95 25 22 6 48 19
58 30 12 13 25 18 36 13 9 -4 29 -6 45 -5z m669 -43 c48 -44 49 -163 3 -254
-31 -61 -63 -85 -107 -80 -51 5 -74 45 -74 126 0 78 36 164 86 207 38 31 59
32 92 1z m-1914 -191 c1 -2 -7 -25 -20 -52 -13 -26 -24 -49 -24 -50 0 -1 -38
9 -83 23 l-82 25 24 26 c29 31 76 43 136 36 25 -2 47 -6 49 -8z m611 -251 c46
-40 63 -80 63 -154 0 -193 -172 -365 -293 -293 -34 20 -65 74 -74 128 -11 72
50 251 102 298 57 51 153 62 202 21z m-1224 -114 c16 -5 43 -11 59 -13 26 -4
30 -8 27 -33 -2 -27 -1 -28 12 -10 15 19 46 16 46 -4 0 -13 -41 -30 -54 -23
-4 3 -12 0 -16 -7 -21 -34 -90 -14 -155 44 -22 19 -37 35 -33 36 4 0 14 -7 22
-16 15 -14 16 -14 16 4 0 34 22 40 76 22z"/>
<path d="M1292 4133 c-22 -57 -110 -299 -117 -321 -6 -22 -5 -23 54 -21 34 1
64 -1 68 -4 3 -4 -9 -7 -28 -7 -45 0 -69 -15 -38 -23 13 -3 28 -2 33 2 6 5 38
12 71 17 l60 8 -58 10 c-32 6 -56 14 -52 17 3 4 -8 11 -24 17 -20 7 -31 18
-31 30 0 11 18 82 39 158 38 132 46 177 23 117z"/>
<path d="M469 3064 c-2 -28 1 -99 11 -298 11 -208 11 -210 105 -227 61 -11
214 -59 272 -85 17 -8 45 -17 62 -20 l31 -6 -1 113 c0 63 -4 181 -8 263 -6
122 -10 151 -24 161 -10 7 -102 34 -205 60 -247 62 -242 61 -243 39z"/>
<path d="M340 2751 c0 -12 26 -32 46 -35 10 -2 20 -8 22 -14 2 -6 -22 -3 -60
9 -76 23 -85 17 -72 -47 9 -46 10 -47 74 -70 73 -27 105 -28 104 -1 0 9 -1 42
-2 72 -2 50 -5 56 -32 70 -16 9 -30 13 -30 11 0 -3 -11 -1 -25 4 -14 5 -25 6
-25 1z"/>
</g>
</svg>
