<?xml version="1.0" standalone="no"?>
<!DOCTYPE svg PUBLIC "-//W3C//DTD SVG 20010904//EN"
 "http://www.w3.org/TR/2001/REC-SVG-20010904/DTD/svg10.dtd">
<svg version="1.0" xmlns="http://www.w3.org/2000/svg"
 width="800.000000pt" height="468.000000pt" viewBox="0 0 800.000000 468.000000"
 preserveAspectRatio="xMidYMid meet">
<metadata>
Created by potrace 1.15, written by Peter Selinger 2001-2017
</metadata>
<g transform="translate(0.000000,468.000000) scale(0.100000,-0.100000)"
fill="#000000" stroke="none">
<path d="M3446 4059 c-578 -37 -1129 -141 -1277 -242 -67 -46 -69 -52 -100
-344 -42 -391 -38 -465 20 -434 11 6 37 11 58 11 21 0 162 18 313 40 1046 150
1803 216 2695 236 192 4 217 3 195 -9 -14 -8 -80 -24 -147 -37 -68 -12 -123
-24 -123 -27 0 -3 13 -3 30 0 16 4 95 18 176 32 80 14 160 33 176 41 l30 16
-23 25 c-43 46 -422 399 -517 481 -52 45 -113 90 -136 101 -190 93 -834 144
-1370 110z m644 -19 c349 -15 576 -51 697 -108 44 -20 170 -125 263 -219 25
-25 25 -25 2 -13 -36 18 -196 78 -299 111 -122 40 -321 84 -463 103 -334 44
-477 30 -813 -81 l-139 -45 -181 50 c-275 77 -350 86 -484 57 -164 -35 -310
-102 -455 -210 l-88 -65 0 44 c0 25 4 56 9 69 25 64 122 112 336 166 356 88
677 123 1375 149 19 1 127 -3 240 -8z m396 -238 c169 -26 279 -54 436 -107
140 -47 139 -47 282 -178 56 -52 119 -110 141 -130 l40 -36 -55 -1 c-313 -2
-1008 -35 -1375 -66 -286 -23 -855 -85 -1145 -125 -80 -11 -192 -26 -250 -34
-337 -46 -406 -55 -441 -55 l-39 0 0 68 c0 60 19 267 36 395 6 47 7 48 87 95
156 91 293 137 484 163 126 17 353 6 483 -22 131 -29 138 -29 293 5 215 47
315 55 617 52 213 -3 304 -8 406 -24z"/>
<path d="M3640 3621 c-176 -57 -176 -202 1 -267 54 -20 178 -23 236 -6 59 17
123 80 123 119 0 46 -39 94 -104 127 -48 25 -71 30 -144 33 -48 1 -98 -1 -112
-6z"/>
<path d="M2803 3539 c-226 -44 -208 -236 25 -284 210 -44 385 81 280 200 -39
45 -87 70 -163 84 -66 12 -82 12 -142 0z"/>
<path d="M1773 3746 c-73 -27 -147 -75 -225 -146 -56 -50 -136 -142 -110 -127
20 13 14 -4 -15 -42 -37 -47 -53 -79 -53 -102 0 -11 -5 -19 -11 -19 -6 0 -8 7
-5 16 3 9 2 12 -5 9 -12 -8 -8 -47 6 -57 6 -4 2 -8 -7 -8 -24 0 -24 61 -1 98
l17 27 -27 -24 c-22 -20 -27 -33 -27 -72 l0 -48 148 6 c176 7 194 1 244 -82
30 -49 36 -54 69 -55 42 0 58 12 89 64 13 22 25 35 27 30 2 -5 -3 -43 -10 -84
-11 -65 -15 -75 -32 -74 -79 6 -383 37 -438 46 -53 8 -76 17 -103 40 -25 22
-33 25 -28 12 4 -11 11 -25 17 -32 17 -22 109 -41 247 -51 139 -10 300 -38
300 -53 0 -16 36 -8 37 10 1 9 9 58 17 108 28 159 75 552 69 576 -16 63 -80
75 -190 34z"/>
<path d="M6627 3283 c-15 -14 -6 -76 17 -121 45 -90 78 -204 85 -302 8 -93 8
-93 9 -25 1 39 -4 90 -9 115 -6 25 -12 66 -14 91 -3 41 0 48 21 59 13 8 24 17
24 22 0 15 43 -2 84 -34 58 -46 30 -5 -46 69 -61 58 -130 99 -148 88 -15 -9
-22 15 -10 30 12 15 0 22 -13 8z"/>
<path d="M1170 3054 c-17 -15 -34 -23 -38 -19 -4 4 -1 10 6 12 6 3 12 9 12 15
0 6 -6 5 -15 -2 -10 -8 -13 -21 -9 -33 4 -12 2 -17 -4 -13 -5 3 -17 -6 -27
-20 -9 -14 -24 -33 -33 -43 -93 -97 -116 -199 -115 -503 1 -174 -6 -224 -21
-164 -6 25 -85 201 -113 251 -9 17 -21 39 -27 50 -24 45 -50 65 -82 65 -18 0
-36 -4 -39 -10 -11 -18 -20 -10 -39 38 -40 97 -85 144 -123 126 -15 -7 -14 -8
10 -12 15 -2 25 -8 22 -13 -4 -5 -16 -7 -29 -3 -29 7 -46 -13 -51 -63 l-4 -38
11 37 c10 32 17 38 54 47 53 13 57 14 49 1 -3 -5 -1 -10 5 -10 11 0 69 -114
71 -140 0 -10 2 -11 6 -2 2 6 9 12 15 12 7 0 6 -5 -1 -14 -9 -10 -8 -24 3 -57
17 -50 56 -234 55 -258 0 -9 -11 29 -24 84 -55 239 -115 375 -166 375 -19 0
-54 -39 -64 -71 -4 -11 -10 -17 -13 -15 -18 11 -19 -250 -2 -353 7 -46 8 -94
1 -161 -14 -122 -14 -441 -1 -643 12 -179 24 -216 87 -264 l37 -28 300 0 c166
1 318 4 340 9 24 5 49 20 70 41 l31 35 50 -14 c28 -8 71 -22 97 -32 44 -17 47
-20 53 -63 12 -81 55 -214 99 -306 156 -328 343 -397 947 -350 332 26 489 49
552 81 17 10 62 46 98 80 l65 64 205 -10 c859 -39 1358 -19 1990 82 l195 31
50 -38 c86 -66 133 -80 369 -112 80 -10 197 -17 305 -17 172 0 178 1 345 42
103 25 198 56 240 77 188 91 346 344 385 614 21 141 0 399 -40 492 -8 20 -9
14 -7 -29 1 -28 0 -52 -3 -52 -3 0 -14 -39 -24 -87 -10 -49 -27 -113 -37 -143
-10 -30 -19 -65 -19 -78 0 -47 -103 -202 -134 -202 -6 0 -5 5 2 12 19 19 14
28 -12 18 -13 -5 -27 -6 -30 -3 -3 4 -6 2 -6 -4 0 -6 -8 -9 -18 -7 -9 3 -44
-2 -77 -10 -32 -9 -79 -16 -103 -16 -24 0 -51 -4 -60 -9 -15 -7 -176 -31 -322
-46 -90 -10 -176 -28 -216 -46 -23 -10 -52 -19 -65 -21 -13 -2 -28 -6 -34 -9
-5 -3 -30 -11 -55 -18 -25 -7 -54 -17 -65 -22 -40 -16 -187 -17 -220 -1 -16 9
-38 19 -47 24 -30 14 -181 5 -394 -24 -162 -22 -472 23 -654 94 -49 19 -165
73 -227 106 -54 28 -64 32 -83 32 -21 0 -24 -4 -34 -53 -4 -16 -17 -32 -31
-39 -14 -6 -25 -17 -25 -24 0 -8 -13 -20 -29 -29 -17 -8 -36 -23 -43 -32 -15
-21 -39 -33 -124 -62 -47 -16 -85 -21 -165 -21 -91 1 -199 16 -226 33 -5 3
-30 7 -56 8 -30 2 -47 7 -47 16 0 7 -6 10 -15 7 -8 -4 -15 -2 -15 4 0 9 -55
27 -72 23 -5 0 -8 6 -8 14 0 8 -7 15 -15 15 -8 0 -15 6 -15 13 0 8 -4 7 -10
-3 -8 -13 -10 -13 -10 2 0 11 -5 15 -15 12 -8 -4 -15 -2 -15 3 0 6 -18 16 -40
23 -32 10 -40 18 -40 37 0 13 -6 24 -15 24 -8 1 -19 3 -25 4 -5 1 -17 3 -25 4
-8 0 -15 10 -15 21 0 15 -7 20 -24 20 -25 0 -66 41 -66 66 0 8 -8 14 -19 14
-10 0 -24 7 -31 15 -7 8 -18 15 -25 15 -8 0 -22 11 -33 25 -11 14 -25 25 -31
25 -6 0 -11 9 -11 20 0 12 -7 20 -16 20 -9 0 -18 9 -21 20 -3 12 -14 20 -26
20 -12 0 -35 14 -53 30 -28 28 -31 35 -26 80 3 33 1 50 -7 50 -6 0 -11 -17
-11 -40 l0 -40 -40 0 c-40 0 -40 0 -40 39 0 29 -4 40 -17 43 -15 3 -15 4 1 21
29 29 14 37 -32 16 -23 -11 -41 -23 -38 -27 2 -4 -12 -7 -32 -8 -20 0 -38 -6
-40 -12 -2 -8 -31 -12 -82 -12 -43 0 -82 -4 -85 -10 -10 -16 -33 -12 -44 8 -6
11 -20 55 -32 98 -11 43 -28 104 -36 134 -8 30 -19 70 -24 88 -5 17 -14 49
-19 70 -6 20 -12 48 -14 62 -2 13 -9 26 -15 28 -6 2 -11 12 -11 21 0 24 -43
130 -87 216 -66 127 -114 188 -176 221 -25 13 -31 13 -63 -2 -63 -30 -137
-172 -159 -305 -11 -68 -24 -82 -25 -26 0 26 -4 47 -10 47 -5 0 -10 -5 -10
-12 0 -6 -2 -9 -5 -6 -9 8 6 59 15 53 8 -5 18 55 12 73 -2 6 -10 8 -18 5 -7
-3 -12 -8 -9 -12 2 -4 -12 -13 -31 -20 -29 -10 -34 -17 -35 -44 -1 -18 -1 -36
0 -40 1 -5 -3 -6 -9 -2 -5 3 -10 1 -10 -4 0 -6 -5 -11 -11 -11 -19 0 -35 -25
-37 -59 -5 -65 -12 -45 -12 32 l0 77 -26 -10 c-45 -18 -54 -13 -54 29 0 43
-15 55 -57 45 -21 -6 -24 -4 -17 7 5 9 -1 8 -19 -4 -27 -17 -28 -17 -57 3 -17
12 -30 26 -30 32 0 6 6 6 15 -2 13 -11 14 -10 9 3 -5 15 -2 15 44 2 70 -21
202 -43 207 -35 3 4 -19 10 -48 14 -59 7 -165 38 -197 58 -17 11 -22 11 -31
-2 -8 -12 -9 -11 -7 5 2 16 -6 22 -42 32 -25 6 -64 12 -87 12 -40 1 -47 -4
-107 -64 -35 -35 -72 -81 -82 -101 -11 -20 -26 -50 -35 -67 l-16 -31 -8 33
c-8 38 0 192 16 294 9 58 14 67 32 67 12 1 36 7 52 15 29 14 24 14 -37 -1 -25
-5 -28 -3 -28 20 0 25 3 26 58 28 56 2 56 2 10 5 -27 2 -48 8 -48 13 0 6 46
57 101 115 101 104 120 130 59 79z m1100 -820 c6 -14 2 -20 -14 -25 -19 -5
-21 -12 -19 -70 1 -35 -1 -57 -5 -49 -12 26 -34 24 -27 -2 5 -15 4 -19 -2 -13
-9 9 -17 27 -43 98 l-10 27 -57 -29 c-76 -39 -173 -117 -173 -139 0 -58 102
-205 211 -306 86 -80 103 -90 128 -76 17 9 21 20 21 60 0 68 16 64 19 -4 2
-46 -1 -57 -18 -66 -13 -6 -18 -17 -15 -28 5 -13 4 -14 -4 -3 -7 9 -12 10 -16
2 -4 -6 -14 -11 -23 -11 -25 0 -275 231 -328 303 -15 20 -32 37 -37 37 -12 0
-68 -124 -75 -164 l-5 -31 119 -29 c187 -45 312 -111 314 -165 l0 -26 10 23
c5 13 7 27 4 32 -7 11 19 20 33 11 6 -3 12 -35 13 -69 1 -39 10 -77 21 -98 23
-43 24 -153 2 -244 -18 -76 -45 -262 -39 -268 10 -10 56 10 97 41 49 38 51 49
20 142 -11 33 -25 101 -31 150 -6 50 -15 112 -20 140 -7 42 -6 54 10 73 10 13
23 39 29 58 10 30 16 34 46 34 23 0 34 -5 34 -14 0 -8 6 -17 13 -19 6 -3 -5
-6 -25 -6 -71 -2 -87 -46 -63 -183 21 -124 39 -176 76 -221 l31 -38 24 35 c13
19 24 39 24 44 0 5 7 15 15 22 12 10 16 9 22 -5 17 -46 -115 -209 -219 -271
-91 -53 -165 -70 -243 -57 -175 30 -295 156 -366 383 -21 66 -24 95 -24 245 0
155 2 178 28 268 47 171 135 321 239 409 112 96 279 147 298 92z"/>
<path d="M1742 1633 c-9 -23 -9 -312 0 -335 6 -15 12 -15 75 2 126 34 232 78
270 113 12 10 26 17 31 13 13 -8 69 54 77 85 5 21 1 31 -20 47 -59 46 -238 92
-361 92 -52 0 -66 -3 -72 -17z"/>
<path d="M2214 1482 c4 -7 -14 -34 -43 -66 -42 -43 -82 -69 -221 -140 -155
-80 -170 -90 -164 -109 10 -34 34 -79 61 -115 l25 -33 36 60 c34 55 93 125
255 303 52 56 64 65 80 56 10 -5 21 -7 24 -5 2 3 -5 8 -16 12 -12 3 -21 13
-21 20 0 8 -5 17 -12 21 -7 4 -8 3 -4 -4z"/>
<path d="M2223 1388 c-11 -13 -23 -28 -26 -34 -11 -19 13 -73 35 -80 11 -3 17
-8 15 -11 -11 -10 -47 19 -53 42 -3 14 -12 25 -19 25 -18 0 -152 -175 -187
-244 -47 -94 -59 -133 -44 -145 26 -22 148 -61 190 -61 43 0 44 1 51 37 3 20
25 96 47 167 58 185 65 325 17 326 -3 0 -15 -10 -26 -22z"/>
<path d="M2404 2939 c-7 -11 15 -35 196 -223 107 -110 228 -214 282 -242 60
-31 315 -66 586 -80 149 -8 158 -3 90 47 -43 31 -131 79 -145 79 -12 0 16 -24
30 -26 24 -3 128 -77 120 -85 -11 -9 -254 6 -422 26 -170 21 -241 43 -316 100
-85 63 -407 387 -394 396 27 16 88 -20 209 -125 l74 -65 22 20 c21 19 21 19
65 -1 24 -12 66 -34 93 -51 27 -16 50 -28 53 -26 5 6 -40 38 -99 72 -53 31
-24 34 41 5 92 -42 50 -16 -74 45 -71 36 -134 64 -140 64 -5 0 26 -18 69 -38
58 -27 75 -39 62 -44 -9 -4 -15 -3 -12 1 2 4 -39 26 -92 49 -164 70 -171 74
-139 68 49 -10 28 3 -42 24 -78 24 -107 26 -117 10z"/>
<path d="M4136 2104 c-26 -14 -51 -34 -53 -45 -3 -10 -9 -19 -14 -19 -5 0 -9
-7 -9 -15 0 -9 -13 -42 -30 -75 -42 -83 -39 -122 16 -201 26 -39 106 -84 130
-75 9 3 12 1 9 -4 -3 -6 1 -10 10 -10 8 0 73 -29 143 -64 115 -57 139 -66 232
-79 193 -28 368 -41 383 -29 22 18 453 55 436 38 -5 -5 -183 -34 -244 -39 -22
-2 1 -4 51 -5 119 -3 342 22 474 52 122 28 135 24 103 -34 -12 -22 -18 -40
-15 -40 14 0 128 72 155 98 48 45 67 96 83 220 18 135 32 174 71 198 46 30 53
47 30 78 -18 25 -39 12 -61 -38 -15 -32 -34 -53 -72 -78 -42 -27 -53 -39 -58
-68 -8 -52 -31 -78 -74 -85 -20 -4 -57 -15 -82 -25 -120 -49 -363 -96 -573
-111 -177 -13 -481 0 -572 25 -29 7 -76 11 -109 8 -42 -3 -57 -2 -52 7 5 7 -2
11 -18 11 l-26 0 22 22 23 23 360 -3 c409 -4 555 6 768 48 81 17 157 30 169
30 23 0 153 69 145 77 -3 2 -14 0 -24 -5 -25 -14 -132 -41 -179 -46 -21 -2
-66 -8 -99 -12 -75 -11 -762 -12 -870 -1 -115 11 -192 24 -345 58 -198 44
-210 48 -210 64 0 8 4 15 9 15 17 0 101 90 107 115 8 33 7 34 -47 40 -35 4
-54 0 -93 -21z"/>
</g>
</svg>
