<?xml version="1.0" standalone="no"?>
<!DOCTYPE svg PUBLIC "-//W3C//DTD SVG 20010904//EN"
 "http://www.w3.org/TR/2001/REC-SVG-20010904/DTD/svg10.dtd">
<svg version="1.0" xmlns="http://www.w3.org/2000/svg"
 width="640.000000pt" height="480.000000pt" viewBox="0 0 640.000000 480.000000"
 preserveAspectRatio="xMidYMid meet">
<metadata>
Created by potrace 1.15, written by Peter Selinger 2001-2017
</metadata>
<g transform="translate(0.000000,480.000000) scale(0.100000,-0.100000)"
fill="#000000" stroke="none">
<path d="M2830 3896 c-94 -20 -281 -125 -338 -190 -37 -43 -39 -58 -12 -109
11 -20 20 -44 20 -52 0 -21 1 -20 77 28 37 24 87 51 111 60 40 16 42 16 42 -2
0 -11 -6 -21 -12 -24 -10 -3 -10 -7 1 -20 7 -10 9 -17 3 -17 -14 0 -36 -92
-23 -99 6 -4 7 -21 1 -46 -5 -22 -12 -150 -16 -284 -3 -134 -10 -267 -15 -295
-7 -44 -7 -41 -4 24 3 41 8 202 11 357 7 306 6 313 -45 313 -36 0 -108 -48
-120 -79 -14 -35 -60 -278 -116 -615 -51 -303 -51 -316 2 -337 49 -19 166 -40
189 -35 13 4 30 13 39 23 15 15 16 15 13 -3 -2 -10 -7 -22 -13 -26 -6 -5 -5
-8 3 -8 6 0 12 -5 12 -11 0 -7 -14 -8 -42 -4 -49 8 -46 -3 4 -16 21 -5 -25 -7
-127 -5 -143 3 -177 -7 -50 -15 42 -2 37 -4 -30 -8 l-80 -6 135 -13 c74 -7
151 -16 170 -19 l35 -6 -50 -9 c-27 -5 -51 -11 -53 -13 -2 -2 1 -13 8 -24 10
-20 12 -20 35 -5 14 9 25 12 25 8 0 -5 5 -2 10 6 8 13 11 13 25 -1 44 -44 -4
-126 -59 -101 -14 6 -28 23 -32 37 -7 28 -35 33 -54 10 -10 -12 -10 -19 -2
-27 18 -18 14 -35 -10 -41 l-23 -6 25 -23 c14 -14 38 -23 62 -24 21 -1 58 -12
83 -24 43 -21 46 -24 43 -58 -3 -32 -7 -38 -37 -46 -19 -5 -52 -27 -74 -48
-37 -35 -39 -41 -34 -78 3 -27 15 -50 32 -66 14 -13 23 -24 19 -24 -4 0 1 -9
11 -20 14 -15 15 -20 4 -21 -8 0 -6 -4 6 -9 17 -7 17 -9 3 -9 -18 -1 -27 -41
-9 -41 13 0 0 -51 -15 -57 -8 -3 -14 -18 -14 -33 0 -16 -4 -31 -9 -35 -6 -3
-8 -19 -6 -35 2 -22 -1 -30 -11 -30 -9 0 -12 -5 -8 -12 15 -24 -36 20 -73 63
-61 70 -117 120 -131 114 -7 -3 -27 2 -43 11 -49 25 -99 -1 -127 -66 -8 -19
-23 -73 -33 -120 l-17 -85 0 145 c-1 80 3 168 8 195 5 31 4 55 -2 62 -5 7 -7
17 -3 23 3 5 3 20 -1 33 -7 21 -7 21 -15 2 -4 -11 -8 -46 -8 -78 -1 -32 -8
-74 -16 -93 -11 -26 -12 -46 -6 -75 6 -26 6 -37 -2 -32 -6 4 -8 -3 -3 -20 3
-15 2 -27 -6 -29 -6 -2 -9 -11 -6 -18 4 -10 11 -3 21 20 l15 35 0 -50 c-1 -27
-4 -43 -7 -35 -3 8 -13 14 -21 14 -8 -1 -25 -2 -37 -3 -16 -1 -21 -6 -17 -16
4 -8 1 -15 -5 -15 -6 0 -11 -7 -11 -15 0 -8 5 -15 10 -15 6 0 10 -9 10 -21 0
-11 5 -17 10 -14 6 3 10 2 10 -4 0 -5 -4 -11 -9 -13 -4 -1 -12 -14 -16 -27 -7
-22 -5 -23 16 -17 13 3 40 9 60 12 36 6 37 6 41 -32 5 -40 -5 -55 -32 -52 -30
3 -99 -22 -94 -35 2 -7 -8 -20 -24 -29 -15 -9 -35 -25 -45 -36 -16 -18 -16
-20 3 -37 20 -18 21 -18 50 10 28 27 32 28 67 17 21 -6 49 -13 63 -14 22 -3
26 -9 34 -58 9 -59 52 -129 109 -176 21 -17 25 -24 12 -19 -16 5 -18 4 -7 -7
16 -16 269 -17 487 0 159 11 362 20 715 31 173 6 210 9 190 18 -14 7 -20 12
-14 12 6 1 29 17 53 37 60 52 93 122 99 212 4 64 14 93 27 80 3 -2 0 -32 -6
-66 -11 -59 -10 -62 16 -96 29 -38 58 -49 157 -61 l57 -6 6 45 c4 26 10 48 14
50 3 2 65 -18 136 -45 204 -77 305 -107 373 -113 60 -6 62 -5 45 12 -10 10
-67 39 -128 64 -60 26 -164 69 -230 97 -66 27 -141 53 -167 57 -66 9 -60 21 6
14 48 -5 54 -4 46 10 -8 16 4 85 69 400 l20 95 -31 26 c-29 25 -35 26 -67 14
-20 -6 -42 -23 -48 -36 -14 -27 -17 -11 -7 40 6 27 12 32 44 37 34 6 38 10 53
58 28 93 30 113 11 124 -16 9 -16 15 -6 48 6 22 14 62 18 90 l6 52 -51 11
c-70 15 -78 14 -101 -9 -11 -11 -27 -20 -35 -20 -8 0 -15 -2 -15 -4 0 -10 -60
-289 -62 -291 -2 -1 -30 1 -63 5 -33 4 -70 3 -82 -1 -13 -5 -23 -5 -23 0 0 4
-13 6 -30 3 -25 -4 -30 -1 -35 24 -4 16 -8 34 -9 39 -2 6 -3 -55 -2 -135 1
-98 -2 -156 -11 -179 -7 -18 -13 -46 -13 -61 0 -15 -7 -33 -15 -40 -8 -7 -19
-31 -25 -54 -41 -167 -53 -183 -143 -185 -36 -1 -79 5 -97 13 -23 9 -42 11
-59 5 -20 -7 -36 -4 -65 11 -26 13 -43 16 -51 10 -7 -6 -24 -6 -46 0 -18 6
-48 10 -65 10 -17 0 -37 7 -44 15 -7 8 -21 15 -31 15 -11 0 -36 15 -56 34 -36
32 -38 37 -41 108 -3 49 5 118 22 212 14 77 26 142 26 145 0 20 -105 57 -116
40 -3 -5 -14 -14 -25 -20 -18 -9 -20 -8 -17 17 2 21 11 30 38 39 34 11 35 15
54 95 17 76 17 85 2 95 -13 10 -14 23 -5 104 6 51 9 95 5 98 -3 3 -36 6 -74 7
l-69 1 5 42 c2 24 -2 61 -12 89 -9 26 -14 49 -12 51 2 2 16 -7 31 -22 16 -14
57 -34 93 -45 98 -30 574 -90 732 -91 75 -1 86 1 102 21 33 40 21 240 -32 560
-77 460 -86 496 -133 536 -111 95 -426 168 -578 135 -130 -29 -152 -40 -196
-101 -14 -19 -23 -27 -19 -17 3 10 6 24 6 31 0 7 11 30 25 50 13 20 21 36 18
36 -4 0 -2 5 5 12 7 7 12 20 12 29 0 20 9 23 100 40 174 30 529 -34 636 -116
32 -24 43 -24 26 1 -4 6 -32 25 -62 42 -30 18 -51 32 -46 32 5 0 34 -14 64
-31 30 -17 56 -28 59 -25 11 10 -7 37 -31 46 -13 5 -27 13 -30 19 -3 5 -19 12
-35 16 -16 3 -35 13 -42 21 -6 8 -22 14 -35 14 -27 0 -94 30 -94 42 0 4 -9 8
-19 8 -11 0 -23 5 -26 10 -3 6 -15 10 -27 10 -17 0 -18 3 -8 15 10 12 8 16
-11 23 l-23 9 21 12 c12 6 34 11 50 12 20 1 13 5 -27 15 -80 21 -358 27 -440
10z m373 -346 c167 -25 279 -59 329 -100 52 -43 53 -47 143 -544 4 -21 2 -27
-9 -23 -34 13 -263 61 -389 82 -96 15 -141 27 -150 38 -16 23 -117 36 -241 32
l-99 -3 7 150 c9 195 23 297 45 328 23 32 100 59 171 60 30 0 117 -9 193 -20z
m-82 -563 c36 -20 37 -24 36 -72 -1 -86 47 -145 132 -161 74 -14 138 51 128
129 l-5 40 46 -7 c26 -3 81 -15 123 -27 l76 -20 12 -82 c7 -45 15 -136 18
-203 9 -186 15 -183 -367 -139 -346 41 -452 64 -487 106 -20 24 -41 120 -49
220 l-7 94 36 -32 c69 -61 173 -50 202 21 20 47 19 74 -5 121 -11 22 -20 41
-20 43 0 11 99 -13 131 -31z m-255 -1823 c74 -57 159 -68 238 -31 47 22 53 22
94 9 33 -11 50 -25 69 -56 14 -23 34 -50 45 -62 20 -22 15 -61 -6 -46 -6 4
-38 9 -71 10 -33 2 -96 8 -140 13 -44 6 -107 13 -139 15 -33 2 -64 8 -70 13
-6 5 -29 12 -51 16 -22 4 -51 9 -65 12 -14 2 -32 5 -41 6 -17 1 -16 11 3 75 8
28 14 32 44 32 19 0 34 5 34 10 0 17 20 11 56 -16z"/>
<path d="M3770 2208 c0 -9 4 -19 9 -22 5 -4 4 -21 -2 -42 -10 -33 -9 -38 10
-54 29 -23 111 -25 135 -3 24 22 24 85 -1 107 -14 13 -32 16 -74 13 -31 -2
-61 1 -67 7 -7 7 -10 5 -10 -6z"/>
<path d="M3055 1980 c-8 -16 -15 -34 -15 -40 0 -12 85 -118 109 -137 19 -14
35 -17 27 -4 -8 12 85 -7 177 -36 43 -13 85 -22 93 -19 17 7 17 5 -1 -30 -18
-35 -3 -44 27 -18 18 17 48 65 48 77 0 3 -21 5 -47 5 -64 0 -304 57 -347 83
-39 23 -54 53 -36 74 13 16 4 75 -11 75 -4 0 -15 -13 -24 -30z"/>
</g>
</svg>
