<?xml version="1.0" standalone="no"?>
<!DOCTYPE svg PUBLIC "-//W3C//DTD SVG 20010904//EN"
 "http://www.w3.org/TR/2001/REC-SVG-20010904/DTD/svg10.dtd">
<svg version="1.0" xmlns="http://www.w3.org/2000/svg"
 width="1700.000000pt" height="1100.000000pt" viewBox="0 0 1700.000000 1100.000000"
 preserveAspectRatio="xMidYMid meet">
<metadata>
Created by potrace 1.15, written by Peter Selinger 2001-2017
</metadata>
<g transform="translate(0.000000,1100.000000) scale(0.100000,-0.100000)"
fill="#000000" stroke="none">
<path d="M6435 8630 c-127 -33 -276 -97 -369 -159 -21 -14 -48 -32 -60 -38
-16 -10 -17 -13 -5 -13 9 0 22 7 29 15 8 10 21 13 33 9 14 -4 17 -3 12 7 -6 9
-2 11 13 7 14 -4 20 -2 15 5 -4 6 2 8 15 5 12 -4 20 -2 17 2 -3 5 9 11 27 15
18 4 94 26 169 50 74 25 169 49 210 56 73 11 124 28 87 29 -10 0 -17 5 -15 10
4 19 -105 19 -178 0z"/>
<path d="M7016 8583 c-1 -1 -58 -4 -126 -8 -268 -12 -318 -18 -439 -54 -157
-47 -227 -84 -311 -164 -60 -57 -127 -152 -122 -171 2 -6 -9 1 -25 15 -57 53
-143 62 -279 29 -91 -21 -214 -68 -214 -80 0 -5 -20 -20 -45 -34 -30 -18 -45
-34 -45 -47 0 -14 -6 -19 -19 -17 -25 4 -102 -67 -95 -87 4 -8 0 -22 -7 -31
-7 -8 -8 -14 -3 -12 5 2 10 0 12 -4 5 -17 1 -20 -13 -8 -10 9 -15 9 -15 1 0
-18 4 -26 13 -23 14 4 7 -16 -9 -22 -8 -3 -13 -2 -9 3 3 5 0 11 -6 13 -9 3 -9
9 0 25 22 43 10 46 -29 8 -21 -21 -40 -48 -42 -59 -2 -12 -10 -21 -18 -21 -13
0 -80 -84 -80 -100 0 -13 19 -3 24 13 3 9 18 31 32 47 37 43 20 13 -51 -90
-34 -49 -79 -118 -100 -153 -44 -71 -40 -82 28 -82 20 0 37 -3 37 -6 0 -4 -18
-42 -40 -86 -22 -44 -40 -87 -40 -94 0 -8 -7 -17 -16 -21 -9 -3 -13 -12 -9
-22 4 -11 3 -13 -5 -5 -6 6 -19 33 -30 60 -18 49 -18 50 1 62 27 17 26 52 -2
45 -17 -5 -20 -2 -17 13 2 11 11 18 21 18 12 -1 17 6 17 22 0 19 -5 23 -21 21
-31 -5 -36 -20 -28 -100 8 -79 44 -172 68 -172 8 0 19 18 26 40 20 64 79 186
171 354 138 249 171 303 226 361 29 30 47 48 41 40 -25 -35 -432 -828 -439
-856 -4 -16 7 -29 53 -61 157 -109 394 -186 612 -199 42 -2 110 -10 151 -19
l75 -14 -115 5 c-63 3 -128 7 -145 9 -142 17 -138 18 -163 -22 -13 -20 -21
-42 -18 -48 2 -7 27 -20 55 -30 l50 -16 -99 -146 c-102 -151 -173 -234 -223
-260 -31 -15 -108 -20 -128 -7 -7 4 -118 8 -248 10 -130 1 -239 2 -243 3 -4 1
-5 8 -1 17 4 10 0 20 -10 26 -10 5 -17 18 -17 28 0 11 -5 19 -11 17 -20 -4
-33 53 -20 88 15 44 14 75 -4 75 -20 0 -19 12 4 42 11 14 25 56 31 94 14 86
82 227 117 243 13 6 21 16 18 21 -3 5 -2 25 3 43 7 26 6 38 -7 54 -18 22 -71
57 -71 47 0 -4 -7 -1 -16 7 -13 10 -17 10 -24 -1 -7 -11 -17 -11 -60 3 -29 9
-60 17 -69 17 -10 0 -26 7 -37 15 -10 8 -26 15 -35 15 -9 0 -19 7 -23 15 -3 9
-19 15 -43 16 -31 0 -34 2 -18 10 18 8 18 9 -5 8 -45 -2 -61 1 -56 10 7 10
-103 4 -191 -10 -34 -6 -66 -8 -71 -5 -5 3 -22 -1 -38 -9 -16 -7 -48 -15 -72
-16 -24 -2 -46 -7 -48 -11 -3 -4 -14 -8 -25 -8 -10 0 -19 -4 -19 -10 0 -5 -6
-10 -14 -10 -8 0 -22 -7 -30 -16 -9 -8 -16 -13 -16 -9 0 3 -18 -12 -41 -35
-22 -22 -44 -40 -49 -40 -7 0 -21 -23 -24 -40 -3 -15 -41 -48 -49 -43 -5 3 -6
-3 -3 -14 4 -11 2 -31 -3 -44 -5 -13 -10 -19 -10 -14 -1 6 -6 39 -12 75 -5 36
-11 111 -11 167 -1 92 2 106 25 146 45 76 144 135 303 183 108 32 321 43 479
25 55 -6 179 -20 275 -31 191 -21 280 -25 264 -11 -5 5 -54 14 -109 20 -55 7
-165 21 -245 33 -103 15 -195 21 -320 22 -157 0 -186 -3 -284 -27 -184 -46
-331 -128 -418 -234 -71 -85 -114 -191 -178 -438 -18 -66 -39 -140 -47 -165
-22 -64 -29 -375 -13 -610 l13 -189 36 25 c46 31 61 30 93 -3 116 -124 235
-655 293 -1308 17 -199 19 -298 5 -374 -5 -31 -17 -128 -26 -216 -48 -481
-110 -698 -218 -765 -37 -22 -86 -26 -104 -8 -21 21 -13 -6 13 -45 19 -28 22
-37 11 -37 -26 0 -30 -22 -8 -41 28 -22 120 -49 317 -93 177 -40 275 -64 380
-94 112 -32 366 -112 415 -132 25 -9 83 -32 130 -51 98 -38 266 -114 361 -164
41 -21 75 -33 90 -30 22 4 22 3 6 -9 -17 -13 -16 -14 3 -19 13 -3 18 -1 14 6
-3 7 1 4 9 -6 8 -9 20 -17 26 -17 8 0 7 5 -3 16 -9 8 -21 25 -27 37 -13 26 -7
19 49 -49 23 -28 38 -55 34 -59 -4 -5 -2 -5 4 -2 11 6 154 -133 154 -149 0 -5
-8 1 -18 12 -9 12 -28 25 -42 29 -24 7 -24 7 -5 -9 20 -15 20 -15 -2 -16 -16
0 -21 -4 -17 -15 4 -9 0 -15 -8 -15 -7 0 -35 -20 -62 -45 -82 -78 -58 -113
105 -154 145 -36 419 -69 889 -106 442 -35 851 -70 1205 -104 337 -33 549 -47
875 -59 278 -9 1661 -9 1940 0 494 17 754 30 1090 53 1273 89 1973 167 2282
256 111 32 170 102 96 113 -101 16 -110 18 -101 27 5 5 65 13 134 19 174 13
603 123 604 155 0 12 -132 39 -265 55 -180 21 -177 18 -69 59 311 121 545 309
724 581 171 258 270 541 305 868 17 155 8 432 -19 584 -69 386 -242 748 -478
996 -58 61 -71 71 -62 47 30 -83 149 -568 148 -605 0 -14 -9 13 -19 60 -10 47
-27 112 -39 145 -11 33 -40 134 -65 225 -50 187 -77 263 -130 368 -41 82 -56
96 -25 25 62 -144 171 -501 186 -610 7 -52 -5 -153 -18 -153 -6 0 -7 4 -4 10
3 6 -1 7 -9 4 -9 -3 -14 -10 -11 -14 2 -4 -6 -7 -19 -7 -16 0 -23 4 -19 13 2
7 10 11 17 8 7 -3 19 2 26 11 7 9 8 15 2 15 -6 0 -13 -6 -15 -12 -4 -8 -8 -4
-12 9 -4 13 -11 20 -16 17 -5 -3 -7 -10 -4 -15 6 -8 -16 -14 -38 -10 -5 1 -5
-3 -2 -9 4 -6 13 -9 21 -6 19 7 18 2 -12 -41 -27 -38 -27 -38 -21 -8 6 27 5
28 -5 8 -8 -17 -17 -21 -34 -17 -14 4 -24 2 -24 -4 0 -6 15 -14 33 -18 27 -6
29 -8 12 -14 -11 -4 -24 -3 -28 4 -6 8 -10 7 -14 -2 -2 -6 -9 -10 -14 -7 -5 4
-6 -7 -3 -25 4 -19 2 -30 -4 -30 -6 0 -9 7 -5 15 3 9 -2 22 -12 29 -11 8 -15
18 -11 27 4 8 0 5 -9 -6 -9 -12 -19 -16 -23 -10 -14 20 -80 5 -67 -15 3 -5 -4
-12 -16 -15 -29 -9 -54 23 -34 45 15 17 12 20 -52 62 -23 15 -44 24 -47 20 -2
-4 9 -14 25 -21 16 -7 29 -20 30 -29 0 -10 3 -12 6 -5 3 10 7 10 18 0 9 -8 10
-16 3 -24 -12 -15 -32 -18 -23 -3 4 6 -2 7 -17 1 -13 -5 -22 -16 -22 -25 1 -9
-2 -16 -8 -16 -5 0 -6 -5 -3 -10 9 -14 27 -1 21 15 -6 17 21 28 31 12 4 -7 9
-20 10 -31 3 -16 1 -17 -14 -5 -11 9 -14 10 -9 2 11 -19 -42 -17 -60 2 -9 8
-20 15 -25 15 -5 0 0 -9 11 -20 11 -11 29 -20 40 -20 17 0 18 -3 8 -19 -6 -10
-17 -17 -25 -14 -7 3 -11 9 -8 13 3 4 -2 11 -11 14 -10 4 -14 1 -11 -6 2 -7
-3 -19 -12 -26 -14 -11 -13 -12 6 -2 17 8 24 7 31 -6 5 -9 12 -15 15 -15 4 1
7 -2 7 -6 0 -5 -4 -8 -9 -8 -18 0 -25 -16 -11 -25 13 -8 13 -12 -2 -27 -11
-11 -18 -13 -18 -5 0 7 5 12 12 12 17 0 3 11 -18 14 -10 2 -20 8 -22 14 -2 8
3 10 15 6 17 -5 17 -5 0 6 -24 15 -40 4 -27 -20 13 -25 13 -26 -10 -27 -11 -1
-28 9 -39 23 -18 23 -39 34 -26 14 15 -24 -88 6 -105 31 -3 4 -14 9 -25 11
-29 5 -64 38 -58 54 3 8 0 14 -7 14 -6 0 -8 -5 -5 -10 3 -6 -1 -10 -9 -10 -10
0 -16 9 -17 23 0 12 -3 16 -6 10 -2 -7 -9 -13 -14 -13 -6 0 -7 5 -3 12 5 7 2
9 -8 6 -8 -4 -40 6 -71 22 -31 15 -58 26 -61 23 -9 -10 -33 22 -28 37 4 11 -1
10 -16 -4 -18 -15 -24 -16 -37 -6 -8 7 -15 9 -15 6 0 -4 -10 -2 -21 5 -17 8
-23 8 -30 -2 -6 -10 -11 -10 -22 -1 -7 6 -36 12 -63 13 -27 1 -61 6 -77 10
-17 5 -25 4 -21 -2 5 -9 -24 -6 -64 7 -7 2 -10 -1 -6 -7 4 -7 -1 -9 -15 -4
-11 3 -40 6 -63 5 -62 -1 -71 -1 -93 4 -11 2 -26 5 -33 5 -7 1 -10 6 -6 13 4
7 3 8 -5 4 -6 -4 -9 -12 -6 -17 4 -5 -4 -9 -17 -10 -51 -2 -101 -8 -105 -13
-3 -2 -2 -10 2 -16 5 -8 11 -8 21 1 17 14 19 -2 2 -19 -9 -9 -9 -12 0 -12 6 0
9 -7 5 -17 -4 -10 -2 -14 4 -10 19 12 19 -127 0 -150 -14 -19 -26 -16 -20 5 6
24 -31 27 -48 4 -11 -14 -11 -15 1 -4 18 16 31 16 28 0 -4 -17 -61 -30 -69
-16 -4 7 -8 7 -10 -1 -2 -6 -34 -13 -70 -15 -37 -2 -72 -6 -77 -10 -6 -3 -13
0 -15 6 -4 10 -6 10 -6 1 -1 -7 -10 -13 -21 -13 -11 0 -20 6 -20 13 0 8 -3 8
-9 -2 -5 -8 -16 -11 -26 -8 -10 4 -14 3 -9 -4 4 -7 0 -9 -12 -5 -11 3 -44 2
-74 -3 -30 -5 -57 -6 -60 -2 -8 10 -30 12 -30 1 0 -5 -24 -8 -57 -6 -32 2 -50
1 -40 -3 16 -6 16 -7 -1 -21 -25 -21 -42 -23 -36 -5 7 18 -7 20 -25 3 -10 -11
-11 -10 -6 5 4 10 2 17 -4 17 -6 0 -11 -4 -11 -9 0 -19 -46 -20 -78 -1 -18 11
-31 16 -28 11 9 -13 -22 -41 -45 -41 -10 0 -19 5 -19 11 0 6 7 9 15 6 19 -8
26 5 14 23 -7 12 -9 12 -9 1 0 -7 -6 -11 -15 -7 -8 3 -14 2 -14 -2 4 -24 -4
-30 -31 -27 -17 2 -36 7 -42 11 -7 4 -8 3 -4 -4 6 -11 -19 -18 -46 -13 -5 0
-8 -4 -8 -10 0 -7 -8 -9 -22 -4 -13 4 -33 6 -45 6 -12 0 -25 4 -28 9 -3 6 -1
10 5 10 6 0 8 5 4 11 -4 8 -9 7 -15 -2 -5 -8 -2 -20 7 -30 16 -17 9 -30 -11
-22 -8 2 -11 11 -8 19 3 8 0 14 -6 14 -6 0 -11 -9 -11 -20 0 -11 -4 -20 -10
-20 -5 0 -9 11 -8 25 2 17 8 25 20 25 10 0 18 5 18 11 0 5 -4 8 -10 4 -5 -3
-19 4 -30 15 -22 22 -55 20 -97 -6 -28 -18 -45 3 -18 22 10 7 15 20 12 29 -7
17 -27 21 -27 5 0 -5 5 -10 11 -10 5 0 7 -5 3 -11 -4 -8 -9 -7 -15 2 -4 7 -11
10 -16 6 -4 -5 -1 -12 7 -17 11 -7 12 -10 2 -10 -7 0 -11 -3 -9 -7 3 -5 -1
-21 -8 -38 -7 -16 -14 -24 -14 -17 -1 6 -8 12 -17 12 -9 0 -12 -5 -8 -12 5 -8
2 -9 -10 -5 -15 6 -17 3 -12 -17 3 -14 2 -28 -4 -31 -5 -3 -10 1 -10 9 0 9 -8
16 -17 16 -14 0 -15 2 -4 9 7 5 11 13 7 19 -3 6 7 13 23 17 23 5 29 11 27 31
-1 27 -14 32 -22 9 -4 -8 -14 -15 -23 -14 -11 0 -12 2 -3 6 10 4 10 8 1 19
-14 17 -39 19 -39 3 0 -6 6 -9 14 -6 11 4 14 -1 13 -21 -2 -23 -7 -27 -32 -27
-19 1 -30 6 -31 15 -2 31 -6 34 -13 15 -5 -11 -5 -27 0 -37 14 -26 -22 -34
-42 -9 -12 15 -19 17 -28 8 -14 -14 -14 -2 -1 24 9 15 15 17 30 9 19 -10 40 4
26 17 -3 4 -6 0 -6 -8 -1 -10 -4 -9 -11 4 -12 21 -1 46 12 26 8 -11 12 -10 21
6 17 28 20 55 7 55 -7 0 -9 9 -6 21 3 13 1 19 -6 16 -7 -2 -11 -11 -9 -21 2
-10 -4 -16 -18 -16 -11 0 -20 -4 -20 -10 0 -5 7 -10 15 -10 13 0 13 -2 3 -14
-14 -14 -42 -10 -32 5 3 5 0 9 -5 9 -19 0 -12 22 9 27 22 6 51 56 41 70 -11
16 -38 22 -38 8 0 -7 7 -11 16 -8 11 3 10 0 -4 -12 -11 -9 -19 -19 -19 -23 3
-17 -10 -32 -28 -32 -10 0 -17 4 -13 9 3 5 0 13 -6 17 -9 5 -10 0 -6 -15 3
-15 1 -21 -6 -18 -7 2 -11 14 -9 27 2 18 -1 20 -11 11 -8 -6 -18 -7 -22 -3 -5
4 -5 2 -2 -5 4 -6 1 -14 -5 -16 -8 -3 -6 -6 5 -6 15 -1 16 -5 7 -21 -9 -16 -8
-22 5 -26 21 -9 33 5 15 16 -13 8 -12 10 2 10 9 0 25 3 35 7 16 6 16 5 4 -10
-11 -14 -11 -17 0 -17 8 0 23 -8 34 -16 20 -15 20 -15 1 -30 -11 -8 -21 -22
-22 -31 -2 -10 -8 -19 -13 -21 -6 -2 -11 -12 -11 -23 0 -10 -5 -19 -11 -19 -6
0 -9 7 -6 15 4 8 1 17 -5 21 -7 5 -3 10 10 15 12 5 22 13 22 18 0 17 -49 25
-65 11 -12 -10 -13 -8 -10 11 5 23 -9 39 -32 39 -7 0 -13 -7 -13 -16 0 -8 -4
-12 -10 -9 -5 3 -10 2 -10 -4 0 -5 8 -14 17 -19 15 -9 15 -11 1 -26 -18 -17
-33 -22 -24 -7 3 5 -1 12 -10 15 -8 3 -12 2 -9 -3 3 -5 1 -12 -4 -16 -6 -3 -8
5 -6 18 3 14 -2 27 -14 34 -17 11 -20 8 -25 -23 -4 -18 -12 -34 -18 -34 -5 0
-8 7 -5 15 4 8 2 17 -3 20 -16 10 -11 35 6 35 8 0 13 4 9 9 -3 5 2 11 10 13
10 2 5 9 -15 20 -25 14 -30 15 -30 3 0 -8 4 -15 10 -15 5 0 7 -6 4 -14 -9 -23
-40 -25 -58 -4 -9 10 -30 21 -46 25 -17 3 -30 10 -30 15 0 6 -6 5 -14 -2 -19
-15 -9 -40 16 -40 11 0 16 -4 13 -11 -4 -6 -13 -8 -20 -5 -16 6 -26 -27 -14
-45 6 -10 9 -11 9 -1 0 6 4 12 10 12 5 0 0 -16 -12 -35 -21 -36 -38 -43 -20
-8 7 12 7 25 1 36 -6 11 -6 24 0 36 8 14 8 20 -1 23 -10 4 -10 10 -1 30 8 19
9 28 0 37 -19 19 2 12 33 -10 16 -12 36 -19 44 -16 9 4 16 2 16 -3 0 -5 7 -7
15 -3 9 3 15 2 14 -3 -3 -18 1 -34 9 -34 4 0 6 15 4 34 -3 26 -8 33 -19 29 -8
-3 -19 0 -24 8 -12 20 -11 31 2 23 7 -4 21 -8 33 -8 11 -1 20 -7 19 -14 -2 -6
4 -9 13 -5 10 4 12 8 5 13 -7 4 -2 11 14 18 14 6 25 18 25 26 0 24 -22 66 -31
60 -5 -3 -9 1 -9 8 0 9 -3 9 -11 -2 -8 -12 -9 -10 -7 9 2 13 -3 26 -10 28 -8
3 -10 -2 -6 -14 5 -14 4 -15 -4 -4 -9 12 -14 12 -37 -3 -19 -12 -30 -15 -37
-8 -13 13 -3 42 14 41 9 0 10 -2 1 -5 -7 -3 -10 -11 -7 -18 8 -22 105 34 98
57 -7 24 8 21 30 -5 14 -16 15 -20 3 -15 -9 3 -18 -1 -21 -10 -5 -12 -1 -14
18 -9 25 6 56 -14 56 -37 0 -7 4 -6 10 3 8 11 9 6 5 -19 -5 -30 -4 -33 10 -21
21 18 29 7 15 -21 -10 -19 -10 -21 3 -16 8 3 18 3 21 0 3 -3 19 -7 35 -8 23
-2 29 1 28 15 -1 12 -9 17 -23 16 -12 0 -20 -4 -17 -8 2 -5 -3 -8 -12 -8 -10
0 -15 6 -13 18 3 11 12 16 26 15 13 -2 26 5 32 17 10 19 1 28 -14 13 -10 -10
-46 -11 -40 -1 3 4 1 8 -5 8 -5 0 -11 -6 -14 -12 -6 -18 -15 -7 -21 26 -6 31
-26 60 -26 37 0 -7 -5 -9 -10 -6 -6 4 -8 11 -5 16 4 5 -1 9 -9 9 -13 0 -14 5
-5 27 5 15 9 36 8 47 -1 12 -1 26 0 31 1 12 41 15 41 3 0 -4 7 -5 15 -2 9 4
18 -1 22 -12 8 -23 26 -36 33 -25 3 5 11 3 18 -5 11 -12 9 -14 -12 -14 -15 0
-30 -8 -36 -20 -6 -11 -16 -20 -23 -20 -7 0 -6 4 3 10 8 5 11 10 6 10 -5 0 -4
6 2 13 12 14 5 57 -8 57 -11 0 -21 -30 -14 -41 3 -5 0 -9 -6 -9 -8 0 -10 9 -6
25 5 20 3 25 -14 25 -17 0 -18 -3 -9 -27 7 -19 7 -29 0 -31 -6 -2 -11 -10 -11
-18 0 -12 5 -12 28 2 l27 16 -25 -21 c-24 -20 -19 -26 18 -22 12 2 16 -11 13
-36 -1 -7 5 -10 13 -7 8 3 13 14 11 25 -2 10 1 21 6 24 5 4 6 11 3 17 -4 7 -2
8 4 4 7 -4 12 -3 12 2 0 5 6 9 14 9 9 0 13 -9 11 -24 -2 -25 8 -36 40 -40 11
-2 21 -8 23 -13 2 -6 15 -7 28 -4 13 3 30 1 37 -5 10 -8 19 -7 33 4 18 14 17
15 -8 9 -17 -4 -28 -2 -28 4 0 6 -8 8 -18 6 -9 -3 -28 -1 -42 5 -14 5 -19 10
-12 10 8 1 10 6 6 14 -6 9 -5 9 8 0 8 -7 19 -9 23 -5 5 4 5 1 1 -5 -4 -8 -1
-13 8 -13 8 0 17 8 19 18 4 14 6 13 12 -6 6 -18 10 -20 22 -11 8 7 12 18 9 26
-3 7 -1 13 4 13 6 0 10 -9 10 -20 0 -11 6 -19 13 -17 6 1 11 -4 10 -10 -2 -7
3 -13 11 -13 13 0 15 16 7 59 -1 2 -8 -3 -18 -10 -15 -13 -15 -12 -2 9 8 12
17 22 22 22 4 0 5 -5 1 -11 -5 -8 3 -10 24 -7 17 2 29 1 27 -3 -3 -4 4 -9 15
-12 13 -3 18 -10 14 -21 -4 -11 -1 -16 11 -16 9 0 13 4 10 10 -3 6 -1 10 5 10
7 0 10 6 7 13 -3 8 3 20 14 28 20 14 26 39 10 39 -5 0 -13 -9 -16 -20 -3 -11
-11 -20 -17 -20 -5 0 -7 -7 -4 -16 4 -10 1 -14 -6 -12 -19 7 -22 38 -4 38 19
0 21 11 5 27 -8 8 -7 13 2 18 8 5 10 4 5 -3 -4 -7 -5 -12 -1 -12 3 0 10 10 15
23 7 18 9 19 9 3 1 -12 6 -16 16 -12 8 3 15 1 15 -5 0 -6 13 -8 33 -5 17 3 25
3 17 -2 -8 -4 -15 -17 -16 -29 0 -17 5 -22 20 -20 17 2 21 -3 19 -23 -3 -23
-2 -23 11 -8 7 10 16 15 19 11 4 -3 10 3 14 13 10 28 29 44 50 42 37 -3 53 2
53 18 0 13 -3 14 -15 4 -8 -7 -22 -9 -31 -6 -9 4 -23 1 -31 -6 -11 -9 -17 -9
-24 3 -8 12 -11 11 -23 -4 -12 -15 -14 -16 -20 -2 -5 15 8 20 47 17 10 -1 28
3 39 9 16 8 19 8 13 -1 -5 -8 -3 -11 6 -8 8 3 13 14 11 24 -2 16 -1 17 7 4 9
-13 11 -12 12 5 0 11 3 15 5 8 3 -7 11 -11 17 -9 7 1 9 1 5 -1 -15 -9 -8 -23
12 -23 11 0 20 5 20 12 0 6 8 4 19 -6 10 -9 30 -19 45 -22 21 -4 26 0 32 23
10 47 13 53 26 53 9 0 9 -3 0 -12 -15 -15 -16 -58 -2 -58 6 0 10 4 10 9 0 5 7
12 16 15 12 4 15 2 10 -9 -3 -9 0 -15 10 -15 8 0 12 -5 9 -10 -4 -6 -11 -8
-16 -4 -6 3 -27 3 -46 -1 -27 -5 -33 -9 -22 -15 8 -6 18 -5 23 0 13 13 46 13
46 0 0 -5 5 -10 11 -10 5 0 7 5 4 10 -3 6 1 10 10 10 11 0 15 5 11 15 -4 13
-2 14 14 5 21 -11 29 3 10 15 -6 4 -8 10 -5 15 3 5 -2 10 -11 12 -15 3 -15 4
1 18 11 8 16 10 12 3 -11 -17 11 -26 68 -29 27 -1 54 -3 59 -3 4 -1 6 -8 2
-16 -3 -8 -3 -15 0 -15 2 0 9 11 14 25 5 14 14 25 19 25 6 0 8 -7 5 -15 -4 -8
-1 -15 5 -15 6 0 11 9 11 20 0 11 -5 20 -11 20 -5 0 -7 5 -3 11 5 8 10 7 16
-4 5 -9 15 -14 23 -11 19 8 19 -3 0 -22 -8 -9 -15 -21 -15 -27 0 -7 10 0 21
16 20 26 47 29 33 4 -4 -7 -3 -8 2 -4 4 4 9 18 9 30 0 17 6 22 28 22 15 -1 27
3 27 7 0 4 7 5 15 2 8 -4 12 -10 9 -15 -3 -5 -10 -7 -15 -4 -5 3 -6 -1 -2 -10
4 -12 8 -13 13 -5 6 9 11 7 19 -6 6 -11 11 -13 11 -6 0 7 5 10 12 6 7 -4 8 -3
4 4 -16 26 7 32 29 7 29 -30 51 -32 58 -5 3 11 11 20 19 19 10 0 10 -2 0 -6
-6 -2 -10 -9 -6 -14 9 -15 24 -10 25 9 0 10 3 12 6 4 2 -7 13 -17 24 -22 14
-8 17 -7 13 3 -4 11 1 13 21 10 14 -3 28 -9 31 -14 3 -5 20 -2 39 5 24 11 37
12 41 4 5 -7 2 -8 -7 -3 -12 8 -12 6 0 -8 7 -9 19 -17 25 -17 6 0 5 4 -3 9
-11 7 -10 11 6 19 18 10 20 8 16 -11 -4 -18 0 -22 22 -22 23 0 26 3 22 25 -5
22 -4 23 8 7 7 -9 22 -17 34 -17 11 0 21 -6 21 -12 0 -8 3 -9 8 -3 4 6 14 12
22 14 8 2 23 6 33 8 9 3 17 0 17 -6 0 -6 4 -11 10 -11 5 0 9 3 7 8 -2 8 6 12
29 12 10 0 14 -5 10 -15 -4 -12 -2 -13 13 -6 10 6 21 7 25 4 3 -3 6 1 6 10 0
12 9 15 40 14 22 -1 40 -5 40 -10 0 -4 5 -5 11 -2 7 5 4 14 -7 26 -16 18 -16
19 0 19 9 0 15 -4 12 -9 -3 -5 4 -11 16 -14 27 -8 38 1 18 13 -13 8 -12 10 2
10 11 0 15 5 12 15 -4 9 0 15 10 15 10 0 13 -6 10 -15 -7 -17 -6 -17 53 -19
34 -2 40 0 31 11 -17 20 0 15 22 -7 21 -21 50 -27 50 -10 0 5 -5 9 -11 7 -6
-1 -14 4 -16 11 -4 9 1 10 20 3 14 -5 28 -7 33 -3 4 4 4 -1 1 -10 -3 -10 -1
-20 5 -24 7 -4 8 -3 4 4 -10 17 9 15 24 -3 10 -12 41 -14 183 -10 128 3 173 1
180 -8 7 -9 10 -9 14 1 7 17 23 15 23 -3 0 -8 5 -16 10 -16 6 -1 15 -3 20 -4
6 -1 15 -3 21 -4 5 0 7 -6 3 -13 -5 -7 -3 -8 6 -3 10 6 9 11 -5 22 -11 7 -25
13 -32 13 -7 0 -13 5 -13 11 0 7 9 9 23 5 12 -3 28 -6 35 -6 8 0 10 -5 6 -12
-5 -8 -2 -8 10 1 15 12 17 12 14 0 -2 -8 -7 -17 -13 -21 -6 -4 -2 -8 8 -8 10
0 17 -8 17 -19 0 -23 16 -36 25 -21 3 5 2 10 -2 10 -5 0 -9 9 -10 20 -1 16 4
19 33 16 23 -1 34 2 34 11 0 17 96 18 103 1 4 -10 6 -10 6 -1 1 15 88 7 109
-10 8 -6 12 -6 12 2 0 7 28 11 83 11 61 0 89 4 106 16 22 16 23 22 18 88 -11
147 -105 372 -193 463 -45 47 -55 53 -92 53 -23 0 -76 -11 -117 -24 -75 -24
-76 -24 -58 -3 10 11 12 17 6 13 -9 -5 -13 -1 -14 11 0 10 -3 13 -5 6 -3 -7
-12 -9 -20 -6 -13 5 -13 7 -2 15 8 5 3 6 -15 2 -22 -5 -26 -3 -21 10 3 9 9 14
13 12 3 -2 11 2 18 9 17 19 -9 27 -43 15 -32 -13 -54 -13 -35 -1 8 6 11 16 7
27 -6 17 -6 17 11 2 15 -13 20 -14 30 -3 9 10 5 14 -20 19 -23 5 -35 2 -43 -9
-6 -8 -15 -15 -19 -15 -4 0 -1 7 6 17 11 13 11 17 1 21 -10 3 -10 7 -2 18 12
14 6 34 -11 34 -6 0 -7 -4 -4 -10 3 -6 -1 -7 -9 -4 -11 4 -19 -2 -25 -17 -5
-13 -10 -20 -10 -16 -1 4 -11 2 -23 -4 -28 -14 -24 -10 22 28 42 33 46 52 24
95 -69 136 -209 284 -339 357 -77 44 -253 116 -262 108 -2 -3 13 -11 34 -17
75 -25 206 -90 266 -134 92 -65 163 -140 229 -241 62 -96 73 -124 38 -103 -16
10 -24 10 -42 -1 -20 -13 -22 -12 -11 1 7 8 10 18 6 22 -4 4 -8 15 -8 23 0 9
-7 18 -15 20 -11 4 -12 2 -2 -5 7 -5 10 -16 6 -26 -5 -13 -9 -14 -20 -5 -12 9
-17 8 -27 -5 -11 -14 -12 -13 -13 9 -1 16 3 25 13 25 8 0 12 4 9 9 -3 4 -17 6
-31 3 -18 -3 -25 0 -23 9 2 7 -5 15 -14 17 -10 2 -18 -2 -18 -8 0 -7 6 -10 13
-7 7 3 13 -6 14 -24 3 -34 -25 -45 -84 -34 -60 11 -96 33 -90 56 4 16 1 19
-16 17 -19 -3 -22 1 -19 25 3 27 -11 37 -24 15 -4 -7 -3 -8 4 -4 7 4 12 2 12
-3 0 -6 -13 -11 -28 -11 -15 0 -33 -5 -40 -12 -6 -6 -15 -8 -19 -3 -5 4 -2 10
5 12 6 3 12 12 12 21 0 13 -3 12 -14 -4 -16 -21 -32 -14 -23 11 8 20 57 20 57
0 0 -8 5 -15 10 -15 14 0 13 13 -2 32 -10 13 -22 15 -60 9 -30 -5 -52 -4 -60
3 -8 7 -7 5 1 -6 15 -21 2 -24 -18 -5 -11 10 -14 10 -18 0 -3 -7 -11 -13 -19
-13 -9 0 -12 -4 -9 -10 12 -19 -14 -10 -35 12 -11 12 -21 19 -21 15 -1 -4 -2
-12 -3 -19 -1 -16 -26 -23 -26 -7 0 7 7 20 16 30 12 14 22 15 47 8 17 -5 33
-7 35 -5 2 3 -13 9 -35 15 -25 7 -39 7 -41 1 -2 -6 -8 -8 -13 -4 -5 3 -9 0 -9
-5 0 -6 -14 -11 -31 -11 -16 0 -28 -4 -25 -9 3 -4 -13 -8 -35 -8 -26 0 -36 3
-27 8 10 7 9 9 -4 9 -10 0 -18 -4 -18 -10 0 -5 -4 -10 -10 -10 -5 0 -10 8 -10
18 -1 16 -1 16 -11 -1 -5 -9 -7 -22 -4 -27 3 -6 -2 -10 -12 -10 -11 0 -24 -5
-31 -12 -9 -9 -12 -9 -13 3 -1 7 -1 17 0 22 0 4 -4 7 -9 7 -6 0 -10 -4 -10
-10 0 -5 -8 -10 -17 -9 -11 0 -13 3 -5 6 19 7 14 19 -8 19 -22 0 -26 -16 -9
-33 11 -11 -8 -21 -47 -27 -18 -3 -31 -16 -15 -16 7 0 19 -7 27 -15 14 -13 14
-15 0 -15 -9 0 -16 -4 -16 -10 0 -5 -5 -10 -11 -10 -8 0 -7 6 2 17 12 14 12
16 -1 11 -8 -2 -17 -13 -19 -24 -2 -10 -9 -22 -17 -27 -7 -4 -11 -14 -8 -22 6
-15 -11 -20 -45 -15 -12 1 -13 -1 -2 -13 9 -11 9 -17 1 -22 -6 -4 -14 -4 -17
-1 -4 3 0 6 8 6 8 0 -2 8 -21 18 -24 13 -42 16 -59 10 -13 -5 -28 -4 -35 1 -6
5 -23 7 -38 5 -16 -1 -28 0 -28 4 0 4 -9 13 -21 20 -12 8 -18 9 -14 2 5 -7 -1
-9 -19 -4 -17 4 -26 2 -26 -5 0 -7 -12 0 -27 14 -31 28 -63 33 -63 9 0 -13 -3
-14 -15 -4 -8 7 -12 16 -9 21 9 15 -13 10 -25 -5 -17 -20 -51 -28 -44 -10 3 8
-1 14 -10 14 -8 0 -17 3 -20 8 -2 4 -2 1 0 -6 4 -16 -38 -6 -49 12 -6 8 -8 8
-8 0 0 -18 -32 -26 -42 -12 -6 10 -8 10 -8 1 0 -7 -4 -13 -10 -13 -5 0 -10 8
-10 17 0 15 -2 14 -14 -3 -8 -10 -18 -15 -22 -11 -5 4 -2 12 6 18 11 7 7 8
-14 5 -16 -3 -34 -2 -40 2 -6 3 -23 5 -38 3 -21 -2 -28 2 -28 14 0 12 -5 15
-17 11 -9 -4 -20 -1 -25 6 -5 9 -8 7 -8 -8 0 -12 -7 -27 -15 -34 -10 -9 -15
-9 -15 -1 0 6 5 11 10 11 6 0 10 11 10 25 0 31 -14 32 -27 3 l-10 -23 -7 22
c-5 16 -15 21 -35 21 -15 -1 -33 2 -40 6 -6 4 -11 1 -11 -6 0 -10 -2 -10 -9 1
-5 8 -16 11 -25 8 -10 -4 -16 -1 -16 9 0 14 -2 14 -16 0 -8 -9 -21 -16 -27
-16 -7 0 -6 5 3 11 12 8 9 10 -12 6 -16 -2 -28 0 -28 5 0 6 -6 8 -14 5 -7 -3
-23 1 -35 10 -20 13 -24 13 -40 -1 -10 -9 -21 -13 -24 -9 -4 3 -24 6 -44 5
-28 -1 -34 1 -23 8 15 10 13 12 -30 15 -14 2 -34 6 -45 11 -18 7 -18 6 -7 -9
12 -14 10 -15 -15 -12 -40 5 -40 5 -18 15 14 6 7 8 -29 8 -30 0 -51 4 -57 13
-6 10 -10 8 -17 -10 -5 -14 -11 -20 -15 -14 -4 6 -17 9 -30 6 -16 -3 -18 -2
-8 5 9 6 0 9 -30 7 -50 -3 -67 3 -48 17 11 7 9 8 -4 4 -10 -3 -25 -6 -33 -6
-9 0 -12 -4 -9 -10 3 -5 1 -10 -5 -10 -7 0 -14 9 -17 20 -5 17 -7 17 -20 5
-18 -19 -29 -19 -37 0 -3 10 -19 15 -46 15 -23 0 -39 -4 -36 -9 4 -5 -3 -7
-14 -4 -11 3 -20 10 -20 15 0 6 -7 5 -15 -2 -8 -7 -15 -8 -15 -2 0 5 -23 9
-50 8 -30 0 -49 3 -46 9 2 6 -7 11 -20 11 -13 1 -24 -2 -24 -7 0 -5 -5 -9 -11
-9 -5 0 -7 5 -4 10 3 6 -3 10 -14 10 -12 0 -21 5 -21 10 0 6 -5 10 -11 10 -8
0 -7 -5 1 -15 7 -9 10 -19 6 -23 -4 -4 -13 1 -20 11 -14 18 -42 25 -31 7 10
-16 -25 -11 -42 6 -13 13 -17 13 -24 2 -5 -7 -9 -8 -9 -3 0 6 -18 11 -40 12
-22 1 -40 -2 -40 -8 0 -5 -4 -9 -10 -9 -5 0 -10 7 -10 15 0 14 -3 13 -25 -1
-14 -9 -28 -14 -32 -10 -3 3 -1 6 5 6 7 0 12 5 12 11 0 6 -9 8 -20 4 -13 -4
-20 -2 -20 7 0 10 -2 10 -9 -1 -11 -16 -39 -23 -61 -15 -13 4 -13 6 0 15 10 6
4 7 -19 2 -23 -4 -32 -3 -28 4 7 11 -48 11 -59 0 -4 -3 -15 0 -25 6 -15 9 -21
9 -27 0 -11 -17 -52 -12 -52 7 0 12 -2 13 -9 1 -5 -7 -14 -10 -20 -7 -6 4 -11
1 -11 -6 0 -9 -3 -9 -10 2 -9 13 -14 7 -11 -12 0 -5 -4 -8 -10 -8 -6 0 -9 9
-6 19 3 14 1 18 -9 14 -9 -3 -14 2 -14 12 0 14 -3 15 -15 5 -8 -7 -26 -10 -40
-8 -13 3 -26 0 -29 -6 -3 -7 -8 -6 -15 4 -6 8 -11 10 -11 4 0 -20 -38 -24 -43
-5 -4 18 -37 25 -37 9 0 -4 5 -8 11 -8 5 0 7 -5 3 -11 -5 -8 -10 -6 -16 5 -5
9 -18 16 -28 16 -19 0 -24 -9 -21 -40 1 -11 -2 -10 -10 3 -6 10 -8 26 -5 35 5
13 3 13 -9 -2 -14 -18 -15 -18 -15 -2 0 15 -7 17 -67 10 -38 -3 -72 -9 -77
-12 -5 -3 -6 0 -2 6 10 16 1 15 -34 -3 -18 -9 -31 -11 -35 -5 -3 6 4 10 17 10
13 0 18 3 12 8 -6 4 -14 14 -17 22 -4 12 -6 11 -6 -2 -1 -21 -21 -24 -39 -6
-9 9 -12 9 -12 0 0 -7 -7 -12 -15 -12 -8 0 -16 -7 -16 -15 -3 -28 -4 -33 -11
-40 -4 -4 -5 8 -3 26 5 35 -7 49 -40 48 l-20 0 20 -10 c15 -6 9 -8 -25 -6 -29
1 -47 7 -52 17 -5 11 -7 9 -7 -7 -1 -25 -28 -32 -36 -10 -6 15 -115 20 -115 6
0 -6 5 -7 10 -4 6 3 10 1 10 -4 0 -16 -16 -13 -31 5 -9 11 -22 14 -41 10 -16
-3 -28 -1 -28 5 0 6 -7 6 -20 -1 -11 -6 -20 -16 -20 -22 0 -6 6 -5 17 3 14 12
16 12 11 -1 -8 -24 -45 -24 -51 -1 -3 12 -1 19 3 16 5 -3 11 -2 14 3 2 4 -8 9
-24 10 -25 2 -28 -1 -25 -23 2 -19 -1 -25 -12 -21 -8 3 -22 6 -31 7 -12 0 -10
3 6 9 12 5 22 14 22 20 0 13 -13 13 -27 -1 -7 -7 -19 -8 -30 -3 -29 13 -72 11
-78 -4 -4 -11 -8 -12 -19 -3 -11 9 -16 9 -22 0 -4 -8 -3 -9 4 -5 7 4 12 1 12
-8 0 -21 9 -20 33 2 19 16 20 16 14 0 -4 -10 -3 -18 2 -18 5 0 12 -10 16 -22
3 -14 8 -18 11 -11 4 10 8 10 19 0 7 -7 11 -15 8 -19 -2 -5 2 -8 9 -8 7 0 19
-9 26 -20 7 -12 17 -18 21 -15 5 3 7 -3 4 -13 -3 -12 4 -22 21 -30 14 -6 26
-16 26 -22 0 -6 4 -9 9 -5 5 3 12 1 16 -4 3 -6 -4 -15 -15 -21 -11 -6 -18 -15
-15 -21 4 -5 1 -9 -4 -9 -6 0 -11 6 -11 13 0 8 -4 7 -10 -3 -8 -13 -10 -13
-10 2 0 19 -34 33 -52 21 -18 -11 -68 -10 -68 2 0 6 -6 3 -13 -6 -14 -18 -57
-20 -50 -2 3 6 10 10 18 7 12 -5 30 24 20 34 -3 3 -5 0 -5 -6 0 -7 -7 -12 -15
-12 -8 0 -15 6 -15 13 0 8 -3 8 -9 -2 -8 -12 -12 -12 -25 -2 -8 7 -21 11 -28
8 -7 -2 -21 0 -30 5 -13 6 -18 5 -18 -7 0 -8 5 -15 12 -15 6 0 9 -2 6 -5 -3
-3 -18 1 -34 10 -16 8 -24 15 -19 16 6 0 -8 9 -30 19 -37 17 -40 17 -46 2 -4
-12 -7 -11 -12 9 -4 13 -10 20 -14 14 -12 -16 -43 -14 -43 2 0 8 -4 12 -9 8
-5 -3 -13 -1 -16 5 -5 8 -11 8 -20 0 -10 -8 -15 -8 -20 0 -4 6 -13 9 -21 6 -8
-3 -14 1 -14 10 0 8 -4 13 -9 10 -5 -4 -21 -2 -36 4 -20 8 -32 7 -43 -2 -13
-11 -15 -10 -9 5 6 16 3 18 -26 12 -24 -5 -28 -4 -17 4 11 8 11 11 3 12 -34 4
-38 6 -36 16 1 6 -4 17 -13 24 -12 10 -15 10 -12 -2 2 -11 -10 -14 -57 -14
-72 1 -139 29 -132 55 2 9 -1 17 -9 17 -7 0 -11 -5 -7 -10 3 -5 -8 -6 -28 -2
-30 7 -32 6 -20 -9 12 -14 12 -16 -2 -10 -9 3 -19 15 -22 25 -5 16 -10 18 -21
8 -11 -9 -14 -9 -14 1 0 8 -12 11 -35 8 -41 -5 -44 -1 -12 12 20 9 19 10 -9 7
-26 -3 -31 0 -26 12 5 14 4 14 -13 1 -15 -12 -17 -12 -10 -1 6 11 4 13 -7 9
-8 -4 -22 1 -30 10 -48 52 -205 183 -318 265 -21 15 -22 17 -5 13 11 -3 67
-16 125 -30 58 -13 202 -52 320 -86 255 -73 555 -150 589 -150 20 0 22 2 10
16 -7 9 -40 34 -72 56 -32 22 -57 41 -55 42 2 2 543 0 1203 -4 660 -4 1310 -3
1445 1 147 5 285 5 345 -1 55 -5 195 -18 310 -29 530 -50 737 -61 776 -41 26
14 370 40 554 41 176 1 237 12 130 22 -109 11 -595 8 -837 -4 -164 -9 -251 -9
-346 0 -194 18 -212 21 -212 40 0 9 -10 32 -22 51 -26 41 -15 22 -145 243
-107 181 -325 514 -411 629 -28 37 -76 105 -106 150 -130 195 -208 247 -532
351 -285 92 -824 218 -1144 267 -30 5 -98 16 -150 25 -131 22 -126 21 -305 46
-149 20 -225 38 -167 39 13 0 21 4 18 9 -4 5 13 0 35 -11 34 -16 43 -17 50 -6
7 11 9 11 9 0 0 -10 8 -12 30 -7 18 4 36 2 45 -5 9 -8 15 -8 20 0 5 8 11 8 21
-1 8 -6 14 -9 14 -7 0 3 26 -1 57 -8 31 -7 61 -10 66 -7 5 3 14 -1 19 -8 7
-11 11 -11 15 -1 5 13 33 17 33 4 0 -5 15 -8 34 -7 19 0 33 -2 30 -6 -2 -4 3
-9 11 -13 8 -3 17 -1 20 3 6 10 45 3 45 -8 0 -4 18 -5 39 -3 28 3 38 8 34 17
-2 8 -11 11 -19 8 -8 -3 -14 0 -14 7 0 9 -4 9 -17 -1 -9 -8 -14 -9 -10 -3 4 7
-2 12 -16 12 -12 0 -49 5 -82 12 -33 7 -71 12 -85 12 -14 0 -29 3 -34 6 -6 3
-19 7 -30 8 -12 1 -31 5 -43 9 -16 5 -23 3 -23 -6 0 -11 -2 -11 -9 0 -9 14
-46 22 -98 23 -13 0 -21 3 -19 7 3 4 -4 7 -14 7 -10 0 -16 -4 -14 -8 8 -12
-13 -10 -50 6 -18 7 -55 17 -82 20 -42 6 -73 9 -186 19 -10 1 -18 5 -18 9 0
11 -43 5 -52 -7 -4 -6 -8 -1 -8 9 0 14 -3 17 -11 9 -11 -11 -56 -6 -64 7 -2 4
-23 4 -45 0 -24 -4 -40 -3 -40 2 0 6 -11 7 -26 4 -14 -4 -23 -3 -21 2 3 4 -6
8 -21 9 -15 0 -49 5 -77 9 -27 5 -72 9 -100 9 -27 0 -53 5 -57 10 -5 6 -8 5
-8 -3 0 -7 -4 -11 -9 -8 -14 9 -102 17 -441 41 -52 4 -104 6 -115 5 -24 -2
-32 -2 -108 2 -32 2 -60 2 -61 1z m-1419 -466 c0 -7 12 -31 28 -55 20 -31 34
-42 53 -42 26 0 79 15 119 33 12 5 28 7 36 4 8 -3 18 -2 23 3 5 5 28 13 52 18
40 9 44 9 52 -13 5 -13 7 -31 5 -41 -70 -318 -207 -783 -278 -940 -49 -108
-56 -119 -78 -116 -42 6 -316 71 -357 85 -36 12 -140 77 -201 125 l-24 19 55
104 c31 57 126 244 213 414 207 406 198 393 265 406 19 4 35 7 36 8 0 0 1 -5
1 -12z m1768 -77 c208 -18 377 -58 744 -180 314 -104 374 -135 441 -225 44
-58 86 -90 136 -104 36 -9 226 -38 399 -61 39 -5 162 -23 275 -40 113 -17 300
-44 415 -61 402 -58 787 -119 898 -143 155 -34 318 -91 339 -119 18 -24 230
-375 268 -444 13 -23 30 -44 39 -46 9 -3 0 -3 -19 -1 -19 1 -64 5 -100 8 l-65
5 54 -10 c30 -5 57 -12 60 -14 2 -3 -115 -5 -260 -5 -225 0 -536 16 -699 35
-206 25 -508 36 -1072 42 -482 4 -645 3 -705 -7 -43 -7 -186 -18 -318 -24
l-240 -11 62 -38 c118 -72 96 -73 -172 -7 -148 37 -218 55 -415 108 -41 11
-138 35 -215 52 -77 18 -152 38 -167 46 -15 8 -31 14 -35 14 -4 -1 13 -12 40
-26 50 -26 63 -40 22 -24 -35 13 -264 66 -365 84 -130 23 -249 34 -433 42
-165 7 -169 7 -178 30 -14 38 28 335 87 604 l25 115 72 68 c213 202 500 318
842 340 103 7 123 7 240 -3z m3025 -242 c0 -6 -7 -8 -15 -4 -29 11 -15 -9 16
-23 26 -12 32 -11 50 4 10 10 19 14 19 9 0 -5 4 -4 8 2 8 13 85 27 77 14 -3
-5 -1 -11 5 -15 5 -3 10 -1 10 5 0 6 5 8 10 5 6 -4 7 -11 4 -17 -4 -7 -2 -8 4
-4 17 10 89 -43 159 -117 45 -49 242 -331 315 -452 4 -6 -38 4 -93 22 -91 29
-357 78 -784 143 -77 11 -180 28 -230 35 -49 8 -101 16 -115 18 -17 3 -13 5
12 6 20 0 59 -3 85 -8 103 -20 125 -22 118 -12 -3 6 -1 11 4 11 6 0 11 -4 11
-9 0 -16 91 -25 112 -12 23 14 45 14 54 0 5 -9 -1 -10 -20 -5 -15 4 -26 2 -26
-4 0 -5 3 -10 8 -10 4 0 49 -7 101 -15 52 -9 101 -13 108 -11 7 3 13 1 13 -4
0 -17 35 -11 58 10 23 21 32 14 10 -8 -7 -7 -10 -12 -7 -13 2 0 15 -2 29 -4
14 -2 41 -7 60 -13 26 -6 39 -6 48 4 16 18 15 23 -5 22 -10 0 -27 3 -38 8 -17
7 -18 6 -7 -8 11 -14 10 -16 -7 -11 -34 9 -44 29 -24 49 17 17 17 17 -10 10
-24 -6 -27 -4 -26 16 0 17 2 19 7 7 6 -12 11 -13 30 -3 15 7 20 14 13 18 -6 4
-15 5 -20 2 -5 -4 -11 -2 -13 4 -2 7 -14 7 -36 1 -32 -10 -65 -35 -56 -43 2
-3 -11 0 -31 6 -44 14 -45 22 -3 22 19 -1 33 4 34 12 1 6 2 19 3 27 0 8 6 15
11 15 6 0 10 -7 10 -15 0 -8 5 -15 11 -15 5 0 7 5 3 11 -4 7 0 9 14 5 23 -8
52 16 52 43 0 9 6 23 13 30 10 10 9 11 -5 6 -10 -4 -18 -17 -18 -29 0 -23 -17
-46 -34 -46 -6 0 -4 5 4 10 12 7 12 12 2 22 -9 9 -12 9 -12 -5 0 -9 -7 -17
-15 -17 -18 0 -20 21 -3 38 9 9 7 12 -10 12 -15 0 -20 -5 -16 -15 4 -8 1 -15
-5 -15 -6 0 -11 -7 -11 -15 0 -8 -5 -15 -11 -15 -6 0 -9 7 -6 15 4 8 2 17 -3
20 -6 3 -14 14 -19 24 -7 13 -6 18 4 18 8 0 13 -3 12 -6 -1 -3 3 -7 8 -8 6 -2
10 5 10 14 0 10 8 19 18 21 9 2 17 8 17 13 0 5 -11 7 -24 3 -28 -7 -49 2 -40
17 4 6 11 6 20 -2 9 -7 14 -8 14 -1 0 6 -6 13 -12 15 -10 4 -10 8 2 16 8 5 18
7 22 5 4 -3 8 -1 8 4 0 10 -23 22 -41 22 -4 0 -6 -6 -3 -14 4 -10 -2 -12 -20
-9 -34 7 -33 21 2 29 32 8 52 22 52 38 0 6 -5 3 -11 -6 -5 -10 -16 -18 -23
-18 -17 0 -29 27 -16 35 6 4 10 1 10 -5 0 -6 5 -8 10 -5 6 4 8 11 5 16 -4 5 2
6 12 2 16 -6 16 -5 4 10 -10 13 -17 14 -26 7 -9 -8 -15 -8 -20 0 -3 5 -1 10 4
10 6 0 11 5 11 10 0 6 -6 10 -14 10 -12 0 -14 -11 -11 -50 2 -27 -1 -50 -6
-50 -5 0 -9 9 -9 20 0 17 -31 60 -43 60 -2 0 -4 -17 -5 -37 -2 -44 -7 -50 -49
-56 -23 -4 -30 -2 -27 8 6 14 -22 28 -37 19 -5 -3 -9 -1 -9 4 0 6 7 12 15 16
8 3 15 2 15 -2 0 -4 11 -12 25 -18 23 -11 24 -11 14 8 -13 25 5 41 36 32 16
-5 17 -4 8 6 -17 18 5 37 36 33 l26 -3 -25 11 c-15 7 -20 13 -12 16 6 3 10 10
6 16 -3 7 1 4 8 -5 13 -16 15 -16 28 2 13 18 40 17 40 -2z m-3675 -977 c151
-27 424 -95 461 -114 51 -27 186 -143 274 -234 47 -48 60 -64 29 -35 -30 29
-59 49 -64 45 -4 -5 -5 -3 -2 3 3 6 -5 21 -18 32 -14 12 -25 19 -25 16 0 -4
-7 0 -16 7 -20 16 -42 20 -50 8 -3 -5 -10 -9 -16 -9 -6 0 -8 3 -5 7 9 9 -13
34 -24 27 -5 -3 -9 -1 -9 4 0 6 -9 8 -20 5 -11 -3 -26 0 -34 6 -8 7 -20 10
-27 9 -8 -2 -13 3 -11 11 2 9 -4 12 -18 8 -11 -3 -20 -1 -20 4 0 5 -13 9 -30
9 -16 0 -30 4 -30 9 0 5 -25 13 -55 16 -30 4 -55 11 -55 16 0 4 -8 8 -17 7
-10 0 -42 7 -70 15 -29 8 -55 11 -58 7 -3 -5 -19 -2 -35 7 -30 15 -174 26
-295 24 -33 -1 -77 -1 -98 -1 -36 0 -60 -5 -152 -30 -68 -18 -74 -20 -92 -24
-73 -17 -235 -100 -281 -144 -20 -19 -26 -21 -40 -10 -15 11 -15 11 -5 -3 17
-21 7 -29 -39 -29 l-38 0 21 43 c27 52 177 207 241 248 30 20 79 37 135 49
121 27 414 22 588 -9z m-1190 -642 c3 -4 0 -18 -6 -33 -13 -29 -12 -28 -189
-46 -215 -21 -456 -87 -600 -167 -175 -96 -369 -241 -471 -351 -182 -199 -209
-420 -83 -675 74 -150 221 -352 366 -503 55 -57 88 -99 88 -112 0 -12 -4 -22
-10 -22 -28 0 -278 311 -382 477 -130 207 -174 339 -166 505 5 116 27 183 90
278 130 195 502 470 763 563 81 29 268 72 370 86 75 10 219 10 230 0z m-59
-131 c-3 -13 -18 -74 -33 -136 l-28 -113 -85 -68 c-207 -166 -378 -396 -506
-681 -42 -93 -55 -114 -70 -112 -33 5 -127 45 -188 80 -33 18 -69 32 -80 30
-28 -4 122 -98 207 -129 34 -12 64 -24 66 -25 1 -2 -6 -31 -18 -66 -27 -84
-59 -218 -82 -352 -10 -60 -21 -111 -25 -115 -8 -8 -136 131 -233 254 -217
277 -289 436 -278 618 4 79 9 98 47 174 33 68 60 103 129 172 124 125 307 255
471 337 162 80 455 149 644 153 66 1 68 0 62 -21z m2045 -12 c151 -32 210 -47
231 -57 18 -10 46 -89 84 -242 32 -127 65 -339 55 -350 -7 -7 -91 8 -205 39
-75 20 -139 59 -134 82 4 18 38 18 49 0 4 -7 9 -7 13 0 3 5 17 8 31 7 33 -4
32 0 -5 19 -20 9 -30 11 -30 3 0 -19 -18 6 -23 33 -4 24 -4 24 -6 -2 -1 -30
-21 -40 -21 -11 0 15 -2 14 -15 -3 -14 -19 -14 -19 -15 1 -1 19 -1 19 -11 2
-8 -14 -13 -15 -22 -5 -12 12 -87 144 -87 152 0 9 96 -8 102 -18 5 -8 8 -7 8
1 0 11 26 12 50 3 3 -2 9 -2 14 -1 4 1 14 -4 22 -10 11 -9 14 -8 14 5 0 9 -8
16 -20 16 -11 0 -20 4 -20 9 0 4 -12 7 -27 5 -15 -1 -31 3 -35 9 -6 9 -8 9 -8
0 0 -8 -16 -10 -52 -7 -29 3 -54 6 -56 8 -4 5 -62 146 -62 153 0 2 24 3 54 1
30 -2 53 -1 51 2 -2 4 -17 7 -32 8 -59 1 -80 17 -86 66 -10 70 8 106 52 106
15 0 79 -11 142 -24z m349 -86 c34 -11 68 -20 75 -20 7 0 17 -24 23 -52 l11
-53 -5 48 c-4 36 -2 47 9 47 9 0 16 -16 21 -46 10 -73 8 -84 -10 -77 -15 5
-16 -1 -9 -52 4 -32 13 -83 21 -114 9 -31 18 -84 21 -119 5 -57 4 -62 -13 -61
-50 5 -55 1 -48 -41 5 -30 3 -40 -7 -40 -32 1 -41 20 -55 126 -15 109 -84 397
-104 433 -12 24 -13 41 -1 41 4 0 37 -9 71 -20z m220 -84 c7 -17 9 -17 9 -3 1
23 22 22 28 -3 3 -11 10 -20 15 -20 6 0 7 7 4 16 -4 10 -1 14 6 12 7 -3 17
-23 22 -46 11 -54 30 -56 21 -2 -4 25 -3 40 3 40 6 0 13 -18 17 -40 4 -22 11
-40 17 -40 6 0 8 14 3 36 -4 24 -3 34 4 30 6 -4 13 -22 17 -41 8 -43 28 -47
22 -5 -5 36 14 36 22 0 8 -34 29 -37 22 -4 -3 18 -1 25 6 20 6 -4 14 -22 18
-41 3 -19 11 -35 16 -35 6 0 8 12 5 30 -4 17 -2 30 3 30 6 0 10 -4 10 -9 0 -6
9 -8 20 -6 15 3 24 -3 30 -18 7 -17 9 -18 9 -4 1 14 6 16 29 11 35 -9 65 -24
74 -38 6 -8 8 -8 8 0 0 16 70 -9 86 -30 7 -11 13 -13 16 -6 2 8 12 8 33 -1 17
-7 37 -13 46 -15 8 -2 64 -19 125 -38 295 -94 279 -86 324 -154 30 -46 38 -68
20 -57 -5 3 -10 2 -10 -3 0 -6 7 -12 15 -16 9 -3 15 -18 15 -36 0 -18 4 -29
10 -25 6 3 15 -6 20 -20 14 -38 12 -52 -5 -29 -13 18 -14 17 -6 -12 5 -17 12
-59 16 -93 7 -58 6 -63 -11 -58 -11 3 -84 16 -164 28 -80 13 -146 26 -148 30
-2 5 -10 5 -18 2 -8 -3 -14 0 -14 6 0 6 -7 8 -15 5 -8 -4 -17 1 -21 10 -3 9
-17 16 -29 16 -16 0 -25 7 -27 21 l-3 21 -24 -21 c-19 -16 -26 -18 -33 -9 -5
10 -8 8 -8 -4 0 -10 -4 -18 -9 -18 -6 0 -6 12 -1 30 16 54 22 164 11 190 -8
22 -10 19 -10 -26 -1 -68 -11 -115 -23 -108 -6 4 -7 34 -3 78 4 39 5 69 2 66
-9 -9 -37 -152 -37 -188 0 -31 -2 -33 -27 -28 -16 3 -49 8 -75 12 -49 6 -56
12 -38 30 6 6 14 46 19 90 l8 79 2 -90 c2 -72 4 -85 12 -65 17 41 -10 353 -32
375 -8 7 -9 -1 -5 -30 13 -90 16 -160 7 -140 -5 11 -10 32 -10 46 -1 15 -8 40
-16 55 -8 16 -16 40 -16 54 -1 16 -4 11 -9 -15 l-6 -40 -19 63 c-10 34 -22 62
-27 62 -10 0 -11 10 7 -90 9 -47 18 -149 22 -228 6 -130 5 -142 -10 -136 -13
5 -15 13 -9 33 18 66 -4 336 -32 393 -10 20 -11 28 -2 31 6 2 8 8 3 12 -4 5
-13 3 -19 -3 -9 -9 -9 -32 0 -99 17 -130 11 -122 -28 36 -15 60 -24 44 -11
-19 10 -47 14 -135 4 -98 -6 23 -33 32 -33 11 0 -14 -2 -14 -14 3 -23 31 -28
11 -16 -77 11 -94 13 -206 3 -196 -3 4 -7 46 -9 94 -4 132 -13 190 -31 197
-13 5 -14 0 -9 -36 3 -24 8 -79 11 -123 4 -44 8 -90 11 -102 3 -14 0 -23 -8
-23 -10 0 -13 25 -14 94 -1 96 -19 196 -35 196 -5 0 -7 -17 -4 -37 11 -81 24
-237 20 -242 -10 -9 -13 7 -24 119 -13 129 -39 309 -47 322 -10 15 -25 8 -20
-9 3 -10 14 -92 26 -183 11 -91 22 -182 25 -204 l6 -39 -53 8 c-29 4 -73 11
-98 14 -34 5 -46 11 -49 26 -2 11 -8 23 -13 26 -15 10 0 29 23 29 10 0 19 5
19 10 0 6 7 10 16 10 9 0 14 6 11 13 -3 8 -8 40 -12 73 -4 32 -13 69 -21 82
-9 14 -10 22 -4 22 6 0 9 8 6 18 -9 32 -19 97 -13 92 8 -7 44 -183 52 -255 6
-58 8 -61 33 -59 15 0 27 6 26 12 -1 7 -2 24 -4 40 l-2 27 -7 -30 c-6 -27 -9
-22 -19 36 -7 36 -12 72 -12 79 0 24 13 1 21 -37 8 -36 8 -35 3 7 -12 118 -23
207 -28 230 -17 71 -19 103 -7 96 7 -5 16 -18 21 -30z m-1955 -47 c54 -8 78
-17 85 -29 33 -61 124 -472 164 -737 4 -28 1 -28 -33 -4 -53 38 -173 86 -246
99 -197 34 -417 -42 -568 -196 -97 -98 -143 -164 -202 -287 -184 -382 -178
-845 16 -1240 158 -324 414 -524 695 -542 246 -17 495 134 652 395 18 29 32
56 32 62 0 30 21 11 50 -43 47 -90 128 -195 203 -261 l65 -57 -10 -37 c-28
-103 -117 -241 -235 -363 -386 -400 -953 -483 -1377 -201 -375 250 -634 711
-723 1292 -26 164 -25 579 0 735 63 383 195 695 401 952 273 339 667 516 1031
462z m8028 -72 c43 -50 133 -243 156 -336 39 -156 24 -191 -77 -191 -54 0 -59
2 -69 28 l-12 27 6 -27 c6 -32 -12 -38 -34 -10 -14 16 -14 16 -9 0 5 -16 -2
-18 -54 -18 -54 0 -61 2 -74 28 -8 15 -15 23 -16 19 0 -5 4 -17 10 -27 9 -17
4 -17 -78 -14 -178 9 -189 12 -212 50 -27 42 -36 45 -15 3 21 -39 12 -48 -25
-27 -17 10 -30 12 -32 6 -2 -5 -44 -14 -93 -19 -50 -4 -111 -11 -137 -14 -47
-6 -47 -5 -68 35 -11 22 -25 40 -30 40 -5 0 -12 10 -16 23 -3 12 -15 34 -26
50 -36 51 -25 65 107 122 66 29 160 71 209 94 l89 42 25 -23 25 -23 -17 26
c-16 25 -16 27 0 33 12 5 25 -2 41 -21 19 -22 22 -23 13 -6 -5 12 -15 25 -20
28 -19 12 -10 23 28 31 20 4 43 8 49 7 7 0 11 3 8 7 -3 4 18 18 47 30 41 18
52 19 59 8 5 -7 30 -48 55 -90 25 -43 48 -78 50 -78 6 0 -1 13 -55 105 -23 38
-41 72 -41 76 0 5 84 32 135 43 37 8 70 -5 98 -37z m-3869 -582 c11 -8 15 -15
9 -15 -7 0 -14 4 -18 10 -11 18 -36 -1 -29 -23 9 -29 34 -54 34 -35 0 8 -5 19
-12 26 -9 9 -9 12 0 12 7 0 12 -4 12 -10 0 -5 7 -10 15 -10 8 0 15 -5 15 -11
0 -5 -4 -7 -10 -4 -5 3 -10 -3 -10 -14 0 -17 5 -19 34 -16 24 3 36 0 40 -10 3
-8 13 -15 21 -15 9 0 13 -5 10 -10 -5 -7 -11 -8 -18 -1 -14 11 -51 -11 -39
-24 4 -5 1 -5 -5 -1 -7 4 -13 14 -13 22 0 8 4 13 9 9 5 -3 12 -1 15 4 7 11
-19 23 -29 13 -3 -4 -18 -7 -33 -8 -54 -2 -58 -4 -60 -31 -3 -33 -4 -34 -22
-23 -12 7 -12 11 1 26 12 15 12 17 -1 12 -16 -5 -18 -31 -6 -60 7 -14 3 -16
-23 -13 -18 2 -30 1 -27 -3 2 -4 -2 -20 -10 -37 -8 -16 -12 -21 -9 -11 3 11 0
23 -6 27 -14 8 -39 1 -39 -12 0 -4 7 -6 15 -3 8 4 15 2 15 -4 0 -11 -25 -11
-35 0 -4 3 -7 20 -7 36 -1 34 -19 34 -37 -1 -10 -18 -11 -18 -5 -2 3 11 9 26
12 34 3 8 1 12 -5 8 -5 -3 -10 0 -10 8 0 8 4 15 9 15 4 0 8 9 8 20 0 11 5 20
10 20 13 0 13 -6 0 -30 -9 -16 -6 -21 15 -26 20 -5 24 -11 21 -31 -4 -21 -2
-23 17 -17 12 4 25 11 28 17 4 5 14 7 23 4 10 -4 16 -1 16 8 0 11 -7 12 -32 4
-23 -6 -34 -5 -40 4 -12 19 -9 30 5 18 18 -14 30 -2 15 16 -8 11 -7 12 5 7 12
-4 14 -1 10 15 -5 18 -8 19 -21 9 -13 -11 -14 -10 -3 10 6 12 15 22 20 22 15
0 33 -29 27 -45 -3 -8 -1 -15 3 -15 16 0 22 32 9 47 -10 13 -9 15 7 11 11 -2
19 -11 19 -21 -1 -14 2 -15 19 -5 20 10 20 12 4 17 -10 4 -18 10 -18 14 1 12
26 35 33 31 4 -3 5 9 3 26 -4 34 16 40 49 15z m2963 -515 c-9 -25 -9 -33 6
-47 11 -11 17 -13 17 -5 0 7 -4 12 -10 12 -16 0 -11 36 7 51 15 12 16 12 8 -1
-13 -21 -15 -40 -4 -40 5 0 9 6 9 14 0 9 13 13 43 13 l42 0 -34 -12 c-25 -8
-35 -18 -37 -36 -2 -20 2 -25 18 -25 12 1 23 -4 25 -9 2 -6 -11 -10 -31 -10
-32 1 -34 0 -23 -19 10 -19 11 -19 15 -3 6 27 27 15 30 -18 3 -26 2 -27 -12
-16 -14 12 -16 11 -10 -3 8 -21 -5 -21 -23 2 -13 15 -13 15 -4 -5 6 -12 20
-25 31 -28 11 -4 17 -11 14 -17 -4 -6 -2 -8 3 -5 12 7 24 57 25 100 1 20 3 24
9 15 12 -18 11 -58 -1 -58 -6 0 -5 -6 2 -14 7 -8 18 -11 23 -8 6 3 6 1 2 -4
-5 -5 -14 -9 -19 -9 -21 0 -19 -22 2 -28 14 -3 20 -13 20 -32 0 -15 -4 -24
-10 -20 -5 3 -10 1 -10 -4 0 -14 6 -14 31 -1 13 7 19 7 19 0 0 -5 -4 -10 -8
-10 -10 0 -9 -36 1 -46 4 -4 7 0 7 10 0 9 8 20 18 23 9 4 21 11 25 17 5 6 7
-1 4 -17 -3 -21 -1 -27 9 -23 8 3 14 -1 14 -10 0 -8 -4 -12 -10 -9 -5 3 -10
-1 -10 -9 0 -16 -18 -31 -26 -23 -3 3 -1 14 5 26 8 14 8 22 0 26 -13 9 -22 0
-24 -25 -1 -11 -10 -26 -20 -34 -16 -12 -17 -17 -7 -37 l13 -24 -5 23 c-6 29
18 40 39 18 17 -17 28 -20 58 -17 9 1 17 -3 17 -9 0 -6 -7 -10 -16 -8 -9 2
-18 -4 -19 -13 -2 -10 4 -16 14 -15 9 0 15 -5 13 -13 -2 -8 9 -27 24 -42 15
-16 22 -29 16 -29 -7 0 -12 -4 -12 -10 0 -5 6 -10 14 -10 8 0 18 -5 22 -12 5
-7 3 -8 -6 -3 -10 6 -12 3 -7 -11 7 -18 6 -18 -9 1 -8 11 -19 19 -24 18 -5 -2
-7 3 -4 11 7 18 -8 27 -26 15 -10 -5 -11 -9 -3 -9 7 0 10 -7 7 -15 -4 -10 0
-15 14 -15 11 0 23 -7 26 -16 5 -14 4 -15 -9 -4 -11 10 -15 10 -15 0 0 -6 9
-14 19 -17 21 -5 42 -53 24 -53 -5 0 -8 5 -8 12 0 6 -6 13 -14 16 -10 3 -12 0
-8 -12 4 -9 2 -16 -4 -16 -5 0 -4 -6 3 -13 6 -8 23 -12 37 -11 15 2 18 1 9 -2
-10 -3 -18 -10 -18 -15 0 -5 -9 -9 -21 -9 -11 0 -18 4 -15 9 8 13 -21 34 -39
27 -19 -7 -20 -46 0 -47 24 -2 29 -4 43 -12 7 -5 12 -4 12 2 0 6 6 11 13 11 6
-1 -1 -12 -17 -25 -17 -13 -34 -21 -40 -18 -5 4 -7 -1 -2 -12 5 -15 4 -16 -9
-5 -19 16 -19 30 0 30 8 0 15 5 15 10 0 13 -17 13 -25 0 -10 -17 -26 0 -20 21
4 13 2 19 -9 19 -20 0 -20 -3 4 -47 18 -34 17 -71 -1 -42 -7 11 -9 11 -9 -2 0
-19 -26 -32 -43 -22 -21 13 -45 10 -40 -4 4 -9 -3 -12 -19 -11 l-25 2 24 34
c13 19 23 40 23 46 -1 6 -6 1 -13 -12 l-13 -22 -22 27 c-12 15 -25 24 -29 19
-4 -4 6 -18 22 -31 30 -27 30 -35 -4 -38 -22 -1 -30 -17 -9 -17 15 0 1 -13
-17 -16 -7 -1 -16 5 -19 13 -4 8 -2 11 5 7 7 -4 7 1 -1 16 -6 12 -9 28 -6 36
4 9 2 12 -5 8 -6 -3 -9 -15 -6 -25 3 -10 1 -21 -4 -24 -4 -3 -6 -12 -2 -20 3
-9 -1 -15 -11 -15 -10 0 -13 6 -9 18 3 9 3 14 -1 10 -5 -4 -19 -3 -32 2 -14 6
-26 6 -29 0 -4 -6 1 -10 9 -10 9 0 16 -9 16 -20 0 -11 -2 -20 -4 -20 -2 0 -13
-3 -23 -6 -17 -6 -17 -6 1 8 12 9 15 17 8 22 -6 3 -16 -7 -23 -23 -8 -17 -18
-27 -24 -23 -5 4 -22 9 -36 10 -21 3 -27 -2 -31 -23 -5 -24 -4 -24 12 -10 27
25 36 17 10 -10 -12 -13 -26 -22 -30 -20 -5 3 -11 -2 -14 -11 -3 -8 -10 -13
-15 -9 -5 3 -12 -4 -16 -15 -3 -11 -9 -21 -13 -21 -42 -8 -49 -5 -46 17 2 26
0 27 -31 14 -18 -8 -18 -9 5 -9 18 -1 21 -4 12 -10 -11 -7 -10 -11 2 -24 11
-11 13 -18 5 -23 -6 -3 -15 0 -20 7 -7 11 -9 10 -9 -3 0 -10 -5 -18 -11 -18
-6 0 -8 9 -4 23 6 20 5 21 -8 4 -14 -17 -16 -16 -45 8 -16 14 -33 25 -36 25
-12 0 58 -56 79 -64 16 -6 17 -9 5 -16 -21 -14 -32 -12 -24 3 6 9 5 9 -8 0 -8
-7 -18 -9 -23 -5 -4 4 -4 -3 -1 -15 4 -12 2 -24 -4 -28 -6 -4 -10 -3 -9 2 3
19 -2 33 -12 33 -6 0 -9 -7 -6 -14 4 -11 1 -13 -10 -9 -11 4 -14 2 -9 -5 4 -7
1 -12 -9 -12 -12 0 -15 6 -10 23 5 17 4 19 -4 7 -15 -22 -13 -40 4 -40 8 0 15
-7 15 -15 0 -13 -4 -14 -20 -5 -14 7 -20 7 -20 0 0 -5 -9 -10 -19 -10 -11 0
-23 -5 -26 -11 -13 -20 -27 -3 -30 35 -1 20 1 32 5 25 12 -18 33 -6 36 22 1
14 12 41 24 61 l21 37 35 -34 c35 -35 54 -44 54 -24 0 5 -4 7 -10 4 -5 -3 -10
-2 -10 3 0 5 -10 12 -22 15 -12 4 -19 9 -15 13 4 4 2 13 -4 20 -7 9 -1 26 25
62 20 27 36 54 36 60 0 6 8 17 18 24 19 15 37 41 52 76 5 12 14 22 20 22 5 0
10 6 10 14 0 7 8 24 18 37 10 13 32 49 48 79 16 30 31 57 34 60 4 3 21 40 40
82 18 42 36 75 40 73 3 -2 12 1 20 7 12 8 12 9 -2 4 -12 -3 -18 0 -18 10 0 10
6 14 15 11 10 -5 19 9 32 53 9 32 20 57 24 54 4 -2 5 5 2 16 -3 11 2 50 10 87
9 38 18 88 22 113 3 24 13 52 22 62 22 24 23 23 10 -12z m-7103 -170 c-115 -7
-175 -29 -152 -57 7 -9 33 -26 58 -38 68 -32 137 -75 201 -125 31 -25 66 -52
78 -59 26 -19 50 -119 30 -131 -12 -8 -20 -6 -89 23 -19 8 -54 14 -78 12 -23
-1 -45 2 -48 6 -3 5 -11 9 -17 9 -7 -1 -2 -9 9 -18 21 -18 39 -92 22 -92 -4 0
-8 -9 -8 -21 0 -22 -49 -121 -62 -127 -5 -2 -8 -8 -8 -12 0 -5 -12 -22 -27
-38 -21 -22 -35 -28 -55 -25 -21 3 -28 0 -28 -13 0 -13 -7 -16 -35 -11 -20 3
-35 2 -35 -4 0 -5 -10 -1 -22 11 -12 11 -28 20 -35 20 -7 0 -19 12 -27 28 -8
15 -15 23 -16 18 -1 -23 76 -141 118 -182 72 -68 122 -89 217 -89 70 0 89 4
149 33 37 17 70 32 72 32 8 0 -18 -45 -40 -68 -11 -13 -30 -29 -41 -34 l-20
-11 20 23 20 22 -45 -8 c-88 -17 -191 -11 -245 16 -116 56 -221 206 -245 352
-38 221 60 451 227 537 41 21 135 41 190 41 25 0 32 4 27 13 -4 6 3 3 15 -8
l23 -20 -98 -5z m6999 -24 c3 -8 0 -17 -7 -19 -7 -3 -16 -23 -19 -44 -4 -22
-15 -50 -26 -62 -11 -12 -17 -30 -14 -41 3 -11 -2 -27 -11 -35 -9 -9 -16 -23
-16 -31 0 -8 -8 -14 -17 -15 -12 0 -13 -2 -5 -6 10 -4 9 -11 -4 -31 -9 -15
-23 -31 -31 -35 -7 -4 -13 -17 -13 -28 0 -13 -6 -19 -16 -17 -12 2 -18 -6 -21
-26 -2 -16 -11 -35 -19 -43 -8 -8 -11 -19 -8 -25 4 -7 2 -8 -4 -4 -6 3 -16 -3
-23 -15 -14 -27 -66 -79 -79 -79 -6 0 -10 -9 -10 -20 0 -18 -22 -27 -54 -21
-5 1 -4 -4 3 -13 9 -11 9 -16 0 -21 -6 -4 -16 -1 -21 6 -7 10 -8 9 -4 -6 4
-16 -7 -27 -60 -58 -38 -22 -72 -36 -81 -33 -13 5 -13 4 -4 -8 9 -11 7 -15 -9
-19 -11 -3 -18 -1 -15 3 3 5 1 11 -5 15 -5 3 -10 -1 -10 -9 0 -8 -9 -20 -20
-26 -12 -6 -20 -7 -20 -1 0 5 6 11 13 14 7 2 8 8 3 13 -5 5 -11 4 -13 -4 -7
-17 -32 -42 -44 -42 -6 0 -7 4 -4 10 3 5 0 7 -9 4 -8 -3 -12 -12 -9 -20 3 -9
-2 -14 -17 -14 -16 0 -20 4 -16 15 3 8 1 15 -4 15 -10 0 -14 -15 -11 -34 1 -5
-4 -4 -12 2 -10 9 -22 9 -38 3 -13 -5 -18 -10 -11 -10 7 -1 10 -6 7 -11 -4 -7
-12 -7 -25 0 -13 7 -19 6 -24 -5 -5 -13 -34 -14 -55 -1 -5 3 -11 -1 -15 -9 -7
-19 -30 -19 -50 0 -8 8 -21 15 -28 14 -10 0 -10 -2 0 -6 6 -2 12 -11 12 -18 0
-22 -26 -24 -55 -5 -25 17 -30 17 -51 3 -13 -8 -28 -12 -34 -8 -5 3 -10 0 -11
-7 0 -7 -4 -4 -9 7 -5 11 -9 14 -9 8 -1 -7 -10 -13 -20 -13 -11 0 -21 -6 -24
-12 -3 -10 -9 -8 -24 4 -12 11 -29 16 -47 12 -15 -2 -34 0 -42 7 -11 9 -14 8
-15 -7 0 -12 -3 -14 -6 -6 -4 10 -8 10 -20 1 -11 -10 -13 -10 -11 1 2 7 -3 15
-9 17 -7 3 -13 0 -13 -6 0 -19 -30 -12 -31 7 -1 16 -2 16 -6 0 -2 -10 -9 -18
-15 -18 -6 0 -8 8 -6 18 4 12 -2 17 -20 19 -15 0 -20 -2 -13 -7 15 -9 -8 -20
-42 -20 -20 0 -20 0 -1 15 18 14 18 14 -8 15 -15 0 -30 -4 -33 -10 -10 -16
-38 -12 -32 5 4 8 1 17 -5 21 -7 4 -8 3 -4 -4 4 -7 3 -12 -3 -12 -6 0 -8 -7
-4 -16 5 -13 2 -15 -18 -9 -33 10 -36 15 -19 25 10 7 11 10 3 10 -7 0 -13 7
-13 15 0 17 16 20 23 5 3 -6 4 -5 3 2 -1 7 -11 15 -21 16 -14 3 -17 -1 -13
-22 3 -15 1 -29 -3 -32 -5 -3 -9 -1 -9 4 0 6 -6 10 -12 9 -42 -1 -68 4 -63 13
9 14 -4 12 -19 -3 -7 -7 -11 -17 -9 -24 2 -6 -1 -15 -8 -19 -9 -5 -10 -2 -6 9
3 10 2 17 -4 17 -6 0 -6 6 -1 18 5 9 7 22 5 29 -2 6 1 15 8 19 8 4 9 3 5 -4
-4 -7 -5 -12 -2 -12 2 0 12 -3 22 -7 10 -4 15 -2 11 3 -3 6 -2 16 4 24 7 12 9
10 9 -6 0 -12 7 -25 16 -28 14 -5 15 -4 5 8 -8 9 -8 16 -2 20 5 4 14 -1 19
-10 8 -14 12 -13 45 5 30 17 35 18 30 4 -5 -12 -3 -14 7 -8 9 6 12 4 8 -7 -7
-18 26 -18 44 0 17 17 68 15 74 -3 5 -12 10 -13 20 -4 11 9 18 8 29 -1 8 -6
19 -9 25 -5 10 6 33 13 80 22 20 4 22 2 10 -6 -12 -9 -11 -11 7 -11 12 0 24 6
26 13 3 7 6 5 6 -5 1 -20 16 -24 27 -6 5 7 2 9 -7 4 -8 -4 -5 0 5 8 14 11 23
13 32 5 7 -6 18 -8 24 -4 5 3 10 0 10 -8 0 -19 48 -17 55 2 3 7 12 11 20 7 8
-3 17 -1 20 4 3 5 12 7 20 4 7 -3 22 -1 31 4 11 6 27 7 41 1 14 -5 25 -4 29 2
3 6 11 6 17 1 17 -12 36 -9 46 7 5 7 14 10 20 7 6 -4 8 -12 5 -18 -4 -6 -2 -8
4 -5 5 4 8 15 6 25 -4 13 1 17 25 17 25 1 28 -2 18 -14 -10 -12 -9 -14 8 -7
11 4 32 10 48 13 15 3 27 10 27 15 0 6 8 4 17 -3 9 -8 14 -9 10 -3 -4 6 13 16
44 24 l50 14 -28 13 c-18 8 -20 11 -6 7 12 -2 24 0 28 6 3 6 11 8 16 4 13 -7
69 15 69 27 0 5 12 6 26 3 19 -5 25 -4 20 5 -4 6 -2 11 4 11 6 0 8 5 4 12 -5
8 0 9 14 6 12 -4 22 -2 22 3 0 5 7 9 15 9 8 0 15 9 15 19 0 14 6 19 20 16 11
-2 24 3 30 13 5 9 10 14 10 10 0 -4 23 18 51 47 28 30 55 53 59 50 4 -3 13 9
20 25 7 17 19 30 26 30 8 0 14 6 14 13 0 7 9 19 20 27 11 8 20 25 20 38 0 22
8 34 63 93 10 11 15 24 12 29 -3 4 0 10 5 12 6 2 13 19 16 38 3 19 11 42 18
50 7 8 18 30 26 48 13 34 25 41 33 18z m-3057 -440 c-4 -19 -4 -19 7 -5 11 15
15 15 32 3 10 -8 26 -14 35 -14 9 0 42 -13 73 -29 31 -16 54 -24 50 -18 -4 7
4 4 19 -5 19 -12 28 -14 37 -5 8 8 11 7 11 -4 0 -9 12 -21 26 -27 14 -7 23 -8
19 -2 -3 5 -1 10 4 10 6 0 11 -4 11 -9 0 -5 10 -7 22 -3 14 3 19 2 14 -6 -5
-8 0 -12 13 -12 11 0 26 -7 34 -15 12 -11 17 -12 20 -2 3 9 9 8 22 -5 16 -15
16 -17 -5 -28 -17 -9 -24 -9 -30 -1 -5 9 -14 9 -34 1 -15 -5 -25 -6 -22 -1 8
13 -18 21 -46 14 -22 -5 -22 -5 -3 10 19 15 19 15 -7 10 -14 -3 -34 0 -45 7
-15 9 -15 11 -1 6 12 -3 15 -1 11 10 -6 17 -13 17 -49 4 -24 -9 -25 -9 -14 5
10 12 10 15 -4 15 -9 0 -16 -4 -16 -10 0 -5 -7 -10 -15 -10 -18 0 -20 16 -2
23 28 12 -35 34 -80 28 -7 -1 -13 4 -13 11 0 18 -56 48 -67 37 -13 -13 -59 24
-50 38 4 6 16 9 28 6 15 -4 19 -11 15 -27z m2531 -35 c0 -11 -4 -18 -8 -16 -3
3 -21 -7 -39 -20 -18 -13 -63 -34 -99 -46 -36 -12 -109 -44 -161 -71 -135 -71
-203 -81 -580 -80 -468 0 -776 40 -1147 148 -62 18 -70 28 -15 20 209 -33
1061 -49 1367 -26 204 15 383 45 479 79 102 36 206 42 203 12z m-7161 -120 c9
-59 45 -200 63 -255 10 -28 15 -59 12 -68 -5 -15 -11 -13 -42 15 -42 37 -68
101 -93 224 -19 91 -12 121 30 121 19 0 25 -7 30 -37z m-106 -38 c0 -29 25
-133 48 -208 11 -33 25 -82 31 -109 7 -27 24 -72 38 -100 104 -205 268 -352
463 -412 57 -17 183 -29 207 -19 10 4 27 10 38 12 123 21 198 52 291 118 74
53 166 156 213 238 35 61 52 78 25 25 -67 -131 -188 -268 -291 -331 -100 -61
-202 -89 -318 -89 -150 0 -256 37 -388 134 -210 155 -364 436 -392 716 -3 34
-3 67 0 73 9 14 34 -20 35 -48z m5265 27 c-3 -5 -3 -11 2 -11 4 -1 20 -3 35
-4 15 -2 36 -9 48 -15 11 -6 35 -13 53 -15 32 -3 72 -12 72 -15 0 -1 13 -4 30
-6 32 -6 48 -22 40 -42 -5 -15 9 -8 38 17 17 14 20 14 31 -1 9 -12 16 -14 29
-6 10 5 16 6 15 1 -2 -4 2 -9 7 -9 6 -1 9 3 7 9 -2 6 4 5 12 -3 9 -7 16 -10
16 -6 0 4 13 0 29 -8 16 -9 31 -13 34 -9 4 3 18 -2 32 -11 23 -15 29 -14 26 7
-1 4 7 3 17 -2 11 -6 24 -6 33 0 7 5 19 9 24 9 6 0 3 -5 -5 -10 -17 -11 -17
-11 25 -14 17 -1 40 4 52 12 20 12 22 12 20 -7 -1 -12 -6 -21 -11 -21 -6 0 -5
-5 1 -11 17 -17 4 -39 -23 -39 -18 0 -22 4 -17 17 4 10 2 14 -5 9 -6 -3 -14
-1 -18 5 -5 9 -11 6 -21 -7 -12 -16 -15 -17 -23 -4 -15 23 -12 33 8 25 12 -4
14 -3 6 5 -8 8 -19 6 -40 -5 -25 -13 -26 -15 -8 -15 13 0 24 -8 27 -20 7 -26
24 -26 32 0 7 22 25 18 25 -6 0 -8 -4 -13 -9 -10 -5 3 -14 -1 -21 -10 -11 -12
-15 -12 -21 -2 -5 7 -12 13 -16 13 -4 0 -23 11 -42 24 -19 14 -31 20 -27 13 5
-8 -1 -12 -18 -12 -29 0 -33 9 -13 29 6 8 0 6 -15 -3 -20 -13 -27 -14 -30 -4
-3 7 -18 13 -34 13 -16 0 -28 5 -27 11 2 12 -26 12 -44 1 -7 -4 -9 -15 -6 -25
6 -15 5 -15 -11 -3 -10 8 -13 17 -7 20 6 4 6 12 1 21 -6 8 -10 12 -11 8 -1 -5
-3 -12 -4 -18 -1 -5 -3 -15 -4 -21 0 -5 -5 -8 -11 -4 -5 3 -7 12 -3 20 3 10 1
13 -9 10 -9 -3 -23 5 -34 20 -10 14 -23 25 -28 25 -5 0 -2 -8 7 -18 18 -20 22
-42 8 -42 -5 0 -11 9 -14 19 -3 11 -13 20 -23 20 -44 1 -55 5 -50 17 3 8 1 16
-4 19 -6 4 -10 1 -10 -6 0 -9 -3 -9 -14 0 -9 7 -17 8 -20 2 -3 -5 0 -12 6 -14
9 -4 10 -6 1 -6 -6 -1 -15 4 -18 9 -5 8 -12 7 -22 -2 -14 -11 -15 -10 -8 12 4
14 13 28 19 32 7 5 7 8 0 8 -5 0 -19 -7 -30 -15 -25 -19 -34 -19 -34 3 0 14
-2 15 -10 2 -9 -14 -11 -13 -14 9 0 5 -5 13 -10 18 -5 5 -6 3 -2 -4 10 -17 -4
-16 -28 2 -21 16 -15 20 34 28 14 2 26 5 28 6 2 0 0 -3 -3 -9z"/>
<path d="M7520 7500 c-109 -40 -165 -112 -164 -211 2 -142 162 -294 363 -345
92 -23 238 -16 308 15 261 115 141 435 -201 540 -91 28 -229 28 -306 1z"/>
<path d="M9069 7411 c-232 -74 -230 -317 4 -471 160 -104 381 -126 515 -49 76
43 107 95 107 178 -1 82 -26 133 -99 207 -59 58 -187 125 -274 143 -78 16
-189 13 -253 -8z m25 -312 c20 -12 36 -27 36 -35 0 -8 5 -14 10 -14 6 0 10 -6
10 -14 0 -10 8 -13 25 -10 19 3 25 0 25 -14 0 -15 7 -18 30 -17 19 1 30 -3 30
-12 0 -7 3 -12 8 -12 26 4 42 -3 42 -20 0 -17 -4 -18 -29 -11 -21 6 -31 5 -35
-3 -3 -8 -8 -7 -15 3 -9 13 -12 11 -18 -9 -6 -23 -7 -23 -20 -5 -12 16 -15 17
-24 4 -8 -13 -11 -13 -23 2 -7 10 -17 14 -21 10 -4 -4 1 6 11 23 10 16 13 26
7 22 -7 -5 -13 -4 -13 2 0 7 -10 6 -30 -1 -23 -7 -34 -7 -45 2 -13 11 -13 14
2 26 17 13 17 14 1 8 -10 -3 -25 1 -33 10 -15 15 -15 17 7 26 19 9 18 9 -11 4
-23 -4 -31 -3 -27 5 4 6 15 11 24 12 10 0 12 3 5 5 -18 8 -4 34 17 34 11 0 35
-9 54 -21z"/>
<path d="M6740 6894 c200 -36 291 -43 585 -47 171 -3 320 -9 332 -13 13 -5
-86 -8 -245 -7 -255 2 -264 1 -207 -13 50 -12 173 -15 710 -17 360 -1 554 1
435 4 -118 4 -266 8 -327 9 -71 1 -113 6 -113 13 0 7 92 8 298 4 365 -8 618
-16 697 -22 48 -3 55 -2 35 7 -14 5 -65 12 -115 13 -49 2 -151 7 -225 11 -74
5 -191 8 -260 9 -69 0 -127 3 -130 6 -6 7 -432 26 -780 34 -414 9 -715 13
-690 9z"/>
<path d="M7320 6764 c25 -8 68 -21 95 -28 28 -8 84 -23 126 -35 71 -19 342
-81 355 -81 15 0 -12 23 -49 42 -37 18 -40 22 -22 29 11 4 54 8 95 9 88 2 236
30 233 45 -3 18 -91 30 -136 18 -50 -13 -326 -5 -345 10 -9 7 -11 6 -6 -7 5
-13 0 -16 -25 -16 -17 0 -31 -3 -31 -8 0 -8 42 -27 84 -36 15 -4 26 -10 23
-13 -4 -3 -34 2 -69 11 -119 30 -336 76 -354 75 -11 -1 1 -7 26 -15z"/>
<path d="M9740 6757 c3 -2 68 -10 145 -16 434 -35 668 -56 862 -77 140 -15
190 -17 181 -9 -3 3 -38 8 -79 11 -41 3 -94 9 -119 14 -25 4 -61 9 -80 9 -33
1 -198 17 -265 25 -16 2 -73 7 -125 10 -52 4 -115 9 -140 12 -103 11 -386 27
-380 21z"/>
<path d="M8995 6744 c-107 -14 -117 -16 -107 -26 18 -18 275 -30 482 -23 354
11 387 28 73 39 -377 12 -418 13 -448 10z"/>
<path d="M9900 8332 c-19 -6 -3 -12 75 -30 55 -13 135 -35 178 -49 42 -14 80
-23 84 -20 12 12 -32 50 -87 75 -42 19 -75 26 -140 28 -47 2 -96 0 -110 -4z"/>
<path d="M3296 5578 c-22 -32 -21 -144 4 -263 14 -67 20 -137 20 -224 0 -240
26 -518 76 -831 40 -249 107 -494 140 -507 8 -3 11 -10 7 -17 -4 -8 -3 -8 6 0
19 17 16 64 -6 125 -40 105 -105 445 -102 531 1 18 -4 67 -11 108 -23 143 0
299 57 383 l35 52 -17 100 c-49 281 -100 462 -152 533 -28 38 -37 39 -57 10z"/>
<path d="M11170 5029 c0 -6 -7 -9 -15 -5 -13 4 -14 2 -5 -14 6 -11 19 -20 30
-20 10 0 24 -2 32 -3 7 -2 10 -2 6 0 -17 10 -7 23 15 19 12 -3 29 -5 37 -6 11
0 8 -7 -10 -21 -31 -27 -34 -48 -6 -58 12 -5 22 -18 23 -30 1 -13 -2 -19 -9
-15 -6 4 -8 3 -4 -4 3 -6 2 -14 -4 -17 -8 -5 -7 -11 1 -21 9 -11 9 -14 -1 -14
-8 0 -10 -3 -7 -6 4 -4 13 -1 21 5 10 9 20 10 33 3 13 -8 20 -6 30 6 8 11 12
12 13 5 0 -7 5 -13 11 -13 7 0 17 -6 23 -13 6 -7 10 -11 9 -9 -1 2 3 17 9 33
8 22 15 28 28 24 10 -3 21 -1 25 4 3 6 0 8 -9 5 -11 -4 -13 0 -9 15 5 21 23
30 23 12 0 -5 7 -12 16 -15 8 -3 12 -2 9 4 -3 5 -2 18 3 27 7 13 5 22 -5 32
-13 12 -14 11 -9 -7 4 -11 2 -23 -4 -27 -5 -3 -10 -2 -10 4 0 6 -7 8 -15 5 -8
-4 -15 -15 -15 -25 0 -10 -5 -19 -10 -19 -6 0 -15 -11 -22 -25 -6 -13 -15 -22
-20 -19 -4 3 -6 10 -3 15 3 5 -1 6 -9 3 -9 -3 -16 -1 -16 6 0 6 -6 8 -12 5 -7
-4 -4 1 6 9 22 18 40 21 31 6 -3 -5 -1 -10 5 -10 7 0 10 6 7 13 -4 14 -46 16
-64 4 -7 -5 -17 -6 -23 -2 -13 8 -13 42 0 50 6 3 10 -1 10 -9 0 -9 5 -16 10
-16 9 0 14 14 11 33 0 4 4 7 9 7 6 0 10 5 10 10 0 7 -7 7 -21 -1 -25 -13 -43
0 -33 25 5 13 9 14 20 5 12 -10 13 -9 8 5 -3 9 -13 16 -21 16 -9 0 -13 6 -10
15 5 11 1 12 -18 5 -16 -6 -25 -5 -28 3 -2 8 -11 6 -30 -6 -34 -22 -40 -21
-32 3 4 11 2 20 -4 20 -6 0 -11 -5 -11 -11z"/>
<path d="M3551 4528 c-1 -35 -7 -54 -23 -70 -13 -13 -22 -26 -21 -29 3 -10
-32 -6 -40 5 -11 16 3 -41 25 -102 11 -29 31 -65 44 -82 14 -16 29 -48 34 -72
11 -51 2 269 -10 347 l-7 50 -2 -47z"/>
</g>
</svg>
