<?xml version="1.0" standalone="no"?>
<!DOCTYPE svg PUBLIC "-//W3C//DTD SVG 20010904//EN"
 "http://www.w3.org/TR/2001/REC-SVG-20010904/DTD/svg10.dtd">
<svg version="1.0" xmlns="http://www.w3.org/2000/svg"
 width="564.000000pt" height="1003.000000pt" viewBox="0 0 564.000000 1003.000000"
 preserveAspectRatio="xMidYMid meet">
<metadata>
Created by potrace 1.15, written by Peter Selinger 2001-2017
</metadata>
<g transform="translate(0.000000,1003.000000) scale(0.100000,-0.100000)"
fill="#000000" stroke="none">
<path d="M0 5015 l0 -5015 2820 0 2820 0 0 5015 0 5015 -2820 0 -2820 0 0
-5015z m2449 1986 c11 -6 29 -11 41 -11 20 0 86 -32 180 -88 25 -14 101 -80
170 -147 69 -66 139 -130 155 -141 45 -32 152 -74 220 -88 33 -7 70 -18 82
-24 12 -7 43 -12 68 -12 25 0 56 -5 68 -12 12 -6 46 -12 77 -14 61 -3 166 -26
197 -42 11 -6 42 -16 69 -22 27 -6 56 -18 66 -26 9 -9 30 -23 46 -32 68 -38
212 -175 212 -201 0 -4 11 -21 25 -37 14 -16 25 -36 25 -45 0 -9 12 -34 26
-55 36 -52 54 -131 55 -228 0 -154 -33 -261 -111 -358 -22 -28 -40 -54 -40
-59 0 -13 -102 -77 -135 -85 -16 -4 -48 -17 -71 -30 -22 -13 -50 -24 -62 -24
-12 0 -39 -9 -61 -21 -22 -11 -45 -18 -50 -14 -6 3 -24 -1 -40 -10 -17 -8 -45
-15 -63 -15 -18 -1 -44 -7 -58 -15 -14 -8 -47 -14 -73 -15 -26 0 -62 -7 -79
-16 -25 -13 -35 -13 -60 -3 -22 9 -43 9 -81 2 -102 -21 -249 -8 -309 27 -10 6
-42 10 -72 10 -48 0 -57 4 -79 29 -13 16 -48 39 -77 52 -43 19 -56 30 -71 64
-10 22 -32 54 -50 69 -29 26 -31 32 -25 74 3 25 11 51 17 58 15 18 4 44 -17
44 -27 0 -96 -76 -92 -102 2 -13 10 -23 18 -23 9 0 20 -17 28 -41 8 -25 23
-46 37 -54 25 -14 48 -42 75 -95 9 -19 28 -34 50 -41 19 -6 53 -27 75 -46 35
-31 48 -36 106 -40 46 -3 74 -10 96 -26 22 -16 41 -21 60 -17 15 3 46 7 68 10
l40 6 -35 -17 c-45 -21 -63 -28 -131 -48 -86 -25 -156 -106 -158 -183 -1 -18
-7 -23 -28 -24 -16 0 -96 -2 -180 -4 l-151 -3 -7 37 c-12 72 -36 129 -71 169
-39 46 -154 112 -194 112 -15 0 -35 7 -46 15 -10 8 -32 15 -49 15 -75 1 -89
18 -59 75 43 82 59 181 55 344 -2 94 -7 125 -27 174 -13 33 -24 67 -24 74 0
13 -70 189 -89 222 -15 28 -31 24 -31 -8 0 -41 26 -151 49 -204 11 -25 17 -54
14 -66 -3 -11 2 -41 11 -68 12 -36 14 -57 6 -83 -6 -22 -6 -47 0 -69 16 -62
15 -107 -4 -136 -10 -15 -19 -48 -20 -73 -3 -58 -37 -137 -76 -177 -17 -16
-41 -41 -54 -55 -55 -58 -123 -87 -217 -94 -26 -2 -51 -6 -57 -10 -13 -8 -108
23 -143 45 -13 9 -45 26 -71 38 -44 21 -148 125 -148 148 0 6 -9 18 -20 28
-11 10 -20 23 -20 29 0 7 -9 30 -21 51 -37 72 -78 247 -78 335 0 30 0 71 -1
90 -3 90 1 137 15 164 8 15 15 44 15 63 0 20 10 51 21 70 12 20 26 56 31 81 4
26 19 63 33 84 14 21 25 51 25 67 0 16 11 42 24 58 13 15 28 44 35 64 6 20 21
45 32 55 12 11 28 32 36 49 9 16 33 49 54 72 22 24 39 49 39 56 0 7 12 24 26
38 14 13 32 35 39 50 14 25 139 125 185 147 14 7 32 16 40 21 8 5 26 14 40 20
14 6 32 15 40 20 80 49 223 91 262 76 8 -3 25 -2 39 3 32 12 343 6 368 -7z
m1981 -1332 c37 -41 72 -132 64 -167 -12 -50 -96 -122 -141 -122 -13 0 -2 15
36 50 52 49 53 51 48 96 -3 34 -13 54 -38 80 -18 19 -41 36 -51 40 -11 3 -18
15 -18 30 0 21 5 24 36 24 27 0 42 -7 64 -31z m-1621 -978 c15 -10 72 -96 92
-141 23 -50 72 -146 105 -208 l34 -63 -20 -29 c-12 -16 -35 -39 -52 -51 -30
-22 -88 -128 -88 -162 0 -10 -5 -27 -11 -38 -26 -49 -43 -228 -28 -299 4 -19
13 -75 20 -125 7 -49 16 -98 21 -108 5 -9 10 -33 12 -52 l2 -35 -48 0 c-71 0
-140 21 -132 40 27 65 34 112 30 206 -2 56 -9 111 -16 124 -6 12 -10 34 -7 48
3 14 -1 44 -9 66 -54 165 -94 300 -94 316 0 30 -18 33 -36 5 -15 -23 -16 -34
-5 -98 7 -40 17 -85 23 -102 6 -16 14 -55 18 -87 4 -31 11 -61 15 -68 8 -13
23 -139 29 -239 5 -83 -13 -130 -72 -181 -65 -57 -95 -51 -108 21 -11 67 -15
79 -24 79 -5 0 -16 -13 -24 -28 -12 -23 -13 -37 -4 -70 14 -56 -1 -76 -54 -69
-67 9 -124 70 -87 93 18 11 40 74 34 95 -9 28 -30 23 -62 -16 -26 -32 -30 -34
-53 -22 -31 16 -79 85 -80 115 0 24 33 97 48 106 5 3 23 1 41 -4 23 -6 35 -5
46 6 18 19 19 26 1 94 -8 30 -12 59 -9 63 3 5 7 37 9 71 4 89 18 178 32 203 7
12 12 30 12 40 0 10 13 43 30 73 16 30 29 68 30 83 0 15 9 45 20 67 13 25 20
59 20 94 0 30 5 58 10 61 6 3 10 25 10 48 0 23 4 47 8 53 4 7 49 12 112 14 58
1 128 3 157 4 28 0 55 4 59 9 10 9 26 9 43 -2z m901 -463 c54 -33 109 -89 131
-132 23 -49 24 -46 -3 -46 -31 -1 -99 -33 -118 -55 -14 -17 -13 -18 15 -11
102 26 185 13 185 -28 0 -11 11 -41 25 -65 14 -23 25 -44 25 -46 0 -1 -29 -5
-64 -7 -60 -4 -106 -25 -106 -48 0 -4 37 -7 82 -6 80 1 82 1 99 -29 10 -17 20
-46 23 -65 2 -19 11 -75 20 -124 18 -98 22 -330 7 -386 -29 -107 -39 -138 -52
-159 -22 -37 -81 -61 -146 -61 -89 0 -103 7 -103 46 0 18 4 43 9 57 26 68 6
323 -39 502 -24 98 -61 212 -74 231 -7 10 -20 40 -30 65 -9 26 -26 55 -36 64
-11 10 -20 26 -20 35 0 10 -10 32 -23 51 -35 51 -39 68 -22 92 8 12 15 28 15
37 0 33 94 104 143 107 12 1 37 -8 57 -19z m-463 -22 c44 -15 99 -61 135 -114
l31 -45 -33 5 c-65 10 -190 -30 -190 -60 0 -13 65 -12 175 4 68 9 89 -6 119
-83 14 -38 26 -71 26 -75 0 -4 -19 -5 -42 -3 -51 6 -142 -23 -146 -45 -2 -13
14 -15 97 -15 87 0 103 -3 120 -20 22 -22 77 -205 110 -364 25 -117 28 -326 7
-406 -11 -40 -21 -56 -55 -80 l-42 -30 -192 0 c-248 0 -657 14 -670 22 -12 7
-144 21 -262 28 -131 8 -155 17 -155 62 0 13 -11 46 -25 73 -18 36 -33 52 -59
61 -31 11 -34 16 -39 63 -2 28 0 74 5 101 5 28 12 69 15 93 6 52 19 50 50 -7
28 -54 45 -67 110 -86 79 -24 200 -9 273 35 44 26 58 30 73 21 10 -7 22 -9 27
-6 5 3 23 -1 41 -10 17 -9 45 -15 62 -14 19 2 57 -8 91 -24 56 -26 59 -26 87
-10 35 21 36 41 10 120 -48 140 -72 497 -41 583 7 19 15 40 17 45 2 6 14 28
28 50 13 22 28 49 33 60 14 28 62 72 92 83 26 10 63 6 117 -12z m-1304 -1092
c47 -8 53 -18 26 -45 -17 -17 -20 -28 -14 -57 3 -21 15 -49 26 -64 10 -15 19
-30 19 -34 0 -4 -37 -4 -82 0 -46 4 -132 11 -193 16 -118 10 -219 34 -213 52
4 12 117 74 218 119 67 29 102 32 213 13z"/>
<path d="M1547 6243 c-16 -15 -5 -54 26 -95 39 -52 61 -98 46 -98 -5 0 -12 6
-15 13 -3 8 -43 48 -90 91 -110 101 -127 98 -77 -16 20 -46 45 -95 55 -110 20
-29 23 -44 10 -52 -5 -3 -23 15 -41 40 -18 26 -45 51 -62 57 -22 9 -29 18 -29
38 0 40 -22 54 -57 36 -41 -21 -58 -44 -88 -116 -14 -35 -33 -74 -41 -86 -20
-31 -37 -125 -39 -225 -2 -47 -8 -98 -14 -113 -14 -36 -7 -67 34 -142 18 -33
44 -99 59 -146 30 -98 44 -115 156 -182 80 -48 174 -73 227 -62 46 11 91 37
102 62 6 12 23 25 38 29 52 12 113 91 113 146 0 13 9 41 20 63 28 54 27 137
-1 176 -20 28 -20 34 -8 94 10 50 10 70 1 90 -7 14 -12 35 -12 47 0 12 -11 40
-24 62 -13 23 -26 58 -30 78 -8 44 -115 187 -234 314 -15 16 -16 16 -25 7z"/>
<path d="M2907 6236 c-10 -10 -17 -47 -22 -110 -8 -116 -3 -136 35 -136 26 0
31 5 41 42 22 83 27 142 15 178 -12 39 -44 51 -69 26z"/>
</g>
</svg>
