<?xml version="1.0" standalone="no"?>
<!DOCTYPE svg PUBLIC "-//W3C//DTD SVG 20010904//EN"
 "http://www.w3.org/TR/2001/REC-SVG-20010904/DTD/svg10.dtd">
<svg version="1.0" xmlns="http://www.w3.org/2000/svg"
 width="300.000000pt" height="300.000000pt" viewBox="0 0 300.000000 300.000000"
 preserveAspectRatio="xMidYMid meet">
<metadata>
Created by potrace 1.15, written by Peter Selinger 2001-2017
</metadata>
<g transform="translate(0.000000,300.000000) scale(0.100000,-0.100000)"
fill="#000000" stroke="none">
<path d="M1065 2021 c-41 -10 -74 -29 -112 -62 -17 -15 -45 -30 -62 -34 -23
-5 -31 -12 -31 -28 0 -12 -4 -28 -8 -35 -9 -13 -269 -112 -295 -112 -7 0 -17
-4 -23 -9 -5 -5 -27 -14 -49 -21 -65 -20 -168 -78 -207 -116 -65 -63 -99 -137
-113 -246 -5 -41 -9 -47 -34 -53 -54 -12 -101 -86 -87 -138 19 -79 113 -103
172 -46 l32 31 59 -27 c62 -30 88 -38 198 -62 56 -12 114 -13 290 -8 121 3
245 8 275 11 55 6 55 5 104 -40 65 -62 104 -63 207 -3 l73 42 156 -1 c85 -1
182 -7 214 -13 101 -19 334 -14 406 8 45 14 69 17 93 10 18 -5 63 -9 101 -9
62 0 75 4 117 33 47 32 59 50 59 95 0 31 11 27 42 -16 14 -21 47 -48 73 -61
41 -20 57 -23 114 -18 58 6 69 10 93 38 31 36 44 99 33 156 -5 29 -23 53 -76
104 -58 57 -69 73 -75 110 -10 66 -52 135 -118 195 -57 52 -88 65 -101 44 -11
-18 -24 -11 -41 23 -9 17 -34 49 -55 70 -22 21 -39 42 -39 46 0 5 46 11 103
15 71 5 115 13 145 27 23 12 42 24 42 28 0 9 -69 44 -125 62 -25 9 -84 14
-155 14 -131 -1 -172 -11 -316 -81 -122 -60 -190 -122 -237 -216 -20 -40 -37
-79 -37 -85 0 -24 -64 -147 -93 -179 -33 -37 -130 -75 -146 -58 -5 5 -15 47
-21 94 -25 184 -186 429 -325 495 -60 28 -165 41 -220 26z m217 -59 c79 -39
132 -103 197 -236 73 -149 91 -212 91 -313 0 -85 -14 -132 -67 -223 -40 -69
-58 -88 -122 -129 -66 -43 -139 -47 -174 -10 -31 32 -47 73 -47 117 0 65 35
212 71 297 47 112 70 177 66 182 -8 7 -67 -87 -102 -161 -42 -90 -65 -187 -68
-284 l-2 -87 -120 -11 c-373 -36 -566 -25 -689 38 -37 18 -86 81 -97 122 -16
58 -5 167 23 222 50 101 201 210 338 244 25 6 70 17 100 24 113 27 149 46 239
125 105 93 148 112 241 109 54 -2 88 -10 122 -26z m1078 -67 c42 -21 104 -86
129 -136 11 -20 25 -46 30 -56 14 -24 47 -103 55 -130 15 -49 26 -21 20 51 -8
89 2 99 54 60 97 -73 124 -117 130 -211 l5 -72 48 -16 c60 -20 70 -33 29 -41
-45 -9 -31 -29 20 -29 42 0 44 -2 51 -34 10 -48 2 -61 -36 -61 -18 0 -38 -6
-44 -14 -16 -19 1 -29 34 -20 18 4 25 2 25 -8 0 -29 -24 -38 -107 -38 l-83 0
-45 58 c-25 31 -48 67 -51 80 -4 13 -11 21 -16 20 -13 -5 -34 -60 -43 -112
-13 -81 -82 -106 -189 -70 -41 14 -47 19 -41 38 4 11 9 50 12 86 5 60 2 71
-26 124 -17 31 -41 67 -52 79 -36 37 -89 125 -95 157 -4 16 -10 30 -15 30 -10
0 -13 -18 -10 -75 l2 -40 -52 -12 c-29 -7 -61 -21 -72 -30 -32 -29 -59 -102
-55 -153 l3 -45 -127 0 c-129 0 -154 -8 -107 -33 18 -10 50 -11 124 -6 55 3
121 6 148 5 26 -1 47 0 47 2 0 2 -9 14 -20 27 -28 32 -25 43 10 35 26 -6 30
-4 30 14 0 12 -3 21 -7 21 -5 0 -18 16 -31 34 -19 28 -21 38 -12 55 13 25 52
28 70 6 20 -24 52 -19 48 8 -3 19 1 22 27 19 81 -9 145 -100 145 -207 0 -90
-36 -140 -124 -169 -58 -19 -230 -22 -334 -5 -37 5 -121 13 -187 17 l-120 7 3
35 c2 19 15 61 28 92 13 32 24 73 24 93 0 30 3 35 23 35 23 0 107 35 117 49 8
11 76 41 93 41 8 0 35 24 58 53 24 28 47 54 50 57 3 3 21 32 40 64 26 47 34
75 38 130 l6 71 55 37 c30 20 71 41 90 47 48 14 140 7 180 -14z"/>
<path d="M1364 1673 c-23 -24 -106 -201 -134 -288 -12 -38 -26 -80 -31 -93 -5
-13 -9 -49 -9 -80 0 -66 25 -117 66 -132 89 -34 172 17 244 150 45 85 45 85
45 185 0 100 -3 114 -52 226 -12 29 -21 36 -42 35 -14 0 -36 3 -47 7 -15 5
-27 2 -40 -10z"/>
</g>
</svg>
