<?xml version="1.0" standalone="no"?>
<!DOCTYPE svg PUBLIC "-//W3C//DTD SVG 20010904//EN"
 "http://www.w3.org/TR/2001/REC-SVG-20010904/DTD/svg10.dtd">
<svg version="1.0" xmlns="http://www.w3.org/2000/svg"
 width="400.000000pt" height="300.000000pt" viewBox="0 0 400.000000 300.000000"
 preserveAspectRatio="xMidYMid meet">
<metadata>
Created by potrace 1.15, written by Peter Selinger 2001-2017
</metadata>
<g transform="translate(0.000000,300.000000) scale(0.100000,-0.100000)"
fill="#000000" stroke="none">
<path d="M1038 1224 c-5 -4 -8 -70 -8 -146 l0 -139 38 3 c35 3 37 5 40 41 3
35 5 37 40 37 110 0 169 99 103 172 -28 32 -32 33 -118 36 -48 2 -91 0 -95 -4z"/>
<path d="M1350 1085 l0 -145 120 0 120 0 0 30 0 29 -77 3 c-72 3 -78 5 -81 26
-3 21 0 22 62 22 l66 0 0 30 c0 29 -1 29 -62 32 -57 3 -63 5 -66 26 -3 21 0
22 61 22 84 0 97 5 97 41 l0 29 -120 0 -120 0 0 -145z"/>
<path d="M1708 1159 l51 -71 -50 -74 -50 -74 46 0 c41 0 47 3 72 41 30 46 24
47 73 -21 12 -17 23 -21 58 -18 l42 3 -46 68 c-25 38 -43 75 -40 83 3 8 24 41
46 74 l41 60 -41 0 c-40 0 -50 -7 -88 -58 l-18 -24 -24 39 c-23 34 -30 38 -74
41 l-48 3 50 -72z"/>
<path d="M2020 1085 l0 -145 120 0 120 0 0 30 0 29 -77 3 c-72 3 -78 5 -81 26
-3 21 0 22 62 22 l66 0 0 30 c0 29 -1 29 -62 32 -56 3 -63 5 -66 25 -3 21 1
22 75 25 l78 3 3 33 3 32 -120 0 -121 0 0 -145z"/>
<path d="M2379 1211 c-60 -47 -45 -120 30 -147 83 -29 91 -33 91 -49 0 -19
-49 -20 -96 -3 -29 10 -36 9 -54 -7 -27 -24 -26 -29 15 -48 76 -36 160 -31
200 13 10 11 17 35 17 56 0 47 -23 68 -98 90 -61 17 -70 26 -49 44 12 10 24
10 61 0 44 -13 47 -12 64 11 18 23 18 24 -3 38 -12 9 -51 17 -87 19 -54 3 -69
0 -91 -17z"/>
<path d="M2719 1207 c-20 -14 -41 -40 -53 -69 -26 -62 -16 -110 33 -159 61
-62 151 -65 216 -8 80 71 67 196 -25 244 -45 23 -131 19 -171 -8z m142 -66
c34 -27 32 -86 -5 -117 -15 -13 -36 -24 -46 -24 -10 0 -31 11 -46 24 -56 47
-26 136 46 136 15 0 38 -8 51 -19z"/>
<path d="M1872 557 l-62 -63 63 -62 63 -62 62 63 62 63 -63 62 -63 62 -62 -63z"/>
<path d="M2040 595 l-24 -25 32 -33 c18 -18 32 -37 32 -42 0 -5 -14 -24 -32
-42 l-32 -33 25 -25 25 -25 62 63 62 63 -63 62 -63 63 -24 -26z"/>
</g>
</svg>
