<?xml version="1.0" standalone="no"?>
<!DOCTYPE svg PUBLIC "-//W3C//DTD SVG 20010904//EN"
 "http://www.w3.org/TR/2001/REC-SVG-20010904/DTD/svg10.dtd">
<svg version="1.0" xmlns="http://www.w3.org/2000/svg"
 width="564.000000pt" height="1003.000000pt" viewBox="0 0 564.000000 1003.000000"
 preserveAspectRatio="xMidYMid meet">
<metadata>
Created by potrace 1.15, written by Peter Selinger 2001-2017
</metadata>
<g transform="translate(0.000000,1003.000000) scale(0.100000,-0.100000)"
fill="#000000" stroke="none">
<path d="M2875 6234 c-56 -12 -144 -38 -172 -52 -39 -20 -54 -50 -60 -128 l-5
-60 51 -62 c28 -33 51 -64 51 -66 0 -3 -27 -19 -60 -35 -50 -23 -75 -28 -148
-30 -83 -2 -194 -22 -237 -44 -50 -25 -104 -63 -105 -74 0 -6 -11 -24 -24 -40
-35 -42 -62 -130 -65 -210 -2 -75 6 -103 43 -139 12 -11 36 -39 55 -62 29 -35
68 -58 116 -68 6 -1 44 -14 86 -28 42 -14 109 -30 149 -36 40 -6 77 -13 82
-16 5 -3 24 -8 41 -10 50 -7 121 -26 134 -37 10 -7 8 -15 -7 -34 -11 -14 -20
-33 -20 -43 0 -10 -14 -33 -31 -51 -17 -19 -39 -53 -49 -76 -22 -48 -49 -68
-105 -77 -37 -5 -43 -3 -68 29 -28 35 -93 75 -122 75 -9 0 -15 9 -15 24 0 38
-27 59 -69 52 -20 -3 -88 -11 -151 -17 -63 -7 -121 -17 -129 -23 -10 -8 -12
-25 -7 -66 14 -137 15 -139 66 -191 41 -41 58 -52 104 -61 45 -10 63 -9 93 1
33 12 38 12 50 -5 8 -11 17 -19 22 -19 4 0 15 -8 25 -17 16 -17 38 -15 64 5 8
7 18 5 30 -7 10 -9 24 -16 30 -16 15 0 15 -3 -2 -44 -8 -18 -13 -48 -11 -67 2
-19 3 -44 4 -57 1 -14 10 -26 24 -31 13 -5 29 -17 37 -26 8 -9 33 -26 56 -37
41 -19 42 -21 49 -78 6 -54 10 -61 41 -79 35 -21 43 -48 22 -69 -7 -7 -39 -12
-71 -12 -48 0 -70 -6 -114 -31 -60 -35 -81 -61 -90 -112 -4 -27 -1 -39 15 -55
45 -45 127 -51 332 -26 69 9 141 15 160 15 19 -1 60 -2 90 -3 81 -3 110 18
159 116 57 115 61 130 66 224 4 58 1 100 -10 135 -10 33 -12 53 -5 55 5 2 10
11 10 21 0 9 20 31 45 49 25 17 45 36 45 42 0 6 -12 22 -26 35 l-25 23 51 63
c27 35 49 67 47 72 -1 5 -25 17 -53 27 -80 28 -101 47 -138 124 -39 81 -75
122 -124 143 -51 21 -52 35 -9 109 37 64 82 78 143 45 52 -28 127 -28 179 0
22 12 48 22 57 23 21 1 78 76 119 157 40 78 50 156 24 195 -9 14 -19 41 -21
59 -5 44 -32 105 -56 132 -17 19 -19 25 -8 38 7 8 18 15 25 15 8 0 23 16 35
35 18 30 20 39 10 75 -13 50 -80 116 -132 132 -21 6 -36 14 -33 16 3 3 -5 16
-17 29 -20 21 -23 22 -45 8 -23 -15 -26 -14 -81 32 -31 26 -68 58 -82 71 -95
88 -244 144 -335 126z m39 -308 c-5 -13 33 -26 79 -26 12 0 60 -25 108 -55 48
-30 129 -74 180 -96 52 -23 99 -46 105 -50 6 -5 32 -12 58 -15 31 -5 49 -13
53 -23 2 -9 8 -23 13 -31 19 -31 38 -76 44 -102 3 -15 13 -33 21 -41 22 -23
24 -136 2 -167 -9 -13 -17 -31 -17 -39 0 -8 -12 -34 -27 -57 -35 -55 -139
-114 -201 -114 -92 0 -130 49 -133 173 l-2 76 57 92 c32 50 55 93 52 96 -14
14 -38 -13 -82 -94 l-49 -88 -2 -107 c0 -59 -4 -112 -8 -117 -3 -6 -15 -11
-26 -11 -12 0 -32 -18 -52 -46 -17 -26 -37 -53 -43 -62 -10 -14 -15 -14 -45 0
-50 24 -80 29 -113 20 -25 -7 -34 -4 -55 19 -21 22 -49 32 -146 54 -66 15
-154 35 -195 46 -241 59 -223 50 -299 152 -46 61 -51 72 -52 125 -1 64 30 162
65 200 67 74 191 118 384 136 72 7 186 64 242 120 43 43 96 64 84 32z m-563
-1052 c8 -42 17 -54 39 -54 17 0 40 -26 40 -45 0 -3 -12 -4 -27 -3 -25 3 -28
0 -28 -27 0 -18 -14 -50 -33 -77 -32 -46 -35 -48 -83 -48 -61 0 -94 16 -142
69 -35 38 -44 68 -50 156 -2 30 -1 30 53 32 30 1 87 9 125 17 91 18 98 17 106
-20z m783 -324 c23 -22 14 -65 -12 -55 -28 11 -34 11 -39 -1 -2 -6 5 -15 16
-20 18 -8 19 -12 8 -34 -16 -32 -57 -40 -57 -11 0 13 -6 21 -16 21 -16 0 -16
-11 1 -52 6 -15 2 -18 -23 -18 -35 0 -58 30 -57 75 3 81 3 82 53 103 53 23 96
20 126 -8z m-219 -20 c3 -4 2 -15 -1 -23 -5 -13 -33 -15 -175 -15 -93 1 -169
5 -169 9 0 38 8 40 176 38 90 0 166 -4 169 -9z m-1 -121 c2 -2 6 -16 10 -30 7
-33 0 -35 -145 -45 -127 -8 -254 9 -245 33 3 8 6 21 6 28 0 9 14 15 38 17 52
4 332 2 336 -3z m297 -87 c49 -41 64 -174 28 -261 -24 -57 -35 -63 -49 -27 -9
26 -28 42 -37 32 -3 -3 8 -22 25 -43 28 -35 29 -41 18 -68 -18 -42 -41 -58
-71 -51 -18 5 -27 15 -32 36 -3 17 -12 30 -19 30 -22 0 -16 -30 12 -68 22 -28
24 -36 13 -43 -22 -14 -62 -10 -87 9 -19 15 -23 29 -27 101 -3 59 0 97 10 128
23 67 4 80 -57 43 -46 -28 -150 -28 -195 0 -18 11 -33 25 -34 32 -3 61 -10 84
-29 100 -22 18 -21 18 51 18 41 1 112 7 159 14 47 7 88 11 93 9 4 -2 7 -12 7
-23 0 -36 76 -42 106 -9 19 22 73 59 85 59 4 0 17 -8 30 -18z m-255 -257 c-14
-21 -16 -40 -10 -109 8 -98 9 -96 -98 -116 -82 -15 -103 -9 -94 25 9 34 -10
32 -28 -4 -18 -34 -34 -41 -87 -41 -34 0 -39 3 -35 18 14 49 17 72 9 72 -6 0
-15 -18 -22 -40 -13 -44 -14 -45 -60 -29 -49 17 -37 63 33 118 33 26 47 31 96
31 77 0 120 16 120 44 0 33 19 46 70 46 25 1 59 7 75 14 39 17 53 4 31 -29z"/>
<path d="M3436 5593 c-3 -11 -20 -23 -38 -28 -26 -8 -44 -30 -99 -120 -59 -95
-69 -116 -69 -158 0 -77 39 -134 96 -139 66 -5 185 88 200 156 3 17 13 39 21
48 14 15 14 19 0 33 -12 12 -14 22 -7 40 6 17 5 27 -6 35 -7 7 -14 27 -14 46
0 20 -6 37 -16 42 -8 5 -21 19 -27 32 -15 30 -34 36 -41 13z"/>
<path d="M2449 5509 c-33 -12 -68 -74 -52 -90 18 -18 118 -15 148 5 30 20 31
35 4 70 -22 28 -53 32 -100 15z"/>
</g>
</svg>
