<?xml version="1.0" standalone="no"?>
<!DOCTYPE svg PUBLIC "-//W3C//DTD SVG 20010904//EN"
 "http://www.w3.org/TR/2001/REC-SVG-20010904/DTD/svg10.dtd">
<svg version="1.0" xmlns="http://www.w3.org/2000/svg"
 width="432.000000pt" height="850.000000pt" viewBox="0 0 432.000000 850.000000"
 preserveAspectRatio="xMidYMid meet">
<metadata>
Created by potrace 1.15, written by Peter Selinger 2001-2017
</metadata>
<g transform="translate(0.000000,850.000000) scale(0.100000,-0.100000)"
fill="#000000" stroke="none">
<path d="M2240 6059 c-41 -11 -82 -27 -91 -35 -17 -15 -39 -19 -39 -6 0 20
-67 45 -101 38 -19 -3 -39 -7 -46 -8 -7 -1 -10 -5 -7 -10 3 -4 -7 -23 -21 -42
-31 -40 -31 -81 -1 -81 13 0 28 16 44 48 28 52 53 61 92 29 l23 -18 -61 -65
c-45 -48 -81 -75 -136 -102 -83 -40 -201 -80 -291 -97 -223 -43 -305 -82 -411
-191 -151 -156 -198 -253 -198 -409 0 -171 59 -315 179 -436 69 -69 73 -71
185 -107 63 -20 144 -41 180 -48 36 -6 118 -34 182 -62 l117 -52 1 -43 c0 -85
52 -145 109 -127 22 7 46 67 37 92 -6 13 -4 14 9 3 42 -35 58 -109 30 -136
-14 -14 -20 -40 -16 -71 5 -40 -96 -55 -185 -28 -27 8 -103 20 -169 26 -66 6
-121 12 -123 14 -1 1 16 26 38 56 26 35 40 64 40 84 0 81 -104 150 -185 123
-21 -7 -43 -22 -49 -33 -6 -11 -12 -22 -13 -24 -1 -2 -14 6 -29 18 -32 25 -69
27 -123 5 -61 -24 -100 -120 -71 -174 8 -15 5 -22 -13 -37 -33 -25 -47 -55
-47 -98 0 -40 36 -85 68 -85 17 0 19 -7 18 -57 -1 -46 4 -65 22 -90 42 -59
140 -69 164 -18 17 37 67 49 172 42 50 -4 125 -12 168 -18 l76 -12 -28 -51
c-36 -64 -65 -168 -80 -290 -11 -88 -11 -98 10 -161 21 -64 50 -105 178 -260
37 -44 42 -56 42 -100 0 -27 -4 -57 -9 -65 -8 -11 -46 -16 -162 -22 -84 -4
-167 -10 -183 -14 -55 -12 -230 -100 -270 -135 -80 -70 -88 -169 -17 -215 34
-23 166 -38 346 -38 134 -1 154 -3 190 -22 107 -57 229 -67 615 -49 168 8 330
17 360 21 76 8 171 41 193 66 66 77 -60 223 -238 273 -142 40 -180 84 -180
207 0 75 1 78 36 115 32 34 90 117 103 146 3 7 14 0 28 -18 52 -69 73 -83 134
-91 32 -5 104 -8 159 -9 81 0 108 4 140 20 49 25 83 78 65 100 -7 9 -18 15
-24 14 -41 -5 -59 4 -88 46 -18 25 -42 48 -55 51 -12 3 -65 -3 -118 -15 -113
-25 -137 -26 -174 -6 -25 12 -29 21 -34 74 -3 43 -15 79 -42 128 -86 156 -86
156 -80 193 13 75 4 70 138 70 67 0 139 -3 160 -6 35 -6 37 -8 37 -46 0 -79
92 -127 178 -93 46 19 62 48 62 110 0 44 0 45 34 45 63 0 114 70 100 139 -5
22 0 31 21 45 24 16 27 22 21 58 -9 54 -41 114 -71 134 -18 12 -40 15 -79 12
l-54 -4 -11 37 c-6 20 -27 51 -46 68 -30 26 -44 31 -86 31 -57 0 -103 -20
-120 -52 -6 -12 -12 -44 -13 -71 l-1 -50 -124 -39 c-132 -41 -213 -55 -256
-44 l-27 7 27 21 c38 30 30 59 -22 78 -23 8 -45 18 -49 22 -16 17 8 119 39
165 42 61 106 95 246 132 62 17 124 37 138 46 14 9 26 15 27 13 1 -2 13 -23
25 -48 39 -77 94 -110 181 -110 62 0 132 41 200 117 132 147 153 347 71 668
-57 223 -140 423 -254 613 -89 149 -140 186 -344 253 -121 39 -136 41 -273 45
-124 3 -156 1 -220 -17z m354 -34 c131 -27 271 -97 363 -180 168 -153 355
-631 370 -950 8 -161 -23 -266 -105 -357 -120 -133 -240 -131 -302 5 -44 98
-60 174 -60 290 0 144 12 197 70 312 54 108 57 115 38 115 -17 0 -85 -106
-114 -178 -40 -99 -48 -183 -35 -344 14 -182 34 -160 -213 -230 -43 -12 -104
-38 -136 -59 -67 -43 -92 -86 -117 -201 l-16 -78 -106 6 c-58 3 -111 7 -117 9
-6 2 -14 25 -18 52 -8 62 -44 131 -76 149 -14 7 -65 30 -115 51 -103 42 -124
55 -69 42 69 -16 255 -22 339 -10 53 7 102 22 145 44 62 30 67 36 103 107 46
92 59 138 47 159 -9 17 -24 -12 -65 -124 -34 -93 -95 -127 -268 -147 -228 -27
-426 32 -611 181 -70 57 -65 -14 5 -73 l32 -27 -54 6 c-137 16 -236 62 -306
139 -95 106 -144 229 -144 361 0 141 42 233 172 372 103 110 164 143 326 178
131 28 277 74 368 115 47 21 81 49 156 127 101 105 118 118 184 139 56 18 241
17 329 -1z m-1066 -1687 c19 -22 42 -68 42 -88 0 -5 -18 -30 -41 -56 -29 -33
-39 -54 -37 -73 3 -26 5 -26 138 -42 74 -9 157 -24 184 -33 27 -9 78 -16 114
-16 60 0 66 2 100 36 l35 35 144 -9 c134 -9 146 -11 171 -35 33 -31 108 -57
163 -57 53 0 135 22 250 65 l91 35 49 -17 c37 -13 51 -15 60 -6 19 19 3 41
-39 53 -41 10 -52 24 -52 64 0 52 62 88 126 72 30 -8 63 -73 64 -123 0 -43 11
-47 60 -22 34 18 45 19 69 10 28 -12 71 -75 71 -104 0 -17 -21 -27 -56 -27
-29 0 -64 -16 -64 -30 0 -4 17 -17 38 -27 43 -21 53 -54 26 -84 -22 -25 -65
-24 -97 1 -29 23 -57 26 -57 6 0 -8 9 -33 20 -57 25 -55 25 -81 1 -110 -14
-18 -29 -24 -59 -24 -56 0 -84 27 -80 78 2 29 -2 41 -16 49 -30 17 -329 23
-366 8 -27 -11 -30 -17 -32 -59 -5 -117 -2 -127 71 -235 45 -67 46 -70 45
-145 0 -92 -27 -158 -98 -240 -64 -73 -76 -100 -76 -169 0 -97 36 -173 103
-216 12 -8 73 -33 136 -55 137 -49 158 -62 177 -106 29 -70 11 -90 -106 -116
-54 -12 -328 -27 -535 -30 -140 -1 -150 0 -153 18 -2 10 11 38 28 61 33 45 32
69 0 52 -23 -12 -70 -89 -70 -113 0 -14 -10 -17 -54 -17 -29 0 -68 3 -85 6
-29 6 -31 10 -31 47 0 35 6 46 45 83 50 48 44 67 -11 33 -43 -26 -74 -73 -74
-111 0 -33 -8 -34 -60 -8 -107 54 -137 115 -81 163 33 28 86 39 294 66 163 20
181 28 196 90 14 54 24 211 14 211 -24 0 -33 -29 -33 -110 0 -47 -4 -90 -8
-97 -18 -29 -136 -56 -316 -73 -88 -8 -118 -15 -153 -36 -66 -38 -82 -83 -57
-166 5 -16 -4 -18 -95 -18 -55 0 -112 5 -126 10 -31 12 -29 30 16 103 51 85
30 105 -29 28 -17 -24 -37 -63 -43 -87 -13 -49 -10 -48 -60 -34 -54 15 -71 38
-58 82 13 47 55 82 154 128 106 49 154 60 315 70 201 12 218 23 206 124 -8 60
-28 95 -118 207 -103 128 -122 168 -121 259 1 138 44 280 110 367 18 24 33 45
33 47 0 9 -127 46 -190 56 -87 13 -246 12 -290 -3 -24 -8 -36 -19 -38 -34 -5
-35 -63 -32 -91 3 -28 36 -26 80 6 126 19 29 23 42 15 50 -8 8 -15 8 -26 -2
-20 -16 -85 -5 -93 16 -12 31 7 60 61 93 31 18 53 37 50 42 -3 5 -18 16 -35
24 -38 20 -39 61 -3 104 48 58 114 28 144 -64 19 -57 42 -43 58 34 7 36 17 70
23 78 18 21 73 16 97 -9z m1520 -1084 c17 -20 42 -44 57 -54 24 -16 24 -18 9
-31 -13 -10 -46 -14 -126 -13 -173 3 -193 8 -228 60 l-31 44 68 1 c37 0 86 6
108 14 22 7 57 13 77 14 30 1 41 -5 66 -35z"/>
<path d="M3066 5287 c-8 -29 -27 -64 -42 -77 -37 -35 -52 -70 -80 -177 -41
-164 -28 -339 34 -461 37 -72 66 -90 124 -73 86 26 149 129 184 302 16 78 16
92 2 190 -12 81 -27 131 -64 219 -45 104 -74 146 -74 106 0 -13 -4 -12 -20 4
-32 32 -47 25 -64 -33z"/>
<path d="M1555 5200 c-85 -26 -103 -110 -31 -147 68 -36 196 -14 230 39 14 23
-2 66 -36 91 -31 23 -115 32 -163 17z"/>
</g>
</svg>
