<?xml version="1.0" standalone="no"?>
<!DOCTYPE svg PUBLIC "-//W3C//DTD SVG 20010904//EN"
 "http://www.w3.org/TR/2001/REC-SVG-20010904/DTD/svg10.dtd">
<svg version="1.0" xmlns="http://www.w3.org/2000/svg"
 width="564.000000pt" height="1002.000000pt" viewBox="0 0 564.000000 1002.000000"
 preserveAspectRatio="xMidYMid meet">
<metadata>
Created by potrace 1.15, written by Peter Selinger 2001-2017
</metadata>
<g transform="translate(0.000000,1002.000000) scale(0.100000,-0.100000)"
fill="#000000" stroke="none">
<path d="M2835 5971 c-15 -26 16 -41 84 -41 98 0 106 -13 25 -40 -157 -50
-253 -125 -370 -290 l-61 -86 -149 -44 c-204 -60 -289 -93 -383 -149 l-80 -48
-6 51 c-9 66 -40 130 -76 160 -16 14 -25 28 -19 31 16 10 12 145 -6 206 -22
76 -108 161 -182 178 -39 10 -59 10 -86 1 -63 -21 -116 -103 -116 -181 0 -14
14 -72 31 -128 35 -115 34 -141 -5 -116 -70 46 -207 57 -307 25 -99 -31 -129
-65 -129 -143 0 -86 101 -187 188 -187 34 0 35 -6 17 -67 -7 -23 16 -80 42
-105 39 -36 90 -48 150 -36 46 10 133 62 133 80 0 27 25 -3 64 -79 l46 -88
-16 -78 c-29 -142 -11 -295 46 -408 l20 -39 -34 -47 c-80 -114 -101 -269 -49
-364 32 -60 97 -115 166 -141 106 -40 252 4 342 105 55 60 51 62 112 -58 39
-76 110 -206 180 -327 46 -80 47 -92 10 -130 -40 -41 -146 -192 -178 -253 -71
-137 -73 -248 -8 -386 40 -84 72 -125 124 -158 49 -31 49 -37 6 -163 l-29 -83
-119 -1 c-181 -2 -351 -42 -443 -105 -56 -39 -109 -109 -132 -174 -20 -56 -23
-152 -7 -187 17 -39 72 -68 146 -79 152 -22 286 -13 763 56 108 16 203 51 214
81 5 13 9 13 31 -2 15 -9 70 -28 123 -42 78 -20 130 -25 271 -29 165 -5 310 7
336 27 6 4 26 10 46 14 43 8 111 64 129 105 40 96 -67 204 -267 269 -34 11
-120 28 -190 36 -214 27 -188 13 -212 117 -12 50 -21 92 -21 94 0 2 25 17 55
34 59 33 119 102 155 177 17 34 24 71 28 138 4 88 3 96 -43 233 -25 77 -61
170 -80 206 l-32 66 30 53 c52 92 138 199 262 327 66 68 127 134 135 146 9 13
45 43 80 66 36 24 96 74 135 111 69 67 84 72 85 24 0 -20 51 -116 103 -195 40
-60 81 -97 142 -128 42 -22 58 -25 111 -20 107 8 191 64 239 159 39 78 75 215
82 310 7 109 -20 238 -75 349 l-38 77 56 -5 c45 -3 62 0 94 19 49 29 78 80 74
131 -3 36 -3 37 32 38 49 1 64 8 115 58 58 56 73 106 50 167 -23 61 -48 88
-102 115 -42 21 -62 23 -165 23 -65 -1 -118 1 -118 3 0 3 22 25 49 49 28 25
68 72 90 106 35 52 41 68 41 114 0 94 -63 164 -147 164 -89 -1 -174 -70 -218
-176 -16 -38 -41 -88 -57 -112 -15 -24 -28 -50 -28 -58 0 -7 -4 -14 -8 -14
-17 0 -53 -43 -48 -56 3 -8 0 -14 -5 -14 -6 0 -28 -19 -48 -41 -32 -36 -40
-40 -57 -31 -11 6 -83 76 -161 156 -115 119 -142 153 -148 183 -14 74 -116
223 -205 299 -93 80 -174 115 -305 135 -46 7 -83 20 -108 37 -32 21 -53 26
-121 30 -57 3 -86 1 -91 -7z m227 -141 c2 -17 9 -25 23 -25 15 0 21 8 23 33 3
32 4 32 40 26 80 -13 170 -45 218 -76 85 -57 168 -150 215 -245 l44 -86 0
-176 0 -176 75 -110 c77 -114 80 -119 125 -220 40 -88 54 -243 32 -348 -25
-124 -77 -219 -167 -308 -65 -64 -176 -149 -196 -149 -3 0 -18 -9 -33 -19 -43
-31 -127 -50 -261 -60 -134 -10 -212 -29 -253 -61 -26 -21 -58 -100 -54 -135
2 -18 -4 -20 -58 -19 -66 1 -149 12 -181 25 -16 5 -23 19 -27 51 -9 68 -58
104 -328 238 -433 214 -579 340 -625 538 -21 90 -21 159 0 258 42 202 177 402
333 492 97 56 156 80 331 132 92 28 176 56 188 61 12 6 56 58 98 115 93 125
146 173 240 219 75 37 177 67 188 56 3 -3 8 -17 10 -31z m-1426 8 c54 -29 101
-91 114 -149 16 -74 10 -166 -10 -160 -39 12 -121 11 -161 0 -24 -7 -48 -13
-52 -14 -10 0 -45 93 -59 157 -15 66 -3 115 37 155 38 38 74 41 131 11z m2855
-258 c47 -26 64 -120 31 -175 -36 -58 -126 -146 -173 -171 -59 -29 -71 -30
-95 -3 -10 12 -31 28 -47 35 l-27 15 25 33 c14 18 37 62 51 97 38 93 60 126
107 154 44 26 95 32 128 15z m-2730 -116 c49 -29 76 -85 83 -172 l5 -73 -54
-67 c-30 -37 -72 -99 -92 -139 -21 -40 -41 -69 -45 -65 -10 11 -88 169 -88
180 0 5 18 12 41 16 77 12 172 81 181 131 6 36 -32 30 -65 -10 -54 -66 -152
-93 -217 -60 -128 66 -69 237 97 279 55 14 107 7 154 -20z m-375 -18 l42 -17
-20 -51 c-11 -29 -18 -69 -16 -92 l3 -40 -70 -19 c-114 -30 -203 -8 -251 62
-72 106 13 185 191 177 45 -2 98 -11 121 -20z m2840 -258 c57 -52 84 -105 91
-176 7 -59 -8 -82 -50 -82 -59 0 -147 130 -149 219 -2 91 37 105 108 39z
m-2783 1 c12 -12 34 -26 50 -31 33 -12 34 -34 5 -78 -61 -89 -202 -97 -240
-14 -16 35 7 104 36 104 12 1 44 9 71 20 28 10 51 19 53 19 2 1 13 -8 25 -20z
m3060 -33 c158 -2 197 -17 235 -84 30 -54 24 -85 -31 -141 -39 -41 -44 -43
-88 -39 -37 4 -58 15 -110 57 -35 28 -81 57 -101 63 -30 9 -38 17 -44 42 -3
17 -15 48 -26 70 -16 31 -17 40 -7 47 7 4 19 3 26 -3 7 -6 70 -11 146 -12z
m-34 -240 c76 -58 101 -126 63 -172 -38 -48 -104 -58 -152 -24 -69 49 -94 152
-45 184 14 9 28 28 31 41 8 33 30 27 103 -29z m-1914 -1128 c23 -27 26 -38 22
-84 -5 -54 -42 -146 -76 -189 -14 -19 -21 -22 -29 -12 -9 10 -66 114 -221 400
l-42 78 160 -81 c103 -52 169 -92 186 -112z m855 78 c0 -3 -28 -31 -61 -63
-77 -72 -190 -207 -248 -296 -25 -37 -47 -67 -50 -67 -8 0 -54 79 -67 115 -25
67 -26 75 -11 75 8 0 17 6 19 13 8 20 -2 37 -22 37 -10 0 -20 7 -24 15 -6 15
10 72 27 93 17 22 139 50 242 56 55 3 114 10 130 15 33 10 65 13 65 7z m-731
-221 c13 -4 71 -12 129 -19 l106 -12 12 -40 c13 -44 47 -115 74 -154 41 -59
111 -214 150 -335 38 -119 42 -137 38 -210 -7 -134 -72 -234 -186 -288 -57
-27 -62 -33 -52 -66 4 -14 16 -62 25 -106 10 -44 23 -88 29 -98 13 -22 58 -34
156 -42 130 -12 267 -42 335 -76 134 -66 185 -140 134 -196 -23 -24 -70 -53
-86 -53 -4 0 -8 21 -9 48 -2 92 -51 182 -100 182 -32 0 -30 -15 6 -56 34 -39
52 -96 48 -154 -3 -43 -5 -44 -75 -55 l-42 -7 -7 39 c-10 56 -39 117 -71 153
-33 37 -99 74 -119 66 -25 -9 -15 -35 20 -51 57 -27 107 -99 122 -174 l7 -34
-164 6 c-184 6 -328 37 -360 76 -18 22 -24 65 -39 286 -16 225 -18 212 34 219
44 7 76 30 62 44 -4 4 -53 7 -109 8 -56 0 -111 3 -122 5 -15 3 -20 -1 -20 -16
0 -15 12 -24 47 -35 l46 -15 7 -125 c4 -69 11 -168 17 -220 16 -161 15 -166
-54 -201 -45 -23 -88 -31 -303 -59 -88 -11 -175 -23 -194 -27 l-33 -6 4 74 c6
93 7 97 40 134 31 34 31 34 18 55 -12 20 -37 5 -67 -40 -31 -44 -43 -93 -43
-167 l0 -63 -57 -1 c-152 -3 -153 -3 -153 54 0 45 30 102 73 139 21 19 17 48
-7 48 -24 0 -84 -68 -102 -116 -11 -28 -15 -59 -11 -85 l5 -40 -41 6 c-68 10
-106 25 -117 45 -6 10 -10 45 -10 77 0 70 30 138 86 196 44 45 66 58 152 86
108 35 182 46 322 46 l135 0 37 105 c20 58 37 119 37 135 1 17 6 36 12 42 12
12 -14 43 -38 43 -49 0 -129 107 -164 218 -21 65 -22 79 -12 137 15 88 57 174
132 270 95 121 220 314 239 367 12 34 21 47 32 44 8 -3 26 -7 39 -11z"/>
<path d="M2811 5644 c-76 -38 -141 -92 -141 -117 0 -30 35 -23 74 15 52 49
118 80 186 86 57 5 76 17 58 39 -21 26 -101 15 -177 -23z"/>
<path d="M2817 5352 c-48 -50 -49 -136 -2 -148 36 -9 73 19 97 73 17 38 18 49
8 74 -17 40 -65 41 -103 1z"/>
<path d="M3041 5313 c-42 -52 -42 -124 0 -156 22 -15 30 -17 48 -8 26 14 49
57 57 109 5 32 2 44 -15 61 -29 29 -65 27 -90 -6z"/>
<path d="M2665 5152 c-99 -64 -134 -190 -82 -292 30 -61 72 -83 152 -82 145 3
325 117 325 207 0 49 -36 86 -134 135 -71 36 -96 44 -158 47 -60 4 -78 1 -103
-15z"/>
<path d="M2041 5009 c-32 -35 -46 -113 -46 -259 0 -112 4 -147 23 -209 42
-133 66 -175 145 -254 116 -115 291 -210 487 -263 95 -26 368 -26 465 -1 181
49 334 175 418 347 41 83 42 87 45 205 2 88 -2 143 -15 205 -18 83 -19 85 -47
85 -32 0 -31 1 -80 -106 -91 -196 -308 -321 -531 -304 -49 3 -121 8 -160 11
-132 9 -273 61 -392 142 -127 88 -183 166 -222 312 -17 65 -43 110 -62 110 -5
0 -17 -9 -28 -21z m1489 -404 c0 -55 -4 -116 -8 -135 l-8 -34 -34 49 c-18 28
-44 68 -56 89 l-22 39 28 36 c16 20 39 60 52 90 l23 54 13 -44 c8 -25 13 -87
12 -144z m-1299 42 l86 -83 -51 -127 c-28 -70 -55 -125 -61 -124 -5 2 -29 27
-52 55 -31 38 -50 77 -72 147 -17 52 -31 105 -31 117 0 19 71 96 90 98 3 0 44
-37 91 -83z m1202 -179 l56 -86 -30 -47 c-52 -82 -187 -211 -204 -194 -6 7
-145 276 -145 281 0 3 21 13 48 23 59 22 127 60 172 97 19 15 37 24 41 20 4
-4 32 -46 62 -94z m-1000 37 c35 -19 73 -35 83 -35 11 0 24 -4 30 -9 14 -15
122 -41 166 -41 l38 0 0 -180 c0 -150 -2 -180 -14 -180 -63 0 -268 72 -366
128 -68 39 -132 90 -121 96 5 3 25 45 44 93 53 132 67 163 72 163 2 0 33 -16
68 -35z m698 -236 c39 -73 74 -138 80 -145 27 -33 -234 -85 -353 -70 l-57 7
-3 132 c-2 73 -2 151 0 174 l3 41 131 -3 130 -3 69 -133z"/>
</g>
</svg>
