<?xml version="1.0" standalone="no"?>
<!DOCTYPE svg PUBLIC "-//W3C//DTD SVG 20010904//EN"
 "http://www.w3.org/TR/2001/REC-SVG-20010904/DTD/svg10.dtd">
<svg version="1.0" xmlns="http://www.w3.org/2000/svg"
 width="2000.000000pt" height="1996.000000pt" viewBox="0 0 2000.000000 1996.000000"
 preserveAspectRatio="xMidYMid meet">
<metadata>
Created by potrace 1.15, written by Peter Selinger 2001-2017
</metadata>
<g transform="translate(0.000000,1996.000000) scale(0.100000,-0.100000)"
fill="#000000" stroke="none">
<path d="M7032 9983 l3 -758 623 -3 622 -2 0 158 0 158 -314 12 c-414 16 -473
28 -495 94 -17 54 -17 106 1 124 24 24 136 33 417 33 l243 1 -4 124 c-3 88 -9
130 -19 142 -27 33 -78 44 -246 54 -247 14 -294 20 -339 40 -45 19 -61 50 -66
123 -4 76 33 86 312 87 343 0 454 23 492 100 14 27 18 61 18 153 l0 117 -625
0 -625 0 2 -757z"/>
<path d="M8640 10737 c0 -6 281 -412 344 -497 144 -194 176 -244 163 -262 -7
-10 -74 -109 -149 -220 -75 -112 -186 -276 -247 -366 -88 -129 -108 -164 -95
-169 27 -10 367 5 409 18 56 19 117 84 207 221 43 64 89 125 103 134 25 16 27
16 53 -3 15 -11 73 -82 128 -158 56 -77 115 -149 130 -162 56 -45 175 -52 415
-27 l56 6 -161 242 c-161 240 -271 438 -282 507 -4 21 -1 46 6 60 23 45 251
394 345 529 51 74 94 139 94 144 1 5 -77 7 -173 4 -171 -4 -174 -4 -239 -36
-77 -38 -123 -86 -256 -264 l-94 -126 -78 124 c-142 228 -187 264 -349 283
-112 13 -330 25 -330 18z"/>
<path d="M10520 9980 l0 -760 625 0 625 0 0 158 0 158 -307 12 c-422 17 -480
28 -502 95 -17 52 -16 106 2 124 22 23 140 32 420 32 l237 1 -1 103 c-3 207
10 200 -389 226 -227 16 -254 26 -275 107 -16 64 -4 99 38 114 43 15 222 27
510 36 159 5 240 11 243 18 6 19 31 320 27 329 -2 4 -285 7 -629 7 l-624 0 0
-760z"/>
<path d="M14530 10733 c-80 -8 -230 -47 -298 -79 -200 -92 -378 -364 -414
-636 -27 -203 43 -383 222 -571 236 -249 551 -333 857 -228 121 42 215 102
319 206 144 143 214 286 237 483 19 161 -22 340 -109 484 -49 80 -164 193
-245 241 -141 82 -360 121 -569 100z m211 -383 c134 -42 212 -108 258 -219 20
-48 23 -68 19 -156 -3 -90 -7 -109 -36 -167 -53 -108 -191 -225 -305 -260
-105 -32 -315 109 -390 261 -30 61 -32 73 -32 171 0 93 3 112 27 162 84 180
274 266 459 208z"/>
<path d="M5457 10720 c-27 -5 -51 -11 -53 -13 -6 -6 -22 -115 -29 -197 -3 -36
-8 -341 -11 -679 l-7 -613 94 7 c123 9 220 22 252 34 39 15 54 56 67 172 21
198 22 199 213 210 246 14 386 68 518 199 210 207 213 468 9 707 -96 112 -147
141 -295 163 -91 14 -695 22 -758 10z"/>
<path d="M12538 10717 c-115 -33 -246 -148 -302 -267 -28 -59 -31 -74 -31
-165 1 -114 16 -158 81 -237 83 -100 154 -139 414 -233 102 -37 206 -78 231
-91 82 -41 111 -102 70 -143 -63 -63 -257 -52 -496 26 -142 47 -190 36 -298
-73 -95 -94 -85 -122 74 -202 317 -161 682 -187 922 -65 64 32 143 93 174 136
43 58 68 160 67 277 0 141 -22 197 -105 274 -78 73 -182 122 -395 187 -328
100 -371 142 -247 236 53 40 135 38 314 -10 174 -47 216 -48 264 -5 20 17 57
60 81 94 60 84 58 105 -16 157 -104 72 -276 107 -560 113 -142 3 -208 0 -242
-9z"/>
<path d="M9751 7234 c-177 -179 -321 -329 -319 -334 2 -4 148 -151 326 -326
l323 -317 215 214 c119 118 265 266 325 330 l109 117 -329 321 -329 321 -321
-326z"/>
<path d="M10695 7508 c-26 -29 -82 -88 -123 -130 l-75 -77 120 -125 c149 -154
218 -246 209 -281 -9 -36 -82 -124 -215 -258 l-116 -117 133 -133 134 -132
323 330 323 329 -325 321 c-179 176 -329 321 -332 323 -4 1 -29 -21 -56 -50z"/>
</g>
</svg>
