<?xml version="1.0" standalone="no"?>
<!DOCTYPE svg PUBLIC "-//W3C//DTD SVG 20010904//EN"
 "http://www.w3.org/TR/2001/REC-SVG-20010904/DTD/svg10.dtd">
<svg version="1.0" xmlns="http://www.w3.org/2000/svg"
 width="550.000000pt" height="550.000000pt" viewBox="0 0 550.000000 550.000000"
 preserveAspectRatio="xMidYMid meet">
<metadata>
Created by potrace 1.15, written by Peter Selinger 2001-2017
</metadata>
<g transform="translate(0.000000,550.000000) scale(0.100000,-0.100000)"
fill="#000000" stroke="none">
<path d="M4433 4738 c-17 -7 -49 -34 -70 -60 -35 -43 -41 -58 -52 -137 -8 -49
-11 -100 -8 -113 31 -124 66 -220 86 -232 5 -3 18 -26 30 -51 24 -51 105 -180
118 -188 37 -23 280 86 417 186 156 115 209 248 146 371 -22 43 -34 53 -90 80
-54 25 -75 30 -130 28 -36 -2 -69 -7 -74 -12 -19 -19 -37 -10 -62 33 -15 23
-46 55 -71 71 -37 24 -57 29 -126 32 -52 3 -94 0 -114 -8z m141 -43 c60 -18
125 -70 151 -121 11 -22 21 -41 22 -43 2 -2 8 1 15 7 26 21 94 32 158 26 61
-6 68 -10 113 -54 50 -50 58 -80 35 -123 -7 -12 -11 -32 -9 -44 3 -28 -46
-100 -98 -145 -51 -44 -223 -130 -348 -174 -61 -22 -60 -22 -109 76 -16 30
-38 72 -51 92 -13 21 -23 43 -23 50 0 6 -8 21 -19 32 -31 35 -51 113 -51 203
0 69 4 92 24 131 14 27 32 55 42 63 13 11 67 33 94 38 3 0 27 -6 54 -14z"/>
<path d="M3520 4361 c-114 -48 -140 -71 -212 -185 -4 -6 -12 -31 -18 -54 l-11
-44 -82 7 c-86 7 -190 -12 -212 -39 -5 -7 -30 -27 -54 -44 -49 -35 -82 -80
-113 -149 -34 -78 -8 -235 49 -292 16 -15 59 -60 97 -99 38 -40 75 -72 81 -72
7 0 40 -14 74 -31 78 -39 243 -88 276 -81 14 2 55 -3 92 -11 98 -23 292 -43
302 -31 4 5 24 39 44 76 75 137 137 562 109 738 -23 147 -94 256 -195 300 -66
29 -172 34 -227 11z m198 -71 c32 -15 47 -29 61 -61 10 -22 29 -46 42 -53 32
-16 69 -126 76 -229 6 -90 -12 -212 -47 -313 -12 -33 -23 -75 -26 -94 -9 -64
-66 -232 -81 -237 -8 -3 -56 2 -106 11 -51 9 -129 22 -175 30 -45 8 -89 19
-97 26 -9 8 -31 11 -55 7 -56 -7 -183 42 -241 94 -15 13 -46 39 -70 58 -49 38
-104 124 -122 188 -9 35 -8 52 7 100 28 92 107 158 222 187 65 17 167 14 190
-5 17 -14 34 -3 34 23 0 43 61 149 116 201 30 28 62 56 72 62 14 8 71 17 142
23 8 1 34 -7 58 -18z"/>
<path d="M1505 3908 c-11 -6 -34 -27 -51 -47 l-31 -35 -124 -2 -124 -2 -116
-50 c-64 -28 -135 -62 -157 -76 -64 -40 -177 -180 -224 -276 -23 -47 -50 -94
-59 -105 -16 -18 -35 -95 -59 -230 -5 -27 -14 -70 -20 -95 -6 -25 -15 -70 -20
-100 -5 -30 -15 -79 -24 -108 -26 -95 -38 -225 -34 -368 3 -130 5 -142 32
-191 34 -62 206 -233 234 -233 11 0 31 -9 45 -20 14 -11 39 -20 56 -20 29 0
34 -5 61 -66 33 -73 174 -235 225 -259 17 -8 37 -19 45 -25 8 -5 27 -14 42
-20 19 -6 30 -20 37 -45 5 -20 28 -61 50 -90 39 -52 40 -53 20 -70 -36 -33
-17 -129 33 -169 l32 -24 -12 -79 c-6 -43 -19 -154 -27 -248 -8 -93 -18 -185
-21 -204 l-5 -34 -253 5 c-178 4 -258 2 -273 -6 -12 -6 -43 -31 -69 -55 -46
-42 -49 -43 -84 -32 -47 14 -204 15 -195 1 3 -5 20 -10 36 -10 16 0 46 -7 66
-15 19 -8 46 -15 59 -15 13 0 45 -7 71 -16 60 -20 52 -20 453 -38 509 -24 873
-36 1083 -36 l190 0 43 40 c43 40 44 40 124 40 49 0 95 -6 117 -15 39 -16 129
-19 208 -5 40 6 55 5 75 -8 20 -13 49 -16 152 -13 111 2 131 0 167 -18 47 -25
101 -28 101 -7 0 8 -14 17 -32 21 -18 4 -37 11 -43 15 -5 4 -26 10 -45 13 -19
2 -66 12 -105 20 -38 9 -92 18 -118 20 -27 3 -51 7 -53 10 -2 2 -7 42 -10 88
-4 50 -15 110 -29 149 -13 36 -32 97 -41 135 -9 39 -34 108 -56 155 -22 46
-54 118 -70 159 -17 41 -36 81 -44 88 -8 8 -14 19 -14 24 0 5 -39 48 -87 95
-97 94 -167 134 -236 134 -37 0 -48 -6 -79 -37 -20 -21 -39 -48 -42 -60 -4
-11 -13 -27 -21 -33 -12 -10 -15 -40 -15 -141 0 -71 -3 -129 -7 -129 -5 1 -29
30 -55 65 -47 63 -61 105 -35 105 44 0 71 202 42 313 -6 21 -4 27 8 27 24 0
57 49 57 84 0 18 -9 49 -19 70 l-20 38 35 45 c38 50 45 98 18 137 -9 14 -11
27 -5 30 5 3 19 44 31 90 12 46 25 89 29 95 4 5 90 50 191 99 237 115 282 158
366 354 28 67 34 92 34 151 -1 133 -24 233 -74 328 -25 48 -53 92 -61 99 -8 7
-15 18 -15 24 0 14 -161 176 -175 176 -6 0 -33 16 -60 36 -111 80 -238 120
-410 129 -151 7 -277 29 -312 53 -15 11 -52 25 -80 32 -59 13 -66 25 -27 42
21 10 35 9 70 -4 33 -11 44 -12 44 -3 0 37 -159 66 -217 39 -26 -13 -39 -14
-67 -4 -69 22 -69 49 -1 86 35 19 41 37 14 41 -8 2 -23 -3 -34 -9z m-20 -153
c55 -12 159 -58 230 -100 67 -40 75 -42 175 -49 178 -11 365 -37 402 -57 10
-5 29 -9 43 -9 13 0 39 -9 57 -20 18 -11 41 -20 50 -20 9 0 21 -6 25 -13 4 -8
22 -22 38 -33 173 -107 305 -287 337 -459 6 -27 12 -84 15 -126 l4 -75 -60
-126 c-54 -114 -66 -131 -122 -177 -58 -49 -117 -86 -124 -79 -2 2 4 31 12 66
13 51 14 70 4 103 -15 48 -31 42 -31 -11 0 -96 -65 -210 -138 -241 -82 -35
-84 -33 -113 111 -20 102 -72 176 -191 273 -26 22 -80 52 -119 68 -64 26 -83
29 -183 29 -102 0 -117 -2 -167 -27 -75 -37 -140 -106 -179 -189 -18 -38 -38
-73 -44 -77 -6 -4 -38 -6 -70 -4 -80 5 -104 32 -130 144 -20 90 -36 100 -36
23 0 -34 9 -64 29 -104 l30 -56 -38 -10 c-87 -23 -103 -24 -118 -5 -7 11 -13
34 -13 52 0 34 -44 113 -127 231 -42 58 -73 83 -59 46 3 -9 6 -19 6 -24 0 -5
12 -23 27 -41 36 -43 93 -157 93 -187 0 -13 9 -35 20 -49 24 -30 28 -103 6
-103 -18 0 -46 60 -47 102 0 18 -8 45 -17 59 -9 14 -35 54 -57 88 -145 227
-157 243 -192 258 -58 24 -77 15 -83 -37 -3 -25 -18 -63 -34 -87 -27 -40 -28
-46 -28 -175 0 -73 0 -171 -1 -218 0 -62 4 -93 16 -115 9 -16 17 -37 17 -45 0
-8 20 -44 44 -80 42 -62 48 -66 115 -89 71 -24 96 -50 73 -73 -12 -12 -72 7
-72 22 0 5 -38 33 -85 64 -46 31 -93 68 -103 81 -45 57 -76 404 -42 465 8 14
18 57 22 95 15 150 45 312 65 350 11 22 23 64 26 93 8 68 97 267 150 336 65
83 100 117 142 137 50 24 78 41 98 58 34 28 272 53 306 32 9 -6 10 -14 3 -27
-10 -19 -16 -70 -13 -111 2 -31 21 -29 21 2 0 34 38 127 58 143 9 6 23 10 31
8 9 -2 30 -7 46 -11z m519 -1045 c110 -42 214 -188 250 -347 21 -94 20 -137
-4 -214 -28 -91 -29 -92 -80 -80 -36 8 -55 6 -103 -10 l-59 -20 -49 38 c-27
20 -49 41 -49 45 0 4 -22 8 -50 8 -41 0 -51 -4 -61 -22 -7 -13 -25 -38 -40
-56 -34 -38 -38 -88 -12 -133 16 -27 16 -29 -3 -50 -45 -52 -171 -76 -261 -50
-83 24 -146 -36 -157 -147 -7 -77 -10 -82 -45 -82 -67 0 -142 58 -299 232 -46
51 -80 131 -93 219 -11 72 -10 77 20 158 39 108 66 147 116 173 22 11 56 34
76 49 20 16 45 29 55 29 9 0 41 8 71 17 46 14 63 15 129 5 42 -7 79 -10 83 -7
5 2 18 32 31 67 27 75 106 160 160 173 19 4 60 14 90 21 80 20 211 12 284 -16z
m-74 -657 c12 -16 19 -35 16 -47 -11 -42 40 -78 61 -43 4 7 24 25 44 40 45 34
108 36 157 7 46 -29 43 -60 -13 -114 -44 -41 -45 -43 -26 -60 10 -9 24 -37 31
-61 11 -39 10 -48 -4 -70 -19 -30 -13 -29 -65 -10 -53 19 -75 11 -66 -24 18
-73 18 -77 -10 -89 -47 -21 -71 -15 -108 30 l-35 42 -34 -16 c-66 -31 -163
-46 -215 -32 -12 3 -31 21 -42 39 -26 45 -59 65 -111 68 -42 2 -44 1 -66 -43
-13 -25 -24 -52 -24 -61 0 -28 39 -69 67 -69 23 0 25 3 19 33 -19 87 -19 107
0 114 26 10 67 -18 86 -60 10 -20 31 -43 47 -52 43 -22 145 -19 209 5 l54 21
39 -36 c42 -38 85 -45 132 -24 25 11 47 47 47 77 1 14 5 12 21 -8 18 -21 20
-33 15 -84 -8 -80 -40 -146 -70 -146 -27 0 -86 37 -138 87 -23 22 -51 38 -76
43 -36 6 -48 2 -115 -38 -88 -52 -103 -77 -112 -174 -6 -60 -9 -67 -31 -72
-25 -7 -49 3 -96 37 l-28 21 -22 -21 c-37 -32 -46 -35 -77 -19 -52 27 -58 89
-12 130 29 26 27 33 -13 50 -38 16 -66 59 -66 101 0 31 41 75 69 75 31 0 36
21 11 40 -22 17 -23 20 -10 65 20 72 36 78 203 79 127 1 147 4 189 24 57 29
90 62 69 70 -26 9 -61 50 -61 71 0 41 33 102 68 126 40 27 56 23 92 -22z m592
-609 c18 -20 33 -40 33 -44 0 -14 -76 -70 -95 -70 -24 0 -32 -11 -19 -27 17
-20 60 -16 115 12 27 14 54 25 61 25 12 0 63 -56 63 -70 0 -20 -63 -79 -106
-99 -25 -12 -44 -27 -41 -34 7 -23 68 -20 117 7 26 14 52 26 58 26 17 0 112
-167 112 -197 0 -15 14 -59 31 -98 37 -86 49 -143 56 -261 l5 -91 -31 -12
c-21 -9 -59 -11 -123 -7 -176 11 -273 21 -285 29 -7 5 -13 23 -13 41 0 18 -18
77 -40 132 -105 256 -119 318 -127 549 -6 196 10 222 139 224 54 1 60 -1 90
-35z m-612 -14 c32 -16 80 -66 80 -83 0 -3 -27 -24 -60 -48 -62 -46 -70 -62
-45 -95 10 -13 14 -15 15 -5 0 21 30 51 50 51 9 0 25 9 35 20 31 34 51 34 88
-4 49 -48 56 -76 26 -96 -38 -25 -79 -61 -79 -70 0 -5 18 -11 40 -15 32 -5 45
-3 66 14 15 12 30 21 35 21 25 0 179 -311 179 -362 0 -7 13 -38 30 -68 36 -68
41 -160 11 -199 l-18 -24 -286 -5 c-157 -2 -360 -1 -451 3 -147 6 -170 10
-199 29 -28 19 -32 28 -34 70 -1 26 -6 53 -11 59 -17 22 -21 113 -7 168 8 29
17 83 21 121 7 72 13 81 56 92 36 8 47 31 53 107 2 34 8 65 12 69 4 3 31 5 60
2 58 -4 60 -7 75 -97 19 -120 24 -244 10 -250 -29 -11 -75 -4 -99 15 -26 20
-93 28 -93 11 0 -14 118 -81 160 -90 21 -5 48 -16 61 -25 34 -23 66 -20 85 10
16 24 16 27 -3 52 -28 39 -55 109 -64 167 -4 28 -12 70 -18 95 -22 96 -8 300
20 300 5 0 15 12 21 26 25 54 108 70 178 34z m-611 -856 c2 -2 -4 -19 -13 -38
-9 -19 -16 -39 -16 -44 0 -16 -141 -25 -259 -18 -110 8 -253 25 -260 32 -2 2
15 21 38 41 l43 38 231 -3 c128 -2 234 -6 236 -8z"/>
<path d="M2245 3082 l-80 -3 -57 -57 c-66 -65 -74 -97 -33 -137 23 -24 30 -25
149 -25 l125 0 36 31 c31 28 35 36 35 81 0 39 -5 54 -22 69 -43 37 -71 44
-153 41z"/>
</g>
</svg>
