<?xml version="1.0" standalone="no"?>
<!DOCTYPE svg PUBLIC "-//W3C//DTD SVG 20010904//EN"
 "http://www.w3.org/TR/2001/REC-SVG-20010904/DTD/svg10.dtd">
<svg version="1.0" xmlns="http://www.w3.org/2000/svg"
 width="512.000000pt" height="512.000000pt" viewBox="0 0 512.000000 512.000000"
 preserveAspectRatio="xMidYMid meet">
<metadata>
Created by potrace 1.15, written by Peter Selinger 2001-2017
</metadata>
<g transform="translate(0.000000,512.000000) scale(0.100000,-0.100000)"
fill="#000000" stroke="none">
<path d="M1627 4990 c-53 -33 -63 -54 -18 -37 26 10 39 6 114 -32 92 -47 112
-47 96 -3 -19 54 -76 102 -119 102 -14 0 -47 -13 -73 -30z"/>
<path d="M1235 4912 c-16 -10 -51 -44 -77 -74 -34 -40 -69 -67 -120 -93 -82
-41 -136 -82 -221 -169 -127 -129 -202 -274 -282 -546 -47 -160 -79 -261 -113
-360 -16 -47 -37 -123 -47 -170 -9 -47 -28 -132 -42 -189 -25 -99 -26 -113
-20 -300 4 -155 10 -214 27 -281 57 -219 201 -386 430 -496 184 -88 195 -91
350 -100 135 -8 175 4 219 67 14 20 41 47 59 60 19 12 44 44 58 71 30 60 57
182 49 225 -13 70 32 90 127 59 46 -15 140 -34 173 -34 31 -1 59 -6 65 -13 3
-3 28 -14 56 -23 56 -18 92 -43 160 -106 50 -47 55 -73 19 -102 -33 -25 -32
-56 1 -68 14 -6 22 -14 19 -20 -3 -5 -1 -10 5 -10 7 0 8 -6 0 -19 -25 -48 7
-127 87 -209 63 -65 67 -84 66 -302 -1 -214 -40 -406 -127 -622 -84 -209 -126
-420 -126 -639 0 -57 -3 -70 -19 -79 -21 -10 -301 -8 -486 5 -88 6 -111 4
-197 -19 -54 -13 -139 -43 -190 -64 -105 -45 -160 -62 -201 -62 -36 0 -34 -29
3 -47 14 -7 25 -17 25 -22 0 -5 2 -12 6 -15 12 -12 264 -49 391 -56 76 -5 141
-11 146 -14 29 -18 320 -3 467 24 55 10 132 23 170 30 39 6 91 19 117 28 40
14 54 14 100 4 29 -7 71 -17 93 -22 46 -11 380 -14 396 -4 20 12 284 5 373
-11 101 -17 169 -19 195 -6 28 16 75 63 90 93 24 47 70 52 256 29 44 -6 130
-13 190 -16 104 -6 111 -5 133 16 22 20 23 26 17 83 -8 65 -10 91 -20 366 -4
111 -12 189 -21 213 -8 20 -14 56 -14 80 0 23 -10 80 -21 127 -11 47 -24 114
-28 150 -9 74 -82 312 -116 380 -57 111 -170 200 -258 200 -51 0 -109 -20
-140 -48 -57 -52 -96 -197 -104 -388 -8 -197 17 -356 79 -509 33 -82 34 -95
10 -95 -40 0 -56 36 -63 138 -4 54 -14 113 -23 132 -16 37 -86 344 -86 380 0
32 -66 163 -106 211 -20 24 -31 45 -25 47 6 2 11 10 11 18 0 8 4 14 8 14 4 0
25 29 45 65 21 36 49 71 65 79 79 41 124 137 111 233 -5 32 -6 77 -3 100 9 60
-19 145 -57 177 -40 34 -70 41 -114 26 -45 -15 -56 -6 -25 20 24 21 84 27 95
10 4 -6 10 -8 15 -5 5 3 25 -3 46 -14 41 -22 56 -19 78 15 18 26 62 52 98 57
13 2 23 8 23 13 0 5 4 15 9 23 6 10 3 19 -10 30 -15 12 -18 23 -14 47 10 45
17 52 55 60 38 7 52 19 35 29 -8 5 -8 11 0 20 9 11 6 17 -14 30 -33 22 -32 27
3 67 40 47 38 92 -6 119 -29 18 -33 26 -33 65 0 24 7 62 16 84 13 33 23 42 55
50 65 18 62 33 -6 31 l-30 -1 35 13 c19 6 35 19 35 27 0 12 -15 15 -85 13 -71
-2 -81 -1 -60 9 210 97 268 139 337 239 45 65 90 165 107 236 17 75 17 332 0
354 -6 8 -21 52 -33 99 -41 155 -104 264 -212 366 -153 143 -363 263 -545 310
-74 19 -136 27 -242 31 -185 8 -278 -6 -462 -67 -201 -67 -236 -73 -381 -68
-120 5 -130 7 -304 66 -191 65 -283 84 -379 80 -56 -3 -60 -2 -66 22 -5 22
-12 25 -55 28 -35 2 -59 -3 -80 -16z m1863 -117 c212 -40 425 -157 592 -325
91 -91 134 -156 181 -270 96 -236 70 -524 -63 -692 -61 -77 -205 -162 -344
-203 -49 -14 -94 -25 -101 -25 -19 0 -16 33 5 61 23 30 87 188 79 196 -13 12
-39 -9 -50 -39 -7 -18 -34 -78 -61 -133 -26 -55 -55 -118 -62 -139 -23 -63
-15 -66 148 -59 l141 6 -7 -24 c-4 -13 -10 -52 -13 -87 -5 -59 -7 -63 -27 -57
-49 16 -73 16 -85 1 -18 -22 -10 -29 74 -66 77 -34 92 -53 60 -80 -18 -15 -20
-53 -4 -82 11 -20 9 -20 -63 -16 -40 3 -79 7 -87 9 -7 2 -15 -1 -18 -7 -7 -19
26 -44 68 -50 36 -6 39 -9 39 -39 0 -18 -3 -47 -6 -64 -6 -30 -8 -31 -63 -31
-39 0 -66 6 -89 20 -34 21 -52 19 -52 -5 0 -14 76 -55 103 -55 9 0 19 -4 22
-10 3 -5 -3 -10 -14 -10 -11 0 -24 -7 -29 -17 -9 -15 -14 -14 -55 10 -57 34
-102 34 -149 2 -28 -19 -50 -25 -88 -25 -54 0 -59 -3 -128 -88 -26 -33 -28
-33 -82 -26 -105 14 -157 114 -59 114 11 0 43 10 71 22 47 20 52 20 63 5 17
-24 30 -21 59 14 36 42 34 76 -4 71 -3 -1 -43 -15 -89 -31 -114 -41 -225 -45
-326 -11 -53 17 -98 24 -183 26 -101 3 -119 6 -163 31 -72 39 -109 84 -109
133 0 72 74 178 156 224 54 30 81 37 189 46 137 12 218 39 271 91 73 72 92
175 49 260 -42 80 -167 169 -217 153 -32 -10 -20 -32 41 -73 68 -46 93 -78
111 -138 22 -73 -6 -145 -70 -178 -35 -18 -163 -46 -341 -75 l-136 -23 -69 28
c-108 42 -151 71 -180 120 -14 25 -30 45 -35 45 -12 0 -49 -74 -49 -98 0 -26
20 -42 52 -42 32 0 255 -73 271 -89 8 -8 4 -19 -15 -38 -14 -16 -33 -41 -42
-58 -10 -16 -28 -48 -41 -70 -14 -22 -25 -56 -25 -75 0 -85 88 -198 172 -220
24 -6 59 -15 78 -21 19 -5 54 -9 78 -9 36 0 43 -3 40 -17 -2 -13 -17 -20 -53
-24 -28 -3 -68 -16 -90 -28 -21 -11 -45 -21 -52 -21 -7 0 -51 35 -97 78 -46
42 -107 90 -135 106 -66 36 -292 93 -404 102 -48 4 -94 12 -102 18 -9 6 -26
58 -39 117 -62 271 -227 544 -423 694 -100 78 -106 81 -122 61 -18 -22 9 -57
94 -122 135 -101 234 -242 328 -469 92 -221 108 -435 42 -564 -32 -64 -113
-147 -167 -171 -93 -42 -235 -17 -427 76 -95 47 -125 67 -185 127 -39 40 -90
102 -114 138 -66 102 -76 163 -76 469 -1 242 1 260 26 365 14 61 31 136 37
168 32 168 31 167 77 218 42 47 44 53 44 110 0 76 32 173 106 322 71 142 127
221 206 289 84 73 145 113 231 153 137 63 225 88 328 93 114 5 165 -5 302 -58
144 -56 297 -93 382 -93 79 0 281 45 442 98 88 29 127 39 228 59 51 10 221 5
293 -9z m-464 -2359 c25 -19 37 -38 46 -76 7 -29 18 -54 25 -56 7 -3 37 2 66
11 66 19 131 8 225 -36 111 -52 164 -138 172 -276 6 -117 -3 -167 -39 -203
-29 -29 -34 -30 -114 -30 -46 0 -96 -5 -112 -11 -15 -6 -82 -67 -149 -136
l-121 -126 -39 6 c-55 9 -107 66 -129 143 -10 32 -20 66 -22 74 -4 12 -7 11
-19 -5 -29 -39 1 -182 49 -233 26 -28 79 -52 114 -52 28 0 94 32 112 54 8 9
17 16 22 16 15 0 10 -93 -11 -194 -26 -127 -19 -315 17 -463 13 -56 23 -121
21 -145 -3 -43 -3 -43 -45 -46 -22 -2 -92 9 -155 23 -146 34 -180 38 -198 25
-13 -9 -11 -13 10 -29 13 -11 37 -22 52 -25 15 -3 44 -13 65 -22 52 -24 332
-64 356 -52 20 10 20 18 -6 98 -8 25 -20 70 -26 100 -6 30 -20 87 -30 125 -22
78 -27 237 -11 340 28 186 60 336 78 372 39 75 106 107 176 83 49 -16 117 -79
149 -139 l28 -50 -23 -5 c-13 -2 -54 -9 -91 -16 -93 -15 -141 -36 -177 -76
-50 -57 -37 -72 26 -29 43 29 84 41 176 50 92 10 111 -3 138 -96 30 -100 28
-103 -75 -95 -92 7 -134 -4 -168 -41 -17 -20 -16 -20 85 -27 167 -11 181 -13
195 -32 20 -28 40 -109 53 -214 7 -52 27 -180 46 -285 29 -155 35 -209 32
-293 -3 -89 -6 -106 -22 -118 -24 -17 -143 -19 -236 -3 -36 7 -213 13 -400 15
-462 5 -471 5 -520 39 -61 42 -108 99 -121 147 -15 58 -6 181 27 354 l27 139
76 80 c53 55 86 101 106 145 28 61 30 73 30 185 -1 66 -9 194 -18 284 -10 90
-16 168 -14 175 2 7 29 11 68 11 52 1 74 6 116 30 45 25 56 28 70 17 74 -52
76 -53 138 -47 64 7 119 8 174 3 25 -2 37 2 48 19 14 21 13 23 -26 42 -49 25
-98 27 -160 4 -26 -9 -55 -14 -63 -10 -9 3 -25 30 -36 59 -11 30 -27 54 -36
56 -9 2 -39 -17 -67 -42 -84 -76 -163 -85 -213 -25 -31 37 -24 57 32 93 53 34
84 70 76 89 -10 26 -69 21 -112 -8 -43 -29 -55 -30 -92 -9 -38 23 -60 64 -60
112 0 36 5 45 43 75 57 47 108 77 130 77 11 0 33 -10 49 -22 24 -16 34 -19 47
-11 9 6 14 17 12 25 -2 7 -6 32 -8 55 -5 35 -1 45 22 68 22 23 33 27 66 22 22
-3 55 -17 73 -31z m447 -23 c18 -11 40 -39 55 -70 32 -69 55 -71 83 -7 17 36
25 45 42 42 27 -4 61 -48 61 -79 0 -13 -3 -41 -7 -61 -6 -28 -2 -50 15 -90 20
-50 21 -56 7 -90 -18 -42 -83 -96 -98 -81 -6 6 -17 38 -24 72 -28 119 -91 211
-186 273 -27 17 -49 37 -49 44 0 11 55 64 67 64 3 0 18 -8 34 -17z m633 -677
c35 -26 119 -163 110 -177 -2 -4 -26 -11 -52 -15 -53 -7 -126 -36 -136 -53 -6
-9 20 -11 93 -10 62 1 107 -3 115 -10 20 -17 48 -97 44 -128 -3 -27 -5 -28
-75 -33 -118 -8 -130 -50 -15 -50 44 0 75 -5 89 -15 26 -18 54 -132 78 -310
21 -161 40 -584 26 -598 -7 -7 -48 -5 -128 6 -65 9 -163 19 -218 23 -116 8
-138 14 -160 48 -17 26 -39 134 -50 253 l-7 72 63 -30 c114 -55 138 -23 77
103 -104 216 -132 322 -132 508 -1 145 18 260 57 360 17 42 30 59 57 73 49 25
119 18 164 -17z m-1914 -1415 c155 -5 175 -8 178 -23 2 -10 -3 -25 -12 -33
-12 -12 -13 -22 -6 -41 18 -46 13 -51 -57 -65 -85 -17 -482 -17 -598 -1 -44 7
-114 17 -155 23 -41 5 -77 12 -80 15 -18 19 164 101 286 128 50 11 96 14 169
10 55 -4 179 -9 275 -13z"/>
<path d="M1967 4503 c-31 -30 22 -57 155 -77 184 -29 231 -30 258 -7 23 18 24
21 9 36 -23 23 -205 55 -318 55 -54 0 -101 -3 -104 -7z"/>
<path d="M1722 4439 c-19 -6 -55 -25 -80 -43 -26 -18 -83 -53 -127 -79 -107
-62 -154 -101 -138 -118 25 -26 109 9 325 133 115 67 121 73 92 102 -17 18
-25 18 -72 5z"/>
<path d="M2844 4245 c-34 -7 -75 -20 -91 -28 -45 -24 -91 -71 -99 -102 -9 -37
17 -90 57 -114 107 -65 387 -42 449 36 46 58 15 156 -64 204 -38 23 -156 25
-252 4z"/>
<path d="M3182 3714 c-10 -18 -29 -160 -39 -296 -4 -57 -2 -72 16 -102 12 -19
28 -36 35 -39 20 -8 44 13 51 45 5 20 2 27 -13 32 -39 13 -44 49 -22 158 25
125 25 169 1 199 -18 22 -19 22 -29 3z"/>
<path d="M2883 3543 c8 -114 28 -180 71 -229 l35 -39 1 30 c0 17 -9 62 -20
100 -11 38 -20 86 -20 105 -1 47 -34 120 -56 120 -15 0 -16 -10 -11 -87z"/>
<path d="M559 3518 c-49 -67 -61 -103 -80 -253 -22 -171 -24 -300 -4 -380 8
-33 21 -91 29 -130 18 -86 52 -148 125 -228 109 -118 189 -164 351 -202 119
-27 183 -15 246 49 89 89 85 189 -23 571 -48 170 -64 208 -123 295 -20 30 -50
80 -67 110 -24 43 -42 61 -83 84 -56 31 -76 25 -65 -21 6 -24 -3 -53 -15 -53
-5 0 -18 29 -30 65 -42 127 -130 146 -130 29 0 -29 -3 -59 -6 -68 -14 -37 -23
-10 -26 77 l-3 92 -32 3 c-28 3 -36 -3 -64 -40z"/>
<path d="M4598 3575 c-14 -8 -36 -31 -48 -50 -25 -41 -48 -44 -111 -15 -56 25
-86 25 -126 0 -91 -55 -80 -177 25 -270 50 -44 52 -46 95 -73 15 -10 66 -52
112 -93 87 -77 125 -93 125 -51 0 22 127 286 144 298 5 4 11 29 13 56 4 39 0
60 -20 99 -29 58 -49 78 -100 99 -45 19 -74 19 -109 0z"/>
<path d="M4059 2890 c-51 -54 -56 -86 -35 -270 9 -85 16 -181 16 -213 0 -55 1
-58 22 -52 17 6 20 4 15 -9 -10 -24 13 -20 90 17 38 18 122 48 187 67 175 50
204 85 171 208 -13 48 -28 77 -52 100 -31 32 -37 34 -90 31 -32 -2 -64 0 -70
4 -7 5 -23 30 -34 58 -31 71 -68 99 -131 99 -47 0 -55 -4 -89 -40z"/>
</g>
</svg>
