<?xml version="1.0" standalone="no"?>
<!DOCTYPE svg PUBLIC "-//W3C//DTD SVG 20010904//EN"
 "http://www.w3.org/TR/2001/REC-SVG-20010904/DTD/svg10.dtd">
<svg version="1.0" xmlns="http://www.w3.org/2000/svg"
 width="907.000000pt" height="880.000000pt" viewBox="0 0 907.000000 880.000000"
 preserveAspectRatio="xMidYMid meet">
<metadata>
Created by potrace 1.15, written by Peter Selinger 2001-2017
</metadata>
<g transform="translate(0.000000,880.000000) scale(0.100000,-0.100000)"
fill="#000000" stroke="none">
<path d="M0 4400 l0 -4400 4535 0 4535 0 0 4400 0 4400 -4535 0 -4535 0 0
-4400z m2049 3869 c-7 -14 -3 -22 17 -36 15 -10 40 -30 56 -45 16 -15 31 -27
33 -28 3 0 10 0 15 0 6 0 10 -4 10 -10 0 -5 -5 -10 -12 -10 -25 0 -158 -70
-158 -84 0 -29 21 -27 73 6 29 19 68 41 87 48 19 7 40 17 47 22 14 11 29 -10
25 -34 -3 -16 0 -16 32 -3 19 8 46 15 58 14 14 -1 4 -7 -27 -17 -27 -9 -54
-22 -58 -29 -4 -7 -14 -13 -22 -13 -21 0 -55 -63 -55 -102 0 -39 20 -92 47
-124 21 -25 153 -104 173 -104 20 0 98 -68 127 -111 28 -43 35 -118 15 -156
-16 -29 -96 -66 -146 -66 -22 0 -63 3 -91 8 -27 4 -59 7 -70 6 -14 -1 -35 16
-65 50 -35 41 -45 61 -45 88 0 26 -5 36 -18 39 -41 8 -32 -85 14 -130 16 -16
29 -31 29 -32 0 -2 -22 -6 -50 -9 -58 -7 -137 -39 -156 -65 -25 -31 -94 -159
-94 -173 0 -27 -74 -107 -110 -118 -46 -16 -105 -10 -105 9 0 8 6 14 12 13 23
-5 109 35 146 68 41 36 50 64 17 54 -16 -5 -20 -2 -20 15 0 19 -4 21 -22 15
-50 -16 -134 -32 -145 -28 -6 3 -10 10 -7 17 8 20 50 36 95 36 29 0 46 6 62
24 12 13 32 26 45 30 12 4 36 19 52 33 26 21 30 31 30 75 0 45 -4 54 -35 84
-36 34 -66 44 -144 47 -30 1 -46 7 -48 17 -3 11 -2 12 4 3 10 -14 53 -6 53 9
0 6 -9 8 -20 5 -37 -9 -22 22 21 43 45 24 52 57 9 52 -28 -3 -93 -50 -85 -62
3 -5 1 -11 -4 -14 -18 -12 -22 15 -7 45 14 29 14 33 -2 54 -14 17 -22 21 -35
13 -24 -13 -55 -1 -62 23 -10 31 3 36 14 6 7 -19 15 -24 30 -20 12 3 21 9 21
13 0 4 27 15 60 25 34 10 60 24 60 32 0 16 -19 16 -95 -2 -80 -20 -96 -19 -62
3 15 10 25 21 23 23 -3 2 -6 25 -7 51 l-3 47 -27 -20 c-23 -16 -28 -17 -39 -4
-10 12 -9 15 4 15 9 0 25 9 36 20 27 27 54 25 116 -10 56 -31 128 -49 137 -33
3 5 7 44 8 86 2 82 13 107 24 57 4 -20 13 -30 25 -30 14 0 18 10 22 49 5 54
59 152 115 212 36 38 69 50 52 18z m-822 -844 c36 -11 62 -28 92 -60 22 -24
41 -49 41 -54 0 -5 34 -30 75 -56 42 -26 74 -52 72 -58 -4 -13 -94 -43 -122
-40 -11 1 -33 6 -50 12 -16 5 -50 15 -75 21 -25 7 -58 19 -73 27 -15 8 -40 21
-55 29 -15 8 -37 14 -48 14 -12 0 -32 8 -45 19 l-22 18 22 31 c25 36 111 112
127 112 6 0 33 -7 61 -15z m131 -402 c20 -15 42 -33 48 -40 10 -12 109 -81
156 -109 18 -11 18 -12 2 -18 -15 -6 -58 11 -113 46 -40 25 -34 -4 9 -43 l45
-40 -42 20 c-23 12 -44 25 -47 30 -4 5 -20 12 -36 16 -39 9 -39 25 0 25 35 0
39 14 8 31 -12 7 -43 34 -69 60 -45 46 -46 49 -23 49 14 0 42 -12 62 -27z
m4542 -3403 c17 -9 19 -21 17 -100 -2 -81 -5 -90 -28 -108 -28 -23 -93 -27
-109 -7 -8 9 -4 20 13 41 21 25 24 37 20 79 -4 41 -1 55 17 78 23 29 40 33 70
17z"/>
</g>
</svg>
