<?xml version="1.0" standalone="no"?>
<!DOCTYPE svg PUBLIC "-//W3C//DTD SVG 20010904//EN"
 "http://www.w3.org/TR/2001/REC-SVG-20010904/DTD/svg10.dtd">
<svg version="1.0" xmlns="http://www.w3.org/2000/svg"
 width="564.000000pt" height="1002.000000pt" viewBox="0 0 564.000000 1002.000000"
 preserveAspectRatio="xMidYMid meet">
<metadata>
Created by potrace 1.15, written by Peter Selinger 2001-2017
</metadata>
<g transform="translate(0.000000,1002.000000) scale(0.100000,-0.100000)"
fill="#000000" stroke="none">
<path d="M3126 3365 c-53 -49 -17 -94 97 -120 81 -18 113 -41 103 -73 -8 -25
-37 -44 -94 -62 -24 -7 -48 -22 -54 -33 -14 -26 -4 -92 16 -112 17 -18 23 -80
6 -70 -5 3 -10 12 -10 20 0 8 -5 17 -10 20 -6 4 -9 -6 -8 -26 2 -20 -2 -34
-11 -37 -10 -3 -13 1 -9 16 3 11 2 26 -3 33 -6 10 -9 5 -9 -14 0 -19 -4 -27
-12 -24 -8 2 -12 18 -10 43 9 102 8 107 -18 122 -19 11 -41 13 -83 8 -74 -10
-74 -24 1 -23 72 2 86 -6 78 -47 -19 -111 -23 -116 -87 -82 -56 30 -89 20
-114 -33 -36 -80 2 -113 84 -72 22 12 45 21 52 21 6 0 22 9 36 20 32 25 43 25
43 1 0 -38 -11 -51 -45 -51 -39 0 -67 -26 -44 -41 8 -5 25 -9 38 -9 26 0 27 6
-12 -105 -25 -70 -57 -233 -57 -287 0 -22 -5 -28 -21 -28 -40 0 -88 -39 -98
-78 -21 -81 -40 -192 -51 -292 -20 -190 -30 -252 -69 -425 -28 -128 -49 -257
-57 -350 -3 -44 -12 -98 -19 -120 -25 -74 -22 -135 11 -194 l29 -52 154 7 154
7 -8 -229 c-4 -126 -8 -230 -9 -231 -2 -2 -49 -8 -107 -15 -148 -16 -745 -16
-888 1 -134 15 -444 17 -806 3 -252 -9 -264 -11 -400 -46 l-140 -37 -255 -1
c-140 -1 -290 -4 -332 -6 l-78 -4 0 -129 0 -129 2820 0 2820 0 0 115 c0 131
14 115 -115 135 -38 6 -113 23 -165 37 -84 22 -124 26 -350 33 -140 4 -263 11
-272 15 -10 4 -59 10 -110 13 l-93 7 -3 215 -2 216 41 11 c28 7 49 8 68 0 18
-7 53 -7 101 -1 l74 9 27 55 c16 30 32 60 37 65 39 46 40 56 25 155 -9 52 -16
122 -17 155 -1 33 -9 83 -18 110 -19 60 -37 216 -38 334 -1 24 -7 53 -15 65
-8 11 -15 32 -15 46 0 15 -6 46 -14 71 -8 24 -19 116 -26 204 -6 88 -13 179
-17 203 l-6 42 -98 0 -98 0 24 36 c43 64 44 98 2 201 -20 51 -20 59 -9 195 11
126 11 149 -4 198 -37 124 -91 192 -181 226 -28 11 -43 23 -43 34 0 62 -103
87 -147 35 -13 -14 -23 -36 -23 -48 0 -15 -11 -29 -31 -41 -73 -43 -115 -140
-153 -356 -13 -75 -32 -153 -43 -173 l-19 -38 -32 46 c-34 49 -105 99 -162
115 -144 40 -269 -44 -320 -217 -8 -27 -20 -43 -33 -47 -28 -7 -29 -5 -16 33
19 54 6 155 -26 201 -15 22 -25 45 -22 53 3 8 -7 18 -24 26 -16 7 -29 17 -29
22 0 12 27 12 35 -1 7 -12 45 -14 45 -2 0 19 -27 32 -66 32 -24 0 -46 5 -49
10 -5 8 -11 7 -21 -1 -8 -6 -17 -9 -21 -5 -11 10 15 30 40 31 32 0 36 63 6
104 -33 45 -20 77 44 106 139 61 125 164 -25 182 -36 4 -60 14 -82 34 l-31 28
29 30 c37 38 13 44 -28 6z m1213 -222 c68 -22 132 -79 162 -145 23 -50 24 -62
22 -233 -3 -173 -2 -183 24 -255 l27 -76 -22 -45 c-30 -62 -68 -82 -168 -87
l-82 -4 4 -57 5 -56 -19 35 c-35 67 -37 68 -42 20 -4 -38 -2 -47 15 -55 11 -6
21 -21 23 -33 5 -35 -30 -28 -47 9 -10 23 -18 29 -33 26 -14 -4 -18 -1 -14 11
3 9 8 33 11 54 8 42 15 39 -142 59 l-92 12 -10 46 c-36 171 -36 166 -7 217 19
34 35 93 55 203 16 86 39 181 50 211 24 65 79 123 136 144 53 19 83 19 144 -1z
m-1056 -428 c34 -71 18 -165 -39 -240 -15 -20 -24 -39 -20 -43 20 -20 86 117
86 178 0 33 3 41 10 30 18 -28 11 -105 -14 -153 l-23 -47 31 0 c70 0 106 12
106 34 1 33 45 132 76 170 31 36 107 76 147 76 50 0 125 -31 170 -70 71 -63
83 -90 98 -224 14 -136 15 -135 -70 -156 -43 -10 -63 -8 -110 13 -2 1 -6 -9
-8 -23 -2 -13 -9 -27 -15 -31 -19 -12 -48 10 -48 36 0 14 -4 25 -10 25 -5 0
-10 -16 -10 -35 0 -23 -6 -38 -15 -41 -18 -7 -65 21 -65 40 0 9 -8 12 -25 9
-36 -7 -53 33 -36 87 13 44 43 69 99 81 35 8 34 8 -8 4 -52 -4 -96 -45 -107
-96 -3 -16 -13 -34 -22 -38 -27 -14 -203 -31 -325 -31 l-116 0 0 33 c1 45 18
172 32 235 11 51 12 52 47 52 l36 1 -32 14 c-32 14 -32 14 -18 47 12 29 18 33
47 31 28 -2 30 -1 12 6 -48 21 -34 47 26 53 101 9 95 11 113 -27z"/>
</g>
</svg>
