<?xml version="1.0" standalone="no"?>
<!DOCTYPE svg PUBLIC "-//W3C//DTD SVG 20010904//EN"
 "http://www.w3.org/TR/2001/REC-SVG-20010904/DTD/svg10.dtd">
<svg version="1.0" xmlns="http://www.w3.org/2000/svg"
 width="564.000000pt" height="1002.000000pt" viewBox="0 0 564.000000 1002.000000"
 preserveAspectRatio="xMidYMid meet">
<metadata>
Created by potrace 1.15, written by Peter Selinger 2001-2017
</metadata>
<g transform="translate(0.000000,1002.000000) scale(0.100000,-0.100000)"
fill="#000000" stroke="none">
<path d="M2460 6695 c-76 -19 -177 -58 -278 -108 -92 -45 -204 -144 -237 -208
-10 -19 -42 -59 -71 -89 -142 -149 -255 -360 -314 -588 -17 -68 -15 -247 5
-321 34 -132 106 -232 209 -291 59 -34 64 -35 166 -34 125 1 178 20 232 83 40
46 50 49 95 21 52 -31 101 -91 127 -155 26 -64 29 -83 27 -157 -1 -46 -2 -48
-31 -48 -20 0 -30 -5 -30 -15 0 -8 9 -15 20 -15 11 0 20 -4 20 -8 0 -25 -97
-147 -206 -260 -163 -170 -197 -212 -248 -312 -56 -108 -88 -229 -83 -316 3
-58 1 -67 -19 -83 -35 -28 -70 -38 -173 -52 -66 -9 -113 -22 -160 -44 -83 -41
-151 -90 -151 -111 0 -23 59 -91 91 -104 56 -24 224 40 356 133 34 25 75 49
91 55 26 9 33 6 76 -34 26 -25 72 -58 102 -76 l55 -31 -6 -41 c-4 -22 -20 -76
-37 -118 -28 -74 -31 -78 -66 -83 -188 -29 -334 -119 -362 -225 -30 -113 11
-126 445 -149 94 -5 339 -8 545 -6 311 2 385 5 434 19 75 21 112 47 126 91 6
19 20 37 30 40 32 10 60 55 60 94 0 43 -54 120 -115 163 -108 77 -288 138
-406 138 l-56 0 -7 90 -7 90 50 51 c101 102 148 206 158 346 5 64 8 72 28 77
13 3 37 18 55 32 17 15 33 24 35 22 3 -3 0 -29 -6 -59 -17 -87 -18 -84 21 -81
19 2 60 14 90 27 103 43 185 66 295 81 211 29 336 115 356 243 13 89 -21 165
-102 224 -34 25 -53 31 -112 35 -51 3 -83 0 -108 -11 l-37 -15 -4 54 c-16 192
-272 272 -398 126 -22 -26 -43 -56 -46 -67 -3 -11 -24 -30 -46 -43 -38 -20
-43 -21 -51 -6 -20 35 -47 53 -91 59 -43 7 -45 9 -39 34 10 42 43 108 63 126
51 46 152 55 341 29 289 -39 672 2 849 91 l65 33 31 -37 c30 -34 35 -36 91
-36 103 1 163 56 163 151 0 79 -60 154 -125 154 -14 0 -15 8 -8 63 20 153 -13
300 -96 432 -120 192 -260 292 -491 351 -146 37 -219 74 -283 144 -44 47 -107
144 -107 164 0 5 50 20 103 31 15 3 27 9 27 15 0 18 -37 20 -95 4 l-60 -15
-29 38 c-43 55 -125 132 -160 150 -16 9 -61 26 -100 39 -63 22 -85 24 -245 23
-111 0 -196 -6 -231 -14z m499 -53 c88 -37 130 -69 193 -147 l48 -59 -21 -22
c-13 -14 -19 -29 -15 -40 6 -15 9 -15 31 6 29 27 25 29 58 -36 67 -132 177
-208 382 -263 61 -16 132 -39 159 -51 171 -73 335 -273 386 -470 24 -91 25
-167 5 -266 -31 -148 -69 -200 -189 -257 -121 -59 -298 -93 -530 -104 -180 -8
-315 9 -379 49 -76 48 -130 134 -152 241 -9 43 -30 27 -28 -20 2 -53 50 -147
103 -200 l41 -43 -81 0 c-136 0 -201 -46 -235 -166 -10 -32 -19 -60 -20 -62
-2 -2 -62 11 -135 29 l-131 32 6 49 c18 129 -67 293 -183 353 -20 11 -38 20
-40 21 -1 0 9 27 24 59 54 124 76 229 81 396 4 111 2 162 -7 178 -6 13 -14 20
-18 17 -3 -4 -7 -79 -8 -169 -2 -149 -4 -171 -33 -270 -57 -196 -129 -304
-219 -327 -80 -20 -195 -15 -249 12 -98 49 -177 161 -209 295 -22 94 -13 249
21 363 48 162 162 367 265 474 31 34 75 88 98 122 60 90 132 149 247 204 198
95 269 110 490 106 165 -3 172 -4 244 -34z m-449 -1897 c19 -3 46 -10 60 -15
14 -5 44 -14 68 -20 42 -11 43 -12 29 -33 -23 -36 -27 -67 -15 -121 8 -36 8
-51 0 -54 -6 -2 -28 -15 -48 -28 -43 -30 -53 -24 -61 35 -7 48 -26 50 -31 3
-3 -30 27 -104 48 -117 5 -3 27 12 48 34 22 23 47 41 56 41 10 0 26 5 36 10
19 10 19 11 0 43 -29 47 -27 112 5 141 31 29 59 35 103 24 31 -8 47 -30 66
-90 6 -20 36 -25 36 -6 0 21 43 58 67 58 31 0 100 -44 108 -70 13 -42 -22
-100 -61 -100 -59 0 -72 -29 -21 -51 80 -35 20 -139 -82 -139 -25 0 -32 -7
-56 -55 -47 -98 -131 -164 -254 -201 -24 -8 -60 -14 -80 -14 -113 1 -211 117
-211 252 0 36 -4 48 -15 48 -12 0 -15 -13 -15 -59 0 -133 78 -238 200 -271 82
-22 233 34 325 121 30 28 55 50 55 47 0 -2 5 -29 10 -60 8 -44 7 -73 -6 -134
-20 -101 -64 -183 -136 -257 l-58 -59 0 -113 0 -112 93 -6 c195 -13 391 -102
466 -211 38 -55 39 -78 4 -106 l-26 -20 -29 52 c-16 29 -47 72 -70 95 -40 41
-168 113 -201 113 -9 0 -42 7 -74 15 -58 16 -283 23 -322 10 -17 -5 -19 3 -27
101 -7 78 -13 109 -23 112 -12 4 -13 -14 -8 -109 6 -136 12 -153 41 -143 11 4
69 9 128 11 174 8 342 -36 445 -114 45 -35 92 -112 99 -165 6 -41 4 -47 -21
-66 -30 -24 -72 -37 -152 -46 l-53 -7 0 41 c0 72 -51 160 -92 160 -25 0 -23
-12 11 -44 31 -30 57 -102 47 -134 -5 -15 -19 -21 -59 -26 -99 -11 -102 -11
-114 37 -16 56 -66 117 -84 100 -10 -10 -9 -17 8 -35 26 -29 33 -42 44 -80 l9
-31 -248 6 c-401 11 -682 28 -734 44 -43 13 -48 18 -48 44 0 42 23 81 71 123
71 60 187 106 271 106 33 0 40 5 62 43 33 57 66 169 66 223 0 39 -3 46 -27 54
-86 31 -162 101 -204 185 -34 69 -40 125 -25 215 7 44 10 46 76 78 89 42 164
110 199 181 37 73 65 180 59 226 -4 32 1 42 44 88 26 29 74 89 105 134 37 52
64 80 73 78 8 -2 31 -6 50 -10z m-697 -1035 c-3 -10 -11 -24 -18 -30 -8 -6
-12 -17 -9 -23 7 -18 -112 -92 -194 -121 -98 -35 -127 -34 -163 5 -16 17 -29
34 -29 38 0 13 83 66 145 93 39 17 94 30 154 37 51 6 96 13 99 16 12 11 20 4
15 -15z"/>
<path d="M1953 6218 c-100 -113 -180 -255 -205 -368 -11 -47 -30 -104 -44
-127 -13 -23 -24 -53 -24 -68 0 -14 -4 -35 -10 -45 -5 -10 -13 -63 -16 -117
-5 -87 -3 -104 16 -147 30 -66 91 -129 148 -154 59 -26 138 -38 155 -24 6 6
29 13 51 17 21 4 48 17 60 29 11 11 29 26 40 31 37 20 58 63 74 152 8 48 15
122 16 163 1 41 5 86 10 99 6 17 3 31 -13 51 -24 34 -30 107 -14 190 21 108 0
190 -49 190 -12 0 -18 7 -18 24 0 38 -18 76 -36 76 -12 0 -15 -6 -10 -26 18
-70 18 -85 4 -97 -9 -7 -18 -24 -22 -39 -4 -19 -13 -28 -26 -28 -24 0 -24 1
-5 47 19 44 19 63 1 63 -7 0 -20 -17 -29 -37 -13 -34 -15 -35 -16 -12 -1 14
12 46 29 72 25 40 27 49 15 54 -19 7 -36 -14 -67 -79 -13 -26 -29 -47 -35 -48
-17 0 -16 6 3 35 9 14 14 32 10 40 -3 9 7 30 25 50 17 19 28 39 24 45 -9 15
-19 12 -42 -12z"/>
</g>
</svg>
