<?xml version="1.0" standalone="no"?>
<!DOCTYPE svg PUBLIC "-//W3C//DTD SVG 20010904//EN"
 "http://www.w3.org/TR/2001/REC-SVG-20010904/DTD/svg10.dtd">
<svg version="1.0" xmlns="http://www.w3.org/2000/svg"
 width="497.000000pt" height="722.000000pt" viewBox="0 0 497.000000 722.000000"
 preserveAspectRatio="xMidYMid meet">
<metadata>
Created by potrace 1.15, written by Peter Selinger 2001-2017
</metadata>
<g transform="translate(0.000000,722.000000) scale(0.100000,-0.100000)"
fill="#000000" stroke="none">
<path d="M3334 7203 c-7 -11 -26 -17 -65 -18 -94 -3 -213 -24 -225 -40 -6 -8
-27 -15 -47 -15 -29 0 -42 -7 -71 -42 -26 -30 -45 -43 -73 -47 -30 -5 -39 -11
-41 -30 -4 -23 -5 -23 -90 -16 -70 6 -89 11 -103 28 -14 18 -19 19 -33 8 -33
-28 -7 -121 34 -121 6 0 10 -7 10 -15 0 -8 -7 -15 -15 -15 -8 0 -15 -4 -15 -9
0 -5 -9 -11 -20 -14 -11 -3 -20 -12 -20 -21 0 -11 -13 -18 -40 -22 -22 -4 -40
-10 -40 -15 0 -5 -7 -9 -15 -9 -8 0 -15 -6 -15 -13 0 -20 -36 -45 -74 -53 -20
-3 -36 -10 -36 -14 0 -5 -33 -10 -72 -13 -40 -3 -89 -7 -108 -9 -46 -6 -273
11 -280 21 -3 5 -34 11 -69 14 -35 3 -67 10 -70 15 -3 6 -23 13 -44 17 -20 4
-37 11 -37 15 0 4 -11 11 -25 14 -14 4 -25 11 -25 16 0 15 -38 12 -43 -2 -6
-20 -185 -18 -197 2 -7 10 -10 11 -10 3 0 -7 -8 -13 -18 -13 -10 0 -27 -7 -38
-15 -10 -8 -33 -15 -51 -15 -17 0 -38 -6 -45 -12 -35 -33 -107 -68 -138 -68
-11 0 -20 -4 -20 -10 0 -5 -22 -10 -48 -10 -38 0 -57 -6 -85 -27 -20 -16 -39
-37 -43 -48 -8 -26 -79 -95 -97 -95 -8 0 -26 -18 -41 -40 -15 -23 -34 -40 -45
-40 -10 0 -21 -7 -25 -15 -3 -8 -14 -15 -24 -15 -24 0 -46 -24 -69 -75 -10
-22 -28 -54 -39 -70 -35 -50 -64 -113 -64 -141 0 -14 -13 -51 -30 -81 -25 -45
-30 -66 -30 -121 -1 -88 -14 -105 -77 -104 -26 1 -49 6 -51 12 -5 13 -92 13
-92 0 0 -5 -6 -10 -13 -10 -17 0 -53 -39 -61 -65 -3 -11 -19 -35 -36 -53 -16
-18 -30 -37 -30 -42 0 -5 -6 -13 -14 -17 -24 -14 -36 -84 -36 -220 0 -128 1
-133 25 -157 14 -14 25 -34 25 -45 0 -15 9 -21 38 -26 20 -3 54 -11 74 -17 68
-20 218 6 218 39 0 9 13 13 40 13 28 0 40 -4 40 -14 0 -8 7 -16 15 -20 8 -3
15 -18 15 -33 0 -39 30 -91 60 -106 14 -7 26 -22 28 -34 2 -12 15 -26 33 -33
16 -7 29 -16 29 -21 0 -5 7 -9 15 -9 8 0 15 -6 15 -12 0 -7 23 -37 50 -66 28
-30 50 -58 50 -63 0 -16 53 -58 73 -59 9 0 17 -4 17 -9 0 -13 99 -61 126 -61
13 0 24 -4 24 -10 0 -5 27 -12 60 -16 33 -4 60 -11 60 -15 0 -5 6 -9 13 -9 8
0 24 -9 37 -20 13 -11 31 -20 42 -20 10 0 18 -4 18 -10 0 -5 9 -10 19 -10 11
0 23 -4 26 -10 3 -6 15 -10 26 -10 10 0 19 -4 19 -10 0 -5 17 -12 38 -16 20
-4 46 -13 57 -19 11 -7 31 -16 44 -20 14 -4 36 -18 49 -30 14 -13 41 -26 60
-30 20 -4 36 -13 39 -24 4 -17 70 -51 98 -51 8 0 15 -4 15 -10 0 -5 9 -10 20
-10 11 0 20 -4 20 -8 0 -5 16 -15 36 -22 20 -8 40 -22 45 -31 9 -19 40 -30
132 -49 36 -7 57 -17 57 -25 0 -8 16 -19 35 -26 20 -7 42 -23 50 -35 8 -12 33
-26 59 -33 35 -9 46 -16 46 -31 0 -11 3 -20 8 -20 4 0 17 -15 29 -33 25 -37
31 -105 11 -125 -15 -15 -58 -16 -58 -2 0 19 -49 10 -64 -12 -23 -32 -20 -91
4 -113 32 -29 26 -78 -12 -114 -18 -17 -41 -31 -51 -31 -10 0 -21 -8 -25 -17
-17 -39 -48 -83 -58 -83 -7 0 -14 -7 -18 -15 -3 -8 -12 -15 -20 -15 -8 0 -17
-13 -21 -30 -4 -17 -23 -48 -42 -70 -41 -45 -51 -61 -92 -146 -16 -33 -37 -66
-45 -73 -9 -8 -16 -20 -16 -28 0 -9 -20 -43 -44 -77 -24 -33 -49 -79 -57 -101
-8 -22 -17 -42 -21 -45 -3 -3 -11 -38 -16 -79 -6 -40 -17 -80 -25 -89 -8 -10
-18 -38 -21 -64 -4 -27 -11 -48 -16 -48 -4 0 -11 -28 -15 -62 -4 -35 -12 -69
-18 -76 -6 -7 -10 -74 -9 -163 0 -150 0 -151 27 -179 22 -23 29 -42 36 -106 6
-52 13 -81 24 -86 8 -5 15 -18 15 -29 0 -11 7 -22 15 -25 8 -4 15 -18 15 -32
0 -30 39 -92 58 -92 6 0 12 -4 12 -9 0 -5 9 -13 21 -16 11 -4 25 -17 31 -29 5
-13 25 -29 44 -36 45 -18 60 -37 67 -84 4 -22 12 -43 19 -47 9 -6 9 -13 1 -31
-7 -13 -17 -41 -24 -63 -6 -22 -25 -52 -40 -66 -16 -14 -29 -33 -29 -43 0 -9
-6 -19 -14 -22 -8 -3 -16 -14 -19 -25 -9 -33 -55 -24 -93 18 -19 20 -34 45
-34 54 0 10 -5 21 -10 24 -5 3 -10 15 -10 26 0 11 -27 46 -60 78 -33 32 -60
61 -60 64 0 10 -59 93 -75 107 -8 7 -15 18 -15 25 0 18 -31 42 -65 51 -16 4
-43 22 -58 40 -16 18 -42 36 -58 39 -16 4 -29 10 -29 15 0 16 -86 48 -147 55
-39 4 -64 12 -67 21 -8 20 -86 19 -86 -1 0 -8 -8 -15 -19 -15 -10 0 -27 -12
-37 -27 -10 -14 -29 -36 -41 -48 -13 -12 -23 -28 -23 -34 0 -7 -12 -24 -26
-39 -31 -32 -44 -63 -44 -102 0 -16 -9 -47 -21 -69 -21 -41 -24 -71 -17 -227
2 -60 7 -85 21 -98 14 -14 17 -35 17 -106 0 -79 2 -91 20 -100 11 -6 20 -15
20 -20 0 -6 9 -19 20 -30 11 -11 20 -31 20 -45 0 -14 4 -25 9 -25 5 0 12 -11
15 -24 3 -13 21 -34 39 -45 34 -21 57 -57 57 -90 0 -18 64 -91 79 -91 10 0 51
-44 51 -55 0 -16 45 -75 57 -75 28 0 64 -25 70 -49 8 -33 32 -71 45 -71 5 0
16 -7 24 -15 9 -8 25 -15 37 -15 23 -1 67 -32 67 -48 0 -12 58 -72 70 -72 6 0
10 -4 10 -8 0 -5 23 -14 51 -20 34 -8 61 -22 79 -42 21 -23 37 -30 64 -30 23
0 39 -5 42 -15 4 -8 12 -15 20 -15 8 0 14 -3 14 -8 0 -12 78 -42 110 -42 20 0
30 -5 30 -15 0 -11 11 -15 38 -15 20 0 53 -4 72 -9 19 -5 82 -15 140 -22 65
-7 108 -18 113 -26 12 -20 317 -19 317 1 0 14 29 26 68 26 15 0 41 17 68 46
37 38 47 56 55 102 6 32 15 59 19 62 5 3 10 62 12 130 2 103 0 129 -14 150 -9
14 -19 43 -23 66 -4 30 -17 51 -46 78 -21 21 -56 59 -77 84 -20 26 -43 51 -50
55 -20 13 -15 116 8 160 12 21 20 56 20 83 0 39 5 50 36 80 33 31 42 34 95 34
32 0 88 7 126 16 45 11 88 14 128 10 33 -4 103 -8 156 -9 101 -4 119 -9 119
-34 0 -24 -23 -86 -37 -101 -7 -7 -13 -22 -13 -33 0 -11 -7 -22 -15 -25 -8 -4
-15 -15 -15 -25 0 -10 -9 -28 -20 -39 -11 -11 -20 -25 -20 -30 0 -6 -9 -27
-20 -47 -11 -21 -20 -51 -20 -68 0 -17 -7 -40 -15 -52 -9 -12 -20 -60 -26
-105 -6 -46 -16 -92 -22 -103 -6 -11 -13 -61 -15 -112 -4 -83 -2 -96 22 -146
27 -55 124 -157 150 -157 7 0 20 -9 27 -21 12 -17 30 -22 121 -30 74 -7 113
-7 127 0 11 6 29 11 41 11 11 0 23 7 26 15 4 8 14 15 23 15 9 0 28 11 43 25
15 14 36 25 48 25 11 0 20 3 20 8 0 4 13 13 30 20 16 7 32 22 35 32 3 10 19
21 34 25 32 7 65 39 76 73 8 26 39 62 55 62 15 0 30 36 30 74 0 20 5 36 10 36
6 0 10 6 10 14 0 16 50 70 74 79 9 4 16 13 16 22 0 8 5 15 10 15 6 0 10 7 10
15 0 8 8 23 18 33 24 24 42 75 42 118 0 19 5 34 10 34 6 0 10 9 10 20 0 11 9
29 20 40 11 11 20 23 20 26 0 3 6 20 14 37 17 40 36 118 36 151 0 14 4 26 8
26 8 0 16 125 26 379 2 46 7 76 14 79 15 5 16 112 2 112 -6 0 -10 34 -10 83 0
92 -19 237 -32 237 -4 0 -11 18 -14 40 -5 28 -18 52 -45 79 -22 21 -39 43 -39
48 0 5 -18 29 -40 51 -36 39 -46 43 -115 54 -66 10 -75 14 -75 33 0 20 46 69
97 102 25 17 53 66 53 94 0 12 -11 19 -32 24 -18 3 -43 11 -56 17 -17 9 -25 9
-34 0 -7 -7 -27 -12 -44 -12 -18 0 -39 -6 -46 -12 -7 -7 -35 -24 -62 -37 -26
-13 -60 -36 -75 -51 -14 -15 -37 -31 -50 -35 -13 -4 -38 -23 -55 -43 -17 -19
-39 -44 -48 -55 -17 -19 -63 -47 -77 -47 -4 0 -8 83 -8 184 -1 144 -4 191 -16
215 -8 17 -18 48 -22 71 -4 22 -11 40 -16 40 -5 0 -9 18 -9 41 0 40 -13 75
-35 94 -11 9 -45 106 -59 168 -4 15 -11 27 -16 27 -6 0 -10 6 -10 14 0 8 -11
37 -25 64 -14 28 -25 57 -25 67 0 9 -7 23 -15 31 -8 9 -15 24 -15 34 0 11 -9
24 -20 30 -12 7 -22 25 -26 51 -4 21 -11 42 -15 45 -12 7 -11 74 1 74 6 0 10
6 10 13 0 8 9 22 19 31 40 36 36 63 -19 118 -46 46 -50 53 -50 96 0 26 7 56
15 66 8 11 15 26 15 33 0 8 9 23 20 35 11 12 20 30 20 39 0 10 13 23 29 30 17
7 32 20 34 29 2 8 21 24 43 35 21 11 44 26 49 32 6 7 34 21 64 32 29 10 56 23
60 27 11 17 56 41 86 46 38 8 122 -25 147 -57 11 -14 25 -25 33 -25 7 0 22
-11 32 -24 15 -20 35 -27 111 -40 50 -9 114 -16 142 -16 36 0 52 -5 59 -17 13
-24 119 -23 133 1 11 20 37 21 44 1 9 -23 54 -18 75 9 10 13 38 28 64 35 25 6
45 16 45 21 0 13 66 40 97 40 13 0 27 8 30 18 9 22 72 82 87 82 6 0 26 9 44
20 23 14 32 27 32 47 1 35 27 68 63 77 15 3 27 13 27 20 0 8 27 41 59 74 46
47 60 69 66 101 4 23 10 41 15 41 5 0 10 28 13 63 6 72 16 120 29 128 15 10
15 518 1 527 -8 5 -17 51 -23 112 -9 90 -31 172 -50 190 -17 16 -30 55 -30 90
0 22 -4 40 -10 40 -5 0 -10 9 -10 20 0 20 -18 60 -33 71 -4 3 -12 34 -18 70
-5 35 -17 76 -25 91 -8 14 -14 33 -14 42 0 9 -3 16 -7 16 -11 0 -63 84 -63
102 0 8 -9 25 -20 38 -11 13 -20 29 -20 37 0 8 -18 31 -40 53 -29 29 -40 47
-40 69 0 26 -24 82 -50 116 -4 6 -10 30 -13 55 -3 24 -13 49 -21 56 -9 6 -16
16 -16 21 0 5 -9 20 -20 33 -11 13 -20 29 -20 37 0 7 -11 23 -25 35 -14 12
-25 25 -25 30 0 8 -37 52 -82 100 -10 10 -18 21 -18 25 0 18 -56 53 -84 53
-45 0 -105 33 -134 75 -14 19 -28 35 -32 35 -4 0 -10 9 -13 19 -3 11 -17 22
-35 26 -17 3 -38 17 -46 30 -10 15 -36 30 -67 39 -28 9 -57 22 -63 31 -6 8
-40 19 -77 24 -69 10 -109 25 -109 41 0 6 -52 10 -128 10 -108 0 -129 -3 -138
-17z m246 -101 c25 -4 54 -13 65 -19 11 -6 47 -14 79 -18 76 -9 101 -19 143
-55 19 -17 43 -30 54 -30 11 0 22 -6 25 -14 3 -8 37 -41 75 -74 50 -44 84 -65
123 -76 46 -14 67 -28 133 -97 102 -105 113 -126 117 -244 3 -82 7 -101 29
-133 14 -20 30 -61 37 -89 7 -31 26 -70 45 -95 23 -29 36 -57 41 -92 5 -39 14
-58 42 -86 41 -40 72 -113 72 -169 0 -28 10 -54 40 -97 29 -43 41 -72 46 -113
3 -34 18 -78 37 -111 26 -47 31 -67 34 -140 2 -47 7 -136 13 -198 6 -72 6
-131 0 -164 -6 -28 -10 -69 -10 -92 0 -23 -26 -115 -59 -215 -66 -193 -80
-215 -183 -277 -66 -40 -108 -86 -108 -118 0 -12 -6 -30 -13 -40 -12 -16 -119
-66 -144 -66 -6 0 -35 -11 -65 -25 -58 -27 -142 -33 -220 -16 -24 6 -70 15
-103 20 -105 19 -134 31 -185 76 -27 24 -55 47 -62 52 -38 24 -55 69 -63 165
-6 86 -4 101 15 144 11 27 22 60 24 74 2 14 11 52 20 85 9 32 16 68 16 80 0
11 22 52 50 90 27 39 62 93 76 120 14 28 32 57 39 65 7 8 18 33 24 55 7 28 30
59 71 99 63 63 79 91 61 109 -8 8 -24 -1 -59 -35 -26 -25 -71 -58 -100 -73
-56 -28 -55 -25 -118 -175 -10 -25 -48 -83 -83 -130 -69 -90 -91 -146 -91
-229 0 -25 -16 -90 -36 -148 -34 -98 -35 -107 -24 -154 14 -59 6 -125 -19
-155 -20 -24 -62 -48 -105 -58 -16 -4 -43 -18 -61 -32 -22 -16 -45 -24 -73
-24 -29 0 -47 -6 -58 -19 -25 -29 -59 -64 -87 -89 -31 -28 -92 -145 -121 -231
-27 -82 -37 -88 -118 -74 -35 7 -101 17 -148 23 -47 6 -110 15 -140 20 -30 5
-72 12 -93 15 -60 10 -78 35 -71 98 4 35 1 65 -9 92 -33 88 -63 150 -85 172
-37 37 -26 58 33 60 141 6 200 14 242 33 25 11 65 20 90 20 37 0 49 5 76 34
21 23 45 36 72 41 43 7 75 30 75 52 0 7 21 34 48 59 42 41 47 50 46 87 -1 51
-27 115 -50 124 -28 10 -47 -11 -65 -69 -19 -67 -62 -123 -135 -177 -53 -39
-101 -57 -229 -81 -33 -6 -73 -15 -90 -20 -16 -5 -46 -5 -65 -1 -25 6 -48 3
-83 -11 -67 -26 -126 -23 -224 12 -46 17 -94 30 -106 30 -12 0 -35 9 -52 20
-16 11 -38 20 -48 20 -21 0 -86 32 -142 70 -22 15 -94 50 -160 79 -66 29 -151
67 -190 86 -131 63 -207 95 -226 95 -34 0 -130 42 -164 71 -18 16 -37 29 -43
29 -6 0 -23 21 -40 47 -16 27 -60 77 -98 113 -121 114 -172 173 -183 210 -6
20 -24 57 -41 81 -16 24 -30 53 -30 65 0 11 -9 63 -20 114 -25 115 -25 150 0
220 11 30 20 82 20 115 1 81 14 138 50 210 16 33 39 86 52 118 26 68 57 102
179 198 48 38 110 94 136 124 45 50 60 59 216 125 202 85 274 101 427 90 73
-5 120 -13 154 -28 31 -14 69 -22 106 -22 41 0 70 -7 103 -25 43 -23 51 -24
103 -13 38 8 65 8 88 1 38 -12 198 2 230 19 11 6 44 19 75 29 37 13 65 31 84
54 16 19 33 35 39 35 6 0 48 23 94 50 45 28 96 55 112 61 15 5 45 30 66 54 20
25 42 45 48 45 6 0 40 19 77 41 91 58 166 90 236 100 84 12 151 26 210 44 50
14 80 14 165 -3z m-3230 -1411 c44 -20 49 -50 18 -110 -16 -32 -32 -48 -55
-55 -18 -6 -42 -26 -55 -46 -14 -21 -45 -46 -77 -62 -29 -15 -59 -35 -66 -44
-21 -30 -35 -6 -35 62 0 52 5 74 26 110 14 24 29 44 33 44 4 0 22 21 41 46 18
25 47 54 64 65 32 20 45 18 106 -10z m2085 -2056 c33 -8 92 -15 130 -15 39 0
103 -9 144 -20 41 -11 103 -20 138 -20 51 0 67 -4 80 -20 28 -32 82 -190 82
-239 1 -39 6 -49 45 -85 35 -32 47 -52 56 -91 6 -27 25 -79 42 -115 18 -37 34
-86 36 -115 4 -46 -1 -61 -52 -159 -31 -60 -56 -117 -56 -128 0 -10 -6 -31
-13 -46 -25 -49 -70 -240 -63 -266 3 -14 19 -33 34 -43 15 -9 33 -23 40 -32
17 -21 16 -165 -3 -200 -28 -56 -66 -50 -94 15 -21 46 -40 55 -62 27 -10 -12
-13 -43 -11 -123 4 -119 3 -120 -68 -145 -24 -9 -51 -22 -60 -29 -8 -8 -25
-17 -38 -21 -33 -10 -39 18 -29 141 13 150 -10 197 -55 112 -17 -33 -23 -65
-26 -141 -5 -115 -8 -118 -91 -93 -89 28 -176 89 -202 143 -21 43 -21 49 -10
186 16 188 17 197 51 280 16 40 32 101 36 136 4 39 20 93 39 135 18 39 36 87
40 106 4 19 14 44 22 56 8 12 18 53 23 91 4 37 18 95 31 128 16 44 20 70 15
98 -13 69 -50 39 -80 -67 -10 -32 -32 -80 -51 -107 -32 -47 -38 -65 -64 -212
-6 -32 -22 -83 -37 -114 -34 -72 -51 -122 -69 -201 -9 -35 -27 -99 -41 -140
-22 -64 -26 -86 -20 -143 4 -42 0 -98 -9 -153 l-15 -86 31 -62 c17 -35 34 -70
38 -78 4 -8 23 -24 41 -35 19 -11 52 -39 74 -61 29 -30 54 -45 86 -52 25 -6
71 -21 104 -33 51 -20 63 -21 102 -11 24 7 66 12 92 12 37 0 55 6 82 29 19 15
56 37 81 49 38 16 53 31 81 78 25 44 44 64 76 79 23 12 48 29 56 40 12 17 18
18 52 7 22 -6 71 -13 110 -16 38 -2 99 -14 133 -26 l63 -21 62 32 c72 37 96
56 96 78 1 9 22 59 48 111 43 87 52 98 102 128 79 47 121 45 175 -11 61 -63
111 -153 118 -213 3 -28 14 -67 23 -88 15 -31 16 -43 6 -80 -8 -30 -8 -54 -2
-77 14 -49 12 -86 -6 -121 -14 -27 -15 -40 -5 -83 10 -44 9 -58 -9 -110 -12
-33 -19 -69 -16 -79 3 -10 -2 -45 -10 -78 -8 -32 -13 -67 -9 -77 7 -22 -43
-181 -83 -266 -15 -33 -39 -88 -53 -123 -28 -73 -72 -132 -99 -132 -10 0 -32
11 -49 25 -29 25 -43 55 -76 168 -19 66 -37 79 -68 49 -29 -29 -35 -128 -13
-202 18 -59 28 -70 69 -70 43 0 97 -26 97 -47 -1 -35 -103 -166 -160 -205 -63
-44 -98 -48 -135 -15 -30 26 -44 78 -45 173 0 66 -24 115 -49 100 -25 -16 -33
-64 -32 -181 2 -107 4 -122 23 -142 28 -30 15 -44 -45 -50 -56 -7 -99 7 -176
57 -94 61 -94 63 -81 232 9 110 17 156 35 198 13 30 26 71 30 90 3 20 19 58
35 85 16 28 41 74 55 104 14 30 51 82 82 115 74 81 86 101 78 126 -13 41 -94
61 -325 81 -161 14 -164 14 -235 -4 -33 -9 -77 -16 -97 -17 -20 0 -39 -4 -43
-9 -3 -5 -30 -15 -60 -22 -43 -10 -60 -9 -85 1 -28 12 -34 11 -52 -7 -22 -22
-36 -74 -44 -163 -3 -30 -16 -75 -29 -100 -16 -32 -25 -71 -30 -137 -7 -105
-8 -104 90 -166 44 -28 55 -43 96 -128 l47 -96 -7 -104 c-6 -90 -10 -110 -34
-147 -44 -68 -73 -76 -251 -69 -81 4 -153 10 -160 16 -16 13 -116 32 -162 31
-94 -3 -259 47 -349 105 -38 24 -91 56 -116 69 -25 13 -75 51 -111 83 -36 32
-84 73 -106 91 -23 18 -48 45 -57 60 -9 15 -39 42 -66 60 -28 18 -53 40 -56
50 -4 9 -22 37 -42 61 l-35 43 24 20 c29 22 81 59 128 89 37 24 44 64 12 74
-22 7 -126 -20 -135 -35 -3 -6 -17 -10 -30 -10 -13 0 -38 -8 -55 -17 l-32 -18
-31 38 c-17 21 -36 57 -43 80 -6 23 -14 49 -18 57 -15 35 146 180 198 180 15
0 25 11 71 83 30 45 31 53 8 62 -13 5 -27 -4 -49 -30 -20 -22 -54 -44 -92 -59
-36 -14 -81 -42 -107 -68 -53 -50 -82 -65 -95 -52 -5 5 -13 34 -19 64 -5 30
-16 73 -25 95 -23 59 -20 88 20 207 38 113 59 144 137 196 32 21 45 24 90 19
54 -5 118 -32 174 -74 17 -12 37 -23 42 -23 18 0 131 -117 131 -135 0 -9 24
-42 53 -73 37 -39 61 -76 76 -119 13 -35 42 -84 68 -114 49 -58 63 -86 63
-128 0 -41 35 -81 70 -81 64 0 77 13 104 104 15 47 58 145 97 218 91 170 92
173 78 217 -17 52 -114 197 -173 259 -28 29 -57 69 -64 89 -6 20 -26 57 -42
83 -18 28 -32 66 -36 96 -3 27 -15 71 -26 99 -18 44 -20 64 -15 180 5 119 9
139 45 240 22 61 56 144 76 185 20 41 44 100 52 130 8 30 24 64 35 76 11 12
35 52 53 90 19 38 52 94 75 124 22 30 56 78 75 105 18 28 73 95 121 150 48 55
97 112 110 128 27 31 51 33 140 12z m777 -1071 c10 -32 23 -94 29 -138 5 -43
19 -96 29 -116 15 -30 17 -45 10 -71 -6 -19 -10 -56 -10 -83 0 -29 -8 -63 -20
-85 -10 -20 -26 -53 -34 -73 -8 -21 -22 -38 -30 -38 -22 0 -20 22 5 54 17 22
20 35 15 69 -4 22 -12 47 -18 54 -8 10 -6 29 7 73 10 32 15 65 12 74 -3 8 -24
24 -45 35 -53 27 -65 66 -43 137 12 39 43 146 47 162 8 28 29 3 46 -54z m666
-131 c-2 -10 -25 -32 -52 -50 -74 -48 -163 -121 -228 -185 -59 -59 -94 -72
-117 -44 -9 10 5 30 66 93 43 44 89 87 103 96 14 9 54 37 90 62 49 34 74 45
103 45 31 0 38 -3 35 -17z"/>
<path d="M2315 6097 c-11 -27 1 -297 13 -309 12 -12 79 -38 99 -38 22 0 45 60
39 99 -4 20 -11 63 -16 96 -11 79 -27 130 -44 144 -24 20 -85 26 -91 8z"/>
<path d="M4412 5598 c-22 -22 -22 -22 -72 -4 -28 10 -61 15 -74 12 -29 -7 -93
-77 -171 -186 -79 -111 -114 -180 -130 -258 -17 -79 -34 -106 -85 -132 -47
-24 -57 -40 -66 -109 -5 -41 -15 -63 -44 -96 -33 -38 -38 -51 -44 -115 -4 -46
-2 -84 5 -104 9 -26 8 -45 -10 -109 -26 -94 -26 -110 -3 -128 17 -15 86 -39
172 -60 63 -15 107 -45 136 -90 13 -21 35 -41 48 -45 21 -5 104 21 146 47 8 5
32 18 53 29 37 20 142 122 279 272 112 123 114 127 133 217 15 76 16 89 2 140
-13 45 -15 107 -12 326 4 295 3 300 -54 330 -27 13 -31 13 -54 -5 -14 -11 -29
-20 -35 -20 -13 0 -41 33 -60 71 -21 42 -32 45 -60 17z"/>
</g>
</svg>
