<?xml version="1.0" standalone="no"?>
<!DOCTYPE svg PUBLIC "-//W3C//DTD SVG 20010904//EN"
 "http://www.w3.org/TR/2001/REC-SVG-20010904/DTD/svg10.dtd">
<svg version="1.0" xmlns="http://www.w3.org/2000/svg"
 width="920.000000pt" height="1483.000000pt" viewBox="0 0 920.000000 1483.000000"
 preserveAspectRatio="xMidYMid meet">
<metadata>
Created by potrace 1.15, written by Peter Selinger 2001-2017
</metadata>
<g transform="translate(0.000000,1483.000000) scale(0.100000,-0.100000)"
fill="#000000" stroke="none">
<path d="M4449 14330 c-1 -3 -1 -9 0 -13 1 -5 -3 -6 -9 -2 -6 3 -36 1 -68 -7
-31 -7 -63 -12 -71 -11 -22 2 -114 -42 -189 -90 -159 -103 -260 -212 -336
-364 -39 -79 -43 -91 -23 -74 8 6 17 9 20 6 4 -3 5 -2 2 2 -7 9 36 53 52 53 7
0 13 4 13 10 0 5 -8 7 -17 3 -15 -5 -15 -3 2 10 10 8 25 13 31 10 7 -2 15 1
20 8 4 8 3 10 -4 5 -7 -4 -12 -3 -12 3 0 5 20 24 45 42 25 18 45 36 45 41 0
14 82 98 90 93 5 -3 28 11 52 30 95 78 114 91 151 104 62 21 53 7 -25 -40 -40
-24 -95 -68 -123 -97 -113 -121 -195 -201 -195 -189 -1 12 -18 -6 -55 -57 -11
-16 -26 -34 -32 -41 -7 -8 -13 -18 -13 -23 0 -5 -9 -17 -20 -27 -11 -10 -20
-23 -20 -30 0 -7 -9 -20 -19 -29 -11 -10 -23 -32 -27 -49 -3 -17 -17 -49 -31
-70 -51 -80 -62 -107 -76 -183 -26 -133 -29 -211 -12 -304 9 -47 20 -141 24
-210 10 -150 43 -263 79 -268 12 -2 22 -10 22 -18 0 -8 7 -29 16 -46 15 -29
42 -59 205 -233 55 -59 108 -102 120 -98 4 1 16 -8 28 -21 21 -22 21 -23 4
-64 -11 -25 -24 -41 -32 -40 -8 2 -44 41 -81 88 -36 47 -95 107 -131 135 -35
27 -88 74 -117 103 -60 60 -56 64 -36 -40 4 -21 34 -60 92 -120 77 -80 84 -90
75 -111 -6 -13 -9 -44 -6 -70 3 -26 3 -47 1 -47 -3 0 -81 -26 -174 -59 -215
-74 -320 -127 -369 -183 -88 -102 -222 -355 -313 -588 -84 -216 -249 -779
-272 -930 -7 -41 -26 -106 -43 -145 -35 -81 -46 -155 -26 -172 8 -5 44 -20 81
-32 36 -12 72 -29 79 -37 22 -27 1 -365 -51 -799 -16 -137 -57 -502 -90 -810
-56 -518 -77 -693 -145 -1210 -37 -283 -87 -670 -160 -1245 -104 -818 -138
-1052 -180 -1235 -8 -33 -21 -90 -30 -126 -25 -108 -20 -191 15 -263 52 -105
157 -234 322 -397 87 -86 158 -163 158 -172 0 -15 -75 -344 -169 -738 -56
-232 -83 -380 -79 -431 l3 -43 95 -32 c52 -18 147 -41 210 -53 63 -12 149 -28
190 -36 179 -35 387 -53 663 -56 225 -3 280 -7 292 -19 13 -13 65 -195 165
-578 50 -192 90 -386 90 -439 0 -42 -4 -48 -117 -192 -24 -30 -43 -61 -43 -68
0 -21 -40 -94 -71 -130 -16 -18 -40 -55 -54 -82 -15 -29 -37 -56 -54 -64 -24
-13 -30 -25 -39 -71 -14 -83 -7 -102 37 -109 152 -23 216 -28 304 -24 125 6
187 29 206 77 15 34 16 35 83 31 56 -2 118 16 119 36 2 23 4 28 12 42 5 7 12
10 15 8 4 -2 46 -1 92 3 l85 8 48 -43 c81 -72 216 -89 427 -54 112 18 139 26
162 47 33 31 42 66 26 96 -7 12 -12 26 -13 31 0 16 -39 23 -101 18 -56 -4 -62
-3 -68 16 -4 11 -22 34 -40 49 -18 16 -30 35 -28 41 2 7 -3 12 -11 12 -9 0
-14 10 -14 25 0 15 4 22 11 18 6 -3 -5 9 -25 28 -20 19 -34 39 -32 46 2 7 -1
20 -7 30 -10 15 -11 15 -6 1 8 -26 -17 -40 -41 -23 -39 28 -65 82 -87 183 -1
8 -9 18 -17 23 -10 6 -10 9 -1 9 17 0 15 30 -3 50 -13 14 -13 31 0 146 25 221
104 688 119 709 23 31 381 69 859 89 185 8 342 18 347 21 6 3 10 31 10 61 0
30 1 54 3 54 24 0 508 74 556 85 103 24 217 64 247 87 24 19 26 26 21 72 -9
89 -92 425 -153 618 -31 98 -66 231 -244 934 -32 128 -80 328 -105 445 -63
290 -136 606 -191 824 -9 33 -26 119 -39 190 l-24 130 30 95 c64 198 101 386
120 598 16 185 6 894 -15 1057 -39 306 -117 618 -306 1220 -101 323 -150 508
-143 536 4 14 2 20 -4 16 -6 -4 -14 0 -17 9 -9 24 -6 42 4 19 18 -42 10 306
-10 460 -11 83 -20 151 -20 151 0 1 20 7 45 13 48 12 65 33 64 78 0 21 -11 36
-42 58 -43 31 -66 77 -71 140 -4 42 -31 149 -87 340 -18 60 -37 121 -52 160
-8 22 -25 74 -37 115 -13 41 -27 79 -32 85 -4 5 -8 19 -8 32 0 12 -7 26 -14
30 -8 5 -21 22 -28 38 -20 47 -66 117 -150 231 -43 57 -78 108 -78 114 0 5 -3
10 -7 10 -5 0 -16 12 -27 26 -18 26 -18 26 2 15 33 -17 162 -172 162 -193 0
-13 4 -17 13 -12 6 4 9 4 5 -1 -11 -11 20 -37 34 -29 9 5 9 2 -1 -9 -12 -15
-11 -20 9 -37 12 -11 20 -25 17 -33 -3 -7 4 -24 14 -38 10 -13 19 -29 19 -36
0 -6 4 -15 10 -18 5 -3 3 13 -5 36 -9 24 -31 101 -50 173 -37 138 -77 229
-146 336 -54 84 -146 168 -125 115 5 -13 2 -14 -17 -4 -12 7 -42 28 -66 48
l-44 36 5 -35 c4 -21 1 -46 -7 -59 l-12 -24 -22 22 c-11 11 -23 21 -26 21 -3
0 -9 0 -14 0 -5 0 -24 26 -43 58 -33 58 -48 89 -29 62 6 -8 11 -11 11 -7 0 4
9 3 21 -3 19 -11 20 -10 9 10 -6 12 -9 24 -6 27 2 3 -7 16 -22 29 -15 13 -24
24 -19 24 4 0 28 -20 54 -45 51 -50 55 -53 46 -28 -5 12 -3 14 7 8 9 -5 11 -4
6 4 -4 6 -12 9 -17 6 -5 -3 -6 1 -3 9 4 9 0 18 -9 22 -9 3 -13 12 -10 21 5 12
7 12 14 2 6 -11 9 -10 15 4 3 9 14 17 24 17 10 0 25 10 34 23 15 22 16 22 6
-7 -13 -37 -4 -48 10 -12 12 34 12 42 -1 88 -7 28 -20 44 -49 60 -22 13 -40
29 -40 36 0 7 -4 11 -9 7 -5 -3 -8 -30 -6 -61 2 -42 0 -57 -12 -61 -8 -3 -19
-1 -26 6 -16 16 -37 14 -37 -4 0 -22 -50 -20 -52 3 0 9 -2 22 -2 29 -1 6 -5
15 -9 19 -10 11 -9 26 2 19 13 -7 43 24 35 37 -4 6 2 8 16 3 19 -6 22 -4 17 9
-6 15 -2 14 22 -3 l28 -20 23 48 c12 27 20 55 18 62 -2 7 -13 -10 -23 -39 -19
-52 -28 -61 -41 -41 -4 7 0 16 9 20 8 5 25 38 37 74 l22 65 -26 54 c-28 59
-44 71 -63 47 -11 -14 -12 -14 -13 3 0 11 6 27 14 35 16 18 62 143 76 206 5
23 12 49 16 58 5 15 3 16 -21 7 -35 -13 -32 -14 -40 20 -6 26 -11 30 -40 30
-27 0 -34 -4 -37 -25 -6 -31 -2 -35 39 -35 37 0 38 -1 21 -33 -38 -68 -203
-205 -233 -193 -8 3 -17 1 -20 -4 -7 -11 -108 -14 -118 -3 -11 10 -109 43
-116 38 -4 -2 -26 14 -51 36 -24 21 -47 39 -52 39 -4 0 -7 6 -6 13 2 6 -2 11
-9 10 -16 -3 -63 54 -63 78 0 11 7 22 15 25 8 3 19 21 26 41 7 21 16 32 24 29
7 -2 52 -35 100 -73 63 -50 82 -69 69 -72 -28 -5 -42 -31 -35 -63 3 -16 8 -28
11 -27 3 1 15 -3 28 -10 12 -6 22 -8 22 -4 0 4 26 9 58 10 114 4 158 19 147
53 -4 12 13 28 61 59 66 42 80 60 31 42 -46 -18 -319 22 -405 59 -52 23 -91
54 -61 50 23 -3 57 11 63 26 7 17 -48 53 -121 79 -29 10 -50 22 -48 26 3 4
-11 14 -30 23 -32 15 -40 26 -36 49 0 4 -4 7 -9 7 -6 0 -10 -5 -10 -12 0 -6
-9 -2 -20 10 -12 12 -25 22 -30 22 -5 0 -7 7 -4 15 4 10 0 15 -13 15 -10 0
-31 11 -46 26 -15 14 -31 23 -36 20 -5 -3 -14 1 -21 9 -11 13 -10 14 4 9 22
-9 20 9 -3 26 -11 7 -17 18 -14 22 3 5 -4 12 -16 15 -12 3 -21 9 -21 14 0 5
-6 9 -13 9 -41 0 -42 100 -1 126 47 31 107 14 175 -50 15 -14 30 -22 33 -19 3
4 6 -1 6 -10 0 -20 11 -22 29 -4 10 10 11 8 5 -6 -3 -10 -3 -17 2 -15 5 1 19
-3 32 -10 12 -7 27 -10 32 -7 6 3 10 3 10 -2 0 -4 21 -9 48 -10 35 -2 43 0 32
8 -13 9 -13 11 0 16 25 10 68 62 72 86 2 12 1 37 -3 55 -16 76 47 0 66 -80 13
-52 13 -53 20 -21 4 18 15 35 26 38 10 3 21 15 24 26 4 10 12 19 19 19 11 0
59 52 79 86 21 36 41 -1 24 -45 -6 -17 -9 -33 -6 -36 8 -7 89 26 89 37 0 4 6
8 13 8 13 0 66 49 91 84 13 19 14 19 36 -2 17 -16 27 -19 41 -12 12 7 20 6 24
0 4 -6 -6 -16 -23 -22 -25 -10 -75 -68 -58 -68 3 0 -4 -30 -14 -67 l-19 -67
34 -33 c36 -35 54 -40 86 -23 19 11 51 63 47 77 -2 4 0 9 5 11 4 1 7 0 7 -3 0
-3 0 -19 0 -36 0 -41 -47 -89 -88 -89 -18 0 -43 11 -61 26 -17 14 -31 21 -31
16 0 -22 53 -52 92 -52 79 0 127 88 94 170 l-16 40 28 -6 c39 -9 77 -38 80
-63 3 -17 8 -20 28 -15 21 6 24 3 24 -24 0 -16 3 -50 6 -76 l7 -48 28 66 c15
36 44 114 65 173 20 59 47 139 60 177 34 98 32 157 -8 223 -19 32 -38 51 -45
49 -7 -3 -13 0 -13 6 0 6 -13 -3 -29 -19 -33 -35 -41 -32 -66 17 -9 19 -25 43
-34 54 -16 18 -15 18 17 2 37 -19 41 -12 10 22 l-23 23 30 -10 c31 -12 25 -5
-22 26 -16 11 -15 12 10 12 37 1 34 15 -8 35 -41 20 -53 36 -28 36 17 1 16 1
-1 12 -15 8 -21 8 -24 0 -9 -27 -23 -10 -17 21 8 49 -28 103 -110 159 -38 26
-74 48 -80 48 -5 0 -1 -6 10 -12 11 -6 40 -31 65 -56 l45 -45 -40 30 c-97 73
-159 95 -280 99 l-100 3 114 -14 c120 -15 163 -31 86 -30 -25 0 -45 -3 -45 -6
0 -4 15 -14 33 -23 l32 -16 -45 7 c-25 5 -97 7 -160 6 -176 -2 -176 -2 -162
-12 8 -4 37 -7 65 -6 29 2 45 1 35 -2 -9 -2 -19 -10 -21 -17 -4 -10 6 -13 36
-13 27 1 41 -3 40 -11 -2 -7 4 -9 15 -5 15 6 15 4 -2 -16 -17 -18 -17 -21 -3
-15 10 3 17 1 17 -5 0 -6 7 -8 17 -4 11 4 14 3 9 -6 -4 -6 -4 -11 1 -10 30 5
35 -2 17 -23 -14 -16 -10 -15 19 6 31 24 40 26 53 16 12 -11 14 -11 12 -1 -2
7 8 20 22 29 22 14 23 15 13 1 -7 -9 -9 -20 -5 -24 4 -5 0 -5 -8 0 -12 6 -12
5 -4 -4 9 -10 17 -10 32 -2 10 6 22 8 24 5 3 -2 11 2 17 10 10 12 16 13 26 3
11 -10 9 -16 -8 -36 l-22 -25 30 18 c42 24 -72 -84 -129 -123 -63 -44 -93 -54
-93 -33 0 10 4 23 10 30 7 9 4 12 -12 12 -13 0 -21 6 -21 16 0 10 -6 14 -15
10 -16 -6 -17 14 -1 25 14 10 -4 31 -21 24 -13 -4 -14 -3 -3 10 11 13 10 14
-6 8 -16 -6 -17 -4 -7 8 10 13 7 15 -25 18 -67 5 -107 4 -127 -5 -17 -7 -18
-6 -7 8 11 14 10 16 -9 11 -19 -5 -21 -3 -16 16 4 17 2 21 -8 17 -10 -3 -12 0
-8 11 4 10 2 14 -5 9 -6 -3 -13 -2 -17 3 -3 6 11 21 30 34 23 16 32 27 23 29
-7 3 13 11 45 17 31 7 57 15 57 18 0 3 -12 2 -27 -1 -23 -5 -25 -4 -10 4 9 6
25 10 35 9 35 -3 115 1 110 6 -9 9 -69 24 -64 17 2 -4 -23 -8 -56 -9 -37 -1
-74 -9 -101 -23 -41 -20 -41 -20 -17 0 14 11 52 29 85 40 l60 20 -52 -5 c-29
-3 -74 -15 -99 -26 -38 -16 -44 -17 -34 -4 12 14 10 15 -16 9 -16 -4 -37 -11
-46 -16 -10 -5 -18 -6 -18 -4 0 3 26 19 58 35 67 35 64 39 -8 11 -60 -24 -75
-25 -40 -4 l25 15 -25 -6 c-14 -4 -34 -7 -45 -6 -10 0 -24 -4 -30 -8 -5 -5
-32 -21 -59 -36 l-49 -28 21 27 c11 15 39 41 62 57 47 34 51 43 13 28 -18 -7
-30 -6 -37 1 -7 7 -6 10 2 10 7 0 26 14 42 30 20 20 39 30 59 30 16 0 33 5 36
10 3 6 12 10 18 10 7 0 6 -4 -3 -10 -11 -7 -12 -10 -2 -10 8 0 25 9 39 20 19
15 41 20 81 20 30 0 52 3 49 7 -4 3 -23 6 -44 5 -20 -1 -42 3 -48 8 -12 10
-84 10 -86 0z m667 -439 c-19 -21 -11 -58 9 -41 15 13 25 3 18 -18 -2 -10 9
-1 27 18 19 22 27 27 21 13 -6 -12 -10 -30 -10 -40 1 -17 2 -17 6 0 7 26 21
21 19 -7 0 -13 -5 -22 -9 -19 -5 3 -4 -3 1 -14 6 -11 9 -31 6 -44 -5 -19 -4
-21 5 -9 9 13 12 13 20 1 7 -11 13 -5 25 24 20 47 31 40 17 -11 -6 -20 -8 -41
-5 -45 5 -9 64 -245 64 -257 0 -5 -149 -7 -253 -2 -4 0 14 30 40 67 26 37 42
64 35 59 -15 -9 -16 9 0 37 10 20 10 21 -5 8 -10 -8 -17 -9 -17 -3 0 6 5 14
10 17 17 11 12 35 -7 28 -12 -5 -15 -2 -10 10 4 12 1 15 -14 12 -10 -2 -19 1
-19 6 0 6 -12 1 -26 -10 -28 -22 -50 -28 -39 -11 9 14 -1 12 -38 -6 l-32 -16
35 36 c25 27 29 35 15 30 -18 -7 -19 -6 -6 10 13 16 13 17 -5 14 -10 -1 -25
-10 -32 -18 -10 -11 -12 -11 -6 -1 5 11 2 13 -14 9 l-20 -6 19 35 c11 19 21
44 23 56 1 12 8 22 15 22 6 0 17 11 24 25 7 14 20 24 29 24 9 -1 31 14 49 32
28 29 34 32 42 18 6 -10 4 -21 -7 -33z m-961 -1780 c-3 -12 0 -21 10 -25 8 -3
15 -12 15 -21 0 -8 7 -15 15 -15 9 0 18 -7 21 -15 4 -8 10 -12 15 -9 5 3 5 -6
-1 -20 -6 -18 -6 -26 1 -26 6 0 -3 -16 -21 -36 -22 -26 -30 -44 -27 -61 2 -13
0 -26 -6 -30 -6 -4 -7 -1 -2 8 6 11 5 11 -4 3 -10 -9 -10 -17 -1 -34 9 -17 8
-26 -5 -46 l-16 -25 -28 20 c-32 23 -91 88 -91 100 0 4 -24 31 -52 60 -29 28
-47 51 -41 51 7 0 15 -5 18 -10 5 -8 11 -7 21 1 11 9 18 8 33 -5 18 -17 19
-17 17 -1 -1 10 -13 26 -27 37 -18 15 -19 18 -5 14 13 -5 17 -2 12 9 -13 34
44 9 102 -47 30 -28 38 -32 38 -18 0 10 -5 18 -11 17 -5 -1 -9 6 -9 15 1 10
-3 15 -8 12 -6 -4 -14 -1 -18 7 -9 13 9 54 40 91 19 23 23 23 15 -1z m151
-216 c25 -38 14 -126 -25 -202 -17 -35 -29 -63 -27 -63 3 0 19 22 37 50 42 65
52 56 11 -11 -36 -58 -37 -62 -17 -79 8 -7 17 -27 21 -46 5 -26 9 -32 19 -24
6 5 15 7 19 3 4 -4 9 3 13 15 9 35 23 26 23 -15 l1 -38 14 25 c14 24 14 24 15
-20 0 -34 3 -41 11 -30 15 21 1 -78 -15 -109 l-13 -24 -16 24 c-26 36 -20 13
14 -60 17 -36 36 -76 42 -89 8 -17 13 -19 20 -10 7 10 10 10 14 -1 5 -11 7
-11 14 0 9 15 9 19 13 -141 2 -52 9 -128 17 -167 9 -40 12 -73 8 -73 -14 0
-64 24 -71 35 -14 19 -8 27 10 14 15 -12 16 -12 5 2 -7 9 -10 19 -6 22 3 4 -6
19 -20 33 -28 27 -39 67 -14 46 10 -8 13 -6 13 9 0 14 -5 19 -18 16 -12 -4
-34 13 -68 50 -66 72 -83 104 -64 120 9 9 15 9 19 2 4 -6 18 -14 31 -19 13 -5
37 -28 54 -51 16 -23 30 -36 30 -30 0 7 -16 31 -35 54 -19 22 -33 43 -30 45 5
5 -47 85 -79 121 -12 13 -45 41 -73 62 -58 43 -83 82 -83 129 0 39 14 39 30
-1 13 -32 130 -152 139 -143 3 3 0 9 -7 13 -7 4 -15 19 -17 33 -4 22 -2 25 14
21 10 -2 24 -16 31 -29 18 -32 24 -24 9 12 -7 16 -13 32 -14 37 -2 4 -4 10 -5
15 -1 4 -1 19 0 34 1 22 -2 27 -14 22 -9 -3 -23 -1 -31 6 -13 11 -14 10 -8 -6
8 -22 -28 19 -77 89 -18 26 -37 47 -42 47 -4 0 -8 7 -8 16 0 8 -11 30 -25 48
-18 23 -21 33 -10 33 7 0 13 -5 12 -11 -1 -6 5 -10 14 -8 9 1 22 -5 29 -13 15
-18 34 -20 24 -2 -10 16 25 -12 48 -38 10 -11 17 -15 18 -8 0 6 -5 15 -10 18
-8 5 -7 12 2 23 11 13 10 15 -4 9 -10 -3 -20 -1 -24 5 -4 7 -3 8 4 4 6 -4 18
6 27 23 14 28 14 30 -2 24 -10 -3 -23 -10 -29 -14 -12 -10 -24 -2 -24 16 0 6
12 27 26 46 15 19 24 26 21 17 -5 -13 0 -16 21 -14 21 3 28 10 33 34 4 18 5
45 3 62 -4 36 10 39 32 5z m485 -460 c26 -55 70 -131 98 -170 28 -38 51 -75
51 -83 0 -7 -7 -27 -16 -45 -15 -28 -31 -93 -49 -199 -3 -21 -10 -40 -14 -43
-5 -3 -21 25 -36 63 -14 37 -46 104 -71 149 -42 78 -44 85 -34 127 9 41 7 207
-5 321 l-5 50 17 -35 c9 -19 38 -80 64 -135z m563 74 c-3 -22 -9 -51 -14 -64
-12 -33 1 -73 44 -129 19 -26 40 -64 46 -86 6 -22 18 -45 28 -52 26 -19 102
-112 102 -125 0 -6 7 -13 15 -17 8 -3 15 -11 15 -18 0 -7 9 -24 20 -38 11 -14
20 -29 20 -34 0 -15 -91 86 -101 112 -4 12 -16 22 -26 22 -13 0 -14 3 -6 8 9
6 2 19 -26 46 -35 34 -40 36 -45 19 -3 -10 -1 -34 4 -53 7 -24 6 -36 -2 -41
-6 -4 -8 -19 -5 -38 5 -24 3 -29 -8 -24 -8 3 -15 1 -15 -5 0 -6 5 -12 12 -14
9 -3 9 -19 -1 -65 -11 -60 -11 -62 24 -143 45 -102 62 -186 48 -232 -10 -31
-11 -30 -12 29 -1 34 -5 65 -11 68 -5 3 -10 0 -10 -9 0 -8 -7 -13 -17 -11 -10
2 -24 4 -30 4 -8 1 -13 17 -13 44 0 23 -3 72 -6 109 -6 54 -11 69 -25 73 -16
5 -19 17 -19 64 0 32 5 62 13 70 10 10 9 11 -4 6 -16 -6 -28 18 -29 53 0 22
18 12 28 -15 10 -28 10 -28 11 9 1 20 -4 49 -10 65 -6 15 -11 42 -11 58 1 19
-9 40 -25 58 -31 31 -17 37 17 7 13 -11 31 -20 42 -20 14 0 18 8 18 38 -1 20
-7 48 -14 61 l-13 24 -14 -36 c-7 -20 -15 -37 -19 -37 -11 0 -78 76 -94 107
-9 18 -31 50 -48 70 -18 21 -26 32 -18 26 8 -7 20 -13 28 -13 10 0 7 8 -8 30
-23 33 -17 40 12 13 18 -16 18 -16 12 3 -4 10 -14 27 -22 37 -10 12 -11 17 -3
17 7 0 9 5 5 11 -12 21 35 -10 71 -46 l34 -35 16 27 c9 16 14 20 11 10 -4 -11
-9 -31 -12 -45 -5 -24 -4 -25 6 -8 15 22 17 84 5 111 -8 20 -8 20 13 2 16 -15
20 -27 16 -58z m-817 -765 c14 -63 16 -147 3 -139 -5 3 -10 15 -10 27 0 17 -2
18 -15 8 -12 -10 -15 -10 -15 1 -1 10 -4 9 -14 -3 -17 -23 -22 -23 -31 5 -8
21 -8 21 -12 -5 -2 -16 -8 -28 -13 -28 -14 0 -30 -70 -30 -132 0 -83 -17 -71
-25 18 -11 114 -3 165 40 248 l38 74 36 -12 c32 -12 37 -19 48 -62z m-1050
-1574 c14 -49 30 -90 35 -90 11 0 10 13 -7 90 -15 74 -12 94 5 29 6 -24 26
-93 45 -154 19 -60 43 -147 55 -193 l21 -83 -21 -29 c-11 -15 -20 -32 -20 -37
0 -5 -11 -20 -25 -33 -14 -13 -25 -29 -25 -35 0 -6 -14 -32 -30 -57 -29 -44
-64 -66 -76 -47 -3 5 1 9 8 9 7 0 2 10 -12 23 -33 31 -68 72 -52 63 19 -11 14
2 -13 38 -27 36 -32 51 -12 40 6 -4 3 3 -8 15 -15 17 -16 24 -6 30 10 7 8 17
-8 50 -12 22 -18 41 -15 41 4 0 0 8 -8 18 -26 31 -52 96 -39 100 14 5 15 39 1
47 -5 3 -10 11 -10 16 0 6 5 7 10 4 6 -3 10 3 10 14 0 10 6 21 13 24 8 3 9 9
2 22 -8 13 -1 26 32 61 24 24 42 48 41 52 -3 16 14 40 26 36 7 -3 19 2 26 11
7 8 16 15 21 15 5 0 21 -40 36 -90z m857 -7998 c41 2 56 -11 56 -53 0 -67 -85
-77 -105 -11 -5 17 -15 32 -22 32 -10 0 -126 -69 -141 -85 -2 -2 -6 -21 -9
-42 -9 -80 -45 -145 -72 -129 -5 4 -12 2 -16 -4 -3 -5 -11 -10 -17 -10 -6 0
-3 9 7 20 10 12 25 18 32 15 8 -2 11 0 8 5 -3 6 -1 10 5 10 13 0 40 61 40 92
0 20 -4 19 -42 -17 -27 -25 -22 -18 13 20 31 33 55 66 52 73 -3 6 0 12 6 12 6
0 11 -6 11 -12 1 -8 6 -6 14 5 7 9 40 30 72 47 32 16 55 30 51 30 -5 0 -5 5
-1 11 5 8 8 8 14 0 4 -7 23 -11 44 -9z"/>
<path d="M5269 14101 c20 -36 33 -114 21 -121 -6 -4 -13 -19 -14 -33 -3 -22
-1 -25 15 -17 23 13 42 13 34 0 -4 -6 11 -26 32 -46 21 -20 56 -52 77 -72 27
-26 37 -31 31 -17 -4 11 -13 43 -21 70 -9 33 -24 59 -44 76 -16 14 -30 32 -30
40 0 30 -80 139 -102 139 -5 0 -4 -8 1 -19z"/>
</g>
</svg>
