<?xml version="1.0" standalone="no"?>
<!DOCTYPE svg PUBLIC "-//W3C//DTD SVG 20010904//EN"
 "http://www.w3.org/TR/2001/REC-SVG-20010904/DTD/svg10.dtd">
<svg version="1.0" xmlns="http://www.w3.org/2000/svg"
 width="840.000000pt" height="859.000000pt" viewBox="0 0 840.000000 859.000000"
 preserveAspectRatio="xMidYMid meet">
<metadata>
Created by potrace 1.15, written by Peter Selinger 2001-2017
</metadata>
<g transform="translate(0.000000,859.000000) scale(0.100000,-0.100000)"
fill="#000000" stroke="none">
<path d="M3090 8500 c-88 -18 -130 -38 -216 -102 -65 -49 -110 -105 -156 -198
-44 -87 -49 -109 -12 -54 64 96 237 250 317 281 23 9 45 21 48 26 3 5 42 19
85 32 43 13 71 24 62 24 -9 1 -22 3 -30 5 -7 2 -51 -4 -98 -14z"/>
<path d="M2989 8391 c-80 -57 -232 -208 -223 -222 4 -7 3 -9 -4 -5 -14 8 -66
-59 -81 -106 -7 -20 -19 -42 -27 -49 -41 -34 -56 -183 -37 -364 14 -125 32
-185 71 -235 34 -44 191 -200 221 -220 20 -14 22 -18 10 -43 -7 -15 -15 -27
-19 -27 -4 0 -28 27 -54 59 -25 33 -69 76 -96 96 -28 20 -57 49 -65 64 l-14
26 -1 -36 c0 -38 34 -90 83 -129 21 -16 24 -27 22 -67 l-2 -48 -99 -31 c-121
-38 -194 -75 -233 -119 -61 -70 -148 -239 -207 -402 -42 -119 -139 -451 -149
-513 -4 -24 -18 -73 -31 -108 -29 -75 -23 -94 33 -112 21 -7 42 -16 47 -21 17
-15 6 -240 -24 -479 -16 -129 -43 -370 -60 -535 -29 -297 -38 -370 -65 -555
-8 -52 -35 -257 -59 -455 -109 -866 -128 -1000 -161 -1165 -19 -97 -35 -191
-35 -211 0 -22 12 -56 35 -93 46 -77 68 -103 187 -222 l101 -102 -18 -73 c-9
-41 -34 -137 -55 -214 -49 -180 -92 -387 -88 -422 4 -36 52 -54 250 -93 184
-36 320 -50 500 -50 l136 0 16 -47 c8 -27 26 -93 40 -148 14 -55 39 -152 56
-215 16 -63 33 -143 36 -177 l7 -62 -45 -53 c-25 -29 -55 -73 -67 -98 -24 -51
-59 -103 -92 -140 -25 -26 -43 -100 -28 -114 12 -13 98 -24 183 -25 87 -1 145
16 159 46 8 19 18 23 53 23 56 0 74 8 74 32 0 10 3 17 8 15 4 -3 30 -1 57 3
46 7 53 5 81 -20 43 -37 128 -52 221 -39 144 20 170 36 159 93 -8 39 -28 50
-78 41 -30 -5 -36 -2 -63 36 -16 22 -30 44 -30 47 -1 15 -38 62 -45 57 -4 -2
-16 5 -26 18 -16 18 -16 19 -1 8 15 -12 17 -11 17 13 0 14 -5 26 -11 26 -6 0
-9 6 -6 14 3 7 0 13 -6 12 -7 0 -13 2 -15 6 -1 5 -11 24 -23 44 -23 42 -22 61
17 294 38 227 43 249 62 254 54 16 274 36 452 42 113 3 221 9 240 13 32 7 35
10 34 39 -2 37 -10 34 156 57 245 34 350 70 350 121 0 46 -35 192 -94 386 -19
65 -72 265 -116 445 -45 180 -122 492 -171 692 -50 200 -89 373 -86 385 2 11
18 68 35 126 57 192 65 265 65 585 1 324 -4 377 -63 625 -45 190 -52 213 -150
530 l-73 235 -7 170 c-5 94 -11 193 -15 221 -7 50 -6 52 20 65 16 8 33 22 39
32 9 15 5 23 -22 47 -28 23 -36 40 -49 101 -8 41 -46 175 -85 299 -38 124 -82
268 -97 321 -30 104 -63 169 -118 230 -32 35 -64 54 -48 29 12 -19 -13 -10
-43 15 l-30 25 1 -23 c0 -12 -3 -30 -7 -39 -6 -13 -3 -20 10 -25 11 -4 27 -16
36 -28 17 -20 17 -20 18 0 0 11 5 27 10 35 7 10 8 -2 5 -38 -2 -30 0 -64 4
-75 4 -13 3 -31 -4 -44 l-12 -23 -19 23 c-34 38 -43 52 -59 91 -9 21 -11 35
-6 31 6 -3 11 -2 11 4 0 5 -4 12 -10 16 -5 3 -7 12 -4 19 3 8 -4 20 -15 28
-24 17 -46 68 -30 68 7 0 4 12 -6 28 l-18 27 24 -20 c13 -11 28 -24 32 -30 4
-5 5 7 1 27 -6 34 -4 37 23 40 23 2 29 8 31 35 3 25 -3 36 -27 54 -25 18 -29
27 -24 50 4 20 1 29 -8 29 -10 0 -10 3 -1 12 16 16 15 33 -4 74 -13 26 -21 33
-35 29 -24 -8 -24 -1 1 33 11 15 26 53 34 86 9 32 27 73 41 92 34 45 32 56 -3
14 -28 -33 -30 -33 -61 -20 -28 11 -34 11 -42 -1 -6 -10 -3 -17 11 -23 25 -11
25 -21 -1 -58 -52 -73 -154 -104 -233 -72 -25 11 -46 24 -46 30 0 12 36 12 47
-1 5 -4 2 -5 -6 0 -10 5 -12 4 -7 -4 4 -6 13 -8 19 -4 7 4 31 9 55 11 34 3 51
12 88 48 l46 44 -45 0 c-56 0 -189 25 -218 41 -22 11 -22 12 -3 26 19 14 19
14 -1 29 -11 9 -48 29 -83 45 -48 23 -67 38 -77 62 -8 18 -14 29 -15 25 0 -4
-13 -2 -30 3 -16 6 -29 14 -29 17 3 20 -3 23 -18 11 -16 -12 -17 -12 -5 2 7 9
9 24 6 34 -5 13 -9 14 -15 3 -7 -10 -9 -9 -9 3 0 9 -7 20 -16 23 -11 4 -13 12
-8 28 4 13 7 28 7 34 0 5 15 11 33 12 28 2 81 -28 104 -60 3 -4 27 -13 53 -19
45 -13 47 -12 77 16 19 19 30 39 30 57 0 40 14 35 35 -13 16 -34 20 -38 26
-22 4 10 28 38 53 62 46 44 57 40 37 -12 -10 -25 -10 -25 20 -10 17 8 48 32
69 52 29 28 43 35 55 28 9 -5 23 -6 31 -3 8 3 14 1 14 -4 0 -6 -8 -10 -19 -10
-27 0 -37 -18 -45 -78 -8 -60 3 -82 40 -82 12 0 30 10 38 22 12 16 16 18 16 7
0 -40 -65 -64 -90 -34 -7 9 -15 13 -18 10 -10 -10 33 -34 60 -35 38 0 62 38
55 89 -4 34 -2 38 13 34 10 -3 26 -14 36 -24 9 -10 23 -19 31 -19 9 0 13 -13
13 -42 0 -25 4 -38 9 -32 19 20 93 242 98 295 5 49 3 58 -20 84 -23 28 -27 29
-51 16 -14 -8 -27 -12 -28 -10 -28 45 -30 52 -14 46 11 -4 13 -1 9 11 -3 9
-10 23 -16 30 -6 8 -5 12 4 12 9 1 6 7 -8 19 -12 10 -19 21 -16 25 4 3 -1 6
-10 6 -11 0 -17 8 -17 24 0 28 -37 79 -54 73 -6 -2 -27 4 -48 14 -45 23 -118
40 -118 28 0 -5 8 -9 18 -9 10 0 19 -7 19 -16 0 -12 -11 -15 -51 -14 -95 4
-116 1 -110 -15 4 -9 19 -15 35 -15 18 0 29 -5 29 -14 0 -16 33 -26 72 -22 15
2 25 -1 22 -5 -7 -12 13 -11 36 1 16 8 19 7 17 -11 -3 -37 -127 -129 -127 -95
0 7 -7 19 -15 26 -8 7 -15 21 -15 31 0 24 -30 39 -79 39 -31 0 -43 5 -51 21
-20 37 3 57 100 88 l35 10 -37 -2 c-27 -2 -38 1 -38 11 0 9 -6 12 -16 8 -9 -3
-34 -9 -57 -12 -37 -6 -40 -5 -24 7 16 13 14 14 -18 13 -37 -1 -76 -17 -107
-43 -10 -8 -18 -10 -18 -6 0 5 15 21 33 36 28 25 30 28 11 29 -11 0 -45 -17
-75 -39z m549 -143 c-6 -18 18 -40 39 -36 14 2 18 -4 19 -32 2 -54 3 -57 22
-33 17 22 17 22 19 -20 1 -23 11 -68 21 -99 l19 -56 -69 -4 c-38 -2 -73 -1
-78 0 -6 2 -1 16 10 32 27 38 27 96 -1 111 -13 6 -24 7 -28 2 -3 -5 -16 -10
-29 -10 -19 -2 -20 1 -12 17 15 28 13 30 -16 20 -23 -9 -25 -8 -18 12 11 36
42 76 72 92 35 18 34 18 30 4z m-552 -1128 c29 -16 30 -30 4 -60 -12 -14 -20
-37 -20 -61 0 -61 -18 -59 -82 12 -49 54 -54 64 -38 67 12 2 20 11 20 23 0 18
1 18 35 -1 l35 -20 -6 24 c-3 13 0 35 7 48 13 23 14 23 17 2 2 -12 14 -27 28
-34z m74 -127 c0 -13 -7 -40 -15 -60 -19 -45 -19 -53 1 -28 17 21 16 16 -5
-26 -11 -23 -11 -30 4 -53 18 -28 35 -34 35 -13 0 6 9 -1 20 -18 19 -29 27
-85 14 -98 -4 -3 -15 -2 -25 4 -16 8 -14 3 6 -27 14 -20 25 -43 25 -50 0 -18
21 -29 30 -15 4 7 10 -34 14 -91 8 -124 12 -153 25 -198 6 -19 11 -46 11 -60
-1 -22 -2 -23 -13 -8 -9 12 -17 14 -30 7 -12 -7 -17 -6 -17 3 -1 25 -29 -37
-30 -64 0 -15 -4 -30 -10 -33 -6 -4 -10 15 -10 50 0 59 39 155 62 155 7 0 5 5
-4 13 -8 6 -18 27 -22 46 -4 21 -24 53 -51 82 -43 46 -55 69 -36 69 5 0 14 -7
21 -15 23 -27 29 -16 12 25 -9 26 -37 60 -73 91 -59 51 -79 83 -61 101 7 7 12
4 16 -9 3 -10 25 -37 47 -59 33 -31 40 -35 34 -17 -5 18 -3 22 9 17 17 -7 22
11 6 21 -5 3 -10 15 -10 26 0 12 -5 19 -12 17 -15 -5 -22 1 -71 66 -45 59 -47
71 -7 51 40 -21 48 -19 48 10 0 15 -6 25 -15 25 -22 0 -10 23 20 38 21 10 27
20 27 44 0 26 2 29 15 18 8 -7 15 -23 15 -37z m271 -220 c16 -37 47 -92 68
-123 35 -51 37 -59 26 -81 -7 -13 -15 -42 -19 -64 -18 -106 -15 -104 -46 -32
-15 36 -36 78 -47 94 -14 19 -18 34 -12 48 7 19 3 155 -7 203 -8 41 6 23 37
-45z m478 -193 c21 -30 44 -66 51 -80 12 -23 12 -24 -4 -11 -10 8 -26 31 -36
50 -10 20 -37 56 -59 81 -35 38 -41 41 -35 20 4 -14 23 -45 43 -70 45 -54 84
-110 78 -110 -3 0 -30 30 -61 66 l-57 67 1 -44 c1 -24 -2 -69 -7 -99 -8 -48
-6 -62 14 -109 13 -30 26 -72 29 -95 5 -40 5 -40 -10 -16 -8 14 -17 24 -20 23
-20 -9 -26 4 -26 56 0 40 -5 65 -15 75 -18 18 -20 67 -2 85 8 10 8 12 0 7 -6
-3 -14 -2 -18 4 -3 5 -1 10 6 10 15 0 3 98 -14 119 -10 12 -9 13 10 3 32 -18
36 -15 31 23 -2 19 0 35 5 35 5 0 3 8 -4 18 -7 9 4 1 25 -18 21 -19 55 -60 75
-90z m-1256 -1194 c7 8 45 -97 69 -189 l20 -78 -26 -34 c-14 -18 -26 -38 -26
-44 0 -5 -11 -22 -25 -37 -25 -27 -26 -27 -40 -8 -8 10 -19 36 -25 57 -6 20
-17 37 -24 37 -8 0 -13 14 -14 36 -1 20 -8 44 -15 53 -23 26 -26 45 -15 97 6
32 20 59 38 76 16 15 32 38 36 50 l7 22 17 -22 c10 -11 20 -19 23 -16z"/>
<path d="M6065 4508 c-11 -6 -58 -43 -105 -83 -47 -39 -112 -91 -145 -115 -33
-24 -81 -63 -107 -87 -41 -38 -44 -43 -25 -44 35 -2 58 -7 122 -24 33 -9 73
-17 88 -18 15 -1 31 -7 35 -12 17 -24 186 -95 224 -95 10 0 18 -3 18 -8 0 -4
20 -18 45 -31 36 -19 48 -21 59 -11 22 17 51 4 87 -41 43 -55 146 -132 155
-117 12 18 6 81 -12 129 -12 31 -17 79 -18 160 -2 136 6 121 -144 263 -134
127 -218 167 -277 134z"/>
<path d="M5455 3700 c-72 -29 -126 -163 -95 -235 6 -14 9 -4 9 38 2 112 63
176 158 163 54 -7 88 -29 103 -67 15 -36 8 -104 -14 -128 -20 -22 -21 -38 -2
-21 8 6 22 31 32 55 14 37 14 51 4 94 -17 71 -63 111 -128 110 -26 0 -56 -4
-67 -9z"/>
<path d="M5729 3633 c-42 -38 -65 -103 -56 -159 16 -100 105 -145 221 -113 38
11 96 60 96 82 0 5 -11 -2 -25 -17 -31 -33 -83 -56 -129 -56 -141 0 -204 146
-102 239 20 19 40 26 85 29 97 7 158 -39 170 -130 6 -48 8 -50 14 -23 15 64
-24 138 -89 166 -69 31 -139 24 -185 -18z"/>
<path d="M5504 3606 c-50 -22 -59 -72 -19 -111 35 -35 76 -33 109 6 34 40 33
62 -5 93 -35 30 -42 30 -85 12z"/>
<path d="M5786 3555 c-53 -49 -19 -119 56 -113 78 6 104 89 38 123 -41 21 -63
19 -94 -10z"/>
<path d="M4610 3268 c0 -6 11 -40 25 -74 25 -62 25 -94 -1 -94 -25 0 -69 23
-116 62 -49 40 -68 47 -68 25 0 -8 29 -34 65 -58 40 -27 65 -51 65 -62 0 -13
-5 -17 -17 -13 -48 14 -91 17 -97 7 -5 -7 2 -11 16 -11 62 0 201 -54 263 -102
68 -52 221 -226 254 -287 20 -37 58 -87 93 -119 32 -30 61 -67 65 -81 3 -14
15 -42 27 -61 11 -19 28 -51 36 -72 l15 -37 32 20 33 21 -29 36 c-16 21 -40
57 -52 82 -12 25 -38 62 -56 83 -18 20 -33 40 -33 45 0 4 -19 27 -41 52 -31
35 -40 51 -36 73 4 27 -8 38 -16 15 -4 -14 -88 73 -150 156 -22 28 -48 61 -59
72 -17 19 -18 30 -12 84 5 49 4 62 -6 58 -7 -2 -14 -17 -16 -32 -5 -53 -22
-55 -62 -8 -20 23 -43 42 -50 42 -7 0 -11 4 -8 9 6 9 -16 128 -29 164 -8 19
-35 24 -35 5z"/>
<path d="M5922 2117 c-22 -26 -24 -66 -7 -119 10 -29 21 -58 26 -63 13 -17 99
-281 99 -303 0 -11 14 -50 30 -87 23 -52 28 -71 19 -81 -9 -11 -7 -15 5 -20 9
-3 16 -16 16 -28 0 -11 7 -46 15 -76 13 -48 13 -56 -1 -71 -8 -9 -27 -19 -42
-23 -39 -8 -56 -22 -49 -40 10 -26 37 -31 67 -12 16 9 30 16 33 16 3 0 5 -21
5 -47 -1 -35 -11 -69 -39 -125 -46 -92 -49 -118 -15 -118 30 0 35 8 61 90 28
88 45 89 79 5 14 -36 26 -72 26 -80 0 -19 48 -31 63 -16 8 8 4 25 -16 66 -27
55 -34 85 -20 85 4 0 26 -18 49 -41 37 -37 44 -40 64 -29 22 12 21 13 -37 69
-56 53 -113 145 -113 181 0 25 -38 137 -72 210 -21 45 -31 86 -34 135 -7 106
-14 136 -26 129 -7 -4 -8 -3 -4 4 4 6 -2 24 -13 39 -25 34 -62 129 -54 137 3
3 -2 30 -11 59 -9 30 -16 58 -15 63 5 30 -3 75 -17 88 -19 19 -58 21 -72 3z"/>
<path d="M5283 2103 c-61 -8 -111 -108 -79 -157 53 -82 136 -122 193 -93 66
35 80 84 50 172 -22 64 -77 90 -164 78z"/>
<path d="M5240 1472 c-41 -20 -100 -64 -110 -81 -29 -55 6 -141 70 -173 48
-23 144 -23 197 1 35 16 43 25 49 56 12 64 -2 105 -49 152 -36 37 -50 44 -92
48 -28 3 -57 1 -65 -3z"/>
<path d="M5258 1090 c-36 -28 -54 -97 -38 -147 21 -64 52 -86 132 -91 79 -4
93 3 135 75 28 49 25 68 -19 119 -56 63 -159 85 -210 44z"/>
</g>
</svg>
