<?xml version="1.0" standalone="no"?>
<!DOCTYPE svg PUBLIC "-//W3C//DTD SVG 20010904//EN"
 "http://www.w3.org/TR/2001/REC-SVG-20010904/DTD/svg10.dtd">
<svg version="1.0" xmlns="http://www.w3.org/2000/svg"
 width="1200.000000pt" height="901.000000pt" viewBox="0 0 1200.000000 901.000000"
 preserveAspectRatio="xMidYMid meet">
<metadata>
Created by potrace 1.15, written by Peter Selinger 2001-2017
</metadata>
<g transform="translate(0.000000,901.000000) scale(0.100000,-0.100000)"
fill="#000000" stroke="none">
<path d="M11027 8943 c-3 -38 -1 -76 5 -86 5 -10 7 -51 4 -90 -3 -40 -5 -83
-5 -97 3 -140 6 -178 13 -193 5 -11 4 -34 -3 -57 -8 -26 -8 -46 -1 -65 14 -36
13 -105 -1 -105 -7 0 -9 -9 -5 -22 4 -13 9 -57 12 -98 2 -41 9 -87 15 -102 12
-31 35 -43 43 -23 3 9 0 12 -9 9 -20 -8 -15 77 5 94 13 10 13 11 -2 6 -14 -5
-18 -1 -18 15 0 12 5 21 10 21 6 0 10 4 10 9 0 5 -7 8 -16 7 -9 0 -19 5 -21
12 -4 9 3 11 24 7 23 -4 24 -4 8 4 -11 5 -15 10 -10 10 6 1 3 5 -5 11 -13 8
-13 9 0 14 37 12 43 16 18 12 -16 -2 -28 1 -28 5 0 5 6 9 13 9 7 0 8 3 2 8
-14 10 -15 92 -1 92 6 0 4 5 -4 10 -13 9 -13 11 0 20 8 5 10 10 5 10 -6 0 -12
13 -13 28 -1 21 4 32 20 41 22 10 22 11 2 6 -29 -7 -41 23 -17 41 13 10 14 13
3 9 -13 -5 -16 4 -15 47 0 35 5 57 15 66 13 11 13 11 0 7 -19 -7 -24 32 -10
70 7 18 6 25 -3 25 -6 0 2 12 18 26 25 20 25 22 4 10 l-25 -16 -2 57 c-1 31 4
63 10 70 14 17 -13 18 -30 1 -9 -9 -12 -9 -12 3 0 8 6 21 13 27 15 16 17 102
1 102 -7 0 -13 -27 -17 -67z"/>
<path d="M11060 7823 c0 -47 -22 -145 -56 -256 -19 -59 -34 -115 -34 -125 0
-10 -7 -27 -15 -39 -11 -15 -12 -28 -6 -45 8 -18 10 -19 10 -5 1 12 5 16 14
11 8 -5 8 -2 -2 9 -12 15 -10 17 15 18 16 1 22 3 12 6 -22 6 -17 72 6 85 9 5
16 16 16 23 0 8 4 15 10 15 5 0 7 7 4 15 -4 10 0 15 12 15 15 0 16 2 5 9 -11
7 -10 11 5 20 11 6 13 11 7 11 -20 0 -15 20 5 21 9 0 12 3 6 5 -18 8 -4 44 17
44 10 0 20 4 23 9 3 4 -7 6 -22 3 -19 -3 -24 -1 -17 6 6 6 20 13 32 15 13 2
26 7 30 12 5 4 2 5 -4 1 -7 -4 -13 -2 -13 3 0 6 3 11 8 12 21 2 44 8 49 13 3
3 -16 3 -43 0 -55 -5 -51 11 4 19 53 8 50 17 -4 12 l-49 -5 33 15 c37 17 44
29 9 16 -14 -6 -30 -6 -38 0 -8 5 -12 9 -9 10 45 8 56 11 65 20 7 7 2 7 -15 1
-30 -11 -50 -5 -50 14 0 8 -4 14 -10 14 -5 0 -10 -12 -10 -27z"/>
<path d="M9915 7325 c105 -68 122 -86 33 -34 -128 75 -127 75 -73 25 28 -25
44 -46 37 -46 -17 0 47 -92 93 -135 17 -16 38 -41 45 -55 7 -14 22 -31 32 -38
10 -8 18 -19 16 -25 -2 -14 34 -77 45 -77 4 0 6 3 6 8 -4 22 3 32 21 32 12 0
20 7 20 18 1 13 6 11 25 -11 14 -15 25 -24 25 -18 0 5 -4 13 -10 16 -5 3 -10
11 -10 17 0 6 11 1 25 -12 l24 -23 -9 32 c-5 18 -15 40 -22 49 -10 12 -10 14
0 8 6 -4 12 -3 12 3 0 5 -4 13 -10 16 -5 3 -10 14 -10 23 1 13 7 9 26 -13 18
-21 24 -24 19 -10 -17 45 -17 62 0 69 9 3 22 3 27 -1 7 -4 8 -1 3 7 -5 9 -2
10 14 5 13 -4 21 -2 21 5 0 6 -6 12 -12 14 -7 2 -42 11 -78 21 -36 9 -83 24
-105 34 -22 9 -43 15 -48 13 -5 -1 -52 24 -105 56 -181 110 -233 128 -77 27z"/>
<path d="M10916 7335 c-12 -59 -37 -127 -58 -154 -10 -13 -16 -27 -13 -31 3
-4 -2 -13 -10 -20 -8 -7 -13 -16 -10 -20 3 -4 -11 -32 -30 -61 -20 -28 -38
-56 -41 -60 -3 -5 3 -6 13 -3 17 5 17 5 0 -9 -10 -8 -17 -19 -16 -23 1 -5 -1
-18 -5 -29 -4 -11 -13 -33 -19 -50 -6 -16 -30 -70 -53 -120 -23 -49 -48 -109
-55 -133 -7 -23 -18 -47 -26 -53 -7 -6 -13 -19 -13 -29 0 -9 -22 -60 -50 -111
-58 -111 -66 -148 -20 -99 34 36 35 41 18 58 -9 9 -9 12 -1 12 7 0 15 -4 18
-10 3 -5 12 -10 18 -10 7 0 1 10 -13 21 l-25 21 33 -6 c18 -3 32 -1 32 4 0 6
-5 9 -12 7 -17 -3 -19 43 -2 50 7 2 10 11 8 18 -3 7 5 23 18 35 13 13 17 20
11 16 -21 -12 -15 5 10 28 13 12 23 36 25 56 1 19 9 40 17 46 8 6 15 19 15 28
0 9 8 16 18 17 10 0 12 3 5 6 -7 2 -13 10 -13 15 0 6 3 9 6 5 10 -10 45 66 40
86 -2 10 2 17 10 17 8 0 14 7 14 15 0 8 3 15 8 15 4 0 8 18 8 40 1 28 8 46 24
60 12 10 19 24 15 30 -3 5 1 13 10 16 10 4 15 14 12 25 -3 11 -1 19 5 19 5 0
6 5 3 10 -3 6 -2 10 2 10 5 0 14 -4 21 -10 9 -7 9 -7 2 2 -5 7 -10 19 -10 28
0 12 2 12 9 2 6 -11 10 -10 15 3 3 10 1 24 -5 31 -9 11 -7 20 5 39 9 13 16 31
16 39 0 9 6 14 13 12 6 -1 9 -1 5 1 -14 8 -9 21 10 26 14 4 14 5 -3 6 -15 1
-17 4 -7 10 9 5 12 23 10 52 l-4 44 -8 -40z"/>
<path d="M8460 7351 c-19 -4 -63 -22 -97 -39 -34 -18 -66 -32 -70 -32 -4 1 17
14 47 30 42 22 49 29 31 30 -31 0 -344 -50 -350 -56 -3 -3 1 -10 9 -15 12 -8
9 -9 -10 -8 -31 3 -169 -20 -190 -31 -13 -7 -13 -10 3 -15 23 -9 22 -32 -3
-47 -11 -7 -20 -18 -20 -25 0 -7 -7 -13 -15 -13 -18 0 -20 -16 -2 -23 9 -4 8
-6 -2 -6 -26 -2 10 -31 38 -31 35 0 48 10 56 43 6 24 16 33 29 25 2 -2 14 8
26 22 17 20 20 21 15 6 -6 -19 -5 -19 14 -2 14 13 24 15 36 8 16 -8 16 -9 0
-16 -15 -5 -15 -9 -4 -23 11 -13 11 -17 2 -20 -15 -5 -18 -33 -4 -33 8 0 21
28 25 53 1 10 36 37 48 37 4 0 3 -12 -2 -26 -13 -34 -13 -39 5 -24 8 7 15 19
15 26 0 8 5 14 10 14 6 0 10 -13 10 -30 0 -34 7 -37 36 -15 10 8 27 15 37 15
9 0 17 4 17 10 0 6 9 6 26 0 16 -6 32 -7 43 0 10 5 29 11 42 14 13 3 35 8 48
12 17 5 22 4 17 -4 -4 -7 -2 -12 3 -12 6 0 11 6 11 13 0 8 19 20 43 26 23 7
61 22 85 32 64 30 192 31 280 4 19 -6 21 -5 15 11 -6 18 -6 18 15 0 13 -11 22
-14 22 -7 0 34 -113 91 -231 116 -75 16 -103 17 -159 6z"/>
<path d="M8145 7055 c-14 -13 -25 -32 -25 -42 0 -15 2 -16 10 -3 5 8 12 11 16
8 3 -4 -6 -19 -21 -34 -17 -17 -23 -30 -17 -32 19 -6 14 -23 -5 -20 -10 2 -18
-3 -18 -12 0 -22 -19 -76 -86 -246 -32 -83 -59 -157 -59 -163 0 -6 -4 -11 -9
-11 -4 0 -14 -21 -21 -46 -11 -38 -11 -58 0 -113 7 -36 16 -70 20 -76 4 -5 10
-21 14 -35 9 -39 43 -77 56 -64 7 7 5 25 -6 60 -24 74 -27 151 -7 209 l17 50
9 -32 c11 -36 23 -42 30 -15 4 13 5 12 6 -5 1 -30 21 -40 22 -11 1 18 3 16 10
-10 12 -42 29 -32 29 18 0 21 11 114 25 207 13 92 27 204 31 248 10 120 10
120 18 133 4 7 3 12 -3 12 -7 0 -7 8 -1 25 12 33 -3 33 -35 0z"/>
<path d="M10286 6922 c8 -24 16 -60 19 -80 12 -94 18 -128 26 -142 9 -15 12
-4 12 43 0 9 4 17 8 17 5 0 9 -13 9 -29 0 -24 3 -28 23 -24 21 4 22 9 22 78 0
40 -3 71 -8 68 -4 -2 -10 3 -13 11 -3 9 -10 13 -15 10 -5 -3 -12 2 -15 10 -9
25 -27 19 -21 -6 3 -13 2 -32 -2 -43 -6 -14 -10 -6 -15 32 -3 28 -15 62 -26
75 l-19 23 15 -43z"/>
<path d="M9810 6880 c-14 -4 -19 -8 -11 -9 25 -2 -20 -30 -59 -37 -36 -7 -121
-50 -175 -89 -16 -12 -48 -31 -70 -42 -22 -11 -70 -37 -108 -56 -37 -20 -64
-31 -61 -25 5 7 -2 9 -22 4 -43 -11 -49 -22 -30 -51 14 -21 24 -25 49 -23 46
6 96 30 144 71 24 19 60 45 80 58 116 68 318 211 296 208 -4 -1 -19 -5 -33 -9z"/>
<path d="M9922 6838 c-7 -7 -12 -9 -12 -5 0 4 -15 -2 -34 -13 -25 -13 -36 -15
-39 -7 -2 8 -9 6 -21 -6 -10 -9 -24 -17 -32 -17 -8 0 -14 -5 -14 -11 0 -5 -4
-7 -10 -4 -9 6 -59 -21 -71 -39 -4 -5 -12 -5 -18 -2 -6 4 -14 0 -17 -8 -3 -9
-13 -16 -20 -16 -8 0 -17 -7 -20 -15 -4 -8 -12 -15 -18 -15 -23 0 -143 -108
-159 -142 -15 -31 -15 -40 -3 -79 8 -24 17 -60 20 -79 5 -28 13 -38 38 -48 27
-10 47 -7 147 20 64 17 122 31 129 31 6 0 12 4 12 8 0 4 11 10 25 13 14 4 25
11 25 16 0 6 6 10 14 10 8 0 16 4 18 8 4 9 108 74 108 67 0 -3 8 3 18 13 11 9
17 20 15 25 -2 4 2 7 10 7 11 0 14 11 11 47 -2 33 2 53 13 65 8 9 12 21 9 26
-3 5 1 15 10 23 8 7 19 20 25 30 7 15 6 17 -6 13 -11 -5 -15 1 -15 26 0 26 -3
30 -14 21 -11 -9 -15 -7 -19 10 -5 19 -8 20 -22 9 -13 -11 -15 -10 -9 4 3 9 2
16 -4 16 -6 0 -12 -6 -15 -12 -3 -10 -9 -8 -24 4 -15 14 -22 15 -31 6z m27
-186 c14 -10 28 -27 29 -37 6 -29 -117 -139 -202 -180 -84 -40 -91 -42 -81
-17 28 66 22 130 -16 184 -11 14 -19 28 -19 31 0 5 67 29 115 41 44 11 147 -2
174 -22z"/>
<path d="M8348 6621 c-35 -7 -94 -41 -138 -79 -21 -17 -27 -48 -10 -54 5 -2 6
-18 0 -42 -4 -21 -6 -45 -2 -54 4 -11 1 -14 -11 -9 -21 8 -22 -6 -2 -23 21
-17 8 -32 -16 -19 -12 6 -23 9 -25 6 -3 -2 21 -17 52 -33 45 -23 61 -39 82
-79 14 -27 25 -54 24 -58 -2 -5 7 -11 18 -14 11 -3 20 -10 20 -15 0 -5 6 -8
13 -7 6 1 25 -3 40 -9 44 -18 178 -13 332 13 l140 23 -118 1 -117 1 16 25 c28
43 35 98 19 151 -8 26 -12 50 -10 52 10 10 75 -11 118 -38 47 -30 107 -116
107 -154 0 -15 3 -17 11 -9 19 19 6 123 -20 163 -40 60 -129 111 -236 136 -16
4 -104 8 -195 10 -91 2 -168 3 -172 4 -22 1 -3 20 30 31 86 30 278 14 515 -42
91 -22 100 -22 140 -8 38 14 42 19 45 51 l3 36 -43 -10 c-57 -13 -224 4 -312
31 -29 9 -223 32 -249 30 -7 -1 -29 -5 -49 -8z"/>
<path d="M8278 5778 c-3 -7 -13 -13 -24 -13 -16 0 -19 -6 -16 -35 1 -19 9 -40
18 -47 13 -9 9 -14 -25 -29 -23 -10 -36 -21 -31 -24 6 -3 -6 -12 -25 -20 -49
-19 -44 -29 13 -24 45 4 46 4 22 -10 -20 -12 -22 -15 -7 -16 15 0 16 -2 5 -13
-7 -8 -20 -16 -28 -20 -9 -3 -4 -6 13 -6 17 -1 27 -6 27 -16 0 -8 5 -15 11
-15 5 0 7 -4 4 -10 -6 -10 3 -11 73 -10 56 1 27 -16 -52 -30 -142 -24 -382
-13 -421 20 -6 5 -24 6 -41 1 -27 -8 -25 -9 41 -29 39 -11 82 -24 98 -28 15
-3 31 -12 35 -19 4 -7 21 -15 37 -18 66 -13 128 -34 115 -40 -8 -3 10 -6 40
-7 40 -1 50 -4 35 -10 -11 -5 -33 -9 -50 -10 l-30 -1 25 -11 25 -10 -28 -8
c-15 -5 -67 -11 -115 -14 -48 -3 -88 -10 -90 -16 -2 -5 -10 -10 -18 -10 -8 0
-11 -6 -8 -15 4 -8 -1 -17 -10 -21 -9 -3 -13 -11 -9 -18 3 -6 3 -8 -2 -4 -4 4
-36 -17 -70 -47 -34 -30 -66 -55 -70 -55 -5 0 10 16 33 36 23 19 51 49 64 67
16 24 7 18 -38 -23 -33 -30 -77 -70 -99 -88 l-40 -33 30 6 c17 3 50 17 75 30
28 14 58 22 75 19 23 -3 25 -2 8 4 -21 7 -21 8 -4 28 14 18 26 21 71 18 40 -2
50 0 37 7 -9 6 -17 14 -17 19 0 11 35 8 46 -3 4 -4 30 -7 58 -8 28 -1 62 -4
76 -8 l25 -7 -22 -12 c-12 -7 -38 -12 -59 -12 -21 0 -35 -2 -33 -4 5 -4 82
-15 119 -16 20 0 22 -2 10 -10 -13 -8 -12 -10 5 -11 11 -1 27 0 34 1 12 1 13
-1 2 -14 -7 -8 -36 -20 -64 -26 -29 -6 -59 -15 -67 -21 -13 -9 -13 -10 2 -6 9
3 45 9 80 12 l63 6 -34 -17 c-30 -16 -31 -18 -14 -25 11 -4 23 -14 26 -22 6
-15 -19 -22 -128 -34 -48 -5 -103 -21 -77 -22 19 -1 14 -29 -5 -33 -13 -3 -10
-6 9 -10 15 -3 25 -1 22 3 -3 5 -1 9 5 9 5 0 12 -4 15 -9 3 -5 23 -8 45 -8 22
0 46 -5 54 -11 11 -9 17 -8 30 6 41 45 128 129 153 147 14 11 34 28 42 38 9 9
22 17 29 17 7 0 13 5 13 10 0 6 5 10 10 10 6 0 33 11 62 25 29 14 71 26 95 28
24 1 43 5 43 8 0 3 37 5 83 4 82 -2 161 -18 184 -37 7 -6 20 -8 28 -4 9 3 15
0 15 -8 0 -20 62 -7 87 19 20 21 27 46 24 87 -1 10 -44 40 -113 78 -343 190
-479 297 -584 459 -40 62 -49 70 -56 49z"/>
<path d="M9600 5661 c-41 -30 -190 -92 -280 -116 -47 -13 -112 -30 -145 -39
-37 -10 -76 -14 -101 -10 -69 10 -60 -12 13 -35 111 -34 170 -42 235 -31 101
16 212 78 257 144 l15 21 -25 -20 c-13 -11 -26 -23 -29 -26 -15 -17 -122 -60
-142 -57 -20 3 -16 7 27 32 67 39 142 90 185 126 38 32 30 41 -10 11z"/>
<path d="M6610 4489 c-7 -11 -17 -18 -25 -15 -8 3 -16 -9 -23 -35 -7 -28 -7
-39 2 -39 7 0 8 -3 0 -8 -17 -12 -56 -95 -47 -101 5 -3 45 -28 89 -55 43 -27
102 -64 129 -81 94 -60 165 -96 165 -86 0 6 -23 23 -51 39 -70 37 -96 61 -78
74 11 8 11 9 -1 5 -8 -2 -14 -9 -13 -15 2 -7 -25 7 -59 28 -72 47 -86 59 -40
36 39 -20 41 -13 5 19 -20 16 -30 20 -35 12 -5 -8 -8 -6 -8 6 0 9 -5 17 -11
17 -5 0 -7 5 -4 10 3 6 -1 10 -10 10 -10 0 -13 5 -9 12 5 8 2 9 -10 5 -14 -6
-15 -4 -5 16 11 20 11 21 -4 8 -10 -7 -17 -9 -17 -3 0 5 7 15 15 22 9 7 13 21
10 31 -3 9 -1 20 5 24 11 7 53 85 46 85 -3 0 -10 -9 -16 -21z"/>
<path d="M8571 4067 c-9 -12 -8 -16 5 -21 24 -9 28 -7 14 9 -7 9 -8 15 -2 15
13 0 23 -28 12 -35 -4 -3 -27 -3 -49 0 -24 3 -41 1 -41 -5 0 -5 6 -10 14 -10
7 0 16 -11 18 -25 4 -19 1 -25 -13 -25 -12 0 -19 7 -19 19 0 21 -56 37 -90 26
-21 -7 -28 -25 -10 -25 6 0 10 5 10 10 0 6 7 10 16 10 14 0 14 -3 4 -15 -7 -8
-25 -15 -41 -15 -16 0 -29 -4 -29 -9 0 -13 -47 -19 -62 -9 -10 8 -10 9 2 5 8
-2 24 -1 35 4 14 5 6 8 -29 8 l-49 1 22 -19 c20 -17 20 -20 6 -35 -18 -17 -30
-21 -21 -7 3 5 -1 12 -10 15 -22 9 -24 8 -18 -9 4 -10 0 -15 -15 -15 -23 0
-29 25 -8 34 6 4 2 4 -11 2 -17 -3 -22 -1 -18 9 3 9 0 12 -10 8 -7 -3 -14 -9
-14 -14 0 -5 -11 -9 -24 -9 -14 0 -28 -5 -31 -10 -4 -6 -15 -8 -26 -5 -10 4
-19 2 -19 -4 0 -6 -8 -8 -17 -4 -10 3 -15 2 -10 -2 4 -5 28 -8 53 -6 34 1 44
-1 38 -10 -5 -9 -2 -10 10 -6 10 4 21 7 24 7 4 0 0 5 -8 10 -13 8 -13 10 2 10
9 0 20 -4 23 -10 9 -15 111 -12 127 3 7 7 31 14 53 16 22 2 42 6 45 10 5 7 19
9 68 12 9 1 28 -2 42 -6 14 -4 33 -7 42 -7 10 1 24 -8 32 -20 10 -14 21 -18
38 -13 20 5 21 4 7 -7 -14 -12 -15 -15 -2 -27 13 -12 17 -12 24 0 7 9 7 5 3
-14 -5 -21 -3 -26 8 -22 17 7 48 -34 48 -61 0 -21 13 -10 16 14 2 9 -2 20 -9
25 -8 5 -5 7 8 4 11 -2 19 -9 17 -15 -1 -7 -4 -20 -5 -30 -2 -9 -9 -27 -15
-39 -11 -19 -10 -23 3 -23 8 0 15 5 15 11 0 5 5 7 10 4 6 -3 10 -11 10 -16 0
-6 -4 -8 -9 -5 -5 3 -11 0 -14 -8 -8 -21 4 -56 19 -56 9 0 14 -12 14 -35 0
-19 5 -35 11 -35 6 0 9 7 5 15 -3 8 -1 15 3 15 14 0 23 -32 11 -44 -15 -15
-12 -36 6 -36 10 0 14 6 10 15 -3 8 3 19 12 25 13 7 14 12 5 18 -9 6 -8 12 7
24 24 21 42 3 33 -31 -4 -14 -1 -27 8 -33 11 -8 10 -9 -4 -4 -19 6 -72 -22
-62 -33 4 -3 31 -6 60 -6 39 -1 56 3 60 13 3 8 2 18 -1 21 -4 3 -9 0 -11 -6
-3 -7 -9 -13 -14 -13 -14 0 -10 22 7 34 15 12 10 51 -6 41 -18 -11 -20 16 -4
33 16 15 16 17 2 20 -26 5 -29 29 -5 29 46 1 57 3 57 13 0 7 -7 7 -22 -1 -18
-10 -20 -9 -15 5 4 11 1 16 -11 17 -13 0 -12 3 6 11 22 11 30 28 12 28 -17 0
-11 25 9 37 13 8 18 21 16 47 -3 28 1 37 17 42 11 3 17 8 15 10 -6 6 -80 -28
-88 -40 -4 -4 -11 -1 -16 9 -9 16 -11 16 -27 0 -9 -10 -20 -14 -24 -10 -4 4
-1 10 6 12 6 3 12 9 12 15 0 6 -7 8 -15 5 -8 -4 -17 -1 -21 5 -5 7 -2 8 6 3
10 -6 11 -1 6 21 l-6 29 17 -27 c17 -27 33 -37 33 -20 0 5 22 19 50 32 27 13
48 25 46 27 -2 3 -27 -7 -55 -21 -56 -29 -61 -30 -61 -17 0 5 9 13 21 16 11 4
18 9 16 12 -3 2 -15 0 -26 -7 -25 -13 -28 -3 -3 17 15 13 14 13 -8 2 -13 -6
-25 -8 -27 -3 -11 31 -45 74 -55 68 -6 -4 -8 -3 -4 4 10 16 -14 26 -27 12 -9
-10 -9 -11 0 -6 9 5 11 2 7 -8 -9 -24 -26 -7 -20 19 4 14 1 25 -8 28 -9 4 -12
-2 -8 -18 3 -20 1 -23 -16 -18 -11 2 -24 15 -30 28 -7 15 -19 23 -34 22 -13 0
-30 3 -39 7 -9 4 -21 1 -28 -7z"/>
<path d="M9612 3409 c-20 -20 -20 -21 4 -46 13 -14 24 -29 24 -33 0 -4 7 -7
16 -6 9 0 18 -5 20 -12 1 -7 0 -8 -2 -3 -3 6 -22 0 -45 -14 -42 -27 -49 -29
-49 -17 0 5 9 13 20 18 19 8 19 11 6 29 -15 20 -15 20 -10 -2 4 -15 0 -23 -15
-28 -25 -8 -27 -20 -6 -29 8 -3 20 -17 25 -31 5 -14 15 -25 22 -25 10 0 10 2
1 8 -10 6 -10 15 -1 40 12 32 40 52 46 33 2 -7 10 -8 22 -1 13 7 21 7 25 0 4
-6 11 -7 17 -4 7 5 9 1 5 -9 -5 -13 -2 -15 17 -7 20 7 25 4 40 -26 9 -20 14
-39 11 -44 -3 -5 3 -18 14 -29 11 -11 16 -23 13 -27 -4 -4 -1 -4 7 1 11 6 13
3 8 -14 -3 -13 -3 -20 0 -17 4 3 15 -6 25 -21 29 -45 21 -14 -12 44 -21 36
-29 62 -25 76 5 17 4 19 -4 7 -7 -10 -11 -11 -11 -2 0 6 1 13 3 15 1 1 -8 13
-20 27 -13 13 -23 27 -23 32 0 4 -6 8 -13 8 -8 0 -20 12 -27 28 -7 15 -15 22
-17 15 -3 -7 -11 -13 -19 -13 -8 0 -11 6 -7 16 3 9 -3 23 -16 35 -11 11 -21
26 -21 34 0 22 -26 18 -48 -6z"/>
<path d="M9328 3163 c-3 -11 -4 -37 -3 -59 1 -34 4 -39 26 -40 39 0 59 -16 52
-42 -4 -16 -13 -22 -34 -22 -32 0 -35 -10 -17 -43 10 -20 10 -21 -5 -9 -9 8
-21 11 -27 7 -5 -3 -10 2 -10 13 0 11 -7 25 -16 32 -8 8 -14 9 -13 4 1 -5 0
-13 -1 -19 -1 -5 -3 -17 -4 -25 0 -8 -9 -14 -19 -13 -12 0 -16 -4 -13 -13 3
-7 -3 -18 -14 -24 -17 -9 -19 -8 -13 7 3 10 9 23 12 28 8 15 7 65 -1 65 -5 0
-8 -7 -8 -15 0 -23 -1 -29 -12 -48 -9 -18 -10 -18 -22 -1 -9 12 -15 14 -20 6
-4 -7 -2 -12 3 -12 6 0 11 -7 11 -16 0 -8 -4 -13 -9 -10 -5 4 -7 -3 -4 -14 4
-17 0 -20 -23 -20 l-29 -1 28 -15 c15 -8 27 -22 27 -30 0 -14 37 -70 67 -102
9 -9 10 -19 3 -32 -14 -26 -14 -26 19 -24 22 1 28 -2 24 -12 -3 -8 1 -22 8
-31 12 -15 12 -16 -3 -10 -15 5 -17 1 -15 -31 1 -20 6 -43 10 -49 5 -8 4 -13
-2 -13 -6 0 -11 5 -11 11 0 6 -15 0 -32 -12 -18 -12 -30 -19 -26 -14 4 4 1 20
-8 36 -15 30 -31 40 -21 14 8 -21 -9 -28 -34 -14 -17 8 -20 8 -14 -1 5 -9 1
-10 -16 -5 -23 7 -23 7 -7 -12 13 -14 15 -22 6 -31 -8 -8 -18 -6 -39 9 -28 19
-28 19 -38 0 -13 -24 -14 -34 -2 -26 16 9 20 -9 5 -22 -8 -8 -15 -9 -19 -3 -8
13 -45 -11 -45 -29 0 -11 3 -11 13 3 8 11 19 15 30 10 24 -9 21 -23 -3 -17
-16 4 -19 2 -13 -13 5 -13 3 -16 -10 -11 -14 5 -15 4 -4 -14 12 -20 12 -20 29
1 17 21 34 28 23 9 -4 -6 3 -13 15 -16 16 -4 20 -11 16 -27 -3 -11 -6 -31 -6
-44 0 -16 -4 -21 -12 -15 -7 4 -21 6 -32 4 -12 -2 -16 1 -10 10 4 7 -5 4 -19
-7 -15 -10 -27 -24 -27 -29 0 -17 21 -34 36 -28 8 3 14 0 14 -6 0 -6 -7 -11
-15 -11 -8 0 -15 -4 -15 -10 0 -5 -6 -10 -14 -10 -10 0 -14 -9 -12 -27 3 -19
9 -27 20 -25 20 4 21 -11 2 -27 -11 -9 -15 -7 -21 11 -4 13 -7 26 -6 31 1 4
-4 7 -10 7 -6 0 -8 9 -4 20 4 12 2 20 -5 20 -6 0 -8 5 -4 12 5 7 2 9 -8 5 -9
-3 -21 0 -28 6 -10 10 -10 7 -1 -10 6 -13 16 -23 22 -23 5 0 1 -10 -10 -22
-11 -11 -18 -25 -15 -30 3 -4 1 -8 -4 -8 -5 0 -14 10 -20 23 -10 21 -11 21
-11 1 -1 -32 -14 -37 -28 -12 -12 21 -13 19 -8 -19 6 -41 5 -43 -19 -43 -16 0
-24 -5 -21 -12 3 -7 1 -19 -4 -26 -7 -12 -12 -12 -30 0 -12 7 -19 18 -17 25 9
22 -10 23 -25 1 -8 -11 -20 -26 -27 -34 -13 -14 1 -30 18 -19 15 9 12 -4 -4
-21 -8 -7 -16 -19 -19 -26 -2 -7 -8 -9 -13 -5 -5 4 -2 12 6 17 13 8 13 12 -2
27 -14 13 -18 14 -18 3 0 -7 -8 -22 -17 -33 -16 -18 -16 -20 -1 -14 10 3 19 0
22 -9 9 -24 8 -26 -15 -19 -16 5 -19 4 -14 -5 6 -9 4 -11 -6 -5 -11 6 -12 5
-1 -6 29 -31 9 -59 -32 -43 -22 9 -20 21 8 45 26 22 26 60 0 38 -7 -6 -19 -7
-26 -3 -8 5 -8 1 2 -11 11 -14 12 -19 3 -22 -7 -3 -13 -13 -13 -24 0 -10 -12
-25 -27 -34 -19 -10 -22 -14 -9 -13 10 2 21 -3 24 -11 3 -10 0 -12 -12 -8 -9
4 -16 2 -16 -4 0 -6 -4 -8 -9 -5 -4 3 -6 -5 -4 -18 4 -18 11 -23 31 -22 15 0
32 8 39 16 7 8 13 11 13 6 0 -5 -7 -17 -16 -27 -14 -16 -14 -18 4 -28 15 -8
21 -7 26 4 3 8 12 12 21 9 8 -3 12 -11 9 -16 -4 -6 -10 -5 -15 3 -5 8 -9 10
-9 5 0 -5 9 -24 21 -42 11 -19 16 -34 10 -34 -6 0 -15 9 -22 21 -8 16 -14 18
-22 10 -9 -9 -6 -17 13 -31 20 -16 22 -20 8 -20 -10 0 -18 4 -18 10 0 5 -13
16 -30 25 -16 8 -28 21 -26 28 1 6 1 9 -1 5 -7 -12 -23 -9 -23 3 0 7 7 17 16
23 13 10 6 12 -34 12 -35 -1 -48 -5 -45 -13 3 -7 9 -11 13 -8 5 3 6 -3 3 -13
-2 -10 -14 -24 -25 -31 -17 -11 -22 -10 -29 1 -6 9 -9 10 -9 1 0 -7 9 -18 19
-25 10 -6 17 -17 14 -24 -7 -18 50 -12 70 8 15 15 15 18 -4 42 -26 33 -10 34
21 2 12 -14 20 -32 17 -40 -4 -10 -1 -13 9 -9 7 3 14 1 14 -4 0 -17 -12 -22
-30 -13 -14 7 -21 1 -41 -33 -13 -23 -24 -46 -24 -52 0 -18 -20 -42 -50 -61
l-30 -18 18 20 c9 11 17 25 17 30 0 5 -5 2 -10 -6 -9 -13 -12 -12 -25 4 -8 11
-15 15 -15 9 0 -7 5 -15 10 -18 14 -9 12 -21 -6 -39 -8 -9 -11 -16 -5 -16 6 0
8 -7 5 -15 -4 -9 0 -15 10 -15 20 0 21 -16 1 -24 -8 -3 -15 -12 -15 -21 0 -8
-5 -15 -11 -15 -6 0 -8 -9 -4 -20 9 -29 0 -25 -22 10 l-19 31 -33 -32 c-26
-25 -30 -33 -20 -40 11 -7 9 -10 -8 -15 -13 -4 -23 -12 -23 -19 0 -14 -17 -15
-37 -2 -9 6 -11 3 -7 -8 4 -8 0 -23 -7 -32 -12 -15 -12 -16 3 -10 15 5 16 4 5
-13 -14 -23 -24 -25 -30 -7 -3 9 -7 9 -20 -2 -10 -7 -17 -18 -17 -23 0 -13 52
-6 68 9 17 16 32 17 32 1 0 -6 -3 -9 -6 -5 -3 3 -18 -5 -32 -18 -16 -15 -29
-20 -33 -14 -4 7 -9 5 -12 -5 -4 -9 -11 -16 -17 -16 -6 0 -9 4 -5 9 3 5 1 12
-4 15 -16 10 -23 -12 -11 -34 11 -20 -3 -30 -15 -10 -12 20 -23 10 -27 -25 -2
-19 1 -36 6 -38 6 -2 5 -6 -2 -11 -7 -4 -12 -2 -12 3 0 6 -5 11 -11 11 -6 0
-8 -9 -4 -20 8 -26 -10 -26 -28 1 l-15 21 -7 -21 c-4 -12 -12 -18 -21 -14 -17
6 -18 -1 -2 -27 10 -15 10 -22 0 -32 -9 -9 -15 -8 -28 8 -14 17 -14 16 0 -8
18 -30 15 -34 -13 -19 -20 11 -50 -2 -32 -13 14 -9 14 -46 0 -46 -5 0 -8 4 -5
9 12 18 -25 20 -43 2 -13 -13 -16 -23 -9 -35 9 -17 4 -19 -37 -17 l-20 1 20
-9 c19 -9 55 -45 55 -57 0 -7 -64 29 -68 39 -2 4 -9 7 -15 7 -8 0 -7 -4 1 -12
7 -7 12 -17 12 -23 0 -15 -48 -37 -61 -29 -14 8 -41 -17 -35 -33 4 -8 -3 -13
-17 -14 -12 0 -16 -3 -9 -6 6 -2 12 -13 12 -24 0 -21 -10 -25 -26 -9 -6 6 -15
5 -24 -1 -13 -9 -13 -10 2 -6 9 3 24 -3 34 -15 18 -19 18 -20 -1 -34 -26 -19
-34 -18 -46 10 -10 21 -14 23 -30 13 -11 -7 -19 -19 -19 -28 0 -22 -26 -43
-45 -35 -9 3 -13 2 -10 -4 3 -6 -1 -10 -10 -10 -9 0 -14 -4 -10 -9 3 -5 1 -12
-5 -16 -5 -3 -10 -20 -10 -37 0 -26 -2 -29 -15 -18 -8 7 -12 17 -8 23 3 6 1 7
-6 3 -6 -4 -9 -12 -6 -17 4 -5 1 -9 -6 -9 -8 0 -8 -4 1 -15 7 -9 10 -18 6 -22
-3 -4 -13 2 -21 13 -15 20 -18 15 -15 -27 0 -14 -6 -32 -16 -39 -14 -12 -18
-12 -30 4 -13 18 -14 18 -33 -5 -11 -13 -20 -27 -21 -31 0 -5 -6 -8 -13 -8 -7
0 -21 -15 -32 -32 -10 -18 -24 -37 -32 -41 -7 -4 -13 -15 -13 -22 0 -8 -4 -15
-10 -15 -5 0 -10 -7 -10 -16 0 -10 -6 -14 -14 -11 -9 4 -20 -6 -30 -28 -9 -19
-30 -43 -46 -55 -17 -12 -30 -27 -30 -35 0 -7 -3 -15 -7 -17 -5 -2 -30 -27
-57 -55 l-49 -52 356 -1 c313 0 357 2 357 15 0 18 12 19 27 4 9 -9 10 -7 6 10
-3 11 -9 21 -14 21 -5 0 -9 5 -9 11 0 6 7 9 15 5 8 -3 21 1 29 9 7 8 16 11 20
8 3 -4 6 -1 6 5 0 7 4 12 10 12 5 0 7 -7 3 -15 -3 -9 -2 -15 3 -14 23 4 26 -3
9 -21 -15 -16 -15 -22 -5 -35 7 -8 25 -15 40 -15 24 0 27 4 24 23 l-5 22 10
-22 c10 -23 61 -34 61 -13 0 12 22 9 33 -5 4 -6 10 -5 16 4 6 9 11 10 15 2 5
-7 44 -11 102 -11 62 0 93 4 89 10 -4 6 -10 8 -15 5 -4 -3 -14 3 -21 12 -13
15 -11 16 11 10 14 -4 28 -7 33 -7 4 0 7 -7 7 -15 0 -13 43 -15 325 -15 l325
0 42 47 c76 83 290 294 442 437 178 167 326 334 307 346 -19 11 15 60 41 60
14 0 18 5 13 19 -4 13 0 20 15 24 17 4 19 1 15 -21 -5 -25 -5 -26 4 -4 12 26
4 55 -13 45 -6 -4 -17 -8 -25 -10 -19 -2 -39 -23 -23 -23 7 0 -4 -17 -25 -38
-43 -44 -63 -45 -33 -2 12 17 16 31 10 35 -14 8 9 42 33 49 18 4 18 6 3 21
-17 17 -22 30 -7 21 4 -3 16 22 26 55 12 39 27 67 42 76 17 11 21 21 17 38 -3
13 -1 32 5 42 6 10 11 12 11 6 0 -7 4 -13 9 -13 4 0 6 16 4 36 -2 23 0 33 7
29 13 -8 13 8 0 21 -10 10 5 78 24 102 5 8 10 23 11 33 2 26 35 61 35 38 0 -8
-5 -20 -11 -26 -14 -14 -3 -47 12 -37 8 4 7 9 -2 15 -10 6 -10 9 -2 9 6 0 15
-4 18 -10 10 -16 38 -12 32 5 -4 8 -2 17 4 21 5 3 7 15 3 26 -3 11 -2 23 3 27
6 3 13 18 17 34 6 26 5 27 -14 15 -11 -7 -16 -14 -10 -16 14 -5 13 -23 -2 -20
-6 2 -12 -11 -12 -31 -1 -19 -7 -36 -14 -39 -10 -3 -12 4 -7 31 6 30 3 37 -14
47 -12 6 -25 9 -30 6 -5 -3 -11 10 -13 29 -5 41 20 54 39 20 10 -18 11 -15 9
18 -3 37 -26 79 -26 47 0 -7 -3 -10 -6 -7 -4 4 -2 12 3 19 6 7 13 26 17 42 6
26 5 28 -8 17 -9 -8 -16 -12 -16 -10 0 2 -4 19 -10 37 -7 28 -7 33 5 28 8 -3
15 -1 15 4 0 26 17 5 27 -32 7 -24 15 -52 19 -63 7 -18 6 -19 -11 -5 -16 13
-18 13 -13 0 3 -8 15 -14 26 -13 15 2 20 -2 15 -13 -3 -8 -12 -13 -19 -10 -10
4 -11 -1 -4 -19 5 -14 7 -31 4 -39 -3 -8 0 -17 6 -21 8 -5 11 4 8 31 -2 26 1
38 9 37 15 -3 9 34 -12 74 -14 29 -15 35 -2 48 13 13 16 13 27 0 8 -9 8 -15 2
-15 -5 0 -8 -9 -5 -20 3 -11 14 -20 24 -20 10 0 21 -5 25 -12 4 -6 3 -8 -3 -5
-6 4 -16 0 -22 -7 -10 -12 -8 -14 11 -10 13 2 17 2 11 -2 -20 -9 -15 -23 6
-21 10 0 17 6 15 12 -3 6 4 19 15 29 19 17 20 17 25 -26 3 -23 7 -59 9 -78 3
-24 4 -19 5 18 2 51 22 76 22 26 0 -15 4 -23 10 -19 6 4 8 14 6 23 -7 21 10
50 21 38 13 -13 10 -129 -4 -133 -16 -6 -18 43 -3 52 6 3 10 11 10 17 0 7 -6
6 -15 -2 -8 -7 -15 -23 -15 -35 0 -13 -7 -26 -16 -29 -24 -9 -46 13 -39 41 4
18 1 23 -12 23 -14 0 -15 -2 -4 -9 9 -6 10 -10 2 -16 -9 -5 -9 -11 0 -22 10
-12 10 -16 -1 -23 -8 -5 8 -9 41 -12 30 -2 58 1 62 7 6 7 10 6 14 -2 8 -21 20
-15 31 15 8 24 7 31 -9 40 -11 7 -19 17 -19 24 0 6 7 4 18 -5 24 -22 35 -21
55 1 16 17 26 104 10 89 -3 -4 -6 -21 -5 -39 1 -24 -2 -29 -9 -18 -8 12 -9 9
-7 -10 5 -39 -25 -37 -45 4 -15 33 -15 35 1 29 14 -5 15 -4 4 8 -7 8 -18 14
-25 14 -6 0 -14 11 -18 25 -4 16 -7 19 -8 8 -1 -10 -8 -19 -16 -19 -8 -1 -21
-2 -27 -3 -16 -1 -29 104 -15 121 16 21 47 -3 47 -37 0 -17 5 -30 11 -30 7 0
8 7 4 18 -11 24 -14 142 -5 142 5 0 10 -4 12 -9 4 -12 48 6 48 20 0 8 -12 10
-35 6 -25 -4 -35 -2 -34 6 4 30 -2 47 -17 47 -12 0 -14 9 -11 41 3 39 -10 89
-24 89 -4 0 -12 -7 -19 -15 -14 -17 -55 -21 -45 -5 4 6 10 8 15 5 5 -3 8 3 7
14 -1 16 -5 18 -19 10 -10 -5 -18 -15 -18 -22 0 -8 -4 -7 -10 3 -6 10 -2 19
17 31 25 17 25 17 4 24 -11 3 -21 11 -21 17 0 5 7 8 15 4 17 -6 19 2 7 22 -7
10 -15 10 -36 2 -29 -11 -29 -16 -10 -77 5 -17 5 -17 -10 1 -8 10 -17 23 -19
29 -2 6 -16 4 -36 -6 -19 -9 -39 -14 -45 -10 -6 4 -5 -1 3 -11 10 -12 16 -14
21 -5 5 7 10 8 14 1 3 -6 2 -14 -4 -17 -6 -4 -8 -16 -4 -27 5 -16 3 -20 -9
-15 -20 8 -44 -42 -25 -55 10 -7 10 -11 1 -15 -9 -3 -8 -11 5 -31 9 -14 16
-28 14 -30 -2 -2 -1 -6 2 -9 3 -4 6 1 6 10 0 10 5 17 12 17 9 0 9 3 0 12 -7 7
-12 25 -12 40 0 15 -4 28 -10 28 -5 0 -10 5 -10 10 0 21 27 9 40 -17 20 -43
25 -103 8 -103 -7 0 -23 -3 -35 -6 -19 -5 -23 -2 -23 17 0 19 -2 21 -10 9 -10
-15 -10 -15 -14 52 -1 24 -21 22 -21 -1 0 -32 -14 -35 -25 -7 -17 46 -13 65
13 59 21 -5 21 -5 3 9 -21 17 -8 32 18 22 11 -4 15 -13 11 -28 -6 -20 -6 -20
9 -2 11 14 13 24 5 37 -8 15 -6 19 6 19 9 0 13 5 10 10 -5 8 -11 7 -21 -1 -18
-15 -20 -12 -29 30 -6 27 -4 33 7 29 8 -3 22 0 33 8 10 8 29 11 42 8 27 -7 30
7 7 30 -18 18 -34 21 -34 6 0 -11 -28 -9 -47 3 -7 5 -13 5 -13 1 0 -3 -6 -1
-14 5 -11 10 -14 7 -12 -13 0 -13 4 -22 8 -19 5 2 8 -6 7 -19 0 -13 3 -36 7
-52 5 -22 4 -27 -6 -21 -16 10 -44 73 -45 103 -1 24 43 61 54 46 10 -14 78
-17 86 -4 8 12 35 -32 35 -56 0 -19 10 -18 26 4 18 23 18 43 0 36 -8 -3 -17
-1 -21 5 -3 6 0 11 7 11 27 0 36 20 22 48 -7 15 -18 40 -23 55 -6 16 -16 25
-22 22 -6 -4 -5 2 3 14 12 20 14 17 36 -41 13 -35 27 -65 31 -68 4 -3 10 -13
14 -23 4 -9 20 -20 36 -23 17 -4 31 -12 33 -20 2 -9 8 -10 16 -5 11 7 11 16
-2 55 -9 26 -13 52 -10 58 4 7 2 8 -4 4 -7 -4 -14 3 -18 18 -3 13 -12 27 -21
30 -8 3 -11 10 -8 16 11 18 -6 50 -26 50 -10 0 -19 4 -19 10 0 5 -6 7 -13 4
-8 -3 -21 13 -35 41 -20 40 -24 44 -42 35 -14 -7 -20 -7 -20 0 0 5 4 10 9 10
15 0 21 30 11 51 -12 22 -52 27 -44 5 3 -7 -2 -16 -10 -19 -18 -7 -21 -33 -5
-43 8 -4 9 1 4 17 -4 17 -3 20 3 10 8 -11 11 -10 20 4 6 11 14 15 22 10 10 -6
8 -10 -8 -16 -28 -10 -29 -39 -2 -46 22 -6 26 -18 10 -26 -6 -3 -5 -4 2 -3 7
2 12 11 12 20 -2 20 12 21 20 1 3 -9 -3 -19 -14 -25 -19 -10 -19 -13 -5 -40 9
-17 11 -30 5 -30 -5 0 -12 11 -16 25 -9 37 -38 33 -31 -4 3 -15 1 -33 -6 -40
-14 -14 -31 -15 -22 -1 10 16 -14 50 -36 50 -12 0 -19 5 -16 13 2 6 10 11 16
9 13 -2 14 8 3 26 -6 9 -16 3 -38 -20 -16 -17 -23 -28 -16 -24 6 4 12 4 13 -1
1 -10 16 -103 18 -111 1 -2 8 4 17 12 8 9 24 16 35 16 10 0 24 9 31 20 15 23
38 27 38 6 0 -8 7 -22 16 -31 15 -15 15 -18 1 -32 -19 -20 -44 -8 -26 13 8 10
8 14 0 14 -6 0 -11 -4 -11 -10 0 -5 -7 -10 -15 -10 -8 0 -15 5 -15 10 0 6 -7
10 -15 10 -8 0 -15 -6 -15 -13 0 -8 -10 -18 -22 -24 -30 -13 -44 -14 -40 -1 3
13 -30 38 -41 31 -5 -3 -11 4 -14 16 -3 12 -9 21 -14 21 -5 0 0 -18 11 -40
l20 -39 -26 -17 c-19 -13 -22 -19 -12 -26 11 -6 10 -10 -2 -17 -19 -13 -26 -7
-35 26 -3 15 -13 32 -22 38 -14 10 -13 12 6 10 13 -1 27 -8 33 -16 7 -11 8 -9
3 6 -4 11 -11 33 -16 48 -4 16 -13 35 -20 43 -9 11 -14 10 -29 -9 -20 -24 -24
-23 -35 12 -6 20 -4 23 9 18 9 -4 16 -2 16 3 0 6 -5 10 -11 10 -8 0 -8 4 0 14
14 17 -9 29 -36 19 -16 -6 -16 -4 -5 9 11 14 10 20 -8 38 -11 11 -30 38 -41
60 -11 21 -29 42 -39 45 -11 4 -17 12 -13 21 9 25 20 16 51 -43 16 -31 35 -59
41 -61 6 -2 9 3 5 12 -3 9 -1 16 6 16 6 0 2 12 -10 30 -12 17 -16 30 -10 30 7
0 14 -9 17 -20 3 -11 9 -17 14 -14 5 3 5 13 -1 23 -5 10 -7 21 -4 23 3 3 -7 6
-21 6 -14 0 -25 -4 -25 -9 0 -21 -18 -6 -33 27 -14 28 -21 33 -31 25 -18 -15
-27 -2 -13 20 17 27 34 23 52 -11 9 -16 17 -30 18 -30 2 0 3 16 4 36 1 30 -2
35 -17 31 -31 -8 -44 7 -28 34 7 13 19 28 26 32 6 4 12 13 12 19 0 6 -9 3 -19
-6 -19 -17 -20 -17 -31 4 -7 12 -9 31 -7 42 4 14 2 17 -7 9 -18 -15 -34 1 -33
31 2 26 17 29 17 2 0 -16 26 -19 35 -4 4 6 11 7 17 4 8 -5 9 3 5 24 -6 30 -5
32 22 32 15 0 31 -3 35 -7 13 -13 35 -11 29 3 -3 8 -8 12 -12 10 -4 -3 -13 -1
-21 5 -12 7 -12 9 -1 9 8 0 11 7 8 20 -8 30 -3 25 37 -32 20 -29 43 -63 52
-75 14 -20 14 -21 -4 -16 -15 3 -21 -2 -26 -21 -7 -28 -36 -36 -36 -10 0 9 -5
12 -12 8 -7 -5 -9 -2 -6 8 5 13 3 14 -17 4 l-23 -11 21 -36 c12 -21 25 -36 28
-33 4 2 17 -12 28 -32 l21 -36 -22 -18 c-13 -10 -21 -21 -18 -24 3 -3 22 10
42 29 l36 34 0 -25 c0 -14 5 -31 12 -37 10 -9 11 -9 5 1 -4 8 2 23 15 37 l22
23 -21 21 c-12 12 -19 26 -16 31 10 17 23 11 29 -12 9 -37 52 -77 76 -71 23 6
28 -15 5 -23 -13 -5 -13 -9 -3 -23 10 -13 10 -14 -1 -4 -7 6 -20 9 -27 6 -8
-3 -14 0 -14 6 0 6 5 11 10 11 6 0 10 4 10 9 0 4 -10 8 -22 7 -13 -1 -22 -7
-21 -14 2 -6 -4 -9 -13 -5 -9 3 -14 0 -12 -8 2 -9 -4 -13 -14 -11 -13 2 -16
-2 -12 -13 5 -12 9 -13 20 -4 8 6 14 8 14 4 0 -4 7 -1 17 6 13 11 17 11 20 1
3 -6 8 -10 13 -7 4 3 6 -4 3 -15 -3 -11 0 -20 6 -20 6 0 11 5 11 10 0 15 21
12 42 -7 18 -16 18 -16 12 0 -3 9 -9 17 -13 17 -9 0 -8 42 2 58 5 6 5 16 2 22
-3 6 1 7 9 4 20 -8 20 -2 2 41 -14 32 -13 35 5 40 15 5 18 12 13 28 -9 30 -9
30 -33 16 -16 -11 -18 -16 -8 -29 10 -13 10 -13 -4 -2 -11 8 -14 21 -11 39 3
17 1 24 -6 19 -6 -4 -8 1 -5 13 4 16 1 19 -16 14 -22 -6 -27 -18 -11 -28 6 -3
10 -13 10 -22 0 -8 11 -28 25 -45 26 -31 32 -53 15 -63 -17 -11 -52 5 -46 22
4 10 1 13 -13 8 -12 -4 -21 0 -25 11 -9 24 1 30 24 16 27 -16 38 -15 15 1 -10
8 -15 19 -11 25 4 7 3 12 -3 12 -5 0 -13 -4 -16 -10 -8 -13 -25 -13 -25 -1 0
5 9 12 20 16 19 6 19 8 5 42 -25 58 -35 67 -56 47 -11 -10 -20 -15 -22 -13 -1
2 -27 53 -56 112 -39 78 -58 106 -69 102 -19 -7 -57 36 -41 46 8 4 8 12 2 24
-9 16 -10 16 -15 -2z m27 -663 c-4 -6 4 -19 16 -29 20 -16 21 -20 7 -39 -8
-12 -17 -20 -20 -17 -2 3 -5 -1 -5 -9 0 -16 44 -28 53 -15 3 5 -2 9 -10 9 -9
0 -16 7 -16 15 0 42 35 2 86 -98 18 -36 34 -55 42 -52 9 3 11 -1 7 -15 -4 -13
3 -37 18 -65 20 -36 22 -45 10 -49 -8 -3 -11 -11 -7 -18 6 -9 9 -9 12 2 3 8
14 -2 28 -26 13 -21 24 -33 24 -26 0 7 5 10 10 7 8 -5 8 -11 0 -20 -8 -9 -8
-15 0 -20 5 -3 10 -17 10 -29 0 -13 9 -35 20 -49 l20 -26 -22 -20 c-18 -17
-19 -21 -5 -21 8 0 18 4 22 10 9 15 33 0 28 -19 -7 -28 43 -133 63 -129 24 4
30 -22 6 -29 -18 -4 -19 -9 -10 -40 7 -26 6 -38 -2 -43 -17 -11 -17 -12 7 -46
12 -17 21 -40 20 -52 -2 -26 -17 -30 -17 -5 0 18 -14 9 -16 -10 -3 -30 -18
-57 -30 -57 -8 0 -14 5 -14 12 0 6 -3 9 -6 6 -3 -4 0 -16 6 -28 10 -19 10 -21
-7 -16 -13 4 -26 -1 -38 -14 -10 -11 -22 -17 -26 -14 -9 5 -13 -15 -10 -47 2
-17 -46 -33 -51 -18 -2 5 -10 4 -18 -1 -13 -8 -13 -10 1 -10 9 0 20 -7 23 -16
3 -8 2 -13 -3 -10 -5 3 -12 -1 -15 -10 -4 -9 -13 -14 -22 -10 -9 3 -12 2 -9
-5 4 -6 -1 -19 -11 -30 -16 -18 -16 -20 -1 -37 18 -19 23 -42 10 -42 -19 1
-35 19 -30 34 4 9 2 16 -2 16 -5 0 -14 12 -20 28 -10 26 -10 26 -8 2 1 -14 -5
-30 -13 -37 -8 -6 -15 -24 -15 -40 0 -15 -6 -28 -12 -29 -7 -1 -24 -2 -37 -3
-13 0 -27 -8 -30 -17 -5 -14 -4 -15 9 -4 29 24 5 -23 -28 -53 -16 -15 -26 -31
-23 -35 4 -3 -8 -11 -26 -18 -39 -13 -49 -50 -24 -86 25 -35 21 -51 -11 -44
-17 5 -29 3 -35 -6 -8 -10 -9 -9 -5 3 3 8 -1 26 -8 39 l-12 23 -13 -23 c-11
-20 -10 -22 4 -17 10 4 16 1 16 -8 0 -8 -3 -15 -7 -16 -5 0 -16 -2 -26 -4 -9
-2 -15 1 -12 5 3 5 1 11 -5 15 -5 3 -10 1 -10 -5 0 -7 -7 -10 -15 -6 -8 3 -15
1 -15 -4 0 -6 7 -10 15 -10 13 0 14 -4 4 -21 -9 -17 -13 -19 -20 -8 -5 8 -9 9
-9 3 0 -6 10 -18 23 -27 12 -8 19 -18 15 -22 -4 -4 -14 -3 -21 3 -10 9 -17 6
-27 -8 -15 -21 -40 -27 -40 -10 0 6 7 13 15 16 8 4 12 10 9 15 -3 5 -15 0 -26
-11 -26 -24 -38 -25 -38 -5 0 8 4 15 9 15 5 0 11 9 14 20 5 21 27 28 27 9 0
-5 5 -7 11 -4 6 4 8 13 5 21 -3 7 -1 16 4 19 20 12 9 25 -15 19 -14 -3 -31 -1
-39 5 -8 7 -16 8 -18 3 -4 -12 -68 -26 -68 -15 0 13 40 34 50 28 6 -4 23 8 40
26 21 23 26 35 18 40 -17 11 -28 1 -28 -22 0 -16 -5 -19 -20 -14 -12 4 -20 2
-20 -5 0 -7 -6 -10 -14 -7 -7 3 -18 1 -23 -4 -11 -11 -38 43 -38 76 0 11 -5
19 -11 18 -6 -1 -9 8 -8 20 1 12 3 25 3 30 1 4 6 7 12 7 5 0 7 -4 4 -10 -3 -5
-1 -10 4 -10 6 0 11 3 11 8 0 8 48 32 64 32 6 0 -4 -14 -23 -30 -18 -17 -28
-30 -22 -30 7 0 11 -10 9 -22 -2 -11 3 -23 10 -25 6 -3 12 1 12 9 0 7 5 20 10
28 8 13 11 12 24 -5 8 -11 18 -20 23 -21 4 -1 23 -5 41 -9 38 -9 55 -28 21
-23 -19 2 -25 -2 -27 -22 -2 -18 0 -21 6 -12 13 19 52 -5 44 -27 -5 -13 -3
-14 10 -4 8 7 18 10 21 6 4 -3 7 1 7 10 0 9 -6 17 -14 17 -11 0 -13 9 -9 35 4
28 2 35 -11 35 -9 0 -16 6 -16 14 0 11 10 13 42 8 40 -5 42 -4 26 11 -9 10
-20 26 -23 38 -4 11 -11 19 -17 17 -5 -2 -8 -6 -7 -8 1 -3 -3 -15 -10 -27 -10
-20 -17 -22 -53 -18 -22 3 -44 8 -49 11 -9 5 18 75 35 87 7 6 5 7 -6 3 -11 -3
-15 -1 -12 8 6 17 -12 31 -21 16 -3 -5 -2 -18 4 -28 8 -15 5 -18 -17 -16 -47
2 -51 4 -46 19 4 8 10 12 15 9 5 -3 7 -10 4 -15 -4 -5 0 -9 8 -9 10 0 14 9 12
30 -1 17 -5 33 -9 37 -10 11 -7 45 4 38 6 -4 9 -1 8 6 -2 7 7 18 20 24 27 12
29 29 2 20 -12 -4 -20 -2 -20 5 0 6 -6 8 -12 5 -7 -4 -5 0 5 8 17 15 23 42 9
51 -4 2 -27 1 -51 -4 -55 -10 -69 -5 -77 26 -3 13 -12 24 -19 24 -7 0 -16 6
-18 13 -3 7 -6 5 -6 -5 -1 -10 6 -18 14 -18 8 0 15 -4 15 -10 0 -19 3 -25 19
-37 9 -7 12 -13 7 -13 -5 0 -3 -7 4 -15 11 -13 10 -14 -6 -9 -19 7 -19 7 0
-14 11 -12 14 -22 8 -22 -6 0 -19 -3 -29 -7 -16 -6 -16 -5 -4 10 11 15 11 17
-2 17 -18 0 -27 -21 -20 -49 3 -12 1 -21 -4 -21 -5 0 -15 -11 -21 -25 -10 -22
-14 -24 -32 -13 -18 12 -18 13 -2 19 14 5 13 7 -7 14 -18 6 -28 3 -38 -11 -13
-18 -15 -18 -24 -1 -13 23 -24 22 -49 -5 l-20 -22 -24 23 -24 23 -7 -31 c-7
-34 -7 -34 -28 -25 -9 3 -13 13 -10 25 8 28 -4 24 -41 -16 -23 -24 -38 -33
-53 -29 -13 4 -22 0 -27 -11 -5 -14 -2 -16 18 -11 15 4 26 1 30 -7 3 -8 8 -7
16 5 9 14 16 15 38 7 40 -15 61 -56 23 -46 -11 3 -28 -3 -40 -14 -11 -11 -25
-19 -31 -19 -5 0 -10 -7 -10 -15 0 -8 7 -15 15 -15 8 0 15 -5 15 -10 0 -7 -6
-7 -18 -1 -10 6 -28 7 -40 4 -13 -3 -22 -1 -22 6 0 6 -7 11 -16 11 -12 0 -9
-7 12 -29 16 -17 33 -27 42 -23 10 3 13 1 8 -6 -10 -16 -36 -15 -36 1 0 8 -3
7 -10 -3 -11 -18 6 -41 24 -34 17 7 28 -21 20 -52 -7 -26 -12 -28 -34 -14 -12
7 -12 12 -2 22 17 17 15 23 -14 37 -22 10 -25 17 -22 48 2 23 -2 38 -10 41 -9
3 -7 9 7 21 13 12 17 22 11 31 -7 12 -13 10 -29 -9 -12 -13 -21 -20 -21 -14 0
5 10 21 21 34 34 38 52 69 45 76 -3 3 -6 1 -6 -5 0 -6 -7 -9 -15 -6 -23 9 -19
37 5 31 12 -3 20 0 20 8 0 7 11 20 24 29 14 8 27 25 31 36 4 12 18 25 32 31
16 6 23 14 19 24 -3 9 0 15 9 15 16 0 38 34 28 44 -11 11 -24 7 -17 -6 4 -6 3
-8 -3 -5 -6 4 -13 16 -16 27 -4 16 -2 19 7 11 18 -15 27 -2 19 28 -6 24 -5 25
11 12 9 -8 15 -20 12 -28 -3 -7 -1 -13 4 -13 6 0 10 7 10 16 0 8 4 13 9 9 17
-10 25 37 9 49 -8 6 -13 16 -11 23 2 6 -1 14 -6 18 -17 10 -13 28 5 21 10 -4
22 1 30 11 11 16 12 15 10 -8 -3 -23 1 -27 20 -24 13 1 38 17 55 36 17 19 28
28 24 22 -4 -9 -1 -11 9 -7 11 4 13 14 9 35 -6 33 9 39 27 12 10 -16 10 -16 5
3 -3 13 1 26 10 34 8 7 15 19 15 26 0 8 5 14 11 14 6 0 17 7 26 15 12 12 12
19 3 30 -10 12 -7 15 14 21 13 3 30 3 35 -1 6 -3 11 -4 11 -1 0 2 3 13 6 23 6
15 4 16 -7 6 -20 -20 -31 -15 -17 7 7 11 19 18 25 15 18 -6 16 5 -4 28 -17 19
-17 19 3 13 26 -8 56 20 35 34 -7 4 -22 5 -34 2 -14 -4 -18 -2 -13 7 5 8 19
10 37 6 18 -4 29 -3 29 4 0 6 5 11 10 11 6 0 10 -8 10 -17 1 -17 1 -17 11 0 6
9 9 27 7 40 -2 17 2 21 17 20 13 -2 10 2 -10 12 l-30 14 30 2 c17 2 37 3 46 3
13 0 16 8 14 33 -3 23 0 33 8 30 7 -2 11 -15 9 -28 -1 -17 0 -20 7 -10 5 7 14
10 20 7 16 -10 14 5 -3 18 -8 6 -17 22 -20 36 -6 25 -6 25 5 3 14 -26 34 -31
25 -7 -4 9 -1 24 6 32 11 14 10 15 -7 9 -16 -6 -15 -3 5 13 14 10 32 17 42 14
9 -3 19 0 23 5 3 7 0 8 -9 5 -23 -9 -19 13 4 26 19 10 24 7 21 -15 -1 -5 6 -1
14 9 8 11 15 14 15 8 0 -7 7 -12 15 -12 27 0 15 -18 -17 -25 -28 -7 -29 -8
-13 -18 14 -7 20 -7 23 1 2 7 11 12 19 12 9 0 13 -6 10 -13 -3 -8 -1 -20 4
-28 7 -11 9 -10 9 5 0 11 8 28 18 39 16 19 16 19 -7 12 -17 -5 -21 -4 -16 5 4
7 -1 14 -15 17 -14 4 -20 11 -17 23 5 20 -20 21 -32 2 -4 -7 -12 -8 -21 -2
-12 8 -11 12 7 29 14 13 24 17 29 10 4 -7 13 -3 25 10 22 23 24 23 56 15 20
-5 21 -8 8 -21 -9 -8 -12 -20 -8 -26 5 -8 9 -6 11 6 2 12 9 16 19 13 8 -3 17
-6 19 -6 3 0 2 -4 -1 -10 -3 -5 -1 -10 4 -10 6 0 11 7 11 15 0 18 20 57 35 67
6 4 16 5 24 3 8 -3 18 0 23 7 12 20 9 31 -8 24 -8 -3 -22 1 -30 9 -9 9 -11 15
-4 15 6 0 9 4 6 9 -4 5 0 12 6 15 7 3 -4 3 -24 0 -31 -5 -38 -3 -38 10 0 8
-12 23 -27 33 -31 20 -44 35 -37 42 3 3 9 -1 14 -9 8 -13 10 -12 10 3 0 15
-11 22 -33 18 -19 -3 8 22 37 35 38 16 49 17 41 4z m-435 -1588 c0 -4 -5 -13
-11 -19 -9 -9 -8 -16 5 -28 9 -9 14 -20 11 -25 -3 -5 -1 -12 5 -15 6 -4 9 -3
8 2 -2 4 2 9 7 10 6 2 10 -5 10 -15 1 -9 4 -22 8 -28 3 -6 -2 -20 -12 -30 -18
-20 -20 -42 -7 -83 7 -20 5 -23 -8 -18 -8 3 -19 0 -23 -8 -5 -7 -17 -13 -28
-12 -16 2 -20 -4 -20 -30 0 -27 -2 -30 -18 -21 -15 8 -20 5 -24 -11 -6 -23
-19 -28 -25 -10 -3 8 -10 6 -21 -5 -16 -16 -18 -16 -34 0 -16 16 -16 16 4 10
16 -5 22 -1 26 16 4 12 2 27 -4 34 -5 6 -6 19 -3 28 5 12 0 19 -15 23 -23 6
-27 18 -9 29 6 4 14 2 16 -4 2 -7 13 -10 28 -6 23 6 36 -10 14 -18 -6 -2 -1
-9 10 -15 16 -11 18 -10 13 3 -3 9 0 20 8 25 10 6 10 9 2 9 -7 0 -13 4 -13 10
0 5 7 7 15 4 11 -4 15 0 15 16 0 16 4 20 15 16 8 -3 15 -1 15 4 0 6 7 10 16
10 13 0 13 4 -4 28 -10 15 -22 34 -25 42 -4 10 -6 7 -6 -7 -1 -13 4 -23 9 -23
6 0 10 -4 10 -10 0 -5 -9 -10 -20 -10 -14 0 -20 -7 -20 -23 0 -28 -38 -55 -51
-35 -13 20 -11 31 6 24 8 -3 15 -2 16 2 3 31 7 49 14 65 4 10 3 17 -4 17 -6 0
-11 5 -11 11 0 6 7 9 14 6 10 -4 13 -1 10 8 -3 7 4 19 16 25 15 8 20 8 16 1
-4 -6 -3 -11 2 -11 6 0 13 11 16 25 6 22 36 37 36 17z"/>
<path d="M9556 2093 c6 -10 -26 -34 -36 -28 -6 4 -10 -6 -10 -24 0 -17 5 -31
11 -31 5 0 7 5 4 10 -3 6 -2 10 4 10 19 0 34 -40 20 -56 -13 -16 3 -44 27 -44
8 0 14 -5 14 -11 0 -6 -7 -9 -15 -5 -8 3 -22 -2 -30 -11 -15 -14 -15 -13 -10
9 5 19 2 24 -12 24 -11 0 -20 -7 -20 -16 -1 -8 -2 -20 -3 -25 -6 -29 2 -45 22
-45 16 0 19 -3 11 -11 -8 -8 -17 -8 -30 -1 -15 9 -22 6 -32 -10 -13 -21 -14
-21 -27 12 -11 24 -11 35 -3 40 6 4 11 11 11 16 0 11 13 40 33 74 13 22 13 26
-3 38 -9 7 -17 17 -17 22 0 4 -3 11 -7 15 -4 4 -6 -19 -5 -50 1 -42 -2 -60
-12 -63 -9 -3 -11 1 -6 17 6 20 6 21 -24 4 -32 -19 -33 -34 -1 -26 24 6 26 -9
4 -31 -19 -19 -34 -21 -35 -3 0 6 -4 3 -9 -8 -11 -25 -12 -44 -2 -28 4 7 17
10 30 6 25 -6 30 -23 7 -23 -8 0 -12 -6 -9 -14 3 -7 -2 -16 -11 -19 -11 -5
-14 -15 -10 -37 4 -21 1 -32 -9 -36 -18 -7 -10 -34 10 -34 8 0 14 -5 14 -11 0
-7 -10 -9 -24 -5 -14 3 -28 2 -31 -4 -4 -6 1 -7 11 -3 13 5 16 2 11 -9 -4 -12
-1 -14 14 -11 10 3 19 0 19 -6 0 -6 -7 -11 -15 -11 -8 0 -15 -4 -15 -10 0 -14
-18 -13 -33 2 -15 13 -10 68 6 68 6 0 7 3 4 7 -4 3 -2 12 4 20 9 10 8 17 -1
28 -10 12 -10 18 0 31 11 12 10 18 -5 32 -10 9 -15 12 -12 6 9 -15 -35 -27
-44 -12 -4 7 -14 3 -28 -11 -11 -11 -21 -18 -21 -13 -1 4 -10 -4 -20 -17 -13
-15 -26 -21 -36 -17 -14 5 -15 4 -4 -9 7 -9 10 -18 7 -22 -4 -3 -3 -11 2 -17
4 -6 11 -23 15 -37 6 -28 -6 -39 -42 -39 -15 0 -15 2 -2 10 13 9 7 14 -12 11
-5 0 -8 8 -8 20 0 16 4 20 18 15 16 -6 16 -5 0 8 -10 7 -18 22 -18 33 0 10 -5
24 -12 31 -8 8 -8 12 -1 12 5 0 8 11 6 24 -4 17 3 29 22 45 15 11 23 21 16 21
-6 0 -11 7 -11 15 0 8 -5 15 -12 15 -7 0 -27 14 -44 31 -28 27 -32 29 -27 11
4 -15 -4 -30 -25 -52 -17 -16 -35 -30 -41 -30 -15 0 -14 -9 4 -26 13 -14 15
-14 15 2 0 13 3 14 15 4 8 -7 23 -9 37 -5 21 7 21 7 5 -9 -18 -19 -24 -51 -7
-41 6 3 10 13 10 20 0 9 6 12 15 9 18 -7 20 -34 3 -34 -9 0 -8 -4 2 -10 13 -9
13 -11 0 -20 -8 -5 -12 -10 -7 -10 4 0 -3 -10 -15 -22 -16 -16 -18 -23 -8 -26
7 -3 17 3 22 12 14 26 28 19 28 -15 0 -25 -3 -29 -14 -20 -10 9 -16 8 -26 -4
-8 -10 -20 -13 -33 -9 -20 6 -20 6 -4 -10 21 -21 22 -30 3 -23 -10 4 -13 0
-11 -14 5 -24 -4 -49 -17 -49 -5 0 -7 9 -3 20 5 15 3 18 -9 14 -23 -9 -29 -37
-11 -50 10 -8 12 -14 6 -19 -6 -3 -11 -1 -11 5 0 7 -7 5 -16 -4 -8 -9 -20 -16
-25 -16 -6 0 -7 -4 -4 -10 3 -5 11 -10 16 -10 6 0 7 5 4 10 -3 6 -2 10 4 10 5
0 12 -6 14 -12 4 -9 8 -10 14 -2 13 16 107 12 115 -6 5 -12 7 -11 7 4 1 11 6
16 14 13 8 -3 14 3 14 14 1 11 -2 17 -7 14 -4 -3 -3 8 3 25 12 32 25 37 46 18
10 -9 12 -9 7 -1 -3 6 -2 14 3 17 16 10 23 -28 7 -40 -15 -11 -12 -24 6 -24 5
0 6 5 2 12 -5 8 -2 9 9 5 9 -3 23 1 32 9 14 14 19 11 16 -8 0 -5 3 -8 9 -8 18
0 10 27 -12 43 l-23 16 23 7 c24 7 28 24 10 42 -9 9 -9 12 2 12 11 1 10 5 -4
15 -16 12 -17 15 -4 15 20 0 47 -30 27 -30 -10 -1 -9 -4 4 -14 9 -7 17 -18 17
-24 0 -6 7 -9 15 -6 10 4 15 0 15 -14 0 -35 10 -50 31 -45 10 3 19 0 19 -6 0
-6 -10 -11 -23 -11 -13 0 -32 -7 -43 -16 -10 -8 -13 -12 -5 -8 10 5 11 1 6
-16 -6 -20 -5 -21 8 -9 8 8 13 17 11 21 -2 4 0 9 6 13 5 3 10 1 10 -4 0 -6 7
-11 16 -11 8 0 12 5 9 10 -7 12 11 12 39 1 14 -5 16 -10 8 -15 -7 -4 -16 -4
-22 -1 -5 3 -10 -1 -10 -9 0 -19 46 -22 48 -3 1 21 11 59 17 65 13 14 17 -11
5 -35 -8 -16 -14 -32 -14 -37 -1 -13 -46 -40 -46 -28 0 6 -6 9 -14 6 -8 -3
-13 -11 -10 -19 3 -7 -1 -15 -9 -18 -10 -4 -13 -14 -9 -33 5 -27 5 -27 13 -6
5 12 17 26 28 30 11 4 20 11 20 17 0 5 4 11 10 13 6 2 11 -7 11 -20 0 -18 2
-20 10 -8 5 9 5 19 -2 27 -8 10 -6 13 6 13 9 0 16 5 16 10 0 17 20 11 27 -7 3
-10 14 -26 24 -36 11 -10 16 -24 12 -34 -5 -12 -3 -14 6 -8 8 4 16 2 21 -5 5
-8 9 -3 12 14 4 21 3 24 -8 15 -18 -15 -20 11 -2 29 9 9 8 12 -5 12 -9 0 -17
5 -17 11 0 7 10 9 25 7 14 -3 28 -1 31 4 3 4 2 8 -3 7 -17 -4 -56 18 -45 25 7
4 12 13 12 19 0 8 -3 7 -9 -2 -14 -22 -63 0 -72 31 -5 21 -1 30 23 48 16 12
32 19 36 15 4 -3 0 -10 -8 -15 -22 -14 -3 -12 23 3 29 16 36 27 30 44 -6 16 2
17 27 3 23 -12 40 7 19 22 -11 7 -11 11 -1 15 6 2 12 11 12 19 0 8 5 14 10 14
6 0 10 -5 10 -10 0 -6 8 -5 20 2 19 12 18 13 -17 19 -22 4 -41 3 -44 -4 -10
-15 -42 1 -36 17 3 8 9 31 13 50 7 38 34 51 34 16 0 -11 6 -20 13 -20 8 0 12
11 11 31 -3 37 -7 42 -39 44 -18 0 -24 -4 -20 -13 3 -8 0 -12 -7 -9 -8 2 -13
22 -13 49 0 31 -6 53 -19 67 -18 20 -18 23 -4 37 14 14 16 13 22 -12 5 -20 10
-24 15 -15 10 15 -22 109 -42 127 -8 6 -13 9 -11 7z"/>
<path d="M9049 1478 c0 -2 -2 -11 -4 -21 -5 -25 -15 -34 -15 -14 0 10 -5 14
-14 11 -8 -3 -12 -12 -9 -20 6 -17 -9 -18 -25 -2 -9 9 -15 9 -23 1 -8 -8 -5
-14 10 -23 12 -6 19 -15 16 -20 -3 -4 8 -21 25 -37 16 -15 30 -35 30 -44 0 -9
6 -21 13 -27 17 -14 42 2 34 22 -3 8 -2 18 3 21 6 4 10 1 10 -4 0 -6 9 -11 20
-11 11 0 20 -4 20 -10 0 -5 -6 -10 -13 -10 -7 0 -20 -9 -29 -19 -14 -17 -15
-21 -2 -32 13 -11 19 -3 15 23 -2 16 42 19 64 4 23 -15 24 -15 18 1 -4 10 -2
14 5 9 6 -3 14 3 17 15 6 17 9 19 17 8 8 -12 9 -11 5 1 -2 8 2 23 10 32 22 25
9 72 -18 65 -20 -5 -20 -5 -4 20 16 24 16 26 0 42 -17 15 -17 15 -11 -3 3 -10
1 -24 -4 -32 -9 -10 -15 -9 -31 7 -10 10 -19 24 -19 29 0 6 -5 10 -11 10 -6 0
-8 -9 -4 -20 4 -11 2 -20 -4 -20 -6 0 -11 5 -11 11 0 5 -4 8 -8 5 -5 -3 -18 4
-30 14 -18 17 -40 26 -43 18z"/>
<path d="M9811 2751 l-23 -18 21 -48 c28 -63 26 -71 -4 -15 -13 25 -24 38 -25
29 0 -8 -19 -25 -42 -37 -24 -13 -35 -20 -25 -18 12 4 21 -2 29 -19 8 -18 17
-24 30 -19 14 4 22 -4 38 -41 11 -25 24 -43 30 -40 5 3 10 11 10 16 0 6 -4 7
-10 4 -10 -6 -14 7 -11 33 1 7 -5 15 -13 18 -9 3 -13 10 -10 15 10 17 21 9 34
-22 8 -19 18 -28 27 -25 8 4 25 6 38 6 13 0 40 15 61 35 20 19 32 35 26 35 -6
0 -14 -4 -17 -10 -17 -27 -42 -7 -69 55 -32 73 -45 82 -21 15 17 -49 18 -50 7
-50 -4 0 -16 25 -27 56 -10 30 -21 57 -25 59 -3 2 -16 -5 -29 -14z"/>
<path d="M11499 2204 c-7 -9 -13 -40 -13 -71 0 -32 -3 -47 -7 -36 -4 10 -8 14
-9 8 -1 -5 -3 -14 -5 -20 -1 -5 -3 -15 -3 -22 -1 -7 -9 -10 -17 -7 -25 10 -16
-10 10 -23 23 -10 24 -9 19 12 -6 26 23 44 39 23 6 -9 7 -6 4 10 -3 12 -1 22
5 22 5 0 8 8 7 18 -4 39 2 48 29 49 25 2 26 1 5 -7 -15 -6 -24 -19 -25 -37 -1
-15 -2 -37 -3 -48 -1 -11 3 -26 8 -32 6 -9 6 -13 -2 -13 -6 0 -11 4 -11 8 0 4
-10 9 -22 9 -19 2 -20 0 -8 -8 11 -8 12 -12 3 -16 -7 -2 -13 -11 -13 -19 0 -8
-4 -14 -10 -14 -5 0 -10 5 -10 10 0 6 -4 10 -9 10 -5 0 -8 -8 -7 -17 1 -13 -5
-17 -19 -15 -16 2 -17 1 -5 -7 13 -9 12 -12 -5 -25 -11 -8 -16 -18 -12 -23 5
-4 13 0 18 10 7 12 17 16 32 12 16 -5 18 -4 8 3 -7 5 -10 15 -7 21 11 18 26
13 26 -9 0 -13 5 -18 15 -14 18 7 18 4 5 -30 -6 -17 -6 -26 0 -26 6 0 10 6 10
13 0 6 3 22 6 35 5 17 2 22 -12 23 -18 0 -18 1 1 9 18 8 18 9 -5 10 l-25 1 23
12 c12 7 19 17 15 22 -4 4 -2 5 5 1 6 -4 12 -16 12 -27 0 -10 5 -19 10 -19 6
0 10 5 10 10 0 6 8 10 18 10 13 0 14 2 3 9 -11 7 -11 9 0 13 11 4 11 9 1 29
-8 16 -11 17 -7 4 4 -13 3 -17 -4 -10 -18 19 -18 119 2 112 7 -2 11 -17 9 -36
-3 -21 0 -31 7 -27 5 4 8 13 5 20 -3 7 2 20 10 29 20 20 20 28 1 21 -9 -4 -15
0 -15 10 0 14 -18 21 -43 17 -12 -2 -37 26 -30 33 4 3 4 6 1 6 -3 0 -12 -7
-19 -16z"/>
<path d="M10175 2169 c-32 -7 -25 -12 12 -9 13 1 28 -2 35 -7 7 -4 22 -9 32
-10 25 -4 35 -14 19 -20 -17 -6 -16 -31 1 -65 10 -20 11 -29 2 -39 -8 -9 -7
-11 6 -6 13 5 15 2 11 -11 -4 -9 -11 -21 -17 -25 -7 -5 -3 -7 8 -5 10 2 21 -3
23 -9 3 -7 -2 -13 -10 -13 -8 0 -18 -7 -21 -16 -9 -24 -7 -28 9 -14 9 7 19 9
23 5 4 -4 1 -10 -5 -12 -18 -7 -16 -43 2 -43 19 0 22 -106 3 -113 -8 -3 -8 -6
-2 -6 6 -1 19 8 29 19 14 15 15 20 4 20 -10 1 -9 3 3 11 14 7 15 15 8 34 -11
29 4 34 19 8 9 -16 10 -15 11 6 0 13 8 30 18 38 15 13 13 14 -25 10 -30 -4
-43 -1 -47 9 -3 8 1 17 9 20 10 4 13 18 11 50 -2 25 -7 48 -10 51 -3 4 -6 15
-6 26 0 10 -6 31 -14 45 -8 15 -17 35 -20 45 -4 12 -16 17 -39 17 -18 0 -37 4
-42 8 -6 5 -23 5 -40 1z"/>
<path d="M10595 2039 l-40 -6 38 -2 c37 -1 37 -1 37 -44 l0 -43 -42 4 c-24 3
-40 1 -37 -2 4 -4 20 -8 35 -10 27 -3 29 -7 32 -50 2 -25 -1 -46 -7 -46 -5 0
-12 -10 -14 -22 -4 -20 -4 -19 -6 4 -1 21 -5 26 -17 21 -14 -5 -16 -2 -10 21
4 18 3 25 -4 21 -16 -10 -13 -75 4 -69 9 4 15 -5 18 -25 3 -21 0 -31 -9 -31
-7 0 -13 -4 -13 -10 0 -5 7 -7 15 -4 8 4 15 1 15 -5 0 -6 -7 -11 -15 -11 -9 0
-18 -7 -21 -15 -8 -21 -27 -7 -21 16 4 15 0 19 -24 19 -16 0 -29 -5 -29 -11 0
-6 -9 -8 -21 -4 -17 6 -20 3 -17 -12 2 -12 11 -17 26 -15 17 3 22 -2 22 -20 0
-20 6 -24 34 -26 21 -2 38 4 47 14 12 15 11 16 -9 10 -22 -7 -22 -6 -10 13 14
22 28 28 28 11 0 -5 4 -10 9 -10 6 0 11 19 13 43 2 31 7 42 19 41 13 -1 15 4
10 23 -11 40 -1 103 16 103 9 0 12 6 9 18 -4 10 -9 40 -11 67 -3 27 -6 49 -8
50 -1 0 -20 -2 -42 -6z"/>
<path d="M11485 1805 c9 -81 -1 -129 -23 -119 -10 3 -26 7 -37 9 -12 1 -21 10
-23 23 -2 12 -8 22 -13 22 -13 0 -11 -34 3 -48 9 -9 8 -12 -4 -12 -19 0 -36
-40 -42 -105 l-5 -50 10 45 c5 25 12 55 15 68 2 12 9 22 15 22 6 0 6 -6 -1
-19 -13 -25 -13 -91 0 -91 11 0 11 3 15 68 3 47 35 97 35 54 0 -12 5 -22 10
-22 6 0 10 -24 11 -52 0 -29 3 -47 6 -40 2 6 11 12 19 12 9 0 12 5 9 11 -4 5
1 20 12 31 10 12 12 18 4 13 -11 -6 -13 -4 -8 9 4 10 8 30 8 44 l1 27 9 -30
c7 -27 8 -26 6 13 -2 33 1 43 15 48 10 3 18 10 18 15 0 6 -9 8 -19 4 -16 -5
-18 -2 -14 15 4 16 8 18 19 9 8 -7 18 -8 22 -4 4 4 1 10 -5 12 -7 3 -13 9 -13
15 0 6 7 8 15 4 10 -3 15 1 15 12 0 11 -15 23 -46 34 l-45 16 6 -63z"/>
<path d="M10180 1566 c0 -10 -6 -13 -15 -10 -17 7 -48 -14 -40 -26 3 -5 1 -11
-5 -15 -12 -8 -13 -42 -1 -49 4 -3 6 6 3 19 -3 17 1 27 13 31 13 5 14 9 3 15
-9 6 -6 9 11 9 24 0 25 -7 6 -53 -7 -17 -6 -18 13 -6 15 10 25 10 32 3 15 -15
2 -44 -19 -43 -10 0 -11 2 -3 6 6 2 12 8 12 13 0 5 -13 2 -30 -6 -16 -9 -30
-18 -30 -20 0 -3 5 -2 10 1 14 8 50 -4 50 -17 0 -5 -7 -8 -15 -4 -8 3 -23 2
-32 -2 -14 -5 -12 -8 12 -12 22 -4 30 -11 31 -27 1 -16 -3 -20 -15 -15 -13 5
-14 3 -5 -9 16 -20 0 -61 -21 -53 -17 7 -19 16 -5 30 6 6 3 10 -9 10 -11 0
-17 -6 -14 -12 6 -16 -24 -8 -52 12 -17 13 -18 16 -5 25 15 9 29 8 62 -6 13
-5 15 -2 11 15 -3 12 -12 20 -22 18 -19 -4 -61 30 -61 50 0 11 -3 12 -14 3 -7
-6 -20 -10 -27 -8 -8 2 1 -3 19 -11 32 -15 40 -30 23 -47 -6 -6 -12 -26 -14
-45 -5 -52 -16 -66 -33 -43 -7 10 -14 13 -14 6 0 -6 5 -15 10 -18 6 -4 8 -10
5 -15 -3 -4 2 -11 11 -14 23 -9 31 -7 15 3 -16 10 -6 31 15 31 8 0 14 6 14 14
0 9 8 12 26 8 16 -3 23 -9 20 -18 -3 -7 -1 -16 4 -19 6 -4 10 -1 10 5 0 6 10
8 23 4 20 -4 26 0 36 24 7 16 23 35 36 42 18 10 26 25 31 57 3 24 4 47 0 50
-3 4 -7 -2 -7 -13 -1 -10 -2 -23 -4 -29 -1 -5 -3 -16 -3 -22 -1 -7 -9 -13 -17
-13 -11 0 -15 9 -13 33 2 35 26 66 46 59 6 -2 12 3 12 12 0 9 7 16 15 16 12 0
13 -4 5 -19 -5 -11 -10 -34 -10 -51 0 -17 -7 -42 -16 -55 -10 -15 -12 -25 -5
-25 6 0 8 -8 4 -17 -5 -14 -3 -15 7 -6 7 6 13 23 13 37 0 14 3 26 7 26 5 0 11
23 15 50 5 35 11 50 22 50 11 0 14 -7 10 -27 l-6 -28 12 28 c6 15 17 25 23 23
7 -3 15 2 18 10 11 28 6 40 -13 40 -11 0 -19 -3 -19 -6 2 -28 -25 -45 -34 -19
-4 12 -58 1 -58 -12 0 -5 -7 -9 -15 -9 -21 0 -48 46 -42 70 3 11 1 23 -4 26
-5 3 -9 -2 -9 -10z"/>
<path d="M7189 1508 c-11 -20 5 -26 17 -7 5 8 10 6 16 -5 5 -9 6 -21 2 -28 -5
-8 -2 -9 9 -5 10 3 17 4 17 2 0 -11 -36 -45 -47 -45 -7 0 -13 -4 -13 -9 0 -4
11 -6 24 -4 16 3 25 -1 30 -13 4 -10 2 -20 -3 -22 -8 -3 -7 -10 0 -24 7 -13 7
-18 1 -14 -6 3 -13 2 -16 -3 -4 -5 7 -9 24 -9 28 1 44 18 18 18 -7 1 -3 6 10
13 12 7 21 15 20 18 -2 2 -1 3 1 2 2 -1 5 -20 6 -42 3 -31 -1 -44 -16 -54 -10
-8 -16 -17 -12 -20 13 -14 23 -6 42 38 11 25 25 45 32 45 8 0 7 5 -2 16 -12
15 -11 16 11 10 l25 -8 -23 17 c-29 21 -22 31 26 38 29 5 38 11 38 27 0 13 -7
20 -18 20 -19 0 -25 25 -8 35 6 3 10 12 9 18 0 9 -2 9 -6 0 -2 -7 -9 -13 -14
-13 -6 0 -7 5 -4 10 3 6 -1 10 -11 10 -14 0 -14 -3 -4 -15 16 -20 -1 -41 -25
-31 -14 5 -15 9 -5 21 10 12 10 15 -3 15 -8 0 -24 3 -34 6 -15 5 -15 4 -3 -5
12 -8 10 -12 -10 -20 -14 -5 -20 -11 -15 -12 6 -1 15 -3 20 -4 6 -2 16 -3 23
-4 7 0 12 -9 10 -18 -1 -10 1 -24 5 -30 11 -18 0 -33 -18 -26 -9 3 -21 0 -29
-6 -11 -9 -18 -8 -30 4 -21 21 -20 27 6 49 l21 19 -23 17 c-17 13 -20 19 -10
25 9 5 11 4 6 -3 -4 -7 -2 -12 3 -12 6 0 11 3 11 8 -1 31 -65 39 -81 10z"/>
<path d="M4524 733 c-3 -12 -13 -24 -21 -27 -7 -3 -11 -2 -8 3 3 5 1 12 -5 16
-5 3 -10 -3 -10 -14 0 -12 -5 -21 -11 -21 -6 0 -8 -9 -4 -20 4 -12 2 -20 -5
-20 -7 0 -14 9 -17 20 -3 11 -9 17 -14 14 -5 -3 -6 -10 -3 -16 4 -6 -1 -6 -14
1 -27 15 -32 14 -32 -4 0 -8 -6 -15 -14 -15 -8 0 -17 -9 -21 -19 -6 -21 -38
-38 -33 -18 2 6 -2 14 -7 15 -6 2 -17 8 -27 13 -13 7 -15 5 -12 -14 2 -12 1
-16 -2 -9 -4 10 -9 10 -20 1 -11 -9 -11 -16 2 -43 l15 -31 -20 25 c-13 16 -18
33 -14 48 6 25 -12 31 -21 6 -3 -8 -10 -13 -15 -9 -15 8 -25 -15 -12 -28 6 -6
11 -15 11 -19 0 -4 -10 2 -21 13 -20 20 -23 20 -31 5 -11 -19 -2 -56 13 -56 6
0 7 9 4 21 -6 19 -5 20 8 8 10 -9 12 -18 6 -26 -7 -7 -6 -12 2 -15 8 -3 10
-11 4 -24 -8 -18 -8 -18 -12 -1 -3 10 -21 35 -41 55 -20 20 -33 29 -29 19 4
-11 -1 -25 -13 -37 -24 -24 -24 -24 -4 -44 8 -9 11 -16 5 -16 -6 0 -8 -7 -5
-15 4 -8 10 -15 16 -15 5 0 6 5 3 10 -3 6 -1 10 4 10 6 0 11 -5 11 -11 0 -6 5
-7 13 -2 6 4 25 8 41 9 15 1 38 6 50 12 43 21 66 28 93 31 7 1 11 13 8 31 -2
17 1 30 7 30 5 0 8 -6 5 -13 -8 -20 8 -41 24 -31 8 4 22 9 32 9 28 2 39 27 21
46 -17 19 -4 35 19 24 6 -4 0 4 -15 17 -16 13 -28 27 -28 31 0 14 24 6 48 -15
23 -22 24 -22 18 -3 -4 16 -1 20 17 22 12 0 31 3 42 5 14 2 20 -2 19 -15 -2
-14 1 -15 12 -6 11 9 12 15 3 26 -10 11 -9 12 5 7 9 -4 16 -1 16 6 0 6 -9 14
-20 17 -11 3 -20 9 -20 13 0 14 32 21 46 9 7 -6 18 -8 24 -4 5 3 10 1 10 -5 0
-6 5 -8 10 -5 15 9 12 25 -5 25 -8 0 -15 4 -15 9 0 5 -9 7 -21 4 -12 -4 -25 0
-30 8 -7 11 -10 9 -15 -8z"/>
<path d="M6874 570 c7 -8 11 -20 9 -27 -3 -8 -13 -2 -28 15 -14 15 -25 24 -25
20 0 -4 7 -14 16 -22 17 -18 11 -36 -12 -36 -8 0 -13 -4 -9 -9 3 -5 1 -12 -4
-16 -5 -3 -15 3 -21 12 -10 16 -11 16 -7 -4 6 -28 -8 -40 -21 -18 -8 15 -10
15 -22 0 -11 -13 -10 -15 4 -9 10 4 16 1 16 -9 0 -8 -7 -17 -15 -21 -21 -8
-19 -28 3 -24 9 2 16 -3 15 -9 -2 -8 6 -12 20 -10 15 1 21 -3 19 -14 -1 -10 7
-19 20 -23 21 -6 22 -7 6 -20 -22 -16 -23 -36 -3 -36 9 0 12 -6 9 -15 -4 -8
-1 -15 6 -15 14 0 39 29 40 45 0 6 -5 3 -10 -5 -8 -13 -11 -13 -22 -1 -10 10
-10 12 0 7 8 -5 12 0 12 13 0 10 6 22 13 25 6 3 5 4 -5 3 -9 -1 -17 1 -17 6
-2 22 0 27 13 27 7 0 16 9 19 19 4 17 2 18 -14 10 -10 -5 -27 -13 -37 -18 -25
-12 -64 15 -42 29 9 6 17 5 22 -3 6 -11 22 -4 24 11 3 23 19 42 30 38 9 -4 13
2 13 17 -1 12 2 36 6 52 6 27 4 31 -14 31 -17 0 -18 -3 -7 -16z"/>
<path d="M4000 552 c-42 -50 -42 -49 -25 -66 9 -9 12 -16 6 -16 -5 0 -14 6
-18 13 -13 20 -51 38 -58 27 -8 -14 -52 -13 -78 2 -20 10 -21 10 -8 -5 12 -15
11 -17 -3 -17 -9 0 -16 5 -16 10 0 21 -19 9 -28 -19 -8 -22 -7 -31 1 -34 8 -2
8 -5 -1 -11 -7 -4 -12 -2 -12 3 0 6 -7 11 -15 11 -8 0 -15 7 -15 16 0 13 -3
14 -14 5 -10 -8 -16 -9 -21 -1 -3 5 -11 10 -17 10 -6 0 -8 -3 -5 -6 3 -4 2
-15 -3 -24 -7 -13 -5 -21 5 -30 8 -7 15 -17 15 -23 0 -6 -6 -3 -13 8 -10 12
-16 14 -21 7 -12 -20 -28 -13 -21 9 5 15 4 19 -4 15 -6 -4 -11 0 -11 10 0 33
-20 0 -22 -37 -3 -34 -4 -35 -39 -32 -26 2 -39 -2 -43 -12 -7 -19 -26 -20 -26
-1 0 23 26 39 47 27 15 -7 22 -5 32 11 7 11 10 23 7 26 -3 3 -6 0 -6 -6 0 -6
-15 -10 -32 -10 -57 1 -69 -2 -64 -11 4 -5 0 -11 -6 -14 -10 -3 -10 -9 1 -30
8 -15 11 -30 8 -34 -4 -3 -7 1 -7 10 0 9 -5 17 -11 17 -7 0 -9 10 -6 26 3 20
1 24 -11 19 -8 -3 -26 4 -40 17 l-26 23 22 -29 c25 -32 28 -48 10 -45 -32 4
-43 -3 -45 -27 0 -14 -7 -31 -13 -38 -10 -8 -12 -7 -7 7 4 11 1 17 -8 17 -8 0
-15 5 -15 11 0 5 -5 7 -10 4 -6 -4 -8 -16 -5 -28 5 -18 3 -17 -11 5 -19 28
-53 43 -67 29 -5 -5 0 -14 12 -21 12 -6 19 -15 16 -21 -4 -5 -10 -7 -15 -4 -5
3 -11 1 -14 -4 -3 -5 4 -11 17 -15 12 -3 24 -1 25 4 2 6 8 10 13 10 6 0 8 -4
5 -9 -4 -5 -1 -11 6 -13 9 -3 9 -6 0 -12 -7 -4 -12 -2 -12 5 0 8 -4 8 -15 -1
-10 -9 -15 -9 -15 -1 0 6 -3 10 -7 10 -26 -4 -33 4 -33 39 l0 37 -19 -29 c-11
-17 -18 -33 -15 -38 3 -4 1 -8 -5 -8 -17 0 -22 19 -11 42 11 23 11 23 -9 -1
-12 -12 -18 -28 -14 -34 3 -5 1 -7 -5 -3 -6 3 -13 2 -17 -4 -3 -5 -1 -10 6
-10 7 0 10 -3 6 -6 -3 -3 -10 -3 -16 1 -7 4 -5 14 5 31 l16 24 -28 -15 c-16
-8 -29 -18 -29 -22 -1 -20 -23 -45 -34 -38 -9 5 -8 13 3 30 16 25 6 43 -16 29
-8 -5 -9 0 -5 17 l6 24 -19 -25 c-19 -25 -21 -47 -4 -43 5 1 9 -12 9 -28 0
-24 -2 -27 -11 -14 -6 8 -16 15 -22 15 -6 0 -9 7 -5 16 7 19 -16 37 -32 25 -5
-5 -28 -12 -50 -16 -22 -4 -34 -10 -27 -12 6 -3 12 -9 12 -14 0 -5 -10 -5 -24
1 -13 5 -26 7 -28 5 -2 -2 -18 -6 -35 -10 -18 -3 -44 -10 -59 -15 -33 -13 -38
-8 -41 36 -2 40 18 43 27 3 4 -15 8 -20 13 -12 4 7 5 24 1 38 -3 14 -3 25 1
25 11 0 35 -28 35 -42 0 -9 2 -10 8 -1 4 6 16 11 27 10 15 -2 21 5 23 26 3 27
27 34 27 9 0 -21 20 -13 21 8 2 32 13 36 30 11 13 -19 18 -20 32 -9 12 10 14
10 8 1 -5 -9 -2 -11 8 -7 19 7 20 16 4 32 -20 20 1 26 23 6 15 -13 23 -15 26
-7 2 7 11 9 20 6 13 -5 13 -3 4 15 -6 11 -8 28 -5 36 7 18 -4 20 -25 7 -7 -5
-10 -14 -7 -20 5 -7 -6 -11 -34 -11 -23 0 -39 -4 -36 -8 3 -5 -1 -9 -9 -9 -8
0 -15 6 -15 14 0 7 -4 13 -10 13 -5 0 -10 -5 -10 -11 0 -5 -5 -7 -11 -4 -10 7
-60 -39 -57 -53 1 -4 -6 -8 -15 -10 -19 -4 -23 13 -6 24 7 4 -1 12 -21 20 -44
19 -70 18 -70 -3 0 -13 3 -14 12 -5 17 17 38 15 38 -4 0 -8 -4 -13 -9 -9 -6 3
-14 -2 -19 -12 -9 -15 -14 -16 -34 -5 -13 7 -38 11 -56 7 -19 -3 -32 -1 -32 5
0 5 9 10 20 10 11 0 20 5 20 10 0 6 -15 4 -36 -5 -20 -8 -38 -15 -40 -15 -2 0
-4 -5 -4 -11 0 -5 5 -7 10 -4 6 3 10 0 10 -8 0 -27 -13 -26 -44 4 -17 16 -32
25 -34 19 -6 -18 -22 -11 -22 11 0 19 -1 19 -16 5 -8 -9 -29 -16 -46 -16 -19
0 -28 -4 -25 -12 2 -7 12 -12 21 -12 23 2 20 -13 -4 -21 -28 -9 -25 -20 5 -23
14 -1 25 3 25 8 0 6 9 10 21 10 12 0 19 -5 16 -13 -2 -6 -11 -11 -21 -9 -9 2
-16 -2 -16 -8 0 -20 -37 -9 -64 19 -17 18 -34 27 -43 24 -13 -5 -13 -7 1 -15
22 -12 20 -37 -4 -73 l-21 -30 7 30 c7 30 7 30 -13 10 -18 -18 -19 -22 -4 -44
15 -23 15 -24 -7 -12 -29 15 -36 34 -23 58 8 15 5 23 -11 37 -16 14 -22 15
-29 5 -5 -9 -11 -10 -21 -2 -10 8 -19 7 -35 -7 -30 -24 -29 -28 7 -24 22 3 30
-1 30 -12 0 -11 -5 -14 -16 -10 -10 4 -23 -3 -36 -19 -17 -22 -23 -24 -36 -13
-13 11 -15 10 -10 -9 4 -13 2 -23 -2 -23 -5 0 -15 -3 -24 -6 -11 -4 -16 -1
-16 10 0 9 7 16 15 16 19 0 19 7 1 25 -12 12 -15 11 -21 -8 -4 -12 -8 -29 -9
-37 -5 -30 -19 -60 -27 -60 -12 0 -11 17 1 25 15 9 12 54 -5 71 -13 14 -15 14
-15 0 0 -8 4 -17 9 -20 8 -5 8 -14 2 -45 -1 -2 -9 3 -18 10 -15 12 -16 12 -10
-3 8 -23 -9 -23 -22 -1 -8 14 -12 15 -25 4 -12 -10 -16 -10 -16 -1 0 8 -8 10
-25 6 -18 -5 -25 -2 -25 8 0 22 -38 40 -54 27 -7 -6 -16 -8 -19 -4 -4 3 -17
-3 -30 -14 -12 -12 -33 -23 -47 -25 -29 -4 -36 -43 -8 -43 10 0 22 -5 29 -12
8 -8 6 -14 -11 -23 -15 -8 -20 -8 -16 -1 9 14 4 14 -31 -1 -15 -6 -31 -11 -35
-10 -5 1 -8 -2 -8 -8 0 -5 -4 -10 -10 -10 -5 0 -10 11 -10 25 0 14 5 25 10 25
6 0 10 -5 10 -10 0 -6 8 -5 20 2 16 11 17 14 5 21 -9 4 -24 5 -35 2 -14 -4
-32 3 -57 24 -20 17 -39 28 -42 25 -3 -2 5 -11 17 -20 15 -10 22 -24 20 -43
l-2 -28 -42 21 c-23 12 -39 24 -37 29 2 4 -1 7 -6 7 -6 0 -11 7 -11 15 0 18
-11 19 -43 4 -17 -8 -23 -17 -20 -30 6 -23 23 -25 23 -4 0 21 16 19 40 -5 11
-11 27 -20 35 -20 12 0 13 -4 5 -19 -5 -11 -10 -22 -10 -25 0 -10 79 -6 85 4
4 6 12 7 18 3 19 -13 231 -12 239 0 4 7 11 7 21 -1 20 -17 260 -15 250 1 -4 7
2 5 12 -3 14 -11 19 -12 22 -2 3 6 9 12 14 12 6 0 8 -4 4 -9 -3 -6 55 -10 150
-10 92 1 153 4 150 10 -4 5 5 5 20 -1 15 -6 24 -6 20 -1 -3 6 7 9 22 7 16 -1
34 2 42 8 12 10 27 14 61 19 8 1 24 8 36 14 17 10 25 9 41 -2 19 -13 22 -13
27 1 3 9 12 14 20 11 8 -3 23 1 34 8 10 8 22 12 25 8 4 -3 13 0 21 6 8 7 20
10 25 7 16 -10 62 5 54 18 -4 6 1 5 10 -3 11 -9 17 -10 17 -2 0 23 2 26 23 38
15 8 26 8 35 1 12 -11 88 -5 100 7 4 3 0 10 -8 15 -8 6 -11 10 -7 10 4 0 2 10
-4 23 l-12 22 20 -20 c11 -11 19 -23 17 -26 -2 -4 3 -9 11 -13 8 -3 15 -2 15
3 0 13 46 19 63 9 11 -6 20 -2 32 14 12 17 18 20 24 10 10 -17 41 -4 34 14 -3
8 -8 12 -12 10 -4 -3 -13 -1 -21 4 -11 7 -8 9 10 8 14 -1 33 -8 42 -16 13 -11
21 -11 38 -2 18 10 19 14 8 28 -7 9 -17 21 -23 25 -6 5 -2 6 8 3 10 -3 21 -6
23 -6 3 0 2 -4 -1 -10 -9 -15 11 -12 24 4 9 10 8 15 -4 20 -8 3 -15 11 -15 18
0 10 2 10 9 0 7 -11 11 -11 23 1 13 14 17 13 31 -4 18 -20 9 -27 -10 -8 -8 8
-13 8 -17 0 -4 -6 -2 -11 5 -11 8 0 9 -3 0 -13 -9 -11 -4 -13 27 -11 20 2 52
3 70 3 18 1 31 5 28 10 -4 5 3 7 14 4 15 -4 19 -1 15 9 -3 7 1 22 9 33 13 17
15 18 16 3 0 -9 -6 -19 -12 -22 -7 -3 -1 -4 15 -1 17 3 27 1 27 -6 0 -7 3 -10
6 -6 3 3 -1 16 -10 29 -23 32 -20 42 6 19 11 -11 25 -18 31 -14 5 3 14 -1 19
-8 8 -11 8 -10 4 4 -5 15 -2 17 17 11 21 -6 21 -6 5 12 -10 11 -14 25 -9 32 5
9 11 5 19 -13 8 -17 20 -25 37 -25 14 0 25 4 25 10 0 5 3 9 8 8 4 -1 18 4 31
11 13 7 21 8 17 3 -12 -19 9 -19 27 0 9 10 12 18 6 18 -5 0 -7 5 -4 10 3 6 -1
10 -9 10 -9 0 -16 4 -16 10 0 13 32 0 46 -18 17 -23 78 -7 108 28 23 28 25 29
31 10 5 -16 12 -19 28 -14 29 9 30 10 23 29 -5 13 -10 14 -27 5 -18 -10 -19
-10 -10 8 6 11 7 22 4 26 -3 3 -1 6 5 6 7 0 12 -4 12 -10 0 -5 5 -10 12 -10 6
0 3 9 -8 21 -15 17 -16 22 -4 29 8 5 11 12 7 16 -4 4 -1 14 6 22 10 13 9 14
-9 4 -12 -6 -24 -18 -28 -27 -3 -8 -11 -15 -18 -15 -9 0 -10 3 -2 8 6 4 11 15
11 25 0 21 1 21 -17 -1z"/>
<path d="M5402 535 c-11 -12 -10 -15 2 -15 23 0 29 -19 9 -27 -10 -4 -25 -13
-33 -21 -11 -11 -15 -12 -18 -2 -3 7 0 15 6 19 19 12 -14 44 -38 36 -17 -5
-20 -12 -15 -32 3 -14 2 -22 -3 -19 -5 3 -8 -24 -6 -64 2 -56 0 -68 -12 -63
-8 3 -12 9 -9 13 3 5 0 12 -6 15 -5 4 -8 13 -5 20 7 19 -29 29 -51 15 -16 -10
-16 -11 3 -7 29 6 52 -29 23 -36 -10 -3 -17 -1 -13 4 3 5 -2 9 -11 9 -12 0
-14 -4 -5 -19 19 -37 12 -61 -22 -76 -20 -8 -34 -10 -36 -4 -3 6 -10 5 -18 -2
-11 -9 -14 -8 -14 4 0 8 -7 20 -15 27 -19 16 -11 47 21 77 27 25 30 33 11 33
-8 0 -26 -17 -40 -37 -15 -21 -27 -32 -27 -24 0 11 -3 11 -15 1 -20 -17 -19
-28 3 -26 11 1 16 -5 14 -16 -2 -10 3 -18 11 -18 25 0 27 -27 3 -38 -29 -13
-57 1 -32 15 16 9 16 10 0 24 -15 12 -17 12 -12 -1 4 -14 -41 -60 -60 -60 -6
0 -18 10 -26 22 -18 25 -21 17 -6 -13 13 -23 55 -25 64 -4 7 19 22 19 30 -1 3
-8 2 -12 -4 -9 -6 4 -10 -6 -10 -23 0 -26 -3 -28 -32 -25 -31 3 -31 2 -10 -8
24 -13 31 -34 7 -25 -13 5 -13 1 1 -26 15 -29 15 -30 -1 -24 -12 4 -16 2 -12
-8 3 -7 0 -19 -6 -25 -27 -27 12 -7 48 24 22 19 43 35 48 35 4 0 5 4 2 10 -17
28 -13 51 11 62 31 15 45 1 19 -19 -17 -14 -18 -15 -2 -9 10 3 22 6 27 6 4 0
10 9 13 21 3 12 10 18 16 14 6 -3 11 -1 11 4 0 6 7 11 15 11 8 0 15 -4 15 -10
0 -26 17 -5 29 35 7 25 18 45 23 45 6 0 8 -7 4 -15 -3 -8 -1 -15 5 -15 6 0 7
-4 4 -10 -3 -6 1 -10 9 -10 9 0 16 -3 16 -7 -1 -16 -28 -43 -43 -43 -11 0 -14
-5 -10 -16 5 -14 1 -15 -28 -9 l-34 7 27 -25 c15 -13 24 -28 20 -33 -4 -4 0
-3 9 4 9 6 18 9 22 6 9 -10 47 6 44 19 -1 7 10 12 28 11 17 0 22 1 13 3 -10 3
-18 11 -18 19 0 8 -7 17 -16 21 -8 3 -13 12 -9 21 3 8 0 21 -6 28 -17 20 -3
44 26 44 20 0 24 -5 22 -22 -1 -14 6 -26 20 -33 21 -11 21 -11 2 -23 -11 -7
-17 -17 -13 -23 4 -8 9 -7 14 1 5 9 9 9 14 1 4 -6 12 -8 18 -5 6 4 8 3 5 -2
-3 -6 -1 -16 4 -24 7 -12 10 -11 15 7 4 14 14 23 26 23 22 0 22 30 -1 38 -9 3
-11 0 -6 -8 10 -16 -33 -3 -52 16 -15 15 -17 34 -3 34 6 0 10 -4 10 -10 0 -5
7 -10 15 -10 10 0 2 14 -22 40 -28 29 -40 36 -50 28 -10 -8 -13 -6 -13 9 0 15
7 20 30 21 17 0 28 -4 25 -9 -4 -5 0 -9 9 -9 8 0 22 -3 31 -6 15 -6 15 -4 4
15 -8 11 -21 21 -31 21 -26 0 -33 21 -9 27 20 5 20 6 4 18 -13 9 -22 10 -30 3
-14 -12 -16 -7 -7 16 3 9 15 16 25 16 11 0 19 7 19 16 0 14 3 14 15 4 12 -10
15 -9 15 4 0 10 5 14 10 11 15 -9 12 -32 -7 -51 -17 -17 -17 -17 7 -11 14 4
33 7 43 7 9 0 17 5 17 10 0 6 -6 10 -13 10 -7 0 -18 9 -25 20 -7 12 -8 20 -2
20 5 0 10 4 10 10 0 5 -6 7 -13 4 -17 -6 -41 21 -32 36 9 15 -8 11 -23 -5z"/>
<path d="M4344 397 c3 -10 6 -21 6 -23 0 -3 12 -9 26 -14 17 -7 24 -15 20 -25
-3 -8 -1 -15 3 -15 5 0 11 7 15 15 3 8 12 15 21 15 21 0 19 -9 -6 -31 l-20
-18 22 -11 c19 -11 21 -10 16 4 -8 21 16 21 33 0 11 -13 10 -16 -8 -21 -18 -4
-20 -9 -11 -24 5 -11 14 -17 19 -14 6 3 15 -5 21 -19 7 -14 21 -26 33 -28 13
-2 21 -10 21 -23 0 -11 3 -24 6 -30 4 -5 1 -15 -6 -22 -10 -10 -14 -9 -19 2
-3 8 -11 15 -17 15 -8 0 -9 -4 0 -13 6 -8 12 -30 13 -49 2 -22 7 -34 15 -31 6
3 9 11 6 19 -10 28 16 13 29 -16 7 -16 19 -32 26 -35 8 -3 10 0 5 8 -4 6 -13
27 -19 45 -10 27 -10 32 1 28 20 -7 26 21 9 39 -8 8 -13 19 -10 24 3 5 -1 11
-9 15 -8 3 -15 14 -15 25 0 20 -36 48 -54 43 -9 -3 -26 17 -26 31 0 4 10 6 23
4 12 -2 16 -2 9 0 -8 3 -12 13 -9 24 3 10 1 19 -4 19 -5 0 -13 8 -16 17 -4 9
-15 25 -26 36 -10 10 -16 26 -13 35 5 13 2 12 -10 -3 -15 -20 -15 -20 -30 -1
-12 17 -14 17 -14 4 0 -29 -22 -32 -42 -7 -15 18 -18 19 -14 6z"/>
<path d="M6687 373 c-4 -3 -7 -15 -7 -25 0 -10 -4 -18 -10 -18 -5 0 -10 -10
-10 -21 0 -16 -5 -20 -20 -16 -12 3 -18 1 -14 -5 4 -6 3 -13 -2 -17 -5 -3 -14
-15 -21 -26 -6 -11 -16 -19 -22 -17 -14 3 -14 -4 0 -30 8 -15 8 -22 -1 -28 -8
-5 0 -12 22 -20 23 -9 28 -14 16 -17 -26 -7 -78 25 -78 47 0 25 -5 25 -30 0
-28 -28 -25 -35 17 -38 21 -1 41 -6 46 -11 15 -15 -10 -22 -38 -11 -18 7 -24
7 -20 -1 4 -5 19 -15 33 -20 l26 -10 -30 -19 c-28 -17 -30 -17 -45 0 -14 17
-17 16 -46 -15 l-32 -33 24 -4 c13 -3 28 -1 34 5 12 12 44 1 36 -13 -4 -7 7
-9 31 -8 42 4 56 23 25 33 -27 8 -27 25 0 25 14 0 19 5 16 14 -7 18 22 14 34
-5 7 -11 9 -11 9 4 0 10 8 17 20 17 11 0 20 5 20 11 0 7 12 10 30 7 16 -2 31
-1 32 3 2 5 18 9 36 11 17 1 32 6 32 11 0 5 -15 5 -32 1 -18 -4 -48 -8 -65 -9
-28 -1 -33 2 -33 22 0 13 4 23 8 23 5 0 14 11 20 24 12 27 42 26 76 -3 19 -16
19 -15 2 11 -10 15 -15 32 -11 38 8 13 -19 40 -40 40 -14 0 -12 -4 6 -19 18
-14 21 -23 13 -31 -8 -8 -14 -7 -23 4 -7 8 -20 12 -28 9 -12 -5 -15 -2 -11 9
4 9 2 20 -4 26 -16 16 -1 30 29 26 16 -2 20 -1 10 2 -14 5 -16 9 -6 20 7 9 16
11 23 5 8 -6 15 -2 23 15 12 25 5 32 -13 14 -8 -8 -15 -6 -24 5 -14 16 -23 19
-33 8z"/>
<path d="M890 82 c0 -13 -7 -18 -22 -18 -13 1 -22 -4 -20 -11 1 -7 -2 -13 -8
-13 -5 0 -10 5 -10 11 0 15 -152 5 -387 -26 l-178 -23 298 1 c173 0 297 5 297
10 0 5 9 7 20 4 11 -3 23 -1 26 4 9 15 24 10 18 -6 -5 -12 3 -15 41 -15 l47 0
-7 31 c-5 22 -2 36 12 51 18 21 18 21 -4 9 -27 -14 -103 -15 -103 -1 0 6 -4
10 -10 10 -5 0 -10 -8 -10 -18z"/>
</g>
</svg>
