<?xml version="1.0" standalone="no"?>
<!DOCTYPE svg PUBLIC "-//W3C//DTD SVG 20010904//EN"
 "http://www.w3.org/TR/2001/REC-SVG-20010904/DTD/svg10.dtd">
<svg version="1.0" xmlns="http://www.w3.org/2000/svg"
 width="1400.000000pt" height="1494.000000pt" viewBox="0 0 1400.000000 1494.000000"
 preserveAspectRatio="xMidYMid meet">
<metadata>
Created by potrace 1.15, written by Peter Selinger 2001-2017
</metadata>
<g transform="translate(0.000000,1494.000000) scale(0.100000,-0.100000)"
fill="#000000" stroke="none">
<path d="M7613 14437 c-2 -17 0 -19 7 -7 9 13 10 13 11 0 1 -8 1 -21 0 -29 -2
-8 2 -10 10 -5 8 4 10 3 5 -4 -4 -7 -4 -18 1 -24 4 -7 8 -19 10 -27 1 -7 7
-19 13 -25 9 -8 11 -5 5 13 -5 16 -4 21 4 17 6 -4 11 -12 11 -18 0 -5 8 -22
19 -36 10 -15 26 -52 35 -82 9 -30 20 -62 26 -70 13 -20 12 -14 -5 44 -14 45
-13 48 3 42 14 -5 13 -3 -2 9 -11 8 -14 15 -8 15 9 0 10 5 4 18 -13 25 -4 46
14 31 18 -14 18 -6 0 29 -7 15 -16 41 -19 57 -6 28 -6 28 5 7 6 -13 17 -21 24
-18 7 3 15 -2 18 -11 4 -9 9 -13 12 -10 3 3 0 16 -7 29 l-12 23 27 -24 c25
-23 45 -24 31 -2 -10 17 -155 81 -182 81 -20 0 -23 -4 -19 -22 3 -13 3 -17 0
-10 -3 7 -13 16 -23 21 -13 8 -17 5 -18 -12z"/>
<path d="M7556 14412 c-18 -35 -23 -79 -6 -52 6 10 9 3 8 -25 -2 -49 21 -135
36 -135 6 0 19 -17 29 -38 67 -142 117 -222 192 -307 l27 -30 -21 31 c-11 17
-19 40 -18 51 0 11 -11 36 -26 54 -40 48 -127 185 -127 198 0 6 -5 11 -10 11
-6 0 -10 6 -9 13 1 6 1 21 0 32 -1 17 -3 18 -11 5 -8 -13 -10 -12 -10 3 0 10
-7 32 -15 50 -15 30 -15 31 1 12 15 -18 16 -18 10 -2 -18 53 -18 67 -2 61 9
-3 16 -1 16 5 0 6 -6 10 -12 9 -8 -2 -14 11 -16 32 -5 50 -18 57 -36 22z"/>
<path d="M7396 14354 c-3 -9 -6 -43 -6 -76 0 -47 7 -76 32 -130 23 -50 34 -64
38 -52 5 15 31 -65 53 -162 2 -6 11 -23 21 -38 27 -42 12 -43 -19 -2 -15 20
-33 36 -41 36 -17 0 -57 54 -78 104 -34 82 -46 161 -36 238 5 40 7 75 4 77 -3
3 -19 -10 -37 -29 -18 -19 -24 -28 -14 -21 25 20 23 -10 -3 -34 -11 -10 -18
-20 -15 -23 2 -2 -4 -12 -13 -21 -10 -9 -12 -12 -5 -7 25 16 13 -12 -22 -54
-35 -42 -48 -44 -19 -2 8 12 12 22 7 23 -4 0 -19 2 -32 3 -13 2 -35 -7 -51
-21 l-28 -23 5 22 c6 21 28 42 46 43 4 0 7 3 7 8 0 4 0 12 0 18 0 8 -5 7 -15
-1 -35 -29 -21 -1 24 48 26 29 46 52 43 52 -20 0 -108 -70 -134 -106 -17 -24
-32 -44 -33 -44 -4 0 3 48 10 72 l7 23 -21 -23 c-12 -12 -26 -20 -30 -18 -5 3
-19 -6 -32 -20 -13 -14 -32 -30 -42 -36 -16 -8 -17 -7 -8 11 6 11 17 24 25 28
24 15 101 86 81 75 -33 -17 -227 -201 -275 -261 -49 -61 -110 -173 -130 -236
-7 -22 -35 -89 -64 -150 l-51 -110 -1 -150 -1 -151 -42 -84 c-23 -47 -51 -93
-62 -102 -12 -10 -18 -18 -15 -18 7 0 -36 -62 -61 -88 -6 -7 -15 -32 -19 -57
-7 -48 1 -68 48 -115 14 -14 38 -45 54 -70 16 -25 32 -47 36 -50 8 -6 -61
-220 -87 -269 -21 -41 -49 -66 -120 -105 -95 -53 -405 -189 -590 -260 -301
-114 -265 -91 -484 -309 l-196 -196 -80 -20 c-101 -26 -189 -58 -193 -71 -2
-6 -10 -10 -19 -10 -20 0 -73 -51 -73 -70 0 -9 -5 -21 -12 -28 -9 -9 -9 -12 0
-12 7 0 20 -18 29 -40 10 -22 25 -42 34 -45 25 -8 76 -77 84 -113 11 -50 -30
-112 -238 -369 -148 -181 -317 -444 -417 -646 -176 -358 -175 -459 10 -689 63
-77 474 -471 669 -639 63 -55 71 -65 56 -74 -43 -25 -65 -48 -65 -66 0 -25 27
-79 40 -79 5 0 11 -9 15 -19 4 -13 57 -41 173 -91 92 -40 196 -89 232 -109 58
-33 66 -41 85 -90 13 -34 28 -57 42 -62 23 -8 37 -38 28 -60 -7 -14 -112 -106
-166 -145 -17 -12 -60 -29 -97 -39 -70 -17 -185 -64 -190 -77 -2 -4 -10 -8
-17 -8 -7 0 -15 -7 -19 -15 -3 -8 -12 -12 -21 -9 -18 7 -47 -14 -39 -28 3 -5
-12 2 -35 16 -58 37 -125 58 -158 50 -64 -15 -163 -83 -163 -111 0 -6 -9 -13
-20 -16 -12 -3 -20 -14 -20 -25 0 -11 -6 -22 -12 -24 -13 -5 -21 -105 -10
-123 4 -5 7 -12 8 -15 7 -36 18 -59 27 -53 6 4 7 1 3 -6 -10 -16 22 -51 40
-44 9 3 12 0 9 -8 -5 -14 48 -53 72 -54 6 0 15 -3 18 -7 7 -7 -9 -87 -26 -138
-5 -14 -12 -43 -15 -65 -3 -22 -8 -43 -11 -47 -2 -5 1 -8 8 -8 8 0 6 -6 -4
-18 -32 -35 -22 -68 35 -113 29 -22 53 -47 54 -55 1 -8 14 -28 28 -45 14 -17
26 -34 26 -38 0 -4 12 -21 28 -38 15 -17 50 -57 77 -89 28 -32 67 -75 87 -96
28 -28 44 -59 64 -120 15 -46 40 -102 55 -125 16 -23 29 -47 29 -53 0 -7 22
-33 50 -60 l49 -47 -36 -69 c-26 -48 -37 -83 -38 -114 0 -25 -6 -55 -13 -67
-16 -29 19 -110 54 -123 13 -5 24 -13 24 -18 0 -5 12 -7 28 -5 207 25 200 25
236 -2 21 -16 46 -25 68 -25 20 0 41 -7 48 -15 16 -19 39 -19 61 0 15 14 18
14 32 0 14 -14 16 -98 12 -803 -4 -904 8 -787 -113 -1071 l-66 -156 -4 -145
c-4 -140 -3 -149 28 -250 42 -140 45 -157 28 -178 -20 -24 -38 -69 -38 -94 0
-11 17 -36 37 -56 l37 -35 12 -256 c7 -141 21 -312 30 -381 13 -88 18 -192 19
-355 1 -126 5 -258 10 -293 7 -56 5 -68 -14 -102 -16 -29 -18 -40 -9 -43 7 -3
2 -5 -11 -4 -32 3 -53 -35 -49 -85 3 -29 1 -34 -9 -26 -7 6 -13 15 -13 21 0
17 -50 77 -65 77 -21 0 -59 -51 -121 -163 -32 -56 -88 -155 -126 -219 -38 -65
-92 -166 -121 -225 -49 -101 -52 -113 -52 -183 0 -56 5 -83 18 -103 26 -40 97
-81 185 -107 42 -12 85 -26 95 -31 10 -6 17 -5 17 1 0 6 9 6 26 0 43 -17 264
-33 364 -26 124 7 167 14 199 30 14 7 52 21 83 30 67 19 192 119 327 262 114
120 125 147 117 283 -4 58 -8 120 -8 137 l-2 31 -34 -24 c-19 -12 -41 -23 -49
-23 -8 0 -12 -4 -9 -9 5 -8 -53 -25 -61 -18 -1 2 26 21 62 42 36 20 62 41 59
46 -3 5 0 9 5 9 10 0 7 245 -4 296 -3 12 6 46 19 75 14 30 29 86 35 124 11 72
19 103 65 260 14 50 39 167 56 260 29 168 65 355 98 510 16 75 19 80 45 83 15
2 25 8 22 13 -4 5 -2 9 3 9 5 0 15 14 22 30 10 24 10 37 1 56 -6 14 -11 33
-11 42 0 9 -9 23 -20 30 -26 16 -25 30 5 62 36 37 111 215 119 281 5 40 1 75
-14 134 -39 150 -34 189 54 445 181 520 231 717 231 905 0 85 2 100 17 103 21
4 27 -7 44 -81 7 -34 32 -132 55 -217 86 -322 91 -352 85 -491 -6 -119 -5
-127 14 -140 19 -13 19 -19 11 -95 -6 -47 -6 -136 -2 -210 7 -115 12 -138 44
-214 44 -108 49 -148 19 -178 -12 -12 -22 -32 -22 -43 0 -33 37 -85 77 -110
34 -22 72 -84 73 -121 0 -10 20 -77 44 -150 25 -73 68 -209 96 -303 50 -164
69 -222 111 -330 10 -27 19 -71 19 -96 0 -32 7 -55 21 -73 11 -14 24 -39 29
-56 11 -40 -7 -153 -33 -210 -27 -57 -32 -142 -18 -279 17 -162 32 -183 157
-220 60 -18 324 -64 439 -77 22 -2 65 -9 95 -14 30 -5 80 -12 110 -15 30 -3
62 -7 70 -10 8 -2 40 -7 70 -10 30 -4 78 -11 105 -16 86 -17 446 -49 542 -49
112 0 167 11 301 62 170 64 241 120 294 234 21 45 23 63 23 219 -1 190 -18
276 -76 386 -42 78 -80 113 -114 105 -29 -7 -35 -20 -100 -190 -46 -119 -87
-176 -138 -193 -36 -12 -255 -7 -242 5 8 8 -16 32 -27 26 -5 -3 -15 -1 -22 5
-13 11 -50 10 -111 -4 -29 -6 -29 -6 -11 9 20 16 36 20 71 16 32 -3 17 5 -102
53 -78 31 -110 40 -106 30 5 -13 2 -13 -14 -4 -18 9 -33 31 -33 48 0 3 8 0 18
-8 12 -9 11 -6 -3 9 -11 12 -37 24 -59 26 -42 6 -50 11 -51 29 -2 38 -117 175
-142 169 -7 -2 -13 3 -13 9 0 7 -7 20 -15 30 -14 14 -15 31 -7 110 5 52 6 130
2 174 -7 85 5 866 15 976 5 57 3 67 -14 83 -20 18 -20 19 -2 55 41 81 46 174
16 301 -12 53 -81 234 -111 291 -8 16 -28 97 -44 181 -31 160 -36 242 -20 383
5 44 16 159 25 255 9 96 27 281 40 410 14 129 27 262 29 295 5 68 1 66 114 50
l54 -8 63 66 c48 51 69 83 94 144 17 43 43 98 57 123 83 149 109 236 107 369
-2 107 -30 426 -43 486 -5 22 -12 84 -16 137 l-7 97 25 10 c26 10 49 56 47 95
0 12 -3 15 -6 9 -2 -7 -9 -13 -15 -13 -6 0 -4 8 5 18 17 19 20 32 18 74 l-1
28 -35 -20 c-46 -26 -59 -26 -20 0 34 22 45 45 38 76 -2 12 10 66 27 120 17
55 36 123 41 152 22 118 42 240 46 289 l5 51 -46 27 c-37 21 -54 25 -91 21
l-45 -5 0 32 c0 18 8 113 17 212 11 122 17 279 17 485 l0 305 -41 170 c-23 94
-46 211 -53 260 -24 199 -48 619 -49 858 -1 161 8 200 55 244 18 16 24 31 22
51 -2 22 1 28 20 30 18 3 21 8 16 28 -5 18 -2 24 10 24 9 0 16 5 16 12 0 6 7
19 16 29 17 19 27 86 13 95 -11 7 -12 44 0 44 12 0 1 48 -15 61 -8 6 -14 17
-14 24 0 7 -15 24 -32 38 -97 74 -149 147 -239 332 -35 73 -102 132 -225 199
-60 33 -203 112 -319 176 -115 65 -252 139 -303 164 -73 37 -92 50 -88 64 31
100 33 171 7 199 -11 12 -18 23 -15 26 3 2 7 13 9 23 2 11 8 35 13 54 7 27 5
39 -6 49 -12 11 -12 15 0 22 11 7 10 11 -2 19 -12 7 -12 10 -1 10 7 0 11 6 8
14 -4 9 7 22 29 35 21 13 34 28 34 41 0 11 4 20 9 20 16 0 18 48 4 89 -9 27
-11 47 -5 58 8 13 10 11 10 -11 0 -15 5 -33 12 -39 9 -9 10 -4 5 25 -4 20 -2
51 4 70 6 18 13 45 16 59 3 17 13 29 28 33 37 9 105 63 124 98 9 18 24 69 33
113 15 76 17 81 48 91 18 5 29 14 25 18 -5 5 3 5 16 1 21 -6 23 -5 16 11 -28
70 -34 166 -16 259 23 122 24 197 2 283 -11 46 -27 93 -36 105 -8 12 -15 33
-15 48 0 66 -44 127 -46 63 0 -18 -7 -40 -14 -49 -13 -15 -15 -15 -22 6 -6 15
-5 25 1 27 17 6 13 32 -4 32 -8 0 -15 9 -15 19 0 25 -20 38 -20 14 -1 -17 -2
-17 -16 2 -13 18 -14 13 -9 -45 l5 -65 -19 45 c-35 82 -48 103 -55 85 -7 -18
5 -78 28 -143 9 -24 38 -72 66 -107 27 -34 47 -65 44 -68 -3 -3 1 -20 10 -38
19 -39 20 -42 4 -32 -7 4 -20 9 -29 10 -17 3 -80 37 -115 63 -39 29 -36 41 5
16 56 -36 61 -33 20 12 -19 20 -42 46 -50 57 -14 19 -13 19 11 2 31 -22 41
-22 33 1 -3 9 8 1 25 -18 17 -19 31 -32 32 -28 0 4 -13 22 -29 40 -16 18 -37
51 -47 72 -21 45 -44 58 -44 27 0 -12 -3 -20 -7 -20 -29 5 -42 -2 -36 -18 5
-14 1 -13 -19 5 l-25 22 2 -34 c1 -34 0 -35 -19 -18 -11 9 -31 29 -44 45 -13
15 -28 27 -32 27 -16 0 33 -102 64 -133 24 -23 26 -29 11 -24 -20 7 -20 7 -1
-8 19 -14 18 -15 -10 -15 -34 0 -77 26 -68 42 4 5 -21 38 -53 72 -64 65 -135
164 -159 223 -8 19 -17 33 -20 30 -3 -2 6 -29 20 -60 13 -30 22 -58 19 -60 -6
-6 24 -66 45 -89 8 -10 11 -18 6 -18 -5 0 5 -12 21 -26 20 -16 23 -22 9 -15
-32 15 -110 94 -128 130 -24 46 -14 38 23 -20 18 -27 35 -48 38 -45 3 3 -6 19
-20 36 -14 16 -28 39 -32 50 -3 11 -12 20 -18 20 -12 0 -87 118 -87 137 0 6
-9 21 -19 35 -11 13 -23 37 -27 52 -4 18 -9 24 -14 16 -13 -21 -21 6 -16 49 5
41 -7 64 -18 35z m77 -503 c4 -4 2 -8 -5 -8 -27 -1 -43 -9 -60 -30 -20 -23
-24 -38 -8 -28 6 3 10 -1 10 -9 0 -9 4 -16 10 -16 5 0 25 -16 45 -36 33 -33
35 -33 30 -11 -9 36 14 45 36 16 10 -13 21 -34 24 -46 3 -12 10 -34 15 -48
l10 -26 44 31 c24 17 49 33 57 34 8 2 21 6 29 9 8 3 27 8 43 11 33 8 38 47 7
69 -18 13 -19 16 -5 27 12 10 13 16 3 29 -12 14 -11 14 4 2 10 -7 15 -18 11
-24 -3 -6 -1 -7 5 -3 7 4 30 -5 51 -21 30 -21 41 -37 45 -66 4 -21 2 -45 -3
-55 -12 -25 -23 -91 -16 -102 4 -6 17 -4 35 5 44 23 71 18 107 -17 31 -30 33
-31 33 -10 0 26 12 28 30 7 7 -9 15 -13 18 -10 11 10 31 -32 32 -65 0 -28 3
-32 11 -20 9 12 9 11 3 -5 -5 -11 -9 -94 -11 -184 -2 -164 -21 -279 -44 -266
-14 9 -47 -34 -59 -78 -30 -104 -156 -321 -207 -354 -28 -19 -151 -24 -189 -8
-10 4 -29 9 -42 11 -12 1 -36 10 -54 18 -17 9 -36 16 -42 16 -7 0 -47 23 -91
50 -44 28 -75 50 -70 50 6 0 -3 8 -20 18 -16 11 -39 32 -50 47 -11 16 -32 42
-47 58 -16 16 -28 32 -28 37 0 5 -5 10 -11 12 -9 3 -15 22 -18 51 -1 5 -5 6
-9 3 -5 -3 -9 9 -10 27 -2 37 -8 83 -16 114 -2 13 -1 25 3 28 5 2 7 16 6 30
-2 14 1 23 6 19 5 -3 9 5 9 16 0 13 8 24 20 27 26 7 26 18 -1 20 -30 3 -34 10
-18 29 13 16 12 17 -8 12 -15 -4 -23 -2 -23 7 0 7 -7 16 -16 19 -10 4 -14 14
-11 26 3 11 1 18 -4 14 -5 -3 -9 0 -9 5 0 6 -9 11 -21 11 -14 0 -19 5 -16 14
3 8 -1 17 -9 20 -8 3 -14 -1 -14 -10 0 -8 -11 -20 -25 -26 -14 -6 -25 -14 -26
-17 -4 -35 -22 -101 -41 -153 -6 -15 -7 -31 -4 -37 4 -5 1 -13 -5 -16 -6 -4
-8 -18 -4 -32 4 -16 2 -22 -5 -18 -5 3 -10 2 -10 -4 0 -5 6 -11 13 -14 9 -3 9
-8 1 -16 -8 -9 -16 4 -29 51 -9 35 -20 68 -23 73 -4 6 -7 15 -7 20 0 6 -17 11
-39 13 -27 2 -36 0 -31 -8 5 -9 2 -9 -11 -2 -22 12 -64 55 -49 50 6 -2 28 4
50 14 22 9 48 19 57 22 15 4 17 13 11 51 -5 39 -4 45 11 39 11 -4 16 -1 16 11
0 9 6 23 14 30 12 12 15 9 21 -22 8 -46 19 -35 50 51 40 109 75 166 160 255
44 46 89 91 99 100 11 9 31 28 45 43 52 53 90 68 161 61 36 -3 69 -8 73 -12z
m232 -1558 c-4 -43 -12 -89 -19 -102 -12 -27 -63 -49 -114 -50 l-33 -1 81 105
c44 58 80 110 80 115 0 6 3 10 6 10 3 0 3 -35 -1 -77z m-2143 -2120 c10 -9 18
-22 18 -29 0 -19 143 -508 239 -819 28 -88 46 -164 42 -168 -14 -14 -61 34
-91 93 -22 44 -37 60 -61 69 -48 17 -63 14 -104 -19 -47 -37 -72 -45 -92 -28
-23 19 -99 138 -137 217 -50 102 -95 183 -125 220 -56 72 -55 66 -16 89 24 15
35 29 35 44 0 35 11 45 77 78 66 31 92 65 137 173 27 64 45 97 53 97 4 0 15
-7 25 -17z"/>
<path d="M7325 13656 c-17 -7 -36 -25 -43 -40 -19 -41 -14 -44 14 -8 32 40 49
42 26 3 -26 -47 -9 -81 52 -100 l48 -15 24 27 c26 30 31 66 13 98 -10 20 -10
20 22 4 17 -9 36 -30 42 -46 12 -31 27 -39 27 -15 0 8 -4 26 -10 41 -20 53
-144 82 -215 51z"/>
<path d="M7882 13500 c-32 -14 -36 -33 -17 -90 12 -36 25 -55 42 -63 23 -10
28 -8 50 18 20 23 24 36 20 67 -5 38 -5 39 16 25 12 -8 29 -26 37 -40 13 -24
13 -28 -8 -56 -12 -17 -18 -31 -13 -31 17 0 61 66 61 90 0 59 -116 108 -188
80z"/>
<path d="M7507 13263 c-13 -16 -14 -22 -2 -49 7 -17 26 -40 41 -51 48 -33 158
-63 230 -63 62 0 68 2 101 35 43 43 40 65 -12 80 -22 7 -73 23 -114 35 -98 31
-112 31 -170 10 -50 -20 -69 -17 -50 7 17 20 -5 16 -24 -4z"/>
<path d="M7258 13208 c-120 -25 11 -112 244 -163 165 -37 246 -63 317 -102 63
-35 65 -36 105 -21 47 17 57 43 28 76 -11 12 -22 22 -25 22 -4 0 -11 -18 -17
-40 -12 -43 -37 -53 -61 -24 -32 39 -193 92 -344 114 -105 15 -141 25 -160 44
-14 14 -14 19 7 48 13 18 26 35 31 36 4 2 7 7 7 11 0 10 -79 10 -132 -1z"/>
</g>
</svg>
