<?xml version="1.0" standalone="no"?>
<!DOCTYPE svg PUBLIC "-//W3C//DTD SVG 20010904//EN"
 "http://www.w3.org/TR/2001/REC-SVG-20010904/DTD/svg10.dtd">
<svg version="1.0" xmlns="http://www.w3.org/2000/svg"
 width="820.000000pt" height="1167.000000pt" viewBox="0 0 820.000000 1167.000000"
 preserveAspectRatio="xMidYMid meet">
<metadata>
Created by potrace 1.15, written by Peter Selinger 2001-2017
</metadata>
<g transform="translate(0.000000,1167.000000) scale(0.100000,-0.100000)"
fill="#000000" stroke="none">
<path d="M3373 10633 c-35 -13 -10 -93 107 -338 21 -44 48 -114 59 -155 12
-41 25 -88 31 -105 5 -16 16 -78 24 -138 9 -59 25 -138 36 -175 11 -37 24
-114 30 -171 10 -107 7 -120 -27 -121 -7 0 -45 -10 -86 -23 l-73 -24 -18 85
c-9 46 -32 114 -50 151 -18 36 -36 80 -40 96 -10 42 -33 75 -53 75 -24 0 -9
-86 32 -185 18 -44 31 -82 29 -84 -2 -2 -19 10 -39 27 -69 62 -149 89 -193 66
-15 -7 -30 -14 -34 -14 -23 0 -139 -89 -171 -132 -42 -55 -44 -76 -9 -89 19
-7 33 2 96 66 41 40 89 81 107 90 32 17 32 17 25 -7 -3 -12 -12 -56 -18 -95
l-12 -73 -40 0 -40 0 26 -27 c16 -18 28 -44 31 -74 4 -25 17 -72 31 -105 107
-256 136 -340 130 -376 -5 -28 -13 -39 -33 -47 -174 -64 -400 -144 -543 -192
-98 -33 -184 -62 -192 -65 -17 -6 -29 18 -77 159 -17 51 -44 119 -60 153 -16
34 -29 64 -29 67 0 3 22 32 48 64 26 32 69 87 96 123 43 58 37 54 -57 -45 -59
-60 -106 -117 -107 -125 0 -14 43 -175 96 -359 l24 -84 -51 -139 c-56 -151
-53 -148 -130 -124 -193 61 -231 67 -416 65 -175 -1 -179 -1 -228 25 -27 15
-60 36 -72 48 -13 12 -25 19 -28 17 -2 -3 24 -33 59 -68 l63 -63 173 2 c129 1
178 -3 194 -13 11 -7 42 -21 69 -31 26 -10 47 -22 47 -27 0 -5 3 -8 8 -7 10 3
84 -22 98 -33 13 -10 7 -62 -37 -304 -77 -434 -91 -531 -70 -510 13 14 151
717 151 770 0 42 1 43 38 50 20 3 139 7 264 8 l227 2 -23 -30 c-54 -71 -95
-181 -80 -219 11 -28 23 -18 53 43 51 101 108 145 275 216 118 50 172 67 278
90 76 16 78 17 89 54 6 20 9 48 7 61 -4 34 -35 31 -145 -15 -49 -20 -135 -54
-193 -75 -58 -21 -132 -50 -165 -65 -53 -24 -58 -25 -41 -7 20 23 36 23 -199
2 -207 -19 -285 -23 -285 -13 0 5 23 61 50 125 28 64 50 120 50 125 0 20 37
42 105 61 39 11 162 47 275 80 113 33 259 74 325 92 66 18 136 42 156 53 l37
20 38 -31 c25 -20 56 -33 87 -37 52 -8 53 -10 32 -51 -8 -15 -13 -29 -12 -31
2 -1 32 2 67 7 97 14 159 12 177 -5 18 -19 78 -11 106 13 15 14 33 14 146 4
146 -14 242 -38 349 -87 190 -88 389 -294 541 -559 58 -102 85 -169 138 -346
l38 -124 112 -13 c188 -21 332 -90 447 -214 115 -123 141 -205 133 -404 -4
-86 -13 -157 -27 -210 -37 -139 -50 -244 -60 -485 -27 -662 -97 -1046 -275
-1510 -312 -814 -778 -1469 -1186 -1668 -109 -52 -193 -72 -310 -72 -142 0
-274 43 -411 135 -61 41 -43 22 35 -37 106 -80 133 -98 151 -98 21 0 146 -50
145 -58 -3 -20 3 -32 15 -32 8 0 18 -9 21 -20 3 -11 13 -20 21 -20 8 0 14 -7
14 -15 0 -8 5 -15 11 -15 7 0 9 11 6 26 l-5 26 27 -26 26 -26 4 -220 c3 -210
2 -221 -18 -256 -12 -20 -19 -44 -16 -54 3 -9 -2 -23 -10 -30 -9 -8 -22 -27
-29 -44 -25 -59 -85 -118 -144 -144 -31 -13 -66 -25 -77 -27 -11 -1 -37 -9
-59 -18 -21 -10 -40 -17 -43 -17 -2 0 -23 -8 -46 -19 -65 -29 -373 -150 -400
-157 -19 -4 -28 -16 -36 -49 -15 -61 -14 -65 11 -25 30 48 50 60 143 92 44 14
130 45 190 68 224 85 331 120 371 120 37 0 46 5 78 43 94 109 112 120 157 97
14 -8 18 -17 13 -34 -6 -24 79 -205 190 -406 25 -45 46 -85 46 -89 0 -10 161
-324 181 -352 13 -19 21 -60 29 -153 11 -131 7 -156 -26 -156 -19 0 -18 -19 2
-27 9 -3 20 0 24 7 6 10 10 6 13 -11 3 -13 4 58 3 158 -1 167 0 182 18 193 17
11 16 13 -13 31 -17 10 -31 23 -31 29 0 6 -45 103 -100 216 -55 113 -100 209
-100 214 0 6 -40 92 -89 192 -95 196 -132 248 -176 248 -26 0 -27 2 -22 38 3
20 13 58 22 83 l17 47 64 -6 c48 -3 97 2 187 21 67 14 181 36 252 47 72 12
186 35 255 51 193 45 208 49 214 49 3 0 6 -10 6 -22 1 -17 13 -29 51 -48 52
-25 71 -50 98 -130 13 -36 57 -76 210 -193 42 -33 96 -78 121 -101 74 -69 163
-141 159 -128 -2 7 -92 102 -200 210 l-195 197 -24 96 -23 96 -66 44 c-66 45
-66 45 -66 92 -1 46 0 47 25 42 15 -3 34 0 45 9 28 20 12 30 -26 17 -47 -16
-65 -15 -49 4 7 8 18 15 25 15 7 0 29 11 49 25 20 14 43 25 52 25 12 0 12 3 2
20 -14 21 -62 28 -73 10 -4 -6 -16 -8 -27 -4 -19 6 -20 3 -14 -32 6 -36 5 -38
-9 -20 -8 11 -16 30 -16 43 -1 13 -2 29 -3 36 -1 6 7 11 18 9 11 -2 15 1 11 7
-3 6 -13 11 -21 11 -11 0 -14 15 -15 63 0 34 -3 123 -7 197 -14 327 -14 316 2
333 18 18 20 38 6 55 -6 6 -7 10 -4 7 16 -11 34 20 34 59 l1 41 17 -27 c23
-38 32 -35 32 12 0 30 5 42 21 50 11 7 22 10 24 8 2 -2 21 -42 43 -88 21 -47
80 -169 130 -271 51 -102 92 -191 92 -197 0 -5 11 -30 25 -53 29 -51 30 -59
10 -59 -8 0 -15 -7 -15 -15 0 -15 25 -21 33 -7 2 4 2 1 0 -6 -1 -8 -3 -20 -3
-28 0 -10 -6 -13 -19 -9 -14 4 -24 -3 -39 -30 -24 -39 -17 -45 19 -16 13 10
30 16 37 14 20 -7 14 -39 -10 -52 l-23 -11 25 3 c24 3 25 1 22 -45 -4 -43 -2
-48 16 -48 12 0 24 5 27 10 4 6 30 28 60 50 44 32 53 45 57 75 2 20 0 38 -4
41 -4 3 -8 -4 -8 -15 0 -11 -4 -22 -10 -26 -5 -3 -7 -12 -4 -19 6 -17 -1 -21
-42 -30 -28 -6 -32 -4 -39 21 -4 15 -10 22 -12 16 -6 -16 -33 -17 -33 -2 0 6
5 20 11 31 10 18 9 20 -6 14 -12 -4 -9 3 9 25 14 17 26 35 26 41 0 6 7 8 15 4
15 -5 45 39 45 66 0 10 24 13 98 14 195 1 514 16 505 25 -4 4 -118 9 -253 10
-189 1 -253 4 -280 15 -24 10 -51 13 -87 8 -53 -6 -53 -6 -59 24 -4 17 -15 39
-25 48 -12 11 -19 31 -19 53 0 24 -3 32 -9 22 -8 -13 -58 64 -146 224 -15 28
-31 54 -36 59 -27 29 28 90 70 79 27 -7 28 13 1 22 -30 10 -24 25 10 25 35 0
39 16 12 51 -10 13 -19 41 -21 62 -2 35 0 38 19 32 18 -6 19 -3 14 27 l-6 33
26 -30 c14 -16 25 -35 26 -41 0 -6 12 -11 26 -11 18 0 22 3 15 10 -6 6 -11 18
-11 26 0 12 3 12 12 3 16 -16 28 -15 28 3 0 8 -7 15 -15 15 -8 0 -15 9 -15 20
0 12 -12 32 -26 45 -30 28 -26 65 7 65 11 0 22 7 25 15 4 8 10 13 15 10 4 -3
23 1 41 10 l33 15 -50 -6 c-82 -10 -120 -10 -120 1 0 6 3 9 8 7 4 -1 25 9 47
23 22 14 44 25 49 25 5 0 7 8 5 18 -4 14 1 17 28 17 27 0 34 4 36 23 4 26 -6
28 -24 5 -12 -16 -13 -16 -14 8 0 55 36 56 71 3 14 -22 15 -22 38 -3 19 16 21
21 9 32 -7 8 -19 12 -26 9 -18 -6 -14 25 4 32 9 4 19 4 22 1 3 -3 1 -5 -4 -5
-5 0 6 -9 25 -21 l34 -21 23 29 c24 29 33 56 12 35 -17 -17 -33 -15 -18 3 16
20 12 24 -33 29 -21 3 -45 10 -55 15 -15 10 -15 11 6 17 12 3 22 10 22 16 0 8
-70 4 -127 -8 -45 -9 -31 15 23 41 65 31 57 34 186 -72 43 -35 80 -63 83 -63
13 0 125 -93 125 -104 0 -9 28 -220 31 -236 2 -11 29 96 29 117 0 12 7 28 15
36 8 8 11 17 8 20 -5 6 15 67 22 67 1 0 76 -29 165 -65 89 -36 168 -65 174
-65 10 0 183 -65 249 -93 15 -7 27 -16 27 -20 0 -5 -9 -45 -21 -90 -51 -200
-67 -242 -124 -327 l-57 -85 86 89 c47 50 86 97 86 106 0 21 37 192 49 222 17
46 24 130 11 138 -7 4 -9 13 -6 19 10 16 36 14 36 -3 0 -9 22 -18 63 -26 54
-10 255 -66 312 -85 57 -20 -79 58 -214 123 l-155 74 -54 -22 -54 -23 -66 35
c-37 20 -120 63 -184 98 -65 34 -118 66 -118 71 0 6 -9 22 -20 37 -11 15 -23
43 -26 62 -4 30 1 43 36 90 23 30 58 72 77 92 33 34 35 40 29 78 -6 40 -4 45
48 109 30 36 67 80 83 97 31 33 75 90 88 114 8 16 -173 -158 -254 -243 -30
-32 -74 -103 -127 -205 l-82 -157 -72 -11 c-59 -9 -74 -9 -86 3 -8 8 -14 21
-14 29 0 8 -6 14 -14 14 -17 0 -126 125 -126 143 0 7 -10 17 -22 22 -12 6 -25
24 -30 40 -6 24 -4 33 13 46 24 18 23 60 -1 66 -13 4 -13 3 0 -6 13 -9 12 -11
-3 -11 -12 0 -17 6 -15 18 2 12 11 16 29 14 21 -2 28 2 33 22 9 37 46 34 80
-6 14 -17 26 -27 26 -22 0 6 -6 16 -12 22 -18 18 9 34 45 28 15 -3 27 -1 27 4
0 6 -5 10 -11 10 -6 0 -8 7 -5 17 7 17 -11 83 -22 82 -4 -1 -17 2 -29 6 -24 8
-29 20 -13 30 5 3 7 12 3 20 -3 9 1 15 9 15 23 0 62 37 46 43 -10 4 -10 6 1 6
11 1 11 4 1 16 -8 9 -8 15 -2 15 22 0 42 -13 42 -27 0 -8 5 -11 11 -8 7 5 4
13 -7 26 -16 18 -16 19 7 28 13 5 18 10 12 10 -17 1 -17 31 0 31 16 0 15 33
-1 53 -7 8 -10 22 -6 31 3 9 2 17 -2 17 -5 1 -19 3 -32 4 -32 3 -40 15 -19 26
9 6 17 17 17 24 0 11 12 15 45 15 25 0 45 5 45 10 0 6 -4 10 -8 10 -10 0 -42
54 -42 70 0 7 6 10 14 7 8 -3 17 1 20 10 8 20 6 22 -25 26 -15 3 -25 11 -25
23 -1 10 -5 26 -9 35 -3 10 -1 20 5 24 8 5 8 11 -2 22 -10 13 -8 14 12 11 20
-2 25 -9 25 -31 1 -26 17 -46 38 -47 10 0 9 18 -3 25 -6 3 -9 27 -8 53 1 35
-3 48 -17 56 -43 25 -54 44 -48 82 5 33 4 37 -13 32 -10 -3 -26 -7 -34 -9 -9
-3 -16 5 -18 19 -2 14 -10 22 -23 22 -12 0 -19 7 -19 20 0 25 16 26 29 3 6
-10 11 -12 11 -5 0 6 7 12 15 12 11 0 14 7 9 25 -5 19 -2 25 10 25 9 0 16 5
16 10 0 6 -10 10 -22 10 -16 0 -19 3 -11 11 16 16 66 -19 60 -43 -3 -10 -1
-18 4 -18 5 0 9 5 9 10 0 6 7 10 16 10 23 0 1 28 -73 90 -35 28 -63 59 -63 67
0 16 37 68 48 68 4 0 6 19 4 42 -3 32 0 45 12 49 20 8 21 38 1 54 -18 15 -10
31 10 23 16 -5 18 6 15 63 -1 18 3 35 8 38 7 4 80 -22 177 -64 50 -22 132 -41
275 -65 166 -27 164 -26 201 -98 18 -34 21 -73 31 -375 6 -185 14 -341 18
-345 19 -22 39 149 45 398 4 143 8 287 10 320 1 33 -2 69 -8 79 -8 17 -4 25
24 48 40 33 50 34 74 8 10 -11 21 -20 24 -20 4 0 17 34 30 75 18 58 20 79 12
89 -17 20 -6 23 85 25 l81 2 163 -163 c89 -90 161 -158 159 -152 -2 7 -54 70
-116 140 -61 71 -126 148 -145 171 -18 24 -42 45 -53 47 -11 3 -75 7 -143 11
l-122 5 -34 38 c-19 20 -45 64 -57 97 -12 33 -38 101 -59 150 -20 50 -48 121
-61 159 -13 38 -25 62 -27 52 -2 -9 37 -151 87 -315 l92 -299 -29 -48 c-16
-27 -33 -48 -38 -47 -5 1 -47 7 -94 13 -128 17 -241 47 -267 72 -20 18 -23 19
-23 5 0 -9 -5 -17 -12 -17 -21 0 -102 43 -136 72 -18 15 -49 37 -70 48 -20 11
-46 26 -57 33 -10 6 -37 22 -58 35 -31 19 -37 27 -31 45 5 18 4 20 -7 9 -21
-19 -39 -14 -39 12 0 13 -7 29 -15 36 -8 7 -12 17 -9 22 4 6 0 14 -7 19 -10 6
-8 10 11 18 l25 10 -30 1 c-16 1 -24 4 -17 7 6 2 10 8 7 13 -3 4 3 6 14 3 10
-3 22 0 25 6 9 15 -11 51 -29 51 -20 0 -38 36 -30 60 7 22 13 24 34 11 7 -5
11 -13 7 -19 -9 -15 7 -22 24 -11 11 6 11 9 2 9 -8 0 -10 8 -6 25 4 18 3 25
-6 23 -21 -5 -35 58 -20 86 7 13 9 29 6 35 -4 6 -2 20 5 32 8 15 13 18 19 10
4 -7 5 11 3 41 -5 50 -4 52 11 33 15 -20 16 -20 13 4 -1 19 8 30 43 52 25 15
51 28 59 28 8 1 65 29 127 63 l114 62 -21 22 -20 21 31 27 c17 14 39 26 47 26
9 0 33 18 53 39 21 22 55 50 76 64 22 13 47 34 57 45 17 19 27 20 110 15 l92
-6 40 49 c22 27 87 100 145 163 58 62 143 155 190 205 47 51 108 119 135 153
32 39 62 65 85 72 20 7 130 15 263 18 125 3 224 9 220 14 -18 17 -269 41 -378
36 l-110 -6 -74 -78 c-41 -43 -145 -150 -231 -238 -86 -88 -172 -178 -191
-200 -80 -90 -77 -88 -162 -71 -42 9 -86 21 -99 27 -13 5 -61 48 -108 95 -47
46 -93 84 -103 84 -32 0 -31 29 4 61 31 29 396 190 509 225 25 7 101 37 168
66 111 48 120 53 89 56 -24 2 -68 -11 -138 -41 -57 -24 -131 -54 -164 -66 -33
-12 -123 -48 -200 -78 -324 -130 -302 -124 -485 -134 -91 -4 -259 -11 -375
-15 -234 -7 -206 -14 -292 66 -18 17 -39 30 -47 30 -7 0 -17 11 -20 25 -4 16
-13 25 -26 25 -13 0 -20 7 -20 19 0 11 -9 26 -21 34 -20 15 -20 16 -3 74 20
68 90 266 132 375 16 42 42 89 56 105 15 15 36 44 46 64 20 39 48 49 136 49
60 0 600 77 666 95 57 16 57 16 150 -18 104 -39 200 -68 205 -63 2 1 -16 11
-39 20 -24 10 -89 41 -145 69 l-102 52 -48 -18 c-65 -25 -116 -33 -412 -62
l-253 -24 -67 33 -66 34 -40 -19 c-21 -10 -44 -19 -51 -19 -6 0 -97 86 -200
192 -104 106 -243 246 -309 313 -106 107 -124 129 -152 195 l-31 75 -91 3
c-50 1 -91 5 -91 7 0 19 27 55 42 55 23 0 23 17 -1 56 l-19 32 30 98 c16 55
59 188 95 296 51 155 64 205 59 232 -4 23 -2 37 6 42 7 4 70 7 140 5 70 -1
128 -1 128 2 0 2 -67 12 -150 22 -105 13 -150 22 -150 31 0 7 14 15 30 19 42
9 38 22 -16 48 -36 17 -52 33 -73 72 -28 54 -66 109 -59 85 3 -8 31 -94 63
-190 l58 -176 -57 -179 c-31 -99 -76 -240 -99 -314 -33 -105 -52 -149 -90
-203 -30 -42 -55 -68 -67 -68 -23 0 -110 46 -190 100 -34 23 -63 40 -65 38 -4
-4 138 -149 223 -228 l48 -45 -7 -173 -7 -172 -73 -68 c-80 -74 -53 -64 -359
-142 -91 -24 -171 -45 -177 -47 -17 -7 -17 48 2 162 8 50 18 133 24 186 14
144 117 472 197 630 57 112 163 239 200 239 11 0 27 -13 36 -30 28 -49 108
-58 108 -11 0 9 -9 35 -20 58 -35 78 -102 91 -204 39 -31 -16 -49 -20 -51 -12
-16 54 -20 56 -58 26 -23 -18 -25 -25 -20 -77 6 -70 -15 -132 -82 -243 -51
-86 -108 -225 -129 -320 -17 -73 -49 -275 -67 -422 -6 -54 -15 -98 -19 -98 -9
0 -22 163 -26 325 -1 72 -7 168 -14 214 -9 64 -9 86 0 91 7 5 8 9 2 11 -5 2
-22 95 -36 205 -30 224 -56 334 -111 474 -36 92 -107 294 -125 355 -5 17 -12
40 -15 52 -9 29 22 44 40 20 7 -9 15 -14 18 -10 4 3 2 12 -4 19 -7 8 -6 14 2
19 6 4 14 3 18 -2 3 -5 14 -12 24 -16 13 -5 17 -1 17 17 0 26 -29 44 -41 25
-4 -6 -11 -9 -16 -6 -5 3 -24 -3 -41 -13 -18 -11 -34 -15 -37 -10 -10 16 -59
38 -72 33z m-103 -1110 c36 -32 110 -141 110 -162 0 -4 -29 -16 -64 -25 -57
-16 -70 -16 -113 -4 -38 11 -48 18 -46 33 1 11 5 59 8 108 l7 87 29 0 c19 0
42 -12 69 -37z m414 -235 c4 -73 14 -194 22 -268 15 -135 11 -322 -7 -351 -15
-24 -29 3 -43 87 -23 127 -57 241 -140 467 -20 54 -36 106 -36 116 0 14 20 26
83 49 123 44 113 53 121 -100z m1086 108 c0 -12 35 -62 78 -112 82 -98 375
-435 429 -494 17 -19 66 -75 108 -125 88 -104 86 -86 18 -250 -25 -60 -59
-148 -75 -194 -36 -107 -88 -219 -104 -225 -6 -2 -27 9 -45 24 -19 16 -41 29
-50 30 -8 0 -25 14 -38 31 -12 16 -27 29 -33 27 -28 -10 -195 165 -358 375 -8
11 -39 112 -70 225 -50 183 -59 207 -78 210 -17 3 -20 9 -17 30 12 69 35 352
33 396 -3 63 9 71 116 72 80 0 86 -1 86 -20z m-1292 -291 c65 -188 102 -333
102 -402 0 -23 -2 -23 -52 -17 -64 8 -76 18 -119 96 -100 181 -127 230 -159
281 -19 30 -42 58 -51 60 -11 3 -18 22 -23 63 -8 69 -1 77 78 94 28 6 65 17
81 25 63 29 64 28 143 -200z m2752 -1399 c5 -13 17 -30 27 -37 10 -8 48 -47
86 -88 l67 -73 0 -69 c0 -49 -4 -72 -16 -84 -38 -37 -152 -123 -197 -148 l-48
-26 -77 19 c-69 17 -102 37 -102 62 0 4 -6 8 -12 8 -7 0 -46 31 -85 69 -53 50
-73 76 -73 94 0 16 -7 26 -20 30 -21 5 -44 52 -36 73 2 6 -3 14 -13 17 -12 3
-18 15 -19 37 0 18 -8 38 -19 46 -17 13 -17 15 -1 27 34 27 97 37 303 51 116
7 213 14 218 15 4 0 12 -10 17 -23z m-1341 -4664 c11 -40 66 -385 74 -465 2
-26 0 -50 -5 -53 -5 -4 -33 -12 -61 -19 -29 -7 -60 -16 -69 -20 -13 -5 -18 -3
-18 9 0 19 -4 19 -47 7 -20 -6 -35 -6 -38 0 -12 19 -25 8 -19 -15 5 -22 2 -26
-33 -35 -91 -23 -111 -24 -133 -3 -28 26 -59 19 -35 -8 18 -20 11 -30 -25 -30
-14 0 -30 -4 -35 -9 -11 -10 -148 -44 -245 -61 -59 -10 -70 -9 -110 9 -25 11
-53 21 -62 21 -12 0 -18 8 -18 24 0 34 29 187 40 214 10 23 11 24 37 7 26 -17
27 -17 45 5 10 12 21 34 24 49 7 29 52 111 60 111 4 0 4 -6 1 -14 -11 -29 16
-65 55 -71 41 -7 56 -21 40 -37 -7 -7 -5 -20 8 -42 13 -24 15 -37 8 -50 -15
-27 6 -44 27 -22 9 9 21 16 26 16 5 0 7 10 4 23 -3 12 1 31 9 42 14 19 15 19
29 -14 8 -20 17 -29 21 -22 4 6 4 16 1 21 -3 6 -2 10 4 10 5 0 11 -5 13 -12 4
-10 48 54 48 69 0 2 -22 2 -50 -2 -45 -6 -50 -5 -50 12 0 10 14 27 31 37 28
17 31 17 43 1 15 -22 70 -29 62 -8 -4 8 -9 26 -12 39 -6 23 -24 34 -24 14 0
-5 -15 -10 -33 -10 -18 0 -38 -5 -45 -12 -6 -6 -23 -12 -36 -13 -21 0 -25 4
-24 25 1 14 7 28 12 32 18 12 -10 32 -31 23 -10 -5 -23 -7 -30 -6 -7 1 -15
-14 -19 -33 -8 -43 -27 -62 -43 -43 -15 19 -3 75 19 82 22 7 164 87 184 104 8
7 24 10 34 6 14 -4 19 -1 18 10 -1 11 31 34 95 68 88 47 98 50 112 35 14 -14
14 -17 0 -37 -11 -17 -21 -21 -40 -16 -19 4 -26 1 -30 -15 -6 -21 -27 -27 -38
-10 -3 6 -17 10 -31 10 -17 0 -24 -5 -24 -20 0 -25 29 -38 41 -19 8 12 10 12
18 0 8 -13 12 -13 27 0 10 8 15 9 11 3 -9 -15 7 -70 19 -64 5 3 8 9 6 13 -1 5
5 11 15 13 10 3 31 23 47 45 15 22 31 38 34 34 3 -3 5 -27 3 -54 -2 -35 2 -50
13 -54 16 -6 26 12 26 48 0 13 5 27 10 30 6 3 10 15 10 26 0 11 -4 18 -9 15
-5 -3 -23 7 -40 23 -26 25 -29 31 -16 41 21 17 45 6 38 -19 -6 -22 29 -46 54
-37 11 5 13 15 8 46 -9 51 1 52 14 2z"/>
<path d="M4807 2774 c-3 -3 -1 -14 6 -25 17 -27 4 -32 -42 -18 -36 11 -43 10
-61 -6 -11 -10 -35 -19 -54 -21 -29 -2 -33 0 -29 17 3 10 0 19 -6 19 -14 0
-14 -25 0 -52 10 -18 9 -20 -5 -15 -10 4 -16 1 -16 -9 0 -10 -7 -13 -24 -8
-13 3 -27 1 -30 -5 -4 -6 0 -11 8 -11 9 0 16 -7 16 -15 0 -19 7 -19 27 1 11
11 26 14 45 10 20 -4 34 0 48 14 11 11 26 20 33 20 6 0 26 9 44 19 33 21 51
17 32 -6 -6 -7 -22 -13 -35 -13 -15 0 -29 -10 -40 -29 -10 -16 -26 -32 -36
-34 -10 -3 -18 -14 -18 -27 0 -13 4 -19 12 -14 7 4 8 3 4 -4 -4 -7 -4 -17 -1
-23 4 -6 21 5 41 28 37 42 40 48 23 59 -16 9 48 43 82 44 35 0 69 26 50 39 -7
5 -11 15 -9 22 3 8 -8 22 -24 32 -32 19 -32 19 -41 11z"/>
<path d="M1720 9613 c0 -11 5 -57 11 -102 9 -69 8 -93 -5 -146 -9 -35 -16 -74
-16 -86 0 -22 0 -22 28 4 29 28 42 27 42 -4 0 -19 145 -139 169 -139 9 0 34
-12 56 -25 78 -48 71 -24 -8 29 -29 19 -87 68 -129 108 l-77 73 -32 150 c-32
151 -39 175 -39 138z"/>
<path d="M3620 8298 c0 -63 11 -77 62 -83 165 -21 223 -33 358 -71 202 -59
297 -105 387 -188 39 -36 76 -66 82 -66 38 0 -23 124 -92 186 -107 97 -168
124 -388 173 -46 10 -140 35 -208 55 -68 20 -141 39 -162 42 l-39 7 0 -55z"/>
<path d="M3928 7831 c-182 -58 -281 -196 -277 -384 1 -52 1 -52 14 24 7 42 24
98 38 125 71 141 275 236 443 207 190 -33 313 -161 345 -358 14 -82 23 -84 16
-4 -25 284 -310 476 -579 390z"/>
<path d="M3010 7761 c-81 -26 -137 -80 -179 -171 -20 -45 -25 -72 -27 -150 -1
-52 0 -79 2 -60 19 170 78 276 180 326 48 23 63 26 127 22 152 -10 281 -118
321 -268 12 -46 15 -50 15 -23 1 18 -9 58 -21 90 -27 75 -118 167 -202 207
-63 29 -169 43 -216 27z"/>
<path d="M3790 7609 c-97 -39 -133 -187 -70 -295 75 -133 256 -121 321 21 32
70 19 156 -34 214 -51 55 -156 84 -217 60z"/>
<path d="M2881 7540 c-84 -84 -59 -290 42 -347 38 -21 92 -16 126 12 70 60 80
183 22 274 -60 92 -134 116 -190 61z"/>
<path d="M890 7371 c-30 -15 -72 -34 -93 -41 -56 -18 -41 -21 23 -4 61 16 126
18 134 5 3 -5 53 -26 111 -46 116 -42 115 -41 75 -110 -23 -40 -135 -433 -126
-442 2 -2 26 65 55 149 28 84 59 174 68 199 17 43 84 129 101 129 4 0 23 -9
43 -19 25 -13 66 -21 144 -25 61 -4 133 -9 160 -12 32 -3 45 -2 35 4 -8 5 -44
13 -80 16 -136 15 -209 35 -238 66 -22 24 -56 38 -177 74 -128 37 -150 47
-153 65 -4 27 -16 26 -82 -8z"/>
<path d="M3240 7229 c-30 -5 -62 -12 -70 -16 -8 -3 -18 -5 -22 -5 -5 1 -8 -2
-8 -8 0 -5 15 -10 34 -10 74 0 91 -25 18 -26 -47 -1 -228 -51 -219 -61 3 -2
24 1 46 7 44 12 149 11 156 0 6 -9 -55 -20 -110 -20 -42 0 -137 -39 -150 -61
-6 -9 -2 -10 16 -5 73 21 161 36 209 35 l55 -1 -80 -18 c-92 -20 -145 -39
-145 -50 0 -4 42 -10 93 -14 50 -4 97 -12 102 -18 7 -7 -3 -9 -32 -6 -24 2
-43 0 -43 -4 0 -5 -3 -7 -7 -6 -16 4 -73 -33 -73 -48 0 -8 10 -18 22 -23 17
-6 10 -9 -34 -14 -69 -7 -166 -54 -147 -71 2 -2 39 -1 83 3 58 5 80 3 83 -6 3
-6 10 -10 17 -7 7 3 18 -2 25 -10 13 -15 4 -15 -109 -1 -40 5 -64 3 -90 -8
l-35 -15 50 -2 c63 -2 109 -18 54 -19 -34 -1 -144 -29 -137 -36 1 -1 22 -5 46
-8 24 -2 49 -10 55 -17 10 -10 2 -12 -38 -8 -27 3 -61 2 -75 -1 l-24 -7 22
-16 c22 -15 21 -16 -25 -11 -43 4 -46 3 -30 -10 9 -8 17 -18 17 -22 0 -4 8
-14 18 -22 16 -14 16 -14 -3 -8 -46 17 -65 16 -113 -5 -50 -21 -102 -63 -59
-47 10 4 34 7 53 7 21 0 33 4 29 10 -4 6 5 10 19 10 30 0 33 -8 9 -26 -10 -7
-18 -17 -18 -23 0 -6 -4 -11 -9 -10 -5 0 -13 -6 -17 -14 -6 -9 -26 -15 -56
-15 -37 -1 -53 -7 -75 -29 -18 -19 -26 -35 -22 -48 9 -33 66 -65 135 -75 35
-5 102 -14 149 -21 47 -7 101 -17 120 -24 67 -23 201 -38 289 -32 158 10 366
101 468 205 142 144 193 277 189 486 l-1 99 -48 43 c-56 50 -204 137 -262 153
-22 6 -71 16 -110 21 -38 5 -83 11 -100 14 -16 2 -55 0 -85 -5z"/>
<path d="M1715 6324 c-39 -74 -77 -141 -85 -149 -9 -8 -70 -21 -140 -31 l-125
-17 -164 77 c-91 42 -168 75 -173 74 -8 -3 179 -133 257 -178 24 -14 47 -28
50 -32 4 -3 -14 -36 -39 -73 -25 -36 -46 -70 -46 -74 0 -5 -33 -64 -74 -132
-41 -68 -73 -126 -70 -128 6 -6 2 -11 104 154 51 83 106 165 121 183 16 18 35
45 43 61 14 27 19 28 108 35 51 4 108 9 126 12 27 5 32 3 32 -14 0 -12 20 -35
54 -60 29 -23 70 -56 91 -75 20 -18 49 -41 65 -50 l28 -17 8 66 c8 76 14 67
-111 152 -38 26 -74 50 -79 53 -5 4 6 44 24 90 27 70 71 209 66 209 -1 0 -33
-61 -71 -136z"/>
<path d="M1991 5426 c-5 -13 -14 -48 -19 -77 -6 -30 -16 -67 -23 -84 -7 -16
-15 -75 -18 -130 l-6 -100 -45 3 c-25 1 -63 5 -85 8 -35 4 -31 1 34 -27 l74
-32 49 -106 c28 -58 88 -184 134 -279 46 -96 84 -179 84 -185 0 -7 9 -25 20
-42 29 -43 25 -58 -22 -96 -23 -19 -62 -51 -87 -71 -25 -21 -49 -38 -52 -38
-4 0 -34 -22 -67 -49 -48 -38 -74 -51 -124 -61 -82 -16 -216 -45 -353 -75 -60
-13 -141 -30 -178 -36 -37 -6 -66 -13 -64 -15 13 -13 623 86 680 111 13 5 18
4 17 -6 -7 -50 2 -82 37 -120 l37 -40 -1 -102 c-2 -115 10 -84 22 58 l7 80
-35 39 c-25 29 -33 45 -29 65 6 36 76 128 104 137 13 4 52 26 87 50 35 24 71
44 81 44 9 0 35 13 57 29 37 27 44 28 106 22 36 -4 68 -9 71 -11 2 -3 -7 -32
-20 -65 l-25 -60 43 -38 c87 -78 204 -174 222 -184 13 -7 28 -42 47 -104 15
-52 56 -179 91 -284 l62 -190 -2 -160 -3 -160 -35 -36 c-29 -30 -45 -38 -87
-42 -29 -4 -70 -9 -92 -13 -37 -5 -48 -1 -139 60 -55 36 -109 69 -120 72 -12
3 -30 14 -41 24 -24 21 -147 87 -125 67 8 -7 76 -62 150 -120 219 -173 254
-205 282 -255 28 -46 28 -49 28 -227 l0 -180 -180 -174 c-99 -96 -180 -178
-180 -183 0 -5 39 24 88 64 101 85 147 118 161 118 18 0 145 140 158 173 6 18
12 75 13 127 1 52 4 127 8 165 5 49 4 78 -5 95 -19 37 -16 59 10 70 73 30 117
54 157 86 72 58 153 134 180 170 14 18 44 56 68 83 l42 49 -43 53 c-115 141
-524 786 -667 1052 l-63 118 -119 -3 -119 -3 -31 60 c-44 84 -39 76 -119 220
-110 198 -107 189 -118 315 -12 124 -9 140 49 308 21 61 21 92 0 92 -6 0 -15
-11 -19 -24z"/>
<path d="M7990 4809 c0 -6 10 -19 22 -28 24 -20 17 -43 -10 -35 -11 4 -7 -4
11 -20 28 -26 35 -46 15 -46 -6 0 -3 -8 7 -20 17 -19 17 -20 0 -26 -13 -5 -25
1 -42 22 -26 33 -29 30 -9 -12 25 -50 24 -94 -1 -94 -13 0 -14 3 -5 12 16 16
15 28 -1 28 -8 0 -20 -11 -27 -25 -7 -14 -20 -25 -27 -25 -12 0 -11 -3 1 -16
20 -20 20 -20 -4 -44 -11 -11 -17 -26 -14 -35 4 -8 1 -15 -5 -15 -6 0 -11 -9
-11 -20 0 -21 -27 -40 -48 -33 -7 3 -10 -1 -6 -10 3 -8 0 -18 -6 -22 -9 -6 -9
-10 1 -17 9 -6 5 -7 -12 -3 -17 4 -30 1 -38 -9 -10 -12 -11 -16 -1 -16 7 0 10
-7 6 -16 -10 -25 56 17 70 44 6 12 13 20 16 17 7 -7 65 65 110 135 19 31 41
62 49 70 8 8 27 31 41 50 l27 36 -19 31 c-10 17 -24 51 -30 75 -12 42 -35 78
-52 78 -4 0 -8 -5 -8 -11z"/>
<path d="M413 4600 c-20 -4 -52 -30 -90 -70 -71 -77 -74 -81 -78 -133 -2 -23
-7 -51 -11 -62 -6 -17 -4 -16 18 5 13 14 23 28 21 33 -2 4 1 7 7 7 6 0 15 12
21 27 5 15 19 33 29 40 14 10 18 21 14 41 -4 20 0 32 12 43 16 13 17 12 12 -8
-4 -13 -3 -25 2 -28 4 -3 11 7 14 21 5 20 12 25 26 21 13 -3 20 0 20 9 0 8 9
23 20 34 32 32 26 35 -37 20z"/>
<path d="M182 4218 c-6 -6 -12 -16 -12 -20 0 -5 -12 -27 -27 -50 -25 -37 -27
-48 -24 -117 2 -66 8 -87 44 -158 29 -58 47 -83 60 -83 14 0 16 4 7 19 -5 11
-11 52 -12 92 l-3 72 35 19 c62 34 81 78 32 70 -37 -5 -62 19 -63 64 -1 19 -2
40 -3 47 -1 6 9 13 22 15 29 4 18 22 -13 22 -13 0 -25 5 -27 10 -2 7 -8 6 -16
-2z"/>
<path d="M6220 3810 c-26 -47 -30 -101 -10 -140 41 -80 117 -107 159 -56 8 9
12 18 10 19 -2 1 -30 14 -61 29 -61 29 -63 32 -76 123 -8 49 -8 50 -22 25z"/>
<path d="M388 3469 c-10 -5 -18 -19 -18 -29 0 -11 -4 -20 -9 -20 -5 0 -22 -25
-37 -56 -25 -50 -26 -58 -15 -96 13 -42 54 -88 79 -88 11 0 13 8 8 32 -3 18
-11 35 -17 38 -15 10 16 31 35 24 9 -3 16 -12 16 -20 0 -7 12 -17 26 -20 34
-9 74 21 91 67 12 32 12 33 -3 12 -21 -29 -57 -29 -83 -2 -25 27 -63 132 -55
153 7 19 5 19 -18 5z"/>
<path d="M390 2878 c-16 -22 -20 -33 -11 -36 9 -3 9 -7 0 -18 -6 -7 -14 -51
-16 -97 -4 -65 -2 -90 11 -115 9 -18 20 -32 24 -33 4 0 22 -2 40 -3 18 -2 32
1 32 7 0 6 3 8 6 5 3 -3 0 -25 -7 -48 -12 -38 -11 -45 11 -85 25 -45 62 -64
88 -43 23 19 14 39 -14 32 -23 -6 -25 -4 -19 15 4 14 2 21 -7 21 -13 1 -58 34
-58 43 0 3 7 13 16 22 13 13 14 21 6 40 -9 19 -8 25 5 29 14 6 14 9 -2 26 -10
12 -13 20 -7 20 7 0 12 4 12 10 0 5 -8 9 -17 8 -41 -3 -52 2 -50 25 0 12 4 24
8 27 7 5 12 42 10 69 -1 7 -7 11 -15 8 -10 -4 -15 5 -18 34 -2 21 0 39 4 39 5
0 8 7 8 15 0 24 -14 18 -40 -17z"/>
<path d="M711 1821 c-27 -17 -5 -92 43 -144 40 -44 46 -47 92 -47 28 0 54 4
60 9 5 5 20 11 34 14 19 3 16 5 -12 6 -20 0 -39 7 -41 14 -3 7 -6 5 -6 -5 -1
-17 -31 -15 -31 3 0 4 -11 20 -25 35 -14 15 -25 33 -25 40 0 8 -6 14 -13 14
-22 0 -28 -12 -15 -29 8 -10 5 -9 -9 3 -18 15 -20 22 -12 38 9 16 7 19 -8 16
-14 -2 -17 2 -15 20 4 25 3 25 -17 13z"/>
<path d="M6380 1636 c0 -8 -7 -16 -15 -20 -17 -6 -21 -36 -5 -36 6 0 10 6 10
14 0 12 20 26 36 26 14 0 -12 -48 -38 -72 -20 -17 -31 -37 -32 -57 -1 -17 -9
-38 -19 -48 -14 -15 -21 -16 -37 -5 -26 16 -33 15 -26 -3 3 -10 -1 -18 -11
-22 -9 -4 -19 -1 -21 5 -4 13 -23 17 -21 5 5 -29 -2 -36 -16 -17 -13 17 -14
17 -15 2 0 -18 -8 -22 -46 -19 -11 1 -27 -6 -35 -15 -13 -16 -10 -16 46 -10
96 11 115 16 125 37 12 21 35 26 27 6 -11 -28 93 3 136 41 28 25 17 173 -15
193 -19 13 -28 11 -28 -5z"/>
<path d="M3950 1435 c0 -8 -4 -15 -10 -15 -5 0 -10 -7 -10 -16 0 -9 -8 -28
-18 -42 -10 -15 -22 -35 -25 -44 -9 -24 -20 -23 -32 4 -15 33 -32 32 -33 -2 0
-16 4 -30 9 -30 5 0 9 -9 9 -20 0 -15 -9 -22 -31 -27 -19 -3 -34 -14 -36 -25
-7 -24 -20 -23 -28 3 -9 29 -30 18 -30 -17 -1 -16 -6 -30 -13 -30 -7 -1 -19
-2 -28 -3 -8 0 -13 -5 -10 -10 7 -11 -22 -71 -34 -71 -5 0 -17 -14 -25 -31
-13 -25 -19 -28 -31 -18 -9 7 -14 8 -14 1 0 -6 5 -14 10 -17 17 -10 11 -34
-11 -46 -19 -10 -21 -9 -17 8 3 11 1 28 -4 37 -8 15 -11 15 -31 1 -12 -8 -29
-15 -39 -15 -10 0 -18 -3 -18 -6 0 -9 28 -35 37 -34 4 1 9 -3 11 -9 6 -18 -8
-13 -40 14 -37 31 -39 31 -63 -1 -26 -34 -63 -49 -83 -32 -13 11 -13 9 1 -18
12 -23 25 -33 49 -37 18 -2 59 -11 90 -18 55 -12 59 -12 89 10 33 25 45 23 95
-14 20 -15 22 -15 20 2 0 10 9 22 22 28 12 5 22 18 22 27 0 10 16 33 35 53 29
28 32 35 17 35 -19 0 -35 23 -48 69 -5 20 -3 23 10 18 9 -4 23 -10 31 -13 8
-3 15 -2 15 4 0 5 18 29 39 53 22 24 46 51 54 60 8 9 19 31 26 49 6 18 23 49
39 68 64 80 79 111 61 123 -20 13 -29 11 -29 -6z"/>
<path d="M5455 1356 c-9 -20 -23 -40 -31 -43 -9 -3 -20 -17 -25 -30 -5 -13
-12 -22 -17 -19 -12 7 -36 -16 -51 -49 l-13 -30 -17 21 c-17 21 -18 21 -42 3
l-24 -19 23 0 c31 0 28 -32 -5 -47 -15 -7 -31 -13 -36 -13 -6 0 -15 -8 -22
-17 -11 -14 -16 -15 -28 -5 -13 11 -16 10 -22 -8 -3 -11 -10 -18 -15 -15 -4 3
-13 -2 -20 -10 -10 -12 -9 -15 4 -15 20 0 21 -26 1 -34 -22 -8 -18 -26 5 -26
11 0 20 5 20 10 0 6 7 10 15 10 22 0 18 -28 -4 -35 -11 -3 -24 -12 -31 -20 -9
-11 -7 -12 9 -8 12 3 21 1 21 -6 0 -13 49 -15 69 -2 8 5 11 16 8 25 -8 19 -24
21 -30 4 -2 -7 -2 -1 0 15 3 16 0 27 -7 27 -18 0 1 25 55 69 27 23 60 41 73
41 17 0 22 4 19 14 -3 8 0 19 6 24 15 11 77 12 77 0 0 -4 -4 -8 -9 -8 -5 0
-11 -7 -15 -15 -3 -9 0 -15 10 -15 9 0 18 9 21 20 3 11 8 20 12 20 4 0 13 16
20 35 6 19 25 44 42 55 16 12 29 26 29 33 0 8 -3 8 -12 -1 -15 -15 -65 -16
-74 -1 -3 6 -1 14 5 18 12 8 33 72 26 79 -3 3 -12 -12 -20 -32z"/>
<path d="M4187 1291 c-9 -16 -18 -39 -20 -52 -3 -17 -11 -25 -30 -27 -19 -2
-24 -7 -20 -19 5 -12 2 -15 -10 -10 -10 4 -17 2 -17 -5 0 -6 -6 -5 -16 3 -15
12 -16 10 -10 -19 4 -18 3 -47 -4 -67 -10 -31 -14 -34 -32 -24 -25 13 -38 2
-41 -36 -3 -35 26 -42 54 -14 11 11 24 17 30 13 6 -3 18 1 27 10 15 12 60 16
82 6 11 -5 130 -5 130 0 -1 3 -7 16 -15 30 -8 14 -14 38 -15 55 0 22 -3 26
-12 17 -17 -17 -26 -15 -32 6 -2 9 -4 -2 -3 -25 1 -51 -7 -62 -31 -40 -10 10
-21 14 -25 11 -8 -8 -47 5 -47 17 0 5 11 9 25 9 21 0 25 5 26 33 2 54 6 81 18
116 14 44 10 48 -12 12z"/>
<path d="M2584 1192 c-7 -23 -9 -52 -6 -64 3 -14 1 -19 -6 -14 -7 4 -12 1 -12
-6 0 -9 -3 -9 -10 2 -5 8 -10 27 -10 43 0 17 -5 27 -15 27 -8 0 -16 6 -16 13
-1 6 -5 -6 -8 -27 -8 -50 -28 -58 -42 -17 -12 34 -29 42 -29 14 0 -11 -3 -14
-8 -7 -5 8 -13 6 -25 -7 -18 -17 -18 -18 2 -38 22 -22 27 -41 11 -41 -5 0 -10
-7 -10 -16 0 -11 -6 -15 -19 -11 -14 3 -17 0 -14 -14 5 -19 34 -36 30 -17 -1
6 4 13 11 15 7 3 12 -4 12 -15 0 -11 6 -23 13 -25 9 -4 9 -8 -2 -15 -7 -5 -10
-15 -7 -21 4 -6 4 -17 -1 -23 -4 -7 -8 -28 -10 -45 -2 -33 -2 -33 25 -19 54
28 75 62 77 119 2 55 30 102 51 85 87 -72 110 -76 120 -21 7 35 8 36 16 13 5
-13 7 -29 4 -36 -3 -7 5 -16 17 -19 12 -4 37 -13 55 -22 35 -15 64 -12 60 8
-2 6 3 14 10 16 6 3 12 -2 12 -11 0 -17 19 -20 57 -10 19 5 21 10 12 25 -8 15
-6 19 6 19 9 0 18 -7 22 -16 4 -11 18 -14 59 -12 51 3 70 17 44 33 -5 3 -10
13 -10 21 0 8 5 14 10 14 6 0 10 -7 10 -16 0 -10 6 -14 15 -11 8 4 17 1 21 -5
5 -7 10 -3 15 10 12 32 -16 63 -46 52 -14 -5 -27 -4 -33 2 -8 8 -13 7 -18 -6
-5 -13 -9 -14 -20 -5 -8 7 -17 9 -20 6 -3 -2 -16 6 -29 19 -25 25 -62 25 -93
1 -10 -8 -16 -7 -24 6 -5 10 -14 15 -19 11 -6 -4 -6 -11 1 -19 15 -18 4 -35
-22 -35 -15 0 -19 -5 -15 -20 3 -11 2 -21 -1 -21 -27 -5 -47 -2 -49 6 -2 6 1
10 7 10 9 0 39 35 40 46 0 4 -7 10 -15 13 -10 4 -19 -2 -25 -17 -8 -20 -9 -20
-10 8 -1 28 -2 29 -10 8 -14 -34 -30 -28 -30 12 0 47 -16 45 -18 -2 -1 -20 -6
-41 -12 -47 -10 -10 -6 50 6 94 2 9 -2 7 -11 -5 -13 -17 -17 -18 -25 -5 -7 12
-10 11 -17 -5 -6 -15 -9 -8 -13 30 l-5 50 -11 -43z"/>
<path d="M4830 1212 c0 -12 -7 -25 -15 -28 -8 -4 -15 -15 -15 -25 0 -12 -7
-19 -20 -19 -12 0 -20 7 -20 16 0 16 -25 15 -25 -2 0 -5 -5 -18 -12 -28 -10
-19 -11 -18 -23 3 -6 12 -9 29 -6 37 8 21 -18 17 -39 -6 -22 -24 -49 -9 -39
23 4 13 2 17 -5 13 -6 -4 -11 -16 -11 -27 0 -10 -6 -19 -14 -19 -8 0 -18 -9
-21 -20 -3 -11 -13 -20 -21 -20 -9 0 -14 -11 -14 -36 0 -19 4 -33 9 -30 4 3
22 1 40 -4 19 -5 31 -5 31 1 0 5 -4 9 -10 9 -5 0 -10 4 -10 9 0 5 15 11 34 13
31 3 33 2 25 -15 -9 -16 -7 -18 28 -14 21 3 51 8 67 12 20 5 31 4 37 -6 14
-22 11 -26 -21 -26 -17 0 -40 -9 -53 -21 -14 -14 -30 -19 -44 -16 -11 3 -24 1
-27 -5 -9 -15 130 -15 172 0 44 15 57 69 16 69 -8 0 -14 4 -14 9 0 16 20 23
34 12 7 -6 16 -8 20 -4 15 16 37 9 73 -23 30 -26 35 -35 24 -43 -12 -7 -10
-14 10 -39 30 -38 59 -42 59 -8 0 14 -5 28 -12 32 -8 5 -9 2 -5 -9 8 -21 -3
-22 -29 -1 -13 11 -15 17 -6 20 9 4 6 14 -10 37 -12 18 -27 35 -33 39 -35 24
-45 33 -45 42 0 5 -7 17 -16 27 -9 10 -22 35 -30 56 -10 28 -13 32 -14 15z"/>
<path d="M2006 1202 c-3 -5 16 -32 42 -60 26 -28 53 -58 60 -66 7 -9 23 -16
36 -16 13 0 29 -7 36 -15 7 -8 17 -15 23 -15 14 0 36 -32 37 -52 0 -17 60 -87
60 -70 0 5 -10 24 -23 43 -41 62 -47 84 -31 108 20 28 40 27 60 -4 21 -32 34
-32 34 -1 0 20 4 23 23 19 21 -4 22 -4 3 11 -11 9 -26 16 -33 16 -7 0 -13 8
-13 19 0 10 -7 24 -15 31 -12 10 -15 7 -21 -14 -3 -15 -15 -31 -25 -36 -19
-11 -159 -2 -157 9 2 20 -4 30 -22 36 -11 3 -20 15 -20 25 0 26 -42 50 -54 32z"/>
<path d="M2076 942 c-4 -7 -11 -10 -16 -7 -4 3 -11 -6 -14 -20 -7 -27 -26 -34
-26 -10 0 9 -6 12 -15 9 -9 -4 -15 0 -15 10 0 9 -7 16 -15 16 -8 0 -15 -7 -15
-15 0 -8 -6 -15 -14 -15 -11 0 -13 -10 -9 -42 9 -76 49 -111 155 -140 68 -17
156 2 228 51 41 28 56 45 61 70 7 31 6 32 -25 29 -17 -2 -29 -7 -26 -13 3 -5
9 -9 13 -7 5 1 6 -2 2 -8 -3 -5 -15 -10 -25 -10 -13 0 -17 -5 -14 -15 5 -11 2
-13 -10 -9 -13 5 -14 10 -5 20 6 7 9 19 6 26 -3 8 -11 -1 -18 -19 -8 -18 -19
-33 -26 -33 -7 0 -13 -5 -13 -11 0 -7 10 -9 25 -5 28 7 34 -8 8 -20 -36 -15
-74 -12 -88 9 -8 11 -12 24 -9 29 3 4 0 8 -5 8 -6 0 -11 7 -11 15 0 18 26 20
33 3 3 -7 6 0 6 16 1 19 -7 35 -26 50 -15 11 -31 20 -35 19 -5 -2 -8 3 -8 10
0 7 -7 4 -15 -7 -14 -19 -15 -18 -23 4 -6 16 -11 19 -16 12z"/>
<path d="M4524 577 c-10 -22 -25 -37 -35 -37 -24 0 -34 -19 -15 -26 9 -3 16
-15 16 -25 0 -10 5 -19 10 -19 6 0 10 -4 10 -10 0 -13 -27 -13 -43 0 -60 49
-78 61 -86 58 -19 -7 10 -48 48 -68 41 -20 77 -72 66 -91 -4 -5 0 -21 9 -34
19 -29 86 -49 134 -40 29 5 32 8 18 18 -11 8 -13 17 -7 26 8 12 13 11 28 -8
l19 -23 76 31 c98 41 107 52 101 118 -5 43 -8 51 -21 44 -8 -5 -23 -6 -33 -4
-17 5 -17 7 4 23 15 13 24 15 29 7 4 -6 11 -8 15 -3 11 11 -29 38 -50 32 -9
-2 -15 0 -11 5 3 5 -2 9 -10 9 -18 0 -21 -16 -6 -25 15 -9 12 -25 -5 -25 -8 0
-15 -6 -15 -14 0 -8 -4 -17 -8 -20 -5 -3 -6 8 -4 25 2 16 0 29 -6 29 -14 0
-25 -37 -16 -51 10 -16 -17 -29 -38 -18 -22 12 -24 39 -2 39 13 0 12 5 -6 30
-12 17 -26 30 -31 30 -6 0 -20 11 -33 25 -26 28 -49 33 -40 10 9 -21 -23 -19
-35 2 -8 15 -12 12 -27 -20z"/>
</g>
</svg>
