<?xml version="1.0" standalone="no"?>
<!DOCTYPE svg PUBLIC "-//W3C//DTD SVG 20010904//EN"
 "http://www.w3.org/TR/2001/REC-SVG-20010904/DTD/svg10.dtd">
<svg version="1.0" xmlns="http://www.w3.org/2000/svg"
 width="920.000000pt" height="906.000000pt" viewBox="0 0 920.000000 906.000000"
 preserveAspectRatio="xMidYMid meet">
<metadata>
Created by potrace 1.15, written by Peter Selinger 2001-2017
</metadata>
<g transform="translate(0.000000,906.000000) scale(0.100000,-0.100000)"
fill="#000000" stroke="none">
<path d="M4120 8606 c-25 -7 -63 -22 -85 -34 -22 -12 -44 -22 -48 -22 -5 0
-49 -36 -97 -81 -106 -96 -139 -155 -147 -263 -3 -39 -12 -81 -19 -93 -17 -28
-18 -55 -1 -71 7 -8 15 -57 19 -120 11 -162 22 -234 41 -269 9 -18 17 -41 17
-51 0 -27 20 -82 30 -82 5 0 8 22 8 49 -2 66 25 121 58 121 20 0 56 -12 72
-25 6 -5 -40 -95 -48 -95 -15 0 -40 -56 -40 -88 0 -18 10 -38 30 -57 16 -16
31 -27 33 -24 2 2 9 23 15 46 12 42 52 83 79 83 10 0 13 -6 8 -17 -18 -49 -16
-70 10 -101 41 -49 98 -41 135 20 17 28 18 29 25 9 3 -12 0 -34 -9 -51 -17
-36 0 -42 29 -10 24 26 16 125 -14 173 -12 19 -24 56 -28 83 -3 27 -13 60 -22
73 -9 14 -14 35 -13 47 2 12 -2 25 -9 30 -24 15 -106 11 -168 -7 -35 -10 -74
-19 -88 -19 -28 0 -28 -1 19 122 21 56 40 86 70 113 60 55 177 107 256 115 37
3 76 11 87 17 12 6 64 15 116 18 86 7 105 5 188 -19 162 -47 210 -73 307 -167
37 -35 54 -60 59 -86 6 -31 65 -138 84 -153 10 -7 91 -138 91 -147 0 -4 10
-18 23 -31 12 -14 17 -22 10 -18 -14 8 -26 -24 -17 -47 3 -9 21 -25 40 -37 20
-11 32 -25 29 -30 -4 -6 -19 0 -38 16 l-32 27 -6 -119 c-5 -86 -13 -136 -29
-179 -65 -175 -116 -341 -144 -472 -9 -40 -25 -88 -36 -107 -28 -51 -129 -174
-189 -229 -100 -94 -244 -137 -337 -102 -26 10 -74 18 -107 19 -58 2 -62 4
-100 46 -26 30 -89 145 -183 335 -79 159 -144 293 -144 298 0 5 7 2 15 -7 8
-8 15 -20 15 -26 0 -13 44 -32 83 -37 19 -2 27 2 27 12 0 9 -10 15 -25 15 -18
0 -25 5 -25 19 0 26 -46 61 -79 61 -18 0 -22 3 -13 9 11 7 11 9 -2 14 -9 4
-16 2 -16 -4 0 -6 -4 -7 -10 -4 -13 8 -13 -41 0 -65 7 -12 7 -28 0 -44 -6 -16
-6 -28 0 -31 5 -3 15 -25 21 -48 11 -40 54 -100 127 -178 32 -35 34 -40 30
-95 -3 -33 -14 -81 -26 -109 -11 -27 -25 -75 -31 -105 -12 -58 -31 -345 -30
-444 1 -102 -30 -248 -60 -284 -24 -30 -33 -33 -131 -46 -58 -8 -159 -19 -224
-25 -120 -12 -186 -32 -186 -57 0 -8 -8 -14 -19 -14 -58 0 -197 -334 -215
-518 -8 -75 -20 -275 -19 -302 1 -14 3 -46 4 -72 1 -33 8 -53 22 -65 68 -61
125 -126 145 -165 21 -43 25 -46 74 -52 77 -11 116 -30 125 -63 9 -34 9 -111
-1 -120 -3 -4 -39 -8 -79 -9 -94 -2 -178 -14 -172 -25 7 -10 -23 -26 -72 -39
-39 -10 28 -8 189 7 l67 6 20 -34 c21 -35 26 -73 15 -126 l-6 -29 -146 -13
c-80 -7 -155 -17 -166 -21 -20 -7 -20 -7 2 -14 25 -8 136 -1 251 16 72 11 75
11 93 -12 14 -17 18 -37 17 -78 -3 -63 1 -61 -139 -88 -106 -21 -89 -32 23
-14 83 13 97 4 97 -59 -1 -47 -22 -72 -90 -105 -30 -15 -84 -43 -120 -63 -36
-19 -77 -39 -92 -43 -25 -8 -27 -7 -18 9 8 16 4 19 -33 24 -23 4 -51 7 -62 9
-19 3 -26 -7 -65 -94 -7 -15 -10 -36 -7 -47 5 -19 3 -20 -22 -7 -71 37 -168
186 -159 245 2 17 1 28 -4 25 -9 -6 -9 28 0 143 4 46 4 84 -1 86 -10 3 -14
222 -5 262 7 27 6 28 -4 7 -6 -12 -21 -25 -34 -28 -12 -3 -33 -18 -47 -32 -13
-15 -41 -40 -61 -57 -34 -27 -194 -255 -216 -308 -19 -43 -40 -159 -40 -215 0
-68 18 -122 73 -222 55 -102 81 -134 141 -177 63 -46 76 -59 76 -72 0 -10 28
-15 68 -14 6 1 12 -2 12 -6 0 -10 10 -11 102 -17 69 -5 79 -3 94 15 13 15 20
17 25 9 6 -9 14 -9 31 -1 13 6 54 25 91 43 38 18 83 45 100 60 45 39 140 98
170 105 13 4 28 2 31 -4 4 -5 6 -45 5 -88 0 -43 -1 -91 -1 -108 -1 -65 21
-178 39 -198 64 -75 113 -198 118 -293 2 -34 6 -71 10 -84 5 -17 4 -21 -5 -15
-9 6 -11 4 -4 -6 4 -8 9 -20 11 -28 1 -7 16 -31 33 -53 35 -43 68 -155 94
-316 18 -106 32 -172 51 -232 48 -157 135 -604 135 -696 0 -23 10 -86 21 -140
12 -55 23 -121 24 -149 2 -49 28 -219 41 -262 l6 -23 831 0 c751 0 832 2 848
16 16 15 28 15 111 3 51 -7 221 -14 379 -16 l286 -4 11 38 c6 21 14 98 18 172
6 124 8 135 31 155 22 19 24 28 22 91 -2 81 8 143 27 165 22 26 44 100 38 127
-7 26 9 112 31 174 20 53 30 159 16 159 -16 0 -14 18 3 22 25 5 -28 126 -72
165 -42 38 -158 86 -250 104 -114 22 -385 -27 -497 -90 -70 -40 -79 -40 -71 2
4 17 9 86 11 152 3 66 7 148 10 182 4 55 2 63 -13 63 -24 0 -42 19 -42 46 0
12 -7 39 -16 60 -71 167 -100 412 -72 604 6 41 11 95 12 119 1 35 7 48 28 64
31 23 63 16 73 -16 3 -12 8 -47 9 -77 3 -57 49 -176 65 -166 14 9 -13 104 -34
120 -19 14 -19 15 8 21 34 9 36 23 2 21 -14 0 -25 -5 -25 -10 0 -5 -2 -7 -5
-4 -13 13 8 35 28 30 l22 -5 -23 25 c-12 13 -19 28 -15 31 3 4 2 7 -4 7 -16 0
-2 60 18 74 10 7 16 16 12 19 -3 4 -1 7 7 7 10 0 10 3 0 15 -7 8 -9 15 -4 15
4 0 3 5 -4 12 -9 9 -15 9 -24 0 -10 -10 -10 -15 2 -23 12 -9 12 -10 -3 -5 -10
3 -21 6 -23 6 -10 0 -2 18 16 38 19 20 19 22 3 23 -11 0 -13 3 -5 6 6 2 10 8
7 13 -2 4 3 32 12 61 31 100 34 126 17 133 -8 3 -14 12 -14 21 0 8 -7 15 -15
15 -13 0 -14 4 -5 20 7 14 7 20 0 20 -5 0 -10 6 -10 13 0 7 -10 18 -21 26 -16
9 -19 15 -10 21 10 5 8 17 -7 49 -11 22 -16 41 -10 41 6 0 5 6 -2 15 -12 14
-5 20 21 17 4 -1 5 7 2 17 -2 10 2 24 9 32 8 8 19 33 25 57 9 36 9 44 -6 52
-14 8 -14 10 4 10 l20 1 -20 8 c-11 5 -24 6 -30 3 -5 -3 -4 1 3 10 6 8 14 30
16 47 2 18 9 38 15 44 6 6 11 23 11 38 0 15 7 32 15 39 8 7 15 26 15 42 0 16
7 44 14 63 8 19 13 35 10 35 -3 0 2 10 10 22 9 12 16 29 16 38 1 14 37 69 147
228 60 85 242 282 300 324 53 39 173 92 243 107 54 12 158 0 171 -20 11 -19
28 -100 36 -173 5 -51 8 -57 19 -41 20 27 27 117 15 177 -8 36 -22 63 -43 85
-29 30 -37 33 -92 33 -105 0 -191 -30 -307 -106 -88 -57 -175 -144 -313 -313
-55 -69 -114 -138 -129 -155 l-28 -31 6 40 6 40 -20 -25 c-13 -17 -23 -22 -30
-15 -12 12 5 37 36 53 21 12 36 45 47 112 5 27 4 32 -6 22 -7 -7 -20 -12 -30
-12 -10 0 -18 -5 -18 -11 0 -5 -5 -7 -10 -4 -8 5 -7 11 1 21 9 11 8 14 -5 14
-30 0 -51 30 -47 68 2 20 19 14 26 -9 6 -19 9 -20 22 -6 13 13 12 17 -11 40
-14 14 -26 31 -26 37 0 19 21 10 47 -18 l24 -29 31 29 c44 41 68 173 37 202
-9 8 -10 8 -6 0 3 -6 -10 -18 -29 -27 -19 -10 -33 -21 -30 -26 4 -5 -3 -7 -14
-4 -11 3 -25 14 -31 25 -6 11 -13 18 -15 15 -3 -2 -11 -37 -19 -78 -23 -124
-56 -229 -72 -229 -10 0 5 142 16 153 6 6 11 22 11 35 0 21 -2 22 -15 12 -8
-7 -15 -22 -16 -34 0 -11 -3 -15 -6 -8 -2 6 -9 10 -13 7 -5 -3 -11 -1 -15 4
-3 6 5 15 17 22 39 20 59 49 48 69 -5 10 -6 21 -2 26 4 4 -8 -4 -26 -19 -18
-14 -39 -24 -47 -20 -11 4 -13 1 -9 -11 3 -9 11 -16 17 -16 6 0 7 -3 4 -7 -10
-9 -41 27 -45 52 -6 32 -10 30 -18 -9 -5 -27 -2 -40 9 -49 8 -7 18 -22 22 -34
5 -19 2 -23 -14 -23 -17 0 -21 -6 -21 -37 -1 -38 -1 -38 -14 -13 -14 24 -14
23 -22 -25 -4 -28 -8 -72 -8 -100 -1 -27 -6 -55 -12 -62 -6 -7 -17 -43 -23
-80 -7 -37 -16 -87 -22 -111 -9 -41 -12 -197 -5 -257 2 -16 9 -55 16 -85 17
-75 18 -93 2 -109 -10 -11 -11 -16 -1 -21 20 -13 -45 -5 -68 8 -29 16 -53 62
-53 101 0 16 -5 33 -11 36 -5 4 -9 17 -8 28 3 50 0 57 -31 57 -24 0 -30 4 -30
22 0 20 1 20 18 4 18 -15 19 -15 28 6 5 13 9 50 9 83 0 58 -1 60 -27 63 -35 4
-56 28 -39 45 10 9 17 7 32 -12 17 -21 22 -22 30 -10 12 19 11 53 -2 66 -11
11 -6 45 22 138 10 35 9 46 -6 78 -31 66 -96 84 -156 44 -59 -39 -76 -135 -38
-209 17 -34 20 -52 15 -97 -11 -96 -14 -133 -21 -226 -7 -102 -13 -142 -26
-200 -4 -22 -8 -71 -8 -110 l1 -70 12 46 c7 25 16 87 20 137 3 50 9 99 13 108
6 16 9 40 12 82 0 12 6 22 12 22 5 0 8 -4 5 -8 -3 -5 -8 -60 -10 -123 -3 -63
-10 -130 -16 -149 -12 -43 -13 -40 5 -40 8 0 12 6 9 13 -2 7 2 21 10 32 12 17
14 15 25 -33 6 -28 8 -58 5 -67 -4 -8 1 -17 10 -21 9 -3 16 -15 16 -25 0 -10
5 -19 11 -19 5 0 8 4 5 9 -8 12 4 41 16 41 8 0 7 -34 -1 -88 -1 -2 -7 0 -13 3
-7 4 -5 0 5 -8 10 -8 17 -28 17 -47 0 -57 17 -13 19 50 2 46 13 52 59 30 41
-20 81 -19 108 2 22 16 55 -24 60 -72 2 -25 8 -63 14 -85 29 -126 45 -305 29
-337 -6 -10 -4 -18 4 -21 9 -4 9 -6 0 -6 -8 -1 -13 -15 -13 -37 0 -35 -1 -36
-27 -29 -16 4 -53 11 -83 16 -30 4 -70 11 -87 15 -18 3 -33 3 -33 0 0 -15 31
-66 56 -93 39 -42 55 -80 52 -121 -3 -33 -6 -37 -32 -40 -40 -5 -160 57 -214
111 -121 119 -195 276 -170 359 10 35 28 52 28 28 0 -5 5 -10 10 -10 6 0 10 8
10 19 0 10 7 24 15 31 8 7 15 24 15 39 -1 68 13 141 27 141 8 0 12 -4 9 -9 -5
-8 -12 -50 -35 -208 -9 -65 2 -69 19 -8 7 25 17 45 21 45 5 0 26 16 47 35 l39
34 12 -102 c21 -166 23 -177 31 -177 7 0 32 120 46 221 5 39 3 50 -15 68 -25
25 -31 26 -31 6 0 -17 -9 -19 -29 -6 -8 6 -12 25 -11 57 2 27 2 63 1 79 -1 27
-3 28 -13 11 -6 -10 -10 -48 -9 -84 l1 -65 -21 18 c-16 15 -19 27 -14 51 3 18
1 35 -5 39 -5 3 -10 34 -11 68 -1 68 -4 67 -14 -5 -7 -55 -35 -69 -35 -18 0
33 -15 41 -23 11 -2 -10 -3 -52 -1 -92 2 -45 0 -61 -4 -41 l-7 34 -21 -24
c-12 -12 -34 -45 -49 -73 -46 -86 -58 -84 -31 6 18 59 38 98 88 172 22 32 37
61 34 64 -2 3 -38 -12 -79 -32 -61 -31 -80 -46 -109 -90 -19 -29 -45 -85 -57
-125 -22 -68 -23 -79 -11 -142 11 -64 23 -83 33 -55 6 16 39 -60 35 -81 -2
-10 -14 -18 -28 -20 -46 -6 -117 -33 -134 -50 -37 -42 -50 -139 -19 -149 6 -2
22 16 36 40 31 52 65 77 107 77 40 0 113 -37 104 -52 -5 -7 -2 -9 8 -5 10 3
43 -19 94 -64 108 -96 140 -168 114 -261 -14 -50 -54 -80 -102 -77 -20 2 -40
0 -44 -3 -11 -11 74 -48 110 -48 19 0 38 -5 42 -12 5 -7 2 -9 -8 -5 -9 3 -19
2 -24 -3 -22 -22 -161 47 -185 92 -9 17 -6 18 43 12 70 -8 107 7 115 46 3 17
9 32 13 35 10 6 0 55 -11 55 -5 0 -9 -15 -9 -34 0 -44 -42 -96 -76 -96 -14 0
-45 5 -70 11 -25 6 -48 8 -52 5 -12 -13 106 -114 153 -132 81 -30 135 -11 245
86 74 64 133 62 143 -5 2 -16 2 -24 0 -17 -4 10 -8 10 -19 1 -17 -14 -18 -35
-1 -43 6 -3 4 -4 -6 -3 -12 1 -26 -11 -41 -38 -23 -40 -23 -40 -88 -43 -36 -2
-144 9 -239 23 -96 14 -328 48 -517 75 -318 47 -412 66 -412 87 0 4 -11 82
-24 173 -33 222 -44 361 -56 710 -6 162 -12 315 -13 340 -5 137 -12 122 151
291 191 198 334 316 638 526 137 95 294 205 349 245 55 40 163 117 240 171 77
54 155 110 174 125 l34 27 -6 -38 c-5 -33 -4 -37 8 -27 8 7 12 17 9 24 -3 6 2
2 10 -9 15 -18 15 -20 -4 -27 -12 -5 -18 -13 -14 -23 5 -12 15 -14 40 -9 22 4
34 2 34 -5 0 -6 -6 -8 -14 -5 -7 3 -21 -2 -30 -12 -16 -16 -16 -18 9 -34 17
-11 23 -20 16 -25 -6 -3 -9 -11 -6 -16 4 -5 2 -9 -3 -9 -17 0 -22 13 -9 28 10
13 9 14 -1 8 -8 -5 -20 9 -38 46 -16 35 -24 44 -23 28 2 -14 -3 -49 -10 -79
-12 -48 -12 -55 3 -63 9 -5 16 -16 16 -25 0 -9 6 -13 15 -9 22 8 18 -2 -6 -15
-17 -9 -23 -8 -30 2 -4 7 -12 10 -16 5 -4 -5 -2 -11 5 -13 6 -3 12 -13 12 -23
0 -10 4 -21 10 -25 13 -8 60 5 60 17 0 5 9 18 19 29 10 11 22 39 25 62 9 62
15 118 19 157 2 19 15 60 30 91 15 31 27 61 27 68 0 6 4 19 8 29 5 9 15 31 23
47 20 40 55 46 54 9 -1 -14 -9 -31 -18 -36 -9 -5 -17 -19 -17 -32 0 -13 -7
-29 -15 -36 -8 -7 -12 -16 -9 -22 3 -5 1 -15 -5 -22 -6 -7 -12 -50 -14 -95 -1
-44 -5 -81 -9 -81 -5 0 -8 -11 -8 -24 0 -14 -4 -28 -10 -31 -5 -3 -10 -23 -10
-43 1 -27 7 -42 25 -54 23 -18 24 -17 58 22 19 22 39 40 45 40 17 0 40 96 41
167 l1 62 -39 12 c-22 7 -43 19 -46 27 -9 25 5 28 23 5 12 -16 21 -20 31 -13
10 6 19 3 28 -8 11 -15 12 -15 13 5 0 12 5 25 11 28 6 4 8 13 5 21 -3 8 1 14
8 14 7 0 37 -31 66 -70 29 -38 59 -71 66 -74 7 -3 49 14 94 37 81 42 83 42
184 41 55 -1 110 -3 121 -5 17 -3 19 1 16 31 -4 47 -24 83 -57 105 -14 9 -40
32 -56 51 -32 36 -78 47 -78 19 0 -24 -34 -17 -78 15 -50 36 -57 70 -14 70 27
0 27 1 -15 38 -23 20 -65 55 -93 77 -28 22 -73 59 -99 83 -27 23 -83 61 -126
83 -42 21 -92 51 -111 65 -18 14 -50 28 -71 31 -37 5 -39 3 -72 -51 -19 -32
-35 -74 -38 -99 -4 -41 -3 -43 82 -130 65 -66 86 -93 82 -107 -3 -13 0 -20 9
-20 8 0 14 -10 14 -26 0 -14 -4 -23 -10 -19 -5 3 -10 13 -10 21 0 25 -15 15
-42 -30 -16 -27 -22 -46 -16 -48 8 -3 8 -10 0 -24 -9 -15 -11 -15 -12 -3 0 8
-17 23 -37 33 -50 25 -194 56 -257 56 -28 1 -87 8 -131 16 -44 8 -116 19 -159
24 -44 5 -100 14 -125 19 -25 6 -89 19 -141 30 -111 22 -244 56 -260 66 -7 4
5 15 27 26 69 35 269 182 435 319 196 163 239 197 301 239 46 31 47 34 41 69
-9 53 -40 155 -85 277 -12 33 -27 96 -34 140 -6 44 -16 79 -21 78 -5 -1 -11
20 -12 45 -7 140 -6 146 21 187 19 29 29 61 35 115 5 41 13 83 17 94 7 16 6
17 -14 7 -12 -7 -36 -11 -54 -9 -29 3 -32 6 -29 33 8 95 2 211 -12 233 -4 7
-16 10 -27 7 -13 -4 -21 -1 -26 10 -8 21 17 38 34 23 14 -11 16 0 17 110 0 28
4 52 8 52 4 0 5 6 2 13 -2 7 16 32 41 56 25 24 44 48 43 55 -4 26 14 76 29 76
16 0 14 47 -5 125 -6 22 -16 60 -22 85 -6 24 -24 68 -41 96 -16 28 -29 61 -29
73 0 11 -9 38 -20 58 -11 21 -20 49 -20 62 0 17 -20 43 -66 87 -72 68 -74 71
-154 153 -42 43 -71 63 -125 84 -107 41 -120 32 -26 -18 94 -49 122 -70 75
-56 -46 14 -86 33 -137 68 -58 39 -104 53 -174 53 -43 0 -68 -8 -137 -45 -102
-54 -136 -57 -209 -15 -39 22 -152 66 -152 59 0 0 -20 -6 -45 -13z m106 -46
c33 -14 42 -24 46 -49 5 -34 2 -36 -37 -21 -19 7 -24 7 -19 -2 5 -8 -5 -9 -37
-4 -54 9 -75 26 -33 27 l29 0 -25 10 c-17 7 -45 7 -86 0 -79 -14 -97 -14 -92
2 7 19 148 65 183 60 17 -3 49 -13 71 -23z m582 -27 c20 -21 30 -30 23 -20
-19 25 2 21 25 -5 10 -12 13 -18 7 -14 -7 4 -13 5 -13 3 0 -3 20 -17 43 -30
24 -14 44 -33 44 -42 0 -11 -6 -14 -16 -9 -9 4 -27 9 -41 12 -14 3 -35 11 -47
19 -16 11 -22 11 -25 2 -3 -9 -13 -7 -35 9 -17 12 -42 22 -55 22 -28 0 -44 11
-42 28 1 6 2 17 3 22 0 6 9 10 19 10 15 0 15 2 2 11 -12 8 -11 9 5 5 11 -3 27
-1 35 4 23 15 30 12 68 -27z m412 -1779 c0 -95 -11 -116 -104 -197 -90 -79
-135 -119 -195 -175 -47 -44 -101 -79 -101 -65 1 5 20 31 43 60 23 28 65 80
92 114 28 34 77 92 111 129 53 59 85 109 128 197 18 36 26 16 26 -63z m1083
-5066 c23 1 58 -4 77 -10 44 -14 60 -18 63 -16 1 0 20 -8 42 -20 61 -31 125
-80 125 -96 0 -8 6 -16 13 -19 10 -4 10 -7 0 -18 -10 -9 -13 -10 -13 -1 0 7
-5 12 -12 12 -6 0 -27 12 -47 27 -20 16 -42 27 -48 25 -7 -2 -13 2 -13 8 0 5
-12 10 -27 11 -16 0 -58 8 -95 18 -38 9 -68 13 -68 9 0 -5 -4 -7 -8 -4 -14 8
-70 9 -163 1 -106 -8 -109 -8 -135 -22 -11 -7 -34 -12 -50 -11 -16 0 -60 -16
-98 -36 -38 -19 -72 -33 -76 -31 -4 2 -28 -16 -54 -40 -42 -41 -46 -43 -46
-22 0 25 50 83 81 92 10 4 19 11 19 16 0 6 4 8 9 5 5 -3 20 3 34 14 29 23 124
67 159 74 13 3 39 10 58 16 19 7 73 14 119 16 46 2 86 6 89 9 3 2 9 2 14 -1 6
-4 29 -6 51 -6z"/>
<path d="M4549 7848 c-68 -10 -139 -29 -139 -37 0 -31 100 -40 220 -21 30 5
89 13 130 16 79 7 129 27 97 40 -24 9 -245 10 -308 2z"/>
<path d="M4674 7640 c-28 -4 -63 -15 -78 -25 -29 -19 -56 -63 -56 -92 0 -14 6
-10 26 15 34 42 44 40 44 -9 0 -32 6 -47 30 -71 26 -25 36 -29 63 -24 18 3 43
18 56 33 19 22 22 34 17 70 -3 24 -2 43 2 43 16 0 71 -40 82 -60 15 -28 32
-15 24 18 -20 81 -98 118 -210 102z"/>
<path d="M4214 7016 c-3 -9 -12 -16 -20 -16 -8 0 -14 -6 -14 -13 0 -22 34 -47
65 -47 16 0 39 -10 51 -21 29 -27 71 -19 80 14 4 18 18 28 63 41 32 9 62 16
67 15 5 -1 16 -1 24 0 26 3 -33 30 -65 31 -33 0 -93 -32 -101 -54 -7 -18 -25
-12 -79 24 -63 42 -65 42 -71 26z"/>
<path d="M4713 6878 c-77 -44 -251 -76 -429 -79 -132 -3 -142 -2 -169 19 -35
28 -45 28 -45 -1 0 -25 40 -54 59 -43 6 4 30 -3 53 -16 58 -31 159 -31 248 0
36 12 100 31 142 41 64 17 116 43 197 98 2 2 2 5 0 7 -2 2 -28 -10 -56 -26z"/>
<path d="M3895 5878 c-33 -19 -146 -95 -205 -138 -30 -22 -86 -56 -125 -76
-38 -19 -81 -45 -95 -57 -46 -41 -109 -87 -118 -87 -5 0 -17 -11 -26 -24 -12
-20 8 -11 97 41 256 151 352 216 457 311 46 42 50 50 15 30z"/>
<path d="M4402 3770 c-12 -5 -25 -16 -28 -24 -3 -8 -26 -17 -52 -20 -92 -13
-152 -28 -152 -37 0 -6 5 -7 10 -4 6 3 10 3 10 -2 0 -4 3 -18 6 -30 5 -18 2
-23 -12 -23 -9 0 -14 -3 -11 -7 4 -3 45 -1 91 6 l83 13 26 -26 c55 -55 147
-17 147 61 0 41 -17 76 -32 67 -7 -4 -8 -3 -4 4 4 8 -3 16 -19 22 -31 12 -33
12 -63 0z"/>
<path d="M4400 3487 c-19 -17 -47 -26 -113 -36 -71 -11 -86 -16 -77 -26 6 -8
19 -16 28 -18 9 -2 7 -3 -6 -2 -30 3 -23 -17 9 -26 19 -6 15 -7 -18 -8 -24 -1
-43 -5 -43 -11 0 -5 12 -7 28 -5 146 26 155 26 182 0 36 -34 92 -34 126 0 20
20 25 33 22 68 -2 29 -8 42 -18 42 -24 1 -60 16 -60 25 0 5 8 11 18 13 9 3 1
5 -18 6 -24 1 -43 -6 -60 -22z"/>
<path d="M4435 3240 c-11 -4 -30 -19 -41 -33 -17 -19 -36 -26 -85 -32 -35 -4
-73 -11 -84 -16 -17 -7 -17 -8 8 -8 28 -1 37 -16 15 -24 -7 -2 -3 -2 9 -1 12
2 25 -1 28 -6 10 -16 27 0 22 21 -3 12 0 19 9 19 8 0 14 -8 14 -17 0 -14 2
-15 9 -5 6 10 10 10 21 -3 16 -20 16 -20 -50 -32 l-55 -11 66 5 c52 4 72 2 90
-11 35 -24 85 -20 115 9 20 20 25 33 22 68 -2 28 -7 41 -16 39 -22 -4 -52 17
-46 33 7 17 -18 19 -51 5z"/>
<path d="M4426 2956 c-17 -19 -42 -36 -56 -39 -23 -4 -23 -4 -2 -6 12 0 22 -7
22 -15 0 -8 3 -21 6 -29 4 -11 -2 -17 -18 -20 -16 -3 -11 -5 13 -6 20 0 42 -8
49 -16 27 -33 101 -11 126 36 13 27 14 39 5 70 -6 20 -18 39 -26 42 -10 4 -12
1 -8 -10 5 -13 2 -15 -11 -10 -10 4 -30 7 -44 7 -26 1 -26 1 -8 15 18 14 19
15 2 15 -10 0 -32 -15 -50 -34z"/>
</g>
</svg>
