<?xml version="1.0" standalone="no"?>
<!DOCTYPE svg PUBLIC "-//W3C//DTD SVG 20010904//EN"
 "http://www.w3.org/TR/2001/REC-SVG-20010904/DTD/svg10.dtd">
<svg version="1.0" xmlns="http://www.w3.org/2000/svg"
 width="920.000000pt" height="849.000000pt" viewBox="0 0 920.000000 849.000000"
 preserveAspectRatio="xMidYMid meet">
<metadata>
Created by potrace 1.15, written by Peter Selinger 2001-2017
</metadata>
<g transform="translate(0.000000,849.000000) scale(0.100000,-0.100000)"
fill="#000000" stroke="none">
<path d="M5504 7446 c-17 -7 -51 -17 -75 -21 -44 -7 -170 -64 -225 -101 -16
-11 -41 -26 -57 -34 -15 -7 -43 -30 -63 -49 -20 -20 -39 -36 -44 -36 -10 0
-65 -73 -98 -130 -39 -68 -134 -266 -130 -270 2 -3 28 28 56 68 85 118 245
288 294 313 18 9 49 28 68 42 37 26 35 24 -55 -55 -21 -19 -40 -41 -41 -50 -2
-9 -8 -21 -15 -27 -9 -8 -9 -6 0 12 26 51 -3 16 -69 -84 -39 -58 -87 -142
-107 -187 -20 -45 -60 -136 -91 -202 -134 -294 -125 -268 -118 -363 8 -107 31
-206 54 -241 10 -14 27 -57 37 -96 33 -125 173 -370 189 -330 5 13 13 8 38
-26 26 -33 58 -55 145 -99 167 -85 313 -199 299 -235 -5 -14 -8 -14 -35 0 -16
8 -44 30 -63 49 -40 43 -144 106 -172 106 -18 0 -19 -2 -6 -11 22 -15 -21 -2
-92 27 -32 13 -60 24 -63 24 -3 0 -5 -12 -5 -26 0 -40 55 -87 147 -124 l81
-33 -5 -33 c-8 -46 13 -74 87 -119 33 -20 60 -43 60 -51 0 -8 9 -14 20 -14 13
0 18 -5 14 -14 -3 -8 -12 -12 -20 -9 -11 4 -11 0 1 -24 8 -17 23 -36 32 -44
22 -17 59 -18 55 -1 -3 15 15 16 20 0 5 -14 48 -19 48 -5 0 6 10 1 23 -10 12
-11 31 -25 43 -31 18 -10 20 -8 21 26 1 43 -14 57 -39 35 -17 -15 -18 -15 -20
3 -2 26 -1 34 6 69 4 24 1 33 -16 44 -19 12 -20 11 -13 -6 12 -26 8 -75 -7
-84 -13 -8 -72 19 -103 48 -11 10 -29 25 -41 33 -11 8 -43 34 -69 58 -39 34
-46 45 -35 52 8 5 15 15 15 22 0 7 8 12 16 12 11 -1 15 5 12 17 -7 26 26 25
77 -1 48 -25 50 -25 45 0 -2 11 0 18 6 15 5 -4 9 -14 10 -23 0 -9 7 1 15 22
17 48 23 54 33 38 4 -6 19 -13 34 -14 25 -2 27 -5 22 -33 -4 -16 -3 -25 2 -20
10 12 33 18 33 8 0 -16 -43 -51 -56 -46 -17 6 -13 -30 8 -74 16 -33 58 -45 58
-16 1 17 2 17 15 -1 13 -18 15 -18 15 -3 0 10 -7 33 -14 52 -17 39 -6 46 27
18 15 -13 18 -14 12 -3 -5 9 0 7 14 -5 19 -16 24 -17 32 -5 5 8 8 30 5 48 -4
24 -1 32 10 32 8 0 13 4 9 9 -3 5 0 13 6 16 6 4 13 -2 16 -14 3 -12 10 -21 15
-21 11 0 2 17 -26 49 l-21 24 40 -7 c22 -4 48 -10 59 -13 12 -3 17 -1 14 8 -3
8 -39 27 -82 43 -46 18 -72 32 -64 37 6 4 13 28 14 54 1 26 4 49 6 51 2 2 26
-3 53 -12 27 -8 63 -16 80 -19 16 -2 44 -8 60 -13 24 -7 39 -4 77 17 55 30 64
47 13 25 -40 -16 -120 -18 -185 -3 -134 30 -400 148 -484 215 -20 16 -66 66
-102 110 -83 106 -87 108 -141 105 -51 -3 -108 29 -146 83 -13 19 -15 26 -5
18 14 -11 17 -8 23 28 9 56 41 50 82 -16 7 -10 2 4 -9 33 -17 40 -19 57 -11
75 10 22 11 22 32 -19 12 -24 23 -43 26 -43 6 0 -3 78 -11 91 -4 7 -3 10 2 7
5 -4 10 54 11 135 2 77 5 148 8 158 3 9 19 22 35 29 16 6 43 23 61 36 18 13
36 21 41 18 5 -3 1 -12 -9 -19 -15 -11 -11 -13 29 -12 26 0 45 4 42 8 -5 9 90
22 156 22 25 0 95 -1 155 -1 61 -1 120 -2 133 -2 25 0 29 22 7 40 -10 9 -15 9
-15 1 0 -6 5 -11 10 -11 6 0 10 -5 10 -11 0 -16 -20 1 -30 25 -9 25 -60 36
-170 36 -39 0 -51 3 -40 10 8 5 25 10 37 10 12 0 71 25 130 55 109 55 129 63
118 45 -3 -5 0 -7 7 -4 7 3 35 34 63 69 27 35 51 62 53 60 3 -2 -10 -22 -28
-45 -43 -54 -34 -59 17 -10 44 44 62 86 42 104 -9 8 -10 8 -6 0 4 -7 0 -17 -8
-24 -12 -10 -15 -7 -21 14 -5 22 -9 24 -25 15 -15 -7 -21 -6 -25 5 -5 13 -12
11 -42 -12 -32 -24 -34 -25 -24 -5 17 31 15 36 -12 31 -19 -4 -23 -1 -18 11 3
9 -4 5 -15 -8 -27 -33 -62 -36 -58 -5 1 14 -2 21 -8 17 -5 -3 -17 4 -27 17
-17 22 -17 22 -46 4 -26 -17 -28 -17 -15 -1 16 21 12 28 -23 31 -15 2 -32 -4
-42 -15 -10 -11 -22 -19 -27 -19 -6 0 -2 9 7 19 10 11 15 24 12 30 -3 5 1 17
10 25 8 9 11 16 5 16 -5 0 -13 -4 -16 -10 -3 -5 -11 -10 -17 -10 -6 0 -3 10 8
21 19 22 19 22 -2 11 -12 -6 -24 -9 -27 -5 -4 3 -13 0 -22 -7 -8 -7 -15 -10
-15 -6 0 4 -10 0 -23 -9 -13 -8 -26 -12 -30 -9 -4 4 -16 -4 -28 -17 l-21 -24
16 27 c9 15 16 29 16 31 0 10 -40 -1 -71 -19 -45 -26 -72 -36 -64 -24 3 6 12
10 19 10 6 0 28 16 47 36 48 51 139 120 185 141 21 9 47 24 57 32 9 8 17 10
17 5 0 -5 4 -3 8 3 4 7 32 17 62 22 l55 9 -55 1 c-62 1 -148 -24 -230 -65 -30
-16 -61 -27 -69 -25 -7 1 -10 -2 -6 -9 3 -6 3 -10 -2 -9 -21 4 -34 -2 -27 -13
5 -7 3 -8 -5 -3 -7 4 -23 -3 -39 -16 -14 -13 -20 -16 -13 -6 22 28 -1 19 -26
-10 -12 -16 -22 -23 -23 -16 0 7 14 29 32 50 26 31 22 29 -22 -12 l-53 -50 36
45 c58 73 116 120 191 156 74 36 73 46 -4 17 -52 -19 -114 -56 -149 -87 -30
-27 -150 -163 -173 -196 -10 -14 0 10 21 53 40 80 115 187 130 187 5 0 33 16
62 35 30 19 49 35 44 35 -6 0 -23 -9 -40 -20 -33 -22 -50 -26 -40 -10 7 12
-43 -6 -62 -22 -8 -6 -16 -8 -19 -5 -7 7 89 54 186 91 79 31 150 66 130 66 -8
-1 -26 -7 -40 -15 -14 -8 -34 -14 -45 -14 -14 0 -9 5 15 15 19 8 37 19 40 24
7 11 90 13 252 7 94 -3 125 -8 160 -26 25 -12 35 -15 23 -6 -11 9 -19 21 -17
26 1 6 -2 8 -6 5 -5 -3 -28 3 -50 14 -46 22 -67 26 -56 9 4 -7 -1 -7 -16 1
-35 19 -248 24 -286 6z"/>
<path d="M6054 7266 c10 -6 31 -22 45 -34 21 -19 22 -22 6 -17 -11 4 -24 8
-30 9 -5 1 -21 8 -35 16 -24 13 -24 12 -10 -5 14 -17 13 -18 -5 -10 -29 13
-119 19 -112 8 3 -5 -7 -7 -25 -5 -44 7 -27 -14 19 -23 36 -8 37 -8 13 -15
-21 -7 -22 -8 -5 -9 18 -2 18 -3 -5 -17 l-25 -15 28 6 c15 3 27 2 27 -3 0 -5
11 -14 24 -21 18 -10 29 -10 45 -2 40 22 21 3 -23 -23 -50 -29 -66 -47 -36
-39 11 3 20 10 20 15 0 6 7 7 16 4 8 -3 12 -2 9 4 -3 6 1 7 10 4 14 -6 14 -8
0 -24 -8 -9 -12 -20 -8 -23 10 -11 34 30 27 47 -4 11 -1 16 11 16 9 0 13 -4
10 -10 -3 -5 -1 -10 6 -10 8 0 8 -4 -1 -15 -7 -9 -11 -17 -9 -19 2 -2 14 10
27 25 16 20 19 27 8 23 -23 -9 -19 3 5 17 17 8 20 8 14 -1 -5 -9 -1 -10 16 -6
23 7 23 6 -3 -14 -16 -12 -28 -26 -28 -32 0 -6 6 -5 15 2 14 11 14 10 6 -13
-8 -21 -7 -25 4 -20 14 5 19 -6 16 -34 -2 -16 28 -10 40 8 5 8 9 9 9 4 0 -6
-5 -16 -12 -23 -6 -6 -13 -22 -15 -34 -3 -21 -14 -41 -78 -143 -36 -58 3 -9
54 68 29 43 59 81 68 84 27 11 175 -78 158 -95 -3 -3 2 -13 10 -22 18 -20 68
-160 60 -168 -3 -3 -5 -1 -5 5 0 24 -82 35 -122 16 -15 -7 -36 -13 -48 -13
-11 0 -20 -6 -20 -14 0 -8 -7 -17 -16 -20 -14 -5 -15 -4 -5 8 19 23 -75 -16
-101 -41 -45 -45 2 -63 62 -24 61 39 168 81 205 81 38 -1 65 -35 72 -92 5 -45
4 -51 -8 -41 -28 23 -119 7 -191 -33 -53 -29 -72 -46 -92 -84 -34 -62 -33 -82
5 -125 25 -28 38 -35 68 -35 108 1 154 107 83 192 -21 24 -23 30 -9 25 10 -4
27 -7 38 -7 11 0 31 -11 45 -25 24 -24 26 -24 49 -9 28 18 27 19 44 -61 6 -27
19 -75 30 -105 18 -50 20 -52 20 -23 1 18 10 55 21 82 20 52 23 108 16 303 -2
57 -8 104 -15 112 -7 8 -14 27 -16 43 -1 15 -8 29 -14 31 -6 2 -11 8 -11 13 0
6 6 7 13 2 16 -10 -44 65 -77 96 -45 42 -28 9 22 -43 l47 -50 -47 42 c-56 49
-74 56 -32 11 24 -27 26 -30 6 -20 -12 6 -29 23 -38 37 -9 14 -26 30 -38 36
-21 11 -21 11 -2 -11 l20 -22 -25 13 c-48 26 -51 29 -39 43 8 10 3 18 -23 34
-19 12 -42 21 -51 21 -12 0 -16 9 -16 35 0 19 -5 35 -11 35 -5 0 -7 5 -4 10 3
6 22 10 41 10 43 0 45 16 2 17 -76 2 -75 2 -40 23 25 15 37 18 52 10 10 -5 34
-10 52 -9 27 0 29 2 13 8 -35 14 -94 20 -100 10 -4 -5 -11 -9 -17 -9 -7 0 -6
6 2 15 11 14 7 19 -13 16 -4 -1 -12 10 -17 24 -5 14 -17 25 -28 25 -10 0 -23
5 -30 12 -7 7 -29 13 -49 14 -32 1 -35 -1 -19 -10z"/>
<path d="M3651 6975 c-62 -30 -119 -55 -125 -55 -7 0 -21 -6 -31 -14 -17 -12
-17 -16 -5 -31 18 -22 55 -14 111 23 66 45 179 100 220 107 20 4 53 2 73 -3
49 -14 46 2 -3 16 -76 23 -118 16 -240 -43z"/>
<path d="M3795 6961 c-33 -10 -73 -22 -88 -29 -16 -7 -33 -12 -38 -12 -6 0 -7
-4 -4 -10 3 -5 1 -10 -5 -10 -6 0 -20 -9 -31 -19 -21 -19 -21 -20 -3 -97 13
-62 23 -83 48 -106 35 -32 58 -38 31 -8 -21 23 -17 85 9 122 l16 22 0 -24 c0
-36 35 -88 65 -96 35 -9 31 -18 -12 -34 -21 -7 -32 -15 -25 -17 14 -5 144 26
152 36 3 3 22 15 42 25 21 10 35 23 32 27 -3 5 3 9 14 9 13 0 18 6 17 23 -1
12 3 25 9 29 7 4 4 13 -7 26 -17 19 -17 20 10 31 50 21 80 54 74 78 -6 21 -8
22 -33 8 -16 -7 -28 -10 -28 -5 0 5 -6 7 -13 4 -7 -2 -28 7 -47 21 -40 30 -93
31 -185 6z"/>
<path d="M3110 6878 c0 -13 9 -37 20 -55 14 -24 15 -31 5 -26 -23 8 -18 -21 8
-44 33 -30 54 -35 60 -14 2 10 14 20 25 23 19 5 20 3 15 -41 -5 -41 -2 -51 23
-81 l29 -33 -30 7 c-17 4 -31 11 -33 15 -1 5 -9 17 -17 27 -14 17 -15 16 -12
-21 2 -36 6 -42 42 -58 22 -11 50 -28 62 -39 45 -42 113 -11 113 51 0 42 -38
110 -89 160 l-47 46 28 0 c15 1 28 -3 28 -8 0 -4 5 -5 10 -2 6 3 10 2 10 -2 0
-5 13 -16 29 -26 17 -10 31 -28 34 -47 9 -40 26 -38 21 3 -2 17 -5 42 -6 55
-2 17 -19 32 -58 54 -30 16 -62 36 -71 44 -9 8 -49 18 -90 24 -106 14 -109 13
-109 -12z"/>
<path d="M4309 6673 c-19 -5 -32 -28 -59 -107 -11 -33 -32 -80 -47 -105 -46
-80 -274 -286 -370 -335 -32 -16 -48 -44 -19 -33 8 3 17 -1 20 -9 4 -11 11
-12 31 -4 32 12 48 4 42 -21 -3 -11 -4 -19 -4 -19 23 3 133 51 138 61 4 8 19
40 34 72 15 31 30 55 34 53 4 -3 18 13 31 35 14 21 28 39 32 39 4 0 22 17 40
37 18 21 49 55 69 75 33 34 36 42 35 93 0 31 5 60 12 67 13 13 17 94 5 101 -5
2 -15 2 -24 0z"/>
<path d="M5510 6459 c0 -6 -5 -7 -10 -4 -6 4 -17 1 -25 -5 -8 -6 -19 -9 -25
-5 -5 3 -10 2 -10 -3 0 -5 -11 -8 -24 -7 -18 2 -23 -1 -19 -11 3 -9 0 -12 -8
-9 -21 8 -70 -37 -73 -67 -2 -16 4 -35 14 -46 10 -10 25 -33 34 -50 10 -20 26
-33 46 -37 16 -4 30 -10 30 -13 0 -4 21 -8 48 -10 26 -2 50 -7 55 -11 16 -16
70 3 103 36 30 30 34 40 34 86 l1 52 29 -33 c17 -18 30 -28 30 -22 0 18 -27
64 -49 84 -24 22 -29 45 -6 26 10 -8 15 -9 15 -2 0 18 -36 32 -88 36 -26 2
-59 9 -74 15 -19 7 -28 7 -28 0z"/>
<path d="M3753 6377 c-2 -4 3 -10 12 -13 57 -22 -164 -124 -269 -124 -19 0
-40 10 -58 27 -15 14 -31 23 -35 19 -12 -11 12 -40 42 -51 27 -9 49 -28 140
-116 52 -50 91 -64 142 -50 61 17 72 30 21 24 -77 -9 -113 32 -71 79 14 15 15
21 4 27 -10 7 -9 11 5 22 11 8 41 40 67 72 39 46 54 57 78 57 37 0 72 17 63
31 -7 12 -133 8 -141 -4z"/>
<path d="M6200 5810 c-8 -6 -46 -19 -83 -31 -59 -18 -90 -20 -223 -17 -85 2
-154 2 -154 1 0 -1 37 -16 83 -33 89 -35 248 -55 232 -31 -4 7 -17 10 -30 7
-13 -3 -26 -2 -29 3 -3 5 18 15 47 21 53 13 126 46 162 74 22 17 19 21 -5 6z"/>
<path d="M6194 5547 l-81 -82 13 -73 c7 -40 17 -79 23 -86 16 -19 51 -27 51
-13 0 7 4 18 9 26 8 12 12 13 25 1 9 -7 19 -10 23 -6 8 8 -23 33 -66 52 -33
15 -33 16 -27 67 8 62 33 107 47 86 5 -8 9 -9 9 -4 0 6 5 3 10 -5 9 -13 10
-13 11 0 0 10 3 8 9 -5 8 -19 9 -19 9 2 1 33 19 37 24 6 2 -17 4 -10 4 17 0
25 -2 57 -6 72 -6 26 -8 24 -87 -55z"/>
<path d="M3435 5530 c5 -8 -1 -20 -16 -32 l-24 -18 30 10 c27 9 28 9 11 -5
-10 -8 -24 -16 -30 -18 -8 -3 -7 -9 2 -18 10 -11 8 -17 -10 -32 l-23 -19 28 6
c28 7 33 1 18 -23 -9 -14 -50 -20 -130 -21 -28 0 -58 -9 -80 -22 -46 -28 -54
-40 -36 -54 8 -6 15 -21 15 -33 0 -11 5 -21 10 -21 23 0 -54 -87 -97 -110 -44
-23 -71 -54 -42 -48 7 2 15 -6 17 -17 5 -27 22 -44 22 -22 0 9 5 17 10 17 6 0
10 5 10 10 0 17 34 45 51 42 9 -2 21 -13 27 -25 6 -12 11 -16 11 -8 1 11 4 11
16 1 13 -11 14 -10 8 6 -6 17 -5 18 12 4 17 -14 17 -14 6 5 -10 16 -10 27 -1
50 7 17 14 24 17 18 8 -22 53 -15 62 10 5 12 6 27 4 34 -4 11 32 29 53 25 7
-1 15 5 18 14 5 13 15 15 49 10 35 -5 47 -2 72 19 29 25 30 25 8 31 -25 7 -27
44 -3 52 24 8 37 26 33 43 -3 11 3 20 16 24 12 3 25 14 31 24 8 16 -1 23 -63
53 -90 44 -122 55 -112 38z"/>
<path d="M6331 5316 c-14 -17 -16 -41 -5 -76 7 -23 6 -24 -11 -10 -17 14 -17
14 -2 -16 16 -31 16 -32 -2 -27 -12 3 -21 -1 -23 -10 -5 -24 -78 9 -78 35 0
11 -10 32 -22 46 -15 20 -19 22 -14 7 5 -11 16 -43 26 -71 10 -28 25 -65 34
-82 9 -17 16 -41 16 -53 0 -14 25 -46 68 -88 74 -73 106 -116 97 -132 -4 -5
-3 -8 2 -7 14 5 118 -113 132 -150 8 -18 32 -58 54 -90 36 -51 41 -66 49 -142
5 -47 11 -111 15 -142 3 -33 1 -58 -4 -58 -5 0 -25 12 -44 26 -70 53 -136 92
-199 116 -76 30 -238 59 -315 57 -30 -1 -61 3 -68 10 -12 9 -13 5 -4 -27 10
-36 37 -55 37 -25 0 7 5 13 10 13 6 0 10 -11 10 -24 0 -39 24 -51 69 -36 21 7
45 10 52 7 10 -4 8 -6 -4 -6 -10 -1 -44 -14 -77 -31 -32 -16 -65 -27 -73 -25
-18 8 -7 -88 15 -130 23 -44 33 -106 19 -114 -8 -5 -2 -28 20 -77 25 -53 33
-87 37 -148 4 -63 2 -77 -8 -71 -9 6 -12 4 -8 -6 3 -8 -1 -27 -8 -44 -13 -29
-13 -28 -15 35 l-1 65 -9 -55 c-13 -77 -29 -87 -29 -19 0 66 -17 49 -24 -26
-11 -107 -15 -331 -5 -298 11 39 29 52 29 22 0 -44 -24 -139 -35 -139 -17 0
-39 54 -76 180 -21 72 -24 114 -5 60 11 -31 13 -16 10 115 l-3 150 9 -114 c14
-180 19 -163 13 44 -5 178 -4 194 17 258 16 50 25 66 33 58 6 -6 18 -11 26
-11 11 0 9 5 -7 16 -12 8 -22 21 -22 29 0 7 -5 15 -10 17 -9 3 -16 29 -23 89
-1 9 -33 45 -72 79 -106 97 -130 130 -105 145 12 7 67 -20 97 -48 13 -11 26
-17 30 -13 4 3 -3 13 -15 22 -12 8 -35 35 -52 59 -46 67 -86 102 -157 137 -75
38 -108 72 -123 129 -12 45 -9 90 4 54 14 -37 24 -50 38 -46 7 3 26 5 42 5 27
1 26 3 -34 58 -34 32 -76 68 -92 80 -69 51 -116 100 -123 125 -5 21 -8 24 -15
13 -5 -8 -7 -17 -5 -20 2 -4 -15 -15 -38 -25 -45 -20 -65 -35 -201 -159 -48
-45 -95 -85 -102 -89 -26 -15 -14 -24 33 -26 63 -2 155 -46 220 -105 105 -95
314 -372 313 -415 -1 -9 -9 0 -19 19 -13 23 -20 29 -23 20 -3 -8 -3 -5 -2 7 2
12 -1 25 -8 29 -7 4 -8 3 -4 -4 4 -7 1 -12 -9 -12 -9 0 -14 -4 -11 -9 7 -11
-22 -36 -31 -27 -3 3 -2 6 4 6 6 0 11 11 11 24 0 18 -5 23 -16 18 -11 -4 -14
-1 -9 11 4 12 2 14 -10 10 -10 -4 -14 -2 -9 5 3 6 1 14 -5 18 -8 4 -9 3 -5 -4
4 -7 2 -12 -4 -12 -7 0 -9 -9 -5 -22 7 -27 15 -35 -97 103 -85 106 -205 223
-237 234 -12 3 -18 11 -15 17 4 7 2 8 -5 4 -6 -4 -23 0 -37 9 -31 20 -25 31 8
15 22 -11 22 -10 4 4 -11 9 -24 16 -30 16 -5 0 -2 6 8 13 16 12 14 13 -18 14
-20 1 -40 -5 -48 -14 -10 -13 -8 -14 14 -11 15 1 27 0 28 -4 0 -5 0 -11 0 -15
0 -5 -20 -8 -44 -8 -48 0 -86 -25 -86 -56 0 -10 5 -41 11 -70 l11 -52 25 45
c25 46 25 46 72 41 72 -7 171 -72 286 -187 152 -153 218 -280 219 -421 1 -73
-2 -85 -33 -139 -33 -59 -33 -61 -27 -145 6 -74 11 -89 36 -117 51 -58 86
-116 210 -349 117 -218 194 -375 185 -375 -2 0 -14 18 -26 40 -20 35 -24 38
-35 22 -12 -16 -14 -16 -41 4 -15 12 -29 31 -31 43 -2 12 -9 20 -15 18 -34
-11 -28 -176 10 -294 l27 -83 -28 -52 c-15 -29 -52 -75 -82 -103 -38 -35 -55
-59 -57 -80 -5 -39 -25 -77 -38 -70 -5 4 -9 -3 -9 -14 0 -10 -5 -21 -11 -23
-5 -2 -14 -29 -18 -61 -9 -67 -13 -72 -39 -58 -12 6 -29 11 -39 11 -17 -1 -17
-1 0 -14 10 -8 17 -18 16 -22 -1 -5 0 -11 1 -14 9 -25 0 -47 -48 -111 -30 -41
-66 -94 -79 -119 -13 -25 -27 -52 -32 -60 -5 -8 -14 -27 -21 -42 -10 -21 -17
-25 -26 -17 -8 7 -13 6 -16 -3 -4 -10 -8 -10 -22 2 -16 13 -20 12 -31 -4 -12
-15 -11 -23 3 -52 9 -21 21 -33 29 -30 16 6 16 4 1 -29 -6 -14 -17 -25 -24
-25 -7 0 -18 -19 -24 -41 -7 -23 -28 -65 -49 -93 -51 -69 -61 -89 -61 -126 0
-53 -77 -108 -203 -145 -63 -18 -249 -26 -282 -11 -17 7 -16 6 3 -8 12 -10 22
-23 22 -31 0 -36 123 -26 248 21 70 26 133 34 139 18 5 -16 -65 -81 -112 -103
-64 -30 -168 -43 -216 -26 -21 8 -46 12 -54 9 -11 -5 -15 1 -15 20 0 14 -4 26
-10 26 -5 0 -10 -7 -10 -16 0 -9 -5 -12 -12 -8 -20 11 3 -9 42 -37 31 -22 45
-25 115 -24 45 1 99 8 122 17 42 15 93 14 93 -4 0 -23 -50 -54 -108 -67 -54
-12 -72 -12 -120 0 -82 20 -86 19 -86 -20 0 -44 24 -62 56 -42 25 16 109 16
138 1 11 -6 20 -17 20 -26 0 -19 -53 -125 -98 -194 -20 -30 -41 -64 -47 -75
-28 -50 -41 -70 -58 -89 -10 -11 -16 -30 -15 -41 3 -20 7 -20 1268 -20 1067 0
1265 2 1262 14 -2 9 3 11 14 7 16 -6 16 -5 0 16 -41 57 -54 82 -60 118 -3 21
-12 45 -19 52 -15 17 -22 52 -8 43 15 -9 13 6 -3 27 -7 10 -16 15 -20 11 -4
-4 -4 0 0 10 4 12 1 17 -11 17 -14 0 -15 3 -6 14 9 11 8 18 -5 30 -9 9 -14 23
-11 30 3 8 -2 24 -11 37 -15 21 -14 22 2 16 18 -7 18 -6 0 20 -9 16 -30 46
-46 67 -21 29 -25 42 -16 47 7 4 16 5 20 3 4 -3 8 0 8 6 0 8 -9 10 -25 6 -14
-4 -25 -2 -25 4 0 5 10 10 22 10 l22 0 -21 20 c-12 10 -24 28 -28 39 -3 10
-13 22 -23 26 -13 5 -14 8 -3 15 8 4 12 14 9 21 -3 8 -5 17 -4 20 0 3 -5 13
-12 22 -19 23 -23 67 -6 60 8 -3 14 -16 14 -29 0 -13 5 -24 10 -24 6 0 10 -9
10 -20 0 -11 5 -20 10 -20 6 0 10 -7 10 -15 0 -8 7 -15 15 -15 8 0 15 -9 15
-21 0 -11 4 -18 8 -15 13 8 107 -203 104 -231 -2 -12 1 -23 7 -23 6 0 8 8 4
18 -3 9 -3 14 1 11 4 -4 9 -16 11 -29 2 -12 14 -42 26 -67 16 -32 24 -41 30
-31 13 19 11 30 -3 23 -7 -4 -5 0 5 8 14 12 15 16 3 20 -21 8 -48 68 -36 82 6
7 3 16 -10 25 -19 14 -28 40 -13 40 3 0 15 -7 25 -17 16 -14 18 -14 18 -1 0 9
-6 21 -14 27 -8 7 -17 23 -20 36 -4 14 -11 25 -16 25 -6 0 -10 11 -10 24 0 13
-7 40 -15 59 -18 43 -18 47 -4 47 5 0 8 -3 5 -8 -2 -4 3 -16 11 -27 14 -19 15
-18 8 15 -11 55 -28 99 -37 94 -4 -3 -8 27 -8 67 0 51 -5 77 -15 90 -13 14
-22 66 -25 137 0 7 -4 10 -10 7 -5 -3 -10 1 -10 9 0 9 4 16 9 16 11 0 -4 79
-18 93 -15 15 -14 30 1 21 8 -5 9 -2 5 10 -4 10 -7 22 -7 27 0 6 -3 8 -7 6 -5
-3 -8 11 -9 31 0 20 -6 38 -12 40 -7 2 -9 8 -6 14 4 6 2 27 -4 47 -6 20 -14
49 -17 64 -3 17 -10 25 -17 21 -7 -5 -9 -2 -5 9 3 9 2 19 -3 22 -6 4 -7 17 -4
31 3 13 1 31 -6 39 -6 8 -10 20 -7 27 2 7 26 -31 52 -84 26 -54 52 -95 57 -92
4 3 8 -5 8 -17 0 -12 8 -28 18 -35 14 -11 15 -13 1 -14 -12 0 -14 -8 -9 -42 4
-29 10 -42 20 -40 11 3 11 0 0 -13 -10 -12 -11 -27 -2 -68 18 -84 32 -159 37
-201 2 -22 8 -42 12 -45 9 -7 17 -50 22 -114 0 -10 6 -15 11 -12 12 8 13 -5 1
-24 -5 -8 -2 -25 7 -45 14 -26 17 -28 20 -12 2 11 -4 26 -14 33 -12 9 -13 13
-4 13 7 0 10 3 7 6 -3 4 -2 14 3 24 6 11 4 24 -6 39 -11 15 -13 26 -6 34 12
14 5 97 -10 114 -5 7 -7 17 -3 23 4 6 1 17 -5 25 -7 8 -8 15 -4 15 11 0 11 79
0 167 -5 40 -12 61 -19 56 -6 -3 -7 -1 -3 5 4 6 0 25 -9 42 -15 30 -17 47 -3
43 4 -2 5 4 2 12 -4 8 -10 12 -15 9 -5 -3 -9 2 -9 10 0 9 -5 16 -10 16 -6 0
-8 10 -5 23 3 12 7 76 9 142 3 98 1 130 -14 175 -10 30 -25 84 -33 120 -9 36
-18 74 -22 85 -6 19 -6 19 8 3 8 -10 17 -15 20 -12 3 3 9 -11 12 -32 3 -22 10
-48 15 -59 l9 -20 0 20 c2 44 -48 363 -63 404 -19 53 -20 64 -2 31 12 -21 14
-10 13 100 0 119 6 326 19 620 4 74 15 175 25 224 10 48 16 92 13 97 -14 24
24 -6 44 -34 l24 -32 -4 51 c-3 34 -13 62 -30 85 -54 72 -88 168 -74 206 6 15
8 15 16 3 8 -12 10 -10 10 8 0 15 4 21 12 16 7 -4 8 -3 4 4 -4 7 -12 12 -17
12 -18 0 -41 29 -33 41 5 8 3 9 -6 4 -9 -5 -10 -2 -5 14 5 16 3 20 -9 15 -18
-7 -20 4 -6 26 6 9 5 17 -2 21 -7 5 -5 14 6 30 25 37 15 109 -16 109 -7 0 -7
-4 0 -12 21 -27 24 -73 4 -91 -17 -16 -21 -14 -72 38 -30 30 -59 55 -65 55
-16 0 -58 47 -61 67 -2 8 -6 19 -11 24 -15 15 -14 -41 2 -117 9 -42 15 -126
15 -195 0 -138 -7 -158 -11 -29 -2 94 -7 119 -19 99 -6 -9 -12 -8 -25 4 -9 10
-18 17 -20 17 -4 0 22 -87 30 -100 3 -6 0 -10 -7 -10 -9 -1 -7 -5 4 -14 17
-12 18 -31 3 -68 -5 -13 -1 -20 16 -27 13 -5 18 -10 12 -10 -7 -1 -13 -11 -13
-23 0 -15 -15 7 -41 57 -23 44 -61 107 -85 140 l-45 60 52 -55 c28 -30 48 -49
44 -42 -4 7 -3 18 3 25 10 13 3 95 -19 232 -14 88 -14 134 -1 147 16 16 102
-42 117 -78 8 -19 22 -37 32 -40 10 -3 30 -12 45 -20 33 -18 35 -18 35 4 0 30
-36 71 -83 91 -24 11 -44 23 -44 26 0 3 5 3 10 0 6 -3 10 -4 10 -2 0 3 -24 23
-54 46 -38 28 -54 47 -53 61 1 11 7 18 13 16 21 -8 25 7 7 27 -14 16 -15 19
-3 15 57 -22 56 -22 32 -2 -17 14 -26 34 -29 67 -7 61 -20 70 -18 12 1 -43 0
-44 -24 -38 -44 10 -109 41 -133 62 -12 12 -18 21 -14 21 4 0 -12 19 -36 42
-24 23 -34 39 -24 35 16 -6 17 -5 6 8 -19 23 0 18 45 -11 24 -15 31 -17 18 -6
-28 25 -28 27 -3 29 11 1 18 -2 15 -6 -2 -5 3 -15 13 -22 16 -13 16 -13 2 5
-14 18 -13 18 10 11 23 -7 23 -6 -5 18 l-30 26 33 -4 c29 -3 33 -1 30 18 -2
12 -10 22 -18 22 -8 0 -18 5 -22 10 -4 6 -8 2 -8 -8 0 -10 -5 -15 -11 -12 -6
4 -43 8 -82 9 -59 1 -77 5 -96 23 -22 20 -22 21 -3 16 19 -5 20 -3 7 34 -7 21
-12 40 -10 42 3 2 22 -6 45 -17 25 -12 36 -15 29 -6 -6 8 -8 14 -3 14 5 1 0 6
-11 13 -22 13 -24 22 -31 117 -4 56 -3 62 8 43 11 -19 15 -20 32 -8 34 25 1
79 -60 99 -13 4 -26 1 -33 -8z m-305 -2727 c75 -14 92 -16 244 -28 153 -11
218 -28 329 -86 155 -82 273 -197 372 -367 45 -77 52 -103 11 -41 -19 29 -32
39 -39 32 -7 -7 -14 -4 -24 8 -13 16 -12 17 4 4 15 -12 17 -11 17 7 0 20 -25
37 -40 27 -4 -3 -30 19 -57 48 -67 73 -153 142 -224 177 -71 36 -217 76 -311
86 -63 6 -85 17 -56 26 13 5 4 38 -11 38 -5 0 -16 -7 -24 -15 -8 -8 -17 -12
-20 -9 -3 3 -8 1 -12 -5 -3 -7 2 -11 14 -11 11 0 23 5 26 10 3 6 11 10 16 10
6 0 4 -7 -5 -15 -20 -21 -112 -21 -120 0 -4 13 -2 13 14 5 24 -13 43 -13 35 0
-3 6 -1 10 4 10 6 0 11 10 11 23 -1 20 -2 20 -11 4 -8 -14 -14 -16 -24 -7 -8
7 -19 9 -25 5 -5 -3 -10 -1 -10 4 0 15 -25 14 -38 -2 -12 -14 -5 -31 18 -41 8
-3 4 -4 -10 -2 -14 3 -55 8 -92 12 -38 4 -68 8 -68 9 0 14 28 51 37 48 6 -2
10 4 9 14 0 10 -10 21 -21 25 -20 6 -20 6 1 7 11 1 47 -4 80 -10z"/>
<path d="M4460 5274 c-1 -11 -11 -39 -24 -64 l-24 -44 32 -29 c17 -16 24 -27
14 -24 -26 9 -28 -2 -8 -38 10 -18 16 -36 13 -39 -3 -3 0 -12 6 -20 7 -8 10
-20 6 -26 -4 -6 -2 -23 4 -38 6 -15 12 -39 15 -53 2 -15 11 -40 20 -57 9 -17
16 -43 16 -57 0 -15 5 -36 12 -48 7 -12 13 -31 15 -41 2 -11 8 -25 14 -32 6
-7 8 -17 5 -23 -3 -5 1 -11 9 -15 21 -8 26 7 11 36 -10 19 -11 29 -3 37 8 8 7
11 -2 11 -8 0 -10 7 -6 20 3 11 2 20 -3 20 -5 0 -15 26 -22 58 -7 31 -17 62
-22 69 -5 7 -5 14 2 18 15 9 6 60 -11 60 -8 0 -14 7 -14 15 0 8 -3 20 -7 25
-4 6 -3 17 2 24 4 8 4 27 -1 43 -4 16 -5 37 -2 46 6 14 4 15 -9 4 -13 -10 -15
-9 -15 5 0 38 -3 45 -18 39 -13 -5 -12 -1 2 19 10 13 24 25 32 25 11 0 11 3 1
15 -6 8 -9 19 -5 24 3 7 0 8 -9 5 -9 -3 -16 -2 -16 4 0 6 5 12 11 14 7 2 5 9
-5 17 -14 12 -16 11 -16 -5z"/>
<path d="M3375 5209 c4 -5 -5 -21 -19 -34 -14 -13 -26 -33 -26 -43 0 -10 -10
-23 -22 -29 l-21 -9 22 -21 22 -21 -22 -20 c-25 -24 -20 -52 10 -52 12 0 23
11 29 29 8 23 15 28 31 24 12 -3 21 -9 21 -13 0 -15 -31 -40 -48 -40 -13 -1
-10 -7 12 -24 l28 -23 -22 -21 c-17 -16 -27 -19 -41 -12 -23 13 -29 12 -29 0
0 -5 9 -10 20 -10 11 0 20 -4 20 -10 0 -5 -6 -10 -12 -10 -10 0 -9 -3 1 -9 7
-5 22 -6 34 -3 12 3 25 -1 32 -12 7 -9 17 -16 21 -14 11 3 74 -19 74 -26 0 -3
-5 -17 -11 -33 -12 -32 -40 -195 -34 -201 2 -2 8 13 14 35 6 21 18 64 27 96 8
31 20 57 25 57 5 0 9 7 9 15 0 9 7 18 16 22 8 3 13 11 10 19 -3 7 -1 14 4 16
6 2 11 15 12 29 1 17 7 25 15 22 7 -3 13 0 13 6 0 6 -10 11 -22 12 l-23 0 23
9 c12 5 22 14 22 20 0 6 -4 9 -9 5 -6 -3 -9 3 -8 14 0 11 6 17 14 14 15 -6 18
23 3 32 -8 5 -7 11 1 21 9 11 8 14 -7 14 -17 0 -16 2 4 18 21 16 22 20 8 31
-14 12 -16 10 -16 -9 0 -13 -5 -20 -12 -17 -7 2 -12 10 -10 16 1 6 -3 11 -9
11 -6 0 -9 -9 -6 -20 3 -11 1 -20 -4 -20 -15 0 -22 29 -11 43 8 10 6 13 -8 14
-11 1 -19 -1 -19 -5 4 -22 -3 -24 -16 -5 -16 23 -69 52 -101 57 -31 5 -26 23
7 30 l32 6 -23 20 c-25 22 -35 26 -25 9z"/>
<path d="M3077 4880 c3 -69 9 -129 14 -134 5 -6 9 -47 9 -92 0 -46 5 -86 10
-89 6 -4 9 -1 8 7 -2 7 2 12 8 11 6 -1 12 10 12 25 1 15 3 36 5 47 3 11 0 49
-5 85 -5 36 -10 82 -12 103 -2 20 -12 47 -22 59 -16 19 -16 20 -1 9 15 -12 17
-11 17 13 0 15 -7 29 -16 33 -9 3 -19 15 -24 27 -4 12 -6 -35 -3 -104z"/>
<path d="M2224 4950 c0 -10 5 -18 11 -17 5 1 9 -4 7 -12 -3 -15 37 -86 66
-117 11 -11 25 -30 31 -42 6 -12 17 -22 24 -21 7 0 8 2 1 5 -13 6 -2 110 14
126 7 7 12 15 12 20 0 12 -57 38 -84 38 -13 0 -31 6 -38 13 -23 23 -44 26 -44
7z"/>
<path d="M3844 4393 c9 -21 9 -22 7 -46 0 -11 -6 -15 -12 -11 -8 5 -8 1 0 -14
15 -27 14 -32 -5 -32 -8 0 -12 5 -9 10 3 6 2 10 -4 10 -17 0 -22 -18 -6 -24 9
-3 15 -18 14 -38 l-1 -33 -13 35 c-11 28 -14 30 -14 13 -1 -13 -4 -23 -9 -23
-7 0 -32 -69 -32 -88 0 -5 9 -18 19 -29 19 -20 19 -21 -9 -50 -22 -23 -25 -29
-12 -28 28 2 40 13 47 45 4 17 11 30 15 30 5 0 7 7 4 15 -4 9 0 15 8 15 14 0
19 42 7 55 -8 7 10 74 26 95 19 26 33 66 27 76 -4 5 -18 15 -31 22 -22 13 -23
12 -17 -5z"/>
<path d="M2740 4257 c0 -15 48 -70 154 -176 l154 -154 3 47 c2 25 1 46 -2 46
-4 0 -10 7 -13 16 -4 9 -2 13 5 8 7 -4 10 -1 7 6 -7 22 -48 20 -48 -2 0 -28
-30 -21 -43 10 -7 16 -41 55 -76 88 -36 32 -82 76 -103 96 -35 34 -38 35 -38
15z"/>
<path d="M4350 4103 c0 -16 5 -34 12 -41 8 -8 8 -15 -3 -28 -13 -15 -11 -16
11 -9 l25 8 -19 -22 c-18 -20 -18 -21 -2 -15 13 5 17 2 16 -12 -1 -10 -2 -27
-1 -38 1 -15 4 -16 16 -6 9 7 18 10 22 6 4 -3 -2 -12 -12 -20 -13 -9 -15 -15
-6 -20 6 -4 9 -12 6 -17 -4 -5 -1 -9 5 -9 8 0 10 -9 5 -27 l-7 -28 28 30 27
30 -7 -28 c-4 -16 -2 -27 4 -27 16 0 12 -27 -5 -34 -19 -7 -20 -60 0 -76 11
-9 17 -9 27 1 12 10 10 17 -9 37 -13 14 -20 28 -17 31 3 3 13 -4 21 -16 9 -13
20 -23 25 -23 6 0 5 6 -2 15 -6 8 -9 19 -5 25 4 6 -3 22 -15 35 -22 23 -13 44
13 29 6 -4 3 4 -9 17 -31 36 -38 50 -20 43 9 -3 16 -12 16 -20 0 -8 5 -14 10
-14 6 0 4 13 -5 30 -8 16 -15 36 -15 44 0 8 -4 16 -9 18 -6 2 -12 14 -14 28
-11 62 -20 90 -31 90 -6 0 -4 5 4 10 12 7 12 12 2 22 -9 9 -12 9 -12 -1 0 -12
-13 -10 -57 6 -9 4 -13 -5 -13 -24z"/>
<path d="M3166 3824 c-8 -22 -9 -19 25 -59 17 -19 32 -46 33 -60 0 -14 4 -25
8 -25 3 0 9 -8 11 -17 3 -10 5 -3 6 15 1 38 21 34 21 -4 0 -15 6 -24 15 -24 9
0 16 -10 17 -25 0 -14 1 -31 2 -37 1 -15 25 -32 33 -24 3 3 -2 12 -10 20 -8 9
-14 27 -13 40 2 14 -3 27 -10 30 -8 3 -13 13 -13 23 1 16 2 16 6 1 6 -25 27
-28 90 -17 70 13 85 24 43 33 -23 4 -31 10 -26 21 3 9 0 15 -9 15 -8 0 -30 8
-50 17 -30 14 -38 15 -44 4 -7 -11 -10 -10 -17 2 -8 13 -63 58 -100 80 -7 4
-15 0 -18 -9z"/>
<path d="M5025 1310 c-22 -4 -74 -17 -116 -28 -90 -24 -224 -31 -256 -13 -22
11 -23 10 -23 -28 0 -25 5 -41 15 -45 17 -6 194 27 250 48 22 8 48 15 58 16
10 0 20 6 23 13 2 7 21 12 44 12 24 0 46 7 57 18 19 19 16 20 -52 7z"/>
</g>
</svg>
