<?xml version="1.0" standalone="no"?>
<!DOCTYPE svg PUBLIC "-//W3C//DTD SVG 20010904//EN"
 "http://www.w3.org/TR/2001/REC-SVG-20010904/DTD/svg10.dtd">
<svg version="1.0" xmlns="http://www.w3.org/2000/svg"
 width="742.000000pt" height="687.000000pt" viewBox="0 0 742.000000 687.000000"
 preserveAspectRatio="xMidYMid meet">
<metadata>
Created by potrace 1.15, written by Peter Selinger 2001-2017
</metadata>
<g transform="translate(0.000000,687.000000) scale(0.100000,-0.100000)"
fill="#000000" stroke="none">
<path d="M125 6791 c-3 -5 0 -13 7 -18 18 -11 121 -53 131 -53 4 0 27 -8 50
-19 23 -10 51 -21 61 -25 25 -9 17 -15 -22 -18 -18 -1 -32 -5 -32 -8 0 -19 31
-30 82 -30 59 0 119 -13 227 -49 35 -12 80 -21 100 -19 l36 3 -45 22 c-50 25
-300 126 -370 151 -70 24 -90 34 -84 44 3 4 -15 8 -40 8 -25 0 -48 5 -51 10
-8 13 -42 13 -50 1z"/>
<path d="M3252 6649 c-12 -4 -31 -27 -42 -50 -12 -22 -17 -38 -11 -34 28 16
-15 -90 -47 -119 -12 -10 -19 -23 -15 -29 3 -6 1 -7 -5 -3 -9 5 -5 17 11 39
26 37 49 97 37 97 -5 0 -11 -6 -13 -12 -4 -9 -6 -9 -6 -1 -1 6 -10 9 -21 6
-28 -7 -25 2 13 51 29 37 30 39 7 25 -25 -16 -37 -35 -65 -99 -8 -19 -13 -26
-9 -15 3 11 8 32 11 48 5 27 5 27 -23 13 -15 -8 -31 -13 -35 -11 -4 3 -10 -2
-13 -11 -4 -9 -9 -14 -13 -11 -8 9 -67 -74 -69 -98 -1 -11 -9 -38 -17 -61 -9
-22 -17 -64 -19 -91 -2 -28 -6 -49 -9 -47 -9 5 -29 -44 -29 -73 0 -23 2 -24
17 -12 15 12 16 12 10 -5 -4 -10 -3 -24 3 -31 9 -11 7 -12 -9 -8 -14 3 -30 -7
-58 -38 -49 -55 -53 -89 -13 -139 28 -35 30 -42 21 -81 -14 -61 -77 -121 -167
-159 -40 -16 -79 -30 -87 -30 -18 0 -51 -36 -43 -48 3 -5 -13 -9 -36 -9 -23 0
-44 -5 -46 -12 -2 -6 -8 -9 -13 -6 -16 11 -66 -24 -143 -99 -75 -72 -98 -109
-56 -86 16 9 20 8 20 -5 0 -19 14 -19 33 0 13 12 16 13 21 0 8 -23 -58 -31
-89 -11 -23 15 -30 13 -26 -8 1 -4 -10 -5 -24 -2 -41 10 -67 -1 -59 -27 6 -20
6 -20 -10 -4 -29 28 -38 23 -50 -26 -5 -22 -1 -32 20 -52 24 -22 25 -26 13
-60 -7 -20 -37 -66 -65 -103 -104 -133 -200 -287 -229 -367 -39 -107 -38 -168
4 -234 34 -52 39 -73 16 -65 -15 6 -20 -9 -17 -48 1 -9 -7 -20 -18 -23 -28 -9
-14 -26 18 -23 20 2 27 -2 27 -14 0 -9 8 -25 17 -35 10 -10 29 -31 43 -48 l25
-30 -5 42 -5 42 56 -55 c40 -40 53 -60 49 -73 -8 -26 22 -85 48 -97 12 -5 26
-19 32 -31 5 -13 13 -23 18 -23 4 0 6 -4 2 -9 -6 -11 22 -77 44 -103 9 -12 10
-18 2 -18 -14 0 -51 59 -51 81 0 9 -7 20 -16 23 -14 5 -15 2 -8 -21 4 -16 8
-53 8 -84 1 -52 -1 -56 -21 -56 -12 0 -24 7 -26 16 -3 10 -5 8 -6 -6 -2 -41
-20 -24 -27 25 -11 78 -23 94 -21 28 1 -40 -2 -61 -10 -63 -7 -3 -20 -29 -29
-59 -8 -30 -20 -54 -25 -54 -12 0 -12 0 5 48 8 22 17 65 21 96 10 77 -10 73
-28 -6 -9 -35 -16 -54 -16 -42 -1 11 -18 54 -38 95 -20 41 -36 79 -34 86 1 7
-9 19 -23 28 -13 9 -26 25 -29 35 -11 43 -97 13 -97 -33 0 -19 -35 -24 -45 -7
-3 6 -51 10 -109 10 -96 0 -104 2 -109 20 -7 25 -4 36 6 32 5 -1 6 2 3 6 -7
11 30 46 41 39 4 -3 14 1 21 9 7 8 11 14 9 14 -2 0 13 18 33 41 37 39 37 41
23 69 -8 17 -11 35 -7 41 5 8 -1 10 -20 7 -14 -3 -26 -3 -26 -1 0 2 24 28 54
58 57 57 70 84 56 120 -9 24 -9 23 53 124 37 61 49 122 27 136 -6 3 -10 21
-10 40 0 19 -4 37 -10 40 -5 3 -10 16 -10 29 0 13 -9 31 -20 41 -11 10 -20 28
-20 40 0 12 -11 32 -25 45 -22 21 -27 22 -39 9 -14 -14 -54 -126 -76 -210 -6
-25 -29 -74 -51 -108 -46 -72 -91 -99 -134 -79 -30 13 -43 5 -25 -17 9 -11 10
-19 3 -26 -8 -8 -15 -1 -24 24 -15 43 -49 41 -49 -2 0 -15 -3 -30 -6 -34 -9
-9 -34 19 -34 37 0 22 -3 21 -48 -24 -22 -22 -54 -43 -71 -46 -39 -8 -51 -29
-51 -92 0 -36 -5 -54 -20 -67 -11 -10 -20 -24 -20 -31 0 -8 -15 -20 -33 -28
-18 -7 -53 -26 -78 -42 -24 -15 -52 -27 -62 -26 -10 0 -15 -4 -11 -10 4 -6 -1
-17 -11 -25 -33 -24 7 -15 45 10 43 28 114 52 129 43 22 -14 3 -176 -29 -236
-10 -19 -34 -66 -54 -104 -39 -73 -37 -94 6 -77 14 5 59 13 99 17 41 4 83 13
94 20 31 22 50 17 89 -26 37 -42 44 -71 25 -112 -16 -36 24 -105 78 -134 67
-35 94 -60 124 -116 27 -52 29 -53 68 -50 25 1 49 11 65 25 13 12 37 29 53 37
15 8 30 17 33 20 3 3 21 17 40 30 19 13 43 33 52 44 9 11 20 17 25 12 4 -4 -2
-16 -14 -26 -13 -10 -23 -22 -23 -27 0 -12 -80 -88 -108 -102 -12 -7 -27 -9
-32 -6 -6 3 -10 -1 -10 -9 0 -21 100 -123 133 -135 37 -14 110 -14 159 1 21 6
59 30 83 53 50 46 57 48 20 3 -27 -32 -31 -48 -14 -65 8 -8 8 -13 0 -17 -14
-9 -14 -46 -1 -46 6 0 10 6 10 14 0 8 9 24 20 37 16 20 19 21 20 7 0 -9 -4
-20 -10 -23 -5 -3 -10 -11 -10 -16 0 -6 5 -7 10 -4 5 3 10 -3 10 -15 0 -12 -4
-18 -10 -15 -5 3 -10 -1 -10 -10 0 -12 -5 -15 -16 -11 -13 5 -15 1 -12 -17 3
-17 0 -23 -14 -23 -12 0 -16 6 -13 17 4 12 0 16 -12 15 -15 -1 -18 7 -18 47 0
36 -4 49 -17 53 -10 3 -23 2 -29 -2 -21 -12 -112 -14 -126 -2 -11 9 -16 9 -22
-1 -5 -8 -18 -10 -35 -5 -35 9 -42 22 -8 17 l27 -5 -30 27 c-30 26 -30 27 -33
5 -3 -21 26 -65 36 -55 3 2 14 -1 25 -7 l21 -11 -22 -8 c-28 -11 -31 -66 -4
-76 43 -16 74 -49 102 -109 19 -42 34 -63 42 -58 6 4 9 3 5 -2 -3 -5 1 -18 9
-28 13 -18 14 -18 23 5 10 24 10 24 10 2 1 -13 7 -23 14 -23 16 -1 57 -83 57
-116 0 -15 11 -42 25 -60 14 -18 32 -57 41 -86 8 -29 24 -80 34 -113 25 -83
39 -162 49 -285 6 -68 19 -133 36 -185 24 -69 28 -101 33 -234 3 -108 1 -164
-8 -191 -7 -22 -9 -46 -5 -57 7 -14 9 -11 15 17 3 19 11 44 17 55 11 19 12 18
18 -8 5 -20 2 -33 -10 -47 -16 -18 -14 -24 6 -22 4 1 5 -8 2 -18 -3 -11 -1
-20 5 -20 9 0 27 90 24 123 -1 9 3 17 8 17 6 0 10 -4 10 -10 0 -5 5 -10 11
-10 6 0 8 9 4 20 -3 11 -4 20 -1 20 11 0 25 -75 16 -84 -7 -7 -10 -4 -10 7 0
29 -18 19 -25 -14 -4 -18 -3 -34 3 -38 13 -8 39 -111 45 -179 3 -39 1 -55 -9
-59 -15 -5 -20 -43 -6 -43 4 0 6 -18 4 -41 -5 -53 -18 -39 -32 36 -23 125 -27
142 -30 115 -1 -14 -2 -37 -2 -52 1 -26 -1 -27 -21 -16 -20 10 -21 10 -8 -5 7
-10 21 -16 30 -15 12 2 17 -7 19 -42 3 -44 3 -44 -17 -26 -12 11 -21 26 -21
34 0 9 -7 23 -16 33 -8 9 -17 34 -18 53 -4 49 -11 53 -28 19 -8 -15 -19 -27
-25 -26 -10 2 -68 -58 -135 -139 l-27 -33 -1 34 c0 30 -2 32 -16 20 -15 -12
-16 -10 -13 22 5 35 4 36 -16 23 -12 -8 -25 -11 -28 -7 -4 3 -7 2 -7 -4 0 -5
-27 -31 -61 -58 -82 -64 -78 -77 31 -89 47 -5 161 -10 253 -10 156 -1 170 0
183 18 8 11 14 32 14 46 0 15 3 30 8 34 4 4 7 11 8 14 0 4 4 15 9 25 4 10 3
29 -3 42 -8 18 -8 25 3 29 15 5 19 -5 30 -66 l6 -38 53 0 53 0 -11 -50 c-12
-61 -2 -75 53 -75 37 0 37 0 19 -19 -11 -12 -15 -27 -12 -43 8 -31 -10 -30
-24 2 -6 14 -18 25 -25 25 -14 0 -117 -167 -156 -252 -28 -63 -28 -118 1 -145
41 -37 95 -48 233 -48 161 1 191 13 288 113 l67 70 0 59 c0 33 -3 62 -6 66 -4
3 -24 -3 -45 -13 -51 -27 -83 -26 -98 3 -11 20 -9 29 8 61 24 43 27 66 7 66
-8 0 -28 11 -44 24 -18 16 -36 23 -49 20 -12 -3 -24 -1 -27 5 -4 6 -2 11 4 11
7 0 10 7 7 15 -4 8 -1 18 6 22 8 5 3 10 -13 14 -20 6 -17 7 16 8 45 1 72 -17
53 -36 -15 -15 -1 -56 16 -49 7 2 16 -2 19 -10 7 -19 26 -18 26 1 0 8 -5 15
-11 15 -5 0 -7 5 -4 11 4 6 13 8 21 5 15 -6 19 9 5 18 -10 7 -6 63 8 135 1 2
7 -2 14 -8 20 -16 29 -2 11 16 -13 14 -13 18 2 40 9 15 14 36 11 52 -8 39 3
80 25 92 18 10 19 8 13 -38 -3 -26 -10 -64 -15 -83 -5 -19 -12 -52 -15 -73 -3
-21 -10 -35 -15 -32 -5 3 -11 1 -15 -5 -3 -5 1 -10 9 -10 20 0 20 -7 1 -60 -9
-26 -13 -57 -9 -82 6 -33 2 -45 -25 -83 -29 -41 -33 -75 -8 -75 5 0 30 11 54
25 38 23 42 29 37 52 -4 16 -3 24 3 20 5 -3 9 14 9 41 -1 46 0 47 32 50 37 4
38 10 16 76 -22 65 -14 179 16 216 11 14 29 39 40 55 11 17 37 44 59 60 l39
30 -5 145 c-13 432 45 835 134 935 31 35 66 55 98 55 35 0 99 41 194 124 72
62 151 106 192 106 52 0 134 -22 156 -42 12 -12 27 -17 34 -13 7 5 10 4 5 -3
-3 -6 3 -13 13 -17 28 -8 101 -103 101 -129 -1 -19 -2 -18 -16 6 -17 32 -102
100 -115 92 -18 -11 -8 -26 51 -82 53 -51 60 -62 60 -95 0 -21 4 -36 9 -33 5
3 10 -48 12 -118 3 -97 8 -128 20 -142 77 -88 63 -199 -42 -324 -85 -101 -265
-284 -370 -377 -49 -43 -89 -81 -89 -85 0 -4 8 -9 18 -12 16 -6 92 -113 92
-132 0 -5 44 -9 98 -9 164 -1 305 -55 406 -158 56 -58 126 -180 126 -222 0
-11 4 -13 13 -8 50 32 190 45 241 22 79 -36 48 -269 -49 -366 -38 -38 -47 -43
-89 -43 -55 0 -156 33 -174 58 -13 16 -16 14 -40 -17 -45 -58 -157 -173 -216
-221 -30 -25 -55 -50 -56 -57 0 -6 30 -28 68 -48 37 -21 84 -52 104 -70 43
-40 98 -51 196 -41 79 8 115 24 120 51 7 38 24 47 71 42 34 -4 51 -12 70 -35
22 -26 37 -33 101 -43 41 -6 102 -14 135 -16 61 -5 196 13 205 28 3 4 23 10
45 13 46 5 77 16 86 28 3 5 17 9 30 10 13 0 37 5 52 11 25 9 27 14 23 46 -5
40 -21 95 -35 126 -17 37 -24 60 -22 72 1 6 -3 14 -9 18 -5 3 -10 19 -10 34 0
15 -7 36 -15 47 -8 10 -15 28 -15 38 0 27 -22 86 -32 86 -4 0 -8 5 -8 11 0 5
5 7 10 4 6 -3 10 -1 10 4 0 6 -5 11 -11 11 -6 0 -9 6 -6 13 2 6 -1 23 -8 37
-7 14 -18 51 -25 83 -7 37 -16 57 -26 57 -15 0 -19 16 -5 24 14 9 0 58 -15 52
-8 -3 -14 1 -14 9 0 8 6 15 13 15 7 0 8 3 2 8 -5 4 -11 33 -11 65 -2 70 -18
95 -22 34 -1 -23 -7 -56 -11 -72 -6 -19 -7 15 -4 95 l6 125 -28 -27 c-39 -39
-47 -35 -25 14 14 32 16 44 7 50 -20 12 -28 -7 -36 -93 l-8 -84 -2 63 c0 34
-4 62 -8 62 -5 0 -7 26 -7 57 1 39 0 45 -3 18 -2 -22 -9 -44 -15 -50 -7 -7 -9
-4 -5 10 3 11 7 52 9 90 3 61 1 70 -14 67 -21 -3 -31 28 -20 59 5 13 7 39 4
58 -4 29 -2 33 12 28 14 -5 16 2 16 53 0 32 -4 62 -10 65 -5 3 -10 -3 -10 -14
0 -12 -5 -21 -11 -21 -5 0 -8 4 -4 10 3 5 -4 19 -15 30 -12 12 -19 28 -16 36
3 7 8 36 12 64 7 52 24 79 24 39 0 -15 3 -20 10 -13 6 6 3 32 -10 74 -11 36
-20 72 -20 80 0 8 -5 22 -10 30 -9 13 -11 13 -21 0 -8 -12 -9 -7 -5 18 4 25 2
32 -10 32 -13 0 -14 3 -5 14 7 8 9 31 5 60 -7 50 -19 51 -28 2 -6 -34 3 -54
15 -35 6 10 9 10 9 2 0 -6 -4 -15 -10 -18 -5 -3 -10 -22 -10 -41 0 -19 -4 -34
-9 -34 -5 0 -15 -16 -21 -35 -13 -40 -6 -62 16 -44 8 7 14 7 14 1 0 -5 -7 -15
-15 -22 -17 -14 -22 -156 -5 -145 15 9 21 -33 17 -132 -2 -51 0 -93 4 -93 13
0 21 -72 9 -84 -8 -8 -10 -7 -5 6 4 9 2 25 -4 35 -8 15 -10 9 -11 -27 0 -50 9
-92 19 -86 3 2 5 -45 3 -105 -2 -60 1 -109 6 -109 5 0 9 -8 9 -17 -1 -62 4
-83 18 -83 8 0 15 -7 15 -15 0 -9 -6 -12 -15 -9 -10 4 -15 0 -15 -11 0 -9 -4
-14 -9 -11 -5 3 -12 -1 -15 -10 -9 -22 -8 -24 9 -24 12 0 15 -14 15 -70 0 -40
4 -70 10 -70 6 0 10 9 10 21 0 11 4 18 9 14 6 -3 9 -21 7 -41 -3 -35 -16 -61
-16 -31 0 9 -5 19 -11 23 -9 5 -11 -11 -7 -58 3 -36 2 -72 -3 -79 -6 -9 -9 -1
-9 24 0 23 -4 36 -10 32 -6 -3 -10 -22 -10 -42 0 -73 -8 -25 -14 86 -7 118
-12 143 -27 120 -7 -12 -9 -11 -10 1 -5 42 -6 69 -8 110 -1 29 -4 40 -10 32
-5 -8 -6 24 -4 75 6 118 8 134 20 163 8 19 7 26 -3 28 -8 2 -14 14 -14 27 0
18 -4 23 -16 18 -13 -5 -14 0 -10 28 3 19 8 110 11 203 4 141 2 177 -12 225
-13 40 -18 92 -18 181 0 76 -4 125 -10 125 -5 0 -10 -12 -9 -28 0 -15 -4 -27
-9 -27 -5 0 -7 31 -5 68 2 56 0 68 -13 68 -11 0 -14 -7 -11 -23 2 -13 -1 -23
-7 -23 -6 0 -11 5 -11 10 0 6 -4 10 -10 10 -5 0 -10 -7 -10 -15 0 -8 -4 -15
-10 -15 -5 0 -11 -15 -11 -32 l-1 -33 -8 30 -8 30 -1 -37 c0 -20 4 -40 9 -43
6 -4 8 -11 5 -16 -9 -13 -23 -11 -22 4 1 48 -4 97 -12 97 -5 0 -9 -46 -9 -102
0 -57 -2 -131 -4 -165 l-3 -63 -51 0 c-27 0 -54 -3 -60 -7 -5 -5 2 2 16 15 14
13 35 27 47 32 16 7 22 17 21 33 -2 22 -5 24 -30 15 -15 -6 -28 -14 -28 -19 0
-5 -6 -9 -14 -9 -8 0 -17 -6 -20 -12 -5 -10 -7 -10 -12 0 -3 6 -10 12 -15 12
-6 0 -7 -4 -4 -10 3 -5 1 -10 -4 -10 -16 0 -14 8 10 47 19 30 20 38 9 59 -15
27 -30 32 -30 10 0 -20 -17 -29 -26 -15 -4 8 -3 9 4 5 8 -5 9 8 5 41 -6 56
-13 69 -13 27 0 -16 -7 -38 -15 -48 -12 -15 -12 -22 -3 -27 17 -11 5 -21 -16
-13 -15 6 -15 9 -1 30 19 29 19 65 0 90 -18 24 -19 48 -1 63 8 7 13 24 11 39
-4 39 -6 40 -14 12 -4 -14 -14 -24 -21 -22 -8 2 -10 -3 -7 -13 4 -8 2 -15 -3
-15 -16 0 -11 40 5 46 8 4 12 10 9 16 -3 5 -13 7 -21 4 -8 -3 -11 -1 -8 4 3 6
15 10 26 10 20 0 26 15 9 25 -6 4 -8 10 -6 14 3 4 -1 50 -7 103 -7 53 -10 95
-6 92 4 -2 5 20 2 48 -2 29 -5 68 -6 86 -1 17 -5 32 -9 32 -5 0 -8 16 -8 36 0
21 4 33 10 29 6 -3 10 -1 10 4 0 6 -6 11 -14 11 -9 0 -15 18 -19 52 -4 29 -11
54 -17 56 -12 4 -14 42 -2 42 4 0 7 27 6 60 0 33 -5 60 -10 59 -5 0 -8 -6 -6
-14 3 -17 -14 -29 -23 -15 -3 5 -2 10 4 10 6 0 8 6 5 14 -8 20 25 54 73 77 54
24 71 24 100 -3 26 -24 33 -6 7 20 -19 18 -89 24 -118 9 -13 -6 -21 -5 -26 3
-12 20 -40 4 -35 -20 4 -22 -10 -28 -18 -7 -3 6 -6 2 -6 -10 -1 -27 -21 -41
-22 -16 -1 10 0 55 1 99 1 50 -3 84 -9 89 -7 4 -9 26 -5 62 5 37 3 57 -5 62
-6 4 -13 25 -16 47 -5 48 -23 107 -24 80 -1 -16 -3 -16 -17 -5 -14 12 -54 81
-54 94 0 3 5 3 11 -1 8 -4 8 -1 1 12 -5 11 -10 40 -9 65 0 25 -3 51 -7 57 -13
21 5 35 20 15 12 -17 13 -17 14 0 0 9 7 17 16 17 10 0 14 -6 11 -14 -4 -10 -1
-13 8 -10 12 5 29 40 26 57 -1 5 3 6 9 2 14 -8 25 22 13 38 -16 21 -15 73 1
86 8 7 12 19 9 27 -7 19 -23 8 -23 -17 0 -10 -4 -19 -10 -19 -5 0 -10 -7 -10
-16 0 -14 -3 -14 -15 -4 -9 8 -15 9 -15 2 0 -6 4 -13 9 -16 10 -7 2 -56 -9
-56 -5 0 -11 6 -14 13 -3 6 -3 2 -1 -9 5 -20 -16 -54 -32 -54 -4 0 -3 3 0 6 3
4 0 16 -8 27 -12 18 -12 22 2 32 19 14 9 55 -13 55 -12 0 -14 10 -10 48 2 26
6 57 9 70 6 23 -7 31 -17 10 -3 -7 -3 3 0 22 4 19 13 43 22 53 13 15 14 20 3
26 -7 5 -13 22 -13 37 0 16 -4 34 -9 39 -4 6 -9 29 -10 50 -1 22 -6 45 -11 52
-5 6 -8 24 -7 40 1 15 1 46 0 68 -1 30 -4 36 -11 25 -8 -12 -10 -9 -10 13 0
15 5 27 10 27 6 0 10 9 10 21 0 11 -4 17 -10 14 -5 -3 -10 1 -10 10 0 9 -5 13
-10 10 -6 -4 -7 -12 -4 -18 4 -7 1 -7 -7 1 -12 11 -11 16 6 29 19 15 19 15 -4
8 -13 -4 -21 -3 -18 2 3 4 -6 13 -19 20 -20 9 -24 8 -24 -4 0 -17 18 -52 36
-71 14 -13 27 -57 39 -122 5 -30 0 -44 -33 -95 -58 -89 -93 -119 -130 -110
-45 9 -112 73 -157 150 -22 37 -87 160 -145 273 -58 113 -112 208 -120 213
-25 13 -334 109 -351 109 -24 0 -139 41 -139 50 0 13 24 18 56 13 27 -5 28 -4
10 9 -15 12 -16 16 -4 20 20 8 110 -13 127 -30 16 -15 127 -13 124 3 -1 6 -32
25 -68 44 -45 23 -65 39 -63 50 4 19 42 17 75 -5 13 -8 51 -22 85 -30 84 -22
130 -46 162 -86 14 -18 34 -42 44 -53 10 -12 41 -54 69 -95 44 -64 161 -206
233 -282 12 -13 29 -33 38 -46 15 -23 16 -22 48 60 19 46 34 84 34 86 0 1 5 2
10 2 6 0 10 -7 10 -16 0 -8 4 -13 10 -9 6 3 5 15 -2 30 -14 30 6 110 24 99 7
-4 8 -3 4 5 -4 6 3 24 16 40 13 15 34 64 46 109 13 45 35 101 49 124 35 56
114 109 171 116 30 3 40 8 33 15 -6 6 -11 19 -11 28 0 21 -16 33 -32 23 -7 -5
-5 -11 7 -21 11 -7 16 -14 12 -14 -4 -1 -12 -2 -17 -3 -6 0 -15 -8 -20 -16 -7
-11 -10 -3 -11 30 -3 63 -3 62 -22 90 -9 13 -17 30 -17 37 0 23 -63 105 -102
133 -22 16 -56 34 -76 41 -100 32 -228 109 -244 147 -4 9 -7 34 -7 54 -1 20
-6 40 -11 43 -6 4 -8 10 -5 14 2 5 1 22 -4 38 -9 32 1 64 13 44 4 -6 12 -11
17 -11 6 0 8 4 5 9 -3 5 1 14 10 21 12 11 12 15 2 21 -10 7 -10 9 0 9 14 0 17
46 3 55 -5 3 -13 -4 -16 -16 -7 -22 -25 -47 -61 -84 l-20 -22 -84 20 c-65 16
-87 18 -101 9 -30 -19 -39 -15 -110 48 -37 33 -70 60 -74 60 -4 0 -5 -17 -2
-39 4 -35 2 -38 -19 -38 -13 0 -24 3 -24 8 0 5 -7 6 -15 3 -21 -8 -19 7 10 78
14 34 25 78 25 98 0 33 -3 38 -29 43 -32 7 -62 60 -44 78 8 8 13 7 18 -1 4 -7
1 -16 -6 -21 -14 -9 -14 -9 33 -13 6 -1 13 10 15 24 5 34 21 49 33 30 8 -13
10 -13 10 1 0 24 49 112 71 127 11 8 27 22 37 31 41 43 70 54 123 47 28 -4 64
-17 80 -28 28 -21 29 -21 49 -3 18 16 19 21 7 30 -8 5 -22 25 -31 43 -10 19
-20 32 -23 29 -2 -3 0 -15 7 -26 19 -37 -7 -22 -30 17 -64 107 -85 152 -72
152 5 0 16 -15 25 -32 l16 -33 0 41 c1 43 -6 48 -47 33z m-472 -1039 c7 -28
10 -56 7 -64 -11 -27 7 -26 30 1 20 23 22 24 13 6 -7 -16 -7 -23 0 -23 5 0 10
5 10 11 0 5 4 7 10 4 6 -3 7 1 4 10 -5 11 -2 14 10 9 22 -8 20 -27 -4 -42 -11
-6 -17 -18 -14 -26 3 -9 -1 -13 -13 -12 -27 2 -32 -18 -5 -22 19 -3 21 -6 11
-18 -9 -11 -8 -14 4 -14 13 0 45 -38 35 -41 -29 -8 -52 -2 -68 19 l-19 24 4
-36 c3 -21 1 -36 -5 -36 -6 0 -8 -10 -5 -23 4 -14 1 -28 -8 -35 -12 -10 -17
-6 -31 28 -9 22 -16 52 -16 67 0 26 0 26 -22 7 -21 -19 -21 -19 -15 6 l6 25
-20 -27 c-13 -18 -25 -24 -39 -21 -24 6 -25 13 -6 38 8 11 19 16 30 12 19 -7
22 9 4 16 -10 4 -10 7 -1 14 10 7 10 13 -2 29 -19 25 -19 32 3 37 13 4 12 5
-5 6 -12 1 -24 10 -28 22 -6 17 -9 18 -23 7 -13 -11 -15 -10 -10 9 3 12 3 22
-1 21 -19 -2 -41 3 -41 10 0 4 16 8 35 8 19 0 35 -3 35 -8 0 -10 60 -41 60
-31 1 5 10 -3 20 -16 l20 -23 0 31 c0 18 4 30 9 27 12 -8 21 18 14 43 -3 12
-1 21 5 21 5 0 15 -23 22 -50z m-349 -235 c10 -4 19 -11 19 -16 0 -6 13 -22
30 -37 17 -16 31 -40 32 -55 1 -15 10 -29 19 -32 20 -7 34 -36 21 -44 -13 -9
-9 -51 5 -51 18 0 21 -45 3 -63 -4 -5 -5 4 -2 18 4 24 2 26 -16 21 -17 -6 -20
-3 -18 18 2 17 -1 23 -10 19 -8 -3 -14 0 -14 6 0 6 5 11 10 11 6 0 10 14 10
30 0 30 0 30 -25 14 -17 -11 -25 -12 -25 -5 0 7 -5 9 -11 6 -5 -4 -19 1 -29
10 -10 9 -24 14 -31 10 -8 -6 -9 -3 -1 10 10 20 0 37 -28 47 -9 3 1 9 22 13
20 4 43 3 50 -1 10 -6 10 -4 -1 9 -15 19 -42 22 -58 6 -8 -8 -16 -8 -30 0 -17
10 -17 10 3 11 12 0 27 7 34 15 10 12 7 15 -14 21 -33 8 -33 18 2 30 20 7 28
7 30 -3 2 -6 12 -15 23 -18z m23 -596 c-3 -5 0 -9 7 -9 6 0 9 -8 6 -20 -3 -11
-1 -23 5 -26 5 -3 7 -23 3 -46 -6 -32 -4 -39 6 -33 7 5 5 -2 -4 -16 -9 -13
-17 -37 -17 -54 0 -34 -15 -55 -40 -55 -9 0 -40 30 -69 67 -45 56 -51 67 -37
75 9 5 16 16 16 23 0 8 4 15 10 15 12 0 80 59 80 70 0 5 5 21 11 37 l11 28 9
-23 c5 -13 7 -28 3 -33z m76 -326 c0 -13 -79 -85 -87 -80 -4 3 -9 -5 -9 -16
-1 -12 -7 -40 -13 -62 -6 -22 -11 -54 -11 -71 0 -31 -1 -32 -37 -26 -21 4 -67
6 -101 7 -54 0 -66 -3 -82 -22 -10 -13 -24 -23 -31 -23 -6 0 -18 -8 -25 -17
-13 -17 -13 -17 -14 2 0 25 53 62 100 71 19 4 41 11 48 17 7 5 32 7 56 4 36
-5 47 -3 62 14 13 15 15 22 6 31 -17 17 -15 68 3 74 8 4 15 12 15 20 0 7 6 17
13 21 6 4 17 17 23 28 7 11 19 19 28 19 9 -1 16 2 16 7 0 5 9 9 20 9 11 0 20
-3 20 -7z m-1120 -56 c14 -8 24 -19 22 -26 -1 -7 2 -10 7 -7 14 9 61 -52 63
-82 2 -46 -3 -74 -15 -87 -9 -9 -12 0 -12 41 0 29 4 50 8 47 5 -3 1 9 -8 27
-14 28 -20 31 -48 26 -25 -5 -27 -4 -12 3 15 7 16 10 4 10 -8 1 -24 8 -35 17
-18 14 -18 15 6 8 14 -3 21 -3 17 2 -11 11 -68 14 -61 3 3 -6 -6 -19 -21 -31
-57 -44 -66 -117 -21 -166 26 -29 76 -57 96 -54 8 1 4 -4 -9 -12 -30 -17 -85
-4 -119 27 -33 30 -62 91 -64 130 -1 39 30 93 69 118 33 22 97 25 133 6z m24
-108 c41 -32 34 -89 -15 -114 -39 -21 -65 -19 -89 7 -64 69 29 166 104 107z
m2088 -730 c1 -19 0 -69 -2 -112 -3 -63 -8 -80 -22 -88 -13 -7 -18 -21 -18
-49 0 -29 -4 -40 -15 -40 -13 0 -15 -9 -9 -50 5 -37 3 -50 -6 -50 -7 0 -10 -8
-7 -20 6 -21 -9 -28 -16 -7 -2 6 -7 -17 -11 -52 -7 -65 -16 -74 -21 -24 -2 15
-7 42 -11 58 -13 50 -9 97 10 110 17 13 14 59 -5 71 -5 3 -9 10 -9 16 0 7 4 7
13 -1 16 -13 37 4 37 30 0 9 7 23 16 30 12 10 15 24 10 57 -6 47 6 82 29 82 8
0 15 7 15 15 0 8 -4 15 -9 15 -5 0 -4 13 2 30 14 36 28 26 29 -21z m-171 -428
c14 -13 27 -106 19 -121 -8 -12 -9 -11 -10 6 0 20 -17 44 -32 44 -4 0 -8 -11
-8 -25 0 -14 4 -25 9 -25 5 0 11 -7 15 -15 5 -13 2 -14 -15 -5 -16 9 -25 6
-50 -14 -30 -26 -56 -35 -44 -16 3 6 1 10 -4 10 -6 0 -11 -6 -11 -13 0 -16
-47 -67 -62 -67 -6 0 -3 9 7 20 18 20 15 50 -6 50 -6 0 -13 -9 -16 -19 -3 -11
-12 -22 -20 -25 -15 -6 -15 6 1 44 4 9 -1 20 -13 27 -17 10 -18 9 -14 -10 3
-15 2 -18 -4 -10 -7 10 -14 9 -33 -4 -13 -9 -32 -18 -42 -18 -10 -1 -31 -14
-46 -28 -16 -15 -31 -27 -35 -27 -15 0 -6 29 18 54 14 15 25 33 25 40 0 18 46
59 70 63 13 2 20 -3 20 -15 1 -15 3 -14 18 4 27 32 52 27 52 -10 l1 -31 24 39
c20 33 25 37 31 22 4 -9 2 -28 -4 -41 -7 -14 -7 -27 -2 -30 5 -3 12 10 16 30
3 20 12 35 20 35 8 0 14 7 14 16 0 10 6 14 14 11 8 -3 17 1 20 10 4 8 13 13
20 10 31 -12 27 33 -4 46 -8 4 1 4 20 1 19 -3 38 -9 41 -13z m-889 -348 c17
-15 18 -37 18 -275 0 -270 -5 -304 -40 -293 -13 4 -22 -1 -31 -17 -7 -13 -13
-24 -13 -24 -1 -1 8 -12 19 -25 11 -12 14 -19 6 -14 -10 6 -12 1 -7 -22 4 -17
1 -43 -9 -66 -23 -55 -20 -161 7 -208 17 -31 19 -41 8 -53 -10 -13 -9 -23 6
-53 12 -27 19 -70 22 -149 l4 -110 -37 -45 c-21 -24 -40 -45 -44 -47 -3 -1
-15 14 -25 33 -10 19 -23 32 -28 29 -5 -3 -7 -2 -6 3 5 18 -13 94 -21 88 -5
-3 -7 3 -4 14 3 10 -1 22 -8 26 -8 6 -10 4 -4 -5 5 -9 4 -11 -4 -6 -6 4 -10
15 -7 24 3 10 -1 62 -9 117 -32 215 -47 380 -36 397 14 23 6 243 -11 293 -17
49 -16 308 1 329 6 7 8 16 4 20 -4 4 1 4 11 0 11 -4 17 -3 14 2 -3 5 15 9 41
10 28 1 60 9 81 22 42 26 77 28 102 5z m1888 -888 c-9 -11 -9 -22 -1 -46 14
-40 14 -39 -4 -33 -13 5 -15 -7 -15 -78 0 -47 7 -107 15 -134 16 -53 20 -93 5
-59 -7 17 -9 16 -10 -10 -2 -16 -2 -36 -1 -42 1 -7 -3 -13 -9 -13 -5 0 -10 -4
-10 -10 0 -5 6 -7 14 -4 9 3 17 -3 21 -16 7 -23 -4 -44 -12 -22 -3 6 -8 12
-11 12 -6 0 -9 -66 -12 -287 0 -12 -7 -28 -15 -37 -22 -21 -18 -44 8 -49 20
-3 21 -4 3 -12 -21 -9 -53 6 -49 24 2 6 -5 11 -15 12 -10 0 -12 3 -4 6 6 2 12
11 12 19 0 8 5 13 11 12 6 -2 12 15 13 40 1 23 -1 42 -6 42 -9 0 -11 -14 -9
-42 1 -10 -4 -18 -13 -18 -12 0 -15 11 -13 53 1 28 6 55 12 59 6 5 5 8 -2 8
-7 0 -13 12 -13 26 0 14 4 23 10 19 6 -3 10 0 10 9 0 8 -5 16 -12 18 -12 4
-13 22 -16 168 -2 101 -21 107 -23 8 -1 -40 -4 -61 -6 -45 -2 15 -8 27 -13 27
-5 0 -4 13 1 29 6 16 8 44 5 61 -3 22 0 33 11 37 13 5 13 7 -1 15 -9 5 -13 14
-9 21 21 34 -4 87 -42 87 -29 0 -15 16 17 18 39 3 42 6 34 29 -7 17 -8 17 -17
0 -10 -17 -12 -17 -30 4 -24 28 -24 28 5 25 19 -2 28 4 37 25 12 31 24 37 32
17 3 -8 6 -6 6 5 1 14 10 17 51 17 28 0 50 5 50 10 0 6 5 10 11 10 8 0 8 -4
-1 -15z m-1762 -869 c44 -1 66 -18 57 -46 -3 -8 4 -4 15 10 11 14 20 20 20 13
0 -6 -5 -15 -11 -18 -5 -4 -9 -17 -8 -28 3 -31 -28 -97 -45 -97 -22 0 -70 20
-63 26 3 3 15 1 26 -6 18 -9 25 -7 46 14 14 14 25 33 25 43 -1 17 -1 17 -11 1
-12 -22 -39 -24 -39 -3 0 22 -16 18 -43 -9 -25 -25 -40 -25 -30 0 3 9 0 12 -8
9 -15 -5 -42 27 -54 64 -6 19 -4 23 8 18 9 -3 21 1 28 9 7 9 19 12 28 8 9 -4
35 -7 59 -8z"/>
<path d="M780 6547 c0 -9 41 -82 45 -79 11 5 25 1 25 -8 0 -5 -7 -10 -16 -10
-28 0 -8 -25 22 -28 72 -6 97 -15 141 -54 67 -56 190 -196 214 -240 19 -38 44
-53 32 -20 -16 43 -63 103 -156 200 -101 104 -246 222 -273 222 -8 0 -14 5
-14 10 0 6 -4 10 -10 10 -5 0 -10 -1 -10 -3z"/>
<path d="M3530 6493 c0 -21 17 -57 40 -81 12 -12 28 -38 36 -57 l14 -34 -45
30 c-43 29 -50 41 -46 82 3 21 -7 22 -30 1 -16 -14 -19 -13 -38 7 -29 31 -29
2 0 -35 17 -21 18 -26 5 -26 -19 0 -21 -11 -5 -27 8 -8 8 -13 0 -17 -18 -11
-12 -26 10 -26 11 0 18 4 14 9 -11 18 36 23 60 7 21 -14 24 -22 19 -54 -3 -20
-7 -73 -8 -117 -2 -47 -10 -95 -19 -117 -12 -27 -14 -39 -5 -44 16 -10 51 38
67 93 8 27 21 56 30 67 21 23 30 246 11 246 -8 0 -10 9 -6 25 4 14 2 25 -4 25
-5 0 -10 8 -10 17 0 25 -17 3 -22 -27 -3 -20 -6 -17 -15 20 -10 40 -12 42 -19
21 l-7 -23 -13 23 c-7 13 -13 19 -14 12z"/>
<path d="M5235 6196 c-11 -5 -32 -18 -47 -28 -31 -21 -37 -14 -11 14 9 10 12
18 6 18 -22 0 -148 -128 -191 -194 -25 -39 -52 -77 -60 -83 -26 -21 -37 -100
-34 -239 2 -82 5 -94 27 -118 14 -15 25 -34 25 -43 0 -8 36 -50 80 -92 76 -73
93 -102 70 -116 -6 -3 3 -19 19 -37 23 -25 27 -36 21 -57 -7 -27 -11 -28 -45
-15 -17 6 -16 3 5 -17 l25 -24 28 28 c15 16 27 39 27 50 0 19 2 19 14 7 7 -8
16 -28 20 -45 4 -16 3 -25 -1 -18 -10 15 -33 -51 -23 -67 4 -6 20 -12 37 -13
29 -2 30 -3 25 -46 -3 -29 -1 -46 8 -51 8 -5 16 -43 21 -102 4 -51 11 -125 15
-164 6 -67 5 -73 -15 -83 -14 -8 -21 -8 -21 -1 0 5 -4 10 -10 10 -5 0 -10 -19
-10 -42 0 -32 -3 -39 -10 -28 -17 26 -11 113 10 155 24 46 16 77 -32 133 -31
37 -35 52 -13 52 25 0 18 13 -35 67 -31 32 -48 57 -44 66 4 12 10 12 30 3 13
-6 24 -15 24 -19 0 -5 -5 -5 -12 -1 -7 4 -8 3 -4 -4 6 -10 36 -6 36 4 0 2 -23
25 -51 51 -55 51 -82 94 -74 115 3 8 -6 25 -20 38 -32 30 -32 36 6 44 30 6 31
7 17 28 -9 13 -24 25 -34 26 -11 2 -31 15 -45 28 -14 13 -28 22 -32 18 -3 -3
-3 3 -1 13 3 11 -3 26 -14 37 -20 17 -20 17 -7 -21 7 -21 22 -42 33 -48 44
-20 48 -71 8 -104 -9 -8 -13 -17 -10 -22 3 -5 -2 -9 -10 -9 -24 0 -19 -17 7
-24 18 -5 20 -8 7 -16 -13 -8 -12 -10 4 -10 31 0 9 -13 -29 -17 -26 -3 -35 0
-35 12 0 22 -31 18 -37 -5 -3 -11 -12 -20 -19 -20 -8 0 -14 -10 -14 -26 0 -15
-4 -23 -10 -19 -6 4 -8 15 -5 26 5 14 2 19 -13 19 -15 0 -19 -6 -16 -27 3 -26
3 -27 -4 -4 -8 25 -32 41 -32 22 0 -6 -5 -10 -11 -8 -6 1 -25 -30 -43 -69 -17
-39 -36 -77 -42 -85 -21 -26 -25 -74 -9 -118 8 -24 13 -46 10 -50 -5 -9 11
-135 24 -181 6 -19 22 -84 37 -145 14 -60 35 -138 46 -173 17 -55 21 -61 33
-48 8 8 15 23 15 33 0 15 -2 16 -10 3 -13 -19 -13 1 -1 33 6 14 20 26 34 29
24 5 25 4 19 -56 -10 -120 -5 -190 18 -256 12 -36 29 -72 36 -81 8 -8 14 -20
14 -26 0 -6 19 -44 41 -84 23 -41 48 -87 56 -104 7 -16 17 -37 22 -45 19 -32
71 -148 71 -159 0 -6 6 -11 14 -11 8 0 17 -12 20 -26 4 -15 34 -69 67 -122 32
-52 59 -96 59 -99 0 -2 13 -21 28 -41 16 -20 71 -93 122 -161 96 -128 132
-173 163 -200 9 -8 17 -19 17 -24 0 -8 60 -81 128 -157 12 -14 46 -53 75 -87
28 -34 58 -62 64 -62 7 -1 12 -5 10 -10 -3 -10 161 -191 174 -191 5 0 5 10 0
23 -5 13 -12 50 -16 83 -4 32 -16 92 -26 133 -21 82 -24 132 -4 61 7 -27 14
-39 18 -30 11 29 36 166 48 264 13 105 7 366 -12 486 -5 36 -12 90 -16 120 -3
30 -13 63 -21 73 -10 12 -17 42 -19 85 -4 72 -33 213 -43 207 -4 -2 -4 9 -2
25 3 19 -2 34 -16 48 -21 21 -55 110 -46 123 3 5 0 9 -6 9 -7 0 -9 8 -5 20 3
11 2 20 -3 20 -5 0 -19 35 -31 77 -20 68 -21 77 -7 85 9 5 16 20 16 33 0 13 4
25 10 27 5 2 12 28 16 59 5 45 3 58 -11 73 -14 14 -15 20 -5 26 7 4 9 13 6 19
-4 6 -11 9 -16 6 -4 -3 -6 13 -4 35 3 25 1 40 -6 40 -6 0 -21 22 -34 50 -13
27 -27 46 -32 42 -5 -4 0 3 10 16 18 21 13 28 -17 23 -5 -1 -5 4 -1 10 3 6 0
15 -7 20 -21 13 -32 11 -25 -7 3 -9 2 -12 -5 -9 -6 4 -8 13 -5 21 3 8 1 14 -4
14 -6 0 -10 7 -10 16 0 8 5 12 10 9 6 -3 10 -2 10 4 0 5 -5 13 -10 16 -6 4
-20 25 -32 48 l-21 42 -15 -48 c-14 -44 -14 -52 7 -121 24 -80 19 -133 -16
-200 l-17 -31 -12 95 c-7 52 -11 140 -10 194 l3 99 -33 34 c-45 45 -47 87 -2
46 10 -9 20 -14 23 -11 3 3 -20 30 -51 60 l-56 55 44 1 c23 1 45 7 46 12 3 7
10 7 20 -2 15 -10 15 -10 0 7 -14 15 -20 16 -33 5 -13 -11 -20 -7 -50 26 -54
59 -44 86 15 42 26 -19 32 -20 43 -8 6 8 8 11 3 7 -13 -10 -46 22 -46 45 0 19
16 25 22 7 2 -5 11 -7 20 -4 16 7 16 8 0 31 -21 29 -42 31 -42 4 0 -16 -26
-40 -44 -40 -3 0 -12 11 -21 24 -17 25 -11 56 11 56 8 0 14 5 14 10 0 6 -5 10
-11 10 -12 0 -1 42 14 51 5 4 7 14 4 23 -4 9 1 21 11 28 10 7 24 28 32 46 21
54 -3 57 -53 7 -47 -48 -103 -75 -152 -75 -29 0 -149 57 -165 78 -3 4 -22 20
-42 35 -24 18 -47 49 -65 87 -18 41 -33 60 -45 60 -25 0 -58 36 -57 63 l0 22
9 -21 c5 -12 13 -24 18 -28 14 -9 48 45 62 101 16 61 48 103 79 103 21 0 21
-1 6 -29 -8 -17 -12 -38 -8 -48 11 -31 59 -71 94 -78 27 -6 36 -4 51 15 10 12
18 30 18 39 0 11 6 7 19 -12 l18 -29 5 31 c2 16 1 28 -4 25 -11 -7 -10 3 3 27
7 13 17 18 28 14 22 -7 46 19 37 41 -5 13 0 15 34 10 36 -5 41 -3 55 24 20 39
19 43 -7 26 -14 -8 -31 -11 -43 -7 -19 8 -19 8 0 19 11 6 17 13 13 17 -3 4
-19 -1 -35 -11 -27 -17 -27 -17 -11 1 23 25 3 46 -31 33 -19 -7 -22 -6 -14 4
27 34 -6 86 -46 73 -10 -3 -24 1 -31 10 -7 8 -17 12 -22 9 -22 -14 14 35 39
54 34 25 26 37 -13 22 -22 -9 -31 -8 -39 3 -8 11 -15 12 -30 3z m154 -1111
c11 -24 34 -62 51 -84 18 -22 29 -44 25 -50 -11 -19 -14 -52 -4 -46 5 4 7 10
5 14 -3 4 -1 13 4 21 7 11 11 12 25 0 9 -7 13 -20 10 -29 -4 -9 -15 -58 -25
-110 -11 -51 -21 -96 -24 -98 -6 -6 -86 155 -86 173 0 7 -5 14 -12 16 -6 2 -8
10 -4 17 6 9 11 9 24 -1 9 -7 13 -8 10 -3 -15 28 -19 57 -21 137 -1 48 -1 88
0 88 1 0 11 -20 22 -45z m397 -832 c10 -29 10 -44 -1 -77 -7 -23 -23 -95 -35
-160 -12 -66 -28 -136 -36 -155 l-15 -35 -21 34 c-37 60 -78 154 -78 177 0 12
8 27 18 32 11 6 22 32 31 73 22 105 24 109 66 126 22 9 42 20 44 24 5 14 13 2
27 -39z m-619 -165 c22 -15 31 -29 27 -40 -2 -9 1 -20 7 -24 9 -5 10 -2 6 10
-14 35 44 -8 159 -117 l82 -78 35 63 c19 35 45 86 58 115 23 51 39 60 39 22 0
-30 -59 -151 -70 -144 -6 4 -10 -3 -10 -14 0 -12 -6 -20 -12 -19 -7 2 -12 -5
-12 -14 1 -10 -4 -18 -12 -18 -7 0 -11 -6 -8 -14 3 -8 1 -17 -4 -20 -12 -7
-178 161 -174 176 2 6 -3 15 -10 19 -22 14 -31 10 -17 -7 8 -10 -18 4 -56 30
-52 35 -70 53 -72 71 -2 31 2 31 44 3z"/>
<path d="M5463 6176 c1 -6 -21 -13 -53 -17 -52 -5 -53 -6 -23 -13 18 -5 30
-13 27 -18 -4 -5 2 -9 12 -8 53 6 93 0 88 -14 -4 -9 6 -16 31 -20 20 -4 33
-11 29 -17 -3 -6 4 -13 15 -16 12 -3 21 -13 20 -22 -2 -23 12 -81 22 -87 5 -3
9 -16 9 -29 0 -17 -5 -24 -17 -23 -59 5 -113 -3 -113 -16 0 -11 14 -14 62 -13
55 2 63 0 66 -18 2 -11 0 -16 -5 -10 -4 6 -28 10 -53 10 -39 0 -47 -4 -67 -34
-25 -37 -30 -76 -11 -87 8 -5 9 -2 5 9 -5 14 -2 15 19 6 34 -12 45 -4 34 27
-7 19 -6 26 5 30 18 7 64 -26 65 -48 0 -41 30 -22 30 19 0 8 6 29 14 46 22 53
38 150 25 158 -7 4 -8 12 -5 18 5 8 0 8 -21 0 -34 -13 -54 9 -49 52 2 16 -1
29 -5 29 -5 0 -9 12 -9 27 0 27 1 26 40 -17 22 -24 43 -41 46 -37 4 4 2 7 -5
7 -7 0 -10 4 -6 9 3 5 -11 38 -31 72 -30 51 -39 60 -48 48 -11 -15 -47 -18
-76 -7 -31 13 -69 15 -67 4z"/>
<path d="M4245 5820 l-20 -9 20 -1 c19 -1 19 -1 1 -11 -13 -8 -20 -8 -26 0 -8
14 -53 6 -86 -15 -20 -12 -21 -16 -10 -48 16 -46 23 -52 31 -27 7 24 35 29 35
6 0 -20 16 -19 65 4 44 20 59 35 70 70 11 37 -30 53 -80 31z"/>
<path d="M3810 5768 c0 -5 4 -8 8 -8 15 0 11 -38 -5 -44 -12 -5 -10 -11 13
-28 19 -15 29 -18 32 -10 7 21 42 14 42 -8 0 -17 -5 -19 -25 -14 -20 5 -25 2
-25 -11 0 -15 7 -17 43 -12 24 3 56 11 70 16 l28 11 -21 40 c-11 22 -34 47
-52 56 -33 17 -108 25 -108 12z"/>
<path d="M4800 2975 c-7 -33 -15 -64 -18 -69 -3 -5 0 -6 6 -2 6 3 16 -3 22
-14 6 -11 18 -20 28 -21 10 0 12 -3 5 -6 -20 -8 -15 -23 7 -23 25 0 25 -8 3
-27 -10 -8 -12 -12 -5 -8 6 3 12 1 12 -4 0 -6 -6 -11 -12 -11 -10 0 -9 -3 1
-9 11 -7 11 -13 1 -32 -12 -23 -12 -23 6 -7 18 16 19 15 19 -12 0 -15 -3 -26
-7 -23 -5 2 -8 -3 -8 -11 0 -9 9 -16 20 -16 11 0 20 -7 20 -15 0 -7 8 -19 18
-24 9 -6 13 -11 8 -11 -5 0 -1 -9 9 -20 16 -17 16 -20 2 -20 -9 0 -19 9 -22
20 -3 11 -10 20 -15 20 -4 0 -10 10 -13 22 -4 12 -9 19 -13 15 -3 -3 -3 -14 1
-24 5 -10 9 -20 10 -23 9 -29 31 -60 43 -60 7 0 22 -10 33 -22 20 -25 25 -43
9 -33 -5 3 -10 1 -10 -5 0 -6 -4 -8 -10 -5 -13 8 -13 -20 -1 -43 9 -16 23 -54
22 -59 -1 -4 33 -82 62 -144 14 -30 34 -83 45 -119 39 -124 77 -215 92 -215
15 0 80 -124 80 -151 0 -9 3 -13 8 -11 4 3 8 -11 9 -31 2 -36 2 -36 -13 -17
-16 20 -16 19 -10 -5 3 -14 6 -29 6 -34 0 -5 6 -3 14 3 11 10 16 8 21 -8 3
-12 3 -25 0 -31 -3 -5 -1 -10 6 -10 6 0 18 -8 25 -17 9 -12 13 -14 14 -5 0 9
7 11 20 7 14 -5 20 -2 20 10 0 10 7 15 17 13 21 -4 29 -28 9 -28 -9 0 -30 -9
-48 -20 -20 -12 -27 -20 -16 -20 9 0 18 -3 21 -7 2 -5 2 -2 0 5 -1 7 2 10 8 6
6 -3 21 -1 34 6 25 13 69 0 46 -14 -6 -4 -11 -2 -11 4 0 6 -4 8 -10 5 -17 -10
-11 -21 12 -22 12 -1 26 3 30 10 5 8 8 7 8 -5 0 -9 -5 -20 -10 -23 -6 -4 -8
-16 -4 -28 6 -19 5 -20 -9 -9 -9 8 -13 20 -10 28 6 17 -8 19 -24 3 -7 -7 -17
-8 -29 -1 -16 8 -19 6 -21 -16 -1 -18 1 -21 8 -11 7 11 9 11 9 -3 0 -23 -16
-32 -24 -13 -3 8 -16 14 -28 14 -13 -1 -16 -3 -8 -6 14 -4 60 -87 60 -109 0
-6 11 -28 25 -49 25 -36 27 -61 3 -37 -7 7 -17 12 -22 12 -6 0 3 -13 19 -29
17 -16 38 -40 47 -54 25 -36 126 -83 149 -69 26 17 93 27 85 13 -5 -8 11 -11
58 -9 84 2 97 10 70 40 -11 13 -35 46 -54 73 -18 28 -35 52 -37 54 -2 2 -21
-10 -42 -27 -50 -40 -64 -41 -26 -2 16 17 35 30 42 30 21 0 15 27 -12 48 -14
11 -25 26 -25 33 0 7 -8 21 -17 32 -14 15 -15 21 -5 24 8 3 4 12 -13 25 -15
11 -24 27 -21 34 3 8 -1 14 -8 14 -8 0 -16 7 -20 15 -5 15 5 19 33 15 8 -1 12
4 8 14 -3 8 -3 17 1 19 4 2 2 2 -5 1 -7 -2 -20 4 -29 13 -13 13 -20 14 -35 5
-16 -10 -19 -9 -19 4 0 8 -5 12 -10 9 -7 -4 -8 3 -4 22 4 15 3 25 -1 20 -15
-13 -43 22 -37 46 5 20 4 21 -13 7 -17 -14 -18 -13 -13 2 4 10 1 19 -8 22 -8
3 -14 12 -14 21 0 8 -5 15 -11 15 -6 0 -9 7 -5 15 3 8 1 15 -4 15 -6 0 -10 -4
-10 -10 0 -5 -5 -10 -11 -10 -6 0 -8 9 -4 20 4 12 2 27 -4 33 -5 7 -33 58 -62
112 -57 111 -68 127 -79 120 -11 -7 -40 5 -40 17 0 5 9 6 20 3 24 -7 26 7 5
25 -8 7 -15 18 -15 26 0 7 -4 15 -8 18 -5 3 -8 -9 -7 -27 1 -18 0 -38 -3 -44
-8 -23 -18 -5 -21 38 -1 24 -7 49 -13 56 -16 19 -1 28 19 12 9 -8 14 -9 11 -4
-10 20 -117 242 -151 315 -19 41 -48 104 -65 140 -58 125 -82 182 -92 221 -6
21 -15 39 -21 39 -6 0 -8 4 -5 9 10 15 -5 40 -19 35 -9 -4 -12 0 -9 13 3 10 1
29 -4 43 -8 22 -11 19 -22 -35z"/>
<path d="M3603 2486 c-13 -6 -23 -14 -23 -19 0 -5 -7 -16 -16 -25 -15 -15 -16
-14 -10 6 10 30 -7 28 -24 -3 -11 -20 -11 -33 -1 -65 23 -76 121 -121 189 -86
32 17 45 33 17 23 -17 -7 -31 11 -27 34 2 9 -4 19 -13 22 -10 5 -15 0 -15 -13
0 -23 -1 -24 -35 -8 -14 6 -25 18 -25 26 0 9 -7 13 -20 9 -11 -3 -23 -1 -26 4
-3 5 -10 7 -15 4 -5 -4 -9 -1 -9 4 0 10 14 15 32 12 4 0 5 6 1 15 -5 14 -1 15
25 10 16 -4 33 -3 36 2 3 5 -9 13 -27 16 -27 6 -30 8 -14 17 9 6 22 7 27 4 6
-3 7 1 4 9 -3 9 -7 15 -8 15 0 -1 -11 -6 -23 -13z"/>
<path d="M5510 2490 c-12 -8 -13 -13 -2 -30 6 -11 12 -29 12 -40 0 -11 4 -20
9 -20 5 0 11 -13 14 -28 5 -27 73 -151 88 -162 4 -3 11 -19 15 -35 3 -17 15
-39 24 -50 10 -11 27 -38 39 -60 14 -26 20 -32 17 -16 -4 18 -2 21 6 13 8 -8
15 -8 24 -1 8 7 14 6 20 -2 4 -8 3 -9 -4 -5 -7 4 -12 3 -12 -2 0 -5 11 -14 25
-20 39 -18 32 5 -27 82 -77 98 -89 119 -78 130 6 6 23 -5 45 -29 20 -22 35
-33 35 -24 1 7 7 1 14 -16 13 -30 76 -84 76 -66 0 6 -9 15 -21 21 -11 7 -27
27 -35 46 -8 19 -19 34 -24 34 -6 0 -10 5 -10 11 0 7 -10 20 -22 30 -11 11
-18 19 -14 19 4 0 -15 27 -43 59 -27 33 -51 65 -54 73 -5 11 -7 11 -15 -1 -5
-7 -15 -10 -21 -7 -16 10 -14 26 4 26 21 0 19 6 -11 46 -27 35 -47 41 -74 24z"/>
<path d="M4880 2483 c-2 -7 -3 -19 -4 -25 -1 -7 -7 -12 -14 -10 -7 1 -12 -3
-12 -9 0 -6 6 -9 14 -6 16 6 43 -19 32 -30 -3 -4 4 -17 16 -30 20 -22 21 -23
2 -23 -18 -1 -18 -1 -1 -14 16 -12 16 -14 1 -20 -9 -4 -14 -13 -10 -21 3 -9
-1 -15 -10 -15 -12 0 -15 6 -10 26 5 18 3 24 -5 18 -8 -5 -10 1 -7 20 3 14 1
26 -3 26 -5 0 -9 -8 -9 -17 0 -13 -3 -14 -11 -6 -8 8 -16 9 -29 1 -15 -10 -14
-17 16 -97 17 -47 35 -94 38 -103 3 -10 11 -15 19 -12 26 10 49 -43 42 -94 -4
-30 0 -65 9 -97 14 -43 14 -51 1 -58 -22 -12 -18 -29 4 -22 15 5 21 -1 29 -27
19 -62 23 -88 12 -88 -5 0 -10 5 -10 10 0 6 -4 10 -10 10 -5 0 -7 -7 -4 -15 4
-8 15 -15 25 -15 13 0 19 -7 19 -24 0 -13 4 -26 9 -28 5 -1 11 -16 13 -33 2
-16 6 -32 9 -35 3 -3 13 -36 23 -75 40 -152 76 -239 91 -216 13 21 21 11 17
-21 -4 -26 -2 -30 13 -24 13 5 16 2 11 -11 -5 -15 -4 -15 9 1 8 11 13 28 9 38
-3 12 0 18 10 18 9 0 16 9 16 20 0 11 -4 20 -10 20 -5 0 -10 -4 -10 -10 0 -5
-7 -10 -15 -10 -8 0 -15 5 -15 10 0 6 4 10 9 10 13 0 21 39 9 46 -5 3 -7 25
-5 49 4 32 2 42 -8 39 -12 -5 -23 18 -30 64 -2 14 1 22 11 22 8 0 14 6 13 13
-4 33 2 57 16 57 19 0 19 16 0 23 -9 4 -13 16 -10 36 2 22 0 28 -10 25 -14 -6
-21 19 -27 91 -2 18 -8 29 -16 27 -8 -1 -12 7 -10 25 2 19 -1 27 -10 25 -9 -2
-12 4 -8 16 4 12 -8 47 -29 90 -19 39 -35 76 -35 81 0 10 -37 3 -60 -12 -8 -5
-2 3 14 17 26 25 28 30 16 54 -24 53 -28 57 -49 55 -13 -2 -20 1 -16 7 3 6 2
10 -4 10 -5 0 -13 -5 -16 -10 -4 -6 -11 -8 -16 -4 -21 12 5 26 38 19 19 -3 33
-3 31 2 -20 37 -48 105 -48 117 0 8 -5 16 -11 18 -6 2 -12 13 -13 23 -2 11 -7
31 -13 45 -5 14 -13 32 -16 40 -4 10 -6 11 -7 3z"/>
<path d="M3194 2312 c-14 -72 -19 -138 -19 -257 1 -188 17 -248 85 -309 76
-69 162 -69 251 0 67 52 289 276 283 286 -3 4 -27 8 -54 8 -45 0 -51 -3 -65
-29 -26 -51 -49 -61 -108 -47 -60 14 -151 59 -184 89 -26 23 -28 43 -12 98 12
37 11 38 -48 106 -33 37 -71 87 -85 110 l-24 43 -20 -98z"/>
<path d="M4841 2028 c-1 -20 4 -28 15 -28 13 0 14 -3 5 -14 -6 -7 -9 -21 -5
-30 3 -9 1 -16 -6 -16 -6 0 -8 -5 -4 -12 4 -7 9 -24 10 -38 3 -21 8 -44 19
-80 1 -3 7 -24 14 -47 6 -24 17 -43 22 -43 6 0 8 -7 5 -15 -3 -9 -2 -23 3 -33
5 -9 17 -46 26 -82 10 -36 26 -90 37 -120 11 -30 22 -64 25 -75 15 -63 58
-196 76 -235 11 -25 21 -58 22 -74 1 -15 7 -31 13 -35 6 -4 13 -23 16 -43 5
-42 22 -78 38 -78 7 0 6 5 -2 15 -7 9 -8 15 -2 15 16 0 24 -31 11 -46 -6 -7
-7 -19 -3 -26 12 -19 14 -37 4 -43 -4 -3 -6 -15 -4 -28 2 -12 1 -15 -2 -7 -4
8 -11 19 -16 25 -4 5 -17 21 -27 35 l-20 25 6 -25 6 -25 -21 25 c-12 14 -26
30 -31 36 -9 11 -1 19 39 44 13 8 13 11 -2 27 -20 19 -37 11 -19 -11 9 -11 8
-15 -5 -20 -20 -8 -24 -8 -22 2 1 4 -6 24 -15 46 -18 40 -22 59 -9 40 4 -6 18
-15 32 -19 l25 -7 -25 23 c-13 13 -31 25 -40 25 -8 1 -23 5 -32 9 -28 11 -22
-29 7 -51 25 -19 34 -44 15 -44 -5 0 -10 7 -10 15 0 8 -7 15 -15 15 -12 0 -12
-6 1 -47 8 -27 17 -64 20 -83 3 -19 15 -47 25 -61 10 -15 19 -30 19 -34 0 -3
12 -22 26 -41 18 -23 30 -31 38 -25 7 6 20 3 36 -9 14 -11 34 -19 45 -19 14 0
16 2 5 6 -8 3 -26 14 -39 24 -21 17 -22 19 -5 19 11 0 30 -7 42 -16 12 -8 22
-11 22 -5 0 5 -6 11 -12 14 -7 2 -10 8 -6 12 10 10 28 -3 28 -21 0 -23 28 -47
46 -40 9 4 14 13 10 21 -4 11 2 15 24 15 19 0 33 7 40 19 13 25 13 34 -1 25
-6 -4 -10 1 -8 12 5 39 -28 153 -46 155 -5 1 -14 2 -20 4 -5 1 -18 3 -27 3
-24 2 -23 14 2 29 16 11 18 10 14 -2 -4 -8 -1 -15 5 -15 6 0 14 19 17 41 l7
42 18 -24 c23 -29 24 -18 4 21 -15 28 -14 30 3 30 30 0 26 47 -4 53 -12 2 -28
0 -35 -4 -8 -4 -25 1 -41 12 -15 11 -32 17 -38 14 -5 -3 -10 1 -10 10 0 9 -9
19 -20 22 -20 5 -25 19 -21 61 1 14 -4 22 -14 22 -8 0 -15 7 -15 15 0 24 -1
26 -51 124 -27 51 -49 101 -49 111 0 11 -4 21 -9 24 -18 12 -65 174 -85 298
-2 14 -9 35 -15 46 -14 26 -14 55 -1 47 17 -10 11 4 -10 25 -12 12 -18 25 -15
30 3 5 -3 19 -14 31 -11 12 -17 28 -14 37 4 9 2 13 -4 9 -6 -4 -14 -1 -16 5
-3 7 -6 1 -6 -14z"/>
<path d="M5874 1917 c4 -19 1 -29 -11 -36 -10 -6 -13 -11 -7 -11 7 0 14 -9 17
-21 3 -11 15 -23 26 -26 12 -3 21 -11 21 -18 0 -6 18 -28 39 -48 35 -32 39
-34 44 -16 6 21 28 18 60 -9 9 -8 19 -13 22 -10 9 9 -7 38 -21 38 -17 0 -19
17 -3 22 7 2 2 14 -12 30 -21 24 -24 25 -36 9 -7 -9 -12 -11 -11 -6 1 6 -3 21
-9 35 -6 14 -14 32 -16 41 -3 9 -19 19 -36 21 -24 4 -31 1 -33 -16 -2 -10 -9
-21 -15 -24 -9 -2 -11 5 -7 26 4 19 1 32 -6 37 -10 6 -11 1 -6 -18z"/>
<path d="M5967 1603 c-9 -15 22 -74 37 -71 8 2 31 -15 53 -37 21 -22 52 -47
68 -55 34 -17 108 -62 115 -71 8 -10 43 -26 73 -33 23 -5 27 -3 27 14 0 12 -9
24 -22 29 -13 5 -22 12 -20 17 2 5 -1 10 -7 12 -6 2 -11 -1 -11 -7 0 -21 -28
-11 -34 11 -4 17 -8 20 -17 11 -8 -8 -21 -6 -50 10 -23 12 -35 24 -28 28 20
12 -9 21 -30 9 -26 -14 -31 -13 -31 6 0 8 5 12 10 9 13 -8 40 19 32 32 -4 5
-17 15 -30 22 -12 7 -20 17 -16 23 4 7 3 8 -4 4 -7 -4 -12 -3 -12 3 0 6 -7 8
-15 5 -8 -4 -15 -1 -15 5 0 17 -28 13 -40 -6 -10 -16 -11 -16 -6 -1 5 17 -19
45 -27 31z"/>
<path d="M3233 1444 c-39 -16 -58 -45 -67 -97 -8 -45 1 -60 58 -89 102 -52
214 39 165 135 -34 66 -84 83 -156 51z"/>
<path d="M5430 1043 c-8 -3 -18 -11 -22 -17 -6 -8 -8 -8 -8 1 0 16 -38 12 -45
-5 -3 -7 2 -23 10 -35 18 -26 20 -46 3 -29 -7 7 -17 12 -22 12 -6 0 -2 -6 9
-13 21 -12 26 -14 51 -16 8 0 12 -6 9 -11 -3 -6 -17 -7 -31 -4 -13 3 -31 3
-40 0 -14 -5 -13 -9 7 -27 13 -11 18 -17 10 -13 -10 5 -8 -3 5 -25 19 -32 19
-32 26 -9 7 20 7 19 4 -5 -4 -30 13 -87 25 -87 10 0 21 53 19 87 -1 16 -1 30
0 33 9 26 8 55 -2 62 -9 5 -8 8 5 8 10 0 15 5 12 10 -4 6 -1 17 5 25 7 8 8 15
4 15 -5 0 -15 -9 -22 -20 -7 -11 -16 -20 -22 -20 -5 0 2 12 15 26 14 15 25 35
25 45 0 20 -5 21 -30 12z"/>
<path d="M3464 990 c-11 -4 -34 -24 -52 -44 -28 -32 -32 -44 -32 -96 0 -72 19
-90 94 -90 61 0 103 26 140 87 35 59 33 84 -9 122 -28 25 -44 31 -78 30 -23 0
-51 -4 -63 -9z"/>
<path d="M3764 801 c-78 -47 -94 -111 -45 -179 48 -65 72 -65 159 5 35 28 42
40 42 69 0 45 -23 100 -48 113 -31 16 -73 13 -108 -8z"/>
<path d="M5126 665 c6 -14 28 -20 67 -17 9 1 17 -3 17 -8 0 -10 -14 -14 -37
-11 -20 3 -16 -11 17 -62 16 -26 27 -47 24 -47 -3 0 2 -10 10 -21 8 -12 12
-29 8 -38 -5 -14 -4 -14 12 -2 20 17 80 26 71 11 -8 -13 -3 -13 30 0 22 8 25
13 16 24 -9 11 -9 16 1 20 7 3 -3 3 -22 0 -55 -10 -100 -10 -100 -2 0 4 17 8
38 8 33 1 35 2 19 14 -9 7 -29 11 -45 9 -24 -4 -25 -3 -10 9 9 8 15 23 14 34
-2 10 2 23 8 27 6 5 1 7 -13 5 -17 -2 -25 2 -27 16 -3 23 -22 36 -41 29 -7 -3
-13 0 -13 6 0 6 -11 11 -25 11 -18 0 -23 -4 -19 -15z"/>
</g>
</svg>
