<?xml version="1.0" standalone="no"?>
<!DOCTYPE svg PUBLIC "-//W3C//DTD SVG 20010904//EN"
 "http://www.w3.org/TR/2001/REC-SVG-20010904/DTD/svg10.dtd">
<svg version="1.0" xmlns="http://www.w3.org/2000/svg"
 width="770.000000pt" height="628.000000pt" viewBox="0 0 770.000000 628.000000"
 preserveAspectRatio="xMidYMid meet">
<metadata>
Created by potrace 1.15, written by Peter Selinger 2001-2017
</metadata>
<g transform="translate(0.000000,628.000000) scale(0.100000,-0.100000)"
fill="#000000" stroke="none">
<path d="M6 6233 c5 -71 7 -83 16 -83 4 0 8 -13 8 -30 0 -22 -4 -28 -15 -24
-8 4 -15 1 -15 -6 0 -8 9 -11 25 -8 20 4 23 2 14 -8 -6 -7 -17 -10 -24 -7 -12
4 -15 -109 -15 -771 0 -686 2 -776 15 -776 8 0 15 -5 15 -11 0 -6 -7 -9 -15
-5 -19 7 -19 -8 -1 -67 8 -26 10 -47 5 -47 -14 0 -11 -28 4 -34 9 -3 7 -9 -6
-19 -16 -13 -17 -43 -16 -388 1 -206 4 -366 6 -356 7 26 20 21 31 -12 8 -22 7
-32 -2 -40 -7 -6 -15 -8 -19 -5 -3 3 -3 -4 0 -16 4 -14 11 -19 22 -16 12 5 11
2 -3 -9 -10 -8 -23 -12 -27 -9 -4 2 -8 -29 -8 -71 0 -76 9 -96 34 -75 9 8 15
8 15 2 0 -6 -6 -13 -13 -15 -9 -4 -9 -6 1 -6 6 -1 12 -11 11 -23 0 -13 -3 -17
-6 -10 -2 6 -11 12 -19 12 -9 0 -12 5 -8 13 4 7 3 9 -2 4 -15 -14 -11 -146 4
-152 8 -3 12 0 10 7 -6 18 19 40 39 36 10 -2 20 -17 24 -36 9 -43 13 -46 33
-26 13 12 14 19 5 30 -8 10 -7 17 5 29 8 9 18 16 21 15 3 0 9 0 13 0 4 0 7 44
5 98 -1 53 0 89 3 79 3 -9 10 -15 15 -12 5 4 9 -10 9 -29 0 -20 5 -36 11 -36
8 0 10 -15 7 -45 -3 -25 -2 -45 3 -45 5 0 10 64 11 143 3 124 5 139 16 119 15
-25 22 -132 10 -132 -5 0 -8 -9 -8 -21 0 -11 4 -18 8 -15 10 6 10 7 18 -241 6
-193 8 -211 23 -203 15 7 16 31 14 195 -1 102 1 194 5 203 13 36 20 -36 21
-235 1 -135 5 -204 12 -209 8 -5 10 65 8 249 -2 140 -1 253 3 251 3 -2 8 2 11
8 9 23 24 -35 22 -82 -2 -25 -6 -117 -10 -205 -4 -88 -14 -191 -22 -230 -16
-76 -28 -213 -14 -160 l9 30 1 -31 c1 -20 -5 -34 -14 -38 -8 -3 -15 -10 -15
-17 0 -6 7 -9 15 -5 17 6 20 -5 6 -19 -15 -15 -17 -145 -2 -154 7 -5 9 -15 4
-27 -6 -17 -5 -17 8 -4 11 12 14 55 14 217 0 143 4 206 12 214 17 17 32 -26
35 -100 2 -33 6 -57 10 -54 12 7 10 33 -11 140 -11 54 -18 125 -16 158 7 150
17 290 21 294 23 24 30 -200 25 -734 -2 -196 0 -270 9 -270 8 0 12 99 14 355
5 441 7 493 20 502 15 10 17 101 3 111 -9 5 -8 10 3 17 8 5 10 10 4 10 -7 0
-9 11 -6 25 2 14 11 25 19 25 11 0 13 4 6 13 -6 6 -13 25 -17 40 -4 17 -11 25
-18 21 -7 -5 -8 -3 -3 7 13 19 14 49 2 49 -5 0 -7 9 -4 20 3 11 1 20 -3 20
-13 0 1 38 16 44 16 6 20 -39 4 -49 -6 -3 -10 -12 -10 -18 1 -7 5 -6 13 4 7 9
17 14 23 12 12 -4 12 25 0 45 -4 6 -2 12 3 12 6 0 11 15 11 34 0 21 -5 34 -12
33 -36 -1 -48 5 -48 22 0 10 7 21 15 25 8 3 14 13 14 23 -1 17 -2 17 -6 1 -6
-23 -20 -23 -26 0 -9 36 -8 169 2 195 7 19 7 27 0 27 -6 0 -7 5 -4 10 4 6 3
10 -2 9 -25 -4 -35 3 -14 12 15 6 21 15 17 24 -4 11 1 15 18 15 19 0 22 4 18
28 -3 22 -9 28 -30 27 -15 0 -27 5 -27 12 0 6 -3 14 -7 18 -4 4 0 17 8 30 12
19 12 24 1 34 -8 6 -17 7 -22 3 -4 -4 -5 16 -3 45 3 29 1 54 -4 55 -13 5 -36
131 -30 169 3 23 1 30 -7 25 -7 -4 -9 -16 -6 -27 4 -10 2 -19 -3 -19 -6 0 -4
-19 4 -47 20 -66 19 -97 -3 -88 -10 4 -25 9 -34 12 -20 6 -37 122 -20 133 7 4
8 17 1 40 -12 43 -12 43 2 34 7 -5 8 -3 2 7 -5 8 -9 28 -10 44 -3 63 -3 65
-21 58 -16 -6 -16 -5 -4 10 7 9 21 17 30 18 10 0 11 2 4 6 -15 6 -17 33 -3 33
6 0 10 7 10 15 0 8 4 15 9 15 6 0 9 -8 9 -17 -3 -36 12 -73 29 -73 13 0 14 3
5 12 -7 7 -12 19 -12 27 0 8 3 11 6 8 4 -3 16 0 28 8 23 17 56 20 56 6 0 -21
-13 -41 -26 -41 -18 0 -18 -24 0 -39 17 -14 28 -51 15 -51 -5 0 -9 -6 -9 -14
0 -8 -10 -18 -22 -22 l-22 -7 22 -17 c12 -10 22 -26 22 -36 0 -16 1 -16 18 -1
10 10 24 17 31 17 9 0 9 5 1 20 -11 21 -4 70 11 70 5 0 9 5 9 11 0 5 -5 7 -10
4 -6 -3 -10 1 -10 10 0 9 5 13 11 9 15 -9 30 16 23 39 -3 9 -2 17 3 18 4 0 18
2 31 5 18 3 22 -1 22 -21 0 -14 5 -25 10 -25 6 0 10 8 10 18 0 10 6 24 12 31
10 11 11 13 0 7 -15 -9 -15 -4 -1 67 7 31 16 57 21 57 7 0 7 -13 -2 -55 -1 -5
-1 -12 0 -15 3 -6 8 -213 9 -359 1 -89 12 -119 18 -48 10 120 11 217 3 212 -6
-4 -10 9 -10 29 0 26 4 36 15 36 15 0 29 -26 46 -85 8 -29 8 -29 4 5 -3 19 -7
53 -9 75 -2 22 -10 59 -19 83 -9 25 -11 42 -5 42 7 0 6 5 -1 13 -11 14 -15
229 -7 377 3 41 5 129 6 195 2 117 2 119 17 85 10 -21 16 -63 15 -107 0 -64 9
-94 20 -62 6 19 -10 182 -26 256 -18 89 -11 206 15 243 18 26 37 160 22 160
-12 0 -43 -38 -43 -53 -1 -6 -7 1 -14 18 -7 16 -10 41 -8 55 5 22 6 22 12 5 6
-18 8 -17 24 7 10 15 15 31 12 37 -3 5 -1 11 4 13 14 4 60 166 53 184 -2 7 -1
19 3 25 12 19 32 -47 33 -107 1 -83 -20 -186 -70 -337 -38 -116 -11 -81 46 57
15 38 25 52 25 38 0 -13 -7 -37 -16 -54 -12 -24 -13 -32 -4 -38 15 -9 5 -30
-14 -30 -7 0 -22 -18 -34 -41 -17 -31 -19 -45 -11 -57 10 -15 10 -15 5 1 -3 9
-1 17 4 17 4 0 14 15 20 34 11 35 46 62 36 28 -3 -9 -10 -53 -16 -97 -18 -128
-32 -195 -41 -195 -5 0 -9 -7 -9 -15 0 -8 5 -15 10 -15 6 0 10 -14 10 -32 0
-63 13 -16 21 73 7 93 21 128 39 99 5 -8 10 -59 10 -112 0 -67 4 -98 12 -98 7
0 6 -6 -3 -17 -11 -14 -16 -55 -18 -168 -2 -82 -7 -157 -11 -165 -4 -8 -6 -24
-4 -35 2 -11 4 -102 4 -202 1 -149 4 -182 16 -187 16 -6 19 34 5 69 -5 12 -4
26 3 34 7 9 12 73 13 170 4 369 6 420 13 351 9 -90 5 -690 -4 -715 -6 -15 -5
-16 2 -6 8 11 12 6 17 -25 4 -21 8 -43 10 -49 1 -5 3 71 3 170 1 99 3 203 5
230 2 28 2 55 -2 60 -8 15 -9 218 0 240 4 11 8 16 9 10 1 -5 5 1 10 15 7 24 7
24 17 -10 10 -34 9 150 -1 505 -2 66 -1 114 1 108 8 -22 23 -14 23 11 0 14 -7
32 -16 41 -13 13 -15 30 -10 93 8 102 8 111 0 152 -7 35 -6 35 14 17 11 -10
34 -19 52 -19 28 -1 31 -4 25 -26 -3 -13 -9 -38 -12 -54 -4 -22 -11 -29 -27
-27 -39 3 -46 -1 -45 -23 0 -13 3 -17 6 -11 3 10 8 10 19 -1 7 -8 18 -16 24
-18 6 -2 11 -25 12 -52 0 -35 3 -44 10 -32 15 28 24 18 24 -30 1 -36 -2 -44
-14 -39 -12 4 -13 3 -3 -9 7 -8 14 -43 17 -78 7 -105 7 -476 -1 -487 -3 -6 -3
-11 2 -11 4 0 7 -65 6 -145 -1 -80 2 -145 6 -145 5 0 9 57 9 128 -1 70 0 199
2 287 1 88 1 165 0 170 -1 6 -1 12 0 15 1 3 4 87 6 188 2 115 7 188 14 197 8
9 8 15 0 20 -12 8 -12 93 1 120 8 17 9 16 5 -8 -2 -15 1 -30 5 -33 5 -3 9 10
9 29 0 19 -6 37 -13 40 -7 3 -12 18 -11 33 1 16 2 71 3 122 1 70 4 93 14 89 6
-2 20 2 30 11 15 14 17 13 17 -1 0 -10 5 -14 15 -11 11 5 14 19 11 60 -2 30
-1 54 1 54 18 0 32 -43 33 -92 0 -59 15 -78 26 -33 3 14 4 43 2 65 -2 22 0 40
4 40 5 0 8 -4 8 -10 0 -5 6 -10 14 -10 9 0 14 9 13 20 -1 12 -7 18 -14 16 -8
-3 -13 2 -13 14 0 13 -7 20 -20 20 -11 0 -20 7 -20 16 0 13 -14 15 -96 13 -92
-3 -121 -10 -88 -23 11 -4 14 -15 11 -41 -3 -20 0 -36 7 -38 12 -4 14 -112 3
-124 -10 -9 -37 17 -37 36 -1 16 -50 83 -50 68 0 -4 9 -27 20 -49 11 -23 20
-47 20 -53 0 -5 11 -19 25 -29 18 -14 25 -28 25 -52 0 -35 -13 -45 -24 -18 -9
24 -7 31 4 14 8 -12 10 -11 10 8 0 20 -4 22 -34 19 -31 -4 -34 -2 -31 19 3 27
1 28 -26 13 -18 -9 -19 -8 -7 10 10 16 10 23 0 33 -6 6 -12 32 -12 57 0 30 -3
41 -9 32 -7 -11 -9 -11 -13 0 -3 8 -3 20 0 27 4 11 6 11 13 0 6 -9 9 -7 9 8 0
12 3 36 6 54 l7 32 -63 -4 -63 -3 -3 -34 c-2 -19 1 -39 6 -46 15 -18 -6 -60
-31 -62 -10 -1 -19 3 -19 8 0 6 -5 7 -12 3 -6 -4 -22 -8 -35 -10 -41 -4 -20
18 30 33 52 15 57 22 27 40 -24 16 -49 7 -60 -21 l-9 -21 0 22 c-1 12 3 23 8
25 5 2 6 17 4 34 l-5 31 -71 -1 -72 -1 -5 -40 c-3 -26 -11 -41 -21 -43 -12 -1
-15 7 -15 40 0 40 -2 43 -28 46 -20 3 -26 0 -21 -8 7 -12 -8 -9 -54 8 -10 4
-12 1 -6 -7 6 -10 3 -11 -13 -2 -11 6 -44 11 -72 11 -43 0 -52 -3 -59 -22 l-8
-23 -7 23 c-7 21 -12 22 -131 22 l-123 0 4 -47z m630 -176 c16 -9 18 -64 5
-86 -6 -10 -19 -12 -41 -7 l-32 6 4 -69 c4 -72 13 -96 27 -72 5 8 9 -6 9 -35
1 -32 -4 -55 -16 -68 -9 -11 -11 -16 -3 -11 10 6 12 3 7 -13 -4 -11 -2 -23 4
-27 12 -8 8 -48 -15 -145 -7 -30 -15 -89 -18 -130 -4 -66 -3 -71 8 -46 11 27
13 28 23 10 11 -18 12 -17 13 6 1 14 1 35 0 46 -1 12 5 27 13 33 15 13 19 -62
18 -399 0 -198 -23 -333 -57 -337 -20 -3 -20 -3 -1 5 15 6 16 11 7 16 -18 11
-29 -3 -36 -47 -4 -24 -2 -37 5 -37 6 0 9 4 6 9 -3 4 3 16 14 26 12 10 20 13
20 7 0 -7 -4 -12 -10 -12 -5 0 -10 -8 -10 -17 0 -15 2 -16 10 -3 15 23 12 2
-5 -30 -11 -21 -20 -27 -34 -23 -15 4 -22 -1 -26 -19 -6 -23 -45 -38 -45 -17
0 5 7 9 16 9 9 0 14 6 11 13 -2 6 0 20 4 29 6 10 5 19 -1 23 -5 3 -7 25 -5 48
3 23 5 109 6 192 2 130 4 152 20 169 11 11 19 29 18 40 0 17 -3 15 -14 -9 -15
-32 -16 -32 -21 5 -6 49 -10 65 -17 76 -4 7 0 15 8 18 13 5 14 10 5 27 -7 11
-9 31 -6 44 3 13 8 69 11 126 3 56 7 104 9 106 2 2 0 20 -4 39 -4 19 -4 36 0
39 5 3 5 18 1 33 -4 15 -7 43 -5 62 1 19 2 48 3 63 1 26 2 27 17 12 12 -11 14
-19 6 -27 -7 -7 -7 -16 1 -28 8 -14 8 -22 -3 -34 -11 -14 -10 -16 3 -10 14 5
15 1 7 -27 -5 -17 -7 -35 -5 -40 3 -4 1 -10 -5 -14 -13 -8 -13 -45 0 -45 6 0
11 10 12 23 2 41 3 46 11 53 4 4 7 19 7 33 0 18 3 22 9 13 7 -11 9 -11 14 2 3
8 0 22 -8 30 -20 19 -19 56 1 84 20 28 10 43 -11 16 -13 -17 -14 -17 -15 -2 0
9 5 20 11 24 14 8 2 56 -19 73 -13 10 -14 14 -3 18 8 3 9 8 3 12 -5 3 -13 22
-17 41 -4 19 -4 32 0 28 14 -13 35 13 35 44 0 31 42 94 49 74 2 -6 10 -15 17
-19z m-206 -326 c-13 -26 -13 -29 8 -34 11 -3 7 -5 -10 -6 -21 -1 -25 -5 -21
-21 3 -11 13 -20 22 -21 9 -1 5 -4 -9 -8 -20 -5 -25 -14 -26 -39 -1 -27 1 -30
14 -19 13 10 14 9 3 -11 -7 -13 -11 -26 -8 -28 8 -8 37 8 37 21 0 7 7 18 14
25 13 10 15 -27 15 -279 -1 -187 -4 -293 -11 -297 -6 -4 -5 -10 3 -15 11 -6
11 -14 3 -38 -9 -22 -9 -33 0 -42 8 -9 7 -11 -5 -6 -13 4 -16 -1 -14 -26 1
-17 7 -33 14 -35 6 -2 11 -23 11 -46 0 -35 -4 -45 -23 -53 -15 -7 -29 -7 -40
-1 -19 10 -25 -6 -6 -18 8 -4 8 -9 0 -17 -16 -16 -19 -8 -23 66 -2 43 0 66 7
64 5 -2 9 -16 7 -30 -1 -14 1 -28 6 -31 5 -3 9 13 10 34 2 34 -2 42 -27 55
-37 19 -71 107 -49 128 14 14 38 12 38 -4 0 -4 -7 -6 -15 -3 -19 8 -19 -7 0
-32 8 -10 15 -30 15 -43 0 -13 3 -21 7 -18 3 4 12 -1 20 -11 13 -15 13 -14 3
6 -14 29 -6 39 17 21 11 -8 10 -4 -4 11 -15 18 -20 34 -17 55 4 25 3 27 -6 10
l-10 -20 1 20 c3 50 -10 58 -43 28 -17 -15 -18 -15 -18 5 0 12 5 22 10 22 6 0
10 7 10 15 0 8 -5 15 -11 15 -6 0 -8 9 -4 21 4 12 9 49 10 83 5 84 8 100 23
109 6 4 12 20 12 35 0 22 2 24 11 12 8 -12 9 -9 5 13 -4 15 -2 27 3 27 22 0
42 34 40 69 -2 20 3 46 10 59 10 19 9 22 -7 22 -22 0 -50 -69 -29 -71 8 0 8
-2 0 -6 -7 -2 -13 -10 -13 -16 -1 -16 -48 -73 -54 -66 -3 3 -6 26 -7 52 -1 26
-6 47 -11 47 -4 0 -8 5 -8 10 0 6 9 10 21 10 13 0 23 8 26 21 4 15 8 17 14 8
4 -7 5 5 3 27 -12 97 -13 144 -3 138 6 -3 8 -12 5 -19 -2 -7 2 -16 10 -19 17
-6 20 29 3 39 -6 5 -3 13 10 22 12 8 21 21 21 29 0 8 5 14 10 14 7 0 7 -6 0
-19z m-232 -1557 c0 -36 3 -68 6 -71 3 -4 6 15 6 40 0 35 4 47 15 47 8 0 15 8
16 18 0 9 6 1 13 -18 16 -43 10 -57 -15 -34 -18 16 -19 16 -19 -2 0 -10 4 -25
9 -33 8 -13 12 -13 27 0 16 13 17 12 11 -4 -5 -13 -3 -17 5 -14 8 2 17 -10 23
-27 6 -17 16 -31 24 -31 8 0 15 -8 17 -18 2 -17 1 -17 -15 -3 -25 22 -31 20
-31 -11 0 -21 -3 -24 -9 -14 -8 12 -12 12 -25 2 -13 -11 -19 -8 -41 15 -19 20
-25 23 -25 10 0 -9 -7 -16 -16 -16 -11 0 -15 6 -11 20 3 13 -1 21 -14 25 -13
5 -19 16 -19 37 0 26 2 29 15 18 12 -10 16 -8 25 15 13 34 13 55 0 55 -17 0
-11 38 8 49 9 6 18 11 19 11 1 0 1 -29 1 -66z m198 -80 c9 4 12 -6 11 -35 -2
-21 1 -39 5 -39 4 0 8 8 9 18 0 13 2 14 6 2 3 -8 12 -19 20 -23 7 -5 10 -13 7
-19 -4 -6 -7 -24 -6 -40 0 -15 -3 -26 -8 -23 -10 6 -22 -23 -14 -36 3 -5 9 -7
14 -4 11 7 5 -72 -7 -87 -16 -20 -25 -68 -13 -68 5 0 10 9 10 19 0 11 4 22 8
25 10 6 8 -132 -2 -141 -3 -4 -6 3 -6 15 0 27 -7 27 -33 5 -19 -18 -20 -17
-15 17 6 42 -9 101 -24 97 -6 -1 -15 14 -19 33 -8 38 -1 60 12 39 7 -11 9 -9
9 5 0 11 -8 28 -17 39 -10 11 -12 17 -5 13 7 -4 12 -1 12 8 0 10 -6 13 -17 9
-15 -5 -16 -3 -5 8 17 18 15 29 -5 29 -15 1 -15 3 5 19 16 14 22 30 22 60 0
22 5 43 10 46 6 4 8 16 5 28 -5 21 -4 21 7 -1 6 -13 17 -21 24 -18z m-27 -408
c-4 -30 3 -46 19 -46 14 0 14 -2 3 -9 -8 -5 -11 -16 -8 -26 4 -10 3 -14 -4
-10 -6 4 -13 -2 -15 -12 -7 -26 -52 -18 -64 11 -7 16 -9 8 -9 -31 -1 -53 -5
-58 -35 -47 -20 8 -20 38 0 98 15 43 17 45 30 29 12 -17 14 -15 20 14 3 18 13
38 20 44 8 6 14 21 14 33 0 18 2 17 15 -8 8 -16 15 -34 14 -40z"/>
<path d="M1320 6251 c0 -21 -6 -30 -22 -35 l-23 -6 23 -15 c17 -13 22 -26 22
-61 0 -24 -4 -44 -10 -44 -5 0 -10 -7 -10 -16 0 -10 -6 -14 -15 -10 -8 3 -15
0 -15 -5 0 -7 11 -9 25 -7 14 3 25 1 25 -3 0 -5 -7 -9 -17 -9 -15 0 -15 -1 0
-18 11 -12 16 -33 14 -60 -1 -23 -3 -42 -5 -42 -1 0 -7 11 -11 24 -5 13 -19
26 -31 29 -21 5 -21 5 4 -36 14 -23 30 -41 35 -39 7 1 11 -15 11 -39 0 -25 4
-38 10 -34 10 6 12 29 10 139 0 21 4 44 10 51 8 9 8 15 0 20 -5 3 -10 36 -10
73 0 51 3 63 12 54 23 -23 29 -12 9 14 -13 17 -21 41 -21 65 0 22 -4 39 -10
39 -5 0 -10 -13 -10 -29z"/>
<path d="M1460 6155 l0 -124 -30 4 c-16 2 -34 6 -40 10 -5 3 -13 -1 -17 -10
-3 -10 0 -21 7 -25 8 -5 11 -19 8 -34 -5 -26 7 -41 57 -71 13 -8 15 -19 9 -62
-6 -49 -7 -51 -28 -40 -11 7 -24 16 -27 20 -3 4 -12 1 -19 -8 -13 -16 -9 -18
28 -15 14 1 22 -4 22 -15 0 -9 5 -13 10 -10 10 6 13 -36 12 -175 l-1 -65 12
77 c13 84 27 112 27 54 0 -24 4 -35 11 -31 6 4 8 14 5 22 -3 8 -1 11 4 8 5 -3
12 -21 16 -40 9 -50 24 -43 25 13 l1 47 10 -42 c5 -24 13 -43 19 -43 12 0 11
4 -5 72 -7 31 -11 71 -9 88 2 23 -2 37 -14 46 -10 7 -15 16 -10 20 4 4 7 2 7
-4 0 -7 4 -12 9 -12 5 0 8 14 7 30 -1 17 1 30 6 30 4 0 8 -12 8 -27 l0 -26 35
35 c20 21 36 31 39 24 2 -6 5 -5 5 4 0 8 -4 22 -9 30 -9 13 -10 13 -10 0 -1
-18 -38 -65 -46 -57 -3 2 -7 33 -8 68 -2 35 -5 78 -6 94 l-2 30 -8 -30 c-5
-20 -8 6 -9 77 -1 75 -5 108 -13 111 -8 3 -6 6 5 6 12 1 17 9 17 32 0 17 -4
28 -10 24 -5 -3 -10 -1 -10 4 0 6 -7 11 -15 11 -12 0 -15 -18 -16 -102 0 -57
-1 -121 -3 -143 -1 -22 -3 -59 -4 -82 -2 -34 -6 -43 -19 -43 -15 0 -16 2 -3
10 9 6 10 10 3 10 -7 0 -11 19 -11 55 0 34 4 52 11 48 6 -4 7 -1 2 7 -11 18
-14 91 -3 84 11 -7 7 48 -5 64 -6 8 -6 12 2 12 6 0 10 16 8 40 -1 30 -6 40
-19 40 -16 0 -18 -13 -18 -125z"/>
<path d="M2882 6217 c-41 -82 -93 -227 -87 -237 3 -5 1 -11 -5 -15 -5 -3 -10
-11 -10 -17 0 -18 32 23 60 75 13 26 28 47 32 47 5 0 8 7 8 15 0 7 6 18 14 22
15 8 16 11 16 38 0 8 6 12 14 9 10 -4 21 8 35 38 11 24 28 53 39 64 l20 21
-52 2 -53 1 -31 -63z"/>
<path d="M4808 6208 c32 -40 74 -94 92 -120 18 -27 37 -48 41 -48 4 0 11 -10
14 -21 6 -17 9 -19 16 -8 6 10 9 6 9 -13 0 -16 5 -28 10 -28 5 0 9 -3 9 -7 -4
-17 23 -72 37 -77 8 -3 14 -17 14 -31 0 -15 5 -36 11 -48 9 -16 9 -22 0 -25
-14 -5 -15 -42 -1 -42 6 0 10 -16 10 -35 0 -19 3 -35 8 -35 4 0 8 -14 9 -31 3
-35 9 -46 20 -35 4 4 1 16 -6 28 -11 18 -11 20 1 15 11 -4 14 2 12 21 -1 15
-5 56 -8 91 -3 35 -10 78 -15 95 -5 17 -15 51 -21 76 -7 25 -18 52 -26 61 -8
9 -14 20 -13 25 3 10 -9 37 -70 174 -35 79 -40 85 -70 88 l-32 3 26 -51 c14
-28 24 -57 22 -63 -2 -7 -30 16 -63 51 -86 90 -112 83 -36 -10z"/>
<path d="M5481 6218 c11 -100 20 -895 10 -879 -5 8 -7 20 -4 28 3 7 0 13 -6
13 -6 0 -10 -19 -9 -45 0 -24 4 -42 9 -39 15 9 20 -39 16 -144 -2 -56 -1 -105
4 -107 4 -3 9 43 11 102 3 88 2 957 -1 1096 -1 29 -5 37 -19 37 -17 0 -18 -6
-11 -62z"/>
<path d="M5607 5883 c2 -219 4 -551 5 -738 2 -187 -1 -362 -5 -390 -7 -43 -6
-47 5 -30 11 18 14 10 19 -65 3 -48 6 34 7 190 3 391 11 918 17 1176 6 218 2
270 -17 242 -7 -10 -11 -10 -15 0 -2 6 -8 12 -11 12 -4 0 -6 -179 -5 -397z"/>
<path d="M5975 6251 c-6 -27 5 -87 25 -136 12 -28 24 -128 25 -210 1 -38 5
-84 9 -101 4 -20 1 -40 -9 -60 -19 -36 -19 -53 -1 -60 15 -6 13 -102 -4 -201
-5 -28 -7 -67 -3 -85 3 -19 -2 -54 -10 -79 -8 -24 -17 -71 -20 -104 -3 -33 -3
-47 1 -31 8 34 28 45 35 19 3 -10 8 -140 12 -290 l7 -271 -44 3 c-23 2 -46 4
-50 4 -5 1 -8 21 -8 45 0 25 -4 48 -10 51 -6 4 -10 -15 -10 -50 0 -47 -3 -56
-15 -51 -9 3 -16 -1 -17 -12 -1 -9 -4 12 -8 48 l-7 65 -1 -62 c-2 -63 -10 -75
-30 -50 -19 22 -25 816 -8 952 l14 110 1 -70 c1 -38 10 -108 20 -155 l19 -85
1 65 c0 36 -5 81 -12 100 -8 21 -12 83 -12 158 1 68 -2 125 -7 128 -4 3 -8
-28 -8 -68 0 -43 -4 -68 -9 -60 -15 25 -40 -59 -27 -90 5 -10 4 -35 -2 -55
-10 -38 -10 -38 -12 -8 -2 20 -5 11 -10 -25 -4 -35 -3 -58 4 -62 7 -4 11 -90
13 -235 2 -158 0 -222 -7 -208 -9 18 -10 17 -5 -5 16 -67 26 -185 23 -275 -3
-92 -5 -100 -23 -101 -60 -2 -115 -51 -140 -124 -8 -25 -14 -33 -12 -18 2 15
0 33 -4 40 -5 7 -9 -23 -9 -72 0 -47 -1 -210 -3 -362 -2 -323 14 -284 -144
-348 -57 -24 -100 -47 -97 -52 3 -5 12 -7 20 -4 22 8 17 -10 -8 -31 -13 -10
-31 -32 -40 -48 -10 -17 -22 -29 -27 -28 -6 2 -8 -4 -5 -12 4 -8 3 -23 -1 -32
-4 -10 -7 -34 -5 -53 2 -41 3 -233 0 -272 -1 -17 -7 -28 -16 -28 -11 0 -13 -7
-8 -27 6 -22 4 -25 -10 -20 -11 4 -16 1 -17 -11 0 -14 -2 -14 -9 3 -6 13 -9
15 -9 5 -1 -13 -2 -13 -11 0 -7 11 -12 12 -21 3 -15 -15 -3 -63 16 -63 8 0 14
-5 13 -12 -2 -7 3 -12 10 -13 7 0 17 -7 23 -15 8 -12 9 -10 4 7 -3 12 -1 25 6
29 8 5 9 3 4 -6 -6 -9 -4 -11 4 -6 7 5 10 11 6 14 -8 8 106 122 123 122 11 0
14 -16 11 -72 -4 -111 -1 -146 12 -128 6 9 8 53 5 110 -3 64 -2 85 4 65 5 -16
19 -57 31 -90 11 -33 23 -87 26 -120 5 -61 32 -145 46 -145 5 0 5 10 2 21 -6
19 -5 20 8 8 8 -8 12 -18 9 -23 -8 -15 -10 -66 -1 -66 4 0 5 -9 2 -20 -3 -11
-8 -20 -12 -20 -3 0 -4 -35 -2 -77 2 -43 -2 -127 -8 -188 -35 -352 -42 -543
-19 -529 4 3 8 -2 8 -11 0 -9 7 -30 16 -46 8 -17 13 -33 10 -36 -3 -3 -10 5
-15 18 -5 13 -10 18 -10 12 -1 -13 100 -252 141 -336 13 -26 27 -44 32 -40 4
4 6 3 4 -2 -2 -6 4 -28 14 -50 26 -64 32 -79 33 -92 0 -6 9 -20 19 -32 19 -21
66 -108 66 -123 0 -5 7 -16 15 -25 8 -8 12 -19 9 -25 -4 -6 -3 -13 2 -17 5 -3
17 -18 26 -32 16 -26 16 -27 -8 -38 -16 -7 -23 -7 -19 -1 9 15 -13 77 -30 84
-8 3 -15 10 -15 16 0 6 6 8 13 4 6 -4 2 4 -10 17 -12 13 -23 31 -25 39 -2 8
-7 18 -11 21 -4 3 -10 19 -13 35 -3 16 -10 31 -15 35 -6 3 -10 9 -10 13 1 7
-7 30 -24 76 -8 19 -14 27 -14 18 -1 -22 -17 -32 -27 -17 -4 8 -3 9 4 5 14 -9
16 16 3 29 -5 6 -11 21 -13 35 -2 14 -9 24 -16 23 -6 -2 -12 2 -12 7 0 6 4 10
9 10 5 0 2 15 -7 34 -17 37 -28 40 -51 16 -7 -8 -6 -3 3 13 14 23 14 28 3 33
-9 3 -12 14 -9 30 4 25 -12 34 -22 12 -3 -7 -3 5 -1 27 4 30 3 35 -4 20 -9
-19 -10 -18 -11 5 -2 14 -2 28 -1 33 0 4 -6 7 -14 7 -8 0 -15 5 -15 11 0 5 5
7 12 3 7 -5 8 -3 3 5 -4 7 -16 11 -26 8 -11 -3 -17 -1 -13 4 3 5 13 9 22 10
11 0 12 2 4 6 -6 2 -9 10 -5 16 4 8 1 7 -9 -1 -13 -10 -17 -10 -22 3 -3 9 -2
13 4 10 6 -3 10 -1 10 5 0 6 -7 13 -15 16 -8 4 -15 15 -15 25 0 10 -4 19 -10
19 -12 0 -42 69 -34 81 3 5 0 9 -6 9 -7 0 -9 7 -6 16 4 10 2 13 -6 8 -8 -5 -9
1 -4 22 4 16 4 26 0 22 -8 -8 -34 36 -34 58 0 8 -6 14 -14 14 -8 0 -17 7 -20
16 -9 24 -7 36 6 28 7 -4 8 -3 4 5 -6 9 -11 9 -22 0 -11 -9 -14 -7 -14 9 0 18
3 20 31 12 18 -5 32 -11 33 -12 1 -2 11 -16 21 -33 11 -16 20 -32 20 -35 3
-21 18 -50 26 -50 5 0 9 2 9 5 0 10 -25 62 -43 88 -11 16 -16 31 -13 34 8 8 6
11 45 -71 18 -37 34 -66 36 -64 10 9 -148 529 -172 564 -11 17 -11 27 -2 48
17 36 9 39 -42 16 -33 -14 -66 -20 -127 -20 -80 0 -85 1 -112 30 -34 36 -45
95 -25 127 10 15 21 20 33 16 9 -3 14 -3 10 2 -4 4 0 14 10 21 24 19 37 17 21
-3 -13 -15 -12 -15 9 -4 12 7 20 16 17 21 -3 4 8 20 25 33 35 30 39 57 9 64
-16 5 -19 11 -14 35 5 23 1 35 -24 64 -36 41 -45 80 -11 49 11 -10 20 -15 20
-11 0 8 -70 71 -79 71 -13 0 -31 17 -42 37 -8 15 -8 19 0 14 6 -4 11 -1 11 7
0 7 -11 19 -25 25 -14 7 -28 19 -31 27 -4 8 -10 13 -14 10 -5 -3 -11 -1 -15 5
-4 6 4 9 19 8 13 -1 23 -5 20 -9 -2 -4 5 -5 17 -2 16 4 17 8 7 14 -7 5 -21 9
-31 9 -10 0 -16 4 -12 10 4 6 15 6 31 0 34 -13 34 -13 34 10 0 21 16 23 37 3
19 -17 17 -44 -3 -36 -9 3 -15 2 -12 -3 2 -5 10 -23 17 -41 7 -17 19 -34 27
-37 11 -4 12 -2 5 12 -12 22 -6 124 8 150 6 12 8 28 5 36 -3 9 7 36 25 63 17
26 29 53 27 60 -3 7 -1 13 4 13 6 0 10 7 10 16 0 8 4 13 9 10 11 -7 33 19 24
28 -4 4 0 4 9 1 24 -10 35 18 42 115 7 83 -2 140 -23 140 -20 0 -38 -30 -34
-57 3 -22 2 -25 -6 -12 -6 9 -24 22 -41 29 -33 14 -36 20 -18 38 9 9 8 12 -4
12 -9 0 -20 9 -23 21 -5 13 -11 17 -18 11 -15 -11 -54 -26 -45 -16 17 16 -20
32 -89 37 -12 0 -5 28 11 40 6 5 0 5 -12 2 -22 -6 -23 -5 -12 15 10 18 8 24
-7 36 -10 7 -21 14 -25 14 -18 0 -6 18 20 30 24 12 25 14 7 18 -11 2 -23 9
-26 14 -8 13 -95 -10 -146 -38 -49 -28 -156 -170 -185 -246 -14 -39 -19 -77
-19 -177 -1 -118 1 -132 25 -179 14 -28 30 -53 36 -57 17 -11 12 -35 -7 -28
-11 4 -14 3 -9 -5 17 -28 -21 -8 -81 43 -7 5 -30 24 -51 40 -22 17 -52 47 -68
67 -15 21 -33 38 -39 38 -11 0 -49 30 -105 84 -14 13 -36 29 -49 36 -20 10
-22 17 -18 47 7 39 36 69 50 50 5 -8 13 -5 24 11 9 12 45 57 80 100 35 42 66
88 69 102 3 14 10 37 16 52 5 14 7 37 3 49 -4 13 -9 55 -10 94 -2 61 -19 125
-30 113 -2 -2 -6 -52 -8 -110 -3 -91 -7 -114 -30 -157 -14 -28 -31 -56 -37
-63 -37 -45 -50 -62 -50 -68 0 -5 -7 -11 -16 -14 -10 -4 -13 -2 -7 7 4 6 -7 1
-24 -13 -17 -14 -28 -28 -26 -32 2 -5 -3 -8 -11 -8 -10 0 -16 -9 -16 -21 0
-17 -3 -19 -14 -10 -14 12 -46 5 -46 -10 0 -15 -22 -10 -37 9 -8 10 -11 11 -7
2 7 -13 6 -13 -11 0 -16 13 -19 13 -28 -1 -8 -13 -16 -15 -39 -7 -15 6 -28 15
-28 20 0 6 -6 5 -15 -2 -12 -10 -16 -9 -20 3 -4 9 -27 17 -66 21 -47 6 -68 3
-104 -13 -25 -11 -45 -18 -45 -15 0 3 -10 -4 -22 -16 -12 -11 -26 -20 -31 -20
-6 0 -3 -8 6 -18 22 -24 4 -46 -25 -31 -10 5 -18 7 -18 3 0 -3 -6 -1 -14 5
-14 12 -163 18 -173 7 -4 -3 12 -6 34 -6 22 0 46 -6 52 -13 14 -17 4 -28 -17
-20 -10 4 -14 3 -10 -2 15 -16 -52 -56 -207 -126 -37 -16 -80 -31 -112 -39
-34 -8 -43 4 -43 63 0 15 -4 27 -10 27 -5 0 -6 7 -3 17 4 10 2 14 -4 10 -6 -4
-14 -1 -16 5 -3 7 -6 4 -7 -7 -1 -18 -3 -17 -12 5 -6 14 -10 28 -10 33 1 4 -3
7 -8 7 -6 0 -10 6 -10 14 0 8 -6 16 -12 19 -10 3 -8 8 4 18 15 13 15 17 -7 61
-12 26 -26 63 -29 83 -4 20 -13 38 -21 41 -17 7 -132 -31 -125 -41 3 -4 -13
-17 -35 -29 -22 -11 -43 -25 -47 -31 -5 -6 -8 -6 -8 0 0 5 -20 -11 -45 -35
-37 -36 -50 -43 -81 -42 -21 1 -42 -2 -48 -7 -26 -20 -54 -18 -79 5 l-25 23
-6 -22 c-5 -18 -8 -20 -16 -7 -7 11 -10 5 -10 -24 0 -32 2 -36 14 -27 10 8 16
9 21 1 8 -13 -3 -32 -15 -25 -5 3 -10 -5 -12 -17 -2 -16 -10 -23 -25 -23 -13
0 -39 -15 -60 -33 -21 -18 -43 -32 -50 -32 -16 0 -74 -55 -98 -92 -9 -16 -23
-28 -30 -28 -7 0 -20 -11 -29 -25 -10 -14 -28 -31 -41 -37 -14 -6 -22 -15 -19
-19 3 -5 -1 -6 -9 -3 -8 3 -17 -1 -20 -9 -4 -10 2 -14 20 -13 15 1 30 -7 37
-17 9 -15 7 -22 -13 -38 -13 -10 -20 -19 -16 -19 3 0 -3 -13 -14 -28 -11 -16
-23 -40 -26 -53 -4 -17 -21 -33 -50 -47 -81 -39 -145 -111 -145 -162 0 -11 6
-20 13 -20 13 0 37 45 37 71 0 22 32 49 37 32 3 -8 13 -3 29 14 20 22 30 25
63 20 22 -3 44 0 50 6 7 7 17 5 32 -9 13 -10 19 -13 15 -6 -5 8 1 12 18 12 37
0 32 -14 -13 -34 -32 -15 -43 -16 -61 -6 -20 11 -22 10 -17 -4 5 -12 -3 -18
-33 -26 -41 -11 -60 -26 -87 -66 -8 -13 -20 -21 -26 -17 -6 3 -7 1 -3 -6 4 -6
-1 -29 -12 -50 l-21 -39 21 -38 c11 -22 24 -40 29 -42 5 -2 9 -8 9 -14 0 -5
10 -18 22 -28 18 -14 19 -18 6 -16 -27 3 -68 39 -68 59 0 10 -4 16 -8 13 -5
-3 -16 8 -26 25 -16 26 -19 28 -33 14 -8 -9 -13 -19 -9 -22 3 -4 -1 -15 -11
-25 -9 -10 -13 -18 -10 -18 3 0 -2 -24 -12 -52 -9 -29 -17 -57 -16 -63 2 -24
46 -93 68 -108 32 -21 97 -38 152 -39 33 0 48 -6 55 -19 16 -29 12 -44 -32
-119 -24 -39 -48 -81 -55 -93 -7 -12 -25 -33 -41 -47 -37 -33 -75 -99 -69
-122 3 -10 2 -16 -3 -13 -4 3 -11 -6 -14 -19 -3 -14 -21 -44 -39 -68 -75 -98
-143 -208 -129 -208 15 0 69 39 108 78 23 23 48 42 55 42 8 0 47 34 88 75 72
73 101 90 101 60 0 -8 -8 -15 -18 -15 -26 0 -94 -76 -98 -108 -1 -14 -13 -34
-26 -44 -28 -22 -45 -23 -28 -3 24 29 -1 15 -34 -20 -23 -23 -36 -31 -40 -23
-3 7 -3 3 0 -9 3 -13 1 -23 -3 -23 -5 0 -26 -16 -48 -35 -21 -20 -31 -33 -22
-29 10 3 17 1 17 -5 0 -6 -11 -13 -25 -17 -14 -3 -25 -10 -25 -14 0 -5 -10 -6
-22 -3 -13 3 -20 3 -16 -2 4 -4 0 -14 -8 -22 -8 -8 -12 -18 -9 -23 6 -10 -44
-30 -69 -27 -11 1 -20 -5 -21 -15 -2 -12 2 -15 13 -11 10 4 -3 -11 -28 -32
-25 -21 -37 -36 -27 -32 20 8 22 1 4 -17 -15 -15 -71 -31 -63 -17 9 14 -18 20
-35 7 -9 -6 -14 -17 -12 -23 3 -7 1 -13 -4 -13 -5 0 -9 -9 -10 -21 -1 -13 3
-19 11 -16 10 4 15 -8 20 -39 5 -41 2 -50 -50 -131 -31 -49 -82 -127 -114
-174 -32 -47 -66 -103 -75 -125 -21 -50 -33 -170 -16 -160 8 5 10 -1 6 -23 -3
-20 2 -42 17 -67 12 -21 17 -35 11 -31 -15 10 67 -215 116 -315 l43 -88 31 24
c50 38 235 95 247 76 4 -6 16 -2 31 10 14 13 25 17 27 10 3 -8 8 -8 18 1 11 9
14 8 14 -3 0 -15 -27 -31 -90 -53 -3 -1 -13 -5 -22 -9 -9 -4 -22 -5 -28 -1 -5
3 -10 2 -10 -3 0 -5 -11 -8 -24 -7 -14 2 -27 -3 -30 -10 -3 -8 -16 -12 -32
-10 -18 2 -34 -5 -48 -19 -12 -13 -29 -25 -39 -29 -9 -4 -21 -17 -27 -31 -5
-13 -14 -26 -21 -28 -10 -3 -7 -12 8 -34 11 -16 35 -57 52 -92 28 -55 34 -62
61 -62 l30 0 -19 37 c-10 21 -30 50 -44 65 -14 15 -23 29 -20 32 2 2 -1 15 -7
28 -22 44 27 -22 56 -77 50 -93 2 -85 486 -85 235 0 428 3 428 6 0 3 -4 13 -9
22 -5 9 -11 31 -14 47 -3 17 -9 41 -15 55 -27 67 -34 129 -21 185 7 30 16 55
21 55 5 0 7 4 4 9 -3 5 13 53 35 107 36 87 42 109 42 179 1 44 -5 99 -13 123
l-14 43 68 132 c38 72 70 134 72 136 2 2 10 -3 18 -11 8 -9 25 -15 38 -14 15
1 35 -12 60 -38 31 -34 38 -38 52 -27 13 11 17 10 23 -5 18 -49 72 -68 93 -35
4 8 16 11 29 6 15 -5 23 -1 28 12 4 10 11 21 16 24 11 8 77 -11 77 -23 0 -4 7
-8 15 -8 8 0 15 -5 15 -11 0 -5 4 -7 10 -4 5 3 12 28 16 55 4 27 10 47 15 44
20 -12 -48 129 -88 183 -23 32 -24 35 -16 180 5 117 9 141 16 113 5 -19 13
-43 18 -52 5 -10 9 -24 9 -32 0 -7 7 -19 15 -26 8 -7 15 -18 14 -24 -3 -23 1
-39 8 -33 9 9 43 -43 43 -65 0 -10 5 -18 10 -18 6 0 10 -5 10 -11 0 -10 78
-117 107 -147 7 -7 31 -43 53 -80 47 -77 71 -112 127 -179 43 -53 85 -117 97
-148 17 -42 35 -147 31 -177 -2 -18 -1 -37 4 -43 4 -5 13 -29 20 -52 6 -24 25
-73 42 -109 24 -55 31 -85 35 -168 3 -56 7 -117 8 -136 l3 -35 136 -2 c116 -2
135 0 131 12 -4 8 -11 12 -18 8 -7 -5 -7 -2 1 8 8 10 11 38 7 83 -3 47 -1 73
8 84 8 9 8 13 2 9 -8 -5 -11 5 -10 31 2 20 0 41 -2 46 -3 5 -7 21 -8 35 -9 69
-25 194 -34 261 -12 88 -30 402 -23 413 2 4 9 5 14 2 5 -4 9 1 9 9 0 22 21 31
34 15 13 -17 153 -18 204 -1 27 9 34 8 39 -4 6 -16 -3 -404 -12 -494 -6 -68
-11 -98 -26 -175 -6 -33 -12 -100 -14 -150 -2 -82 -8 -128 -21 -177 -5 -16 2
-18 53 -18 53 0 59 2 60 21 3 38 23 47 23 11 0 -27 4 -32 25 -32 22 0 24 4 23
35 -1 19 2 38 5 42 4 3 7 -3 7 -15 0 -11 4 -23 9 -27 6 -3 8 4 6 16 -3 16 0
19 12 14 16 -5 16 -4 1 12 -10 11 -16 36 -16 65 0 42 1 46 14 33 9 -8 12 -19
9 -25 -3 -5 -1 -10 4 -10 6 0 11 -5 11 -11 0 -5 -4 -8 -9 -5 -11 7 -8 -21 4
-31 4 -4 5 -2 0 6 -5 9 -4 12 2 8 6 -4 9 -27 7 -52 -3 -45 11 -69 27 -44 5 8
6 50 3 94 -3 44 -5 96 -4 115 0 37 2 43 44 152 19 49 26 85 26 138 0 114 23
193 85 290 29 47 73 122 97 168 l43 82 8 -312 c8 -305 3 -655 -9 -711 l-6 -27
416 0 416 0 0 23 1 22 18 -23 c19 -22 20 -22 331 -22 189 0 309 4 305 9 -3 5
-1 12 5 16 5 3 10 0 10 -9 0 -11 20 -14 111 -15 110 -1 110 -1 103 21 -3 13
-11 24 -15 26 -5 2 -9 14 -9 28 0 13 -13 48 -29 78 -40 73 -104 227 -126 303
-10 34 -22 60 -26 57 -5 -3 -9 2 -9 11 0 40 24 2 61 -95 21 -58 73 -174 115
-258 73 -149 76 -154 102 -147 33 8 54 24 46 36 -3 5 1 6 9 3 8 -3 18 0 23 7
5 8 3 10 -6 4 -9 -5 -11 -4 -6 4 4 6 12 9 17 5 15 -9 40 17 35 35 -3 9 9 32
29 55 35 38 44 52 25 41 -6 -3 -13 1 -16 10 -4 9 -13 14 -20 11 -8 -3 -14 -1
-14 5 0 5 7 12 15 15 8 4 15 13 15 21 0 8 -4 12 -8 9 -4 -2 -18 11 -31 30 -13
19 -27 34 -31 34 -8 0 -100 87 -100 95 0 3 -2 5 -5 5 -3 0 -20 16 -38 37 -17
20 -41 46 -52 58 -35 38 -55 65 -55 76 0 5 -4 7 -10 4 -5 -3 -10 -2 -10 3 0
25 16 16 51 -28 21 -26 42 -51 47 -54 16 -10 23 62 28 274 2 113 7 212 10 220
3 8 10 105 14 215 5 119 18 255 31 335 19 115 22 172 22 390 0 234 -18 479
-38 547 -6 17 -2 25 11 30 11 4 52 26 92 50 41 24 78 43 83 43 5 0 9 4 9 9 0
5 3 17 6 25 4 11 2 15 -8 11 -39 -15 -188 125 -188 176 0 23 -5 29 -21 29 -16
0 -19 -4 -14 -17 16 -37 18 -73 4 -73 -35 1 -79 62 -85 115 -1 19 -8 43 -13
52 -9 15 -10 14 -11 -10 0 -20 -4 -26 -12 -21 -10 6 -10 4 0 -7 19 -21 14 -42
-16 -69 -32 -28 -39 -89 -12 -98 12 -4 13 -3 3 10 -17 20 4 67 29 65 10 -1 18
-5 18 -9 0 -4 7 -8 16 -8 9 0 18 -9 21 -20 3 -11 10 -20 15 -20 6 0 7 -7 4
-16 -4 -10 -2 -13 6 -8 8 5 9 2 5 -10 -4 -10 -7 -20 -7 -22 0 -2 -12 -4 -27
-5 -16 0 -22 -3 -15 -6 6 -2 12 -11 12 -19 0 -8 4 -14 9 -14 20 0 41 13 41 25
0 20 37 58 43 43 5 -17 -11 -60 -26 -70 -15 -9 -157 -10 -259 -2 l-75 7 -17
64 c-17 65 -45 278 -46 344 0 31 10 47 67 109 37 40 112 109 167 153 178 143
266 247 224 262 -7 3 -85 9 -173 15 -88 6 -175 14 -194 18 l-34 7 39 26 c33
22 167 130 198 160 6 5 -2 44 -18 99 -19 62 -25 94 -18 103 5 6 13 37 17 67 6
45 5 53 -6 43 -21 -21 -29 -15 -29 22 0 22 -8 44 -20 57 l-20 22 0 -34 c0 -40
-41 -175 -73 -239 -32 -65 -88 -106 -142 -105 -67 1 -88 22 -146 143 -28 61
-55 108 -60 106 -15 -10 4 -80 31 -113 24 -30 27 -38 19 -67 -8 -29 -11 -61
-21 -210 -1 -16 2 -37 6 -46 6 -13 -2 -17 -40 -23 -69 -9 -167 -7 -184 4 -12
8 -11 10 6 10 11 0 29 9 39 20 10 11 22 17 26 14 5 -3 9 0 9 5 0 6 8 11 18 11
16 1 16 2 1 13 -15 11 -12 16 25 42 29 21 36 31 25 33 -15 3 -17 35 -17 315 0
178 3 288 7 257 5 -31 13 -65 19 -76 6 -12 8 -24 5 -28 -3 -3 -1 -6 5 -6 6 0
13 -12 15 -27 2 -16 5 -5 6 24 1 45 4 52 21 50 24 -2 26 -15 5 -23 -16 -7 -21
-49 -6 -59 5 -3 12 4 16 15 7 23 25 27 25 5 0 -21 27 -30 44 -16 11 9 15 9 19
-1 4 -11 6 -11 6 0 1 7 -6 26 -14 42 -8 16 -17 39 -19 52 -3 20 -8 23 -45 20
-40 -2 -42 -1 -36 20 31 99 225 128 318 48 15 -13 27 -28 27 -34 0 -6 16 -33
34 -61 19 -27 32 -53 30 -56 -2 -4 3 -12 11 -19 13 -10 15 -8 15 13 0 13 7 30
15 37 8 7 15 19 15 26 0 8 7 14 16 14 13 0 15 6 10 33 -4 17 -10 48 -13 67 -3
19 -12 39 -20 43 -7 4 -13 14 -13 21 0 7 -13 25 -30 41 -16 16 -30 35 -30 42
0 8 -4 12 -9 9 -12 -8 -36 23 -37 48 -9 249 -16 579 -15 676 4 244 6 866 2
903 -3 33 -6 37 -31 37 -23 0 -30 -5 -35 -29z m-1201 -2435 c7 -38 46 -82 46
-52 0 9 -4 15 -9 11 -5 -3 -13 0 -17 6 -7 12 15 31 31 25 6 -1 9 -17 7 -34 -3
-23 1 -32 12 -33 9 -1 21 -2 28 -3 7 -1 15 10 19 24 l6 25 11 -25 c10 -24 11
-24 11 -2 1 12 6 22 11 22 6 0 10 8 10 19 0 28 20 39 75 43 45 3 50 1 49 -18
0 -18 5 -20 33 -17 33 4 72 -10 85 -31 10 -14 10 -66 1 -66 -3 0 -15 8 -25 17
-21 19 -83 19 -105 1 -11 -9 -12 -13 -1 -19 7 -5 8 -9 2 -9 -11 0 -15 -29 -5
-32 3 0 19 -2 34 -3 20 -1 27 2 26 14 -3 37 0 44 16 31 18 -15 20 -46 3 -53
-9 -4 -8 -6 3 -6 8 -1 21 5 28 12 11 10 12 4 6 -33 -10 -71 -13 -77 -65 -123
-104 -94 -196 -108 -268 -42 -15 14 -30 25 -35 25 -4 0 -6 4 -2 9 3 6 0 13 -8
18 -7 4 -20 19 -29 33 -9 14 -25 35 -37 47 -12 12 -21 27 -21 33 0 16 -43 55
-60 55 -8 0 -16 8 -18 18 -4 18 13 24 23 7 9 -15 34 13 47 52 14 40 57 100 68
93 4 -3 11 -20 14 -39z m-1130 -410 c-6 -35 20 -53 57 -39 29 11 29 11 29 -24
0 -25 -8 -43 -30 -65 -17 -17 -24 -28 -16 -25 9 4 18 2 21 -3 4 -6 -1 -10 -9
-10 -9 0 -16 -4 -16 -10 0 -12 -89 -2 -107 12 -7 5 -16 7 -20 5 -5 -3 -10 6
-11 21 l-2 27 15 -23 c9 -12 26 -22 38 -22 22 1 22 1 2 12 -27 15 -35 28 -35
60 0 39 17 72 48 91 36 22 41 21 36 -7z m386 9 c38 -20 60 -53 60 -90 0 -37
-31 -75 -63 -76 -14 -1 -16 -3 -6 -6 33 -9 66 15 77 54 5 21 10 31 11 22 1
-11 9 -14 31 -11 17 2 32 8 35 12 3 5 22 4 42 -2 29 -8 42 -7 64 6 21 12 34
14 54 6 14 -5 23 -15 20 -21 -4 -5 1 -19 10 -29 9 -10 14 -24 10 -30 -4 -6 -3
-19 1 -28 4 -9 6 -29 5 -43 -2 -17 3 -27 11 -26 45 2 68 -4 68 -18 0 -8 11
-25 25 -37 14 -12 25 -28 25 -35 0 -7 7 -13 15 -13 8 0 15 -7 15 -15 0 -8 9
-24 21 -36 29 -29 99 -160 99 -185 0 -11 3 -24 8 -28 4 -4 7 -11 8 -14 2 -14
17 -48 29 -62 16 -20 42 -104 37 -119 -3 -9 -8 -9 -20 1 -14 12 -14 10 -3 -10
18 -34 6 -39 -15 -6 -14 20 -15 29 -6 32 6 2 12 8 12 14 0 6 -7 8 -15 4 -8 -3
-14 -1 -12 3 1 5 -7 17 -19 27 -19 18 -91 159 -98 194 -9 48 -20 70 -33 70 -9
0 -12 -6 -9 -17 3 -10 8 -31 12 -48 4 -16 11 -35 16 -41 5 -7 8 -16 7 -20 -3
-11 8 -40 27 -76 17 -32 18 -52 2 -42 -8 5 -9 0 -4 -17 15 -48 18 -205 6 -279
-15 -91 -16 -117 -6 -197 5 -41 4 -63 -3 -63 -5 0 -9 -18 -9 -40 1 -54 19 -52
63 8 45 61 73 120 86 184 l11 52 20 -40 c10 -21 20 -48 22 -59 2 -11 9 -19 16
-17 6 1 9 -2 5 -8 -3 -5 -2 -10 3 -10 14 0 10 -29 -5 -34 -7 -3 -13 0 -13 6 0
6 -3 9 -6 6 -3 -4 11 -30 30 -58 20 -29 37 -57 37 -64 8 -66 7 -67 -27 -35
l-23 21 2 -20 c0 -12 3 -19 5 -17 8 8 40 -39 35 -51 -9 -23 -40 -2 -62 43 -12
25 -24 43 -28 40 -3 -3 2 -20 11 -38 19 -38 21 -63 4 -53 -8 5 -9 -3 -5 -27
l6 -34 -15 30 c-13 28 -13 26 -9 -40 l4 -70 -9 59 c-12 74 -20 83 -20 22 0
-35 -3 -45 -12 -40 -10 6 -10 4 0 -7 6 -7 12 -19 12 -27 0 -12 -3 -12 -15 -2
-8 7 -15 21 -15 31 0 10 -9 23 -20 29 -11 6 -20 7 -19 3 5 -20 -15 -136 -20
-123 -6 16 -31 25 -31 12 0 -4 5 -13 12 -20 11 -11 9 -13 -8 -11 -4 0 -11 -5
-16 -13 -7 -10 -11 -10 -15 0 -7 18 -23 14 -16 -5 4 -10 2 -14 -4 -10 -6 4
-14 1 -16 -5 -3 -7 -6 -1 -6 15 -1 34 -17 35 -25 2 -5 -20 -13 -25 -36 -25
-17 0 -30 5 -30 10 0 6 -5 10 -11 10 -5 0 -7 -4 -4 -10 3 -5 2 -10 -2 -10 -18
0 -39 -55 -33 -85 8 -35 -1 -55 -47 -112 -35 -44 -69 -55 -79 -28 -4 8 -1 22
5 29 7 8 8 17 3 20 -5 3 -14 -11 -20 -32 -16 -50 -50 -104 -62 -97 -6 3 -10 1
-10 -5 0 -6 -4 -9 -9 -6 -5 4 -11 0 -14 -6 -2 -7 -7 -10 -11 -7 -3 3 3 23 13
45 10 21 21 59 24 84 3 25 4 37 1 27 -3 -9 -9 -15 -14 -12 -5 3 -11 -4 -15
-15 -4 -11 -11 -18 -16 -15 -5 4 -9 -5 -9 -19 0 -14 -5 -28 -10 -31 -6 -4 -8
-11 -5 -16 4 -5 2 -9 -3 -9 -6 0 -13 -11 -16 -25 -4 -14 -15 -34 -25 -44 -10
-10 -21 -31 -25 -46 -8 -32 -32 -54 -58 -55 -9 0 -20 -10 -24 -22 -3 -12 -12
-28 -20 -35 -10 -11 -13 -10 -17 5 -4 14 -6 14 -12 -5 -9 -28 -29 -31 -22 -3
3 11 0 20 -6 21 -8 0 -8 2 1 6 13 5 17 53 4 53 -8 0 -37 -88 -34 -102 1 -5 -3
-8 -8 -8 -6 0 -8 -10 -4 -24 3 -13 2 -26 -3 -29 -8 -5 -17 127 -18 265 0 25
-3 44 -7 42 -3 -2 -9 4 -12 13 -3 10 -3 -13 0 -52 12 -174 13 -210 5 -175 l-8
35 -2 -33 c0 -19 -5 -31 -11 -27 -5 3 -10 -3 -10 -14 0 -51 -28 -6 -65 105
-22 67 -46 128 -54 137 -7 9 -11 24 -7 32 3 8 1 15 -5 15 -5 0 -7 12 -3 28 4
22 3 24 -6 12 -9 -12 -11 -8 -7 20 3 19 3 29 0 22 -4 -10 -8 -10 -21 0 -10 8
-13 9 -9 1 4 -6 3 -14 -2 -17 -5 -4 -12 2 -15 11 -3 10 -4 7 -1 -7 2 -14 7
-35 10 -47 11 -34 -8 -27 -26 10 -9 17 -22 31 -28 29 -6 -1 -11 10 -11 25 0
14 -3 23 -7 19 -5 -4 -13 16 -20 46 l-11 53 1 -57 c1 -32 7 -60 13 -62 6 -2
11 -21 12 -41 1 -20 4 -40 7 -45 3 -5 0 -12 -7 -16 -7 -4 -10 -4 -6 1 4 4 3
14 -2 21 -6 6 -9 17 -8 24 2 7 -3 15 -11 18 -9 3 -11 0 -6 -8 5 -7 4 -11 -1
-7 -5 3 -8 20 -8 39 2 38 -11 68 -29 67 -9 0 -9 -2 1 -6 14 -6 16 -33 2 -33
-11 0 -14 16 -12 68 1 21 -3 32 -13 32 -9 0 -12 6 -8 17 4 11 3 14 -5 9 -8 -5
-12 1 -12 18 0 13 -5 26 -10 28 -6 2 -17 21 -25 43 -9 26 -14 32 -15 19 0 -25
-20 -36 -41 -24 -8 6 -17 4 -22 -3 -6 -8 -7 -7 -4 5 3 9 -3 26 -13 38 -11 13
-21 45 -25 78 -4 31 -9 65 -12 76 -3 11 -1 16 5 12 6 -4 10 2 9 13 0 11 -5 17
-10 14 -5 -3 -6 33 -3 83 5 83 5 87 -9 59 -11 -24 -14 -26 -15 -10 -1 11 -4
15 -7 7 -3 -7 0 -18 6 -25 11 -15 4 -57 -10 -57 -6 0 -12 6 -15 13 -8 21 -11
86 -3 82 7 -5 19 28 19 53 0 22 -19 13 -26 -12 -4 -17 -11 -22 -24 -19 -15 4
-16 10 -9 46 5 23 11 53 14 67 l5 25 -19 -23 c-33 -38 -34 -6 -1 62 22 45 30
74 27 95 -3 18 -1 29 4 25 12 -7 11 0 -2 30 -9 19 -9 29 0 39 6 8 13 28 15 46
2 17 6 35 10 38 3 3 0 13 -7 21 -8 11 -8 14 0 9 13 -8 23 11 15 31 -3 9 -8 8
-19 -5 -13 -17 -14 -16 -10 9 3 20 0 25 -11 20 -12 -4 -11 1 4 26 10 18 22 32
27 32 4 0 5 4 2 10 -3 5 2 22 12 37 10 15 12 24 6 20 -18 -11 -16 8 2 23 8 7
15 20 15 29 0 12 -2 13 -9 3 -6 -11 -10 -10 -15 3 -3 9 -12 15 -19 12 -8 -3
-20 -1 -28 5 -11 8 -11 9 3 5 11 -4 18 2 22 19 4 13 26 57 51 97 34 57 45 85
46 121 1 25 5 46 8 46 4 0 12 9 18 19 10 16 9 20 -3 25 -10 4 -13 2 -8 -7 5
-9 4 -9 -6 0 -11 10 -9 16 11 32 13 11 30 20 37 21 6 0 12 5 12 10 0 6 7 10
15 10 8 0 15 7 15 15 0 8 7 15 15 15 8 0 15 -2 15 -4 0 -2 3 -11 6 -20 4 -11
0 -16 -12 -16 -31 0 -8 -11 30 -13 20 -2 36 1 36 6 0 5 7 7 15 3 8 -3 15 -1
15 4 0 6 5 10 11 10 6 0 9 -9 6 -20 -7 -29 25 -56 76 -63 46 -6 105 2 88 12
-6 4 5 7 25 8 22 1 37 -4 41 -13 3 -8 11 -14 19 -14 8 0 14 -5 14 -11 0 -5 4
-8 9 -5 5 4 11 2 13 -3 4 -10 98 10 98 21 0 5 -4 8 -9 8 -13 0 -24 46 -27 107
-2 55 8 75 24 47 8 -15 11 -12 17 14 6 30 8 31 28 17 28 -19 46 -19 68 1 14
13 16 21 8 35 -12 23 -7 24 31 4z m-1847 -1877 c7 -4 6 -22 -3 -52 -7 -26 -10
-49 -6 -53 3 -3 6 3 6 14 0 11 11 30 25 43 21 20 25 21 25 6 0 -9 4 -15 9 -11
5 3 13 0 17 -6 4 -7 3 -9 -3 -6 -21 13 -8 -66 15 -91 24 -27 22 -35 -7 -37
-16 -1 -18 2 -10 22 8 21 6 23 -16 20 -13 -1 -28 -7 -32 -12 -4 -4 -2 -5 5 -1
6 4 12 2 12 -3 0 -6 -4 -11 -10 -11 -5 0 -14 -18 -21 -39 -8 -27 -16 -38 -26
-34 -21 8 -46 62 -35 76 5 7 9 46 10 87 1 70 21 140 31 108 2 -7 9 -16 14 -20z"/>
<path d="M3620 3078 c-14 -7 -48 -22 -77 -34 -32 -14 -62 -37 -80 -61 -15 -21
-34 -44 -40 -51 -14 -15 -17 -26 -5 -18 4 2 8 -14 8 -36 l2 -41 -18 23 c-18
24 -40 20 -40 -8 0 -33 -23 7 -29 49 -3 24 -12 44 -20 47 -10 3 -12 -5 -6 -39
4 -24 13 -53 19 -64 7 -11 21 -43 30 -72 10 -29 28 -67 40 -86 12 -18 38 -80
56 -138 19 -57 39 -111 46 -119 29 -37 43 -81 49 -158 4 -45 11 -82 16 -82 5
0 6 6 4 13 -3 6 4 18 15 25 17 11 20 10 20 -7 0 -11 4 -22 9 -25 5 -4 7 4 3
16 -5 20 -4 21 11 9 9 -7 14 -18 10 -24 -3 -6 -1 -7 5 -3 8 4 12 0 13 -11 0
-15 2 -14 11 4 10 21 16 22 117 20 188 -4 240 27 345 206 74 125 83 149 100
254 8 48 24 114 36 145 23 58 22 88 -3 88 -8 0 -19 -10 -25 -22 l-11 -23 0 25
c-1 28 -45 89 -57 78 -4 -4 -9 -31 -11 -60 -6 -75 -12 -100 -23 -93 -6 3 -10
-1 -10 -10 0 -9 -4 -14 -9 -11 -5 3 -15 -1 -22 -10 -15 -18 -69 -48 -69 -38 0
4 -8 0 -17 -8 -14 -12 -38 -15 -110 -13 -51 1 -90 -1 -87 -6 3 -5 -2 -9 -12
-9 -14 0 -14 2 -3 16 20 24 22 55 4 48 -8 -4 -15 -1 -15 5 0 11 15 15 35 11
11 -2 35 29 35 44 0 6 -4 6 -8 -1 -4 -7 -22 -16 -40 -19 -25 -5 -32 -3 -32 10
0 10 8 16 21 16 18 0 20 2 9 15 -11 13 -15 13 -21 3 -7 -10 -9 -10 -9 2 0 12
-2 13 -9 1 -6 -9 -10 0 -13 28 -2 22 0 41 5 41 4 0 6 4 3 9 -9 14 25 23 41 10
7 -7 16 -9 19 -6 9 8 -35 29 -46 22 -6 -3 -10 1 -10 10 0 13 -6 16 -25 11 -14
-4 -35 -2 -46 4 -14 8 -24 8 -33 1 -6 -6 -21 -8 -32 -5 -26 7 -22 44 7 70 19
17 26 45 12 43 -5 0 -19 -5 -33 -11z"/>
<path d="M6283 5982 c4 -237 3 -309 -9 -357 -8 -33 -14 -95 -15 -138 0 -42 -4
-75 -8 -73 -4 3 -7 -4 -7 -15 0 -10 8 -22 18 -25 10 -3 18 -11 17 -17 -4 -31
2 -250 6 -245 3 3 8 70 10 149 7 202 12 251 30 300 8 24 14 58 14 74 -1 21 -3
24 -6 10 -9 -35 -23 -41 -22 -9 0 33 16 116 18 96 0 -7 5 -11 10 -7 6 3 12
-12 14 -32 2 -21 4 23 5 97 1 74 5 145 8 158 4 13 2 22 -5 22 -7 0 -11 -37
-11 -116 0 -74 -4 -113 -10 -109 -5 3 -10 18 -10 33 0 15 -7 61 -16 102 -12
59 -14 110 -10 238 6 147 5 162 -10 162 -15 0 -16 -25 -11 -298z"/>
<path d="M6479 6163 c-1 -65 -1 -121 0 -125 0 -4 3 -154 6 -333 2 -179 6 -329
8 -333 2 -4 2 -29 1 -57 -1 -27 -3 -101 -4 -162 -1 -62 -6 -113 -11 -113 -5 0
-9 -5 -9 -11 0 -5 4 -8 8 -5 5 3 9 -1 9 -9 0 -8 -4 -12 -9 -9 -4 3 -8 -5 -8
-18 0 -13 3 -18 8 -12 5 9 10 9 18 0 8 -8 11 -56 9 -141 -2 -105 -5 -131 -19
-140 -20 -15 -20 -23 0 -21 19 1 20 -8 32 -529 7 -274 13 -324 16 -133 0 20 4
34 10 31 5 -4 6 9 2 33 -4 21 -7 53 -6 69 3 44 3 56 -5 213 -6 97 -5 142 2
142 13 0 23 -24 23 -52 0 -12 2 -19 5 -16 3 3 -1 57 -9 119 -16 123 -26 381
-42 1024 -2 116 -7 253 -9 305 -2 52 -4 164 -5 248 -2 178 -19 208 -21 35z"/>
<path d="M6644 6193 c9 -123 10 -269 2 -281 -3 -6 -2 -13 3 -16 5 -3 6 -21 1
-40 -4 -19 -6 -37 -3 -40 6 -6 10 -129 14 -466 2 -146 6 -303 10 -350 6 -76 4
326 -5 1015 -2 132 0 222 4 200 4 -22 8 -32 9 -22 0 9 5 17 9 17 4 0 9 12 10
27 2 29 -18 49 -30 30 -6 -9 -8 -9 -8 1 0 6 -5 12 -11 12 -8 0 -10 -25 -5 -87z"/>
<path d="M6829 6268 c0 -7 -2 -38 -4 -68 -2 -30 -8 -86 -13 -125 -9 -58 -8
-73 4 -86 20 -22 16 -135 -5 -131 -7 1 -24 -4 -37 -13 -13 -8 -25 -12 -25 -8
-1 5 -1 88 1 185 2 157 0 179 -14 184 -9 4 -19 4 -22 1 -3 -2 -5 -175 -5 -383
-1 -502 0 -608 5 -603 8 8 17 146 18 287 2 136 3 142 23 143 19 0 18 1 -3 10
-22 8 -23 13 -17 71 9 87 11 91 34 78 11 -5 29 -10 40 -10 18 0 20 -5 15 -42
-4 -23 -15 -50 -25 -62 -21 -22 -24 -36 -9 -36 6 0 10 5 10 10 0 6 6 10 14 10
19 0 22 -150 4 -162 -10 -6 -10 -10 1 -17 11 -7 9 -14 -13 -37 -14 -16 -26
-34 -26 -41 0 -7 -3 -13 -8 -13 -4 0 -13 -10 -21 -22 l-14 -23 24 20 c13 11
27 25 31 30 37 54 37 54 38 -32 0 -76 -1 -82 -22 -85 -12 -2 -23 -9 -26 -16
-3 -9 2 -10 22 -2 30 11 32 8 10 -14 -8 -9 -11 -16 -5 -16 6 0 9 -36 7 -99 -3
-97 -10 -126 -26 -116 -4 3 -7 -2 -6 -11 1 -11 -8 -17 -26 -19 -27 -4 -28 -2
-28 48 0 29 -4 58 -8 65 -10 14 -15 -122 -7 -149 6 -17 8 -18 31 -3 19 13 24
14 24 3 1 -10 4 -8 11 4 19 33 38 20 32 -22 -3 -21 0 -48 7 -61 7 -13 14 -60
16 -105 3 -70 0 -86 -16 -105 -10 -12 -23 -19 -28 -16 -6 3 -13 -1 -16 -10 -5
-12 0 -14 24 -10 25 3 30 1 30 -15 0 -17 -27 -26 -62 -20 -5 0 -8 -8 -8 -18 0
-11 -3 -26 -6 -34 -3 -10 2 -18 17 -22 17 -6 27 -1 40 16 16 20 20 22 29 9 10
-15 11 180 10 1013 0 167 3 287 9 287 11 0 20 -42 17 -81 -1 -16 2 -29 7 -29
8 0 7 -42 -4 -185 -4 -52 2 -126 10 -121 5 3 7 14 5 24 -2 9 0 31 5 47 8 26 9
23 11 -30 1 -33 6 -69 11 -80 7 -16 9 -14 6 13 -2 20 1 32 8 32 8 0 11 -23 10
-72 -1 -40 1 -84 5 -98 9 -27 11 104 10 498 0 160 3 242 10 242 5 0 10 5 10
11 0 5 -4 7 -10 4 -6 -4 -10 10 -10 34 0 23 -4 41 -10 41 -12 0 -12 57 0 85 8
18 9 18 10 -5 2 -14 1 -29 0 -35 -1 -5 2 -7 6 -3 11 12 11 81 0 98 -7 11 -5
11 8 -1 24 -22 34 -108 15 -120 -8 -5 -9 -9 -3 -9 8 0 12 -48 13 -157 0 -86 5
-159 10 -162 5 -4 11 -20 14 -36 3 -26 4 -25 6 10 4 59 5 200 3 363 l-2 142
-46 -2 c-41 -1 -47 -5 -56 -29 -5 -15 -18 -29 -28 -32 -13 -3 -17 -11 -14 -25
4 -12 0 -22 -10 -25 -9 -4 -16 -11 -16 -16 0 -14 27 -7 50 14 15 13 20 15 20
4 -1 -32 -27 -135 -40 -155 -9 -15 -10 -31 -4 -59 12 -49 34 -59 34 -14 0 38
10 33 15 -8 2 -15 7 -117 10 -227 4 -154 3 -202 -7 -214 -7 -9 -8 -13 -2 -9 6
3 11 -1 11 -9 0 -8 -5 -13 -11 -11 -6 2 -14 39 -17 83 -15 180 -22 244 -29
244 -3 0 -5 13 -2 29 2 16 -5 78 -17 137 -11 60 -21 155 -23 212 -1 57 -6 106
-10 108 -4 3 -8 -1 -9 -8z"/>
<path d="M7094 6269 c-3 -6 -1 -15 5 -19 9 -5 9 -11 -3 -22 -13 -14 -13 -18
-1 -34 19 -25 18 -94 0 -118 -8 -11 -15 -17 -15 -13 0 4 -9 -1 -20 -10 -25
-22 -25 -30 1 -38 13 -5 25 -2 30 6 14 23 22 2 14 -38 l-7 -38 -19 24 c-11 13
-23 20 -27 16 -4 -4 -1 -10 6 -12 7 -3 22 -25 33 -50 16 -36 19 -55 13 -99 -3
-30 -13 -62 -21 -70 -13 -12 -13 -15 1 -20 8 -3 12 -12 9 -21 -4 -11 -2 -14 8
-11 8 2 15 14 17 25 2 15 8 19 23 16 10 -3 19 -10 19 -15 0 -6 -7 -8 -15 -4
-13 4 -15 -8 -15 -77 0 -57 -3 -77 -10 -67 -5 8 -10 34 -10 58 0 23 -4 42 -9
42 -24 0 -52 -77 -33 -89 15 -9 21 -50 11 -83 -4 -16 -4 -29 2 -29 5 -1 14 -3
19 -4 6 -1 15 -3 22 -4 9 -1 9 -4 0 -13 -7 -7 -12 -30 -12 -53 0 -22 -4 -57
-9 -77 -5 -22 -5 -36 0 -32 5 3 9 -2 9 -10 0 -8 -4 -17 -9 -20 -5 -3 -7 -24
-4 -46 4 -26 2 -40 -6 -40 -6 0 -11 -7 -11 -15 0 -18 37 -38 53 -28 6 4 19 8
29 8 13 1 15 -2 7 -16 -5 -10 -9 -30 -9 -45 0 -26 -1 -26 -19 -10 -18 17 -19
17 -24 -1 -4 -16 -5 -15 -6 2 -1 21 -19 45 -33 45 -4 0 -8 -14 -8 -31 0 -27 2
-30 15 -19 13 11 15 8 15 -19 0 -19 -6 -34 -15 -37 -8 -4 -15 -12 -15 -19 0
-8 -8 -11 -20 -8 -17 5 -20 0 -20 -26 0 -35 -1 -35 34 -21 14 5 26 6 26 2 0
-12 -20 -38 -20 -27 0 6 -10 -10 -21 -35 -13 -30 -18 -53 -13 -70 4 -14 6 -29
5 -34 -1 -5 5 -4 14 4 14 11 14 14 -1 25 -24 17 -2 27 22 11 22 -16 25 -67 4
-74 -8 -3 -10 0 -6 9 4 8 0 5 -9 -6 -9 -11 -20 -19 -24 -18 -5 1 -8 -7 -7 -18
0 -10 4 -19 9 -19 4 0 13 0 20 0 8 0 7 4 -3 10 -13 8 -13 10 2 10 9 0 19 6 21
13 3 7 6 5 6 -6 1 -10 -8 -37 -19 -59 -11 -23 -20 -48 -20 -57 0 -35 -19 9
-23 54 -2 23 -29 38 -39 21 -4 -5 -2 -16 4 -24 13 -15 11 -119 -3 -142 -7 -13
-8 -12 -9 3 0 23 -24 17 -28 -8 -2 -9 0 -15 6 -11 5 3 13 -1 16 -10 11 -28 6
-62 -9 -68 -20 -7 -19 -42 3 -63 12 -13 16 -31 15 -63 l-2 -45 17 35 c9 19 19
37 22 40 3 3 5 11 6 18 3 39 5 45 11 39 3 -4 12 5 20 19 10 20 11 40 3 87 -5
34 -7 63 -5 66 3 2 5 -1 5 -8 0 -7 4 -10 9 -7 5 3 11 -1 14 -8 3 -8 1 -17 -6
-20 -9 -3 -9 -5 1 -5 6 -1 12 -9 12 -18 0 -27 20 -1 22 30 1 15 6 27 10 27 4
0 8 15 9 33 l1 32 10 -30 c6 -16 18 -38 26 -48 18 -20 26 -158 10 -154 -6 1
-12 -4 -13 -11 -2 -7 -1 -8 2 -2 7 16 23 1 23 -22 0 -13 -5 -18 -14 -15 -8 3
-17 1 -20 -6 -2 -7 -5 13 -6 43 -2 88 -18 28 -25 -92 -3 -57 -7 -136 -10 -175
-2 -43 0 -73 5 -73 13 0 13 -47 -1 -55 -6 -4 -7 -19 -2 -38 4 -18 8 -54 8 -82
0 -35 4 -49 13 -47 6 1 13 -6 14 -15 5 -56 4 -79 -4 -89 -4 -6 -10 -53 -12
-104 -4 -80 -2 -93 12 -97 15 -4 17 -29 21 -231 1 -125 6 -267 10 -317 4 -49
5 90 3 310 -3 269 0 438 8 515 7 63 13 214 14 336 1 190 3 221 16 220 13 -1
15 24 17 162 1 120 -2 162 -10 159 -9 -3 -11 -46 -8 -155 2 -99 0 -152 -7
-152 -8 0 -17 189 -14 328 0 23 -12 29 -23 12 -12 -20 -25 2 -25 41 0 24 7 47
17 57 15 16 16 15 10 -9 -4 -16 -1 -33 8 -45 14 -17 15 -12 14 56 -2 114 -2
114 16 96 10 -10 14 -32 12 -73 -1 -32 2 -59 7 -60 5 -2 9 21 9 50 -1 28 3 59
7 67 6 9 9 -14 9 -59 0 -64 -3 -74 -20 -78 -10 -3 -19 -10 -19 -15 0 -6 6 -8
14 -5 19 8 22 -4 21 -110 0 -50 3 -86 7 -79 4 7 8 99 9 204 1 180 3 192 20
192 11 0 19 -7 19 -15 0 -8 -4 -15 -10 -15 -5 0 -10 -9 -10 -21 0 -13 4 -18
13 -13 6 4 9 4 5 0 -4 -5 -3 -18 1 -30 4 -11 5 -43 1 -71 -4 -28 -8 -38 -9
-22 -1 29 -21 39 -21 10 1 -21 24 -55 33 -47 6 7 21 -176 20 -255 -1 -33 -6
-57 -14 -62 -11 -6 -11 -11 -1 -21 14 -14 16 -38 4 -38 -5 0 -14 12 -21 26
-15 33 -23 26 -28 -26 -3 -31 -1 -40 12 -40 8 0 15 -5 15 -11 0 -5 4 -8 9 -4
5 3 11 -5 13 -17 2 -12 9 -24 17 -26 14 -5 13 147 -8 708 -3 91 -2 201 2 245
7 65 2 458 -8 645 -7 115 -7 241 -1 247 3 4 6 -11 6 -33 0 -29 3 -35 10 -24 5
8 10 25 10 38 0 12 5 22 10 22 14 0 13 -33 -2 -48 -9 -9 -9 -12 1 -12 10 0 12
-18 8 -77 -3 -43 -10 -79 -16 -81 -6 -2 -6 -15 0 -35 5 -18 9 -74 9 -125 0
-61 4 -91 10 -87 6 4 8 10 5 15 -3 4 -1 19 4 32 8 19 10 15 10 -24 1 -30 -6
-59 -18 -79 -16 -26 -19 -52 -20 -162 0 -73 4 -141 9 -152 6 -13 9 21 9 98 1
64 5 117 10 117 5 0 8 -66 8 -147 -1 -82 2 -175 7 -208 4 -33 4 -55 -1 -48 -4
6 -8 -32 -8 -85 0 -54 1 -87 3 -74 2 12 8 22 13 22 5 0 10 12 10 28 l1 27 9
-30 c6 -23 7 -15 5 33 -2 60 8 85 17 40 2 -13 5 2 5 32 1 54 1 54 -12 25 -12
-28 -13 -25 -16 55 -1 47 -4 114 -5 150 -7 158 -6 471 0 538 5 56 4 72 -6 72
-10 0 -10 3 -1 12 8 8 12 52 12 131 0 109 -1 119 -17 113 -17 -6 -17 -5 0 8
24 18 21 27 -6 22 -21 -4 -23 -1 -21 35 2 37 0 39 -25 36 -18 -2 -27 -10 -29
-25 -3 -16 1 -20 12 -16 11 4 13 0 9 -15 -3 -12 -9 -21 -14 -21 -4 0 -10 -15
-12 -32 -2 -18 -5 11 -5 65 l-2 97 -49 0 c-42 0 -49 -3 -55 -22 -9 -36 -7 -41
9 -28 12 10 15 10 15 -2 0 -8 -5 -19 -12 -26 -14 -14 -20 -142 -7 -142 5 0 9
15 9 33 0 21 8 41 20 52 21 19 24 16 34 -35 3 -14 3 1 0 33 -3 39 -1 57 7 57
9 0 10 -23 6 -80 -3 -44 -1 -80 4 -80 4 0 6 -6 3 -14 -3 -8 -15 -11 -30 -8
-23 4 -24 2 -25 -49 -1 -46 -3 -49 -9 -24 -7 28 -8 28 -9 5 0 -14 4 -42 10
-63 11 -41 4 -62 -11 -37 -9 13 -10 13 -11 0 0 -8 -2 -27 -3 -42 -1 -17 3 -28
11 -28 8 0 13 -12 13 -30 0 -17 -5 -30 -12 -30 -10 0 -13 -37 -13 -150 -1
-128 2 -151 15 -155 19 -6 26 -105 9 -137 -8 -14 -8 -18 0 -14 7 5 11 -4 11
-24 0 -18 -6 -33 -15 -36 -21 -8 -19 -24 3 -25 10 0 12 -3 5 -6 -15 -6 -17
-33 -3 -33 6 0 10 -11 10 -24 0 -32 -20 -45 -21 -14 -1 16 -3 18 -6 6 -2 -9 1
-27 8 -39 9 -17 9 -24 0 -27 -6 -2 -11 -24 -11 -48 0 -25 4 -43 9 -40 5 4 12
0 15 -6 5 -10 7 -10 12 -1 3 7 12 9 19 6 12 -4 14 8 12 64 -1 37 0 84 4 103
l6 35 12 -29 c7 -19 10 -57 7 -100 -5 -77 -13 -106 -28 -106 -5 0 -6 5 -3 10
8 12 -15 13 -34 1 -9 -6 -10 -11 -2 -15 8 -5 7 -11 -1 -20 -20 -21 -38 6 -38
57 0 39 -2 44 -19 40 -13 -3 -21 2 -26 17 -4 12 -4 24 -1 27 3 4 6 -1 6 -9 0
-10 6 -14 18 -12 13 4 17 16 17 59 0 29 -2 52 -5 50 -3 -2 -5 133 -5 298 0
166 -4 305 -9 308 -5 4 -6 12 -2 17 4 6 9 128 12 272 l5 260 -45 0 c-25 0 -48
-5 -52 -11z m188 -532 c3 -33 18 -36 19 -4 1 21 1 21 9 -3 10 -32 12 -110 3
-109 -20 3 -30 -2 -30 -16 0 -8 4 -15 8 -15 4 0 5 -15 2 -34 -4 -27 -1 -38 16
-52 11 -10 21 -25 21 -33 0 -10 -7 -8 -24 8 l-23 22 4 -28 c3 -15 12 -33 20
-40 12 -10 12 -13 -4 -23 -17 -10 -16 -11 3 -7 20 4 20 2 10 -24 -6 -16 -14
-29 -18 -29 -5 0 -3 -8 3 -17 8 -14 6 -27 -5 -53 -17 -39 -19 -32 -16 59 2 51
-1 62 -12 56 -7 -5 -10 -5 -6 0 4 4 2 17 -4 29 -27 50 -27 215 0 209 17 -4 13
85 -4 91 -19 7 -18 26 1 26 8 0 15 5 15 12 0 22 10 1 12 -25z"/>
<path d="M7439 6254 c-3 -17 -2 -40 2 -50 6 -18 7 -18 11 1 6 20 6 20 7 0 0
-12 -4 -26 -11 -33 -6 -6 -13 -20 -14 -29 -3 -17 -2 -17 10 0 12 16 15 14 31
-19 12 -26 22 -35 35 -31 15 4 18 -3 19 -46 0 -28 -4 -56 -10 -64 -6 -7 -7
-13 -2 -13 5 0 7 -16 5 -37 -4 -31 -2 -35 13 -30 9 4 22 7 28 7 9 0 9 2 1 8
-15 9 -17 27 -14 127 1 57 4 73 10 55 5 -17 8 -19 9 -7 1 9 7 17 14 17 9 0 11
-27 9 -111 -3 -79 -1 -109 7 -105 7 5 11 71 11 198 0 169 -2 189 -16 184 -9
-3 -18 -6 -20 -6 -3 0 0 -8 5 -17 5 -10 11 -34 12 -53 3 -28 1 -34 -13 -32 -9
1 -19 -5 -22 -15 -2 -10 -3 16 0 57 2 42 0 67 -4 56 -8 -17 -9 -17 -25 -1 -9
9 -24 15 -32 13 -12 -2 -8 -12 17 -42 17 -21 25 -37 17 -34 -7 3 -25 1 -39 -3
-24 -9 -24 -8 -6 6 17 13 18 15 3 15 -12 0 -17 9 -18 28 0 24 -1 24 -8 7 -8
-19 -9 -18 -13 5 -3 23 -4 23 -9 -6z"/>
<path d="M6197 6048 c4 -13 8 -39 7 -58 0 -19 -3 -341 -8 -715 -5 -374 -6
-678 -3 -675 3 3 8 172 11 375 3 204 9 533 12 733 7 339 6 362 -10 362 -14 0
-16 -5 -9 -22z"/>
<path d="M2110 5921 c-7 -14 -10 -66 -8 -144 3 -117 2 -122 -17 -119 -15 3
-17 1 -8 -8 8 -9 9 -20 2 -37 -6 -16 -5 -22 1 -18 6 3 10 13 10 21 0 8 5 14
10 14 14 0 13 -86 -1 -112 -6 -11 -7 -18 -1 -14 5 3 12 -13 15 -37 4 -26 1
-44 -6 -49 -8 -5 -8 -13 1 -33 7 -14 12 -38 13 -53 0 -25 1 -25 9 -6 9 22 6
602 -3 611 -3 2 -10 -5 -17 -16z"/>
<path d="M4730 5920 c0 -11 110 -100 123 -100 12 0 117 -74 148 -104 15 -13
30 -22 33 -19 3 4 6 -2 7 -13 0 -12 4 -8 10 11 5 19 5 31 -1 33 -6 2 -10 24
-10 49 0 40 -1 43 -16 29 -11 -12 -20 -13 -34 -6 -10 6 -28 10 -40 10 -12 0
-53 21 -93 47 -69 46 -115 73 -123 73 -2 0 -4 -4 -4 -10z"/>
<path d="M1189 5823 c0 -21 -9 -63 -19 -93 l-18 -55 -5 40 c-3 31 -5 27 -5
-20 -1 -88 -1 -92 -10 -78 -4 7 -7 -7 -7 -30 0 -23 -4 -78 -7 -122 -5 -49 -4
-70 1 -55 5 14 9 39 10 57 1 17 6 44 13 60 6 15 13 37 15 48 4 24 25 37 38 24
13 -13 9 -367 -4 -383 -6 -7 -6 -17 -1 -26 5 -8 7 -45 4 -83 -2 -37 -6 -250
-8 -475 -2 -224 -5 -411 -6 -417 -1 -5 -1 -12 0 -15 1 -3 3 -24 5 -48 1 -23 5
-46 9 -49 6 -7 8 14 10 149 1 88 10 116 27 85 8 -13 14 -15 29 -7 40 21 41 16
35 -147 -5 -123 -3 -158 7 -164 8 -5 13 -31 14 -71 0 -35 1 -97 3 -138 4 -125
4 -129 -19 -123 -11 3 -20 11 -20 19 0 8 6 11 16 7 10 -3 6 4 -9 21 -13 14
-26 26 -29 26 -3 0 -4 -28 -2 -62 2 -49 7 -66 23 -79 26 -21 27 -32 3 -24 -16
4 -19 0 -20 -25 0 -18 4 -30 12 -30 7 0 21 -9 32 -21 14 -16 16 -22 5 -28 -11
-7 -11 -9 0 -13 8 -3 11 -9 7 -12 -3 -4 -15 1 -26 12 -19 19 -20 19 -25 1 -6
-22 17 -44 38 -35 17 6 21 -9 5 -19 -5 -3 -10 -12 -10 -18 0 -7 4 -6 10 3 6
10 10 -43 11 -160 0 -121 4 -166 10 -145 5 17 8 292 7 616 -2 512 0 588 13
602 10 10 14 27 11 52 -3 26 -7 33 -13 24 -6 -9 -9 -2 -8 21 0 29 2 31 9 15 6
-14 9 -15 10 -5 3 37 19 -34 21 -95 1 -36 7 -69 12 -72 7 -4 8 21 3 73 -13
141 -17 169 -26 197 -5 17 -5 27 1 27 5 0 9 5 9 11 0 5 -4 8 -9 5 -12 -8 -19
39 -27 174 -10 185 -11 352 -2 390 13 54 19 139 9 115 -11 -26 -20 231 -9 262
4 13 3 25 -2 28 -6 4 -6 14 1 28 7 12 8 22 3 24 -5 2 -8 21 -6 43 2 22 0 40
-5 40 -6 0 -13 -69 -17 -157 -3 -87 -12 -192 -19 -233 l-13 -75 -8 65 c-4 36
-16 108 -27 160 -11 52 -22 142 -25 200 -3 80 -7 108 -19 117 -11 7 -12 13 -6
18 14 8 14 85 1 85 -5 0 -10 -17 -11 -37z m71 -501 c7 -59 1 -134 -11 -126 -5
3 -9 0 -9 -5 0 -15 13 -14 29 2 11 10 12 3 7 -40 -4 -29 -3 -53 2 -53 5 0 12
34 15 76 14 157 25 110 28 -116 5 -351 4 -391 -3 -460 -4 -36 -7 -96 -8 -133
0 -44 -4 -66 -10 -62 -6 4 -7 12 -3 18 4 8 1 7 -9 -1 -13 -10 -17 -10 -22 0
-3 7 -4 1 -1 -14 6 -33 -4 -36 -28 -8 -10 12 -21 19 -25 16 -9 -5 -6 445 4
619 7 126 11 213 13 305 1 67 21 56 31 -18z"/>
<path d="M7590 5689 c0 -23 -4 -30 -14 -26 -25 10 -33 -15 -35 -103 -1 -70 2
-90 19 -115 26 -40 25 -63 -6 -119 -16 -29 -23 -53 -19 -64 5 -12 12 -2 25 38
10 30 19 46 19 35 0 -28 -24 -139 -35 -156 -5 -8 -7 -22 -5 -32 2 -16 -1 -17
-18 -8 -20 11 -21 9 -20 -104 0 -63 -3 -120 -7 -126 -4 -7 -1 -10 7 -7 9 3 13
16 11 34 -2 19 0 25 6 16 6 -9 12 -6 20 13 7 15 10 31 7 36 -4 5 -2 9 3 9 6 0
13 11 16 25 4 14 11 25 16 25 13 0 13 -1 -5 -38 -9 -17 -21 -72 -26 -123 -9
-81 -8 -93 5 -101 9 -5 16 -15 16 -23 0 -7 5 -15 12 -17 8 -3 8 -9 -1 -24 -12
-19 -12 -19 -6 0 5 19 5 19 -12 3 -20 -17 -29 -67 -13 -67 6 0 10 -36 10 -86
0 -54 4 -83 10 -79 6 3 10 -1 10 -10 0 -10 -5 -13 -12 -9 -7 5 -9 0 -6 -14 4
-15 2 -19 -9 -15 -10 4 -13 15 -11 35 3 16 1 31 -4 34 -8 5 -9 -3 -13 -93 -3
-51 8 -71 19 -35 3 9 3 -1 0 -23 -6 -48 -12 -206 -7 -202 2 2 10 32 18 68 l14
64 -5 -80 c-2 -44 -4 -113 -4 -154 1 -50 -2 -71 -9 -66 -6 3 -11 -1 -11 -9 0
-9 5 -16 10 -16 6 0 10 -7 10 -15 0 -8 -6 -15 -12 -15 -9 0 -9 -3 -2 -8 13 -9
18 -88 5 -96 -6 -4 -6 -18 -1 -36 5 -17 9 -34 10 -38 6 -52 14 -82 21 -82 9 0
11 83 10 397 -1 130 1 143 18 152 14 8 22 7 31 -4 19 -23 38 -18 38 11 0 22
-4 25 -24 21 -19 -3 -24 0 -24 15 0 11 -9 22 -20 25 -15 4 -20 14 -20 39 0 19
5 34 11 34 6 0 9 -7 5 -15 -3 -8 -2 -15 2 -15 18 0 32 26 32 57 0 25 -4 31
-15 27 -8 -4 -15 -15 -15 -26 0 -10 -4 -17 -8 -14 -11 7 -3 150 9 154 5 2 5
12 -1 22 -7 13 -4 24 15 46 14 16 25 33 25 37 0 5 5 5 10 2 9 -6 15 48 10 103
-1 12 6 25 14 28 17 7 22 54 6 54 -6 0 -5 8 2 20 11 17 10 22 -1 29 -7 5 -21
7 -30 4 -20 -5 -41 63 -47 152 -12 174 -15 212 -18 228 -2 9 0 17 5 17 5 0 10
-11 10 -25 1 -14 3 -29 4 -35 1 -5 3 -13 4 -17 1 -5 11 12 22 37 12 28 18 35
14 17 -3 -17 -1 -26 6 -25 6 2 14 -3 17 -11 3 -10 0 -12 -10 -8 -17 6 -35 -21
-42 -65 -4 -25 -2 -27 14 -18 13 7 19 6 23 -5 4 -10 1 -12 -11 -8 -13 4 -13 2
2 -9 16 -13 22 -13 33 -2 10 10 11 28 2 91 -9 67 -15 82 -41 106 -26 24 -57
29 -43 7 3 -5 1 -11 -3 -14 -9 -5 -8 82 2 312 3 61 1 102 -4 102 -6 0 -10 -14
-10 -31z"/>
<path d="M1723 5578 c7 -117 -5 -217 -21 -191 -4 6 -7 -38 -7 -98 0 -118 11
-152 14 -42 1 37 6 72 11 77 8 8 12 -105 11 -314 0 -66 -12 -464 -14 -472 -1
-6 6 -12 15 -13 14 -2 16 1 10 13 -5 10 -5 67 -1 127 5 61 8 173 7 250 0 77 2
149 7 160 5 16 5 17 -4 5 -8 -11 -11 19 -11 113 0 83 4 126 10 122 6 -4 10 19
11 62 1 97 7 184 13 191 3 3 6 -19 6 -49 0 -31 4 -49 8 -41 10 15 -4 136 -21
177 -11 26 -13 13 -18 -110 l-5 -140 0 148 c1 120 -2 147 -13 147 -12 0 -13
-21 -8 -122z"/>
<path d="M5309 5363 c0 -92 -3 -264 -13 -788 -3 -176 -1 -298 3 -283 14 44 21
50 38 37 12 -11 13 -9 8 13 -12 48 -31 98 -36 94 -3 -3 -5 4 -5 14 0 11 3 20
6 20 3 0 5 27 5 60 0 33 -4 60 -10 60 -7 0 -7 3 0 8 12 8 12 11 16 243 2 98 7
175 12 172 4 -2 7 1 7 6 0 6 -5 11 -10 11 -7 0 -7 6 -1 19 6 10 7 22 3 26 -10
10 -9 145 2 145 5 0 4 6 -1 13 -6 6 -9 21 -7 32 2 11 4 38 4 60 0 22 -1 59 -1
83 0 23 -4 42 -9 42 -6 0 -10 -38 -11 -87z"/>
<path d="M1451 5288 c-3 -48 -3 -151 0 -180 1 -16 4 -13 9 12 5 25 7 8 7 -55
0 -64 -2 -77 -6 -45 -8 61 -17 40 -19 -45 -3 -90 -22 -257 -32 -270 -4 -5 -10
-23 -14 -40 -6 -30 -6 -30 8 -6 12 23 14 23 18 5 3 -10 5 -99 4 -196 -1 -216
11 -212 17 5 3 154 9 186 27 157 12 -19 12 -3 0 38 -8 29 -14 145 -11 206 1
15 4 16 16 6 13 -11 15 -49 13 -261 -2 -137 1 -249 5 -249 12 0 15 17 21 109
8 113 18 118 15 8 -1 -48 1 -90 5 -94 8 -8 8 -10 8 319 0 158 4 280 9 284 5 3
9 -24 10 -63 1 -83 6 -133 13 -141 3 -3 5 57 4 134 -1 76 2 167 6 202 6 43 5
62 -3 62 -6 0 -11 -16 -11 -35 0 -19 -5 -35 -11 -35 -7 0 -10 -20 -7 -55 1
-30 -1 -55 -5 -55 -4 0 -7 43 -6 95 1 52 5 93 9 90 4 -3 11 6 14 19 3 13 9 32
12 43 4 13 0 11 -15 -7 l-21 -25 0 33 c0 17 -4 32 -9 32 -14 0 -21 -39 -22
-130 l-2 -85 -8 90 c-4 50 -10 100 -12 112 -6 37 -17 39 -18 2 l-2 -34 -7 40
-7 40 -2 -37z"/>
<path d="M4674 5185 c-10 -15 -34 -33 -51 -42 -18 -8 -33 -20 -33 -25 0 -6 11
-3 25 6 31 21 34 20 28 -5 -6 -23 -73 -100 -73 -84 0 6 -5 3 -10 -5 -9 -13
-12 -13 -25 4 -13 17 -14 15 -20 -20 -8 -43 -49 -114 -66 -114 -6 0 -9 9 -6
20 3 11 1 20 -4 20 -5 0 -9 -9 -9 -20 0 -13 -5 -18 -15 -14 -10 4 -13 2 -10
-8 10 -25 -21 -71 -51 -74 l-27 -3 22 20 c22 21 28 39 11 39 -5 0 -21 -22 -35
-50 -26 -51 -35 -84 -11 -41 7 13 16 20 19 15 6 -10 -9 -32 -36 -53 -16 -12
-17 -12 -11 5 5 18 5 18 -6 1 -9 -13 -9 -22 0 -32 9 -11 7 -12 -9 -8 -15 4
-24 -3 -36 -29 -10 -18 -24 -41 -32 -50 -8 -9 -12 -22 -8 -28 3 -6 2 -9 -3 -8
-15 5 -72 -72 -65 -88 3 -8 1 -20 -5 -27 -7 -8 -5 -19 8 -34 24 -30 48 -29 60
3 13 32 50 81 50 65 0 -6 15 -11 33 -11 23 0 34 5 34 15 0 8 -6 15 -14 15 -15
0 -18 16 -3 25 5 3 7 12 3 20 -3 8 0 15 7 15 6 0 8 -4 5 -10 -9 -14 11 -12 23
3 12 14 11 67 -1 60 -11 -7 6 26 37 72 13 19 27 31 31 27 5 -4 5 -1 1 5 -14
25 85 123 116 115 4 -1 5 4 2 12 -9 23 101 61 169 59 49 -1 58 1 53 14 -3 8
-6 21 -6 29 0 8 -10 14 -24 14 -35 0 -57 -10 -49 -23 4 -7 0 -8 -11 -4 -10 4
-20 7 -22 7 -2 0 -4 4 -4 9 0 5 11 12 25 15 14 4 25 12 24 19 -1 7 3 25 10 41
16 39 9 53 -14 30 -18 -18 -18 -18 -11 11 4 16 11 32 14 35 10 7 34 62 29 66
-2 3 -13 -7 -23 -21z"/>
<path d="M2590 5146 c0 -31 20 -55 78 -95 l57 -39 39 -113 c40 -120 145 -351
155 -344 4 2 15 -17 25 -41 10 -24 22 -44 27 -44 11 0 12 17 1 22 -18 7 -141
297 -161 382 -24 97 -39 126 -91 171 -19 16 -46 41 -60 55 -61 58 -70 65 -70
46z"/>
<path d="M3690 5041 c0 -65 5 -142 10 -171 17 -89 81 -150 157 -150 39 1 108
34 139 67 62 66 204 307 189 321 -13 13 -205 8 -205 -5 0 -31 -24 -61 -58 -71
-36 -11 -153 -9 -184 3 -18 7 -35 83 -24 110 3 9 0 15 -9 15 -12 0 -15 -21
-15 -119z"/>
<path d="M3230 5046 c0 -8 6 -17 13 -20 6 -3 -13 -3 -43 0 -52 5 -54 4 -35
-12 14 -11 15 -15 4 -11 -21 7 -44 -8 -35 -22 4 -6 18 -8 31 -5 43 11 156 -40
137 -61 -4 -5 -1 -5 6 -1 13 8 50 -30 44 -46 -1 -5 3 -7 10 -5 7 1 12 -5 13
-13 0 -8 7 -15 15 -15 8 0 29 -22 47 -50 18 -27 45 -68 60 -89 49 -69 123
-204 123 -226 0 -21 21 -18 45 6 l26 26 -28 32 c-25 28 -92 134 -147 232 -11
19 -25 34 -32 34 -29 0 -127 160 -128 210 -1 24 -6 35 -16 35 -11 0 -15 -10
-14 -35 1 -19 0 -29 -3 -22 -3 6 -11 12 -19 12 -8 0 -14 6 -14 13 0 16 -32 47
-48 47 -7 0 -12 -6 -12 -14z"/>
<path d="M3280 4833 c0 -6 8 -14 18 -16 12 -3 10 -5 -7 -6 -19 -1 -23 -5 -19
-26 3 -14 1 -25 -3 -25 -5 0 -9 -25 -9 -56 0 -45 -4 -60 -20 -74 -13 -11 -17
-21 -10 -25 5 -3 10 -1 10 4 0 6 5 11 11 11 6 0 9 -6 6 -14 -4 -9 2 -12 19
-10 15 1 24 -3 24 -11 0 -8 4 -17 10 -20 6 -4 7 1 3 12 -6 16 -5 16 9 5 11 -9
29 -11 51 -7 l35 7 -4 56 c-3 32 -6 75 -8 98 -1 22 -6 46 -10 52 -4 7 -5 16
-2 21 3 4 -4 17 -16 27 -12 11 -18 13 -14 7 4 -8 1 -13 -8 -13 -9 0 -16 4 -16
9 0 5 -11 8 -25 7 -14 0 -25 -6 -25 -13z"/>
<path d="M7396 4755 c4 -8 2 -15 -3 -15 -5 0 -9 -28 -9 -62 1 -45 5 -62 14
-60 9 1 12 -17 12 -68 0 -63 -2 -70 -20 -70 -11 0 -20 -6 -20 -14 0 -8 9 -18
20 -21 21 -7 28 -25 10 -25 -5 0 -10 -8 -10 -17 0 -15 -2 -16 -10 -3 -18 28
-11 -76 10 -152 21 -77 27 -137 8 -85 -5 15 -13 27 -18 27 -10 0 7 -69 21 -86
5 -6 7 -13 5 -15 -2 -2 -6 -17 -9 -34 -3 -16 -9 -39 -13 -49 -5 -14 -4 -17 4
-12 7 4 12 14 12 22 0 8 4 12 10 9 5 -3 8 -16 6 -28 -3 -12 -5 -47 -5 -78 -1
-43 -5 -58 -17 -63 -12 -4 -15 -2 -10 9 3 8 1 15 -4 15 -4 0 -14 -16 -20 -35
-6 -19 -15 -35 -20 -35 -4 0 -6 -9 -3 -20 3 -11 13 -20 23 -20 15 0 35 -36 33
-60 0 -3 -3 -42 -7 -87 -4 -54 -3 -83 4 -83 6 0 10 29 10 70 0 39 4 70 9 70 5
0 8 -8 7 -17 0 -10 4 -17 11 -16 8 2 14 -19 19 -58 4 -33 10 -56 13 -50 4 6 4
44 0 84 -15 152 -19 231 -25 505 -5 219 -4 282 6 282 7 0 10 -7 6 -15 -3 -8 0
-20 7 -27 15 -16 21 -35 21 -70 1 -34 16 -25 16 9 0 31 -37 113 -51 113 -5 0
-9 76 -9 175 0 167 -1 175 -20 175 -13 0 -18 -5 -14 -15z"/>
<path d="M2396 4548 c-21 -12 -20 -30 2 -59 11 -13 22 -37 26 -54 l6 -30 -30
35 c-18 20 -30 46 -31 65 -1 18 -3 23 -6 12 -3 -10 -2 -29 1 -41 8 -31 62 -98
92 -114 14 -7 22 -17 19 -23 -4 -5 -3 -9 2 -8 15 4 63 -13 63 -21 0 -5 -16 -6
-37 -3 -24 4 -34 3 -30 -5 4 -6 0 -8 -10 -5 -24 7 -111 114 -124 152 -19 55
-50 33 -48 -32 l1 -32 7 30 7 30 7 -30 c4 -17 29 -63 56 -102 l49 -72 -41 21
c-48 24 -97 73 -97 97 -1 13 -3 13 -15 -3 -8 -11 -15 -15 -15 -9 0 7 5 15 10
18 6 3 10 19 10 35 0 22 -4 28 -19 27 -29 -2 -52 -71 -50 -153 0 -38 0 -94 0
-125 -1 -41 3 -60 15 -70 10 -8 19 -12 22 -10 3 2 20 -16 37 -39 25 -34 39
-43 63 -44 27 -1 29 1 17 14 -7 8 -14 17 -14 20 0 3 -2 12 -5 20 -2 8 -7 40
-11 70 -4 30 -8 65 -10 78 -2 14 1 20 8 15 6 -4 8 0 4 10 -4 12 -1 17 10 17 9
0 14 -3 11 -6 -4 -3 -2 -19 2 -35 7 -22 5 -31 -8 -39 -10 -5 -12 -10 -4 -10 6
0 12 -8 13 -17 0 -14 2 -13 9 5 5 12 14 22 21 22 6 0 8 -7 5 -16 -4 -11 1 -18
14 -21 19 -5 19 -6 3 -19 -13 -9 -15 -16 -7 -24 7 -7 18 -4 37 13 29 24 37 69
23 115 -5 13 -3 22 3 22 6 0 11 7 11 15 0 10 10 15 32 15 17 0 40 7 50 17 10
9 18 11 18 5 0 -6 -6 -13 -12 -15 -10 -4 -9 -8 2 -16 10 -7 11 -11 3 -11 -7 0
-10 -6 -7 -14 3 -8 12 -12 20 -9 9 3 14 -1 14 -12 0 -12 7 -16 28 -13 21 2 27
8 26 26 0 17 4 21 15 17 10 -3 7 3 -6 14 -12 10 -19 21 -16 25 6 5 -12 10 -29
7 -4 0 -5 5 -2 13 3 9 -10 21 -38 35 -75 37 -112 80 -153 176 -14 35 -14 35 7
24 12 -6 41 -32 65 -58 39 -41 42 -43 33 -17 -6 15 -19 40 -30 54 -11 13 -20
30 -20 37 0 16 -53 25 -74 13z"/>
<path d="M3810 4474 c-18 -5 -60 -67 -60 -88 0 -8 14 -28 31 -45 43 -44 97
-43 134 1 22 26 25 38 20 67 -10 58 -58 83 -125 65z"/>
<path d="M2980 4450 c0 -6 6 -13 13 -16 8 -3 14 -10 14 -17 0 -7 41 -73 90
-147 l91 -135 -5 -58 c-7 -72 14 -131 67 -190 54 -58 56 -61 63 -77 5 -13 6
-13 6 0 1 8 -22 52 -50 98 -55 89 -56 97 -32 207 4 22 6 58 3 80 -5 39 -6 39
-19 16 l-13 -23 -18 30 c-10 17 -31 50 -46 74 -16 23 -28 46 -27 49 3 9 -31 6
-38 -3 -3 -4 -22 21 -43 57 -35 60 -56 80 -56 55z"/>
<path d="M7249 4339 c0 -30 -3 -48 -6 -41 -11 27 -23 10 -23 -33 0 -33 4 -45
15 -45 8 0 15 -5 15 -10 0 -6 -7 -13 -15 -16 -25 -10 -21 -247 6 -374 12 -55
23 -99 25 -97 1 1 4 24 5 49 2 26 6 45 11 42 4 -3 8 0 8 5 0 6 -4 11 -10 11
-5 0 -10 14 -10 30 0 17 4 30 9 30 15 0 23 -58 16 -116 -4 -36 -3 -54 4 -54 6
0 14 0 17 0 7 0 7 310 0 318 -17 17 -33 8 -28 -16 3 -17 1 -23 -7 -18 -14 9
-14 43 0 52 11 6 8 53 -6 124 -3 14 -8 66 -11 115 -7 103 -14 123 -15 44z"/>
<path d="M3742 4050 c-42 -30 -53 -61 -36 -105 16 -41 118 -59 174 -30 29 15
35 30 31 80 -3 25 -55 75 -80 75 -11 0 -26 2 -33 5 -8 3 -33 -8 -56 -25z"/>
<path d="M1000 3974 c0 -11 -2 -37 -5 -59 l-5 -40 16 43 c9 23 19 42 23 42 4
0 8 -87 9 -192 2 -190 2 -192 -16 -158 -11 22 -25 35 -38 36 -39 2 -43 12 -40
94 3 53 0 78 -6 73 -7 -4 -9 -48 -5 -127 8 -145 14 -177 33 -169 17 6 19 33 3
33 -6 0 -9 9 -6 20 3 11 1 18 -4 14 -5 -3 -9 10 -9 28 l1 33 17 -27 c9 -15 23
-27 32 -25 18 3 27 -40 11 -56 -16 -16 -14 -32 2 -18 8 6 17 8 20 4 4 -3 7
-84 7 -180 0 -95 4 -173 8 -173 4 0 9 159 10 353 1 193 3 376 5 404 2 47 0 52
-16 47 -10 -3 -24 0 -32 6 -12 10 -15 9 -15 -6z"/>
<path d="M1140 3972 c0 -7 -3 -11 -7 -9 -5 3 -16 -6 -26 -19 -14 -19 -15 -24
-4 -24 16 0 32 -45 22 -60 -4 -6 -13 -10 -21 -10 -19 0 -20 -116 -1 -123 6 -3
7 -6 1 -6 -13 -1 2 -152 15 -161 5 -3 9 -14 8 -25 -1 -14 3 -19 17 -17 10 2
15 -1 12 -7 -4 -5 -2 -12 3 -15 11 -7 23 24 19 45 -2 8 3 13 10 11 11 -2 17
18 13 42 -1 4 6 14 15 21 13 9 15 19 9 41 -4 16 -9 63 -11 104 -1 41 -10 93
-18 115 l-15 40 -1 -35 c-2 -30 -4 -27 -11 18 -9 52 -28 102 -29 74z"/>
<path d="M6691 3930 c-2 -19 -4 -53 -6 -75 -17 -206 -17 -256 0 -275 13 -14
14 -22 5 -37 -9 -14 -8 -27 4 -55 9 -21 18 -38 20 -38 2 0 3 22 1 50 -1 27 1
47 6 44 5 -3 9 -14 9 -25 0 -10 5 -19 10 -19 12 0 12 -4 -1 61 -5 30 -15 79
-21 109 -6 30 -14 109 -17 175 -4 66 -9 104 -10 85z"/>
<path d="M1389 3909 c0 -2 -2 -11 -4 -19 -8 -31 -27 -136 -32 -179 -4 -31 -2
-46 8 -52 24 -15 25 -11 22 60 -1 46 2 75 12 87 7 11 15 17 18 14 6 -6 11
-148 8 -210 -2 -35 -4 -41 -11 -25 -6 13 -9 -7 -9 -62 -1 -45 4 -85 9 -88 6
-4 10 -29 9 -56 -1 -27 1 -52 4 -56 4 -3 7 6 7 21 0 19 4 25 13 20 9 -6 9 -4
1 7 -6 8 -10 32 -9 54 7 103 7 342 0 358 -4 10 -5 30 -2 45 4 21 -1 36 -19 57
-13 15 -24 26 -25 24z"/>
<path d="M6341 3759 c1 -33 216 -176 239 -159 8 6 23 13 33 16 22 8 22 17 -1
37 -11 10 -26 14 -40 10 -17 -4 -24 -1 -28 14 -5 19 -127 88 -176 99 -25 5
-28 3 -27 -17z"/>
<path d="M883 3733 c-1 -20 -10 -41 -20 -50 -17 -14 -17 -14 1 -9 17 6 18 2
13 -51 -3 -32 -10 -59 -16 -61 -6 -2 -11 -13 -12 -25 -1 -16 -3 -13 -10 10 -8
26 -6 39 8 60 17 26 17 27 0 20 -14 -5 -17 -1 -17 28 0 19 -5 35 -11 35 -6 0
-8 -7 -5 -16 6 -17 -19 -147 -35 -176 -5 -10 -9 -25 -9 -33 0 -9 -3 -14 -8
-11 -4 2 -5 -14 -3 -37 l4 -42 15 38 c8 20 18 37 23 37 4 0 11 -20 15 -45 3
-25 12 -45 18 -45 9 0 11 22 9 76 -2 44 1 73 6 69 5 -3 12 3 14 12 4 14 5 13
6 -4 0 -13 -4 -23 -10 -23 -8 0 -8 -4 0 -14 7 -8 11 -36 10 -63 -2 -48 4 -73
20 -73 4 0 7 13 6 30 -1 16 2 35 6 42 7 10 9 10 9 1 0 -7 7 -13 15 -13 11 0
15 -13 16 -47 1 -29 4 -38 6 -23 7 34 -27 330 -40 355 -6 11 -10 32 -8 47 1
14 -1 28 -6 31 -4 3 -9 -11 -10 -30z"/>
<path d="M7569 3375 c-1 -55 -3 -109 -4 -120 -17 -140 -35 -564 -24 -571 5 -3
10 30 10 73 1 43 3 87 4 98 1 11 6 65 10 120 3 55 8 109 10 120 1 11 3 30 4
43 1 25 21 31 21 5 0 -9 3 -14 6 -10 4 3 -1 59 -10 124 -9 65 -15 135 -13 155
2 21 0 43 -5 50 -4 7 -8 -32 -9 -87z"/>
<path d="M6500 3334 c-1 -5 -19 -29 -41 -54 -38 -42 -40 -43 -33 -16 8 36 -10
32 -39 -7 -16 -20 -18 -29 -9 -40 7 -8 15 -35 18 -61 4 -30 10 -43 15 -35 9
15 21 -11 34 -70 8 -39 37 -71 64 -71 17 0 18 3 8 33 -7 17 -21 40 -31 50 -10
9 -15 17 -11 17 5 0 4 5 -2 11 -6 6 -9 18 -6 25 3 8 1 14 -5 14 -6 0 -9 11 -8
24 2 14 -1 30 -6 38 -7 10 -8 8 -4 -4 3 -10 1 -18 -4 -18 -15 0 -12 27 5 44 9
8 16 19 16 23 1 4 12 27 26 51 14 24 23 46 19 49 -3 4 -6 2 -6 -3z"/>
<path d="M19 3070 c-13 -7 -17 -26 -17 -82 l-1 -73 46 -22 c35 -16 51 -19 60
-11 7 6 13 7 13 2 1 -5 9 1 20 14 11 13 24 21 29 18 13 -9 8 19 -8 38 -16 20
-32 21 -25 2 4 -10 -2 -12 -20 -9 -14 3 -26 10 -26 15 0 5 6 6 13 2 6 -4 2 3
-10 15 -12 11 -20 27 -17 35 3 8 -3 20 -14 27 -10 8 -21 19 -23 26 -3 8 -9 9
-20 3z"/>
<path d="M1330 3004 c0 -3 13 -33 30 -67 16 -34 32 -78 35 -97 24 -156 30
-186 39 -192 8 -6 8 -10 0 -15 -8 -5 -12 -60 -12 -161 -1 -84 -4 -157 -8 -163
-32 -52 -43 -393 -21 -646 l12 -133 51 53 c27 29 66 64 85 77 18 14 43 33 54
43 11 9 31 27 45 38 17 14 21 22 12 25 -6 3 -10 10 -7 14 3 5 1 11 -4 15 -6 3
-8 -5 -5 -19 2 -14 0 -28 -6 -31 -10 -6 -12 27 -12 147 0 27 -3 46 -7 43 -4
-2 -8 17 -8 43 -1 37 0 42 7 22 10 -32 12 -28 15 45 3 63 -9 110 -25 100 -5
-3 -10 1 -10 9 0 9 -4 16 -10 16 -5 0 -10 11 -10 25 0 16 -9 29 -27 40 -16 8
-21 15 -13 14 36 -3 50 2 50 19 0 13 -2 14 -9 3 -5 -8 -11 -9 -15 -3 -3 6 -15
8 -26 5 -21 -6 -50 12 -50 30 0 6 7 2 16 -9 15 -19 16 -19 9 1 -5 16 -4 18 6
8 18 -18 25 -16 26 7 1 13 -4 20 -15 20 -13 0 -14 2 -4 9 7 4 12 12 11 17 -4
25 3 44 16 44 13 0 14 4 4 21 -6 12 -9 32 -6 45 2 14 1 27 -3 29 -5 3 -6 14
-3 24 3 10 0 22 -6 25 -6 4 -11 18 -11 32 0 23 -2 24 -15 10 -8 -8 -15 -21
-15 -28 0 -10 -2 -10 -9 1 -5 8 -11 9 -15 3 -3 -6 -2 -13 4 -17 5 -3 10 -11
10 -16 0 -6 -4 -8 -9 -5 -5 4 -7 -3 -4 -14 3 -11 9 -20 13 -20 5 0 10 -10 12
-22 2 -13 9 -22 16 -20 6 1 12 -3 12 -9 0 -6 -7 -8 -16 -5 -11 4 -15 2 -11 -8
4 -10 1 -13 -8 -9 -8 3 -12 9 -9 14 3 5 -1 6 -9 3 -10 -4 -13 3 -10 28 3 27 1
30 -7 13 -7 -15 -8 -4 -5 40 3 40 1 53 -5 40 -13 -31 -13 7 1 42 6 15 11 40
11 56 -1 19 4 27 16 27 14 0 14 2 3 9 -8 5 -10 14 -5 22 6 11 5 12 -8 2 -19
-16 -28 -7 -28 27 0 22 4 26 32 25 23 0 34 -5 36 -17 2 -10 -2 -18 -8 -18 -9
0 -9 -5 1 -17 8 -9 14 -19 14 -22 -1 -9 29 -1 40 11 7 8 4 9 -8 5 -12 -4 -16
-3 -11 4 3 6 15 9 25 6 12 -3 19 0 19 8 0 10 -7 11 -30 5 -28 -8 -29 -7 -19
11 5 11 15 16 21 13 7 -4 8 -3 4 4 -4 6 -14 8 -22 5 -14 -5 -15 -1 -9 27 4 20
3 30 -2 27 -6 -4 -8 4 -5 20 4 19 2 24 -8 18 -7 -5 -10 -20 -7 -40 4 -23 1
-32 -8 -32 -19 0 -23 13 -21 69 0 25 -3 44 -8 41 -5 -3 -6 -33 -3 -67 2 -33 3
-56 0 -49 -2 7 -11 9 -20 6 -13 -5 -15 0 -11 26 3 17 1 34 -4 37 -4 3 -8 14
-8 25 0 11 -4 17 -10 14 -15 -9 -12 8 4 31 11 14 12 22 3 33 -9 11 -9 15 0 18
19 7 -8 31 -28 26 -9 -3 -20 0 -23 6 -7 11 -26 15 -26 5z"/>
</g>
</svg>
