<?xml version="1.0" standalone="no"?>
<!DOCTYPE svg PUBLIC "-//W3C//DTD SVG 20010904//EN"
 "http://www.w3.org/TR/2001/REC-SVG-20010904/DTD/svg10.dtd">
<svg version="1.0" xmlns="http://www.w3.org/2000/svg"
 width="920.000000pt" height="779.000000pt" viewBox="0 0 920.000000 779.000000"
 preserveAspectRatio="xMidYMid meet">
<metadata>
Created by potrace 1.15, written by Peter Selinger 2001-2017
</metadata>
<g transform="translate(0.000000,779.000000) scale(0.100000,-0.100000)"
fill="#000000" stroke="none">
<path d="M4567 7334 c-73 -17 -101 -32 -161 -85 -60 -53 -106 -115 -106 -143
0 -16 17 -4 78 55 83 82 129 119 145 119 5 0 -8 -13 -29 -29 -66 -48 -178
-172 -219 -241 -45 -78 -67 -197 -47 -254 7 -18 12 -55 12 -83 0 -35 8 -65 26
-99 27 -51 119 -156 165 -189 30 -21 34 -32 21 -53 -6 -9 -34 12 -97 75 -86
86 -88 87 -82 53 4 -22 20 -47 40 -65 25 -22 34 -39 35 -63 1 -30 -4 -35 -41
-51 -23 -10 -67 -25 -98 -34 -100 -29 -167 -122 -258 -356 -46 -118 -61 -168
-91 -306 -12 -55 -30 -121 -41 -147 -23 -55 -17 -77 23 -85 16 -3 32 -12 35
-20 12 -30 -28 -457 -77 -823 -11 -85 -23 -173 -26 -195 -3 -22 -12 -87 -20
-145 -9 -58 -18 -125 -21 -150 -2 -25 -8 -49 -13 -54 -12 -12 -32 3 -26 19 2
7 -2 16 -10 19 -24 9 -27 7 -15 -7 6 -8 8 -17 4 -20 -3 -4 -2 -7 4 -7 6 0 11
-12 11 -26 0 -15 5 -30 11 -34 9 -5 11 -33 5 -103 -6 -82 -9 -95 -23 -89 -14
5 -14 3 -2 -11 14 -18 9 -110 -15 -272 l-6 -39 -20 38 c-27 53 -33 39 -7 -20
17 -41 20 -61 15 -119 -7 -83 -15 -115 -28 -115 -7 0 -7 -4 0 -12 6 -8 7 -30
3 -53 l-7 -40 -17 49 c-9 27 -14 52 -12 56 3 5 -2 15 -11 24 -8 9 -13 20 -10
25 4 5 2 11 -3 13 -6 1 -12 19 -14 38 -2 20 -7 41 -11 48 -4 7 -4 12 0 12 3 0
-1 11 -9 24 -9 12 -17 38 -19 57 -3 20 -10 34 -19 35 -28 2 -30 4 -18 25 8 15
8 19 0 15 -6 -4 -11 -2 -11 3 0 6 -7 11 -15 11 -8 0 -15 -7 -15 -15 0 -8 5
-15 11 -15 6 0 8 -9 4 -20 -4 -13 -1 -22 8 -26 8 -3 13 -13 10 -23 -3 -10 7
-47 21 -83 14 -36 26 -72 26 -80 0 -9 7 -35 16 -59 9 -24 20 -57 24 -74 5 -16
18 -56 29 -87 18 -51 18 -62 7 -115 -7 -32 -13 -111 -12 -175 1 -70 -3 -120
-9 -123 -6 -3 -5 -7 3 -11 14 -7 17 -34 3 -34 -14 0 -23 37 -16 60 4 11 2 20
-4 20 -6 0 -8 7 -5 15 4 8 2 15 -3 15 -6 0 -15 10 -21 23 -10 22 -11 22 -11
-5 -1 -16 4 -28 12 -28 9 0 8 -3 -2 -9 -8 -6 -9 -10 -2 -12 6 -2 14 -26 18
-54 6 -45 5 -48 -9 -34 -9 9 -18 29 -21 45 -3 25 -4 24 -7 -11 -2 -22 -4 -44
-5 -50 -2 -5 -3 -23 -4 -38 0 -16 -5 -26 -9 -23 -7 4 0 136 11 202 4 30 18 46
33 40 16 -6 17 0 4 29 l-9 20 -1 -20 c-2 -44 -18 4 -61 183 -6 23 -15 42 -19
42 -5 0 -6 8 -3 17 5 12 2 15 -10 10 -11 -4 -17 -1 -17 9 0 9 5 12 11 8 7 -4
10 -1 7 7 -3 8 -10 14 -16 14 -11 0 -14 6 -10 23 4 23 2 72 -4 72 -4 0 -10 21
-14 48 -8 55 -22 98 -23 70 -1 -28 -21 -21 -21 8 0 14 4 23 10 19 6 -3 10 1
10 10 0 10 -7 15 -17 13 -17 -3 -18 -12 -12 -125 1 -27 3 -37 6 -23 8 53 14
70 23 70 13 0 9 -63 -5 -72 -7 -6 -6 -10 2 -16 8 -5 10 -22 6 -50 -4 -28 -9
-39 -14 -31 -4 7 -5 17 -2 23 3 5 1 6 -5 2 -17 -10 -15 -32 5 -51 14 -15 15
-18 2 -25 -17 -10 -25 -75 -10 -84 5 -4 6 -18 2 -34 -4 -15 -6 -33 -5 -39 1
-7 2 -22 3 -34 1 -13 5 -18 14 -13 7 5 6 0 -3 -11 -9 -11 -10 -16 -2 -11 14 9
15 -4 3 -58 -5 -21 -6 -35 -1 -30 4 5 10 18 13 29 3 15 5 13 6 -8 1 -16 -5
-30 -14 -33 -10 -4 -15 -19 -14 -48 0 -32 2 -37 9 -21 8 19 9 19 9 -2 1 -13
-3 -23 -9 -23 -6 0 -10 -33 -10 -80 0 -50 -4 -80 -11 -80 -5 0 -7 5 -4 10 3 6
0 10 -7 10 -8 0 -9 3 -3 8 6 4 10 13 9 20 -1 6 -2 21 -3 32 -1 13 -6 17 -16
14 -8 -4 -15 -1 -15 5 0 6 6 10 13 8 8 -1 13 14 15 48 2 35 -1 46 -7 35 -5 -8
-7 -18 -5 -22 3 -4 0 -16 -5 -25 -8 -14 -10 -9 -11 25 0 29 4 42 14 42 9 0 12
9 9 28 -2 15 -5 39 -7 54 -2 15 -8 34 -15 42 -8 10 -9 16 -1 21 5 3 10 16 10
28 0 18 -2 19 -11 7 -8 -11 -9 -6 -7 22 2 20 1 35 -2 33 -3 -2 -11 -1 -16 3
-14 9 -27 152 -15 152 5 0 11 -15 13 -32 l3 -33 12 33 c7 18 8 30 3 27 -6 -4
-10 1 -10 9 0 9 5 16 10 16 6 0 10 4 10 10 0 5 -7 7 -15 4 -12 -5 -15 3 -17
37 -1 24 -1 58 1 76 1 17 -3 34 -9 38 -15 9 -12 28 3 19 6 -4 3 2 -7 14 -20
23 -32 29 -21 11 10 -16 7 -122 -4 -150 -8 -19 -10 -11 -11 41 -1 36 -5 83
-10 105 l-9 40 1 -45 c1 -78 -2 -110 -10 -110 -4 0 -6 19 -4 42 4 39 3 41 -12
25 -9 -9 -15 -22 -14 -29 2 -7 -2 -12 -8 -11 -17 3 -27 -59 -12 -69 10 -6 10
-8 1 -8 -15 0 -17 -36 -3 -45 6 -3 10 -31 10 -62 0 -69 -8 -67 -11 2 -1 28 -5
55 -9 60 -5 6 -11 55 -15 110 -4 55 -9 102 -12 105 -2 3 -4 -51 -4 -120 1
-138 -7 -250 -19 -250 -13 0 -21 -49 -24 -154 -5 -136 -17 -247 -27 -240 -5 3
-9 0 -9 -5 0 -6 5 -11 10 -11 6 0 10 -11 10 -25 0 -14 -4 -25 -9 -25 -14 0
-20 63 -7 79 8 11 8 13 -1 8 -9 -6 -11 2 -8 28 3 24 0 41 -10 51 -8 8 -12 21
-9 29 4 8 2 15 -3 15 -5 0 -10 -14 -11 -32 -5 -62 -12 -40 -11 33 1 41 3 66 6
57 7 -27 23 -22 23 7 0 14 -4 25 -10 25 -5 0 -11 24 -11 53 -1 28 -4 40 -6 25
-6 -42 -20 -34 -15 8 3 26 1 35 -7 30 -6 -4 -11 -1 -11 8 0 9 5 16 10 16 16 0
12 37 -4 43 -10 4 -13 1 -9 -9 3 -7 0 -14 -6 -14 -6 0 -11 12 -11 28 1 63 -15
156 -29 160 -8 3 -11 1 -8 -4 2 -5 7 -45 10 -89 3 -44 3 -74 0 -67 -2 6 -9 10
-14 6 -8 -4 -14 33 -10 59 0 4 -4 7 -9 7 -6 0 -10 7 -10 15 0 8 7 15 15 15 17
0 20 16 4 25 -6 4 -7 19 -4 35 5 23 2 32 -14 42 -26 16 -28 30 -3 21 9 -3 14
-3 10 1 -4 5 -2 20 3 34 5 14 7 33 3 41 -4 9 -6 29 -5 45 2 17 -1 26 -7 22
-13 -8 -24 69 -26 188 -1 50 -7 100 -13 111 -6 11 -13 37 -17 58 -4 21 -10 46
-13 54 -5 12 -3 14 8 8 11 -6 12 -5 2 6 -7 7 -13 28 -13 46 0 20 -5 33 -13 33
-8 0 -13 20 -15 57 -4 68 -12 85 -12 25 0 -31 -4 -42 -15 -42 -11 0 -14 -7
-10 -27 5 -24 4 -25 -4 -7 -5 12 -16 24 -25 27 -9 4 -16 12 -16 19 0 9 3 8 10
-2 9 -13 10 -13 10 0 0 8 -5 22 -10 30 -9 13 -10 13 -11 0 0 -8 -5 -4 -9 10
-6 17 -8 0 -8 -55 1 -78 -13 -108 -19 -43 -2 18 -5 42 -7 53 -3 11 -5 49 -7
85 l-2 65 -8 -60 c-5 -33 -9 -74 -10 -92 -1 -31 -23 -62 -35 -50 -3 3 -7 32
-8 64 -1 44 -5 58 -16 58 -12 0 -14 13 -12 68 3 54 0 68 -12 73 -19 7 -22 44
-3 44 8 0 9 2 1 8 -12 7 -21 40 -29 106 -8 62 -14 54 -12 -15 1 -35 6 -67 12
-71 7 -5 7 -8 0 -8 -7 0 -8 -34 -3 -102 49 -669 58 -833 63 -1128 3 -184 8
-454 11 -600 7 -275 -5 -570 -32 -798 -8 -68 -12 -128 -9 -132 3 -4 14 -6 24
-3 15 4 20 -1 23 -24 2 -23 14 -34 69 -63 37 -19 86 -51 109 -70 57 -47 62
-49 160 -49 113 -1 140 13 155 81 5 26 9 28 55 28 66 0 96 -13 108 -48 9 -25
18 -32 62 -41 28 -6 108 -11 178 -11 116 0 136 3 240 35 62 19 131 39 153 45
40 11 41 12 37 50 -2 24 0 36 7 32 5 -3 4 1 -2 9 -16 20 -38 82 -64 179 -11
41 -29 95 -41 120 -11 25 -22 59 -25 75 -3 17 -12 46 -20 65 -8 19 -17 50 -19
68 -2 18 -5 38 -7 44 -1 6 3 12 8 14 10 4 35 -61 35 -92 0 -21 67 -149 105
-199 48 -63 97 -156 91 -172 -3 -8 -1 -11 4 -8 10 6 14 -12 12 -45 -1 -10 8
-15 24 -15 13 0 24 5 24 10 0 6 5 2 11 -7 5 -10 18 -18 27 -18 10 0 23 -5 30
-10 9 -7 9 -7 2 2 -17 20 -12 25 20 20 17 -2 30 -9 30 -14 0 -6 6 -5 15 2 8 7
15 21 15 31 0 11 4 19 10 19 5 0 7 7 4 15 -4 9 -11 15 -18 14 -20 -3 -76 13
-76 22 0 5 -11 9 -24 9 -26 0 -40 14 -48 47 -4 15 -1 23 11 26 9 3 1 5 -18 6
-19 0 -32 4 -28 7 3 4 -3 24 -14 46 -11 22 -16 37 -10 33 16 -9 12 22 -13 95
-16 49 -26 65 -39 63 -10 0 -16 2 -13 5 10 9 -25 41 -39 36 -7 -3 -16 -1 -20
5 -3 7 3 11 15 11 19 0 20 1 6 16 -9 8 -16 17 -16 19 0 7 85 -17 91 -26 4 -7
29 -8 70 -3 35 4 57 9 49 10 -8 2 -37 6 -63 9 -41 5 -46 9 -36 21 10 12 9 13
-5 8 -9 -3 -16 -10 -16 -15 0 -5 -5 -9 -11 -9 -6 0 -9 7 -5 15 3 8 2 14 -2 13
-15 -3 -60 21 -65 36 -4 9 -4 16 -2 16 3 0 51 -7 108 -16 56 -8 169 -16 250
-18 82 -2 152 -7 157 -12 12 -13 110 -398 110 -434 0 -19 -13 -47 -34 -75 -19
-24 -38 -55 -42 -67 -7 -23 -34 -66 -65 -103 -9 -11 -20 -34 -23 -51 -9 -39 4
-44 127 -44 81 0 89 2 109 25 12 14 28 23 36 20 21 -8 62 5 62 20 0 7 19 16
45 20 40 5 49 3 76 -19 27 -23 39 -26 112 -25 45 0 98 5 117 12 30 10 35 17
35 42 0 27 -4 31 -37 35 -37 5 -59 26 -87 82 -7 14 -23 29 -35 32 -18 5 -19 8
-6 16 13 9 12 13 -7 29 -32 27 -45 69 -39 121 17 131 41 270 47 270 4 0 5 8 3
18 -7 29 12 44 67 54 54 8 441 29 447 23 8 -7 -120 -104 -151 -114 -41 -14
-52 -34 -31 -52 12 -10 20 -10 35 -1 23 15 25 5 3 -19 -20 -22 -12 -49 16 -49
12 0 29 14 43 38 14 20 39 53 57 72 l33 35 -6 -37 c-4 -21 -10 -53 -13 -72 -5
-26 -2 -34 11 -40 10 -3 20 -4 22 -2 8 8 23 80 23 112 0 17 12 53 28 80 l27
49 3 -46 c2 -37 7 -48 23 -52 24 -6 34 13 25 48 -16 65 -16 71 4 93 13 16 44
30 91 42 39 10 72 20 73 22 65 93 84 129 79 146 -3 13 11 40 44 82 26 35 65
85 86 112 20 26 37 52 37 57 0 5 13 20 28 33 22 18 30 36 35 73 3 28 9 58 13
69 5 14 3 17 -7 14 -8 -2 -32 -37 -53 -77 -27 -49 -64 -95 -118 -146 -43 -41
-82 -75 -87 -75 -9 0 -51 127 -66 200 -4 19 -14 48 -21 65 -8 16 -63 233 -124
480 -60 248 -117 472 -125 499 -18 57 -19 109 -4 139 6 12 32 44 58 70 l46 48
-1 197 c-2 216 -20 355 -73 557 -17 62 -25 112 -20 114 6 1 4 8 -4 15 -8 6
-36 79 -62 161 -38 120 -48 167 -51 235 -4 111 -14 239 -21 256 -3 8 6 18 21
25 29 14 34 43 10 57 -8 5 -22 38 -30 75 -9 37 -36 124 -61 195 -24 70 -47
139 -50 155 -3 15 -8 27 -12 27 -4 0 -29 29 -56 65 -27 36 -50 65 -51 65 -11
0 16 -53 43 -84 18 -22 33 -44 33 -50 0 -5 -15 10 -32 34 l-33 45 -8 -73 c-7
-58 -6 -81 7 -112 23 -58 21 -70 -11 -68 -39 3 -43 14 -35 83 4 33 7 86 6 118
0 31 3 57 8 57 4 0 8 12 8 26 0 23 -2 25 -15 14 -13 -11 -19 -9 -33 11 -28 39
-39 73 -32 93 6 19 7 19 28 -2 l22 -22 10 22 c9 19 9 18 4 -9 -7 -42 2 -70 25
-76 11 -2 40 -33 65 -68 25 -35 46 -60 46 -57 0 28 -48 152 -73 190 -36 54
-97 86 -113 61 -12 -19 -39 -8 -51 20 -13 28 -6 48 13 40 10 -4 12 0 8 11 -5
12 0 19 14 23 32 8 35 33 7 63 -19 20 -25 36 -25 73 0 32 -6 53 -18 65 -15 15
-16 20 -4 44 24 50 27 97 6 113 -24 18 -34 19 -34 1 0 -8 8 -16 17 -18 25 -5
-35 -70 -87 -93 -36 -16 -45 -17 -83 -4 -45 14 -51 19 -98 61 -28 27 -29 29
-13 53 l16 24 38 -32 c28 -23 36 -35 28 -44 -18 -22 -1 -44 29 -39 16 2 40 5
56 5 16 1 27 7 27 15 0 7 10 20 22 28 22 15 21 16 -30 27 -29 6 -61 11 -71 11
-10 0 -33 5 -50 11 -23 8 -29 15 -22 22 18 18 13 24 -31 45 -24 11 -76 51
-115 89 -60 56 -72 72 -67 91 8 30 50 29 83 -2 15 -13 42 -28 62 -34 31 -8 38
-7 57 15 12 14 22 32 22 41 0 14 4 12 18 -6 l18 -23 37 36 c33 32 37 33 37 15
0 -19 1 -20 29 -5 16 8 36 22 45 30 12 12 20 14 33 6 10 -6 13 -11 6 -11 -7 0
-17 -18 -23 -41 -10 -35 -9 -44 7 -62 17 -20 17 -20 -2 -13 -11 4 -16 3 -11
-1 10 -10 56 -11 50 -1 -3 4 2 8 11 8 9 0 13 5 10 10 -3 6 -2 10 3 10 5 0 7
11 4 25 -2 14 0 25 5 25 20 0 63 -50 63 -72 0 -38 17 -8 49 90 36 109 39 152
11 177 -16 14 -23 15 -34 6 -12 -10 -16 -9 -23 6 -5 10 -8 29 -8 43 0 14 -8
32 -17 41 -10 9 -18 23 -18 30 -1 25 -25 47 -69 65 -34 14 -48 15 -62 6 -10
-7 -44 -12 -75 -12 -49 0 -55 -2 -44 -15 7 -8 17 -15 22 -15 5 0 16 -7 24 -15
10 -9 31 -14 59 -12 55 3 58 -10 10 -52 -36 -31 -55 -39 -55 -22 0 5 -13 23
-29 40 -20 21 -38 31 -59 31 -40 0 -51 28 -22 52 12 10 30 18 39 19 10 0 7 4
-9 10 -13 6 -35 7 -48 4 -17 -4 -22 -2 -16 6 7 13 -45 9 -81 -6 -18 -8 -19 -7
-6 8 7 9 10 17 6 17 -21 0 23 31 56 40 22 6 39 15 39 20 0 12 -11 12 -83 -6z
m365 -209 c3 4 11 -9 17 -27 9 -26 14 -30 21 -18 8 12 10 9 10 -11 0 -14 6
-47 14 -72 16 -53 12 -57 -56 -57 -34 0 -39 3 -33 18 4 9 11 32 15 50 9 37 0
46 -43 38 -19 -3 -24 -1 -20 10 3 8 -1 14 -11 14 -24 0 -19 18 14 52 29 28 32
29 49 14 10 -9 20 -14 23 -11z m-378 -922 c-4 -15 -8 -32 -9 -38 0 -5 -4 -15
-8 -22 -9 -14 21 -65 34 -58 10 7 29 -28 29 -54 0 -12 -4 -21 -9 -21 -14 0 9
-63 26 -73 7 -4 13 -25 13 -45 0 -35 10 -107 25 -178 7 -30 5 -31 -18 -27 -27
5 -36 -5 -48 -51 -6 -28 -7 -26 -8 17 -1 29 6 62 19 86 24 48 14 94 -30 136
-33 31 -39 51 -14 41 29 -11 5 37 -40 79 -24 22 -46 48 -49 58 -9 24 2 21 25
-8 25 -32 62 -35 52 -3 -3 12 -18 31 -33 44 -14 12 -34 36 -45 54 -18 32 -18
32 2 21 28 -15 42 -14 42 4 0 8 -4 15 -10 15 -18 0 -10 22 10 27 14 4 20 14
20 31 0 24 1 25 16 10 12 -12 14 -24 8 -45z m-374 -1175 c0 -9 6 -21 14 -25
17 -10 46 -94 46 -135 0 -34 -49 -120 -65 -115 -17 6 -55 69 -55 92 0 13 -7
36 -15 51 -26 51 -17 98 30 148 22 23 29 26 36 15 5 -8 9 -22 9 -31z m-531
-2335 c41 -48 84 -124 84 -149 0 -7 4 -11 8 -9 11 7 18 -20 12 -44 -3 -12 1
-31 9 -44 9 -13 14 -37 11 -57 -5 -44 -24 -110 -32 -110 -8 0 -51 101 -51 118
0 7 -4 11 -9 7 -6 -3 -9 3 -9 12 0 10 -3 26 -7 36 -4 9 -3 17 3 17 5 0 13 -11
16 -25 4 -14 11 -25 16 -25 6 0 3 17 -6 38 -9 20 -28 66 -41 102 -14 36 -29
74 -33 85 -5 11 -10 29 -13 40 -3 11 -8 28 -12 38 -13 32 13 17 54 -30z"/>
<path d="M2998 6803 c-10 -2 -15 -10 -11 -19 3 -10 -2 -14 -18 -14 -20 0 -21
2 -9 11 20 14 -42 2 -88 -17 l-33 -13 16 -37 c8 -20 15 -39 15 -42 0 -4 7 4
16 16 19 27 28 28 40 4 7 -16 15 -17 40 -10 68 18 123 105 78 122 -17 6 -19 6
-46 -1z"/>
<path d="M2546 6713 c-4 -28 -2 -41 9 -49 8 -6 15 -21 15 -33 0 -18 6 -21 39
-21 63 0 101 11 101 29 0 51 -73 111 -133 111 -20 0 -25 -6 -31 -37z"/>
<path d="M3143 5681 c-18 -11 -20 -36 -6 -76 8 -22 16 -60 17 -85 3 -49 41
-156 63 -178 7 -7 13 -19 13 -25 0 -7 4 -6 10 3 10 15 10 15 15 -40 0 -8 4
-21 8 -28 5 -6 5 -12 1 -12 -3 0 -1 -7 7 -16 10 -13 10 -17 -2 -25 -11 -8 -10
-9 6 -7 17 3 20 -2 18 -31 -1 -20 2 -29 6 -22 6 9 10 8 15 -5 5 -12 1 -23 -10
-31 -10 -7 -14 -13 -8 -13 12 0 34 -50 31 -70 -1 -8 -7 -21 -11 -29 -7 -10 -6
-12 4 -6 10 6 12 3 8 -13 -4 -12 -2 -22 3 -22 5 0 9 -15 9 -32 -1 -18 1 -50 4
-70 2 -21 1 -38 -3 -38 -13 0 -9 -29 5 -34 6 -2 15 -31 18 -63 3 -32 8 -83 12
-113 3 -30 9 -57 13 -60 13 -8 8 -64 -7 -73 -9 -6 -9 -13 -2 -27 6 -11 8 -32
4 -47 -4 -22 -3 -25 5 -13 9 13 11 13 11 -2 0 -10 -6 -18 -14 -18 -8 0 -17 8
-19 18 -3 11 -5 7 -6 -10 -1 -23 -5 -26 -28 -25 -20 2 -28 8 -28 22 0 11 -6
29 -12 40 -10 17 -12 17 -13 3 0 -9 4 -28 9 -41 5 -13 12 -59 15 -103 4 -43 9
-99 13 -124 l6 -45 8 35 c5 21 4 37 -3 41 -7 4 -7 9 1 13 6 4 11 2 11 -3 0
-21 15 -10 45 32 l30 42 -1 140 c0 100 -7 173 -22 255 -31 158 -45 334 -32
380 7 23 -24 156 -39 170 -3 3 -7 16 -9 30 -2 14 -12 50 -21 80 -10 30 -31
107 -46 170 -16 63 -34 129 -41 145 -15 35 -48 65 -61 56z"/>
<path d="M5944 4170 c-80 -32 -95 -178 -28 -268 53 -68 127 -81 189 -32 58 46
86 92 64 106 -5 3 -9 -3 -9 -13 -1 -46 -66 -93 -131 -93 -52 0 -106 30 -126
70 -18 36 -16 107 4 141 34 57 129 77 191 39 19 -12 41 -38 52 -63 11 -23 20
-34 20 -24 0 29 -26 71 -69 110 -36 32 -47 37 -89 36 -26 0 -57 -4 -68 -9z"/>
<path d="M5656 4079 c-58 -45 -71 -129 -35 -221 22 -57 35 -75 45 -65 3 3 -3
18 -15 32 -43 56 -39 149 9 197 34 33 94 38 141 11 31 -19 59 -76 59 -123 0
-26 -4 -30 -26 -30 -22 0 -24 3 -15 14 21 25 16 77 -9 98 -31 25 -66 23 -97
-8 -20 -20 -24 -31 -19 -57 3 -18 15 -40 27 -49 l21 -18 -27 -10 c-14 -5 -33
-10 -40 -10 -9 0 -12 -6 -9 -15 4 -8 11 -12 17 -8 6 3 7 1 3 -5 -10 -16 -18
-53 -17 -76 0 -11 -9 -32 -21 -48 -11 -16 -17 -32 -14 -35 3 -4 6 -1 6 5 0 7
4 12 9 12 16 0 -10 -72 -32 -91 l-22 -18 28 -1 c19 0 26 4 21 12 -4 7 -3 8 5
4 27 -17 -19 -90 -51 -80 -17 5 -26 -10 -10 -20 8 -5 83 11 117 25 11 4 54 22
96 39 126 51 199 133 199 223 0 32 -6 41 -42 67 -23 17 -52 33 -65 36 -19 5
-23 13 -23 48 0 52 -40 139 -74 161 -44 29 -106 31 -140 4z"/>
<path d="M5975 4055 c-44 -43 -21 -108 42 -121 69 -14 109 83 53 128 -31 25
-66 22 -95 -7z"/>
<path d="M6366 3605 c-21 -38 -116 -135 -187 -190 l-47 -36 6 -65 c4 -54 2
-68 -14 -85 -23 -26 -71 -50 -142 -74 -62 -20 -62 -27 -4 -114 119 -176 286
-122 366 119 47 144 74 391 49 458 -8 21 -9 20 -27 -13z"/>
<path d="M6001 2793 c-1 -18 40 -64 51 -57 5 3 7 2 6 -3 -4 -14 29 -67 62 -98
28 -27 38 -30 93 -30 34 0 70 4 81 8 18 7 18 8 1 27 -10 11 -22 17 -26 14 -5
-3 -9 -1 -9 4 0 6 -11 13 -25 16 -14 4 -35 18 -47 31 -16 19 -28 24 -50 20
-19 -4 -27 -2 -23 5 3 5 -1 10 -9 10 -9 0 -16 4 -16 9 0 5 -8 8 -17 7 -10 0
-17 5 -15 12 1 8 -2 11 -8 7 -5 -3 -10 -1 -10 5 0 7 -6 10 -14 7 -8 -3 -17 -1
-20 6 -3 9 -5 9 -5 0z"/>
<path d="M6660 2551 c-5 -11 -10 -31 -10 -45 0 -57 -124 -376 -150 -384 -11
-4 -10 0 3 13 10 9 15 20 12 23 -3 4 -10 1 -14 -6 -4 -7 -30 -17 -57 -21 l-49
-8 53 -8 c41 -6 52 -11 47 -22 -3 -8 -12 -47 -20 -87 -8 -39 -22 -76 -30 -82
-8 -6 -15 -15 -15 -19 0 -4 -16 -29 -35 -55 -19 -26 -35 -54 -35 -62 0 -23
-32 -46 -69 -50 -43 -4 -63 -31 -39 -54 12 -13 20 -14 37 -5 12 7 21 8 21 2 0
-31 -26 -66 -85 -112 -48 -39 -65 -59 -63 -74 6 -41 39 -29 98 36 33 36 61 60
67 56 9 -6 28 -101 25 -127 -1 -16 21 -40 38 -40 27 0 32 15 19 58 -6 21 -9
49 -7 62 3 23 6 21 42 -28 28 -39 44 -52 59 -50 33 5 30 23 -9 64 -49 52 -64
91 -64 169 0 54 6 77 34 133 18 37 39 84 46 105 6 21 34 72 62 113 39 58 51
87 58 134 5 33 20 81 34 107 14 26 32 68 40 93 8 25 25 69 37 98 l24 54 -24
19 c-30 24 -67 24 -81 0z"/>
<path d="M6138 2540 c-29 -22 -53 -97 -44 -135 9 -35 76 -100 118 -114 46 -15
82 -1 108 41 24 40 25 73 4 144 -12 41 -22 58 -44 69 -42 22 -112 19 -142 -5z"/>
<path d="M5978 2090 c-83 -25 -125 -81 -113 -153 12 -69 92 -127 177 -127 96
0 152 151 87 234 -39 49 -89 65 -151 46z"/>
<path d="M5907 1748 c-67 -63 -83 -125 -45 -173 27 -35 105 -85 133 -85 28 0
95 57 110 94 27 63 -31 165 -104 186 -52 14 -56 13 -94 -22z"/>
</g>
</svg>
